<?xml version="1.0" encoding="UTF-8"?>
<svg width="512px" height="336px" viewBox="0 0 512 336" version="1.1" xmlns="http://www.w3.org/2000/svg" xmlns:xlink="http://www.w3.org/1999/xlink">
    <!-- Generator: Sketch 39.1 (31720) - http://www.bohemiancoding.com/sketch -->
    <title>001-united-kingdom</title>
    <desc>Created with Sketch.</desc>
    <defs></defs>
    <g id="Page-1" stroke="none" stroke-width="1" fill="none" fill-rule="evenodd">
        <g id="001-united-kingdom">
            <path d="M503.172,335.276 L8.828,335.276 C3.953,335.276 0,331.328291 0,326.459816 L0,9.09218368 C0,4.22370889 3.953,0.276 8.828,0.276 L503.173,0.276 C508.048,0.276 512.001,4.22370889 512.001,9.09218368 L512.001,326.459816 C512,331.328291 508.047,335.276 503.172,335.276 L503.172,335.276 Z" id="Shape" fill="#41479B"></path>
            <path d="M512,9.09218368 C512,4.22370889 508.047,0.276 503.172,0.276 L463.677,0.276 L300.137,107.279583 L300.137,0.276 L211.861,0.276 L211.861,107.279583 L48.322,0.276 L8.828,0.276 C3.953,0.276 0,4.22370889 0,9.09218368 L0,31.8926243 L140.309,123.69658 L0,123.69658 L0,211.854422 L140.309,211.854422 L0,303.659376 L0,326.459816 C0,331.328291 3.953,335.276 8.828,335.276 L48.323,335.276 L211.863,228.272417 L211.863,335.276 L300.139,335.276 L300.139,228.272417 L463.679,335.276 L503.174,335.276 C508.049,335.276 512.002,331.328291 512.002,326.459816 L512.002,303.659376 L371.693,211.85542 L512,211.85542 L512,123.697578 L371.691,123.697578 L512,31.8926243 L512,9.09218368 L512,9.09218368 Z" id="Shape" fill="#F5F5F5"></path>
            <g id="Group" fill="#FF4B55">
                <polygon id="Shape" points="512 141.328947 282.483 141.328947 282.483 0.276 229.517 0.276 229.517 141.328947 0 141.328947 0 194.223053 229.517 194.223053 229.517 335.276 282.483 335.276 282.483 194.223053 512 194.223053"></polygon>
                <path d="M178.841353,212.138 L0.25,327.58405 C0.874627,331.826802 4.38752925,335.138 8.82188125,335.138 L20.9736248,335.138 L211.25,212.138995 L178.841353,212.138995 L178.841353,212.138 Z" id="Shape"></path>
                <path d="M346.381287,212.138 L313.96,212.138 L504.033641,335.138 C508.463724,334.667545 511.96,331.06139 511.96,326.520305 L511.96,319.286067 L346.381287,212.138 L346.381287,212.138 Z" id="Shape"></path>
                <path d="M0,18.7442226 L161.606564,123.137 L194,123.137 L5.13751822,1.137 C2.12073715,2.53170039 0,5.5288648 0,9.05687028 L0,18.7442226 L0,18.7442226 Z" id="Shape"></path>
                <path d="M511.138,7.55134337 C510.395952,3.4488884 506.964976,0.277 502.639354,0.277 L490.025533,0.277 L300.138,123.277 L332.480927,123.277 L511.138,7.55134337 Z" id="Shape"></path>
            </g>
        </g>
    </g>
</svg>