<?xml version="1.0" encoding="UTF-8"?>
<svg width="19px" height="19px" viewBox="0 0 19 19" version="1.1" xmlns="http://www.w3.org/2000/svg" xmlns:xlink="http://www.w3.org/1999/xlink">
    <!-- Generator: Sketch 39.1 (31720) - http://www.bohemiancoding.com/sketch -->
    <title>minus</title>
    <desc>Created with Sketch.</desc>
    <defs></defs>
    <g id="Page-1" stroke="none" stroke-width="1" fill="none" fill-rule="evenodd">
        <g id="minus" fill="#000000">
            <g id="Page-1">
                <g id="minus">
                    <path d="M0,3.00012207 C0,1.3432004 1.3360431,0 3.00012207,0 L15.9998779,0 C17.6567996,0 19,1.3360431 19,3.00012207 L19,15.9998779 C19,17.6567996 17.6639569,19 15.9998779,19 L3.00012207,19 C1.3432004,19 0,17.6639569 0,15.9998779 L0,3.00012207 L0,3.00012207 Z M1,3.00010618 C1,1.89547804 1.89005841,1 3.00010618,1 L15.9998938,1 C17.104522,1 18,1.89005841 18,3.00010618 L18,15.9998938 C18,17.104522 17.1099416,18 15.9998938,18 L3.00010618,18 C1.89547804,18 1,17.1099416 1,15.9998938 L1,3.00010618 L1,3.00010618 Z" id="Combined-Shape"></path>
                    <rect id="Rectangle" x="3" y="9" width="13" height="1"></rect>
                </g>
            </g>
        </g>
    </g>
</svg>