<?xml version="1.0" standalone="no"?>
<!DOCTYPE svg PUBLIC "-//W3C//DTD SVG 20010904//EN"
 "http://www.w3.org/TR/2001/REC-SVG-20010904/DTD/svg10.dtd">
<svg version="1.0" xmlns="http://www.w3.org/2000/svg"
 width="700.000000pt" height="700.000000pt" viewBox="0 0 700.000000 700.000000"
 preserveAspectRatio="xMidYMid meet">
<metadata>
Created by potrace 1.11, written by Peter Selinger 2001-2013
</metadata>
<g transform="translate(0.000000,700.000000) scale(0.100000,-0.100000)"
fill="#000000" stroke="none">
<path d="M3435 6951 c-143 -110 -334 -258 -365 -281 -19 -14 -68 -52 -110 -85
-42 -33 -89 -69 -104 -80 -33 -24 -95 -71 -116 -88 -8 -7 -141 -109 -295 -227
-154 -117 -323 -247 -375 -287 -152 -117 -691 -531 -1365 -1048 -79 -60 -155
-119 -170 -129 -14 -11 -35 -27 -45 -35 -10 -9 -124 -97 -254 -196 l-236 -180
0 -448 0 -449 48 35 c26 18 84 60 129 93 45 32 91 66 103 74 12 8 41 29 64 46
22 17 415 300 871 629 457 328 848 611 870 627 22 16 146 105 275 198 280 201
242 174 470 339 102 74 205 148 230 166 25 17 134 96 243 175 l198 142 163
-163 162 -164 -1 -2808 0 -2807 1220 2 1220 3 2 1940 c1 1067 2 1964 2 1993 1
45 3 51 14 40 8 -7 26 -22 41 -33 16 -11 33 -25 40 -30 6 -6 144 -114 306
-239 162 -126 303 -236 313 -244 16 -14 17 9 17 474 l0 489 -102 80 c-57 44
-110 85 -118 92 -19 15 -159 124 -265 205 -236 181 -245 190 -246 228 0 19 0
312 -1 651 l0 616 -407 -1 -406 -1 -2 -2665 c0 -1466 -2 -2674 -2 -2685 -1
-20 -7 -20 -403 -20 l-403 0 -3 2564 -2 2564 -23 19 c-12 11 -33 29 -47 41
-14 12 -70 60 -125 107 -55 46 -107 91 -116 100 -9 8 -41 36 -70 61 -445 380
-643 550 -688 588 -29 25 -58 49 -65 52 -6 4 -38 -14 -71 -40z"/>
<path d="M2918 4507 c-86 -67 -274 -212 -418 -322 -145 -110 -268 -205 -274
-210 -6 -6 -54 -43 -106 -82 -52 -40 -120 -91 -150 -114 -64 -49 -165 -126
-345 -264 -71 -55 -137 -105 -145 -112 -18 -15 -284 -218 -330 -253 -19 -14
-68 -52 -111 -85 -42 -33 -147 -113 -233 -179 l-156 -119 0 -1383 0 -1384
1222 2 1221 3 1 2312 c1 1536 -2 2313 -9 2312 -5 0 -80 -55 -167 -122z m-639
-2591 c0 -777 -3 -1015 -12 -1018 -10 -4 -783 -3 -797 1 -3 0 -5 311 -5 690
l0 690 365 291 c201 161 383 307 405 326 22 18 41 34 42 34 1 0 2 -456 2
-1014z"/>
</g>
</svg>
