<svg xmlns="http://www.w3.org/2000/svg">
<defs>
<font id="Fedra Sans Alt Pro Book TF">
<font-face  font-family="Fedra Sans Alt Pro" units-per-em="1000" ascent="780" descent="-220" font-style="normal" font-weight="400" font-stretch="normal" cap-height="707" x-height="546" underline-position="-75" underline-thickness="50" />

<glyph glyph-name="NULL" d="" />
<glyph glyph-name="CR" unicode="&#xd;" horiz-adv-x="250" d="" />
<glyph glyph-name="space" unicode="&#x20;" horiz-adv-x="261" d="" />
<glyph glyph-name="exclam" unicode="&#x21;" horiz-adv-x="288" d="M109 172 L179 172 L183 312 L183 707 L105 707 L105 312 L109 172 Z M99 0 L189 0 L189 87 L99 87 L99 0 Z " />
<glyph glyph-name="quotedbl" unicode="&#x22;" horiz-adv-x="355" d="M64 515 L123 515 L129 753 L60 753 L64 515 Z M231 515 L290 515 L296 753 L227 753 L231 515 Z " />
<glyph glyph-name="numbersign" unicode="&#x23;" horiz-adv-x="642" d="M579 159 L579 228 L473 228 L487 478 L579 478 L579 546 L490 546 L500 707 L424 707 L415 546 L249 546 L258 707 L182 707 L173 546 L64 546 L64 478 L169 478 L155 228 L64 228 L64 159 L151 159 L142 0 L217 0 L226 159 L393 159 L384 0 L460 0 L469 159 L579 159 Z M411 478 L397 228 L231 228 L244 478 L411 478 Z " />
<glyph glyph-name="dollar" unicode="&#x24;" horiz-adv-x="537" d="M489 186 C489 306 390 355 298 399 L298 642 C348 640 383 631 420 618 L443 679 C405 696 362 708 298 711 L298 748 L297 748 L297 800 L223 800 L223 708 C132 695 62 641 62 543 C62 432 140 385 223 346 L223 63 C163 65 119 77 71 99 L43 33 C80 13 131 -6 223 -8 L223 -99 L297 -99 L297 -51 L298 -51 L298 -4 C407 10 489 70 489 186 L489 186 Z M408 180 C408 111 357 80 298 68 L298 311 C359 281 408 246 408 180 L408 180 Z M140 547 C140 600 173 627 223 638 L223 437 C175 464 140 496 140 547 L140 547 Z " />
<glyph glyph-name="percent" unicode="&#x25;" horiz-adv-x="790" d="M201 387 C286 387 357 447 357 552 C357 675 287 714 204 714 C122 714 49 654 49 545 C49 432 118 387 201 387 L201 387 Z M201 445 C145 445 119 480 119 545 C119 623 157 658 204 658 C262 658 290 616 290 552 C290 485 254 445 201 445 L201 445 Z M583 -9 C669 -9 740 51 740 157 C740 280 670 318 586 318 C504 318 432 259 432 149 C432 36 501 -9 583 -9 L583 -9 Z M583 50 C527 50 502 84 502 149 C502 227 540 262 586 262 C645 262 672 221 672 157 C672 89 637 50 583 50 L583 50 Z M140 58 L673 591 L631 636 L97 104 L140 58 Z " />
<glyph glyph-name="ampersand" unicode="&#x26;" horiz-adv-x="693" d="M570 352 C537 272 490 203 437 152 C371 203 312 268 271 337 C365 396 472 452 472 560 C472 639 415 716 310 716 C197 716 139 628 139 521 C139 466 154 409 181 353 C112 305 53 248 53 157 C53 32 143 -11 239 -11 C310 -11 378 15 440 64 C513 18 590 -10 662 -11 L672 52 C613 56 551 79 493 114 C543 166 587 235 625 316 L570 352 Z M210 527 C210 605 243 652 307 652 C364 652 401 613 401 561 C401 486 324 441 242 392 C222 438 210 484 210 527 L210 527 Z M245 55 C192 55 127 81 127 161 C127 218 163 260 211 296 C255 225 315 159 382 106 C335 73 288 55 245 55 L245 55 Z " />
<glyph glyph-name="quotesingle" unicode="&#x27;" horiz-adv-x="191" d="M64 515 L125 515 L132 753 L60 753 L64 515 Z " />
<glyph glyph-name="parenleft" unicode="&#x28;" horiz-adv-x="355" d="M308 -172 C206 -71 125 76 125 283 C125 517 224 643 309 718 L266 766 C165 693 49 539 49 283 C49 34 154 -122 266 -221 L308 -172 Z " />
<glyph glyph-name="parenright" unicode="&#x29;" horiz-adv-x="355" d="M89 -221 C201 -122 305 34 305 283 C305 539 189 693 89 766 L45 718 C130 643 229 517 229 283 C229 76 149 -71 46 -172 L89 -221 Z " />
<glyph glyph-name="asterisk" unicode="&#x2a;" horiz-adv-x="436" d="M82 466 L173 537 L155 570 L47 526 L82 466 Z M155 598 L174 632 L83 703 L47 643 L155 598 Z M182 408 L253 408 L238 522 L200 522 L182 408 Z M200 646 L239 646 L254 762 L184 762 L200 646 Z M354 465 L390 527 L283 570 L262 536 L354 465 Z M282 600 L390 643 L355 703 L262 632 L282 600 Z " />
<glyph glyph-name="plus" unicode="&#x2b;" horiz-adv-x="582" d="M251 54 L320 54 L319 270 L546 270 L546 336 L318 334 L320 557 L251 557 L251 335 L37 336 L37 270 L251 270 L251 54 Z " />
<glyph glyph-name="comma" unicode="&#x2c;" horiz-adv-x="219" d="M43 -125 L111 -125 C132 -84 151 -35 151 46 L151 83 L69 83 L69 15 C69 -29 58 -89 43 -125 L43 -125 Z " />
<glyph glyph-name="&amp;#x2d;" unicode="&#x2d;" horiz-adv-x="493" d="M98 252 L396 252 L396 321 L98 321 L98 252 Z " />
<glyph glyph-name="&amp;#xad;" unicode="&#xad;" horiz-adv-x="493" d="M98 252 L396 252 L396 321 L98 321 L98 252 Z " />
<glyph glyph-name="period" unicode="&#x2e;" horiz-adv-x="232" d="M69 0 L164 0 L164 94 L69 94 L69 0 Z " />
<glyph glyph-name="slash" unicode="&#x2f;" horiz-adv-x="430" d="M61 -62 L135 -62 L367 766 L294 766 L61 -62 Z " />
<glyph glyph-name="zero" unicode="0" horiz-adv-x="600" d="M295 -9 C483 -9 550 142 550 364 C550 538 513 713 311 713 C106 713 51 536 51 342 C51 147 105 -9 295 -9 L295 -9 Z M299 59 C186 59 134 162 133 346 C132 488 158 646 306 646 C447 646 468 492 468 358 C467 165 420 59 299 59 L299 59 Z " />
<glyph glyph-name="one" unicode="1" horiz-adv-x="600" d="M87 0 L513 0 L513 71 L339 71 L339 707 L90 701 L90 639 L261 639 L261 71 L87 71 L87 0 Z " />
<glyph glyph-name="two" unicode="2" horiz-adv-x="600" d="M72 0 L538 0 L538 69 L173 69 C337 219 502 363 502 516 C502 608 451 715 282 715 C182 715 125 679 95 659 L125 602 C142 612 195 645 274 645 C358 645 422 613 422 507 C422 353 96 90 72 65 L72 0 Z " />
<glyph glyph-name="three" unicode="3" horiz-adv-x="600" d="M268 -9 C396 -9 525 38 525 185 C525 306 409 358 333 376 C392 393 491 446 491 550 C491 668 384 715 270 715 C202 715 148 696 117 681 L141 624 C151 627 197 647 265 647 C348 647 415 623 415 543 C415 449 310 407 223 401 L223 335 C335 329 446 292 446 184 C446 76 338 62 258 62 C188 62 128 79 103 87 L84 22 C84 22 151 -9 268 -9 L268 -9 Z " />
<glyph glyph-name="four" unicode="4" horiz-adv-x="600" d="M355 0 L434 0 L434 189 L557 189 L557 259 L434 259 L434 707 L316 707 L43 259 L43 189 L355 189 L355 0 Z M122 259 L355 647 L355 259 L122 259 Z " />
<glyph glyph-name="five" unicode="5" horiz-adv-x="600" d="M269 -11 C414 -11 523 68 523 213 C523 342 419 420 287 420 C257 420 230 420 197 418 L197 639 L499 639 L499 707 L122 707 L122 343 C161 347 195 349 228 350 C243 351 257 351 273 351 C358 351 445 307 445 201 C445 115 369 62 268 62 C200 62 156 72 117 82 L97 12 C123 4 178 -11 269 -11 L269 -11 Z " />
<glyph glyph-name="six" unicode="6" horiz-adv-x="600" d="M306 -13 C436 -13 528 69 528 225 C528 347 461 435 316 435 C243 435 193 413 156 394 C171 520 225 644 375 644 C418 644 442 640 460 635 L477 700 C457 707 425 714 376 714 C196 714 71 577 71 302 C71 61 157 -13 306 -13 L306 -13 Z M313 55 C181 55 150 142 150 296 L150 326 C189 345 238 367 307 367 C390 367 450 321 450 215 C450 127 401 55 313 55 L313 55 Z " />
<glyph glyph-name="seven" unicode="7" horiz-adv-x="600" d="M201 -11 L526 639 L526 707 L68 707 L68 637 L448 637 L131 15 L201 -11 Z " />
<glyph glyph-name="eight" unicode="8" horiz-adv-x="600" d="M297 -12 C441 -12 530 61 530 178 C530 275 446 324 361 371 C436 417 505 466 505 554 C505 633 439 717 308 717 C178 717 97 652 97 548 C97 464 161 415 233 370 C150 323 69 272 69 168 C69 59 161 -12 297 -12 L297 -12 Z M303 53 C213 53 149 97 149 175 C149 250 218 295 294 338 C374 293 449 251 449 182 C449 93 388 53 303 53 L303 53 Z M299 401 C231 440 175 481 175 544 C175 610 220 654 307 654 C394 654 426 601 426 544 C426 480 368 439 299 401 L299 401 Z " />
<glyph glyph-name="nine" unicode="9" horiz-adv-x="600" d="M213 -13 C420 -13 530 93 530 396 C530 603 435 712 295 712 C167 712 70 632 70 481 C70 335 146 257 278 257 C354 257 407 276 443 296 C431 163 385 57 213 57 C180 57 143 65 135 67 L118 1 C140 -6 165 -13 213 -13 L213 -13 Z M293 325 C211 325 151 361 151 489 C151 576 200 642 288 642 C405 642 448 527 448 409 C448 394 448 376 447 362 C411 344 360 325 293 325 L293 325 Z " />
<glyph glyph-name="colon" unicode="&#x3a;" horiz-adv-x="294" d="M99 0 L194 0 L194 94 L99 94 L99 0 Z M99 452 L194 452 L194 546 L99 546 L99 452 Z " />
<glyph glyph-name="semicolon" unicode="&#x3b;" horiz-adv-x="292" d="M79 -125 L147 -125 C169 -86 189 -38 189 40 L189 83 L105 83 L105 7 C105 -38 91 -92 79 -125 L79 -125 Z M97 452 L192 452 L192 546 L97 546 L97 452 Z " />
<glyph glyph-name="less" unicode="&#x3c;" horiz-adv-x="510" d="M450 64 L450 139 L98 303 L450 471 L450 545 L47 353 L47 254 L450 64 Z " />
<glyph glyph-name="equal" unicode="&#x3d;" horiz-adv-x="704" d="M105 166 L599 166 L599 232 L105 232 L105 166 Z M105 376 L599 376 L599 442 L105 442 L105 376 Z " />
<glyph glyph-name="greater" unicode="&#x3e;" horiz-adv-x="510" d="M60 64 L463 254 L463 353 L60 545 L60 471 L412 303 L60 139 L60 64 Z " />
<glyph glyph-name="question" unicode="&#x3f;" horiz-adv-x="377" d="M105 163 L173 175 C160 200 151 231 151 254 C151 348 331 398 331 521 C331 652 191 701 71 710 L55 642 C148 633 250 603 250 516 C250 431 78 389 78 256 C78 223 92 187 105 163 L105 163 Z M92 0 L181 0 L181 87 L92 87 L92 0 Z " />
<glyph glyph-name="at" unicode="&#x40;" horiz-adv-x="783" d="M366 -71 C434 -71 481 -67 540 -45 L527 13 C487 4 426 -5 376 -5 C224 -5 129 71 129 274 C129 558 289 655 463 655 C579 655 664 599 664 430 C664 251 579 207 521 207 C503 207 499 226 502 252 L529 479 C499 493 457 501 423 501 C304 501 227 414 227 281 C227 183 266 155 323 155 C356 155 412 185 437 215 C434 174 462 147 512 147 C617 147 733 230 733 431 C733 633 625 717 467 717 C246 717 57 584 57 264 C57 53 166 -71 366 -71 L366 -71 Z M337 218 C310 218 298 232 298 287 C298 377 336 445 422 445 C436 445 446 443 457 440 L436 272 C420 254 378 218 337 218 L337 218 Z " />
<glyph glyph-name="A" unicode="A" horiz-adv-x="671" d="M0 0 L87 0 L192 264 L471 264 L565 0 L654 0 L397 707 L290 707 L0 0 Z M217 330 L339 649 L449 330 L217 330 Z " />
<glyph glyph-name="B" unicode="B" horiz-adv-x="636" d="M106 0 L329 0 C511 0 579 84 579 201 C579 306 504 359 430 372 L430 375 C489 396 528 453 528 529 C528 632 459 707 299 707 L106 707 L106 0 Z M188 68 L188 330 L299 330 C419 330 495 294 495 198 C495 90 412 68 314 68 L188 68 Z M188 396 L188 643 L278 643 C384 643 444 612 444 516 C444 439 400 396 310 396 L188 396 Z " />
<glyph glyph-name="C" unicode="C" horiz-adv-x="677" d="M427 -12 C528 -12 583 5 629 22 L609 88 C565 72 509 62 443 62 C281 62 145 148 145 359 C145 565 277 645 425 645 C506 645 552 629 603 611 L628 677 C588 696 526 717 423 717 C195 717 60 569 60 349 C60 138 193 -12 427 -12 L427 -12 Z " />
<glyph glyph-name="D" unicode="D" horiz-adv-x="754" d="M106 0 L303 0 C539 0 692 108 692 356 C692 600 525 707 297 707 L106 707 L106 0 Z M188 68 L188 639 L294 639 C482 639 607 545 607 345 C607 161 497 68 314 68 L188 68 Z " />
<glyph glyph-name="E" unicode="E" horiz-adv-x="582" d="M106 0 L525 0 L525 68 L188 68 L188 321 L480 321 L480 389 L188 389 L188 640 L502 640 L502 707 L106 707 L106 0 Z " />
<glyph glyph-name="F" unicode="F" horiz-adv-x="569" d="M106 0 L188 0 L188 301 L500 301 L500 369 L188 369 L188 640 L522 640 L522 707 L106 707 L106 0 Z " />
<glyph glyph-name="G" unicode="G" horiz-adv-x="711" d="M432 -12 C516 -12 581 3 639 23 L639 348 L557 348 L557 76 C531 68 496 61 443 61 C282 61 146 148 146 359 C146 565 277 645 424 645 C510 645 558 628 603 612 L626 679 C582 699 530 717 422 717 C191 717 60 572 60 349 C60 128 199 -12 432 -12 L432 -12 Z " />
<glyph glyph-name="H" unicode="H" horiz-adv-x="764" d="M106 0 L188 0 L188 321 L576 321 L576 0 L658 0 L658 707 L576 707 L576 389 L188 389 L188 707 L106 707 L106 0 Z " />
<glyph glyph-name="I" unicode="I" horiz-adv-x="294" d="M106 0 L188 0 L188 707 L106 707 L106 0 Z " />
<glyph glyph-name="J" unicode="J" horiz-adv-x="295" d="M-2 -187 C164 -113 191 1 191 153 L191 707 L108 707 L108 151 C108 21 84 -60 -37 -127 L-2 -187 Z " />
<glyph glyph-name="K" unicode="K" horiz-adv-x="628" d="M510 0 L618 0 L305 380 L598 707 L494 707 L214 385 L214 370 L510 0 Z M106 0 L188 0 L188 707 L106 707 L106 0 Z " />
<glyph glyph-name="L" unicode="L" horiz-adv-x="503" d="M106 0 L495 0 L495 71 L188 71 L188 707 L106 707 L106 0 Z " />
<glyph glyph-name="M" unicode="M" horiz-adv-x="942" d="M106 0 L188 0 L188 488 L183 586 L186 586 L397 0 L516 0 L754 584 L757 584 L753 475 L753 0 L836 0 L836 707 L731 707 L459 49 L217 707 L106 707 L106 0 Z " />
<glyph glyph-name="N" unicode="N" horiz-adv-x="770" d="M106 0 L188 0 L188 532 L184 605 L187 605 L554 0 L664 0 L664 707 L581 707 L581 182 L585 93 L583 93 L211 707 L106 707 L106 0 Z " />
<glyph glyph-name="O" unicode="O" horiz-adv-x="828" d="M406 -12 C632 -12 768 137 768 353 C768 559 648 717 420 717 C203 717 60 576 60 355 C60 139 186 -12 406 -12 L406 -12 Z M409 56 C231 56 142 195 142 356 C142 522 234 649 416 649 C589 649 685 522 685 354 C685 186 597 56 409 56 L409 56 Z " />
<glyph glyph-name="P" unicode="P" horiz-adv-x="603" d="M106 0 L188 0 L188 255 L284 255 C478 255 565 360 565 486 C565 629 477 707 336 707 L106 707 L106 0 Z M188 640 L314 640 C425 640 478 589 478 481 C478 369 401 324 290 324 L188 324 L188 640 Z " />
<glyph glyph-name="Q" unicode="Q" horiz-adv-x="845" d="M406 -12 C500 -12 578 14 638 59 L748 -50 L796 -7 L685 104 C738 167 768 253 768 353 C768 559 648 717 420 717 C203 717 60 576 60 355 C60 139 186 -12 406 -12 L406 -12 Z M409 56 C231 56 142 195 142 356 C142 522 234 649 416 649 C589 649 685 522 685 354 C685 278 667 211 630 159 L526 264 L476 221 L586 111 C542 76 483 56 409 56 L409 56 Z " />
<glyph glyph-name="R" unicode="R" horiz-adv-x="691" d="M105 0 L188 0 L188 281 L284 281 C305 281 333 283 351 286 L548 0 L649 0 L432 306 C526 342 565 417 565 500 C565 643 471 707 336 707 L105 707 L105 0 Z M188 350 L188 640 L314 640 C422 640 478 602 478 494 C478 383 400 350 290 350 L188 350 Z " />
<glyph glyph-name="S" unicode="S" horiz-adv-x="542" d="M246 -12 C382 -12 496 52 496 187 C496 411 145 385 145 544 C145 616 206 648 279 648 C335 648 380 635 426 614 L451 678 C408 701 357 717 277 717 C164 717 66 656 66 542 C66 310 413 358 413 181 C413 90 325 60 247 60 C180 60 127 79 75 105 L49 37 C90 12 158 -12 246 -12 L246 -12 Z " />
<glyph glyph-name="T" unicode="T" horiz-adv-x="584" d="M251 0 L333 0 L333 637 L575 637 L575 707 L9 707 L9 637 L251 637 L251 0 Z " />
<glyph glyph-name="U" unicode="U" horiz-adv-x="758" d="M379 -12 C506 -12 662 46 662 273 L662 707 L581 707 L581 276 C581 108 489 59 379 59 C279 59 179 98 179 253 L179 707 L96 707 L96 246 C96 41 242 -12 379 -12 L379 -12 Z " />
<glyph glyph-name="V" unicode="V" horiz-adv-x="664" d="M269 0 L383 0 L663 707 L580 707 L328 65 L104 707 L14 707 L269 0 Z " />
<glyph glyph-name="W" unicode="W" horiz-adv-x="1037" d="M1022 707 L940 707 L732 50 L566 707 L482 707 L294 50 L119 707 L33 707 L229 0 L350 0 L520 598 L670 0 L790 0 L1022 707 Z " />
<glyph glyph-name="X" unicode="X" horiz-adv-x="609" d="M10 0 L104 0 L303 310 L489 0 L585 0 L351 376 L569 707 L480 707 L308 440 L147 707 L53 707 L259 374 L10 0 Z " />
<glyph glyph-name="Y" unicode="Y" horiz-adv-x="602" d="M258 0 L340 0 L340 268 L586 707 L498 707 L302 341 L120 707 L27 707 L258 268 L258 0 Z " />
<glyph glyph-name="Z" unicode="Z" horiz-adv-x="570" d="M42 0 L529 0 L529 71 L129 71 L508 642 L508 707 L68 707 L68 636 L416 636 L42 71 L42 0 Z " />
<glyph glyph-name="bracketleft" unicode="&#x5b;" horiz-adv-x="311" d="M85 -220 L264 -220 L264 -155 L162 -155 L162 689 L264 689 L264 754 L85 754 L85 -220 Z " />
<glyph glyph-name="backslash" unicode="&#x5c;" horiz-adv-x="430" d="M295 -62 L369 -62 L136 766 L63 766 L295 -62 Z " />
<glyph glyph-name="bracketright" unicode="&#x5d;" horiz-adv-x="311" d="M46 -220 L226 -220 L226 754 L46 754 L46 689 L149 689 L149 -155 L46 -155 L46 -220 Z " />
<glyph glyph-name="asciicircum" unicode="&#x5e;" horiz-adv-x="521" d="M52 294 L133 294 L266 651 L384 294 L469 294 L320 707 L214 707 L52 294 Z " />
<glyph glyph-name="underscore" unicode="&#x5f;" horiz-adv-x="613" d="M55 -165 L558 -165 L558 -96 L55 -96 L55 -165 Z " />
<glyph glyph-name="grave" unicode="&#x60;" horiz-adv-x="568" d="M366 618 L397 668 L208 798 L173 738 L366 618 Z " />
<glyph glyph-name="a" unicode="a" horiz-adv-x="552" d="M206 -9 C300 -9 361 42 388 63 C395 14 445 -6 493 -6 C500 -6 510 -5 515 -4 L518 57 C492 57 459 66 459 107 L459 409 C459 516 386 560 266 560 C192 560 131 544 89 526 L107 464 C152 481 196 491 255 491 C341 491 382 470 382 383 L382 313 L252 311 C163 309 43 281 43 145 C43 46 107 -9 206 -9 L206 -9 Z M224 55 C164 55 119 85 119 148 C119 212 166 250 251 253 L382 258 L382 116 C341 86 284 55 224 55 L224 55 Z " />
<glyph glyph-name="b" unicode="b" horiz-adv-x="587" d="M270 -9 C407 -9 532 68 532 296 C532 463 452 556 310 556 C258 556 204 542 159 525 L159 754 L80 754 L80 18 C105 11 151 -9 270 -9 L270 -9 Z M296 493 C427 493 452 392 452 280 C452 158 392 57 273 57 C214 57 184 64 159 70 L159 463 C196 476 248 493 296 493 L296 493 Z " />
<glyph glyph-name="c" unicode="c" horiz-adv-x="497" d="M325 -12 C386 -12 423 -2 456 9 L444 73 C410 64 381 56 333 56 C184 56 134 131 134 266 C134 418 198 491 312 491 C367 491 411 473 433 464 L457 527 C430 542 380 560 312 560 C153 560 53 458 53 262 C53 76 140 -12 325 -12 L325 -12 Z " />
<glyph glyph-name="d" unicode="d" horiz-adv-x="583" d="M272 -10 C341 -10 381 17 420 52 L420 0 L499 0 L499 754 L420 754 L420 546 C384 556 357 560 324 560 C166 560 53 469 53 261 C53 35 186 -10 272 -10 L272 -10 Z M282 57 C199 57 133 121 133 266 C133 383 176 495 319 495 C367 495 405 484 420 478 L420 118 C395 96 344 57 282 57 L282 57 Z " />
<glyph glyph-name="e" unicode="e" horiz-adv-x="546" d="M313 -12 C382 -12 444 0 485 17 L471 81 C420 65 379 56 326 56 C222 56 136 89 134 258 L494 258 L494 287 C494 469 431 560 292 560 C159 560 54 475 54 262 C54 54 154 -12 313 -12 L313 -12 Z M135 317 C144 439 205 498 284 498 C373 498 412 428 412 317 L135 317 Z " />
<glyph glyph-name="f" unicode="f" horiz-adv-x="326" d="M111 0 L190 0 L190 482 L307 482 L307 546 L190 546 L190 584 C190 666 220 698 289 698 C326 698 343 694 358 690 L372 754 C350 761 326 765 288 765 C190 765 111 716 111 583 L111 546 L31 546 L31 482 L111 482 L111 0 Z " />
<glyph glyph-name="g" unicode="g" horiz-adv-x="586" d="M265 195 C385 195 474 265 474 375 C474 420 459 451 454 459 L553 459 L553 525 L398 522 C388 530 346 559 267 559 C128 559 63 470 63 371 C63 308 88 265 126 236 C94 205 80 168 80 136 C80 108 91 82 115 66 C63 28 34 -21 34 -79 C34 -169 106 -230 242 -230 C418 -230 516 -128 516 -26 C516 55 457 116 311 116 L187 116 C164 116 147 133 147 158 C147 171 152 191 167 213 C197 200 231 195 265 195 L265 195 Z M307 48 C412 48 442 8 442 -34 C442 -100 372 -165 253 -165 C156 -165 103 -125 103 -61 C103 -23 123 16 165 49 C170 48 176 48 183 48 L307 48 Z M267 252 C193 252 139 296 139 376 C139 452 188 503 268 503 C350 503 397 447 397 376 C397 300 345 252 267 252 L267 252 Z " />
<glyph glyph-name="h" unicode="h" horiz-adv-x="602" d="M84 0 L163 0 L163 422 C210 452 269 489 339 489 C430 489 446 431 446 336 L446 0 L522 0 L522 352 C522 443 513 559 357 559 C270 559 208 516 163 483 L163 754 L84 754 L84 0 Z " />
<glyph glyph-name="i" unicode="i" horiz-adv-x="249" d="M84 0 L164 0 L164 546 L84 546 L84 0 Z M162 669 L162 762 L85 762 L85 669 L162 669 Z " />
<glyph glyph-name="j" unicode="j" horiz-adv-x="249" d="M-20 -224 C83 -224 164 -179 164 -19 L164 546 L84 546 L84 -18 C84 -101 62 -156 -19 -156 C-36 -156 -62 -152 -76 -148 L-90 -212 C-75 -218 -49 -224 -20 -224 L-20 -224 Z M162 669 L162 762 L85 762 L85 669 L162 669 Z " />
<glyph glyph-name="k" unicode="k" horiz-adv-x="537" d="M410 0 L508 0 L274 291 L506 546 L415 546 L185 289 L410 0 Z M84 0 L163 0 L163 754 L84 754 L84 0 Z " />
<glyph glyph-name="l" unicode="l" horiz-adv-x="247" d="M84 0 L163 0 L163 754 L84 754 L84 0 Z " />
<glyph glyph-name="m" unicode="m" horiz-adv-x="935" d="M84 0 L163 0 L163 419 C211 458 268 490 328 490 C418 490 431 422 431 337 L431 0 L509 0 L509 352 C509 375 507 400 503 423 C551 458 605 489 668 489 C764 489 777 422 777 337 L777 0 L856 0 L856 352 C856 444 845 559 689 559 C600 559 538 515 490 478 C471 523 420 559 345 559 C272 559 216 524 163 482 L163 546 L84 546 L84 0 Z " />
<glyph glyph-name="n" unicode="n" horiz-adv-x="602" d="M84 0 L163 0 L163 423 C212 457 268 490 338 490 C431 490 446 431 446 337 L446 0 L523 0 L523 352 C523 444 513 560 358 560 C273 560 220 526 163 484 L163 546 L84 546 L84 0 Z " />
<glyph glyph-name="o" unicode="o" horiz-adv-x="598" d="M296 -12 C439 -12 545 79 545 276 C545 456 462 560 307 560 C155 560 53 456 53 267 C53 88 146 -12 296 -12 L296 -12 Z M301 53 C173 53 133 159 133 271 C133 375 167 495 301 495 C435 495 465 374 465 271 C465 164 433 53 301 53 L301 53 Z " />
<glyph glyph-name="p" unicode="p" horiz-adv-x="590" d="M84 -220 L163 -220 L163 -2 C188 -6 232 -11 267 -11 C411 -11 536 62 536 282 C536 460 454 558 323 558 C256 558 211 534 163 501 L163 546 L84 546 L84 -220 Z M266 55 C223 55 179 64 163 66 L163 438 C192 457 242 490 307 490 C424 490 456 378 456 277 C456 148 405 55 266 55 L266 55 Z " />
<glyph glyph-name="q" unicode="q" horiz-adv-x="580" d="M420 -220 L499 -220 L499 528 C453 547 385 560 325 560 C168 560 53 472 53 262 C53 39 184 -10 287 -10 C340 -10 384 2 420 22 L420 -220 Z M294 57 C196 57 131 120 131 268 C131 388 174 494 318 494 C361 494 398 486 420 476 L420 89 C396 75 345 57 294 57 L294 57 Z " />
<glyph glyph-name="r" unicode="r" horiz-adv-x="387" d="M84 0 L163 0 L163 402 C189 442 239 489 305 489 C337 489 353 486 370 482 L383 549 C373 552 351 558 319 558 C242 558 188 514 163 473 L163 546 L84 546 L84 0 Z " />
<glyph glyph-name="s" unicode="s" horiz-adv-x="448" d="M195 -12 C292 -12 407 28 407 145 C407 326 134 289 134 414 C134 459 166 494 241 494 C281 494 326 485 361 471 L379 534 C340 551 285 560 242 560 C140 560 57 507 57 407 C57 227 332 262 332 140 C332 86 281 55 201 55 C154 55 103 65 55 79 L42 12 C82 -1 144 -12 195 -12 L195 -12 Z " />
<glyph glyph-name="t" unicode="t" horiz-adv-x="398" d="M270 -12 C307 -12 358 -2 386 8 L372 73 C349 65 310 57 280 57 C217 57 182 78 182 155 L182 479 L352 479 L352 546 L181 546 L181 658 L104 658 L104 546 L24 546 L24 479 L104 479 L104 152 C104 23 168 -12 270 -12 L270 -12 Z " />
<glyph glyph-name="u" unicode="u" horiz-adv-x="599" d="M241 -12 C333 -12 387 27 439 64 L439 0 L515 0 L515 546 L439 546 L439 128 C397 98 333 60 263 60 C165 60 158 128 158 214 L158 546 L80 546 L80 198 C80 106 91 -12 241 -12 L241 -12 Z " />
<glyph glyph-name="v" unicode="v" horiz-adv-x="515" d="M198 0 L307 0 L504 546 L423 546 L293 173 L255 55 L219 171 L105 546 L19 546 L198 0 Z " />
<glyph glyph-name="w" unicode="w" horiz-adv-x="877" d="M190 0 L297 0 L423 400 L442 474 L459 399 L569 0 L675 0 L863 546 L784 546 L624 57 L494 546 L393 546 L245 57 L104 546 L21 546 L190 0 Z " />
<glyph glyph-name="x" unicode="x" horiz-adv-x="513" d="M22 0 L115 0 L257 224 L397 0 L492 0 L302 281 L478 546 L390 546 L257 335 L125 546 L33 546 L212 279 L22 0 Z " />
<glyph glyph-name="y" unicode="y" horiz-adv-x="511" d="M156 -220 L232 -220 L499 546 L418 546 L284 154 L252 58 L221 156 L103 546 L17 546 L193 0 L230 0 L156 -220 Z " />
<glyph glyph-name="z" unicode="z" horiz-adv-x="500" d="M37 0 L454 0 L454 69 L125 69 L450 482 L450 546 L63 546 L63 477 L360 477 L37 68 L37 0 Z " />
<glyph glyph-name="braceleft" unicode="&#x7b;" horiz-adv-x="350" d="M283 -220 L305 -220 L305 -153 L280 -153 C205 -153 167 -122 174 -54 L194 129 C204 212 166 254 111 274 L111 276 C168 290 204 337 194 421 L174 603 C166 676 202 706 280 706 L305 706 L305 773 L283 773 C184 773 102 744 97 643 C96 633 97 620 98 608 L119 402 C124 358 89 309 37 309 L37 237 C89 237 124 185 119 144 L98 -54 C97 -64 96 -74 96 -83 C96 -200 185 -220 283 -220 L283 -220 Z " />
<glyph glyph-name="bar" unicode="&#x7c;" horiz-adv-x="244" d="M85 -220 L159 -220 L159 754 L85 754 L85 -220 Z " />
<glyph glyph-name="braceright" unicode="&#x7d;" horiz-adv-x="350" d="M67 -220 C165 -220 254 -200 254 -83 C254 -74 253 -64 252 -54 L230 144 C226 185 260 237 313 237 L313 309 C261 309 226 358 230 402 L252 608 C253 620 254 633 253 643 C248 744 165 773 67 773 L45 773 L45 706 L69 706 C147 706 184 676 176 603 L155 421 C146 337 181 290 239 276 L239 274 C184 254 146 212 155 129 L176 -54 C183 -122 144 -153 69 -153 L45 -153 L45 -220 L67 -220 Z " />
<glyph glyph-name="asciitilde" unicode="&#x7e;" horiz-adv-x="589" d="M403 283 C454 283 497 308 531 345 L490 395 C460 372 436 362 403 362 C318 362 293 423 191 423 C136 423 89 395 59 369 L96 314 C116 327 143 343 186 343 C261 343 302 283 403 283 L403 283 Z " />
<glyph glyph-name="uni00A0" unicode="&#xa0;" horiz-adv-x="261" d="" />
<glyph glyph-name="exclamdown" unicode="&#xa1;" horiz-adv-x="257" d="M90 -162 L167 -162 L167 233 L164 373 L93 373 L90 233 L90 -162 Z M84 458 L174 458 L174 545 L84 545 L84 458 Z " />
<glyph glyph-name="cent" unicode="&#xa2;" horiz-adv-x="520" d="M268 0 L341 0 L341 95 C396 96 445 108 462 113 L450 177 C428 174 389 163 346 163 L341 163 L341 595 C385 591 414 579 439 569 L463 632 C439 645 401 659 341 662 L341 754 L268 754 L268 659 C140 639 61 537 61 377 C61 204 123 118 268 99 L268 0 Z M142 380 C142 497 190 570 268 590 L268 170 C172 192 142 260 142 380 L142 380 Z " />
<glyph glyph-name="sterling" unicode="&#xa3;" horiz-adv-x="532" d="M489 0 L489 69 L163 69 C196 105 216 167 225 252 L415 252 L415 321 L231 321 C234 358 236 399 236 443 C236 463 236 484 235 504 C232 638 329 634 418 642 L414 709 C332 706 157 713 157 508 L157 389 C157 365 157 342 155 321 L55 321 L55 252 L150 252 C148 220 127 90 70 70 L70 0 L489 0 Z " />
<glyph glyph-name="currency" unicode="&#xa4;" horiz-adv-x="543" d="M97 139 L168 209 C197 190 234 179 271 179 C308 179 346 191 375 207 L445 138 L482 177 L415 245 C438 270 450 311 450 352 C450 393 439 433 416 458 L484 525 L444 565 L376 496 C345 517 308 526 271 526 C234 526 195 511 167 494 L97 564 L58 526 L126 458 C105 433 92 393 92 352 C92 311 107 271 127 246 L58 179 L97 139 Z M271 242 C199 242 160 291 160 352 C160 413 197 463 271 463 C346 463 382 413 381 352 C381 291 348 242 271 242 L271 242 Z " />
<glyph glyph-name="yen" unicode="&#xa5;" horiz-adv-x="660" d="M610 707 L522 707 L327 341 L144 707 L51 707 L253 323 L75 323 L75 254 L282 254 L282 157 L75 157 L75 88 L282 88 L282 0 L365 0 L365 88 L584 88 L584 157 L365 157 L365 254 L584 254 L584 323 L396 323 L610 707 Z " />
<glyph glyph-name="brokenbar" unicode="&#xa6;" horiz-adv-x="285" d="M105 -220 L180 -220 L180 142 L105 142 L105 -220 Z M105 392 L180 392 L180 753 L105 753 L105 392 Z " />
<glyph glyph-name="section" unicode="&#xa7;" horiz-adv-x="538" d="M145 -217 C296 -217 399 -108 399 33 C399 77 391 135 382 184 L310 549 C305 572 303 598 303 623 C303 655 312 693 352 693 C398 693 448 668 470 654 C472 656 503 718 503 718 C464 746 415 761 358 761 C208 761 109 672 109 508 C109 475 113 440 119 408 L184 56 C192 15 199 -26 199 -65 C199 -96 188 -149 146 -149 C110 -149 59 -112 59 -112 L31 -178 C65 -204 102 -217 145 -217 L145 -217 Z M249 -135 C262 -106 272 -87 272 -45 C272 -15 266 30 262 58 L190 440 C186 467 181 500 182 531 C182 583 194 648 246 680 C235 655 233 627 233 603 C233 570 237 537 242 506 L315 123 C321 89 326 55 326 20 C326 -46 296 -99 249 -135 L249 -135 Z " />
<glyph glyph-name="dieresis" unicode="&#xa8;" horiz-adv-x="408" d="M131 669 L131 762 L54 762 L54 669 L131 669 Z M350 669 L350 762 L272 762 L272 669 L350 669 Z " />
<glyph glyph-name="copyright" unicode="&#xa9;" horiz-adv-x="828" d="M439 151 C485 151 520 158 561 175 L543 224 C510 213 483 207 450 207 C362 207 290 255 290 361 C290 467 359 511 438 511 C481 511 502 505 537 491 L557 538 C525 557 489 566 437 566 C300 566 229 482 229 356 C229 239 301 151 439 151 L439 151 Z M406 -13 C632 -13 768 133 768 351 C768 558 652 716 425 716 C209 716 61 577 61 353 C61 137 187 -13 406 -13 L406 -13 Z M409 41 C218 41 124 187 124 354 C124 528 222 661 416 661 C601 661 705 528 705 352 C705 177 610 41 409 41 L409 41 Z " />
<glyph glyph-name="ordfeminine" unicode="&#xaa;" horiz-adv-x="430" d="M171 386 C212 386 253 409 274 426 C280 393 324 386 354 388 L357 435 C341 435 327 439 327 459 L327 626 C327 699 274 715 210 715 C163 715 122 702 103 694 L115 649 C143 655 169 664 197 664 C250 664 271 657 271 612 L271 574 L201 572 C147 572 78 556 78 478 C78 418 112 386 171 386 L171 386 Z M182 435 C153 435 134 447 134 482 C134 510 157 526 203 528 L271 531 L271 470 C261 465 210 435 182 435 L182 435 Z M68 300 L366 300 L366 352 L68 352 L68 300 Z " />
<glyph glyph-name="guillemotleft" unicode="&#xab;" horiz-adv-x="447" d="M156 52 L214 77 L128 272 L215 470 L156 492 L50 272 L156 52 Z M334 52 L391 77 L305 272 L392 470 L334 492 L227 272 L334 52 Z " />
<glyph glyph-name="logicalnot" unicode="&#xac;" horiz-adv-x="626" d="M474 112 L545 112 L545 337 L71 337 L71 270 L474 270 L474 112 Z " />
<glyph glyph-name="registered" unicode="&#xae;" horiz-adv-x="555" d="M509 532 C509 695 389 756 278 756 C148 756 46 675 46 532 C46 366 176 311 279 311 C407 311 509 390 509 532 L509 532 Z M463 532 C463 416 384 353 284 353 C223 353 93 379 93 536 C93 662 180 714 279 714 C370 714 463 659 463 532 L463 532 Z M400 450 C383 457 369 460 355 474 C341 488 327 511 319 522 C349 536 364 560 364 590 C364 642 330 665 280 665 L190 665 L190 423 L237 423 L237 514 L271 514 C283 495 301 465 322 444 C341 424 363 418 394 417 L400 450 Z M319 589 C319 559 303 547 268 547 L237 547 L237 631 L273 631 C308 631 319 618 319 589 L319 589 Z " />
<glyph glyph-name="macron" unicode="&#xaf;" horiz-adv-x="540" d="M133 668 L400 668 L400 733 L133 733 L133 668 Z " />
<glyph glyph-name="degree" unicode="&#xb0;" horiz-adv-x="408" d="M201 404 C296 404 362 464 362 562 C362 660 301 717 205 717 C114 717 47 654 47 562 C47 458 102 404 201 404 L201 404 Z M204 458 C152 458 113 492 113 562 C113 625 147 663 204 663 C261 663 295 624 295 562 C295 495 262 458 204 458 L204 458 Z " />
<glyph glyph-name="plusminus" unicode="&#xb1;" horiz-adv-x="552" d="M241 123 L312 123 L311 306 L495 306 L495 373 L311 372 L312 556 L241 556 L241 372 L58 373 L58 306 L241 306 L241 123 Z M58 0 L495 0 L495 68 L58 68 L58 0 Z " />
<glyph glyph-name="twosuperior" unicode="&#xb2;" horiz-adv-x="307" d="M16 415 L280 415 L280 471 L99 471 C177 520 275 581 275 676 C275 747 219 786 152 786 C104 786 58 767 28 737 C31 731 54 701 57 695 C78 716 113 729 145 729 C180 729 209 710 209 670 C209 599 117 541 16 466 L16 415 Z " />
<glyph glyph-name="threesuperior" unicode="&#xb3;" horiz-adv-x="301" d="M134 410 C206 410 279 438 279 520 C279 563 251 601 198 612 C238 628 259 662 259 698 C259 753 209 787 144 787 C113 787 73 776 46 761 L63 718 C82 727 104 735 134 735 C167 735 194 720 195 690 C195 649 160 631 103 626 L103 587 C171 582 212 570 212 519 C212 479 175 464 128 464 C97 464 65 470 40 477 C39 471 28 432 27 426 C46 420 80 410 134 410 L134 410 Z " />
<glyph glyph-name="acute" unicode="&#xb4;" horiz-adv-x="568" d="M209 618 L404 739 L369 795 L181 667 L209 618 Z " />
<glyph glyph-name="mu" unicode="&#xb5;" horiz-adv-x="627" d="M82 -220 L160 -220 L160 14 C179 -2 207 -12 246 -12 C334 -12 389 33 431 66 C437 16 473 -9 533 -9 C547 -9 564 -8 581 -6 L582 57 C531 52 507 64 507 111 L507 546 L429 546 L429 128 C405 113 334 60 265 60 C166 60 160 127 160 210 L160 546 L82 546 L82 -220 Z " />
<glyph glyph-name="paragraph" unicode="&#xb6;" horiz-adv-x="595" d="M329 -221 C432 -221 513 -177 513 -17 L513 707 L434 707 L434 -16 C434 -98 412 -148 330 -148 C307 -148 288 -144 272 -140 L258 -210 C270 -215 294 -221 329 -221 L329 -221 Z M263 269 L340 269 L340 707 L266 707 C126 707 42 641 42 491 C42 339 126 269 263 269 L263 269 Z " />
<glyph glyph-name="periodcentered" unicode="&#xb7;" horiz-adv-x="241" d="M69 311 L164 311 L164 405 L69 405 L69 311 Z " />
<glyph glyph-name="cedilla" unicode="&#xb8;" horiz-adv-x="453" d="M196 -240 C274 -207 303 -162 302 -118 C302 -95 293 -71 282 -51 L205 -51 C218 -75 229 -97 229 -118 C229 -144 212 -169 170 -195 L196 -240 Z " />
<glyph glyph-name="onesuperior" unicode="&#xb9;" horiz-adv-x="253" d="M114 415 L182 415 L182 784 C168 784 39 780 26 780 L26 727 L114 727 L114 415 Z " />
<glyph glyph-name="ordmasculine" unicode="&#xba;" horiz-adv-x="438" d="M216 384 C302 384 367 440 367 550 C367 657 320 717 220 717 C131 717 71 655 71 547 C71 444 123 384 216 384 L216 384 Z M220 435 C151 435 132 487 132 549 C132 607 149 666 219 666 C289 666 305 606 305 550 C305 490 289 435 220 435 L220 435 Z M70 300 L368 300 L368 352 L70 352 L70 300 Z " />
<glyph glyph-name="guillemotright" unicode="&#xbb;" horiz-adv-x="447" d="M114 52 L220 272 L114 492 L55 470 L142 272 L56 77 L114 52 Z M291 52 L398 272 L291 492 L232 470 L319 272 L234 77 L291 52 Z " />
<glyph glyph-name="onequarter" unicode="&#xbc;" horiz-adv-x="764" d="M592 1 L656 1 L656 89 L718 89 L718 141 L656 141 L656 367 L555 367 L423 146 L423 89 L592 89 L592 1 Z M476 141 L592 330 L592 141 L476 141 Z M145 415 L213 415 L213 784 C199 784 70 780 57 780 L57 727 L145 727 L145 415 Z M100 76 L625 613 L588 651 L61 116 L100 76 Z " />
<glyph glyph-name="onehalf" unicode="&#xbd;" horiz-adv-x="757" d="M424 0 L688 0 L688 56 L507 56 C585 105 683 166 683 261 C683 332 627 371 560 371 C512 371 466 352 436 322 C439 316 462 286 465 280 C486 301 521 314 553 314 C588 314 617 295 617 255 C617 184 525 126 424 51 L424 0 Z M142 415 L210 415 L210 784 C196 784 67 780 54 780 L54 727 L142 727 L142 415 Z M88 76 L613 613 L576 651 L49 116 L88 76 Z " />
<glyph glyph-name="threequarters" unicode="&#xbe;" horiz-adv-x="765" d="M594 1 L658 1 L658 89 L720 89 L720 141 L658 141 L658 367 L557 367 L425 146 L425 89 L594 89 L594 1 Z M157 410 C229 410 302 438 302 520 C302 563 274 601 221 612 C261 628 282 662 282 698 C282 753 232 787 167 787 C136 787 96 776 69 761 L86 718 C105 727 127 735 157 735 C190 735 217 720 218 690 C218 649 183 631 126 626 L126 587 C194 582 235 570 235 519 C235 479 198 464 151 464 C120 464 88 470 63 477 C62 471 51 432 50 426 C69 420 103 410 157 410 L157 410 Z M113 76 L638 613 L601 651 L74 116 L113 76 Z M478 141 L594 330 L594 141 L478 141 Z " />
<glyph glyph-name="questiondown" unicode="&#xbf;" horiz-adv-x="368" d="M308 -164 L324 -96 C231 -87 130 -54 130 28 C130 116 302 156 302 292 C302 316 288 356 275 383 L207 371 C216 353 230 310 230 293 C230 199 49 148 49 26 C49 -110 188 -155 308 -164 L308 -164 Z M200 459 L290 459 L290 546 L200 546 L200 459 Z " />
<glyph glyph-name="Agrave" unicode="&#xc0;" horiz-adv-x="671" d="M397 747 L415 800 L194 880 L173 812 L397 747 Z M0 0 L87 0 L192 264 L471 264 L565 0 L654 0 L397 707 L290 707 L0 0 Z M217 330 L339 649 L449 330 L217 330 Z " />
<glyph glyph-name="Aacute" unicode="&#xc1;" horiz-adv-x="671" d="M0 0 L87 0 L192 264 L471 264 L565 0 L654 0 L397 707 L290 707 L0 0 Z M217 330 L339 649 L449 330 L217 330 Z M273 747 L497 816 L476 883 L257 799 L273 747 Z " />
<glyph glyph-name="Acircumflex" unicode="&#xc2;" horiz-adv-x="671" d="M0 0 L87 0 L192 264 L471 264 L565 0 L654 0 L397 707 L290 707 L0 0 Z M217 330 L339 649 L449 330 L217 330 Z M214 750 L343 808 L466 751 L495 806 L343 880 L186 804 L214 750 Z " />
<glyph glyph-name="Atilde" unicode="&#xc3;" horiz-adv-x="671" d="M0 0 L87 0 L192 264 L471 264 L565 0 L654 0 L397 707 L290 707 L0 0 Z M217 330 L339 649 L449 330 L217 330 Z M405 754 C454 754 485 783 500 803 L469 847 C452 831 439 821 405 821 C371 821 336 858 285 858 C243 858 203 829 185 812 L216 767 C239 784 261 791 285 791 C323 791 364 754 405 754 L405 754 Z " />
<glyph glyph-name="Adieresis" unicode="&#xc4;" horiz-adv-x="671" d="M0 0 L87 0 L192 264 L471 264 L565 0 L654 0 L397 707 L290 707 L0 0 Z M217 330 L339 649 L449 330 L217 330 Z M277 758 L277 851 L200 851 L200 758 L277 758 Z M472 758 L472 851 L394 851 L394 758 L472 758 Z " />
<glyph glyph-name="Aring" unicode="&#xc5;" horiz-adv-x="671" d="M0 0 L87 0 L192 264 L471 264 L565 0 L654 0 L397 707 L290 707 L0 0 Z M217 330 L339 649 L449 330 L217 330 Z M345 744 C398 744 441 776 441 834 C441 900 386 923 343 923 C293 923 246 892 246 832 C246 769 294 744 345 744 L345 744 Z M344 781 C312 781 289 803 289 835 C289 867 311 885 343 885 C372 885 397 864 397 833 C397 801 377 781 344 781 L344 781 Z " />
<glyph glyph-name="AE" unicode="&#xc6;" horiz-adv-x="913" d="M-14 0 L79 0 L240 311 L437 311 L437 0 L857 0 L857 68 L519 68 L519 321 L811 321 L811 389 L519 389 L519 640 L833 640 L833 707 L362 707 L-14 0 Z M273 378 L409 640 L437 640 L437 378 L273 378 Z " />
<glyph glyph-name="Ccedilla" unicode="&#xc7;" horiz-adv-x="677" d="M427 -12 C528 -12 583 5 629 22 L609 88 C565 72 509 62 443 62 C281 62 145 148 145 359 C145 565 277 645 425 645 C506 645 552 629 603 611 L628 677 C588 696 526 717 423 717 C195 717 60 569 60 349 C60 138 193 -12 427 -12 L427 -12 Z M365 -240 C443 -207 472 -162 471 -118 C471 -95 462 -71 451 -51 L374 -51 C387 -75 398 -97 398 -118 C398 -144 381 -169 339 -195 L365 -240 Z " />
<glyph glyph-name="Egrave" unicode="&#xc8;" horiz-adv-x="582" d="M388 747 L406 800 L185 880 L164 812 L388 747 Z M106 0 L525 0 L525 68 L188 68 L188 321 L480 321 L480 389 L188 389 L188 640 L502 640 L502 707 L106 707 L106 0 Z " />
<glyph glyph-name="Eacute" unicode="&#xc9;" horiz-adv-x="582" d="M240 747 L464 816 L443 883 L224 799 L240 747 Z M106 0 L525 0 L525 68 L188 68 L188 321 L480 321 L480 389 L188 389 L188 640 L502 640 L502 707 L106 707 L106 0 Z " />
<glyph glyph-name="Ecircumflex" unicode="&#xca;" horiz-adv-x="582" d="M106 0 L525 0 L525 68 L188 68 L188 321 L480 321 L480 389 L188 389 L188 640 L502 640 L502 707 L106 707 L106 0 Z M180 750 L309 808 L432 751 L461 806 L309 880 L152 804 L180 750 Z " />
<glyph glyph-name="Edieresis" unicode="&#xcb;" horiz-adv-x="582" d="M247 758 L247 851 L170 851 L170 758 L247 758 Z M442 758 L442 851 L364 851 L364 758 L442 758 Z M106 0 L525 0 L525 68 L188 68 L188 321 L480 321 L480 389 L188 389 L188 640 L502 640 L502 707 L106 707 L106 0 Z " />
<glyph glyph-name="Igrave" unicode="&#xcc;" horiz-adv-x="294" d="M194 747 L212 800 L-9 880 L-30 812 L194 747 Z M106 0 L188 0 L188 707 L106 707 L106 0 Z " />
<glyph glyph-name="Iacute" unicode="&#xcd;" horiz-adv-x="294" d="M106 0 L188 0 L188 707 L106 707 L106 0 Z M101 747 L325 816 L304 883 L85 799 L101 747 Z " />
<glyph glyph-name="Icircumflex" unicode="&#xce;" horiz-adv-x="294" d="M106 0 L188 0 L188 707 L106 707 L106 0 Z M22 750 L151 808 L274 751 L303 806 L151 880 L-6 804 L22 750 Z " />
<glyph glyph-name="Idieresis" unicode="&#xcf;" horiz-adv-x="294" d="M106 0 L188 0 L188 707 L106 707 L106 0 Z M86 758 L86 851 L9 851 L9 758 L86 758 Z M281 758 L281 851 L203 851 L203 758 L281 758 Z " />
<glyph glyph-name="Eth" unicode="&#xd0;" horiz-adv-x="781" d="M53 320 L132 320 L132 0 L329 0 C565 0 718 108 718 356 C718 600 551 707 323 707 L132 707 L132 383 L53 383 L53 320 Z M214 68 L214 320 L382 320 L382 383 L214 383 L214 639 L320 639 C508 639 633 545 633 345 C633 161 523 68 340 68 L214 68 Z " />
<glyph glyph-name="Ntilde" unicode="&#xd1;" horiz-adv-x="770" d="M455 754 C504 754 535 783 550 803 L519 847 C502 831 489 821 455 821 C421 821 386 858 335 858 C293 858 253 829 235 812 L266 767 C289 784 311 791 335 791 C373 791 414 754 455 754 L455 754 Z M106 0 L188 0 L188 532 L184 605 L187 605 L554 0 L664 0 L664 707 L581 707 L581 182 L585 93 L583 93 L211 707 L106 707 L106 0 Z " />
<glyph glyph-name="Ograve" unicode="&#xd2;" horiz-adv-x="828" d="M494 747 L512 800 L291 880 L270 812 L494 747 Z M406 -12 C632 -12 768 137 768 353 C768 559 648 717 420 717 C203 717 60 576 60 355 C60 139 186 -12 406 -12 L406 -12 Z M409 56 C231 56 142 195 142 356 C142 522 234 649 416 649 C589 649 685 522 685 354 C685 186 597 56 409 56 L409 56 Z " />
<glyph glyph-name="Oacute" unicode="&#xd3;" horiz-adv-x="828" d="M325 747 L549 816 L528 883 L309 799 L325 747 Z M406 -12 C632 -12 768 137 768 353 C768 559 648 717 420 717 C203 717 60 576 60 355 C60 139 186 -12 406 -12 L406 -12 Z M409 56 C231 56 142 195 142 356 C142 522 234 649 416 649 C589 649 685 522 685 354 C685 186 597 56 409 56 L409 56 Z " />
<glyph glyph-name="Ocircumflex" unicode="&#xd4;" horiz-adv-x="828" d="M289 750 L418 808 L541 751 L570 806 L418 880 L261 804 L289 750 Z M406 -12 C632 -12 768 137 768 353 C768 559 648 717 420 717 C203 717 60 576 60 355 C60 139 186 -12 406 -12 L406 -12 Z M409 56 C231 56 142 195 142 356 C142 522 234 649 416 649 C589 649 685 522 685 354 C685 186 597 56 409 56 L409 56 Z " />
<glyph glyph-name="Otilde" unicode="&#xd5;" horiz-adv-x="828" d="M482 754 C531 754 562 783 577 803 L546 847 C529 831 516 821 482 821 C448 821 413 858 362 858 C320 858 280 829 262 812 L293 767 C316 784 338 791 362 791 C400 791 441 754 482 754 L482 754 Z M406 -12 C632 -12 768 137 768 353 C768 559 648 717 420 717 C203 717 60 576 60 355 C60 139 186 -12 406 -12 L406 -12 Z M409 56 C231 56 142 195 142 356 C142 522 234 649 416 649 C589 649 685 522 685 354 C685 186 597 56 409 56 L409 56 Z " />
<glyph glyph-name="Odieresis" unicode="&#xd6;" horiz-adv-x="828" d="M348 758 L348 851 L271 851 L271 758 L348 758 Z M543 758 L543 851 L465 851 L465 758 L543 758 Z M406 -12 C632 -12 768 137 768 353 C768 559 648 717 420 717 C203 717 60 576 60 355 C60 139 186 -12 406 -12 L406 -12 Z M409 56 C231 56 142 195 142 356 C142 522 234 649 416 649 C589 649 685 522 685 354 C685 186 597 56 409 56 L409 56 Z " />
<glyph glyph-name="multiply" unicode="&#xd7;" horiz-adv-x="555" d="M455 81 L500 127 L319 306 L498 483 L449 531 L273 355 L101 527 L55 480 L227 309 L54 136 L102 88 L275 261 L455 81 Z " />
<glyph glyph-name="Oslash" unicode="&#xd8;" horiz-adv-x="859" d="M91 -30 L187 69 C245 17 323 -12 421 -12 C647 -12 783 137 783 353 C783 450 756 537 703 602 L800 702 L759 739 L664 641 C607 689 531 717 435 717 C218 717 75 576 75 355 C75 257 100 172 149 109 L53 9 L91 -30 Z M424 56 C346 56 286 82 242 126 L646 543 C681 493 700 427 700 354 C700 186 612 56 424 56 L424 56 Z M157 356 C157 522 249 649 431 649 C505 649 566 626 610 585 L207 168 C173 220 157 286 157 356 L157 356 Z " />
<glyph glyph-name="Ugrave" unicode="&#xd9;" horiz-adv-x="758" d="M444 747 L462 800 L241 880 L220 812 L444 747 Z M379 -12 C506 -12 662 46 662 273 L662 707 L581 707 L581 276 C581 108 489 59 379 59 C279 59 179 98 179 253 L179 707 L96 707 L96 246 C96 41 242 -12 379 -12 L379 -12 Z " />
<glyph glyph-name="Uacute" unicode="&#xda;" horiz-adv-x="758" d="M314 747 L538 816 L517 883 L298 799 L314 747 Z M379 -12 C506 -12 662 46 662 273 L662 707 L581 707 L581 276 C581 108 489 59 379 59 C279 59 179 98 179 253 L179 707 L96 707 L96 246 C96 41 242 -12 379 -12 L379 -12 Z " />
<glyph glyph-name="Ucircumflex" unicode="&#xdb;" horiz-adv-x="758" d="M379 -12 C506 -12 662 46 662 273 L662 707 L581 707 L581 276 C581 108 489 59 379 59 C279 59 179 98 179 253 L179 707 L96 707 L96 246 C96 41 242 -12 379 -12 L379 -12 Z M257 750 L386 808 L509 751 L538 806 L386 880 L229 804 L257 750 Z " />
<glyph glyph-name="Udieresis" unicode="&#xdc;" horiz-adv-x="758" d="M319 758 L319 851 L242 851 L242 758 L319 758 Z M514 758 L514 851 L436 851 L436 758 L514 758 Z M379 -12 C506 -12 662 46 662 273 L662 707 L581 707 L581 276 C581 108 489 59 379 59 C279 59 179 98 179 253 L179 707 L96 707 L96 246 C96 41 242 -12 379 -12 L379 -12 Z " />
<glyph glyph-name="Yacute" unicode="&#xdd;" horiz-adv-x="602" d="M258 0 L340 0 L340 268 L586 707 L498 707 L302 341 L120 707 L27 707 L258 268 L258 0 Z M238 747 L462 816 L441 883 L222 799 L238 747 Z " />
<glyph glyph-name="Thorn" unicode="&#xde;" horiz-adv-x="606" d="M106 0 L189 0 L189 138 L285 138 C479 138 566 235 566 361 C566 510 478 577 337 577 L188 577 L188 707 L106 707 L106 0 Z M189 510 L315 510 C427 510 479 464 479 356 C479 245 400 207 291 207 L189 207 L189 510 Z " />
<glyph glyph-name="germandbls" unicode="&#xdf;" horiz-adv-x="589" d="M84 -12 L163 -12 L163 558 C163 639 182 698 275 698 C326 698 370 673 370 615 C370 525 262 483 262 392 C262 224 484 242 484 128 C484 76 438 58 373 58 C330 58 290 67 255 77 L240 13 C277 -1 334 -9 388 -9 C467 -9 559 25 559 137 C559 286 338 279 338 396 C338 459 453 512 453 614 C453 740 343 765 278 765 C162 765 84 709 84 559 L84 -12 Z " />
<glyph glyph-name="agrave" unicode="&#xe0;" horiz-adv-x="552" d="M206 -9 C300 -9 361 42 388 63 C395 14 445 -6 493 -6 C500 -6 510 -5 515 -4 L518 57 C492 57 459 66 459 107 L459 409 C459 516 386 560 266 560 C192 560 131 544 89 526 L107 464 C152 481 196 491 255 491 C341 491 382 470 382 383 L382 313 L252 311 C163 309 43 281 43 145 C43 46 107 -9 206 -9 L206 -9 Z M224 55 C164 55 119 85 119 148 C119 212 166 250 251 253 L382 258 L382 116 C341 86 284 55 224 55 L224 55 Z M334 619 L365 669 L176 799 L141 739 L334 619 Z " />
<glyph glyph-name="aacute" unicode="&#xe1;" horiz-adv-x="552" d="M206 -9 C300 -9 361 42 388 63 C395 14 445 -6 493 -6 C500 -6 510 -5 515 -4 L518 57 C492 57 459 66 459 107 L459 409 C459 516 386 560 266 560 C192 560 131 544 89 526 L107 464 C152 481 196 491 255 491 C341 491 382 470 382 383 L382 313 L252 311 C163 309 43 281 43 145 C43 46 107 -9 206 -9 L206 -9 Z M224 55 C164 55 119 85 119 148 C119 212 166 250 251 253 L382 258 L382 116 C341 86 284 55 224 55 L224 55 Z M212 618 L407 739 L372 795 L184 667 L212 618 Z " />
<glyph glyph-name="acircumflex" unicode="&#xe2;" horiz-adv-x="552" d="M385 629 L420 676 L268 787 L102 674 L136 628 L265 712 L385 629 Z M206 -9 C300 -9 361 42 388 63 C395 14 445 -6 493 -6 C500 -6 510 -5 515 -4 L518 57 C492 57 459 66 459 107 L459 409 C459 516 386 560 266 560 C192 560 131 544 89 526 L107 464 C152 481 196 491 255 491 C341 491 382 470 382 383 L382 313 L252 311 C163 309 43 281 43 145 C43 46 107 -9 206 -9 L206 -9 Z M224 55 C164 55 119 85 119 148 C119 212 166 250 251 253 L382 258 L382 116 C341 86 284 55 224 55 L224 55 Z " />
<glyph glyph-name="atilde" unicode="&#xe3;" horiz-adv-x="552" d="M206 -9 C300 -9 361 42 388 63 C395 14 445 -6 493 -6 C500 -6 510 -5 515 -4 L518 57 C492 57 459 66 459 107 L459 409 C459 516 386 560 266 560 C192 560 131 544 89 526 L107 464 C152 481 196 491 255 491 C341 491 382 470 382 383 L382 313 L252 311 C163 309 43 281 43 145 C43 46 107 -9 206 -9 L206 -9 Z M224 55 C164 55 119 85 119 148 C119 212 166 250 251 253 L382 258 L382 116 C341 86 284 55 224 55 L224 55 Z M332 645 C391 645 427 684 437 695 L406 739 C393 729 370 711 336 711 C297 711 266 748 213 748 C152 748 118 713 108 703 L139 657 C162 675 177 682 208 682 C251 682 285 645 332 645 L332 645 Z " />
<glyph glyph-name="adieresis" unicode="&#xe4;" horiz-adv-x="552" d="M196 669 L196 762 L119 762 L119 669 L196 669 Z M415 669 L415 762 L337 762 L337 669 L415 669 Z M206 -9 C300 -9 361 42 388 63 C395 14 445 -6 493 -6 C500 -6 510 -5 515 -4 L518 57 C492 57 459 66 459 107 L459 409 C459 516 386 560 266 560 C192 560 131 544 89 526 L107 464 C152 481 196 491 255 491 C341 491 382 470 382 383 L382 313 L252 311 C163 309 43 281 43 145 C43 46 107 -9 206 -9 L206 -9 Z M224 55 C164 55 119 85 119 148 C119 212 166 250 251 253 L382 258 L382 116 C341 86 284 55 224 55 L224 55 Z " />
<glyph glyph-name="aring" unicode="&#xe5;" horiz-adv-x="552" d="M206 -9 C300 -9 361 42 388 63 C395 14 445 -6 493 -6 C500 -6 510 -5 515 -4 L518 57 C492 57 459 66 459 107 L459 409 C459 516 386 560 266 560 C192 560 131 544 89 526 L107 464 C152 481 196 491 255 491 C341 491 382 470 382 383 L382 313 L252 311 C163 309 43 281 43 145 C43 46 107 -9 206 -9 L206 -9 Z M224 55 C164 55 119 85 119 148 C119 212 166 250 251 253 L382 258 L382 116 C341 86 284 55 224 55 L224 55 Z M284 614 C344 614 392 649 392 714 C392 789 330 814 282 814 C226 814 173 779 173 712 C173 642 228 614 284 614 L284 614 Z M283 655 C247 655 222 679 222 715 C222 751 245 771 282 771 C315 771 343 749 343 713 C342 677 320 655 283 655 L283 655 Z " />
<glyph glyph-name="ae" unicode="&#xe6;" horiz-adv-x="869" d="M637 -9 C717 -9 777 3 808 15 L795 78 C772 73 700 59 661 59 C545 59 460 84 457 255 L817 269 L817 298 C817 469 752 559 623 559 C548 559 485 536 441 481 C410 545 342 559 265 559 C184 559 115 537 90 527 L107 467 C129 472 192 491 242 491 C339 491 381 478 381 387 L381 312 C375 312 252 309 252 309 C163 307 43 279 43 146 C43 46 101 -8 198 -8 C298 -8 387 64 417 86 C461 19 535 -9 637 -9 L637 -9 Z M217 57 C160 57 118 76 118 154 C118 205 158 248 253 250 L379 254 C381 209 387 162 397 130 C359 106 264 57 217 57 L217 57 Z M460 316 C467 448 537 500 611 500 C691 500 735 431 735 329 L460 316 Z " />
<glyph glyph-name="ccedilla" unicode="&#xe7;" horiz-adv-x="497" d="M325 -12 C386 -12 423 -2 456 9 L444 73 C410 64 381 56 333 56 C184 56 134 131 134 266 C134 418 198 491 312 491 C367 491 411 473 433 464 L457 527 C430 542 380 560 312 560 C153 560 53 458 53 262 C53 76 140 -12 325 -12 L325 -12 Z M252 -240 C330 -207 359 -162 358 -118 C358 -95 349 -71 338 -51 L261 -51 C274 -75 285 -97 285 -118 C285 -144 268 -169 226 -195 L252 -240 Z " />
<glyph glyph-name="egrave" unicode="&#xe8;" horiz-adv-x="546" d="M313 -12 C382 -12 444 0 485 17 L471 81 C420 65 379 56 326 56 C222 56 136 89 134 258 L494 258 L494 287 C494 469 431 560 292 560 C159 560 54 475 54 262 C54 54 154 -12 313 -12 L313 -12 Z M135 317 C144 439 205 498 284 498 C373 498 412 428 412 317 L135 317 Z M347 619 L378 669 L189 799 L154 739 L347 619 Z " />
<glyph glyph-name="eacute" unicode="&#xe9;" horiz-adv-x="546" d="M225 618 L420 739 L385 795 L197 667 L225 618 Z M313 -12 C382 -12 444 0 485 17 L471 81 C420 65 379 56 326 56 C222 56 136 89 134 258 L494 258 L494 287 C494 469 431 560 292 560 C159 560 54 475 54 262 C54 54 154 -12 313 -12 L313 -12 Z M135 317 C144 439 205 498 284 498 C373 498 412 428 412 317 L135 317 Z " />
<glyph glyph-name="ecircumflex" unicode="&#xea;" horiz-adv-x="546" d="M398 629 L433 676 L281 787 L115 674 L149 628 L278 712 L398 629 Z M313 -12 C382 -12 444 0 485 17 L471 81 C420 65 379 56 326 56 C222 56 136 89 134 258 L494 258 L494 287 C494 469 431 560 292 560 C159 560 54 475 54 262 C54 54 154 -12 313 -12 L313 -12 Z M135 317 C144 439 205 498 284 498 C373 498 412 428 412 317 L135 317 Z " />
<glyph glyph-name="edieresis" unicode="&#xeb;" horiz-adv-x="546" d="M206 669 L206 762 L129 762 L129 669 L206 669 Z M425 669 L425 762 L347 762 L347 669 L425 669 Z M313 -12 C382 -12 444 0 485 17 L471 81 C420 65 379 56 326 56 C222 56 136 89 134 258 L494 258 L494 287 C494 469 431 560 292 560 C159 560 54 475 54 262 C54 54 154 -12 313 -12 L313 -12 Z M135 317 C144 439 205 498 284 498 C373 498 412 428 412 317 L135 317 Z " />
<glyph glyph-name="igrave" unicode="&#xec;" horiz-adv-x="249" d="M84 0 L164 0 L164 546 L84 546 L84 0 Z M166 619 L197 669 L8 799 L-27 739 L166 619 Z " />
<glyph glyph-name="iacute" unicode="&#xed;" horiz-adv-x="249" d="M70 618 L265 739 L230 795 L42 667 L70 618 Z M84 0 L164 0 L164 546 L84 546 L84 0 Z " />
<glyph glyph-name="icircumflex" unicode="&#xee;" horiz-adv-x="249" d="M246 629 L281 676 L129 787 L-37 674 L-3 628 L126 712 L246 629 Z M84 0 L164 0 L164 546 L84 546 L84 0 Z " />
<glyph glyph-name="idieresis" unicode="&#xef;" horiz-adv-x="249" d="M52 669 L52 762 L-25 762 L-25 669 L52 669 Z M271 669 L271 762 L193 762 L193 669 L271 669 Z M84 0 L164 0 L164 546 L84 546 L84 0 Z " />
<glyph glyph-name="eth" unicode="&#xf0;" horiz-adv-x="612" d="M297 -9 C463 -9 546 108 546 282 C546 494 467 611 384 684 L468 742 L437 782 L341 716 C302 743 266 760 242 771 L198 718 C220 708 249 693 280 671 L196 613 L228 573 L323 638 C358 607 395 564 421 511 C389 533 350 546 302 546 C161 546 54 450 54 265 C54 86 146 -9 297 -9 L297 -9 Z M303 56 C174 56 134 156 134 270 C134 373 169 481 299 481 C430 481 466 377 466 269 C466 161 433 56 303 56 L303 56 Z " />
<glyph glyph-name="ntilde" unicode="&#xf1;" horiz-adv-x="602" d="M367 645 C426 645 462 684 472 695 L441 739 C428 729 405 711 371 711 C332 711 301 748 248 748 C187 748 153 713 143 703 L174 657 C197 675 212 682 243 682 C286 682 320 645 367 645 L367 645 Z M84 0 L163 0 L163 423 C212 457 268 490 338 490 C431 490 446 431 446 337 L446 0 L523 0 L523 352 C523 444 513 560 358 560 C273 560 220 526 163 484 L163 546 L84 546 L84 0 Z " />
<glyph glyph-name="ograve" unicode="&#xf2;" horiz-adv-x="598" d="M368 619 L399 669 L210 799 L175 739 L368 619 Z M296 -12 C439 -12 545 79 545 276 C545 456 462 560 307 560 C155 560 53 456 53 267 C53 88 146 -12 296 -12 L296 -12 Z M301 53 C173 53 133 159 133 271 C133 375 167 495 301 495 C435 495 465 374 465 271 C465 164 433 53 301 53 L301 53 Z " />
<glyph glyph-name="oacute" unicode="&#xf3;" horiz-adv-x="598" d="M231 618 L426 739 L391 795 L203 667 L231 618 Z M296 -12 C439 -12 545 79 545 276 C545 456 462 560 307 560 C155 560 53 456 53 267 C53 88 146 -12 296 -12 L296 -12 Z M301 53 C173 53 133 159 133 271 C133 375 167 495 301 495 C435 495 465 374 465 271 C465 164 433 53 301 53 L301 53 Z " />
<glyph glyph-name="ocircumflex" unicode="&#xf4;" horiz-adv-x="598" d="M418 629 L453 676 L301 787 L135 674 L169 628 L298 712 L418 629 Z M296 -12 C439 -12 545 79 545 276 C545 456 462 560 307 560 C155 560 53 456 53 267 C53 88 146 -12 296 -12 L296 -12 Z M301 53 C173 53 133 159 133 271 C133 375 167 495 301 495 C435 495 465 374 465 271 C465 164 433 53 301 53 L301 53 Z " />
<glyph glyph-name="otilde" unicode="&#xf5;" horiz-adv-x="598" d="M296 -12 C439 -12 545 79 545 276 C545 456 462 560 307 560 C155 560 53 456 53 267 C53 88 146 -12 296 -12 L296 -12 Z M301 53 C173 53 133 159 133 271 C133 375 167 495 301 495 C435 495 465 374 465 271 C465 164 433 53 301 53 L301 53 Z M357 645 C416 645 452 684 462 695 L431 739 C418 729 395 711 361 711 C322 711 291 748 238 748 C177 748 143 713 133 703 L164 657 C187 675 202 682 233 682 C276 682 310 645 357 645 L357 645 Z " />
<glyph glyph-name="odieresis" unicode="&#xf6;" horiz-adv-x="598" d="M225 669 L225 762 L148 762 L148 669 L225 669 Z M444 669 L444 762 L366 762 L366 669 L444 669 Z M296 -12 C439 -12 545 79 545 276 C545 456 462 560 307 560 C155 560 53 456 53 267 C53 88 146 -12 296 -12 L296 -12 Z M301 53 C173 53 133 159 133 271 C133 375 167 495 301 495 C435 495 465 374 465 271 C465 164 433 53 301 53 L301 53 Z " />
<glyph glyph-name="divide" unicode="&#xf7;" horiz-adv-x="651" d="M280 68 L360 68 L360 146 L280 146 L280 68 Z M71 270 L580 270 L580 336 L71 336 L71 270 Z M280 461 L360 461 L360 540 L280 540 L280 461 Z " />
<glyph glyph-name="oslash" unicode="&#xf8;" horiz-adv-x="622" d="M307 -12 C450 -12 556 79 556 276 C556 354 540 418 509 466 L573 539 L537 572 L478 504 C439 540 385 560 318 560 C166 560 64 456 64 267 C64 190 81 128 112 82 L43 3 L78 -31 L144 45 C185 8 240 -12 307 -12 L307 -12 Z M312 53 C258 53 220 72 193 102 L454 402 C470 362 476 315 476 271 C476 164 444 53 312 53 L312 53 Z M144 271 C144 375 178 495 312 495 C365 495 402 476 427 446 L166 145 C150 182 144 226 144 271 L144 271 Z " />
<glyph glyph-name="ugrave" unicode="&#xf9;" horiz-adv-x="599" d="M241 -12 C333 -12 387 27 439 64 L439 0 L515 0 L515 546 L439 546 L439 128 C397 98 333 60 263 60 C165 60 158 128 158 214 L158 546 L80 546 L80 198 C80 106 91 -12 241 -12 L241 -12 Z M349 619 L380 669 L191 799 L156 739 L349 619 Z " />
<glyph glyph-name="uacute" unicode="&#xfa;" horiz-adv-x="599" d="M253 619 L448 740 L413 796 L225 668 L253 619 Z M241 -12 C333 -12 387 27 439 64 L439 0 L515 0 L515 546 L439 546 L439 128 C397 98 333 60 263 60 C165 60 158 128 158 214 L158 546 L80 546 L80 198 C80 106 91 -12 241 -12 L241 -12 Z " />
<glyph glyph-name="ucircumflex" unicode="&#xfb;" horiz-adv-x="599" d="M420 629 L455 676 L303 787 L137 674 L171 628 L300 712 L420 629 Z M241 -12 C333 -12 387 27 439 64 L439 0 L515 0 L515 546 L439 546 L439 128 C397 98 333 60 263 60 C165 60 158 128 158 214 L158 546 L80 546 L80 198 C80 106 91 -12 241 -12 L241 -12 Z " />
<glyph glyph-name="udieresis" unicode="&#xfc;" horiz-adv-x="599" d="M225 669 L225 762 L148 762 L148 669 L225 669 Z M444 669 L444 762 L366 762 L366 669 L444 669 Z M241 -12 C333 -12 387 27 439 64 L439 0 L515 0 L515 546 L439 546 L439 128 C397 98 333 60 263 60 C165 60 158 128 158 214 L158 546 L80 546 L80 198 C80 106 91 -12 241 -12 L241 -12 Z " />
<glyph glyph-name="yacute" unicode="&#xfd;" horiz-adv-x="511" d="M156 -220 L232 -220 L499 546 L418 546 L284 154 L252 58 L221 156 L103 546 L17 546 L193 0 L230 0 L156 -220 Z M209 618 L404 739 L369 795 L181 667 L209 618 Z " />
<glyph glyph-name="thorn" unicode="&#xfe;" horiz-adv-x="590" d="M84 -220 L161 -220 L161 -2 C188 -6 227 -10 274 -10 C411 -10 536 61 536 289 C536 459 456 555 314 555 C256 555 197 527 161 501 L161 754 L84 754 L84 -220 Z M277 55 C213 55 186 63 161 66 L161 438 C178 450 244 487 298 487 C428 487 455 384 455 269 C455 148 396 55 277 55 L277 55 Z " />
<glyph glyph-name="ydieresis" unicode="&#xff;" horiz-adv-x="511" d="M180 669 L180 762 L103 762 L103 669 L180 669 Z M399 669 L399 762 L321 762 L321 669 L399 669 Z M156 -220 L232 -220 L499 546 L418 546 L284 154 L252 58 L221 156 L103 546 L17 546 L193 0 L230 0 L156 -220 Z " />
<glyph glyph-name="Amacron" unicode="&#x100;" horiz-adv-x="671" d="M0 0 L87 0 L192 264 L471 264 L565 0 L654 0 L397 707 L290 707 L0 0 Z M217 330 L339 649 L449 330 L217 330 Z M207 785 L474 785 L474 850 L207 850 L207 785 Z " />
<glyph glyph-name="amacron" unicode="&#x101;" horiz-adv-x="552" d="M206 -9 C300 -9 361 42 388 63 C395 14 445 -6 493 -6 C500 -6 510 -5 515 -4 L518 57 C492 57 459 66 459 107 L459 409 C459 516 386 560 266 560 C192 560 131 544 89 526 L107 464 C152 481 196 491 255 491 C341 491 382 470 382 383 L382 313 L252 311 C163 309 43 281 43 145 C43 46 107 -9 206 -9 L206 -9 Z M224 55 C164 55 119 85 119 148 C119 212 166 250 251 253 L382 258 L382 116 C341 86 284 55 224 55 L224 55 Z M148 669 L415 669 L415 734 L148 734 L148 669 Z " />
<glyph glyph-name="Abreve" unicode="&#x102;" horiz-adv-x="671" d="M0 0 L87 0 L192 264 L471 264 L565 0 L654 0 L397 707 L290 707 L0 0 Z M217 330 L339 649 L449 330 L217 330 Z M338 753 C422 753 470 804 490 840 L449 876 C428 844 393 817 341 817 C297 817 260 841 232 877 L188 838 C211 797 261 753 338 753 L338 753 Z " />
<glyph glyph-name="abreve" unicode="&#x103;" horiz-adv-x="552" d="M206 -9 C300 -9 361 42 388 63 C395 14 445 -6 493 -6 C500 -6 510 -5 515 -4 L518 57 C492 57 459 66 459 107 L459 409 C459 516 386 560 266 560 C192 560 131 544 89 526 L107 464 C152 481 196 491 255 491 C341 491 382 470 382 383 L382 313 L252 311 C163 309 43 281 43 145 C43 46 107 -9 206 -9 L206 -9 Z M224 55 C164 55 119 85 119 148 C119 212 166 250 251 253 L382 258 L382 116 C341 86 284 55 224 55 L224 55 Z M281 645 C364 645 412 696 433 732 L392 767 C371 736 336 709 284 709 C240 709 203 733 175 768 L131 730 C153 689 203 645 281 645 L281 645 Z " />
<glyph glyph-name="Aogonek" unicode="&#x104;" horiz-adv-x="670" d="M673 -210 L656 -153 C649 -156 631 -161 610 -161 C574 -161 548 -153 548 -114 C548 -72 617 -23 654 0 L397 707 L290 707 L0 0 L87 0 L192 264 L471 264 L563 6 C516 -30 471 -74 471 -124 C471 -180 498 -226 591 -226 C644 -226 659 -218 673 -210 L673 -210 Z M449 330 L217 330 L286 509 L339 649 L385 512 L449 330 Z " />
<glyph glyph-name="aogonek" unicode="&#x105;" horiz-adv-x="547" d="M529 -210 L511 -153 C499 -160 482 -164 462 -164 C432 -164 404 -153 404 -118 C404 -77 472 -26 505 -1 L510 56 C479 59 459 75 459 109 L459 412 C459 527 375 560 265 560 C184 560 115 537 90 527 L107 465 C130 472 192 491 242 491 C339 491 382 473 382 386 L382 314 L252 311 C163 310 43 279 43 146 C43 46 106 -10 200 -10 C308 -10 362 46 388 63 C390 39 407 16 428 6 C382 -25 330 -71 330 -124 C330 -177 354 -228 447 -228 C488 -228 515 -218 529 -210 L529 -210 Z M382 116 C348 89 287 56 219 56 C157 56 120 85 120 154 C120 207 161 249 251 253 L382 258 L382 116 Z " />
<glyph glyph-name="Cacute" unicode="&#x106;" horiz-adv-x="677" d="M427 -12 C528 -12 583 5 629 22 L609 88 C565 72 509 62 443 62 C281 62 145 148 145 359 C145 565 277 645 425 645 C506 645 552 629 603 611 L628 677 C588 696 526 717 423 717 C195 717 60 569 60 349 C60 138 193 -12 427 -12 L427 -12 Z M328 747 L552 816 L531 883 L312 799 L328 747 Z " />
<glyph glyph-name="cacute" unicode="&#x107;" horiz-adv-x="497" d="M229 618 L424 739 L389 795 L201 667 L229 618 Z M325 -12 C386 -12 423 -2 456 9 L444 73 C410 64 381 56 333 56 C184 56 134 131 134 266 C134 418 198 491 312 491 C367 491 411 473 433 464 L457 527 C430 542 380 560 312 560 C153 560 53 458 53 262 C53 76 140 -12 325 -12 L325 -12 Z " />
<glyph glyph-name="Ccircumflex" unicode="&#x108;" horiz-adv-x="677" d="M427 -12 C528 -12 583 5 629 22 L609 88 C565 72 509 62 443 62 C281 62 145 148 145 359 C145 565 277 645 425 645 C506 645 552 629 603 611 L628 677 C588 696 526 717 423 717 C195 717 60 569 60 349 C60 138 193 -12 427 -12 L427 -12 Z M298 750 L427 808 L550 751 L579 806 L427 880 L270 804 L298 750 Z " />
<glyph glyph-name="ccircumflex" unicode="&#x109;" horiz-adv-x="497" d="M419 629 L454 676 L302 787 L136 674 L170 628 L299 712 L419 629 Z M325 -12 C386 -12 423 -2 456 9 L444 73 C410 64 381 56 333 56 C184 56 134 131 134 266 C134 418 198 491 312 491 C367 491 411 473 433 464 L457 527 C430 542 380 560 312 560 C153 560 53 458 53 262 C53 76 140 -12 325 -12 L325 -12 Z " />
<glyph glyph-name="Cdotaccent" unicode="&#x10a;" horiz-adv-x="677" d="M459 778 L459 871 L382 871 L382 778 L459 778 Z M427 -12 C528 -12 583 5 629 22 L609 88 C565 72 509 62 443 62 C281 62 145 148 145 359 C145 565 277 645 425 645 C506 645 552 629 603 611 L628 677 C588 696 526 717 423 717 C195 717 60 569 60 349 C60 138 193 -12 427 -12 L427 -12 Z " />
<glyph glyph-name="cdotaccent" unicode="&#x10b;" horiz-adv-x="497" d="M325 -12 C386 -12 423 -2 456 9 L444 73 C410 64 381 56 333 56 C184 56 134 131 134 266 C134 418 198 491 312 491 C367 491 411 473 433 464 L457 527 C430 542 380 560 312 560 C153 560 53 458 53 262 C53 76 140 -12 325 -12 L325 -12 Z M346 669 L346 762 L269 762 L269 669 L346 669 Z " />
<glyph glyph-name="Ccaron" unicode="&#x10c;" horiz-adv-x="677" d="M580 820 L552 875 L421 818 L293 876 L266 820 L421 746 L580 820 Z M427 -12 C528 -12 583 5 629 22 L609 88 C565 72 509 62 443 62 C281 62 145 148 145 359 C145 565 277 645 425 645 C506 645 552 629 603 611 L628 677 C588 696 526 717 423 717 C195 717 60 569 60 349 C60 138 193 -12 427 -12 L427 -12 Z " />
<glyph glyph-name="ccaron" unicode="&#x10d;" horiz-adv-x="497" d="M292 624 L457 736 L425 783 L293 697 L163 782 L131 735 L292 624 Z M325 -12 C386 -12 423 -2 456 9 L444 73 C410 64 381 56 333 56 C184 56 134 131 134 266 C134 418 198 491 312 491 C367 491 411 473 433 464 L457 527 C430 542 380 560 312 560 C153 560 53 458 53 262 C53 76 140 -12 325 -12 L325 -12 Z " />
<glyph glyph-name="Dcaron" unicode="&#x10e;" horiz-adv-x="754" d="M480 820 L452 875 L321 818 L193 876 L166 820 L321 746 L480 820 Z M106 0 L303 0 C539 0 692 108 692 356 C692 600 525 707 297 707 L106 707 L106 0 Z M188 68 L188 639 L294 639 C482 639 607 545 607 345 C607 161 497 68 314 68 L188 68 Z " />
<glyph glyph-name="dcaron" unicode="&#x10f;" horiz-adv-x="626" d="M652 754 L575 754 L554 551 L612 551 L652 754 Z M272 -10 C341 -10 381 17 420 52 L420 0 L499 0 L499 754 L420 754 L420 546 C384 556 357 560 324 560 C166 560 53 469 53 261 C53 35 186 -10 272 -10 L272 -10 Z M282 57 C199 57 133 121 133 266 C133 383 176 495 319 495 C367 495 405 484 420 478 L420 118 C395 96 344 57 282 57 L282 57 Z " />
<glyph glyph-name="Dcroat" unicode="&#x110;" horiz-adv-x="781" d="M53 320 L132 320 L132 0 L329 0 C565 0 718 108 718 356 C718 600 551 707 323 707 L132 707 L132 383 L53 383 L53 320 Z M214 68 L214 320 L382 320 L382 383 L214 383 L214 639 L320 639 C508 639 633 545 633 345 C633 161 523 68 340 68 L214 68 Z " />
<glyph glyph-name="dcroat" unicode="&#x111;" horiz-adv-x="583" d="M275 622 L420 622 L420 546 C382 557 363 560 312 560 C171 560 53 462 53 271 C53 29 183 -9 281 -9 C341 -9 389 23 420 52 L420 0 L499 0 L499 622 L574 622 L574 673 L499 673 L499 754 L420 754 L420 673 L275 673 L275 622 Z M288 58 C196 58 133 121 133 268 C133 383 181 495 312 495 C366 495 395 486 420 478 L420 118 C398 101 341 58 288 58 L288 58 Z " />
<glyph glyph-name="Emacron" unicode="&#x112;" horiz-adv-x="582" d="M168 785 L435 785 L435 850 L168 850 L168 785 Z M106 0 L525 0 L525 68 L188 68 L188 321 L480 321 L480 389 L188 389 L188 640 L502 640 L502 707 L106 707 L106 0 Z " />
<glyph glyph-name="emacron" unicode="&#x113;" horiz-adv-x="546" d="M150 669 L417 669 L417 734 L150 734 L150 669 Z M313 -12 C382 -12 444 0 485 17 L471 81 C420 65 379 56 326 56 C222 56 136 89 134 258 L494 258 L494 287 C494 469 431 560 292 560 C159 560 54 475 54 262 C54 54 154 -12 313 -12 L313 -12 Z M135 317 C144 439 205 498 284 498 C373 498 412 428 412 317 L135 317 Z " />
<glyph glyph-name="Ebreve" unicode="&#x114;" horiz-adv-x="582" d="M302 753 C386 753 434 804 454 840 L413 876 C392 844 357 817 305 817 C261 817 224 841 196 877 L152 838 C175 797 225 753 302 753 L302 753 Z M106 0 L525 0 L525 68 L188 68 L188 321 L480 321 L480 389 L188 389 L188 640 L502 640 L502 707 L106 707 L106 0 Z " />
<glyph glyph-name="ebreve" unicode="&#x115;" horiz-adv-x="546" d="M313 -12 C382 -12 444 0 485 17 L471 81 C420 65 379 56 326 56 C222 56 136 89 134 258 L494 258 L494 287 C494 469 431 560 292 560 C159 560 54 475 54 262 C54 54 154 -12 313 -12 L313 -12 Z M135 317 C144 439 205 498 284 498 C373 498 412 428 412 317 L135 317 Z M288 645 C371 645 419 696 440 732 L399 767 C378 736 343 709 291 709 C247 709 210 733 182 768 L138 730 C160 689 210 645 288 645 L288 645 Z " />
<glyph glyph-name="Edotaccent" unicode="&#x116;" horiz-adv-x="582" d="M353 778 L353 871 L276 871 L276 778 L353 778 Z M106 0 L525 0 L525 68 L188 68 L188 321 L480 321 L480 389 L188 389 L188 640 L502 640 L502 707 L106 707 L106 0 Z " />
<glyph glyph-name="edotaccent" unicode="&#x117;" horiz-adv-x="546" d="M313 -12 C382 -12 444 0 485 17 L471 81 C420 65 379 56 326 56 C222 56 136 89 134 258 L494 258 L494 287 C494 469 431 560 292 560 C159 560 54 475 54 262 C54 54 154 -12 313 -12 L313 -12 Z M135 317 C144 439 205 498 284 498 C373 498 412 428 412 317 L135 317 Z M329 669 L329 762 L252 762 L252 669 L329 669 Z " />
<glyph glyph-name="Eogonek" unicode="&#x118;" horiz-adv-x="582" d="M542 -210 L525 -153 C512 -158 495 -163 478 -163 C450 -163 419 -152 419 -116 C419 -75 485 -23 525 0 L525 68 L188 68 L188 321 L480 321 L480 389 L188 389 L188 640 L502 640 L502 707 L106 707 L106 0 L434 0 C392 -28 347 -75 347 -128 C347 -181 380 -231 460 -231 C499 -231 521 -221 542 -210 L542 -210 Z " />
<glyph glyph-name="eogonek" unicode="&#x119;" horiz-adv-x="548" d="M403 -226 C456 -226 473 -218 487 -210 L469 -153 C462 -157 445 -162 425 -162 C388 -162 362 -152 362 -113 C362 -59 460 -1 485 14 L471 78 C447 72 376 58 337 58 C223 58 137 84 134 258 L495 258 L495 287 C495 468 433 559 299 559 C161 559 55 484 55 263 C55 58 152 -9 307 -9 C325 -9 343 -8 360 -7 C322 -37 286 -78 286 -123 C286 -179 312 -226 403 -226 L403 -226 Z M135 317 C145 439 205 500 287 500 C373 500 413 428 412 317 L135 317 Z " />
<glyph glyph-name="Ecaron" unicode="&#x11a;" horiz-adv-x="582" d="M455 820 L427 875 L296 818 L168 876 L141 820 L296 746 L455 820 Z M106 0 L525 0 L525 68 L188 68 L188 321 L480 321 L480 389 L188 389 L188 640 L502 640 L502 707 L106 707 L106 0 Z " />
<glyph glyph-name="ecaron" unicode="&#x11b;" horiz-adv-x="546" d="M286 624 L451 736 L419 783 L287 697 L157 782 L125 735 L286 624 Z M313 -12 C382 -12 444 0 485 17 L471 81 C420 65 379 56 326 56 C222 56 136 89 134 258 L494 258 L494 287 C494 469 431 560 292 560 C159 560 54 475 54 262 C54 54 154 -12 313 -12 L313 -12 Z M135 317 C144 439 205 498 284 498 C373 498 412 428 412 317 L135 317 Z " />
<glyph glyph-name="Gcircumflex" unicode="&#x11c;" horiz-adv-x="711" d="M304 750 L433 808 L556 751 L585 806 L433 880 L276 804 L304 750 Z M432 -12 C516 -12 581 3 639 23 L639 348 L557 348 L557 76 C531 68 496 61 443 61 C282 61 146 148 146 359 C146 565 277 645 424 645 C510 645 558 628 603 612 L626 679 C582 699 530 717 422 717 C191 717 60 572 60 349 C60 128 199 -12 432 -12 L432 -12 Z " />
<glyph glyph-name="gcircumflex" unicode="&#x11d;" horiz-adv-x="586" d="M265 195 C385 195 474 265 474 375 C474 420 459 451 454 459 L553 459 L553 525 L398 522 C388 530 346 559 267 559 C128 559 63 470 63 371 C63 308 88 265 126 236 C94 205 80 168 80 136 C80 108 91 82 115 66 C63 28 34 -21 34 -79 C34 -169 106 -230 242 -230 C418 -230 516 -128 516 -26 C516 55 457 116 311 116 L187 116 C164 116 147 133 147 158 C147 171 152 191 167 213 C197 200 231 195 265 195 L265 195 Z M307 48 C412 48 442 8 442 -34 C442 -100 372 -165 253 -165 C156 -165 103 -125 103 -61 C103 -23 123 16 165 49 C170 48 176 48 183 48 L307 48 Z M267 252 C193 252 139 296 139 376 C139 452 188 503 268 503 C350 503 397 447 397 376 C397 300 345 252 267 252 L267 252 Z M389 629 L424 676 L272 787 L106 674 L140 628 L269 712 L389 629 Z " />
<glyph glyph-name="Gbreve" unicode="&#x11e;" horiz-adv-x="711" d="M413 753 C497 753 545 804 565 840 L524 876 C503 844 468 817 416 817 C372 817 335 841 307 877 L263 838 C286 797 336 753 413 753 L413 753 Z M432 -12 C516 -12 581 3 639 23 L639 348 L557 348 L557 76 C531 68 496 61 443 61 C282 61 146 148 146 359 C146 565 277 645 424 645 C510 645 558 628 603 612 L626 679 C582 699 530 717 422 717 C191 717 60 572 60 349 C60 128 199 -12 432 -12 L432 -12 Z " />
<glyph glyph-name="gbreve" unicode="&#x11f;" horiz-adv-x="586" d="M265 195 C385 195 474 265 474 375 C474 420 459 451 454 459 L553 459 L553 525 L398 522 C388 530 346 559 267 559 C128 559 63 470 63 371 C63 308 88 265 126 236 C94 205 80 168 80 136 C80 108 91 82 115 66 C63 28 34 -21 34 -79 C34 -169 106 -230 242 -230 C418 -230 516 -128 516 -26 C516 55 457 116 311 116 L187 116 C164 116 147 133 147 158 C147 171 152 191 167 213 C197 200 231 195 265 195 L265 195 Z M307 48 C412 48 442 8 442 -34 C442 -100 372 -165 253 -165 C156 -165 103 -125 103 -61 C103 -23 123 16 165 49 C170 48 176 48 183 48 L307 48 Z M267 252 C193 252 139 296 139 376 C139 452 188 503 268 503 C350 503 397 447 397 376 C397 300 345 252 267 252 L267 252 Z M271 645 C354 645 402 696 423 732 L382 767 C361 736 326 709 274 709 C230 709 193 733 165 768 L121 730 C143 689 193 645 271 645 L271 645 Z " />
<glyph glyph-name="Gdotaccent" unicode="&#x120;" horiz-adv-x="711" d="M465 778 L465 871 L388 871 L388 778 L465 778 Z M432 -12 C516 -12 581 3 639 23 L639 348 L557 348 L557 76 C531 68 496 61 443 61 C282 61 146 148 146 359 C146 565 277 645 424 645 C510 645 558 628 603 612 L626 679 C582 699 530 717 422 717 C191 717 60 572 60 349 C60 128 199 -12 432 -12 L432 -12 Z " />
<glyph glyph-name="gdotaccent" unicode="&#x121;" horiz-adv-x="586" d="M265 195 C385 195 474 265 474 375 C474 420 459 451 454 459 L553 459 L553 525 L398 522 C388 530 346 559 267 559 C128 559 63 470 63 371 C63 308 88 265 126 236 C94 205 80 168 80 136 C80 108 91 82 115 66 C63 28 34 -21 34 -79 C34 -169 106 -230 242 -230 C418 -230 516 -128 516 -26 C516 55 457 116 311 116 L187 116 C164 116 147 133 147 158 C147 171 152 191 167 213 C197 200 231 195 265 195 L265 195 Z M307 48 C412 48 442 8 442 -34 C442 -100 372 -165 253 -165 C156 -165 103 -125 103 -61 C103 -23 123 16 165 49 C170 48 176 48 183 48 L307 48 Z M267 252 C193 252 139 296 139 376 C139 452 188 503 268 503 C350 503 397 447 397 376 C397 300 345 252 267 252 L267 252 Z M304 669 L304 762 L227 762 L227 669 L304 669 Z " />
<glyph glyph-name="Gcommaaccent" unicode="&#x122;" horiz-adv-x="711" d="M465 -58 L388 -58 L367 -261 L426 -261 L465 -58 Z M432 -12 C516 -12 581 3 639 23 L639 348 L557 348 L557 76 C531 68 496 61 443 61 C282 61 146 148 146 359 C146 565 277 645 424 645 C510 645 558 628 603 612 L626 679 C582 699 530 717 422 717 C191 717 60 572 60 349 C60 128 199 -12 432 -12 L432 -12 Z " />
<glyph glyph-name="gcommaaccent" unicode="&#x123;" horiz-adv-x="586" d="M265 195 C385 195 474 265 474 375 C474 420 459 451 454 459 L553 459 L553 525 L398 522 C388 530 346 559 267 559 C128 559 63 470 63 371 C63 308 88 265 126 236 C94 205 80 168 80 136 C80 108 91 82 115 66 C63 28 34 -21 34 -79 C34 -169 106 -230 242 -230 C418 -230 516 -128 516 -26 C516 55 457 116 311 116 L187 116 C164 116 147 133 147 158 C147 171 152 191 167 213 C197 200 231 195 265 195 L265 195 Z M307 48 C412 48 442 8 442 -34 C442 -100 372 -165 253 -165 C156 -165 103 -125 103 -61 C103 -23 123 16 165 49 C170 48 176 48 183 48 L307 48 Z M267 252 C193 252 139 296 139 376 C139 452 188 503 268 503 C350 503 397 447 397 376 C397 300 345 252 267 252 L267 252 Z M222 607 L303 607 L326 805 L264 805 L222 607 Z " />
<glyph glyph-name="Hcircumflex" unicode="&#x124;" horiz-adv-x="764" d="M106 0 L188 0 L188 321 L576 321 L576 0 L658 0 L658 707 L576 707 L576 389 L188 389 L188 707 L106 707 L106 0 Z M250 750 L379 808 L502 751 L531 806 L379 880 L222 804 L250 750 Z " />
<glyph glyph-name="hcircumflex" unicode="&#x125;" horiz-adv-x="601" d="M84 0 L163 0 L163 422 C210 452 269 489 339 489 C430 489 446 431 446 336 L446 0 L522 0 L522 352 C522 443 513 559 357 559 C270 559 208 516 163 483 L163 754 L84 754 L84 0 Z M-1 755 L128 813 L251 756 L280 811 L128 885 L-29 809 L-1 755 Z " />
<glyph glyph-name="Hbar" unicode="&#x126;" horiz-adv-x="803" d="M45 512 L126 512 L126 0 L208 0 L208 321 L596 321 L596 0 L678 0 L678 512 L758 512 L758 567 L678 567 L678 707 L596 707 L596 567 L208 567 L208 707 L126 707 L126 567 L45 567 L45 512 Z M208 389 L208 512 L596 512 L596 389 L208 389 Z " />
<glyph glyph-name="hbar" unicode="&#x127;" horiz-adv-x="601" d="M84 0 L163 0 L163 423 C187 437 270 490 333 490 C433 490 446 432 446 337 L446 0 L522 0 L522 352 C522 446 514 560 354 560 C269 560 201 511 163 484 L163 622 L314 622 L314 673 L163 673 L163 754 L84 754 L84 673 L16 673 L16 622 L84 622 L84 0 Z " />
<glyph glyph-name="Itilde" unicode="&#x128;" horiz-adv-x="294" d="M106 0 L188 0 L188 707 L106 707 L106 0 Z M214 754 C263 754 294 783 309 803 L278 847 C261 831 248 821 214 821 C180 821 145 858 94 858 C52 858 12 829 -6 812 L25 767 C48 784 70 791 94 791 C132 791 173 754 214 754 L214 754 Z " />
<glyph glyph-name="itilde" unicode="&#x129;" horiz-adv-x="249" d="M84 0 L164 0 L164 546 L84 546 L84 0 Z M184 645 C243 645 279 684 289 695 L258 739 C245 729 222 711 188 711 C149 711 118 748 65 748 C4 748 -30 713 -40 703 L-9 657 C14 675 29 682 60 682 C103 682 137 645 184 645 L184 645 Z " />
<glyph glyph-name="Imacron" unicode="&#x12a;" horiz-adv-x="294" d="M106 0 L188 0 L188 707 L106 707 L106 0 Z M10 785 L277 785 L277 850 L10 850 L10 785 Z " />
<glyph glyph-name="imacron" unicode="&#x12b;" horiz-adv-x="249" d="M84 0 L164 0 L164 546 L84 546 L84 0 Z M-8 669 L259 669 L259 734 L-8 734 L-8 669 Z " />
<glyph glyph-name="Ibreve" unicode="&#x12c;" horiz-adv-x="294" d="M106 0 L188 0 L188 707 L106 707 L106 0 Z M144 753 C228 753 276 804 296 840 L255 876 C234 844 199 817 147 817 C103 817 66 841 38 877 L-6 838 C17 797 67 753 144 753 L144 753 Z " />
<glyph glyph-name="ibreve" unicode="&#x12d;" horiz-adv-x="249" d="M84 0 L164 0 L164 546 L84 546 L84 0 Z M126 645 C209 645 257 696 278 732 L237 767 C216 736 181 709 129 709 C85 709 48 733 20 768 L-24 730 C-2 689 48 645 126 645 L126 645 Z " />
<glyph glyph-name="Iogonek" unicode="&#x12e;" horiz-adv-x="294" d="M211 -210 L193 -153 C181 -158 161 -164 144 -164 C114 -164 86 -151 86 -112 C86 -70 143 -27 188 0 L188 707 L106 707 L106 6 C61 -24 11 -69 11 -121 C11 -178 36 -228 130 -228 C172 -228 197 -218 211 -210 L211 -210 Z " />
<glyph glyph-name="iogonek" unicode="&#x12f;" horiz-adv-x="249" d="M105 -228 C152 -228 173 -218 187 -210 L169 -153 C157 -159 138 -165 117 -165 C88 -165 59 -153 59 -118 C59 -76 116 -29 164 0 L164 546 L84 546 L84 8 C39 -21 -13 -68 -13 -121 C-13 -178 11 -228 105 -228 L105 -228 Z M162 669 L162 762 L85 762 L85 669 L162 669 Z " />
<glyph glyph-name="Idotaccent" unicode="&#x130;" horiz-adv-x="294" d="M185 778 L185 871 L108 871 L108 778 L185 778 Z M106 0 L188 0 L188 707 L106 707 L106 0 Z " />
<glyph glyph-name="dotlessi" unicode="&#x131;" horiz-adv-x="249" d="M84 0 L164 0 L164 546 L84 546 L84 0 Z " />
<glyph glyph-name="IJ" unicode="&#x132;" horiz-adv-x="584" d="M106 0 L188 0 L188 707 L106 707 L106 0 Z M286 -187 C452 -113 479 1 479 153 L479 707 L396 707 L396 151 C396 21 372 -60 251 -127 L286 -187 Z " />
<glyph glyph-name="ij" unicode="&#x133;" horiz-adv-x="522" d="M253 -224 C356 -224 437 -179 437 -19 L437 546 L357 546 L357 -18 C357 -101 335 -156 254 -156 C237 -156 211 -152 197 -148 L183 -212 C198 -218 224 -224 253 -224 L253 -224 Z M84 0 L164 0 L164 546 L84 546 L84 0 Z M163 669 L163 762 L86 762 L86 669 L163 669 Z M436 669 L436 762 L359 762 L359 669 L436 669 Z " />
<glyph glyph-name="Jcircumflex" unicode="&#x134;" horiz-adv-x="295" d="M-2 -187 C164 -113 191 1 191 153 L191 707 L108 707 L108 151 C108 21 84 -60 -37 -127 L-2 -187 Z M24 750 L153 808 L276 751 L305 806 L153 880 L-4 804 L24 750 Z " />
<glyph glyph-name="jcircumflex" unicode="&#x135;" horiz-adv-x="249" d="M242 629 L277 676 L125 787 L-41 674 L-7 628 L122 712 L242 629 Z M-20 -224 C83 -224 164 -179 164 -19 L164 546 L84 546 L84 -18 C84 -101 62 -156 -19 -156 C-36 -156 -62 -152 -76 -148 L-90 -212 C-75 -218 -49 -224 -20 -224 L-20 -224 Z " />
<glyph glyph-name="Kcommaaccent" unicode="&#x136;" horiz-adv-x="628" d="M370 -58 L293 -58 L272 -261 L331 -261 L370 -58 Z M510 0 L618 0 L305 380 L598 707 L494 707 L214 385 L214 370 L510 0 Z M106 0 L188 0 L188 707 L106 707 L106 0 Z " />
<glyph glyph-name="kcommaaccent" unicode="&#x137;" horiz-adv-x="537" d="M325 -58 L248 -58 L227 -261 L286 -261 L325 -58 Z M410 0 L508 0 L274 291 L506 546 L415 546 L185 289 L410 0 Z M84 0 L163 0 L163 754 L84 754 L84 0 Z " />
<glyph glyph-name="uni0138" unicode="&#x138;" horiz-adv-x="537" d="M531 0 L276 289 L499 546 L408 546 L190 284 L433 0 L531 0 Z M84 0 L163 0 L163 546 L84 546 L84 0 Z " />
<glyph glyph-name="Lacute" unicode="&#x139;" horiz-adv-x="503" d="M108 747 L332 816 L311 883 L92 799 L108 747 Z M106 0 L495 0 L495 71 L188 71 L188 707 L106 707 L106 0 Z " />
<glyph glyph-name="lacute" unicode="&#x13a;" horiz-adv-x="247" d="M88 784 L312 853 L291 920 L72 836 L88 784 Z M84 0 L163 0 L163 754 L84 754 L84 0 Z " />
<glyph glyph-name="Lcommaaccent" unicode="&#x13b;" horiz-adv-x="503" d="M345 -58 L268 -58 L247 -261 L306 -261 L345 -58 Z M106 0 L495 0 L495 71 L188 71 L188 707 L106 707 L106 0 Z " />
<glyph glyph-name="lcommaaccent" unicode="&#x13c;" horiz-adv-x="247" d="M164 -58 L87 -58 L66 -261 L125 -261 L164 -58 Z M84 0 L163 0 L163 754 L84 754 L84 0 Z " />
<glyph glyph-name="Lcaron" unicode="&#x13d;" horiz-adv-x="503" d="M383 762 L306 762 L285 559 L344 559 L383 762 Z M106 0 L495 0 L495 71 L188 71 L188 707 L106 707 L106 0 Z " />
<glyph glyph-name="lcaron" unicode="&#x13e;" horiz-adv-x="291" d="M319 754 L242 754 L221 551 L279 551 L319 754 Z M84 0 L163 0 L163 754 L84 754 L84 0 Z " />
<glyph glyph-name="Ldot" unicode="&#x13f;" horiz-adv-x="503" d="M339 326 L434 326 L434 420 L339 420 L339 326 Z M106 0 L495 0 L495 71 L188 71 L188 707 L106 707 L106 0 Z " />
<glyph glyph-name="ldot" unicode="&#x140;" horiz-adv-x="346" d="M226 311 L321 311 L321 405 L226 405 L226 311 Z M84 0 L163 0 L163 754 L84 754 L84 0 Z " />
<glyph glyph-name="Lslash" unicode="&#x141;" horiz-adv-x="524" d="M52 267 L127 310 L127 0 L516 0 L516 71 L209 71 L209 357 L339 431 L339 496 L209 420 L209 707 L127 707 L127 373 L51 329 L52 267 Z " />
<glyph glyph-name="lslash" unicode="&#x142;" horiz-adv-x="309" d="M108 0 L187 0 L187 376 L276 427 L276 491 L187 440 L187 754 L108 754 L108 395 L28 349 L28 285 L108 331 L108 0 Z " />
<glyph glyph-name="Nacute" unicode="&#x143;" horiz-adv-x="770" d="M318 747 L542 816 L521 883 L302 799 L318 747 Z M106 0 L188 0 L188 532 L184 605 L187 605 L554 0 L664 0 L664 707 L581 707 L581 182 L585 93 L583 93 L211 707 L106 707 L106 0 Z " />
<glyph glyph-name="nacute" unicode="&#x144;" horiz-adv-x="602" d="M251 618 L446 739 L411 795 L223 667 L251 618 Z M84 0 L163 0 L163 423 C212 457 268 490 338 490 C431 490 446 431 446 337 L446 0 L523 0 L523 352 C523 444 513 560 358 560 C273 560 220 526 163 484 L163 546 L84 546 L84 0 Z " />
<glyph glyph-name="Ncommaaccent" unicode="&#x145;" horiz-adv-x="770" d="M429 -58 L352 -58 L331 -261 L390 -261 L429 -58 Z M106 0 L188 0 L188 532 L184 605 L187 605 L554 0 L664 0 L664 707 L581 707 L581 182 L585 93 L583 93 L211 707 L106 707 L106 0 Z " />
<glyph glyph-name="ncommaaccent" unicode="&#x146;" horiz-adv-x="602" d="M354 -58 L277 -58 L256 -261 L315 -261 L354 -58 Z M84 0 L163 0 L163 423 C212 457 268 490 338 490 C431 490 446 431 446 337 L446 0 L523 0 L523 352 C523 444 513 560 358 560 C273 560 220 526 163 484 L163 546 L84 546 L84 0 Z " />
<glyph glyph-name="Ncaron" unicode="&#x147;" horiz-adv-x="770" d="M539 820 L511 875 L380 818 L252 876 L225 820 L380 746 L539 820 Z M106 0 L188 0 L188 532 L184 605 L187 605 L554 0 L664 0 L664 707 L581 707 L581 182 L585 93 L583 93 L211 707 L106 707 L106 0 Z " />
<glyph glyph-name="ncaron" unicode="&#x148;" horiz-adv-x="602" d="M298 624 L463 736 L431 783 L299 697 L169 782 L137 735 L298 624 Z M84 0 L163 0 L163 423 C212 457 268 490 338 490 C431 490 446 431 446 337 L446 0 L523 0 L523 352 C523 444 513 560 358 560 C273 560 220 526 163 484 L163 546 L84 546 L84 0 Z " />
<glyph glyph-name="napostrophe" unicode="&#x149;" horiz-adv-x="623" d="M-24 554 L39 554 C62 592 79 637 79 715 L79 755 L4 755 L4 677 C4 638 -10 585 -24 554 L-24 554 Z M104 0 L183 0 L183 423 C232 457 288 490 358 490 C451 490 466 431 466 337 L466 0 L543 0 L543 352 C543 444 533 560 378 560 C293 560 240 526 183 484 L183 546 L104 546 L104 0 Z " />
<glyph glyph-name="Eng" unicode="&#x14a;" horiz-adv-x="771" d="M482 -220 C584 -220 665 -176 665 -17 L665 707 L581 707 L581 158 L585 70 L224 707 L106 707 L106 0 L188 0 L188 555 L184 628 L537 0 L587 0 L587 -20 C587 -98 563 -152 483 -152 C466 -152 434 -147 425 -145 L412 -209 C427 -214 453 -220 482 -220 L482 -220 Z " />
<glyph glyph-name="eng" unicode="&#x14b;" horiz-adv-x="602" d="M523 -16 L523 352 C523 446 514 559 354 559 C269 559 201 511 163 484 L163 546 L84 546 L84 0 L163 0 L163 423 C196 445 270 489 333 489 C433 489 446 432 446 336 L446 -15 C446 -97 422 -152 341 -152 C324 -152 292 -147 283 -145 L270 -209 C285 -214 311 -220 340 -220 C443 -220 523 -176 523 -16 L523 -16 Z " />
<glyph glyph-name="Omacron" unicode="&#x14c;" horiz-adv-x="828" d="M279 785 L546 785 L546 850 L279 850 L279 785 Z M406 -12 C632 -12 768 137 768 353 C768 559 648 717 420 717 C203 717 60 576 60 355 C60 139 186 -12 406 -12 L406 -12 Z M409 56 C231 56 142 195 142 356 C142 522 234 649 416 649 C589 649 685 522 685 354 C685 186 597 56 409 56 L409 56 Z " />
<glyph glyph-name="omacron" unicode="&#x14d;" horiz-adv-x="598" d="M163 669 L430 669 L430 734 L163 734 L163 669 Z M296 -12 C439 -12 545 79 545 276 C545 456 462 560 307 560 C155 560 53 456 53 267 C53 88 146 -12 296 -12 L296 -12 Z M301 53 C173 53 133 159 133 271 C133 375 167 495 301 495 C435 495 465 374 465 271 C465 164 433 53 301 53 L301 53 Z " />
<glyph glyph-name="Obreve" unicode="&#x14e;" horiz-adv-x="828" d="M413 753 C497 753 545 804 565 840 L524 876 C503 844 468 817 416 817 C372 817 335 841 307 877 L263 838 C286 797 336 753 413 753 L413 753 Z M406 -12 C632 -12 768 137 768 353 C768 559 648 717 420 717 C203 717 60 576 60 355 C60 139 186 -12 406 -12 L406 -12 Z M409 56 C231 56 142 195 142 356 C142 522 234 649 416 649 C589 649 685 522 685 354 C685 186 597 56 409 56 L409 56 Z " />
<glyph glyph-name="obreve" unicode="&#x14f;" horiz-adv-x="598" d="M296 -12 C439 -12 545 79 545 276 C545 456 462 560 307 560 C155 560 53 456 53 267 C53 88 146 -12 296 -12 L296 -12 Z M301 53 C173 53 133 159 133 271 C133 375 167 495 301 495 C435 495 465 374 465 271 C465 164 433 53 301 53 L301 53 Z M298 645 C381 645 429 696 450 732 L409 767 C388 736 353 709 301 709 C257 709 220 733 192 768 L148 730 C170 689 220 645 298 645 L298 645 Z " />
<glyph glyph-name="Ohungarumlaut" unicode="&#x150;" horiz-adv-x="828" d="M406 -12 C632 -12 768 137 768 353 C768 559 648 717 420 717 C203 717 60 576 60 355 C60 139 186 -12 406 -12 L406 -12 Z M409 56 C231 56 142 195 142 356 C142 522 234 649 416 649 C589 649 685 522 685 354 C685 186 597 56 409 56 L409 56 Z M455 861 L410 921 L233 788 L269 739 L455 861 Z M691 802 L668 873 L458 798 L476 742 L691 802 Z " />
<glyph glyph-name="ohungarumlaut" unicode="&#x151;" horiz-adv-x="598" d="M155 613 L347 742 L304 802 L121 661 L155 613 Z M380 617 L580 737 L539 798 L349 666 L380 617 Z M296 -12 C439 -12 545 79 545 276 C545 456 462 560 307 560 C155 560 53 456 53 267 C53 88 146 -12 296 -12 L296 -12 Z M301 53 C173 53 133 159 133 271 C133 375 167 495 301 495 C435 495 465 374 465 271 C465 164 433 53 301 53 L301 53 Z " />
<glyph glyph-name="OE" unicode="&#x152;" horiz-adv-x="1099" d="M406 -12 C512 -12 565 16 621 53 L621 0 L1042 0 L1042 68 L705 68 L705 321 L995 321 L995 389 L705 389 L705 640 L1017 640 L1017 707 L621 707 L621 661 C570 696 504 718 425 718 C207 718 60 580 60 355 C60 139 186 -12 406 -12 L406 -12 Z M409 59 C232 59 145 197 145 356 C145 520 236 646 416 646 C507 646 577 612 621 554 L621 151 C577 94 506 59 409 59 L409 59 Z " />
<glyph glyph-name="oe" unicode="&#x153;" horiz-adv-x="957" d="M296 -12 C385 -12 458 25 500 101 C540 19 618 -11 723 -11 C812 -11 877 7 895 14 L881 79 C857 71 784 56 745 56 C629 56 548 86 544 258 L905 258 L905 287 C905 468 844 560 709 560 C621 560 546 527 505 444 C469 519 401 560 303 560 C158 560 53 456 53 267 C53 88 145 -12 296 -12 L296 -12 Z M302 53 C173 53 133 158 133 272 C133 375 168 495 300 495 C435 495 465 374 465 273 C465 164 433 53 302 53 L302 53 Z M545 317 C555 439 614 501 696 501 C781 501 822 428 822 317 L545 317 Z " />
<glyph glyph-name="Racute" unicode="&#x154;" horiz-adv-x="691" d="M234 747 L458 816 L437 883 L218 799 L234 747 Z M105 0 L188 0 L188 281 L284 281 C305 281 333 283 351 286 L548 0 L649 0 L432 306 C526 342 565 417 565 500 C565 643 471 707 336 707 L105 707 L105 0 Z M188 350 L188 640 L314 640 C422 640 478 602 478 494 C478 383 400 350 290 350 L188 350 Z " />
<glyph glyph-name="racute" unicode="&#x155;" horiz-adv-x="387" d="M173 618 L368 739 L333 795 L145 667 L173 618 Z M84 0 L163 0 L163 402 C189 442 239 489 305 489 C337 489 353 486 370 482 L383 549 C373 552 351 558 319 558 C242 558 188 514 163 473 L163 546 L84 546 L84 0 Z " />
<glyph glyph-name="Rcommaaccent" unicode="&#x156;" horiz-adv-x="691" d="M404 -58 L327 -58 L306 -261 L365 -261 L404 -58 Z M105 0 L188 0 L188 281 L284 281 C305 281 333 283 351 286 L548 0 L649 0 L432 306 C526 342 565 417 565 500 C565 643 471 707 336 707 L105 707 L105 0 Z M188 350 L188 640 L314 640 C422 640 478 602 478 494 C478 383 400 350 290 350 L188 350 Z " />
<glyph glyph-name="rcommaaccent" unicode="&#x157;" horiz-adv-x="387" d="M166 -58 L89 -58 L68 -261 L127 -261 L166 -58 Z M84 0 L163 0 L163 402 C189 442 239 489 305 489 C337 489 353 486 370 482 L383 549 C373 552 351 558 319 558 C242 558 188 514 163 473 L163 546 L84 546 L84 0 Z " />
<glyph glyph-name="Rcaron" unicode="&#x158;" horiz-adv-x="691" d="M452 820 L424 875 L293 818 L165 876 L138 820 L293 746 L452 820 Z M105 0 L188 0 L188 281 L284 281 C305 281 333 283 351 286 L548 0 L649 0 L432 306 C526 342 565 417 565 500 C565 643 471 707 336 707 L105 707 L105 0 Z M188 350 L188 640 L314 640 C422 640 478 602 478 494 C478 383 400 350 290 350 L188 350 Z " />
<glyph glyph-name="rcaron" unicode="&#x159;" horiz-adv-x="387" d="M219 624 L384 736 L352 783 L220 697 L90 782 L58 735 L219 624 Z M84 0 L163 0 L163 402 C189 442 239 489 305 489 C337 489 353 486 370 482 L383 549 C373 552 351 558 319 558 C242 558 188 514 163 473 L163 546 L84 546 L84 0 Z " />
<glyph glyph-name="Sacute" unicode="&#x15a;" horiz-adv-x="542" d="M246 -12 C382 -12 496 52 496 187 C496 411 145 385 145 544 C145 616 206 648 279 648 C335 648 380 635 426 614 L451 678 C408 701 357 717 277 717 C164 717 66 656 66 542 C66 310 413 358 413 181 C413 90 325 60 247 60 C180 60 127 79 75 105 L49 37 C90 12 158 -12 246 -12 L246 -12 Z M200 747 L424 816 L403 883 L184 799 L200 747 Z " />
<glyph glyph-name="sacute" unicode="&#x15b;" horiz-adv-x="448" d="M163 618 L358 739 L323 795 L135 667 L163 618 Z M195 -12 C292 -12 407 28 407 145 C407 326 134 289 134 414 C134 459 166 494 241 494 C281 494 326 485 361 471 L379 534 C340 551 285 560 242 560 C140 560 57 507 57 407 C57 227 332 262 332 140 C332 86 281 55 201 55 C154 55 103 65 55 79 L42 12 C82 -1 144 -12 195 -12 L195 -12 Z " />
<glyph glyph-name="Scircumflex" unicode="&#x15c;" horiz-adv-x="542" d="M246 -12 C382 -12 496 52 496 187 C496 411 145 385 145 544 C145 616 206 648 279 648 C335 648 380 635 426 614 L451 678 C408 701 357 717 277 717 C164 717 66 656 66 542 C66 310 413 358 413 181 C413 90 325 60 247 60 C180 60 127 79 75 105 L49 37 C90 12 158 -12 246 -12 L246 -12 Z M156 750 L285 808 L408 751 L437 806 L285 880 L128 804 L156 750 Z " />
<glyph glyph-name="scircumflex" unicode="&#x15d;" horiz-adv-x="448" d="M340 629 L375 676 L223 787 L57 674 L91 628 L220 712 L340 629 Z M195 -12 C292 -12 407 28 407 145 C407 326 134 289 134 414 C134 459 166 494 241 494 C281 494 326 485 361 471 L379 534 C340 551 285 560 242 560 C140 560 57 507 57 407 C57 227 332 262 332 140 C332 86 281 55 201 55 C154 55 103 65 55 79 L42 12 C82 -1 144 -12 195 -12 L195 -12 Z " />
<glyph glyph-name="Scedilla" unicode="&#x15e;" horiz-adv-x="542" d="M246 -12 C382 -12 496 52 496 187 C496 411 145 385 145 544 C145 616 206 648 279 648 C335 648 380 635 426 614 L451 678 C408 701 357 717 277 717 C164 717 66 656 66 542 C66 310 413 358 413 181 C413 90 325 60 247 60 C180 60 127 79 75 105 L49 37 C90 12 158 -12 246 -12 L246 -12 Z M211 -240 C289 -207 318 -162 317 -118 C317 -95 308 -71 297 -51 L220 -51 C233 -75 244 -97 244 -118 C244 -144 227 -169 185 -195 L211 -240 Z " />
<glyph glyph-name="scedilla" unicode="&#x15f;" horiz-adv-x="448" d="M195 -12 C292 -12 407 28 407 145 C407 326 134 289 134 414 C134 459 166 494 241 494 C281 494 326 485 361 471 L379 534 C340 551 285 560 242 560 C140 560 57 507 57 407 C57 227 332 262 332 140 C332 86 281 55 201 55 C154 55 103 65 55 79 L42 12 C82 -1 144 -12 195 -12 L195 -12 Z M180 -240 C258 -207 287 -162 286 -118 C286 -95 277 -71 266 -51 L189 -51 C202 -75 213 -97 213 -118 C213 -144 196 -169 154 -195 L180 -240 Z " />
<glyph glyph-name="Scaron" unicode="&#x160;" horiz-adv-x="542" d="M429 820 L401 875 L270 818 L142 876 L115 820 L270 746 L429 820 Z M246 -12 C382 -12 496 52 496 187 C496 411 145 385 145 544 C145 616 206 648 279 648 C335 648 380 635 426 614 L451 678 C408 701 357 717 277 717 C164 717 66 656 66 542 C66 310 413 358 413 181 C413 90 325 60 247 60 C180 60 127 79 75 105 L49 37 C90 12 158 -12 246 -12 L246 -12 Z " />
<glyph glyph-name="scaron" unicode="&#x161;" horiz-adv-x="448" d="M221 624 L386 736 L354 783 L222 697 L92 782 L60 735 L221 624 Z M195 -12 C292 -12 407 28 407 145 C407 326 134 289 134 414 C134 459 166 494 241 494 C281 494 326 485 361 471 L379 534 C340 551 285 560 242 560 C140 560 57 507 57 407 C57 227 332 262 332 140 C332 86 281 55 201 55 C154 55 103 65 55 79 L42 12 C82 -1 144 -12 195 -12 L195 -12 Z " />
<glyph glyph-name="Tcommaaccent" unicode="&#x162;" horiz-adv-x="584" d="M336 -58 L259 -58 L238 -261 L297 -261 L336 -58 Z M251 0 L333 0 L333 637 L575 637 L575 707 L9 707 L9 637 L251 637 L251 0 Z " />
<glyph glyph-name="tcommaaccent" unicode="&#x163;" horiz-adv-x="398" d="M294 -58 L217 -58 L196 -261 L255 -261 L294 -58 Z M270 -12 C307 -12 358 -2 386 8 L372 73 C349 65 310 57 280 57 C217 57 182 78 182 155 L182 479 L352 479 L352 546 L181 546 L181 658 L104 658 L104 546 L24 546 L24 479 L104 479 L104 152 C104 23 168 -12 270 -12 L270 -12 Z " />
<glyph glyph-name="Tcaron" unicode="&#x164;" horiz-adv-x="584" d="M446 820 L418 875 L287 818 L159 876 L132 820 L287 746 L446 820 Z M251 0 L333 0 L333 637 L575 637 L575 707 L9 707 L9 637 L251 637 L251 0 Z " />
<glyph glyph-name="tcaron" unicode="&#x165;" horiz-adv-x="398" d="M349 814 L272 814 L251 611 L309 611 L349 814 Z M270 -12 C307 -12 358 -2 386 8 L372 73 C349 65 310 57 280 57 C217 57 182 78 182 155 L182 479 L352 479 L352 546 L181 546 L181 658 L104 658 L104 546 L24 546 L24 479 L104 479 L104 152 C104 23 168 -12 270 -12 L270 -12 Z " />
<glyph glyph-name="Tbar" unicode="&#x166;" horiz-adv-x="584" d="M105 342 L251 342 L251 0 L333 0 L333 342 L480 342 L480 397 L333 397 L333 637 L575 637 L575 707 L9 707 L9 637 L251 637 L251 397 L105 397 L105 342 Z " />
<glyph glyph-name="tbar" unicode="&#x167;" horiz-adv-x="398" d="M32 295 L104 295 L104 152 C104 23 168 -12 270 -12 C307 -12 358 -2 386 8 L372 73 C349 65 310 57 280 57 C217 57 182 78 182 155 L182 295 L319 295 L319 345 L182 345 L182 479 L352 479 L352 546 L181 546 L181 658 L104 658 L104 546 L24 546 L24 479 L104 479 L104 345 L32 345 L32 295 Z " />
<glyph glyph-name="Utilde" unicode="&#x168;" horiz-adv-x="758" d="M439 754 C488 754 519 783 534 803 L503 847 C486 831 473 821 439 821 C405 821 370 858 319 858 C277 858 237 829 219 812 L250 767 C273 784 295 791 319 791 C357 791 398 754 439 754 L439 754 Z M379 -12 C506 -12 662 46 662 273 L662 707 L581 707 L581 276 C581 108 489 59 379 59 C279 59 179 98 179 253 L179 707 L96 707 L96 246 C96 41 242 -12 379 -12 L379 -12 Z " />
<glyph glyph-name="utilde" unicode="&#x169;" horiz-adv-x="599" d="M241 -12 C333 -12 387 27 439 64 L439 0 L515 0 L515 546 L439 546 L439 128 C397 98 333 60 263 60 C165 60 158 128 158 214 L158 546 L80 546 L80 198 C80 106 91 -12 241 -12 L241 -12 Z M357 645 C416 645 452 684 462 695 L431 739 C418 729 395 711 361 711 C322 711 291 748 238 748 C177 748 143 713 133 703 L164 657 C187 675 202 682 233 682 C276 682 310 645 357 645 L357 645 Z " />
<glyph glyph-name="Umacron" unicode="&#x16a;" horiz-adv-x="758" d="M241 785 L508 785 L508 850 L241 850 L241 785 Z M379 -12 C506 -12 662 46 662 273 L662 707 L581 707 L581 276 C581 108 489 59 379 59 C279 59 179 98 179 253 L179 707 L96 707 L96 246 C96 41 242 -12 379 -12 L379 -12 Z " />
<glyph glyph-name="umacron" unicode="&#x16b;" horiz-adv-x="599" d="M166 669 L433 669 L433 734 L166 734 L166 669 Z M241 -12 C333 -12 387 27 439 64 L439 0 L515 0 L515 546 L439 546 L439 128 C397 98 333 60 263 60 C165 60 158 128 158 214 L158 546 L80 546 L80 198 C80 106 91 -12 241 -12 L241 -12 Z " />
<glyph glyph-name="Ubreve" unicode="&#x16c;" horiz-adv-x="758" d="M380 753 C464 753 512 804 532 840 L491 876 C470 844 435 817 383 817 C339 817 302 841 274 877 L230 838 C253 797 303 753 380 753 L380 753 Z M379 -12 C506 -12 662 46 662 273 L662 707 L581 707 L581 276 C581 108 489 59 379 59 C279 59 179 98 179 253 L179 707 L96 707 L96 246 C96 41 242 -12 379 -12 L379 -12 Z " />
<glyph glyph-name="ubreve" unicode="&#x16d;" horiz-adv-x="599" d="M241 -12 C333 -12 387 27 439 64 L439 0 L515 0 L515 546 L439 546 L439 128 C397 98 333 60 263 60 C165 60 158 128 158 214 L158 546 L80 546 L80 198 C80 106 91 -12 241 -12 L241 -12 Z M298 645 C381 645 429 696 450 732 L409 767 C388 736 353 709 301 709 C257 709 220 733 192 768 L148 730 C170 689 220 645 298 645 L298 645 Z " />
<glyph glyph-name="Uring" unicode="&#x16e;" horiz-adv-x="758" d="M380 707 C433 707 476 739 476 797 C476 863 421 886 378 886 C328 886 281 855 281 795 C281 732 329 707 380 707 L380 707 Z M379 744 C347 744 324 766 324 798 C324 830 346 848 378 848 C407 848 432 827 432 796 C432 764 412 744 379 744 L379 744 Z M379 -12 C506 -12 662 46 662 273 L662 707 L581 707 L581 276 C581 108 489 59 379 59 C279 59 179 98 179 253 L179 707 L96 707 L96 246 C96 41 242 -12 379 -12 L379 -12 Z " />
<glyph glyph-name="uring" unicode="&#x16f;" horiz-adv-x="599" d="M300 614 C360 614 408 649 408 714 C408 789 346 814 298 814 C242 814 189 779 189 712 C189 642 244 614 300 614 L300 614 Z M299 655 C263 655 238 679 238 715 C238 751 261 771 298 771 C331 771 359 749 359 713 C358 677 336 655 299 655 L299 655 Z M241 -12 C333 -12 387 27 439 64 L439 0 L515 0 L515 546 L439 546 L439 128 C397 98 333 60 263 60 C165 60 158 128 158 214 L158 546 L80 546 L80 198 C80 106 91 -12 241 -12 L241 -12 Z " />
<glyph glyph-name="Uhungarumlaut" unicode="&#x170;" horiz-adv-x="758" d="M379 -12 C506 -12 662 46 662 273 L662 707 L581 707 L581 276 C581 108 489 59 379 59 C279 59 179 98 179 253 L179 707 L96 707 L96 246 C96 41 242 -12 379 -12 L379 -12 Z M408 861 L363 921 L186 788 L222 739 L408 861 Z M644 802 L621 873 L411 798 L429 742 L644 802 Z " />
<glyph glyph-name="uhungarumlaut" unicode="&#x171;" horiz-adv-x="599" d="M241 -12 C333 -12 387 27 439 64 L439 0 L515 0 L515 546 L439 546 L439 128 C397 98 333 60 263 60 C165 60 158 128 158 214 L158 546 L80 546 L80 198 C80 106 91 -12 241 -12 L241 -12 Z M160 613 L352 742 L309 802 L126 661 L160 613 Z M385 617 L585 737 L544 798 L354 666 L385 617 Z " />
<glyph glyph-name="Uogonek" unicode="&#x172;" horiz-adv-x="758" d="M487 -210 L470 -156 C458 -162 442 -168 422 -168 C387 -168 362 -151 362 -113 C362 -71 405 -32 451 -5 C558 15 662 87 662 273 L662 707 L581 707 L581 276 C581 108 489 59 379 59 C279 59 179 98 179 253 L179 707 L96 707 L96 246 C96 53 224 -5 353 -11 C316 -43 289 -82 289 -123 C289 -180 322 -230 405 -230 C445 -230 473 -219 487 -210 L487 -210 Z " />
<glyph glyph-name="uogonek" unicode="&#x173;" horiz-adv-x="599" d="M520 -155 C506 -161 491 -165 468 -165 C437 -165 410 -154 410 -116 C410 -73 477 -23 515 0 L515 546 L439 546 L439 128 C414 113 333 60 264 60 C164 60 158 127 158 213 L158 546 L80 546 L80 197 C80 104 91 -12 244 -12 C331 -12 396 37 439 64 L439 10 C393 -20 336 -70 336 -125 C336 -182 363 -229 454 -229 C500 -229 517 -221 537 -211 L520 -155 Z " />
<glyph glyph-name="Wcircumflex" unicode="&#x174;" horiz-adv-x="1037" d="M397 750 L526 808 L649 751 L678 806 L526 880 L369 804 L397 750 Z M1022 707 L940 707 L732 50 L566 707 L482 707 L294 50 L119 707 L33 707 L229 0 L350 0 L520 598 L670 0 L790 0 L1022 707 Z " />
<glyph glyph-name="wcircumflex" unicode="&#x175;" horiz-adv-x="877" d="M562 629 L597 676 L445 787 L279 674 L313 628 L442 712 L562 629 Z M190 0 L297 0 L423 400 L442 474 L459 399 L569 0 L675 0 L863 546 L784 546 L624 57 L494 546 L393 546 L245 57 L104 546 L21 546 L190 0 Z " />
<glyph glyph-name="Ycircumflex" unicode="&#x176;" horiz-adv-x="602" d="M258 0 L340 0 L340 268 L586 707 L498 707 L302 341 L120 707 L27 707 L258 268 L258 0 Z M178 750 L307 808 L430 751 L459 806 L307 880 L150 804 L178 750 Z " />
<glyph glyph-name="ycircumflex" unicode="&#x177;" horiz-adv-x="511" d="M376 629 L411 676 L259 787 L93 674 L127 628 L256 712 L376 629 Z M156 -220 L232 -220 L499 546 L418 546 L284 154 L252 58 L221 156 L103 546 L17 546 L193 0 L230 0 L156 -220 Z " />
<glyph glyph-name="Ydieresis" unicode="&#x178;" horiz-adv-x="602" d="M258 0 L340 0 L340 268 L586 707 L498 707 L302 341 L120 707 L27 707 L258 268 L258 0 Z M240 758 L240 851 L163 851 L163 758 L240 758 Z M435 758 L435 851 L357 851 L357 758 L435 758 Z " />
<glyph glyph-name="Zacute" unicode="&#x179;" horiz-adv-x="570" d="M217 747 L441 816 L420 883 L201 799 L217 747 Z M42 0 L529 0 L529 71 L129 71 L508 642 L508 707 L68 707 L68 636 L416 636 L42 71 L42 0 Z " />
<glyph glyph-name="zacute" unicode="&#x17a;" horiz-adv-x="500" d="M196 618 L391 739 L356 795 L168 667 L196 618 Z M37 0 L454 0 L454 69 L125 69 L450 482 L450 546 L63 546 L63 477 L360 477 L37 68 L37 0 Z " />
<glyph glyph-name="Zdotaccent" unicode="&#x17b;" horiz-adv-x="570" d="M331 778 L331 871 L254 871 L254 778 L331 778 Z M42 0 L529 0 L529 71 L129 71 L508 642 L508 707 L68 707 L68 636 L416 636 L42 71 L42 0 Z " />
<glyph glyph-name="zdotaccent" unicode="&#x17c;" horiz-adv-x="500" d="M37 0 L454 0 L454 69 L125 69 L450 482 L450 546 L63 546 L63 477 L360 477 L37 68 L37 0 Z M297 669 L297 762 L220 762 L220 669 L297 669 Z " />
<glyph glyph-name="Zcaron" unicode="&#x17d;" horiz-adv-x="570" d="M442 820 L414 875 L283 818 L155 876 L128 820 L283 746 L442 820 Z M42 0 L529 0 L529 71 L129 71 L508 642 L508 707 L68 707 L68 636 L416 636 L42 71 L42 0 Z " />
<glyph glyph-name="zcaron" unicode="&#x17e;" horiz-adv-x="500" d="M245 624 L410 736 L378 783 L246 697 L116 782 L84 735 L245 624 Z M37 0 L454 0 L454 69 L125 69 L450 482 L450 546 L63 546 L63 477 L360 477 L37 68 L37 0 Z " />
<glyph glyph-name="uni018E" unicode="&#x18e;" horiz-adv-x="572" d="M466 707 L70 707 L70 640 L384 640 L384 389 L96 389 L96 321 L384 321 L384 68 L69 68 L69 0 L466 0 L466 707 Z " />
<glyph glyph-name="uni018F" unicode="&#x18f;" horiz-adv-x="767" d="M371 -12 C596 -12 706 137 706 353 C706 559 603 717 380 717 C257 717 152 678 89 643 L116 582 C164 607 259 649 367 649 C529 649 611 538 621 388 L53 388 L53 332 C60 128 159 -12 371 -12 L371 -12 Z M374 56 C208 56 145 177 136 324 L621 324 C613 171 550 56 374 56 L374 56 Z " />
<glyph glyph-name="florin" unicode="&#x192;" horiz-adv-x="597" d="M104 -227 C232 -227 348 -205 358 -29 L373 252 L488 252 L488 323 L378 323 L388 505 C394 636 477 630 568 638 L564 710 C437 710 318 684 308 509 L298 323 L191 323 L191 252 L294 252 L279 -26 C273 -158 193 -150 101 -159 L104 -227 Z " />
<glyph glyph-name="Ohorn" unicode="&#x1a0;" horiz-adv-x="849" d="M406 -12 C632 -12 768 137 768 353 C768 449 742 535 690 599 C744 630 780 686 780 755 C780 773 776 806 768 825 L693 825 C698 808 703 780 703 764 C703 716 682 673 636 652 C581 693 508 717 420 717 C203 717 60 576 60 355 C60 139 186 -12 406 -12 L406 -12 Z M409 56 C231 56 142 195 142 356 C142 522 234 649 416 649 C589 649 685 522 685 354 C685 186 597 56 409 56 L409 56 Z " />
<glyph glyph-name="ohorn" unicode="&#x1a1;" horiz-adv-x="612" d="M296 -12 C439 -12 545 79 545 276 C545 355 528 420 497 468 C545 490 574 539 574 589 C574 606 571 627 563 646 L491 646 C496 629 500 612 500 597 C500 560 486 531 444 522 C408 547 362 560 307 560 C155 560 53 456 53 267 C53 88 146 -12 296 -12 L296 -12 Z M301 53 C173 53 133 159 133 271 C133 375 167 495 301 495 C435 495 465 374 465 271 C465 164 433 53 301 53 L301 53 Z " />
<glyph glyph-name="Uhorn" unicode="&#x1af;" horiz-adv-x="789" d="M379 -12 C506 -12 662 46 662 273 L662 647 C726 659 765 706 765 773 C765 791 762 816 754 835 L684 835 C689 818 693 797 693 781 C693 735 672 710 615 707 L581 707 L581 276 C581 108 489 59 379 59 C279 59 179 98 179 253 L179 707 L96 707 L96 246 C96 41 242 -12 379 -12 L379 -12 Z " />
<glyph glyph-name="uhorn" unicode="&#x1b0;" horiz-adv-x="620" d="M241 -12 C333 -12 387 27 439 64 L439 0 L515 0 L515 485 C579 497 618 542 618 607 C618 624 615 645 607 664 L536 664 C541 647 546 630 546 615 C546 572 531 551 481 546 L439 546 L439 128 C397 98 333 60 263 60 C165 60 158 128 158 214 L158 546 L80 546 L80 198 C80 106 91 -12 241 -12 L241 -12 Z " />
<glyph glyph-name="uni01C4" unicode="&#x1c4;" horiz-adv-x="1304" d="M1177 820 L1149 875 L1018 818 L890 876 L863 820 L1018 746 L1177 820 Z M775 0 L1262 0 L1262 71 L862 71 L1241 642 L1241 707 L801 707 L801 636 L1149 636 L775 71 L775 0 Z M106 0 L303 0 C539 0 692 108 692 356 C692 600 525 707 297 707 L106 707 L106 0 Z M188 68 L188 639 L294 639 C482 639 607 545 607 345 C607 161 497 68 314 68 L188 68 Z " />
<glyph glyph-name="uni01C5" unicode="&#x1c5;" horiz-adv-x="1248" d="M1007 623 L1172 735 L1140 782 L1008 696 L878 781 L846 734 L1007 623 Z M784 0 L1201 0 L1201 69 L872 69 L1197 482 L1197 546 L810 546 L810 477 L1107 477 L784 68 L784 0 Z M106 0 L303 0 C539 0 692 108 692 356 C692 600 525 707 297 707 L106 707 L106 0 Z M188 68 L188 639 L294 639 C482 639 607 545 607 345 C607 161 497 68 314 68 L188 68 Z " />
<glyph glyph-name="uni01C6" unicode="&#x1c6;" horiz-adv-x="1094" d="M854 624 L1019 736 L987 783 L855 697 L725 782 L693 735 L854 624 Z M631 0 L1048 0 L1048 69 L719 69 L1044 482 L1044 546 L657 546 L657 477 L954 477 L631 68 L631 0 Z M272 -10 C341 -10 381 17 420 52 L420 0 L499 0 L499 754 L420 754 L420 546 C384 556 357 560 324 560 C166 560 53 469 53 261 C53 35 186 -10 272 -10 L272 -10 Z M282 57 C199 57 133 121 133 266 C133 383 176 495 319 495 C367 495 405 484 420 478 L420 118 C395 96 344 57 282 57 L282 57 Z " />
<glyph glyph-name="uni01C7" unicode="&#x1c7;" horiz-adv-x="797" d="M500 -187 C666 -113 693 1 693 153 L693 707 L610 707 L610 151 C610 21 586 -60 465 -127 L500 -187 Z M106 0 L495 0 L495 71 L188 71 L188 707 L106 707 L106 0 Z " />
<glyph glyph-name="uni01C8" unicode="&#x1c8;" horiz-adv-x="758" d="M488 -224 C591 -224 672 -179 672 -19 L672 546 L592 546 L592 -18 C592 -101 570 -156 489 -156 C472 -156 446 -152 432 -148 L418 -212 C433 -218 459 -224 488 -224 L488 -224 Z M106 0 L495 0 L495 71 L188 71 L188 707 L106 707 L106 0 Z M670 669 L670 762 L593 762 L593 669 L670 669 Z " />
<glyph glyph-name="uni01C9" unicode="&#x1c9;" horiz-adv-x="523" d="M254 -224 C357 -224 438 -179 438 -19 L438 546 L358 546 L358 -18 C358 -101 336 -156 255 -156 C238 -156 212 -152 198 -148 L184 -212 C199 -218 225 -224 254 -224 L254 -224 Z M84 0 L163 0 L163 754 L84 754 L84 0 Z M436 669 L436 762 L359 762 L359 669 L436 669 Z " />
<glyph glyph-name="uni01CA" unicode="&#x1ca;" horiz-adv-x="1075" d="M777 -187 C943 -113 970 1 970 153 L970 707 L887 707 L887 151 C887 21 863 -60 742 -127 L777 -187 Z M106 0 L188 0 L188 532 L184 605 L187 605 L554 0 L664 0 L664 707 L581 707 L581 182 L585 93 L583 93 L211 707 L106 707 L106 0 Z " />
<glyph glyph-name="uni01CB" unicode="&#x1cb;" horiz-adv-x="1034" d="M765 -224 C868 -224 949 -179 949 -19 L949 546 L869 546 L869 -18 C869 -101 847 -156 766 -156 C749 -156 723 -152 709 -148 L695 -212 C710 -218 736 -224 765 -224 L765 -224 Z M947 669 L947 762 L870 762 L870 669 L947 669 Z M106 0 L188 0 L188 532 L184 605 L187 605 L554 0 L664 0 L664 707 L581 707 L581 182 L585 93 L583 93 L211 707 L106 707 L106 0 Z " />
<glyph glyph-name="uni01CC" unicode="&#x1cc;" horiz-adv-x="876" d="M607 -224 C710 -224 791 -179 791 -19 L791 546 L711 546 L711 -18 C711 -101 689 -156 608 -156 C591 -156 565 -152 551 -148 L537 -212 C552 -218 578 -224 607 -224 L607 -224 Z M789 669 L789 762 L712 762 L712 669 L789 669 Z M84 0 L163 0 L163 423 C212 457 268 490 338 490 C431 490 446 431 446 337 L446 0 L523 0 L523 352 C523 444 513 560 358 560 C273 560 220 526 163 484 L163 546 L84 546 L84 0 Z " />
<glyph glyph-name="uni01CD" unicode="&#x1cd;" horiz-adv-x="671" d="M0 0 L87 0 L192 264 L471 264 L565 0 L654 0 L397 707 L290 707 L0 0 Z M217 330 L339 649 L449 330 L217 330 Z M497 820 L469 875 L338 818 L210 876 L183 820 L338 746 L497 820 Z " />
<glyph glyph-name="uni01CE" unicode="&#x1ce;" horiz-adv-x="552" d="M206 -9 C300 -9 361 42 388 63 C395 14 445 -6 493 -6 C500 -6 510 -5 515 -4 L518 57 C492 57 459 66 459 107 L459 409 C459 516 386 560 266 560 C192 560 131 544 89 526 L107 464 C152 481 196 491 255 491 C341 491 382 470 382 383 L382 313 L252 311 C163 309 43 281 43 145 C43 46 107 -9 206 -9 L206 -9 Z M224 55 C164 55 119 85 119 148 C119 212 166 250 251 253 L382 258 L382 116 C341 86 284 55 224 55 L224 55 Z M270 623 L435 735 L403 782 L271 696 L141 781 L109 734 L270 623 Z " />
<glyph glyph-name="uni01CF" unicode="&#x1cf;" horiz-adv-x="294" d="M106 0 L188 0 L188 707 L106 707 L106 0 Z M302 820 L274 875 L143 818 L15 876 L-12 820 L143 746 L302 820 Z " />
<glyph glyph-name="uni01D0" unicode="&#x1d0;" horiz-adv-x="249" d="M123 623 L288 735 L256 782 L124 696 L-6 781 L-38 734 L123 623 Z M84 0 L164 0 L164 546 L84 546 L84 0 Z " />
<glyph glyph-name="uni01D1" unicode="&#x1d1;" horiz-adv-x="828" d="M574 820 L546 875 L415 818 L287 876 L260 820 L415 746 L574 820 Z M406 -12 C632 -12 768 137 768 353 C768 559 648 717 420 717 C203 717 60 576 60 355 C60 139 186 -12 406 -12 L406 -12 Z M409 56 C231 56 142 195 142 356 C142 522 234 649 416 649 C589 649 685 522 685 354 C685 186 597 56 409 56 L409 56 Z " />
<glyph glyph-name="uni01D2" unicode="&#x1d2;" horiz-adv-x="598" d="M296 623 L461 735 L429 782 L297 696 L167 781 L135 734 L296 623 Z M296 -12 C439 -12 545 79 545 276 C545 456 462 560 307 560 C155 560 53 456 53 267 C53 88 146 -12 296 -12 L296 -12 Z M301 53 C173 53 133 159 133 271 C133 375 167 495 301 495 C435 495 465 374 465 271 C465 164 433 53 301 53 L301 53 Z " />
<glyph glyph-name="uni01D3" unicode="&#x1d3;" horiz-adv-x="758" d="M535 820 L507 875 L376 818 L248 876 L221 820 L376 746 L535 820 Z M379 -12 C506 -12 662 46 662 273 L662 707 L581 707 L581 276 C581 108 489 59 379 59 C279 59 179 98 179 253 L179 707 L96 707 L96 246 C96 41 242 -12 379 -12 L379 -12 Z " />
<glyph glyph-name="uni01D4" unicode="&#x1d4;" horiz-adv-x="599" d="M298 624 L463 736 L431 783 L299 697 L169 782 L137 735 L298 624 Z M241 -12 C333 -12 387 27 439 64 L439 0 L515 0 L515 546 L439 546 L439 128 C397 98 333 60 263 60 C165 60 158 128 158 214 L158 546 L80 546 L80 198 C80 106 91 -12 241 -12 L241 -12 Z " />
<glyph glyph-name="uni01D5" unicode="&#x1d5;" horiz-adv-x="758" d="M319 741 L319 834 L242 834 L242 741 L319 741 Z M514 741 L514 834 L436 834 L436 741 L514 741 Z M379 -12 C506 -12 662 46 662 273 L662 707 L581 707 L581 276 C581 108 489 59 379 59 C279 59 179 98 179 253 L179 707 L96 707 L96 246 C96 41 242 -12 379 -12 L379 -12 Z M227 874 L526 874 L526 939 L227 939 L227 874 Z " />
<glyph glyph-name="uni01D6" unicode="&#x1d6;" horiz-adv-x="599" d="M225 639 L225 732 L148 732 L148 639 L225 639 Z M444 639 L444 732 L366 732 L366 639 L444 639 Z M149 794 L448 794 L448 859 L149 859 L149 794 Z M241 -12 C333 -12 387 27 439 64 L439 0 L515 0 L515 546 L439 546 L439 128 C397 98 333 60 263 60 C165 60 158 128 158 214 L158 546 L80 546 L80 198 C80 106 91 -12 241 -12 L241 -12 Z " />
<glyph glyph-name="uni01D7" unicode="&#x1d7;" horiz-adv-x="758" d="M319 741 L319 834 L242 834 L242 741 L319 741 Z M514 741 L514 834 L436 834 L436 741 L514 741 Z M343 850 L567 919 L546 986 L327 902 L343 850 Z M379 -12 C506 -12 662 46 662 273 L662 707 L581 707 L581 276 C581 108 489 59 379 59 C279 59 179 98 179 253 L179 707 L96 707 L96 246 C96 41 242 -12 379 -12 L379 -12 Z " />
<glyph glyph-name="uni01D8" unicode="&#x1d8;" horiz-adv-x="599" d="M225 639 L225 732 L148 732 L148 639 L225 639 Z M444 639 L444 732 L366 732 L366 639 L444 639 Z M283 754 L478 875 L443 931 L255 803 L283 754 Z M241 -12 C333 -12 387 27 439 64 L439 0 L515 0 L515 546 L439 546 L439 128 C397 98 333 60 263 60 C165 60 158 128 158 214 L158 546 L80 546 L80 198 C80 106 91 -12 241 -12 L241 -12 Z " />
<glyph glyph-name="uni01D9" unicode="&#x1d9;" horiz-adv-x="758" d="M319 741 L319 834 L242 834 L242 741 L319 741 Z M514 741 L514 834 L436 834 L436 741 L514 741 Z M379 -12 C506 -12 662 46 662 273 L662 707 L581 707 L581 276 C581 108 489 59 379 59 C279 59 179 98 179 253 L179 707 L96 707 L96 246 C96 41 242 -12 379 -12 L379 -12 Z M537 925 L509 980 L378 923 L250 981 L223 925 L378 851 L537 925 Z " />
<glyph glyph-name="uni01DA" unicode="&#x1da;" horiz-adv-x="599" d="M225 639 L225 732 L148 732 L148 639 L225 639 Z M444 639 L444 732 L366 732 L366 639 L444 639 Z M241 -12 C333 -12 387 27 439 64 L439 0 L515 0 L515 546 L439 546 L439 128 C397 98 333 60 263 60 C165 60 158 128 158 214 L158 546 L80 546 L80 198 C80 106 91 -12 241 -12 L241 -12 Z M294 754 L457 855 L424 902 L296 828 L171 898 L139 851 L294 754 Z " />
<glyph glyph-name="uni01DB" unicode="&#x1db;" horiz-adv-x="758" d="M405 845 L423 898 L202 978 L181 910 L405 845 Z M319 741 L319 834 L242 834 L242 741 L319 741 Z M514 741 L514 834 L436 834 L436 741 L514 741 Z M379 -12 C506 -12 662 46 662 273 L662 707 L581 707 L581 276 C581 108 489 59 379 59 C279 59 179 98 179 253 L179 707 L96 707 L96 246 C96 41 242 -12 379 -12 L379 -12 Z " />
<glyph glyph-name="uni01DC" unicode="&#x1dc;" horiz-adv-x="599" d="M225 639 L225 732 L148 732 L148 639 L225 639 Z M444 639 L444 732 L366 732 L366 639 L444 639 Z M241 -12 C333 -12 387 27 439 64 L439 0 L515 0 L515 546 L439 546 L439 128 C397 98 333 60 263 60 C165 60 158 128 158 214 L158 546 L80 546 L80 198 C80 106 91 -12 241 -12 L241 -12 Z M318 740 L349 790 L160 920 L125 860 L318 740 Z " />
<glyph glyph-name="uni01DD" unicode="&#x1dd;" horiz-adv-x="546" d="M234 560 C145 560 80 540 61 533 L75 469 C100 476 171 492 210 492 C324 492 409 464 412 289 L52 289 L52 261 C52 80 113 -12 248 -12 C386 -12 492 64 492 284 C492 494 393 560 234 560 L234 560 Z M411 231 C402 109 343 47 260 47 C174 47 134 120 134 231 L411 231 Z " />
<glyph glyph-name="uni01E2" unicode="&#x1e2;" horiz-adv-x="913" d="M445 785 L712 785 L712 850 L445 850 L445 785 Z M-14 0 L79 0 L240 311 L437 311 L437 0 L857 0 L857 68 L519 68 L519 321 L811 321 L811 389 L519 389 L519 640 L833 640 L833 707 L362 707 L-14 0 Z M273 378 L409 640 L437 640 L437 378 L273 378 Z " />
<glyph glyph-name="uni01E3" unicode="&#x1e3;" horiz-adv-x="869" d="M297 669 L564 669 L564 734 L297 734 L297 669 Z M637 -9 C717 -9 777 3 808 15 L795 78 C772 73 700 59 661 59 C545 59 460 84 457 255 L817 269 L817 298 C817 469 752 559 623 559 C548 559 485 536 441 481 C410 545 342 559 265 559 C184 559 115 537 90 527 L107 467 C129 472 192 491 242 491 C339 491 381 478 381 387 L381 312 C375 312 252 309 252 309 C163 307 43 279 43 146 C43 46 101 -8 198 -8 C298 -8 387 64 417 86 C461 19 535 -9 637 -9 L637 -9 Z M217 57 C160 57 118 76 118 154 C118 205 158 248 253 250 L379 254 C381 209 387 162 397 130 C359 106 264 57 217 57 L217 57 Z M460 316 C467 448 537 500 611 500 C691 500 735 431 735 329 L460 316 Z " />
<glyph glyph-name="uni01E6" unicode="&#x1e6;" horiz-adv-x="711" d="M561 820 L533 875 L402 818 L274 876 L247 820 L402 746 L561 820 Z M432 -12 C516 -12 581 3 639 23 L639 348 L557 348 L557 76 C531 68 496 61 443 61 C282 61 146 148 146 359 C146 565 277 645 424 645 C510 645 558 628 603 612 L626 679 C582 699 530 717 422 717 C191 717 60 572 60 349 C60 128 199 -12 432 -12 L432 -12 Z " />
<glyph glyph-name="uni01E7" unicode="&#x1e7;" horiz-adv-x="586" d="M265 195 C385 195 474 265 474 375 C474 420 459 451 454 459 L553 459 L553 525 L398 522 C388 530 346 559 267 559 C128 559 63 470 63 371 C63 308 88 265 126 236 C94 205 80 168 80 136 C80 108 91 82 115 66 C63 28 34 -21 34 -79 C34 -169 106 -230 242 -230 C418 -230 516 -128 516 -26 C516 55 457 116 311 116 L187 116 C164 116 147 133 147 158 C147 171 152 191 167 213 C197 200 231 195 265 195 L265 195 Z M307 48 C412 48 442 8 442 -34 C442 -100 372 -165 253 -165 C156 -165 103 -125 103 -61 C103 -23 123 16 165 49 C170 48 176 48 183 48 L307 48 Z M267 252 C193 252 139 296 139 376 C139 452 188 503 268 503 C350 503 397 447 397 376 C397 300 345 252 267 252 L267 252 Z M270 623 L435 735 L403 782 L271 696 L141 781 L109 734 L270 623 Z " />
<glyph glyph-name="uni01E8" unicode="&#x1e8;" horiz-adv-x="628" d="M510 0 L618 0 L305 380 L598 707 L494 707 L214 385 L214 370 L510 0 Z M106 0 L188 0 L188 707 L106 707 L106 0 Z M487 820 L459 875 L328 818 L200 876 L173 820 L328 746 L487 820 Z " />
<glyph glyph-name="uni01E9" unicode="&#x1e9;" horiz-adv-x="537" d="M410 0 L508 0 L274 291 L506 546 L415 546 L185 289 L410 0 Z M84 0 L163 0 L163 754 L84 754 L84 0 Z M453 820 L425 875 L294 818 L166 876 L139 820 L294 746 L453 820 Z " />
<glyph glyph-name="uni01EA" unicode="&#x1ea;" horiz-adv-x="828" d="M501 -210 L484 -156 C472 -162 456 -168 436 -168 C401 -168 376 -151 376 -113 C376 -73 415 -36 458 -9 C653 12 768 154 768 353 C768 559 648 717 420 717 C203 717 60 576 60 355 C60 151 171 6 368 -10 C330 -42 303 -82 303 -123 C303 -180 336 -230 419 -230 C459 -230 487 -219 501 -210 L501 -210 Z M409 56 C231 56 142 195 142 356 C142 522 234 649 416 649 C589 649 685 522 685 354 C685 186 597 56 409 56 L409 56 Z " />
<glyph glyph-name="uni01EB" unicode="&#x1eb;" horiz-adv-x="598" d="M408 -210 L391 -156 C379 -162 363 -168 343 -168 C308 -168 283 -151 283 -113 C283 -68 333 -26 383 1 C480 32 545 121 545 276 C545 456 462 560 307 560 C155 560 53 456 53 267 C53 97 137 -2 274 -11 C237 -43 210 -82 210 -123 C210 -180 243 -230 326 -230 C366 -230 394 -219 408 -210 L408 -210 Z M301 53 C173 53 133 159 133 271 C133 375 167 495 301 495 C435 495 465 374 465 271 C465 164 433 53 301 53 L301 53 Z " />
<glyph glyph-name="uni01EC" unicode="&#x1ec;" horiz-adv-x="828" d="M501 -210 L484 -156 C472 -162 456 -168 436 -168 C401 -168 376 -151 376 -113 C376 -73 415 -36 458 -9 C653 12 768 154 768 353 C768 559 648 717 420 717 C203 717 60 576 60 355 C60 151 171 6 368 -10 C330 -42 303 -82 303 -123 C303 -180 336 -230 419 -230 C459 -230 487 -219 501 -210 L501 -210 Z M409 56 C231 56 142 195 142 356 C142 522 234 649 416 649 C589 649 685 522 685 354 C685 186 597 56 409 56 L409 56 Z M276 785 L543 785 L543 850 L276 850 L276 785 Z " />
<glyph glyph-name="uni01ED" unicode="&#x1ed;" horiz-adv-x="598" d="M408 -210 L391 -156 C379 -162 363 -168 343 -168 C308 -168 283 -151 283 -113 C283 -68 333 -26 383 1 C480 32 545 121 545 276 C545 456 462 560 307 560 C155 560 53 456 53 267 C53 97 137 -2 274 -11 C237 -43 210 -82 210 -123 C210 -180 243 -230 326 -230 C366 -230 394 -219 408 -210 L408 -210 Z M301 53 C173 53 133 159 133 271 C133 375 167 495 301 495 C435 495 465 374 465 271 C465 164 433 53 301 53 L301 53 Z M164 668 L431 668 L431 733 L164 733 L164 668 Z " />
<glyph glyph-name="uni01EE" unicode="&#x1ee;" horiz-adv-x="539" d="M412 820 L384 875 L253 818 L125 876 L98 820 L253 746 L412 820 Z M164 398 L174 340 C186 341 197 341 209 340 C299 336 396 290 396 200 C396 92 309 56 229 56 C173 56 106 77 67 99 L43 34 C78 10 147 -12 237 -12 C365 -12 480 66 480 206 C480 317 371 388 249 402 L461 642 L461 707 L56 707 L56 636 L372 636 L164 398 Z " />
<glyph glyph-name="uni01EF" unicode="&#x1ef;" horiz-adv-x="473" d="M125 181 C223 174 344 131 344 31 C344 -88 207 -148 60 -165 L73 -229 C249 -214 426 -127 426 36 C426 148 320 222 203 237 L421 482 L421 546 L34 546 L34 477 L331 477 L125 243 L125 181 Z M219 623 L384 735 L352 782 L220 696 L90 781 L58 734 L219 623 Z " />
<glyph glyph-name="uni01F1" unicode="&#x1f1;" horiz-adv-x="1304" d="M775 0 L1262 0 L1262 71 L862 71 L1241 642 L1241 707 L801 707 L801 636 L1149 636 L775 71 L775 0 Z M106 0 L303 0 C539 0 692 108 692 356 C692 600 525 707 297 707 L106 707 L106 0 Z M188 68 L188 639 L294 639 C482 639 607 545 607 345 C607 161 497 68 314 68 L188 68 Z " />
<glyph glyph-name="uni01F2" unicode="&#x1f2;" horiz-adv-x="1248" d="M784 0 L1201 0 L1201 69 L872 69 L1197 482 L1197 546 L810 546 L810 477 L1107 477 L784 68 L784 0 Z M106 0 L303 0 C539 0 692 108 692 356 C692 600 525 707 297 707 L106 707 L106 0 Z M188 68 L188 639 L294 639 C482 639 607 545 607 345 C607 161 497 68 314 68 L188 68 Z " />
<glyph glyph-name="uni01F3" unicode="&#x1f3;" horiz-adv-x="1094" d="M631 0 L1048 0 L1048 69 L719 69 L1044 482 L1044 546 L657 546 L657 477 L954 477 L631 68 L631 0 Z M272 -10 C341 -10 381 17 420 52 L420 0 L499 0 L499 754 L420 754 L420 546 C384 556 357 560 324 560 C166 560 53 469 53 261 C53 35 186 -10 272 -10 L272 -10 Z M282 57 C199 57 133 121 133 266 C133 383 176 495 319 495 C367 495 405 484 420 478 L420 118 C395 96 344 57 282 57 L282 57 Z " />
<glyph glyph-name="uni01F4" unicode="&#x1f4;" horiz-adv-x="711" d="M332 747 L556 816 L535 883 L316 799 L332 747 Z M432 -12 C516 -12 581 3 639 23 L639 348 L557 348 L557 76 C531 68 496 61 443 61 C282 61 146 148 146 359 C146 565 277 645 424 645 C510 645 558 628 603 612 L626 679 C582 699 530 717 422 717 C191 717 60 572 60 349 C60 128 199 -12 432 -12 L432 -12 Z " />
<glyph glyph-name="uni01F5" unicode="&#x1f5;" horiz-adv-x="586" d="M265 195 C385 195 474 265 474 375 C474 420 459 451 454 459 L553 459 L553 525 L398 522 C388 530 346 559 267 559 C128 559 63 470 63 371 C63 308 88 265 126 236 C94 205 80 168 80 136 C80 108 91 82 115 66 C63 28 34 -21 34 -79 C34 -169 106 -230 242 -230 C418 -230 516 -128 516 -26 C516 55 457 116 311 116 L187 116 C164 116 147 133 147 158 C147 171 152 191 167 213 C197 200 231 195 265 195 L265 195 Z M307 48 C412 48 442 8 442 -34 C442 -100 372 -165 253 -165 C156 -165 103 -125 103 -61 C103 -23 123 16 165 49 C170 48 176 48 183 48 L307 48 Z M267 252 C193 252 139 296 139 376 C139 452 188 503 268 503 C350 503 397 447 397 376 C397 300 345 252 267 252 L267 252 Z M252 618 L447 739 L412 795 L224 667 L252 618 Z " />
<glyph glyph-name="uni01F8" unicode="&#x1f8;" horiz-adv-x="770" d="M477 747 L495 800 L274 880 L253 812 L477 747 Z M106 0 L188 0 L188 532 L184 605 L187 605 L554 0 L664 0 L664 707 L581 707 L581 182 L585 93 L583 93 L211 707 L106 707 L106 0 Z " />
<glyph glyph-name="uni01F9" unicode="&#x1f9;" horiz-adv-x="602" d="M360 618 L391 668 L202 798 L167 738 L360 618 Z M84 0 L163 0 L163 423 C212 457 268 490 338 490 C431 490 446 431 446 337 L446 0 L523 0 L523 352 C523 444 513 560 358 560 C273 560 220 526 163 484 L163 546 L84 546 L84 0 Z " />
<glyph glyph-name="uni01FA" unicode="&#x1fa;" horiz-adv-x="671" d="M0 0 L87 0 L192 264 L471 264 L565 0 L654 0 L397 707 L290 707 L0 0 Z M217 330 L339 649 L449 330 L217 330 Z M244 898 L468 967 L447 1034 L228 950 L244 898 Z M346 723 C399 723 442 755 442 813 C442 879 387 902 344 902 C294 902 247 871 247 811 C247 748 295 723 346 723 L346 723 Z M345 760 C313 760 290 782 290 814 C290 846 312 864 344 864 C373 864 398 843 398 812 C398 780 378 760 345 760 L345 760 Z " />
<glyph glyph-name="uni01FB" unicode="&#x1fb;" horiz-adv-x="552" d="M206 -9 C300 -9 361 42 388 63 C395 14 445 -6 493 -6 C500 -6 510 -5 515 -4 L518 57 C492 57 459 66 459 107 L459 409 C459 516 386 560 266 560 C192 560 131 544 89 526 L107 464 C152 481 196 491 255 491 C341 491 382 470 382 383 L382 313 L252 311 C163 309 43 281 43 145 C43 46 107 -9 206 -9 L206 -9 Z M224 55 C164 55 119 85 119 148 C119 212 166 250 251 253 L382 258 L382 116 C341 86 284 55 224 55 L224 55 Z M191 797 L415 866 L394 933 L175 849 L191 797 Z M284 604 C339 604 383 637 383 696 C383 764 326 788 282 788 C230 788 181 756 181 694 C181 630 231 604 284 604 L284 604 Z M283 642 C250 642 226 664 226 697 C226 730 248 749 282 749 C311 749 337 727 337 695 C337 662 316 642 283 642 L283 642 Z " />
<glyph glyph-name="AEacute" unicode="&#x1fc;" horiz-adv-x="913" d="M499 747 L723 816 L702 883 L483 799 L499 747 Z M-14 0 L79 0 L240 311 L437 311 L437 0 L857 0 L857 68 L519 68 L519 321 L811 321 L811 389 L519 389 L519 640 L833 640 L833 707 L362 707 L-14 0 Z M273 378 L409 640 L437 640 L437 378 L273 378 Z " />
<glyph glyph-name="aeacute" unicode="&#x1fd;" horiz-adv-x="869" d="M382 618 L577 739 L542 795 L354 667 L382 618 Z M637 -9 C717 -9 777 3 808 15 L795 78 C772 73 700 59 661 59 C545 59 460 84 457 255 L817 269 L817 298 C817 469 752 559 623 559 C548 559 485 536 441 481 C410 545 342 559 265 559 C184 559 115 537 90 527 L107 467 C129 472 192 491 242 491 C339 491 381 478 381 387 L381 312 C375 312 252 309 252 309 C163 307 43 279 43 146 C43 46 101 -8 198 -8 C298 -8 387 64 417 86 C461 19 535 -9 637 -9 L637 -9 Z M217 57 C160 57 118 76 118 154 C118 205 158 248 253 250 L379 254 C381 209 387 162 397 130 C359 106 264 57 217 57 L217 57 Z M460 316 C467 448 537 500 611 500 C691 500 735 431 735 329 L460 316 Z " />
<glyph glyph-name="Oslashacute" unicode="&#x1fe;" horiz-adv-x="859" d="M91 -30 L187 69 C245 17 323 -12 421 -12 C647 -12 783 137 783 353 C783 450 756 537 703 602 L800 702 L759 739 L664 641 C607 689 531 717 435 717 C218 717 75 576 75 355 C75 257 100 172 149 109 L53 9 L91 -30 Z M424 56 C346 56 286 82 242 126 L646 543 C681 493 700 427 700 354 C700 186 612 56 424 56 L424 56 Z M157 356 C157 522 249 649 431 649 C505 649 566 626 610 585 L207 168 C173 220 157 286 157 356 L157 356 Z M348 747 L572 816 L551 883 L332 799 L348 747 Z " />
<glyph glyph-name="oslashacute" unicode="&#x1ff;" horiz-adv-x="622" d="M307 -12 C450 -12 556 79 556 276 C556 354 540 418 509 466 L573 539 L537 572 L478 504 C439 540 385 560 318 560 C166 560 64 456 64 267 C64 190 81 128 112 82 L43 3 L78 -31 L144 45 C185 8 240 -12 307 -12 L307 -12 Z M312 53 C258 53 220 72 193 102 L454 402 C470 362 476 315 476 271 C476 164 444 53 312 53 L312 53 Z M144 271 C144 375 178 495 312 495 C365 495 402 476 427 446 L166 145 C150 182 144 226 144 271 L144 271 Z M246 618 L441 739 L406 795 L218 667 L246 618 Z " />
<glyph glyph-name="Scommaaccent" unicode="&#x218;" horiz-adv-x="542" d="M302 -58 L225 -58 L204 -261 L263 -261 L302 -58 Z M246 -12 C382 -12 496 52 496 187 C496 411 145 385 145 544 C145 616 206 648 279 648 C335 648 380 635 426 614 L451 678 C408 701 357 717 277 717 C164 717 66 656 66 542 C66 310 413 358 413 181 C413 90 325 60 247 60 C180 60 127 79 75 105 L49 37 C90 12 158 -12 246 -12 L246 -12 Z " />
<glyph glyph-name="scommaaccent" unicode="&#x219;" horiz-adv-x="448" d="M264 -58 L187 -58 L166 -261 L225 -261 L264 -58 Z M195 -12 C292 -12 407 28 407 145 C407 326 134 289 134 414 C134 459 166 494 241 494 C281 494 326 485 361 471 L379 534 C340 551 285 560 242 560 C140 560 57 507 57 407 C57 227 332 262 332 140 C332 86 281 55 201 55 C154 55 103 65 55 79 L42 12 C82 -1 144 -12 195 -12 L195 -12 Z " />
<glyph glyph-name="uni021A" unicode="&#x21a;" horiz-adv-x="584" d="M336 -58 L259 -58 L238 -261 L297 -261 L336 -58 Z M251 0 L333 0 L333 637 L575 637 L575 707 L9 707 L9 637 L251 637 L251 0 Z " />
<glyph glyph-name="uni021B" unicode="&#x21b;" horiz-adv-x="398" d="M296 -58 L219 -58 L198 -261 L257 -261 L296 -58 Z M270 -12 C307 -12 358 -2 386 8 L372 73 C349 65 310 57 280 57 C217 57 182 78 182 155 L182 479 L352 479 L352 546 L181 546 L181 658 L104 658 L104 546 L24 546 L24 479 L104 479 L104 152 C104 23 168 -12 270 -12 L270 -12 Z " />
<glyph glyph-name="uni021C" unicode="&#x21c;" horiz-adv-x="539" d="M164 398 L174 340 C186 341 197 341 209 340 C299 336 396 290 396 200 C396 92 309 56 229 56 C173 56 106 77 67 99 L43 34 C78 10 147 -12 237 -12 C365 -12 480 66 480 206 C480 317 371 388 249 402 L461 642 L461 707 L56 707 L56 636 L372 636 L164 398 Z " />
<glyph glyph-name="uni021D" unicode="&#x21d;" horiz-adv-x="473" d="M125 181 C223 174 344 131 344 31 C344 -88 207 -148 60 -165 L73 -229 C249 -214 426 -127 426 36 C426 148 320 222 203 237 L421 482 L421 546 L34 546 L34 477 L331 477 L125 243 L125 181 Z " />
<glyph glyph-name="uni021E" unicode="&#x21e;" horiz-adv-x="764" d="M106 0 L188 0 L188 321 L576 321 L576 0 L658 0 L658 707 L576 707 L576 389 L188 389 L188 707 L106 707 L106 0 Z M538 820 L510 875 L379 818 L251 876 L224 820 L379 746 L538 820 Z " />
<glyph glyph-name="uni021F" unicode="&#x21f;" horiz-adv-x="601" d="M84 0 L163 0 L163 422 C210 452 269 489 339 489 C430 489 446 431 446 336 L446 0 L522 0 L522 352 C522 443 513 559 357 559 C270 559 208 516 163 483 L163 754 L84 754 L84 0 Z M477 820 L449 875 L318 818 L190 876 L163 820 L318 746 L477 820 Z " />
<glyph glyph-name="uni0226" unicode="&#x226;" horiz-adv-x="671" d="M0 0 L87 0 L192 264 L471 264 L565 0 L654 0 L397 707 L290 707 L0 0 Z M217 330 L339 649 L449 330 L217 330 Z M378 778 L378 871 L301 871 L301 778 L378 778 Z " />
<glyph glyph-name="uni0227" unicode="&#x227;" horiz-adv-x="552" d="M206 -9 C300 -9 361 42 388 63 C395 14 445 -6 493 -6 C500 -6 510 -5 515 -4 L518 57 C492 57 459 66 459 107 L459 409 C459 516 386 560 266 560 C192 560 131 544 89 526 L107 464 C152 481 196 491 255 491 C341 491 382 470 382 383 L382 313 L252 311 C163 309 43 281 43 145 C43 46 107 -9 206 -9 L206 -9 Z M224 55 C164 55 119 85 119 148 C119 212 166 250 251 253 L382 258 L382 116 C341 86 284 55 224 55 L224 55 Z M318 669 L318 762 L241 762 L241 669 L318 669 Z " />
<glyph glyph-name="uni0228" unicode="&#x228;" horiz-adv-x="582" d="M106 0 L525 0 L525 68 L188 68 L188 321 L480 321 L480 389 L188 389 L188 640 L502 640 L502 707 L106 707 L106 0 Z M269 -240 C347 -207 376 -162 375 -118 C375 -95 366 -71 355 -51 L278 -51 C291 -75 302 -97 302 -118 C302 -144 285 -169 243 -195 L269 -240 Z " />
<glyph glyph-name="uni0229" unicode="&#x229;" horiz-adv-x="546" d="M313 -12 C382 -12 444 0 485 17 L471 81 C420 65 379 56 326 56 C222 56 136 89 134 258 L494 258 L494 287 C494 469 431 560 292 560 C159 560 54 475 54 262 C54 54 154 -12 313 -12 L313 -12 Z M135 317 C144 439 205 498 284 498 C373 498 412 428 412 317 L135 317 Z M238 -240 C316 -207 345 -162 344 -118 C344 -95 335 -71 324 -51 L247 -51 C260 -75 271 -97 271 -118 C271 -144 254 -169 212 -195 L238 -240 Z " />
<glyph glyph-name="uni022E" unicode="&#x22e;" horiz-adv-x="828" d="M453 778 L453 871 L376 871 L376 778 L453 778 Z M406 -12 C632 -12 768 137 768 353 C768 559 648 717 420 717 C203 717 60 576 60 355 C60 139 186 -12 406 -12 L406 -12 Z M409 56 C231 56 142 195 142 356 C142 522 234 649 416 649 C589 649 685 522 685 354 C685 186 597 56 409 56 L409 56 Z " />
<glyph glyph-name="uni022F" unicode="&#x22f;" horiz-adv-x="598" d="M296 -12 C439 -12 545 79 545 276 C545 456 462 560 307 560 C155 560 53 456 53 267 C53 88 146 -12 296 -12 L296 -12 Z M301 53 C173 53 133 159 133 271 C133 375 167 495 301 495 C435 495 465 374 465 271 C465 164 433 53 301 53 L301 53 Z M336 669 L336 762 L259 762 L259 669 L336 669 Z " />
<glyph glyph-name="uni0232" unicode="&#x232;" horiz-adv-x="602" d="M258 0 L340 0 L340 268 L586 707 L498 707 L302 341 L120 707 L27 707 L258 268 L258 0 Z M169 785 L436 785 L436 850 L169 850 L169 785 Z " />
<glyph glyph-name="uni0233" unicode="&#x233;" horiz-adv-x="511" d="M156 -220 L232 -220 L499 546 L418 546 L284 154 L252 58 L221 156 L103 546 L17 546 L193 0 L230 0 L156 -220 Z M122 669 L389 669 L389 734 L122 734 L122 669 Z " />
<glyph glyph-name="uni0237" unicode="&#x237;" horiz-adv-x="249" d="M-20 -224 C83 -224 164 -179 164 -19 L164 546 L84 546 L84 -18 C84 -101 62 -156 -19 -156 C-36 -156 -62 -152 -76 -148 L-90 -212 C-75 -218 -49 -224 -20 -224 L-20 -224 Z " />
<glyph glyph-name="uni0259" unicode="&#x259;" horiz-adv-x="546" d="M234 560 C145 560 80 540 61 533 L75 469 C100 476 171 492 210 492 C324 492 409 464 412 289 L52 289 L52 261 C52 80 113 -12 248 -12 C386 -12 492 64 492 284 C492 494 393 560 234 560 L234 560 Z M411 231 C402 109 343 47 260 47 C174 47 134 120 134 231 L411 231 Z " />
<glyph glyph-name="uni02BC" unicode="&#x2bc;" horiz-adv-x="651" d="M-5 554 L58 554 C81 592 98 637 98 715 L98 755 L23 755 L23 677 C23 638 9 585 -5 554 L-5 554 Z " />
<glyph glyph-name="circumflex" unicode="&#x2c6;" horiz-adv-x="540" d="M355 629 L390 676 L238 787 L72 674 L106 628 L235 712 L355 629 Z " />
<glyph glyph-name="caron" unicode="&#x2c7;" horiz-adv-x="540" d="M267 623 L432 735 L400 782 L268 696 L138 781 L106 734 L267 623 Z " />
<glyph glyph-name="breve" unicode="&#x2d8;" horiz-adv-x="500" d="M268 644 C351 644 399 695 420 731 L379 766 C358 735 323 708 271 708 C227 708 190 732 162 767 L118 729 C140 688 190 644 268 644 L268 644 Z " />
<glyph glyph-name="dotaccent" unicode="&#x2d9;" horiz-adv-x="277" d="M176 669 L176 762 L99 762 L99 669 L176 669 Z " />
<glyph glyph-name="ring" unicode="&#x2da;" horiz-adv-x="536" d="M270 614 C330 614 378 649 378 714 C378 789 316 814 268 814 C212 814 159 779 159 712 C159 642 214 614 270 614 L270 614 Z M269 655 C233 655 208 679 208 715 C208 751 231 771 268 771 C301 771 329 749 329 713 C328 677 306 655 269 655 L269 655 Z " />
<glyph glyph-name="ogonek" unicode="&#x2db;" horiz-adv-x="565" d="M482 -210 L465 -156 C453 -162 437 -168 417 -168 C382 -168 357 -151 357 -113 C357 -62 421 -15 477 11 L447 50 C373 18 284 -49 284 -123 C284 -180 317 -230 400 -230 C440 -230 468 -219 482 -210 L482 -210 Z " />
<glyph glyph-name="tilde" unicode="&#x2dc;" horiz-adv-x="540" d="M329 645 C388 645 424 684 434 695 L403 739 C390 729 367 711 333 711 C294 711 263 748 210 748 C149 748 115 713 105 703 L136 657 C159 675 174 682 205 682 C248 682 282 645 329 645 L329 645 Z " />
<glyph glyph-name="hungarumlaut" unicode="&#x2dd;" horiz-adv-x="571" d="M89 613 L281 742 L238 802 L55 661 L89 613 Z M314 617 L514 737 L473 798 L283 666 L314 617 Z " />
<glyph glyph-name="gravecmb" unicode="&#x300;" d="M-254 618 L-223 669 L-412 798 L-448 738 L-254 618 Z " />
<glyph glyph-name="acutecmb" unicode="&#x301;" d="M-354 618 L-160 739 L-196 798 L-385 670 L-354 618 Z " />
<glyph glyph-name="uni0302" unicode="&#x302;" d="M-168 637 L-137 686 L-295 787 L-461 685 L-428 636 L-295 712 L-168 637 Z " />
<glyph glyph-name="tildecmb" unicode="&#x303;" d="M-237 645 C-178 645 -141 684 -132 695 L-162 739 C-175 729 -199 711 -233 711 C-272 711 -303 748 -356 748 C-417 748 -450 713 -461 703 L-429 657 C-407 675 -392 682 -361 682 C-317 682 -284 645 -237 645 L-237 645 Z " />
<glyph glyph-name="uni0304" unicode="&#x304;" d="M-451 668 L-152 668 L-152 733 L-451 733 L-451 668 Z " />
<glyph glyph-name="uni0306" unicode="&#x306;" d="M-297 639 C-223 639 -167 680 -134 727 L-175 768 C-215 722 -257 706 -296 706 C-335 706 -377 722 -417 768 L-460 727 C-426 679 -371 639 -297 639 L-297 639 Z " />
<glyph glyph-name="uni0307" unicode="&#x307;" d="M-268 669 L-268 762 L-345 762 L-345 669 L-268 669 Z " />
<glyph glyph-name="uni0308" unicode="&#x308;" d="M-362 667 L-362 760 L-439 760 L-439 667 L-362 667 Z M-164 667 L-164 760 L-241 760 L-241 667 L-164 667 Z " />
<glyph glyph-name="hookcmb" unicode="&#x309;" d="M-226 756 C-226 784 -236 807 -252 823 C-269 839 -291 848 -318 848 C-345 848 -365 843 -382 835 L-379 782 C-363 789 -347 791 -333 791 C-316 791 -290 782 -290 751 C-290 705 -335 680 -348 674 L-308 635 C-278 649 -226 691 -226 756 L-226 756 Z " />
<glyph glyph-name="uni030A" unicode="&#x30a;" d="M-299 622 C-244 622 -200 655 -200 714 C-200 782 -257 806 -301 806 C-353 806 -402 774 -402 712 C-402 648 -352 622 -299 622 L-299 622 Z M-300 660 C-333 660 -357 682 -357 715 C-357 748 -335 767 -301 767 C-272 767 -246 745 -246 713 C-246 680 -267 660 -300 660 L-300 660 Z " />
<glyph glyph-name="uni030B" unicode="&#x30b;" d="M-441 613 L-249 742 L-292 802 L-475 661 L-441 613 Z M-216 617 L-16 737 L-56 798 L-247 666 L-216 617 Z " />
<glyph glyph-name="uni030C" unicode="&#x30c;" d="M-308 620 L-145 721 L-178 768 L-306 694 L-431 764 L-463 717 L-308 620 Z " />
<glyph glyph-name="uni0310" unicode="&#x310;" d="M-293 643 C-209 643 -151 699 -128 738 L-172 775 C-199 739 -239 710 -291 710 C-338 710 -378 738 -406 774 L-451 735 C-428 690 -370 643 -293 643 L-293 643 Z M-252 766 L-252 859 L-329 859 L-329 766 L-252 766 Z " />
<glyph glyph-name="dotbelowcmb" unicode="&#x323;" d="M-251 -205 L-251 -112 L-328 -112 L-328 -205 L-251 -205 Z " />
<glyph glyph-name="uni0324" unicode="&#x324;" d="M-360 -205 L-360 -112 L-437 -112 L-437 -205 L-360 -205 Z M-149 -205 L-149 -112 L-226 -112 L-226 -205 L-149 -205 Z " />
<glyph glyph-name="uni0325" unicode="&#x325;" d="M-289 -244 C-234 -244 -190 -210 -190 -151 C-190 -83 -248 -59 -291 -59 C-343 -59 -392 -91 -392 -153 C-392 -217 -342 -244 -289 -244 L-289 -244 Z M-290 -205 C-323 -205 -347 -183 -347 -150 C-347 -118 -325 -99 -291 -99 C-262 -99 -236 -120 -236 -152 C-236 -185 -257 -205 -290 -205 L-290 -205 Z " />
<glyph glyph-name="uni0327" unicode="&#x327;" d="M-336 -240 C-258 -207 -229 -162 -230 -118 C-230 -95 -239 -71 -251 -51 L-327 -51 C-314 -75 -304 -97 -304 -118 C-304 -144 -320 -169 -362 -195 L-336 -240 Z " />
<glyph glyph-name="uni0328" unicode="&#x328;" d="M-270 -231 C-226 -231 -203 -223 -188 -215 L-205 -160 C-216 -163 -232 -166 -251 -166 C-287 -166 -313 -157 -313 -119 C-313 -68 -216 -2 -192 10 L-224 52 C-266 30 -387 -39 -387 -122 C-387 -179 -364 -231 -270 -231 L-270 -231 Z " />
<glyph glyph-name="uni032E" unicode="&#x32e;" d="M-297 -212 C-224 -212 -168 -171 -134 -124 L-176 -83 C-215 -129 -257 -145 -296 -145 C-335 -145 -377 -129 -417 -83 L-460 -124 C-427 -172 -371 -212 -297 -212 L-297 -212 Z " />
<glyph glyph-name="uni0331" unicode="&#x331;" d="M-430 -198 L-163 -198 L-163 -133 L-430 -133 L-430 -198 Z " />
<glyph glyph-name="uni0374" unicode="&#x374;" horiz-adv-x="174" d="M30 554 L97 554 C119 592 137 637 137 715 L137 755 L57 755 L57 661 C57 622 44 585 30 554 L30 554 Z " />
<glyph glyph-name="uni0375" unicode="&#x375;" horiz-adv-x="212" d="M73 -122 L139 -122 C160 -84 180 -38 180 39 L180 80 L99 80 L99 -15 C99 -53 85 -90 73 -122 L73 -122 Z " />
<glyph glyph-name="uni037E" unicode="&#x37e;" horiz-adv-x="754" d="M422 456 L422 546 L328 546 L328 456 L422 456 Z M421 40 L421 83 L336 83 L336 -15 C336 -53 322 -92 310 -125 L378 -125 C401 -86 421 -38 421 40 L421 40 Z " />
<glyph glyph-name="tonos" unicode="&#x384;" horiz-adv-x="474" d="M342 631 L409 631 L498 789 L418 789 L342 631 Z " />
<glyph glyph-name="dieresistonos" unicode="&#x385;" horiz-adv-x="459" d="M169 623 L233 623 L316 781 L236 781 L169 623 Z M132 625 L132 718 L55 718 L55 625 L132 625 Z M396 625 L396 718 L319 718 L319 625 L396 625 Z " />
<glyph glyph-name="Alphatonos" unicode="&#x386;" horiz-adv-x="667" d="M-1 0 L86 0 L191 264 L470 264 L564 0 L653 0 L396 707 L289 707 L-1 0 Z M216 330 L338 649 L448 330 L216 330 Z M24 548 L92 548 L164 707 L84 707 L24 548 Z " />
<glyph glyph-name="anoteleia" unicode="&#x387;" horiz-adv-x="241" d="M69 311 L164 311 L164 405 L69 405 L69 311 Z " />
<glyph glyph-name="Epsilontonos" unicode="&#x388;" horiz-adv-x="581" d="M-100 548 L-32 548 L40 707 L-40 707 L-100 548 Z M106 0 L525 0 L525 68 L188 68 L188 321 L480 321 L480 389 L188 389 L188 640 L502 640 L502 707 L106 707 L106 0 Z " />
<glyph glyph-name="Etatonos" unicode="&#x389;" horiz-adv-x="764" d="M106 0 L188 0 L188 321 L576 321 L576 0 L658 0 L658 707 L576 707 L576 389 L188 389 L188 707 L106 707 L106 0 Z M-100 548 L-32 548 L40 707 L-40 707 L-100 548 Z " />
<glyph glyph-name="Iotatonos" unicode="&#x38a;" horiz-adv-x="294" d="M106 0 L188 0 L188 707 L106 707 L106 0 Z M-99 548 L-31 548 L41 707 L-39 707 L-99 548 Z " />
<glyph glyph-name="Omicrontonos" unicode="&#x38c;" horiz-adv-x="828" d="M-73 548 L-5 548 L67 707 L-13 707 L-73 548 Z M406 -12 C632 -12 768 137 768 353 C768 559 648 717 420 717 C203 717 60 576 60 355 C60 139 186 -12 406 -12 L406 -12 Z M409 56 C231 56 142 195 142 356 C142 522 234 649 416 649 C589 649 685 522 685 354 C685 186 597 56 409 56 L409 56 Z " />
<glyph glyph-name="Upsilontonos" unicode="&#x38e;" horiz-adv-x="605" d="M259 0 L341 0 L341 268 L587 707 L499 707 L303 341 L121 707 L28 707 L259 268 L259 0 Z M-155 548 L-87 548 L-15 707 L-95 707 L-155 548 Z " />
<glyph glyph-name="Omegatonos" unicode="&#x38f;" horiz-adv-x="853" d="M-62 548 L6 548 L78 707 L-2 707 L-62 548 Z M48 0 L348 0 L348 71 C251 155 167 212 167 371 C167 527 248 645 422 645 C598 645 686 524 686 376 C686 247 619 160 501 71 L501 0 L805 0 L805 72 L588 72 C681 124 771 222 771 382 C771 560 660 717 431 717 C217 717 82 579 82 377 C82 215 170 116 261 72 L48 72 L48 0 Z " />
<glyph glyph-name="iotadieresistonos" unicode="&#x390;" horiz-adv-x="263" d="M66 623 L130 623 L213 781 L133 781 L66 623 Z M29 625 L29 718 L-48 718 L-48 625 L29 625 Z M293 625 L293 718 L216 718 L216 625 L293 625 Z M179 -10 C201 -10 221 -8 240 -4 L237 59 C228 58 220 57 213 57 C177 57 159 78 159 120 L159 546 L81 546 L81 99 C81 26 119 -10 179 -10 L179 -10 Z " />
<glyph glyph-name="Alpha" unicode="&#x391;" horiz-adv-x="667" d="M-1 0 L86 0 L191 264 L470 264 L564 0 L653 0 L396 707 L289 707 L-1 0 Z M216 330 L338 649 L448 330 L216 330 Z " />
<glyph glyph-name="Beta" unicode="&#x392;" horiz-adv-x="635" d="M106 0 L329 0 C511 0 579 84 579 201 C579 306 504 359 430 372 L430 375 C489 396 528 453 528 529 C528 632 459 707 299 707 L106 707 L106 0 Z M188 68 L188 330 L299 330 C419 330 495 294 495 198 C495 90 412 68 314 68 L188 68 Z M188 396 L188 643 L278 643 C384 643 444 612 444 516 C444 439 400 396 310 396 L188 396 Z " />
<glyph glyph-name="Gamma" unicode="&#x393;" horiz-adv-x="511" d="M106 0 L188 0 L188 640 L508 640 L508 707 L106 707 L106 0 Z " />
<glyph glyph-name="uni0394" unicode="&#x394;" horiz-adv-x="687" d="M111 71 L289 501 L348 649 L399 507 L562 71 L111 71 Z M-1 0 L677 0 L406 707 L295 707 L-1 0 Z " />
<glyph glyph-name="Epsilon" unicode="&#x395;" horiz-adv-x="581" d="M106 0 L525 0 L525 68 L188 68 L188 321 L480 321 L480 389 L188 389 L188 640 L502 640 L502 707 L106 707 L106 0 Z " />
<glyph glyph-name="Zeta" unicode="&#x396;" horiz-adv-x="568" d="M42 0 L529 0 L529 71 L129 71 L508 642 L508 707 L68 707 L68 636 L416 636 L42 71 L42 0 Z " />
<glyph glyph-name="Eta" unicode="&#x397;" horiz-adv-x="764" d="M106 0 L188 0 L188 321 L576 321 L576 0 L658 0 L658 707 L576 707 L576 389 L188 389 L188 707 L106 707 L106 0 Z " />
<glyph glyph-name="Theta" unicode="&#x398;" horiz-adv-x="828" d="M258 311 C275 320 309 329 344 329 C390 329 426 313 478 313 C536 313 574 331 587 340 L571 393 C553 384 517 376 483 376 C441 376 405 392 348 392 C285 392 252 373 240 364 L258 311 Z M406 -12 C632 -12 768 137 768 353 C768 559 648 717 420 717 C203 717 60 576 60 355 C60 139 186 -12 406 -12 L406 -12 Z M409 56 C231 56 142 195 142 356 C142 522 234 649 416 649 C589 649 685 522 685 354 C685 186 597 56 409 56 L409 56 Z " />
<glyph glyph-name="Iota" unicode="&#x399;" horiz-adv-x="294" d="M106 0 L188 0 L188 707 L106 707 L106 0 Z " />
<glyph glyph-name="Kappa" unicode="&#x39a;" horiz-adv-x="627" d="M510 0 L618 0 L305 380 L598 707 L494 707 L214 385 L214 370 L510 0 Z M106 0 L188 0 L188 707 L106 707 L106 0 Z " />
<glyph glyph-name="Lambda" unicode="&#x39b;" horiz-adv-x="640" d="M3 0 L85 0 L264 482 L323 645 L375 484 L536 0 L623 0 L382 707 L271 707 L3 0 Z " />
<glyph glyph-name="Mu" unicode="&#x39c;" horiz-adv-x="942" d="M106 0 L188 0 L188 488 L183 586 L186 586 L397 0 L516 0 L754 584 L757 584 L753 475 L753 0 L836 0 L836 707 L731 707 L459 49 L217 707 L106 707 L106 0 Z " />
<glyph glyph-name="Nu" unicode="&#x39d;" horiz-adv-x="770" d="M106 0 L188 0 L188 532 L184 605 L187 605 L554 0 L664 0 L664 707 L581 707 L581 182 L585 93 L583 93 L211 707 L106 707 L106 0 Z " />
<glyph glyph-name="Xi" unicode="&#x39e;" horiz-adv-x="583" d="M56 0 L527 0 L527 73 L56 73 L56 0 Z M88 319 L495 319 L495 391 L88 391 L88 319 Z M66 634 L517 634 L517 707 L66 707 L66 634 Z " />
<glyph glyph-name="Omicron" unicode="&#x39f;" horiz-adv-x="828" d="M406 -12 C632 -12 768 137 768 353 C768 559 648 717 420 717 C203 717 60 576 60 355 C60 139 186 -12 406 -12 L406 -12 Z M409 56 C231 56 142 195 142 356 C142 522 234 649 416 649 C589 649 685 522 685 354 C685 186 597 56 409 56 L409 56 Z " />
<glyph glyph-name="Pi" unicode="&#x3a0;" horiz-adv-x="750" d="M106 0 L188 0 L188 636 L562 636 L562 0 L644 0 L644 707 L106 707 L106 0 Z " />
<glyph glyph-name="Rho" unicode="&#x3a1;" horiz-adv-x="602" d="M106 0 L188 0 L188 255 L284 255 C478 255 565 360 565 486 C565 629 477 707 336 707 L106 707 L106 0 Z M188 640 L314 640 C425 640 478 589 478 481 C478 369 401 324 290 324 L188 324 L188 640 Z " />
<glyph glyph-name="Sigma" unicode="&#x3a3;" horiz-adv-x="575" d="M50 0 L527 0 L527 70 L138 70 L352 361 L143 640 L523 640 L523 707 L54 707 L54 635 L263 358 L50 71 L50 0 Z " />
<glyph glyph-name="Tau" unicode="&#x3a4;" horiz-adv-x="579" d="M249 0 L331 0 L331 637 L573 637 L573 707 L7 707 L7 637 L249 637 L249 0 Z " />
<glyph glyph-name="Upsilon" unicode="&#x3a5;" horiz-adv-x="605" d="M259 0 L341 0 L341 268 L587 707 L499 707 L303 341 L121 707 L28 707 L259 268 L259 0 Z " />
<glyph glyph-name="Phi" unicode="&#x3a6;" horiz-adv-x="802" d="M360 0 L442 0 L442 85 C626 85 758 178 758 373 C758 568 626 661 442 661 L442 737 L360 737 L360 661 C176 661 44 568 44 373 C44 178 176 85 360 85 L360 0 Z M442 151 L442 595 C587 595 676 517 676 373 C676 230 587 151 442 151 L442 151 Z M360 151 C215 151 126 230 126 373 C126 517 215 595 360 595 L360 151 Z " />
<glyph glyph-name="Chi" unicode="&#x3a7;" horiz-adv-x="606" d="M9 0 L103 0 L302 310 L488 0 L584 0 L350 376 L568 707 L479 707 L307 440 L146 707 L52 707 L258 374 L9 0 Z " />
<glyph glyph-name="Psi" unicode="&#x3a8;" horiz-adv-x="754" d="M339 0 L421 0 L421 162 C545 174 695 233 695 441 L695 707 L616 707 L616 443 C616 292 517 244 421 232 L421 707 L339 707 L339 232 C250 242 144 282 144 420 L144 707 L60 707 L60 415 C60 224 208 171 339 162 L339 0 Z " />
<glyph glyph-name="uni03A9" unicode="&#x3a9;" horiz-adv-x="853" d="M48 0 L348 0 L348 71 C251 155 167 212 167 371 C167 527 248 645 422 645 C598 645 686 524 686 376 C686 247 619 160 501 71 L501 0 L805 0 L805 72 L588 72 C681 124 771 222 771 382 C771 560 660 717 431 717 C217 717 82 579 82 377 C82 215 170 116 261 72 L48 72 L48 0 Z " />
<glyph glyph-name="Iotadieresis" unicode="&#x3aa;" horiz-adv-x="294" d="M106 0 L188 0 L188 707 L106 707 L106 0 Z M89 758 L89 851 L12 851 L12 758 L89 758 Z M284 758 L284 851 L206 851 L206 758 L284 758 Z " />
<glyph glyph-name="Upsilondieresis" unicode="&#x3ab;" horiz-adv-x="605" d="M259 0 L341 0 L341 268 L587 707 L499 707 L303 341 L121 707 L28 707 L259 268 L259 0 Z M242 758 L242 851 L165 851 L165 758 L242 758 Z M437 758 L437 851 L359 851 L359 758 L437 758 Z " />
<glyph glyph-name="alphatonos" unicode="&#x3ac;" horiz-adv-x="599" d="M277 631 L344 631 L433 789 L353 789 L277 631 Z M249 -9 C325 -9 393 46 428 122 C428 48 448 15 502 0 C515 -4 532 -5 547 -6 L552 56 C518 57 500 72 500 113 L500 546 L422 546 L422 476 C394 522 345 554 271 554 C147 554 55 441 55 250 C55 26 174 -9 249 -9 L249 -9 Z M257 59 C180 59 134 124 134 252 C134 394 180 489 279 489 C340 489 394 437 422 364 L422 263 C420 145 328 59 257 59 L257 59 Z " />
<glyph glyph-name="epsilontonos" unicode="&#x3ad;" horiz-adv-x="506" d="M227 631 L294 631 L383 789 L303 789 L227 631 Z M273 -11 C363 -11 432 13 470 32 L446 90 C396 70 347 56 282 56 C177 56 132 101 132 156 C132 235 198 262 238 262 L365 262 L365 323 L244 323 C207 323 153 336 153 408 C153 462 197 495 282 495 C353 495 417 470 439 462 L463 524 C435 538 381 560 286 560 C140 560 74 488 74 413 C74 350 107 312 163 294 C88 270 50 214 50 148 C50 45 122 -11 273 -11 L273 -11 Z " />
<glyph glyph-name="etatonos" unicode="&#x3ae;" horiz-adv-x="617" d="M295 631 L362 631 L451 789 L371 789 L295 631 Z M461 -220 L537 -220 L537 352 C537 446 529 559 368 559 C283 559 216 513 176 483 C169 525 135 546 96 554 C82 558 65 559 53 559 L48 497 C72 494 99 485 99 444 L99 0 L177 0 L177 422 C222 453 284 489 347 489 C448 489 461 431 461 337 L461 -220 Z " />
<glyph glyph-name="iotatonos" unicode="&#x3af;" horiz-adv-x="263" d="M75 631 L142 631 L231 789 L151 789 L75 631 Z M179 -10 C201 -10 221 -8 240 -4 L237 59 C228 58 220 57 213 57 C177 57 159 78 159 120 L159 546 L81 546 L81 99 C81 26 119 -10 179 -10 L179 -10 Z " />
<glyph glyph-name="upsilondieresistonos" unicode="&#x3b0;" horiz-adv-x="595" d="M234 623 L298 623 L381 781 L301 781 L234 623 Z M197 625 L197 718 L120 718 L120 625 L197 625 Z M461 625 L461 718 L384 718 L384 625 L461 625 Z M306 -9 C441 -9 531 98 531 289 C531 429 499 500 476 546 L396 546 C426 483 455 412 455 292 C455 137 410 56 306 56 C236 56 167 85 167 198 L168 442 C168 521 116 553 47 554 L40 490 C64 488 89 475 91 437 L91 191 C91 39 194 -9 306 -9 L306 -9 Z " />
<glyph glyph-name="alpha" unicode="&#x3b1;" horiz-adv-x="599" d="M249 -9 C325 -9 393 46 428 122 C428 48 448 15 502 0 C515 -4 532 -5 547 -6 L552 56 C518 57 500 72 500 113 L500 546 L422 546 L422 476 C394 522 345 554 271 554 C147 554 55 441 55 250 C55 26 174 -9 249 -9 L249 -9 Z M257 59 C180 59 134 124 134 252 C134 394 180 489 279 489 C340 489 394 437 422 364 L422 263 C420 145 328 59 257 59 L257 59 Z " />
<glyph glyph-name="beta" unicode="&#x3b2;" horiz-adv-x="583" d="M83 -220 L162 -220 L162 11 C199 -3 247 -12 297 -12 C436 -12 534 62 534 217 C534 328 471 377 370 401 C445 425 505 505 505 578 C505 683 421 765 303 765 C164 765 83 665 83 531 L83 -220 Z M295 55 C251 55 203 68 162 80 L162 539 C162 629 207 700 298 700 C371 700 428 645 428 571 C428 497 353 427 258 421 L258 361 C362 356 454 324 454 211 C454 100 396 55 295 55 L295 55 Z " />
<glyph glyph-name="gamma" unicode="&#x3b3;" horiz-adv-x="495" d="M184 -220 L260 -220 C261 -198 262 -176 262 -154 C262 -104 259 -53 252 -3 C317 146 466 364 472 546 L392 546 C389 403 295 240 231 104 C193 306 123 483 96 546 L9 546 C47 460 140 243 177 21 C175 -7 173 -35 173 -63 C173 -117 177 -170 184 -220 L184 -220 Z " />
<glyph glyph-name="delta" unicode="&#x3b4;" horiz-adv-x="583" d="M291 -11 C420 -11 539 52 539 244 C539 377 462 451 380 495 C288 547 192 570 192 633 C192 677 247 697 313 697 C389 697 447 685 484 674 L498 738 C450 753 384 765 311 765 C214 765 117 721 117 633 C117 565 161 528 221 497 C127 454 48 370 48 239 C48 60 152 -11 291 -11 L291 -11 Z M297 54 C176 54 128 132 128 245 C128 324 168 426 281 465 C366 425 460 379 460 245 C460 140 418 54 297 54 L297 54 Z " />
<glyph glyph-name="epsilon" unicode="&#x3b5;" horiz-adv-x="506" d="M273 -11 C363 -11 432 13 470 32 L446 90 C396 70 347 56 282 56 C177 56 132 101 132 156 C132 235 198 262 238 262 L365 262 L365 323 L244 323 C207 323 153 336 153 408 C153 462 197 495 282 495 C353 495 417 470 439 462 L463 524 C435 538 381 560 286 560 C140 560 74 488 74 413 C74 350 107 312 163 294 C88 270 50 214 50 148 C50 45 122 -11 273 -11 L273 -11 Z " />
<glyph glyph-name="zeta" unicode="&#x3b6;" horiz-adv-x="458" d="M387 -202 C416 -171 459 -117 459 -67 C459 27 359 32 270 49 C198 63 129 85 129 181 C129 368 319 583 468 688 L468 754 L89 754 L89 689 L374 689 C219 581 48 361 48 169 C48 43 141 7 234 -12 C315 -28 390 -34 390 -83 C390 -108 356 -150 340 -169 L387 -202 Z " />
<glyph glyph-name="eta" unicode="&#x3b7;" horiz-adv-x="617" d="M461 -220 L537 -220 L537 352 C537 446 529 559 368 559 C283 559 216 513 176 483 C169 525 135 546 96 554 C82 558 65 559 53 559 L48 497 C72 494 99 485 99 444 L99 0 L177 0 L177 422 C222 453 284 489 347 489 C448 489 461 431 461 337 L461 -220 Z " />
<glyph glyph-name="theta" unicode="&#x3b8;" horiz-adv-x="593" d="M296 -12 C475 -12 529 145 529 372 C529 590 496 766 302 766 C124 766 66 605 66 367 C66 144 111 -12 296 -12 L296 -12 Z M145 416 C149 585 178 701 299 701 C423 701 448 584 451 416 L145 416 Z M301 53 C176 53 146 161 145 356 L451 356 C450 166 421 53 301 53 L301 53 Z " />
<glyph glyph-name="iota" unicode="&#x3b9;" horiz-adv-x="263" d="M179 -10 C201 -10 221 -8 240 -4 L237 59 C228 58 220 57 213 57 C177 57 159 78 159 120 L159 546 L81 546 L81 99 C81 26 119 -10 179 -10 L179 -10 Z " />
<glyph glyph-name="kappa" unicode="&#x3ba;" horiz-adv-x="527" d="M530 0 L275 289 L498 546 L407 546 L189 284 L432 0 L530 0 Z M83 0 L162 0 L162 546 L83 546 L83 0 Z " />
<glyph glyph-name="lambda" unicode="&#x3bb;" horiz-adv-x="511" d="M488 -10 L498 52 C474 59 452 73 432 137 L295 621 C267 714 233 765 134 765 C93 765 59 757 31 745 L46 686 C71 697 97 701 130 701 C189 701 210 656 225 595 L237 545 L204 545 L13 0 L100 0 L225 384 L255 480 L282 387 L362 105 C383 35 404 -3 488 -10 L488 -10 Z " />
<glyph glyph-name="uni03BC" unicode="&#x3bc;" horiz-adv-x="611" d="M83 -220 L161 -220 L161 14 C180 -2 208 -12 247 -12 C335 -12 390 33 432 66 C438 16 474 -9 534 -9 C548 -9 565 -8 582 -6 L583 57 C532 52 508 64 508 111 L508 546 L430 546 L430 128 C406 113 335 60 266 60 C167 60 161 127 161 210 L161 546 L83 546 L83 -220 Z " />
<glyph glyph-name="nu" unicode="&#x3bd;" horiz-adv-x="502" d="M186 0 L270 0 C416 246 467 386 467 491 C467 512 466 528 462 546 L382 546 C385 527 387 506 387 485 C387 394 351 273 237 72 L99 546 L16 546 L186 0 Z " />
<glyph glyph-name="xi" unicode="&#x3be;" horiz-adv-x="472" d="M383 -201 C412 -169 453 -116 453 -66 C453 18 371 32 288 51 C206 71 122 94 122 195 C122 316 292 366 402 378 L402 440 C281 446 163 474 163 575 C163 662 225 701 339 701 C370 701 411 697 446 690 L455 754 C418 761 377 766 344 766 C185 766 88 695 88 571 C88 463 204 418 286 410 C168 389 42 305 42 184 C42 40 172 8 278 -16 C334 -28 384 -42 384 -78 C384 -104 353 -149 337 -169 L383 -201 Z " />
<glyph glyph-name="omicron" unicode="&#x3bf;" horiz-adv-x="578" d="M286 -12 C419 -12 525 81 525 273 C525 457 446 560 293 560 C157 560 52 456 52 267 C52 88 145 -12 286 -12 L286 -12 Z M292 53 C172 53 133 158 133 272 C133 375 167 495 290 495 C414 495 445 374 445 273 C445 165 413 53 292 53 L292 53 Z " />
<glyph glyph-name="pi" unicode="&#x3c0;" horiz-adv-x="627" d="M523 -10 C545 -10 565 -8 584 -4 L580 59 C572 58 564 57 557 57 C521 57 503 78 503 120 L503 478 L579 478 L579 546 L39 546 L39 478 L107 478 L107 0 L186 0 L186 478 L424 478 L424 99 C424 26 463 -10 523 -10 L523 -10 Z " />
<glyph glyph-name="rho" unicode="&#x3c1;" horiz-adv-x="579" d="M71 -220 L150 -220 L150 14 C180 4 226 -9 278 -9 C426 -9 524 74 524 267 C524 450 463 558 300 558 C155 558 71 466 71 275 L71 -220 Z M150 280 C150 383 172 494 297 494 C426 494 443 368 443 267 C443 151 413 55 282 55 C232 55 179 71 150 82 L150 280 Z " />
<glyph glyph-name="uni03C2" unicode="&#x3c2;" horiz-adv-x="496" d="M370 -201 C398 -170 442 -117 442 -67 C442 27 367 33 292 54 C215 73 134 103 134 278 C134 398 188 494 307 494 C355 494 391 485 434 467 L458 529 C416 551 362 560 309 560 C137 560 53 432 53 275 C53 41 177 11 274 -12 C324 -23 369 -35 369 -79 C369 -105 339 -147 323 -168 L370 -201 Z " />
<glyph glyph-name="sigma" unicode="&#x3c3;" horiz-adv-x="611" d="M289 -9 C429 -9 528 86 528 273 C528 357 509 430 468 479 L591 477 L591 545 C414 551 365 552 325 552 C139 552 53 433 53 263 C53 85 137 -9 289 -9 L289 -9 Z M295 56 C165 56 133 157 133 272 C133 417 199 484 328 484 L375 482 C441 425 448 332 448 273 C448 164 422 56 295 56 L295 56 Z " />
<glyph glyph-name="tau" unicode="&#x3c4;" horiz-adv-x="437" d="M292 -13 C336 -13 373 -2 395 10 L381 69 C359 61 340 56 306 56 C262 56 239 82 239 149 L239 478 L416 478 L416 546 L13 546 L13 478 L160 478 L160 141 C160 12 215 -13 292 -13 L292 -13 Z " />
<glyph glyph-name="upsilon" unicode="&#x3c5;" horiz-adv-x="595" d="M306 -9 C441 -9 531 98 531 289 C531 429 499 500 476 546 L396 546 C426 483 455 412 455 292 C455 137 410 56 306 56 C236 56 167 85 167 198 L168 442 C168 521 116 553 47 554 L40 490 C64 488 89 475 91 437 L91 191 C91 39 194 -9 306 -9 L306 -9 Z " />
<glyph glyph-name="phi" unicode="&#x3c6;" horiz-adv-x="728" d="M324 -220 L402 -220 L402 -8 C569 2 676 92 676 273 C676 450 590 550 402 559 L402 664 L324 664 L324 558 C156 544 51 445 51 267 C51 96 147 1 324 -8 L324 -220 Z M324 55 C179 69 131 162 131 272 C131 380 174 481 324 495 L324 55 Z M402 55 L402 495 C557 482 596 379 596 273 C596 158 555 66 402 55 L402 55 Z " />
<glyph glyph-name="chi" unicode="&#x3c7;" horiz-adv-x="487" d="M486 -225 L494 -161 C462 -155 446 -138 419 -83 L291 182 L473 546 L383 546 L255 257 L163 447 C130 515 106 552 29 561 L13 496 C44 488 69 468 92 423 L211 184 L10 -220 L99 -220 L248 110 L351 -114 C387 -192 416 -222 486 -225 L486 -225 Z " />
<glyph glyph-name="psi" unicode="&#x3c8;" horiz-adv-x="732" d="M330 -220 L408 -220 L408 -6 C559 7 672 111 672 293 C672 421 643 500 621 546 L539 546 C569 483 596 406 596 294 C596 152 523 72 408 61 L408 664 L330 664 L330 60 C219 71 164 133 164 250 L164 443 C164 522 111 553 44 555 L36 491 C61 489 88 476 88 433 L88 243 C88 82 183 4 330 -7 L330 -220 Z " />
<glyph glyph-name="omega" unicode="&#x3c9;" horiz-adv-x="802" d="M248 -9 C303 -9 374 24 400 101 C413 29 489 -9 544 -9 C673 -9 749 112 749 242 C749 353 719 450 622 546 L523 546 C616 467 669 359 669 245 C669 181 643 61 542 61 C484 61 440 112 440 212 L440 360 L362 360 L362 209 C362 115 318 61 260 61 C160 61 133 181 133 245 C133 363 184 466 276 546 L185 546 C76 439 54 349 54 237 C54 97 126 -9 248 -9 L248 -9 Z " />
<glyph glyph-name="iotadieresis" unicode="&#x3ca;" horiz-adv-x="263" d="M46 669 L46 762 L-31 762 L-31 669 L46 669 Z M265 669 L265 762 L187 762 L187 669 L265 669 Z M179 -10 C201 -10 221 -8 240 -4 L237 59 C228 58 220 57 213 57 C177 57 159 78 159 120 L159 546 L81 546 L81 99 C81 26 119 -10 179 -10 L179 -10 Z " />
<glyph glyph-name="upsilondieresis" unicode="&#x3cb;" horiz-adv-x="595" d="M211 669 L211 762 L134 762 L134 669 L211 669 Z M430 669 L430 762 L352 762 L352 669 L430 669 Z M306 -9 C441 -9 531 98 531 289 C531 429 499 500 476 546 L396 546 C426 483 455 412 455 292 C455 137 410 56 306 56 C236 56 167 85 167 198 L168 442 C168 521 116 553 47 554 L40 490 C64 488 89 475 91 437 L91 191 C91 39 194 -9 306 -9 L306 -9 Z " />
<glyph glyph-name="omicrontonos" unicode="&#x3cc;" horiz-adv-x="578" d="M253 631 L320 631 L409 789 L329 789 L253 631 Z M286 -12 C419 -12 525 81 525 273 C525 457 446 560 293 560 C157 560 52 456 52 267 C52 88 145 -12 286 -12 L286 -12 Z M292 53 C172 53 133 158 133 272 C133 375 167 495 290 495 C414 495 445 374 445 273 C445 165 413 53 292 53 L292 53 Z " />
<glyph glyph-name="upsilontonos" unicode="&#x3cd;" horiz-adv-x="595" d="M249 631 L316 631 L405 789 L325 789 L249 631 Z M306 -9 C441 -9 531 98 531 289 C531 429 499 500 476 546 L396 546 C426 483 455 412 455 292 C455 137 410 56 306 56 C236 56 167 85 167 198 L168 442 C168 521 116 553 47 554 L40 490 C64 488 89 475 91 437 L91 191 C91 39 194 -9 306 -9 L306 -9 Z " />
<glyph glyph-name="omegatonos" unicode="&#x3ce;" horiz-adv-x="802" d="M356 631 L423 631 L512 789 L432 789 L356 631 Z M248 -9 C303 -9 374 24 400 101 C413 29 489 -9 544 -9 C673 -9 749 112 749 242 C749 353 719 450 622 546 L523 546 C616 467 669 359 669 245 C669 181 643 61 542 61 C484 61 440 112 440 212 L440 360 L362 360 L362 209 C362 115 318 61 260 61 C160 61 133 181 133 245 C133 363 184 466 276 546 L185 546 C76 439 54 349 54 237 C54 97 126 -9 248 -9 L248 -9 Z " />
<glyph glyph-name="uni03D0" unicode="&#x3d0;" horiz-adv-x="595" d="M297 -11 C443 -11 548 91 548 224 C548 364 476 432 379 447 C461 488 509 546 509 613 C509 682 458 765 321 765 C146 765 69 590 69 393 L69 305 C69 68 169 -11 297 -11 L297 -11 Z M303 52 C211 52 151 127 151 283 L151 341 C200 371 258 399 327 399 C409 399 465 334 465 230 C465 106 391 52 303 52 L303 52 Z M151 398 L151 424 C151 598 215 701 313 701 C376 701 426 658 426 600 C426 544 368 495 264 450 C228 434 192 421 151 398 L151 398 Z " />
<glyph glyph-name="uni03D8" unicode="&#x3d8;" horiz-adv-x="753" d="M334 -166 L419 -166 L419 -8 C561 9 697 93 697 352 C697 603 557 719 377 719 C205 719 57 617 57 350 C57 94 193 9 334 -9 L334 -166 Z M378 57 C257 57 136 122 136 353 C136 533 213 652 377 652 C540 652 618 533 618 351 C618 120 499 57 378 57 L378 57 Z " />
<glyph glyph-name="uni03D9" unicode="&#x3d9;" horiz-adv-x="605" d="M263 -190 L344 -190 L344 27 C467 44 559 135 559 294 C559 461 459 560 304 560 C159 560 47 465 47 287 C47 135 132 38 263 25 L263 -190 Z M304 85 C170 85 122 184 122 293 C122 390 167 495 302 495 C433 495 482 396 482 290 C482 177 421 85 304 85 L304 85 Z " />
<glyph glyph-name="uni03DA" unicode="&#x3da;" horiz-adv-x="573" d="M535 665 C470 703 393 716 312 716 C139 716 50 601 50 413 C50 64 403 179 403 51 C403 -28 285 -59 184 -89 L201 -148 C298 -129 479 -73 479 57 C479 269 133 102 133 424 C133 556 179 645 315 645 C392 645 445 630 508 601 L535 665 Z " />
<glyph glyph-name="uni03DB" unicode="&#x3db;" horiz-adv-x="493" d="M458 510 C398 545 333 554 275 554 C129 554 51 436 51 278 C51 97 133 37 237 25 C305 16 336 3 336 -33 C336 -71 296 -100 180 -101 L180 -162 C319 -160 407 -117 407 -29 C407 51 349 79 262 89 C165 103 126 173 126 276 C126 384 167 488 278 488 C340 488 377 478 431 448 L458 510 Z " />
<glyph glyph-name="uni03DC" unicode="&#x3dc;" horiz-adv-x="568" d="M522 640 L522 707 L106 707 L106 0 L188 0 L188 301 L500 301 L500 369 L188 369 L188 640 L522 640 Z " />
<glyph glyph-name="uni03DD" unicode="&#x3dd;" horiz-adv-x="436" d="M443 749 C420 757 365 766 327 766 C225 766 123 734 123 585 L123 374 L43 374 L43 308 L123 308 L123 -220 L201 -220 L201 308 L318 308 L318 374 L201 374 L201 584 C201 671 246 696 328 696 C371 696 417 687 428 684 L443 749 Z " />
<glyph glyph-name="uni03DE" unicode="&#x3de;" horiz-adv-x="495" d="M309 -109 L478 330 L132 330 L264 708 L181 698 L22 256 L369 256 L226 -129 L309 -109 Z " />
<glyph glyph-name="uni03DF" unicode="&#x3df;" horiz-adv-x="477" d="M285 -46 L459 355 L126 355 L275 683 L189 674 L13 283 L348 283 L200 -64 L285 -46 Z " />
<glyph glyph-name="uni03E0" unicode="&#x3e0;" horiz-adv-x="750" d="M524 -64 C606 -4 687 112 687 255 C687 432 544 592 329 592 C246 592 173 573 112 529 L145 472 C199 505 262 524 323 524 C377 524 441 508 482 477 L61 205 L93 153 C117 169 505 421 537 443 C565 415 584 382 598 345 L184 76 L216 25 L613 282 C615 271 616 251 616 240 C614 156 578 64 482 -11 L524 -64 Z " />
<glyph glyph-name="uni03E1" unicode="&#x3e1;" horiz-adv-x="692" d="M478 -74 C544 -27 640 81 640 234 C640 410 504 562 292 562 C211 562 142 539 79 496 L111 445 C167 475 226 494 286 494 C335 494 396 477 435 454 L25 188 L59 134 C59 134 365 333 494 419 C516 397 539 356 552 325 L148 60 L182 7 L570 259 C571 250 571 229 571 219 C569 140 533 48 437 -25 L478 -74 Z " />
<glyph glyph-name="uni0400" unicode="&#x400;" horiz-adv-x="582" d="M381 747 L399 800 L178 880 L157 812 L381 747 Z M106 0 L525 0 L525 68 L188 68 L188 321 L480 321 L480 389 L188 389 L188 640 L502 640 L502 707 L106 707 L106 0 Z " />
<glyph glyph-name="uni0401" unicode="&#x401;" horiz-adv-x="582" d="M246 758 L246 851 L169 851 L169 758 L246 758 Z M441 758 L441 851 L363 851 L363 758 L441 758 Z M106 0 L525 0 L525 68 L188 68 L188 321 L480 321 L480 389 L188 389 L188 640 L502 640 L502 707 L106 707 L106 0 Z " />
<glyph glyph-name="uni0402" unicode="&#x402;" horiz-adv-x="755" d="M494 -220 C624 -100 709 41 709 215 C709 333 652 434 503 434 C430 434 365 415 303 392 L303 637 L561 637 L561 707 L11 707 L11 637 L221 637 L221 0 L303 0 L303 320 C358 349 431 366 484 366 C574 366 626 308 626 211 C626 -10 472 -140 444 -162 L494 -220 Z " />
<glyph glyph-name="uni0403" unicode="&#x403;" horiz-adv-x="528" d="M221 747 L445 816 L424 883 L205 799 L221 747 Z M106 0 L188 0 L188 640 L522 640 L522 707 L106 707 L106 0 Z " />
<glyph glyph-name="uni0404" unicode="&#x404;" horiz-adv-x="677" d="M426 -10 C544 -10 603 8 630 19 L610 85 C572 73 510 61 444 61 C292 61 162 137 148 322 L521 322 L521 389 L147 389 C159 572 284 644 424 643 C523 643 575 624 604 615 L626 681 C611 688 550 715 422 715 C191 715 60 572 60 349 C60 138 193 -10 426 -10 L426 -10 Z " />
<glyph glyph-name="uni0405" unicode="&#x405;" horiz-adv-x="542" d="M246 -12 C382 -12 496 52 496 187 C496 411 145 385 145 544 C145 616 206 648 279 648 C335 648 380 635 426 614 L451 678 C408 701 357 717 277 717 C164 717 66 656 66 542 C66 310 413 358 413 181 C413 90 325 60 247 60 C180 60 127 79 75 105 L49 37 C90 12 158 -12 246 -12 L246 -12 Z " />
<glyph glyph-name="uni0406" unicode="&#x406;" horiz-adv-x="294" d="M106 0 L188 0 L188 707 L106 707 L106 0 Z " />
<glyph glyph-name="uni0407" unicode="&#x407;" horiz-adv-x="294" d="M106 0 L188 0 L188 707 L106 707 L106 0 Z M87 758 L87 851 L10 851 L10 758 L87 758 Z M282 758 L282 851 L204 851 L204 758 L282 758 Z " />
<glyph glyph-name="uni0408" unicode="&#x408;" horiz-adv-x="295" d="M-2 -187 C164 -113 191 1 191 153 L191 707 L108 707 L108 151 C108 21 84 -60 -37 -127 L-2 -187 Z " />
<glyph glyph-name="uni0409" unicode="&#x409;" horiz-adv-x="993" d="M41 -22 C111 10 165 54 195 116 C242 215 255 389 277 640 L498 640 L498 0 L722 0 C872 0 956 87 956 212 C956 359 859 432 681 432 L580 432 L580 707 L202 707 C186 413 161 225 129 160 C108 118 57 77 4 53 L41 -22 Z M682 363 C792 363 870 326 870 216 C870 124 815 67 706 67 L580 67 L580 363 L682 363 Z " />
<glyph glyph-name="uni040A" unicode="&#x40a;" horiz-adv-x="1024" d="M106 0 L188 0 L188 341 L532 341 L532 0 L740 0 C889 0 990 82 990 200 C990 340 892 409 715 409 L615 409 L615 707 L532 707 L532 409 L188 409 L188 707 L106 707 L106 0 Z M716 341 C826 341 903 309 903 205 C903 118 841 67 732 67 L615 67 L615 341 L716 341 Z " />
<glyph glyph-name="uni040B" unicode="&#x40b;" horiz-adv-x="764" d="M221 0 L303 0 L303 319 C362 351 430 366 473 366 C531 366 626 358 626 249 L626 0 L709 0 L709 248 C709 359 652 437 496 437 C431 437 365 417 303 392 L303 637 L561 637 L561 707 L11 707 L11 637 L221 637 L221 0 Z " />
<glyph glyph-name="uni040C" unicode="&#x40c;" horiz-adv-x="628" d="M510 0 L618 0 L305 380 L598 707 L494 707 L214 385 L214 370 L510 0 Z M106 0 L188 0 L188 707 L106 707 L106 0 Z M255 758 L479 827 L458 894 L239 810 L255 758 Z " />
<glyph glyph-name="uni040D" unicode="&#x40d;" horiz-adv-x="780" d="M468 747 L486 800 L265 880 L244 812 L468 747 Z M106 0 L188 0 L553 532 L595 602 L592 496 L592 0 L674 0 L674 707 L592 707 L248 210 L185 105 L188 211 L188 707 L106 707 L106 0 Z " />
<glyph glyph-name="uni040E" unicode="&#x40e;" horiz-adv-x="573" d="M160 -9 C243 22 286 45 344 180 L570 707 L480 707 L310 277 L97 707 L6 707 L249 220 L286 220 L272 188 C237 106 193 83 131 63 L160 -9 Z M294 759 C364 759 422 790 461 843 L420 884 C377 836 328 826 294 826 C260 826 210 836 168 884 L126 843 C166 790 224 759 294 759 L294 759 Z " />
<glyph glyph-name="uni040F" unicode="&#x40f;" horiz-adv-x="753" d="M336 -153 L418 -153 L418 0 L647 0 L647 707 L565 707 L565 68 L188 68 L188 707 L106 707 L106 0 L336 0 L336 -153 Z " />
<glyph glyph-name="uni0410" unicode="&#x410;" horiz-adv-x="671" d="M0 0 L87 0 L192 264 L471 264 L565 0 L654 0 L397 707 L290 707 L0 0 Z M217 330 L339 649 L449 330 L217 330 Z " />
<glyph glyph-name="uni0411" unicode="&#x411;" horiz-adv-x="626" d="M106 0 L339 0 C489 0 575 84 575 208 C575 356 477 425 298 425 L188 425 L188 640 L530 640 L530 707 L106 707 L106 0 Z M298 357 C410 357 488 321 488 212 C488 122 433 67 323 67 L188 67 L188 357 L298 357 Z " />
<glyph glyph-name="uni0412" unicode="&#x412;" horiz-adv-x="636" d="M106 0 L329 0 C511 0 579 84 579 201 C579 306 504 359 430 372 L430 375 C489 396 528 453 528 529 C528 632 459 707 299 707 L106 707 L106 0 Z M188 68 L188 330 L299 330 C419 330 495 294 495 198 C495 90 412 68 314 68 L188 68 Z M188 396 L188 643 L278 643 C384 643 444 612 444 516 C444 439 400 396 310 396 L188 396 Z " />
<glyph glyph-name="uni0413" unicode="&#x413;" horiz-adv-x="528" d="M106 0 L188 0 L188 640 L522 640 L522 707 L106 707 L106 0 Z " />
<glyph glyph-name="uni0414" unicode="&#x414;" horiz-adv-x="725" d="M12 -153 L92 -153 L92 0 L602 0 L602 -153 L683 -153 L683 68 L590 68 L590 707 L219 707 C207 477 175 310 157 257 C141 210 110 134 73 68 L12 68 L12 -153 Z M165 68 C202 146 220 193 237 251 C248 291 275 425 292 640 L507 640 L507 68 L165 68 Z " />
<glyph glyph-name="uni0415" unicode="&#x415;" horiz-adv-x="582" d="M106 0 L525 0 L525 68 L188 68 L188 321 L480 321 L480 389 L188 389 L188 640 L502 640 L502 707 L106 707 L106 0 Z " />
<glyph glyph-name="uni0416" unicode="&#x416;" horiz-adv-x="917" d="M13 0 L120 0 L392 363 L392 378 L140 707 L38 707 L298 375 L13 0 Z M797 0 L904 0 L619 375 L879 707 L778 707 L525 378 L525 363 L797 0 Z M417 0 L500 0 L500 707 L417 707 L417 0 Z " />
<glyph glyph-name="uni0417" unicode="&#x417;" horiz-adv-x="553" d="M243 -8 C432 -8 493 102 493 197 C493 320 385 351 353 359 L353 361 C383 376 462 423 462 537 C462 636 386 711 248 711 C166 711 109 689 65 669 L91 610 C129 624 177 643 240 643 C326 643 378 600 378 520 C378 437 319 389 227 389 L153 389 L153 322 L227 322 C329 322 408 291 408 196 C408 98 331 63 238 63 C173 63 112 80 65 102 L36 36 C78 16 142 -8 243 -8 L243 -8 Z " />
<glyph glyph-name="uni0418" unicode="&#x418;" horiz-adv-x="780" d="M106 0 L188 0 L553 532 L595 602 L592 496 L592 0 L674 0 L674 707 L592 707 L248 210 L185 105 L188 211 L188 707 L106 707 L106 0 Z " />
<glyph glyph-name="uni0419" unicode="&#x419;" horiz-adv-x="780" d="M391 759 C461 759 519 790 558 843 L517 884 C474 836 425 826 391 826 C357 826 307 836 265 884 L223 843 C263 790 321 759 391 759 L391 759 Z M106 0 L188 0 L553 532 L595 602 L592 496 L592 0 L674 0 L674 707 L592 707 L248 210 L185 105 L188 211 L188 707 L106 707 L106 0 Z " />
<glyph glyph-name="uni041A" unicode="&#x41a;" horiz-adv-x="628" d="M510 0 L618 0 L305 380 L598 707 L494 707 L214 385 L214 370 L510 0 Z M106 0 L188 0 L188 707 L106 707 L106 0 Z " />
<glyph glyph-name="uni041B" unicode="&#x41b;" horiz-adv-x="686" d="M41 -22 C111 10 165 54 195 116 C242 215 254 389 277 640 L498 640 L498 0 L580 0 L580 707 L202 707 C186 413 161 225 129 160 C108 118 57 77 4 53 L41 -22 Z " />
<glyph glyph-name="uni041C" unicode="&#x41c;" horiz-adv-x="942" d="M106 0 L188 0 L188 488 L183 586 L186 586 L397 0 L516 0 L754 584 L757 584 L753 475 L753 0 L836 0 L836 707 L731 707 L459 49 L217 707 L106 707 L106 0 Z " />
<glyph glyph-name="uni041D" unicode="&#x41d;" horiz-adv-x="764" d="M106 0 L188 0 L188 321 L576 321 L576 0 L658 0 L658 707 L576 707 L576 389 L188 389 L188 707 L106 707 L106 0 Z " />
<glyph glyph-name="uni041E" unicode="&#x41e;" horiz-adv-x="828" d="M406 -12 C632 -12 768 137 768 353 C768 559 648 717 420 717 C203 717 60 576 60 355 C60 139 186 -12 406 -12 L406 -12 Z M409 56 C231 56 142 195 142 356 C142 522 234 649 416 649 C589 649 685 522 685 354 C685 186 597 56 409 56 L409 56 Z " />
<glyph glyph-name="uni041F" unicode="&#x41f;" horiz-adv-x="754" d="M106 0 L188 0 L188 639 L566 639 L566 0 L648 0 L648 707 L106 707 L106 0 Z " />
<glyph glyph-name="uni0420" unicode="&#x420;" horiz-adv-x="603" d="M106 0 L188 0 L188 255 L284 255 C478 255 565 360 565 486 C565 629 477 707 336 707 L106 707 L106 0 Z M188 640 L314 640 C425 640 478 589 478 481 C478 369 401 324 290 324 L188 324 L188 640 Z " />
<glyph glyph-name="uni0421" unicode="&#x421;" horiz-adv-x="677" d="M427 -12 C528 -12 583 5 629 22 L609 88 C565 72 509 62 443 62 C281 62 145 148 145 359 C145 565 277 645 425 645 C506 645 552 629 603 611 L628 677 C588 696 526 717 423 717 C195 717 60 569 60 349 C60 138 193 -12 427 -12 L427 -12 Z " />
<glyph glyph-name="uni0422" unicode="&#x422;" horiz-adv-x="584" d="M251 0 L333 0 L333 637 L575 637 L575 707 L9 707 L9 637 L251 637 L251 0 Z " />
<glyph glyph-name="uni0423" unicode="&#x423;" horiz-adv-x="573" d="M160 -9 C243 22 286 45 344 180 L570 707 L480 707 L310 277 L97 707 L6 707 L249 220 L286 220 L272 188 C237 106 193 83 131 63 L160 -9 Z " />
<glyph glyph-name="uni0424" unicode="&#x424;" horiz-adv-x="804" d="M361 0 L443 0 L443 85 C626 85 759 178 759 373 C759 568 626 661 443 661 L443 737 L361 737 L361 661 C177 661 45 568 45 373 C45 178 177 85 361 85 L361 0 Z M443 151 L443 595 C587 595 676 517 676 373 C676 230 587 151 443 151 L443 151 Z M361 151 C216 151 126 230 126 373 C126 517 216 595 361 595 L361 151 Z " />
<glyph glyph-name="uni0425" unicode="&#x425;" horiz-adv-x="609" d="M10 0 L104 0 L303 310 L489 0 L585 0 L351 376 L569 707 L480 707 L308 440 L147 707 L53 707 L259 374 L10 0 Z " />
<glyph glyph-name="uni0426" unicode="&#x426;" horiz-adv-x="775" d="M652 -153 L732 -153 L732 68 L639 68 L639 707 L557 707 L557 68 L188 68 L188 707 L106 707 L106 0 L652 0 L652 -153 Z " />
<glyph glyph-name="uni0427" unicode="&#x427;" horiz-adv-x="653" d="M465 0 L547 0 L547 707 L465 707 L465 396 C406 364 335 349 292 349 C234 349 134 357 134 466 L134 707 L52 707 L52 467 C52 371 92 281 262 281 C326 281 403 298 465 323 L465 0 Z " />
<glyph glyph-name="uni0428" unicode="&#x428;" horiz-adv-x="1010" d="M106 0 L904 0 L904 707 L821 707 L821 68 L546 68 L546 707 L464 707 L464 68 L188 68 L188 707 L106 707 L106 0 Z " />
<glyph glyph-name="uni0429" unicode="&#x429;" horiz-adv-x="1039" d="M916 -153 L997 -153 L997 68 L904 68 L904 707 L821 707 L821 68 L546 68 L546 707 L464 707 L464 68 L188 68 L188 707 L106 707 L106 0 L916 0 L916 -153 Z " />
<glyph glyph-name="uni042A" unicode="&#x42a;" horiz-adv-x="703" d="M207 0 L432 0 C582 0 666 87 666 212 C666 359 569 432 391 432 L290 432 L290 707 L12 707 L12 638 L207 638 L207 0 Z M392 363 C502 363 580 326 580 216 C580 124 525 67 416 67 L290 67 L290 363 L392 363 Z " />
<glyph glyph-name="uni042B" unicode="&#x42b;" horiz-adv-x="863" d="M106 0 L331 0 C480 0 565 89 565 213 C565 360 467 432 290 432 L189 432 L189 707 L106 707 L106 0 Z M290 363 C401 363 478 327 478 217 C478 125 424 67 315 67 L189 67 L189 363 L290 363 Z M675 0 L757 0 L757 707 L675 707 L675 0 Z " />
<glyph glyph-name="uni042C" unicode="&#x42c;" horiz-adv-x="602" d="M106 0 L331 0 C480 0 565 89 565 213 C565 360 467 432 290 432 L189 432 L189 707 L106 707 L106 0 Z M290 363 C401 363 478 327 478 217 C478 125 424 67 315 67 L189 67 L189 363 L290 363 Z " />
<glyph glyph-name="uni042D" unicode="&#x42d;" horiz-adv-x="677" d="M251 -10 C485 -10 617 146 617 357 C617 580 487 715 255 715 C127 715 67 688 51 681 L74 615 C102 624 155 643 253 643 C392 643 516 574 530 389 L157 389 L157 322 L530 322 C517 138 387 61 233 61 C167 61 106 73 68 85 L47 19 C74 8 133 -10 251 -10 L251 -10 Z " />
<glyph glyph-name="uni042E" unicode="&#x42e;" horiz-adv-x="1097" d="M674 -12 C900 -12 1036 135 1036 353 C1036 561 921 717 693 717 C487 717 344 593 330 389 L188 389 L188 707 L106 707 L106 0 L188 0 L188 321 L329 321 C341 123 466 -12 674 -12 L674 -12 Z M677 56 C499 56 410 195 410 356 C410 522 502 649 684 649 C858 649 953 522 953 354 C953 186 865 56 677 56 L677 56 Z " />
<glyph glyph-name="uni042F" unicode="&#x42f;" horiz-adv-x="661" d="M141 0 L314 284 C332 282 355 281 376 281 L471 281 L471 0 L555 0 L555 707 L324 707 C193 707 95 629 95 490 C95 395 148 324 237 302 L47 0 L141 0 Z M370 347 C260 347 182 384 182 490 C182 590 244 640 348 640 L471 640 L471 347 L370 347 Z " />
<glyph glyph-name="uni0430" unicode="&#x430;" horiz-adv-x="552" d="M206 -9 C300 -9 361 42 388 63 C395 14 445 -6 493 -6 C500 -6 510 -5 515 -4 L518 57 C492 57 459 66 459 107 L459 409 C459 516 386 560 266 560 C192 560 131 544 89 526 L107 464 C152 481 196 491 255 491 C341 491 382 470 382 383 L382 313 L252 311 C163 309 43 281 43 145 C43 46 107 -9 206 -9 L206 -9 Z M224 55 C164 55 119 85 119 148 C119 212 166 250 251 253 L382 258 L382 116 C341 86 284 55 224 55 L224 55 Z " />
<glyph glyph-name="uni0431" unicode="&#x431;" horiz-adv-x="608" d="M301 -9 C444 -9 553 79 553 273 C553 443 467 507 340 507 C263 507 198 480 151 454 C158 504 170 577 199 608 C232 644 369 670 521 698 L507 771 C337 736 197 706 144 652 C88 595 68 417 68 310 C68 85 154 -9 301 -9 L301 -9 Z M307 56 C197 56 146 143 146 326 C146 346 147 370 148 390 C203 419 254 444 325 444 C433 444 474 367 474 271 C474 167 438 56 307 56 L307 56 Z " />
<glyph glyph-name="uni0432" unicode="&#x432;" horiz-adv-x="546" d="M84 0 L292 0 C426 0 495 64 495 157 C495 233 442 280 387 288 C432 305 466 350 466 409 C466 494 403 546 282 546 L84 546 L84 0 Z M163 65 L163 252 L258 252 C356 252 414 230 414 156 C414 80 346 65 274 65 L163 65 Z M163 310 L163 481 L259 481 C338 481 388 463 388 399 C388 345 353 310 274 310 L163 310 Z " />
<glyph glyph-name="uni0433" unicode="&#x433;" horiz-adv-x="436" d="M84 0 L163 0 L163 479 L424 479 L424 546 L84 546 L84 0 Z " />
<glyph glyph-name="uni0434" unicode="&#x434;" horiz-adv-x="618" d="M17 -147 L91 -147 L91 0 L509 0 L509 -147 L583 -147 L583 66 L505 66 L505 546 L176 546 C172 419 154 280 142 237 C122 169 107 123 71 66 L17 66 L17 -147 Z M157 66 C184 121 198 158 210 205 C225 263 234 350 246 480 L427 480 L427 66 L157 66 Z " />
<glyph glyph-name="uni0435" unicode="&#x435;" horiz-adv-x="546" d="M313 -12 C382 -12 444 0 485 17 L471 81 C420 65 379 56 326 56 C222 56 136 89 134 258 L494 258 L494 287 C494 469 431 560 292 560 C159 560 54 475 54 262 C54 54 154 -12 313 -12 L313 -12 Z M135 317 C144 439 205 498 284 498 C373 498 412 428 412 317 L135 317 Z " />
<glyph glyph-name="uni0436" unicode="&#x436;" horiz-adv-x="771" d="M758 0 L531 286 L737 546 L646 546 L444 282 L668 0 L758 0 Z M103 0 L329 282 L127 546 L36 546 L243 286 L16 0 L103 0 Z M347 0 L426 0 L426 546 L347 546 L347 0 Z " />
<glyph glyph-name="uni0437" unicode="&#x437;" horiz-adv-x="460" d="M209 -9 C355 -9 409 77 409 153 C409 238 347 277 297 288 C345 308 384 354 384 420 C384 488 335 558 213 558 C161 558 100 546 55 523 L75 464 C110 478 150 492 202 492 C271 492 304 456 304 407 C304 362 274 311 190 311 L132 311 L132 249 L191 249 C264 249 326 229 326 157 C326 88 272 57 206 57 C152 57 101 71 57 94 L31 31 C87 3 148 -9 209 -9 L209 -9 Z " />
<glyph glyph-name="uni0438" unicode="&#x438;" horiz-adv-x="629" d="M84 0 L163 0 L426 371 L469 441 L466 372 L466 0 L545 0 L545 546 L466 546 L203 174 L161 104 L163 173 L163 546 L84 546 L84 0 Z " />
<glyph glyph-name="uni0439" unicode="&#x439;" horiz-adv-x="629" d="M316 651 C382 651 439 686 474 738 L436 779 C396 732 355 718 316 718 C277 718 235 732 196 779 L158 738 C193 686 250 651 316 651 L316 651 Z M84 0 L163 0 L426 371 L469 441 L466 372 L466 0 L545 0 L545 546 L466 546 L203 174 L161 104 L163 173 L163 546 L84 546 L84 0 Z " />
<glyph glyph-name="uni043A" unicode="&#x43a;" horiz-adv-x="537" d="M531 0 L276 289 L499 546 L408 546 L190 284 L433 0 L531 0 Z M84 0 L163 0 L163 546 L84 546 L84 0 Z " />
<glyph glyph-name="uni043B" unicode="&#x43b;" horiz-adv-x="581" d="M35 -17 C100 4 144 38 174 94 C211 166 228 285 242 480 L418 480 L418 0 L497 0 L497 546 L170 546 C164 358 144 200 110 135 C86 88 46 67 9 51 L35 -17 Z " />
<glyph glyph-name="uni043C" unicode="&#x43c;" horiz-adv-x="747" d="M84 0 L160 0 L160 365 L156 455 L311 0 L417 0 L590 454 L586 365 L586 0 L662 0 L662 546 L556 546 L365 53 L194 546 L84 546 L84 0 Z " />
<glyph glyph-name="uni043D" unicode="&#x43d;" horiz-adv-x="609" d="M84 0 L163 0 L163 240 L446 240 L446 0 L525 0 L525 546 L446 546 L446 307 L163 307 L163 546 L84 546 L84 0 Z " />
<glyph glyph-name="uni043E" unicode="&#x43e;" horiz-adv-x="598" d="M296 -12 C439 -12 545 79 545 276 C545 456 462 560 307 560 C155 560 53 456 53 267 C53 88 146 -12 296 -12 L296 -12 Z M301 53 C173 53 133 159 133 271 C133 375 167 495 301 495 C435 495 465 374 465 271 C465 164 433 53 301 53 L301 53 Z " />
<glyph glyph-name="uni043F" unicode="&#x43f;" horiz-adv-x="599" d="M84 0 L163 0 L163 480 L436 480 L436 0 L515 0 L515 546 L84 546 L84 0 Z " />
<glyph glyph-name="uni0440" unicode="&#x440;" horiz-adv-x="590" d="M84 -220 L163 -220 L163 -2 C188 -6 232 -11 267 -11 C411 -11 536 62 536 282 C536 460 454 558 323 558 C256 558 211 534 163 501 L163 546 L84 546 L84 -220 Z M266 55 C223 55 179 64 163 66 L163 438 C192 457 242 490 307 490 C424 490 456 378 456 277 C456 148 405 55 266 55 L266 55 Z " />
<glyph glyph-name="uni0441" unicode="&#x441;" horiz-adv-x="497" d="M325 -12 C386 -12 423 -2 456 9 L444 73 C410 64 381 56 333 56 C184 56 134 131 134 266 C134 418 198 491 312 491 C367 491 411 473 433 464 L457 527 C430 542 380 560 312 560 C153 560 53 458 53 262 C53 76 140 -12 325 -12 L325 -12 Z " />
<glyph glyph-name="uni0442" unicode="&#x442;" horiz-adv-x="479" d="M201 0 L279 0 L279 479 L465 479 L465 546 L15 546 L15 479 L201 479 L201 0 Z " />
<glyph glyph-name="uni0443" unicode="&#x443;" horiz-adv-x="511" d="M156 -220 L232 -220 L499 546 L418 546 L284 154 L252 58 L221 156 L103 546 L17 546 L193 0 L230 0 L156 -220 Z " />
<glyph glyph-name="uni0444" unicode="&#x444;" horiz-adv-x="760" d="M341 -220 L419 -220 L419 -8 C578 -7 707 70 707 275 C707 477 585 558 419 558 L419 754 L341 754 L341 558 C178 557 53 476 53 274 C53 72 175 -8 341 -8 L341 -220 Z M419 56 L419 493 C563 492 627 407 627 275 C627 141 563 56 419 56 L419 56 Z M341 55 C196 55 133 140 133 274 C133 408 195 493 341 493 L341 55 Z " />
<glyph glyph-name="uni0445" unicode="&#x445;" horiz-adv-x="501" d="M16 0 L109 0 L251 224 L391 0 L486 0 L296 281 L472 546 L384 546 L251 335 L119 546 L27 546 L206 279 L16 0 Z " />
<glyph glyph-name="uni0446" unicode="&#x446;" horiz-adv-x="626" d="M517 -147 L591 -147 L591 66 L513 66 L513 546 L435 546 L435 66 L163 66 L163 546 L84 546 L84 0 L517 0 L517 -147 Z " />
<glyph glyph-name="uni0447" unicode="&#x447;" horiz-adv-x="540" d="M377 0 L455 0 L455 546 L377 546 L377 305 C339 292 295 278 240 278 C138 278 124 319 124 380 L124 546 L45 546 L45 371 C45 273 79 211 213 211 C279 211 328 225 377 239 L377 0 Z " />
<glyph glyph-name="uni0448" unicode="&#x448;" horiz-adv-x="843" d="M84 0 L759 0 L759 546 L680 546 L680 66 L461 66 L461 546 L382 546 L382 66 L163 66 L163 546 L84 546 L84 0 Z " />
<glyph glyph-name="uni0449" unicode="&#x449;" horiz-adv-x="872" d="M763 -147 L837 -147 L837 66 L759 66 L759 546 L680 546 L680 66 L461 66 L461 546 L382 546 L382 66 L163 66 L163 546 L84 546 L84 0 L763 0 L763 -147 Z " />
<glyph glyph-name="uni044A" unicode="&#x44a;" horiz-adv-x="608" d="M176 0 L401 0 C508 0 575 73 575 171 C575 286 495 346 360 346 L254 346 L254 546 L16 546 L16 479 L176 479 L176 0 Z M353 279 C433 279 494 250 494 172 C494 104 448 67 374 67 L254 67 L254 279 L353 279 Z " />
<glyph glyph-name="uni044B" unicode="&#x44b;" horiz-adv-x="730" d="M84 0 L310 0 C416 0 481 73 481 171 C481 286 404 346 268 346 L163 346 L163 546 L84 546 L84 0 Z M261 279 C342 279 400 250 400 172 C400 104 357 67 283 67 L163 67 L163 279 L261 279 Z M565 0 L645 0 L645 546 L565 546 L565 0 Z " />
<glyph glyph-name="uni044C" unicode="&#x44c;" horiz-adv-x="517" d="M84 0 L310 0 C416 0 483 73 483 171 C483 286 404 346 268 346 L163 346 L163 546 L84 546 L84 0 Z M261 279 C342 279 402 250 402 172 C402 104 357 67 283 67 L163 67 L163 279 L261 279 Z " />
<glyph glyph-name="uni044D" unicode="&#x44d;" horiz-adv-x="499" d="M191 -11 C337 -11 446 91 446 274 C446 460 364 559 203 559 C134 559 82 544 45 527 L70 465 C95 475 140 494 201 494 C317 494 358 402 365 310 L137 310 L137 244 L365 244 C359 140 307 54 188 54 C127 54 87 74 62 86 L37 25 C69 9 123 -11 191 -11 L191 -11 Z " />
<glyph glyph-name="uni044E" unicode="&#x44e;" horiz-adv-x="823" d="M521 -9 C663 -9 770 81 770 273 C770 456 690 558 527 558 C393 558 293 470 279 307 L163 307 L163 546 L84 546 L84 0 L163 0 L163 240 L278 240 C286 78 377 -9 521 -9 L521 -9 Z M526 56 C397 56 357 158 357 272 C357 375 392 494 524 494 C659 494 690 374 690 273 C690 164 657 56 526 56 L526 56 Z " />
<glyph glyph-name="uni044F" unicode="&#x44f;" horiz-adv-x="551" d="M124 0 L261 198 C270 197 295 197 306 197 L387 197 L387 0 L466 0 L466 546 L277 546 C165 546 80 478 80 365 C80 291 122 236 187 216 C185 213 34 1 32 0 L124 0 Z M298 258 C222 258 161 288 161 364 C161 438 203 479 282 479 L387 479 L387 258 L298 258 Z " />
<glyph glyph-name="uni0450" unicode="&#x450;" horiz-adv-x="546" d="M313 -12 C382 -12 444 0 485 17 L471 81 C420 65 379 56 326 56 C222 56 136 89 134 258 L494 258 L494 287 C494 469 431 560 292 560 C159 560 54 475 54 262 C54 54 154 -12 313 -12 L313 -12 Z M135 317 C144 439 205 498 284 498 C373 498 412 428 412 317 L135 317 Z M327 619 L358 669 L169 799 L134 739 L327 619 Z " />
<glyph glyph-name="uni0451" unicode="&#x451;" horiz-adv-x="546" d="M201 669 L201 762 L124 762 L124 669 L201 669 Z M420 669 L420 762 L342 762 L342 669 L420 669 Z M313 -12 C382 -12 444 0 485 17 L471 81 C420 65 379 56 326 56 C222 56 136 89 134 258 L494 258 L494 287 C494 469 431 560 292 560 C159 560 54 475 54 262 C54 54 154 -12 313 -12 L313 -12 Z M135 317 C144 439 205 498 284 498 C373 498 412 428 412 317 L135 317 Z " />
<glyph glyph-name="uni0452" unicode="&#x452;" horiz-adv-x="604" d="M347 -220 C429 -152 542 7 542 237 C542 363 495 479 353 479 C271 479 201 430 163 404 L163 574 L354 574 L354 639 L163 639 L163 754 L84 754 L84 639 L-23 639 L-23 574 L84 574 L84 0 L163 0 L163 342 C187 357 259 408 337 408 C427 408 462 336 462 228 C462 43 384 -91 298 -169 L347 -220 Z " />
<glyph glyph-name="uni0453" unicode="&#x453;" horiz-adv-x="436" d="M174 618 L369 739 L334 795 L146 667 L174 618 Z M84 0 L163 0 L163 479 L424 479 L424 546 L84 546 L84 0 Z " />
<glyph glyph-name="uni0454" unicode="&#x454;" horiz-adv-x="498" d="M331 -11 C387 -11 436 2 456 7 L444 71 C422 68 383 58 339 58 C192 58 140 119 135 249 L367 249 L367 316 L136 316 C148 428 213 494 307 494 C367 494 404 479 433 467 L457 529 C429 544 383 560 308 560 C153 560 53 450 53 273 C53 74 137 -11 331 -11 L331 -11 Z " />
<glyph glyph-name="uni0455" unicode="&#x455;" horiz-adv-x="448" d="M195 -12 C292 -12 407 28 407 145 C407 326 134 289 134 414 C134 459 166 494 241 494 C281 494 326 485 361 471 L379 534 C340 551 285 560 242 560 C140 560 57 507 57 407 C57 227 332 262 332 140 C332 86 281 55 201 55 C154 55 103 65 55 79 L42 12 C82 -1 144 -12 195 -12 L195 -12 Z " />
<glyph glyph-name="uni0456" unicode="&#x456;" horiz-adv-x="249" d="M84 0 L164 0 L164 546 L84 546 L84 0 Z M162 669 L162 762 L85 762 L85 669 L162 669 Z " />
<glyph glyph-name="uni0457" unicode="&#x457;" horiz-adv-x="249" d="M50 669 L50 762 L-27 762 L-27 669 L50 669 Z M269 669 L269 762 L191 762 L191 669 L269 669 Z M84 0 L164 0 L164 546 L84 546 L84 0 Z " />
<glyph glyph-name="uni0458" unicode="&#x458;" horiz-adv-x="249" d="M-20 -224 C83 -224 164 -179 164 -19 L164 546 L84 546 L84 -18 C84 -101 62 -156 -19 -156 C-36 -156 -62 -152 -76 -148 L-90 -212 C-75 -218 -49 -224 -20 -224 L-20 -224 Z M162 669 L162 762 L85 762 L85 669 L162 669 Z " />
<glyph glyph-name="uni0459" unicode="&#x459;" horiz-adv-x="851" d="M35 -17 C102 5 146 40 176 98 C211 171 227 290 242 480 L418 480 L418 0 L643 0 C750 0 817 73 817 171 C817 286 737 346 602 346 L497 346 L497 546 L170 546 C164 358 144 200 110 135 C86 88 45 66 8 51 L35 -17 Z M595 279 C675 279 736 250 736 172 C736 104 690 67 616 67 L497 67 L497 279 L595 279 Z " />
<glyph glyph-name="uni045A" unicode="&#x45a;" horiz-adv-x="864" d="M84 0 L163 0 L163 257 L437 257 L437 0 L661 0 C766 0 832 69 832 161 C832 269 754 324 620 324 L515 324 L515 546 L437 546 L437 324 L163 324 L163 546 L84 546 L84 0 Z M612 257 C691 257 750 234 750 162 C750 99 705 67 633 67 L515 67 L515 257 L612 257 Z " />
<glyph glyph-name="uni045B" unicode="&#x45b;" horiz-adv-x="593" d="M84 0 L163 0 L163 342 C187 357 270 409 333 409 C433 409 446 362 446 267 L446 0 L522 0 L522 272 C522 366 514 479 354 479 C263 479 201 431 163 404 L163 574 L354 574 L354 639 L163 639 L163 754 L84 754 L84 639 L-23 639 L-23 574 L84 574 L84 0 Z " />
<glyph glyph-name="uni045C" unicode="&#x45c;" horiz-adv-x="537" d="M205 618 L400 739 L365 795 L177 667 L205 618 Z M531 0 L276 289 L499 546 L408 546 L190 284 L433 0 L531 0 Z M84 0 L163 0 L163 546 L84 546 L84 0 Z " />
<glyph glyph-name="uni045D" unicode="&#x45d;" horiz-adv-x="629" d="M84 0 L163 0 L426 371 L469 441 L466 372 L466 0 L545 0 L545 546 L466 546 L203 174 L161 104 L163 173 L163 546 L84 546 L84 0 Z M363 619 L394 669 L205 799 L170 739 L363 619 Z " />
<glyph glyph-name="uni045E" unicode="&#x45e;" horiz-adv-x="511" d="M156 -220 L232 -220 L499 546 L418 546 L284 154 L252 58 L221 156 L103 546 L17 546 L193 0 L230 0 L156 -220 Z M258 658 C324 658 381 693 416 745 L378 786 C338 739 297 725 258 725 C219 725 177 739 138 786 L100 745 C135 693 192 658 258 658 L258 658 Z " />
<glyph glyph-name="uni045F" unicode="&#x45f;" horiz-adv-x="600" d="M263 -147 L337 -147 L337 0 L515 0 L515 546 L437 546 L437 66 L163 66 L163 546 L84 546 L84 0 L263 0 L263 -147 Z " />
<glyph glyph-name="uni0462" unicode="&#x462;" horiz-adv-x="689" d="M193 0 L417 0 C567 0 652 78 652 199 C652 342 556 406 378 406 L275 406 L275 534 L498 534 L498 601 L275 601 L275 707 L193 707 L193 601 L2 601 L2 533 L193 533 L193 0 Z M377 338 C488 338 565 310 565 203 C565 113 510 67 401 67 L275 67 L275 338 L377 338 Z " />
<glyph glyph-name="uni0463" unicode="&#x463;" horiz-adv-x="599" d="M167 0 L392 0 C499 0 565 70 565 168 C565 283 486 339 350 339 L245 339 L245 479 L441 479 L441 546 L245 546 L245 707 L167 707 L167 546 L-5 546 L-5 479 L167 479 L167 0 Z M344 273 C424 273 485 245 485 169 C485 102 439 67 365 67 L245 67 L245 273 L344 273 Z " />
<glyph glyph-name="uni0472" unicode="&#x472;" horiz-adv-x="828" d="M406 -12 C632 -12 768 137 768 353 C768 559 648 717 420 717 C203 717 60 576 60 355 C60 139 186 -12 406 -12 L406 -12 Z M409 56 C242 56 153 178 143 326 L684 326 C674 172 586 56 409 56 L409 56 Z M416 649 C578 649 672 538 684 386 L143 386 C153 537 245 649 416 649 L416 649 Z " />
<glyph glyph-name="uni0473" unicode="&#x473;" horiz-adv-x="598" d="M296 -12 C439 -12 545 79 545 276 C545 456 462 560 307 560 C155 560 53 456 53 267 C53 88 146 -12 296 -12 L296 -12 Z M301 53 C183 53 139 143 133 245 L464 245 C459 147 422 53 301 53 L301 53 Z M301 495 C421 495 458 397 464 303 L134 303 C141 398 180 495 301 495 L301 495 Z " />
<glyph glyph-name="uni0474" unicode="&#x474;" horiz-adv-x="692" d="M264 0 L378 0 L584 517 C623 615 658 658 696 684 L637 731 C592 701 551 646 504 525 L324 65 L99 707 L9 707 L264 0 Z " />
<glyph glyph-name="uni0475" unicode="&#x475;" horiz-adv-x="543" d="M193 0 L305 0 L423 332 C456 426 493 486 539 518 L481 564 C436 534 390 463 357 366 L290 173 L251 55 L216 171 L102 546 L15 546 L193 0 Z " />
<glyph glyph-name="uni048A" unicode="&#x48a;" horiz-adv-x="808" d="M106 0 L188 0 L553 532 L595 602 L592 496 L592 0 L694 0 L656 -184 L731 -184 L789 68 L674 68 L674 707 L592 707 L248 210 L185 105 L188 211 L188 707 L106 707 L106 0 Z M400 759 C470 759 528 790 567 843 L526 884 C483 836 434 826 400 826 C366 826 316 836 274 884 L232 843 C272 790 330 759 400 759 L400 759 Z " />
<glyph glyph-name="uni048B" unicode="&#x48b;" horiz-adv-x="658" d="M84 0 L163 0 L426 371 L469 441 L466 372 L466 0 L551 0 L513 -184 L587 -184 L646 68 L545 68 L545 546 L466 546 L203 174 L161 104 L163 173 L163 546 L84 546 L84 0 Z M322 658 C388 658 445 693 480 745 L442 786 C402 739 361 725 322 725 C283 725 241 739 202 786 L164 745 C199 693 256 658 322 658 L322 658 Z " />
<glyph glyph-name="uni048C" unicode="&#x48c;" horiz-adv-x="637" d="M39 543 L140 543 L140 0 L365 0 C514 0 599 89 599 213 C599 360 501 432 324 432 L223 432 L223 543 L340 543 L340 606 L223 606 L223 707 L140 707 L140 606 L39 606 L39 543 Z M324 363 C435 363 512 327 512 217 C512 125 458 67 349 67 L223 67 L223 363 L324 363 Z " />
<glyph glyph-name="uni048D" unicode="&#x48d;" horiz-adv-x="549" d="M115 0 L341 0 C447 0 514 73 514 171 C514 286 435 346 299 346 L194 346 L194 419 L331 419 L331 474 L194 474 L194 546 L115 546 L115 474 L33 474 L33 419 L115 419 L115 0 Z M292 279 C373 279 433 250 433 172 C433 104 388 67 314 67 L194 67 L194 279 L292 279 Z " />
<glyph glyph-name="uni048E" unicode="&#x48e;" horiz-adv-x="615" d="M106 0 L188 0 L188 255 L284 255 C341 255 388 264 427 280 L499 207 L542 249 L482 311 C538 353 565 416 565 486 C565 629 477 707 336 707 L106 707 L106 0 Z M325 384 L373 334 C349 327 320 324 290 324 L188 324 L188 640 L314 640 C425 640 478 589 478 481 C478 428 460 390 430 364 L370 427 L325 384 Z " />
<glyph glyph-name="uni048F" unicode="&#x48f;" horiz-adv-x="592" d="M84 -220 L163 -220 L163 -2 C188 -6 232 -11 267 -11 C315 -11 362 -2 402 17 L457 -38 L499 5 L454 51 C504 97 536 171 536 282 C536 460 454 558 323 558 C256 558 211 534 163 501 L163 546 L84 546 L84 -220 Z M307 112 L349 69 C326 60 298 55 266 55 C223 55 179 64 163 66 L163 438 C192 457 242 490 307 490 C424 490 456 378 456 277 C456 205 440 144 402 105 L353 156 L307 112 Z " />
<glyph glyph-name="uni0490" unicode="&#x490;" horiz-adv-x="520" d="M106 0 L188 0 L188 640 L514 640 L514 868 L434 868 L434 707 L106 707 L106 0 Z " />
<glyph glyph-name="uni0491" unicode="&#x491;" horiz-adv-x="436" d="M84 0 L163 0 L163 479 L424 479 L423 660 L348 660 L348 546 L84 546 L84 0 Z " />
<glyph glyph-name="uni0492" unicode="&#x492;" horiz-adv-x="560" d="M52 317 L133 317 L133 0 L215 0 L215 317 L390 317 L390 383 L215 383 L215 640 L549 640 L549 707 L133 707 L133 383 L52 383 L52 317 Z " />
<glyph glyph-name="uni0493" unicode="&#x493;" horiz-adv-x="459" d="M36 236 L101 236 L101 0 L180 0 L180 236 L324 236 L324 300 L180 300 L180 479 L441 479 L441 546 L101 546 L101 300 L36 300 L36 236 Z " />
<glyph glyph-name="uni0494" unicode="&#x494;" horiz-adv-x="641" d="M378 -220 C508 -100 593 27 593 201 C593 319 537 420 388 420 C315 420 250 401 188 378 L188 637 L492 637 L492 707 L106 707 L106 0 L188 0 L188 306 C243 335 316 352 369 352 C459 352 510 294 510 197 C510 1 363 -136 329 -162 L378 -220 Z " />
<glyph glyph-name="uni0495" unicode="&#x495;" horiz-adv-x="551" d="M84 0 L163 0 L163 244 C196 266 234 289 294 289 C384 289 421 228 421 119 C421 -45 365 -103 273 -180 L316 -230 C400 -172 501 -70 501 129 C501 254 453 359 312 359 C249 359 198 334 163 308 L163 479 L459 479 L459 546 L84 546 L84 0 Z " />
<glyph glyph-name="uni0496" unicode="&#x496;" horiz-adv-x="950" d="M797 0 L864 0 L864 -153 L945 -153 L945 68 L852 68 L619 375 L879 707 L778 707 L525 378 L525 363 L797 0 Z M13 0 L120 0 L392 363 L392 378 L140 707 L38 707 L298 375 L13 0 Z M417 0 L500 0 L500 707 L417 707 L417 0 Z " />
<glyph glyph-name="uni0497" unicode="&#x497;" horiz-adv-x="816" d="M346 0 L425 0 L425 546 L346 546 L346 0 Z M814 -153 L814 65 L792 65 C706 65 690 73 634 147 L530 286 L736 546 L645 546 L439 282 L583 93 C647 10 679 1 734 -1 L734 -153 L814 -153 Z M103 0 L329 282 L127 546 L36 546 L243 286 L16 0 L103 0 Z " />
<glyph glyph-name="uni0498" unicode="&#x498;" horiz-adv-x="553" d="M243 -8 C432 -8 493 102 493 197 C493 320 385 351 353 359 L353 361 C383 376 462 423 462 537 C462 636 386 711 248 711 C166 711 109 689 65 669 L91 610 C129 624 177 643 240 643 C326 643 378 600 378 520 C378 437 319 389 227 389 L153 389 L153 322 L227 322 C329 322 408 291 408 196 C408 98 331 63 238 63 C173 63 112 80 65 102 L36 36 C78 16 142 -8 243 -8 L243 -8 Z M219 -240 C297 -207 326 -162 325 -118 C325 -95 316 -71 305 -51 L228 -51 C241 -75 252 -97 252 -118 C252 -144 235 -169 193 -195 L219 -240 Z " />
<glyph glyph-name="uni0499" unicode="&#x499;" horiz-adv-x="460" d="M209 -9 C355 -9 409 77 409 153 C409 238 347 277 297 288 C345 308 384 354 384 420 C384 488 335 558 213 558 C161 558 100 546 55 523 L75 464 C110 478 150 492 202 492 C271 492 304 456 304 407 C304 362 274 311 190 311 L132 311 L132 249 L191 249 C264 249 326 229 326 157 C326 88 272 57 206 57 C152 57 101 71 57 94 L31 31 C87 3 148 -9 209 -9 L209 -9 Z M181 -240 C259 -207 288 -162 287 -118 C287 -95 278 -71 267 -51 L190 -51 C203 -75 214 -97 214 -118 C214 -144 197 -169 155 -195 L181 -240 Z " />
<glyph glyph-name="uni049A" unicode="&#x49a;" horiz-adv-x="658" d="M510 0 L573 0 L573 -153 L653 -153 L653 68 L562 68 L305 380 L598 707 L494 707 L214 385 L214 370 L510 0 Z M106 0 L188 0 L188 707 L106 707 L106 0 Z " />
<glyph glyph-name="uni049B" unicode="&#x49b;" horiz-adv-x="566" d="M84 0 L163 0 L163 546 L84 546 L84 0 Z M563 -153 L563 64 L544 64 C471 64 427 110 390 153 L274 287 L499 546 L407 546 L186 283 L343 93 C404 20 453 6 483 1 L483 -153 L563 -153 Z " />
<glyph glyph-name="uni049C" unicode="&#x49c;" horiz-adv-x="692" d="M220 275 L273 275 L273 462 L220 462 L220 275 Z M571 0 L679 0 L378 380 L661 707 L557 707 L287 385 L287 370 L571 0 Z M106 0 L188 0 L188 707 L106 707 L106 0 Z " />
<glyph glyph-name="uni049D" unicode="&#x49d;" horiz-adv-x="556" d="M438 0 L523 0 L342 287 L529 546 L448 546 L262 283 L438 0 Z M84 0 L163 0 L163 546 L84 546 L84 0 Z M196 193 L248 193 L248 373 L196 373 L196 193 Z " />
<glyph glyph-name="uni049E" unicode="&#x49e;" horiz-adv-x="650" d="M531 0 L639 0 L326 380 L619 707 L515 707 L235 385 L235 370 L531 0 Z M127 0 L209 0 L209 552 L328 552 L328 610 L209 610 L209 707 L127 707 L127 610 L35 610 L35 552 L127 552 L127 0 Z " />
<glyph glyph-name="uni049F" unicode="&#x49f;" horiz-adv-x="556" d="M103 0 L182 0 L182 418 L263 418 L263 472 L182 472 L182 546 L103 546 L103 472 L30 472 L30 418 L103 418 L103 0 Z M550 0 L295 289 L518 546 L427 546 L209 284 L452 0 L550 0 Z " />
<glyph glyph-name="uni04A0" unicode="&#x4a0;" horiz-adv-x="720" d="M197 0 L279 0 L279 707 L-14 707 L-14 637 L197 637 L197 0 Z M601 0 L709 0 L396 380 L689 707 L585 707 L305 385 L305 370 L601 0 Z " />
<glyph glyph-name="uni04A1" unicode="&#x4a1;" horiz-adv-x="630" d="M600 -8 L617 51 C583 60 535 93 483 153 L367 287 L593 546 L500 546 L279 283 L436 93 C508 7 563 -6 600 -8 L600 -8 Z M178 479 L178 0 L256 0 L256 546 L-8 546 L-8 479 L178 479 Z " />
<glyph glyph-name="uni04A2" unicode="&#x4a2;" horiz-adv-x="793" d="M106 0 L188 0 L188 321 L576 321 L576 0 L673 0 L673 -153 L754 -153 L754 68 L658 68 L658 707 L576 707 L576 389 L188 389 L188 707 L106 707 L106 0 Z " />
<glyph glyph-name="uni04A3" unicode="&#x4a3;" horiz-adv-x="637" d="M84 0 L163 0 L163 240 L446 240 L446 0 L539 0 L539 -153 L619 -153 L619 68 L525 68 L525 546 L446 546 L446 307 L163 307 L163 546 L84 546 L84 0 Z " />
<glyph glyph-name="uni04A4" unicode="&#x4a4;" horiz-adv-x="855" d="M106 0 L188 0 L188 321 L576 321 L576 0 L658 0 L658 637 L868 637 L868 707 L576 707 L576 389 L188 389 L188 707 L106 707 L106 0 Z " />
<glyph glyph-name="uni04A5" unicode="&#x4a5;" horiz-adv-x="764" d="M446 0 L525 0 L525 479 L785 479 L785 546 L446 546 L446 307 L163 307 L163 546 L84 546 L84 0 L163 0 L163 240 L446 240 L446 0 Z " />
<glyph glyph-name="uni04A6" unicode="&#x4a6;" horiz-adv-x="1095" d="M837 -220 C967 -100 1052 35 1052 208 C1052 327 996 428 847 428 C774 428 709 408 648 386 L648 707 L106 707 L106 0 L188 0 L188 639 L566 639 L566 0 L648 0 L648 314 C703 343 775 359 828 359 C918 359 969 302 969 205 C969 -11 822 -136 788 -162 L837 -220 Z " />
<glyph glyph-name="uni04A7" unicode="&#x4a7;" horiz-adv-x="891" d="M84 0 L163 0 L163 480 L436 480 L436 0 L515 0 L515 252 C547 274 586 295 644 295 C732 295 769 232 769 124 C769 -41 713 -103 621 -180 L665 -230 C748 -172 850 -65 850 133 C850 258 802 365 658 365 C599 365 550 339 515 314 L515 546 L84 546 L84 0 Z " />
<glyph glyph-name="uni04A8" unicode="&#x4a8;" horiz-adv-x="787" d="M674 -142 C730 -142 770 -132 800 -122 L787 -58 C762 -64 726 -74 682 -74 C610 -74 548 -47 502 -4 C663 24 744 125 744 270 C744 382 663 473 543 473 C400 473 327 370 327 243 C327 173 342 110 367 56 C217 77 142 208 142 356 C142 522 235 647 418 647 C499 647 548 637 606 611 L631 677 C591 696 530 717 426 717 C207 717 60 576 60 355 C60 139 186 -12 406 -12 L409 -12 C472 -93 567 -142 674 -142 L674 -142 Z M404 242 C404 326 442 407 536 407 C601 407 667 361 667 255 C667 147 609 67 454 55 C422 107 404 172 404 242 L404 242 Z " />
<glyph glyph-name="uni04A9" unicode="&#x4a9;" horiz-adv-x="584" d="M253 174 C253 127 259 87 270 52 C166 69 133 168 133 272 C133 382 175 495 304 495 C361 495 400 478 427 465 L452 527 C424 542 377 560 303 560 C158 560 53 456 53 267 C53 88 145 -12 296 -12 L298 -12 C341 -80 407 -111 476 -111 C528 -111 570 -100 596 -90 L584 -31 C561 -38 525 -47 485 -47 C442 -47 404 -32 376 -1 C467 25 541 99 541 221 C541 318 479 372 401 372 C331 372 253 327 253 174 L253 174 Z M322 179 C322 284 361 314 399 314 C436 314 471 291 471 215 C471 132 428 68 343 53 C329 86 322 128 322 179 L322 179 Z " />
<glyph glyph-name="uni04AA" unicode="&#x4aa;" horiz-adv-x="677" d="M427 -12 C528 -12 583 5 629 22 L609 88 C565 72 509 62 443 62 C281 62 145 148 145 359 C145 565 277 645 425 645 C506 645 552 629 603 611 L628 677 C588 696 526 717 423 717 C195 717 60 569 60 349 C60 138 193 -12 427 -12 L427 -12 Z M370 -240 C448 -207 477 -162 476 -118 C476 -95 467 -71 456 -51 L379 -51 C392 -75 403 -97 403 -118 C403 -144 386 -169 344 -195 L370 -240 Z " />
<glyph glyph-name="uni04AB" unicode="&#x4ab;" horiz-adv-x="497" d="M325 -12 C386 -12 423 -2 456 9 L444 73 C410 64 381 56 333 56 C184 56 134 131 134 266 C134 418 198 491 312 491 C367 491 411 473 433 464 L457 527 C430 542 380 560 312 560 C153 560 53 458 53 262 C53 76 140 -12 325 -12 L325 -12 Z M248 -240 C326 -207 355 -162 354 -118 C354 -95 345 -71 334 -51 L257 -51 C270 -75 281 -97 281 -118 C281 -144 264 -169 222 -195 L248 -240 Z " />
<glyph glyph-name="uni04AC" unicode="&#x4ac;" horiz-adv-x="593" d="M251 0 L388 0 L388 -153 L468 -153 L468 68 L333 68 L333 637 L575 637 L575 707 L9 707 L9 637 L251 637 L251 0 Z " />
<glyph glyph-name="uni04AD" unicode="&#x4ad;" horiz-adv-x="489" d="M201 0 L317 0 L317 -153 L396 -153 L396 68 L279 68 L279 479 L465 479 L465 546 L15 546 L15 479 L201 479 L201 0 Z " />
<glyph glyph-name="uni04AE" unicode="&#x4ae;" horiz-adv-x="553" d="M229 0 L311 0 L311 268 L557 707 L469 707 L273 341 L91 707 L-2 707 L229 268 L229 0 Z " />
<glyph glyph-name="uni04AF" unicode="&#x4af;" horiz-adv-x="509" d="M206 -220 L286 -220 L286 -6 L499 546 L418 546 L288 204 L249 85 L214 201 L100 546 L13 546 L206 -1 L206 -220 Z " />
<glyph glyph-name="uni04B0" unicode="&#x4b0;" horiz-adv-x="583" d="M97 221 L246 221 L246 0 L328 0 L328 221 L476 221 L476 290 L340 290 L574 707 L486 707 L290 341 L108 707 L15 707 L234 290 L97 290 L97 221 Z " />
<glyph glyph-name="uni04B1" unicode="&#x4b1;" horiz-adv-x="544" d="M62 0 L224 0 L225 -1 L225 -220 L305 -220 L305 -6 L307 0 L474 0 L474 67 L333 67 L518 546 L437 546 L307 204 L268 85 L233 201 L119 546 L32 546 L201 67 L62 67 L62 0 Z " />
<glyph glyph-name="uni04B2" unicode="&#x4b2;" horiz-adv-x="654" d="M10 0 L104 0 L303 310 L489 0 L563 0 L563 -153 L644 -153 L644 68 L542 68 L351 376 L569 707 L480 707 L308 440 L147 707 L53 707 L259 374 L10 0 Z " />
<glyph glyph-name="uni04B3" unicode="&#x4b3;" horiz-adv-x="541" d="M16 0 L109 0 L251 224 L391 0 L456 0 L456 -153 L537 -153 L537 68 L440 68 L296 281 L472 546 L384 546 L251 335 L119 546 L27 546 L206 279 L16 0 Z " />
<glyph glyph-name="uni04B4" unicode="&#x4b4;" horiz-adv-x="914" d="M791 -153 L871 -153 L871 68 L778 68 L778 707 L696 707 L696 68 L327 68 L327 637 L563 637 L563 707 L9 707 L9 637 L245 637 L245 0 L791 0 L791 -153 Z " />
<glyph glyph-name="uni04B5" unicode="&#x4b5;" horiz-adv-x="742" d="M634 -147 L708 -147 L708 66 L630 66 L630 546 L551 546 L551 66 L279 66 L279 546 L15 546 L15 479 L201 479 L201 0 L634 0 L634 -147 Z " />
<glyph glyph-name="uni04B6" unicode="&#x4b6;" horiz-adv-x="680" d="M465 0 L570 0 L570 -153 L650 -153 L650 68 L547 68 L547 707 L465 707 L465 396 C406 364 335 349 292 349 C234 349 134 357 134 466 L134 707 L52 707 L52 467 C52 371 92 281 262 281 C326 281 403 298 465 323 L465 0 Z " />
<glyph glyph-name="uni04B7" unicode="&#x4b7;" horiz-adv-x="566" d="M377 0 L467 0 L467 -153 L548 -153 L548 68 L455 68 L455 546 L377 546 L377 305 C339 292 295 278 240 278 C138 278 124 319 124 380 L124 546 L45 546 L45 371 C45 273 79 211 213 211 C279 211 328 225 377 239 L377 0 Z " />
<glyph glyph-name="uni04B8" unicode="&#x4b8;" horiz-adv-x="653" d="M465 0 L547 0 L547 707 L465 707 L465 396 C416 369 358 354 316 350 L316 418 L264 418 L264 349 C206 353 134 373 134 466 L134 707 L52 707 L52 467 C52 371 92 281 262 281 L264 281 L264 217 L316 217 L316 284 C366 290 419 305 465 323 L465 0 Z " />
<glyph glyph-name="uni04B9" unicode="&#x4b9;" horiz-adv-x="540" d="M377 0 L455 0 L455 546 L377 546 L377 305 C345 294 309 282 267 279 L267 341 L215 341 L215 279 C135 285 124 324 124 380 L124 546 L45 546 L45 371 C45 273 79 211 213 211 L215 211 L215 140 L267 140 L267 214 C307 219 342 229 377 239 L377 0 Z " />
<glyph glyph-name="uni04BA" unicode="&#x4ba;" horiz-adv-x="646" d="M106 0 L188 0 L188 319 C247 351 314 366 357 366 C416 366 511 358 511 249 L511 0 L593 0 L593 248 C593 344 547 438 377 438 C313 438 249 418 188 392 L188 707 L106 707 L106 0 Z " />
<glyph glyph-name="uni04BB" unicode="&#x4bb;" horiz-adv-x="602" d="M84 0 L163 0 L163 422 C210 452 269 489 339 489 C430 489 446 431 446 336 L446 0 L522 0 L522 352 C522 443 513 559 357 559 C270 559 208 516 163 483 L163 754 L84 754 L84 0 Z " />
<glyph glyph-name="uni04BC" unicode="&#x4bc;" horiz-adv-x="907" d="M854 331 L854 387 C853 564 747 717 535 717 C331 717 218 586 203 396 C122 398 100 426 100 487 C100 516 109 553 122 593 L57 593 C41 549 32 508 32 472 C32 387 81 333 201 331 C208 128 321 -12 530 -12 C650 -12 758 30 818 63 L795 124 C747 100 647 56 540 56 C383 56 292 163 286 331 L854 331 Z M533 649 C691 649 765 542 771 396 L287 396 C299 570 381 649 533 649 L533 649 Z " />
<glyph glyph-name="uni04BD" unicode="&#x4bd;" horiz-adv-x="658" d="M424 -12 C493 -12 555 0 596 17 L582 81 C531 65 490 56 437 56 C333 56 247 89 245 258 L605 258 L605 287 C605 469 542 560 403 560 C283 560 186 491 168 323 C116 334 101 364 101 414 C101 444 110 481 124 520 L59 520 C43 477 34 436 34 400 C34 324 73 273 165 261 C165 54 265 -12 424 -12 L424 -12 Z M246 317 C255 439 316 498 395 498 C484 498 523 428 523 317 L246 317 Z " />
<glyph glyph-name="uni04BE" unicode="&#x4be;" horiz-adv-x="907" d="M854 331 L854 387 C853 564 747 717 535 717 C331 717 218 586 203 396 C122 398 100 426 100 487 C100 516 109 553 122 593 L57 593 C41 549 32 508 32 472 C32 387 81 333 201 331 C208 130 319 -9 523 -12 C487 -44 460 -82 460 -123 C460 -180 493 -230 576 -230 C616 -230 644 -219 658 -210 L641 -156 C629 -162 613 -168 593 -168 C558 -168 533 -151 533 -113 C533 -70 577 -30 624 -3 C705 10 774 39 818 63 L795 124 C747 100 647 56 540 56 C383 56 292 163 286 331 L854 331 Z M533 649 C691 649 765 542 771 396 L287 396 C299 570 381 649 533 649 L533 649 Z " />
<glyph glyph-name="uni04BF" unicode="&#x4bf;" horiz-adv-x="658" d="M526 -210 L509 -156 C497 -162 481 -168 461 -168 C426 -168 401 -151 401 -113 C401 -73 440 -36 483 -9 C528 -4 567 5 596 17 L582 81 C531 65 490 56 437 56 C333 56 247 89 245 258 L605 258 L605 287 C605 469 542 560 403 560 C283 560 186 491 168 323 C116 334 101 364 101 414 C101 444 110 481 124 520 L59 520 C43 477 34 436 34 400 C34 324 73 273 165 261 C165 68 252 -2 392 -11 C355 -43 328 -82 328 -123 C328 -180 361 -230 444 -230 C484 -230 512 -219 526 -210 L526 -210 Z M246 317 C255 439 316 498 395 498 C484 498 523 428 523 317 L246 317 Z " />
</font>
</defs>
</svg>
