<?xml version="1.0" encoding="UTF-8"?>
<svg xmlns="http://www.w3.org/2000/svg" xmlns:xlink="http://www.w3.org/1999/xlink" version="1.2" >
<font id="Times New Roman Italic">
<font-face  font-family="Times New Roman" units-per-em="2048" ascent="1422" descent="-442" font-style="italic" font-weight="400" font-stretch="normal" slope="-16.333" cap-height="1356" x-height="881" underline-position="-223" underline-thickness="100" />
<missing-glyph  horiz-adv-x="1593" d="M284 0 L284 1280 L1308 1280 L1308 0 L284 0 Z M316 32 L1276 32 L1276 1248 L316 1248 L316 32 Z " />
<glyph glyph-name="&amp;#x20;" unicode="&#x20;" horiz-adv-x="512" d="" />
<glyph glyph-name="&amp;#xa0;" unicode="&#xa0;" horiz-adv-x="512" d="" />
<glyph glyph-name="exclam" unicode="&#x21;" horiz-adv-x="682" d="M323 330 L285 330 Q334 511 354 606.5 Q374 702 399 856 Q449 1174 460 1227 Q480 1317 525 1364 Q546 1387 583 1387 Q611 1387 630.5 1365 Q650 1343 650 1306 Q650 1265 631 1202 Q590 1064 469 749 Q411 600 405 583 Q386 527 323 330 Z M256 172 Q299 172 329 142 Q359 112 359 69 Q359 27 329 -3 Q299 -33 256 -33 Q214 -33 184 -3 Q154 27 154 69 Q154 112 184 142 Q214 172 256 172 Z " />
<glyph glyph-name="quotedbl" unicode="&#x22;" horiz-adv-x="860" d="M661 803 L690 1095 Q702 1209 706 1229 Q720 1293 740 1327 Q756 1352 786.5 1369.5 Q817 1387 852 1387 Q887 1387 906.5 1368 Q926 1349 926 1318 Q926 1292 912 1252 Q874 1147 849 1096 L708 803 L661 803 Z M294 803 L325 1099 Q338 1226 351 1270 Q370 1332 405.5 1359.5 Q441 1387 483 1387 Q518 1387 538.5 1367 Q559 1347 559 1317 Q559 1293 549 1264 Q535 1222 476 1098 L337 803 L294 803 Z " />
<glyph glyph-name="numbersign" unicode="&#x23;" horiz-adv-x="1024" d="M225 -28 L318 427 L147 427 L147 509 L334 509 L403 852 L147 852 L147 932 L422 932 L513 1387 L596 1387 L505 932 L842 932 L939 1387 L1022 1387 L927 932 L1097 932 L1097 852 L912 852 L842 509 L1097 509 L1097 427 L825 427 L732 -28 L651 -28 L742 427 L403 427 L308 -28 L225 -28 Z M418 509 L757 509 L829 852 L488 852 L418 509 Z " />
<glyph glyph-name="dollar" unicode="&#x24;" horiz-adv-x="1024" d="M780 1284 L641 804 Q797 681 860 574 Q904 498 904 403 Q904 291 839.5 186 Q775 81 669 30.5 Q563 -20 399 -18 L367 -135 L301 -135 L336 -18 Q256 -2 202.5 22 Q149 46 86 95 L168 378 L209 378 Q198 314 198 271 Q198 194 240.5 133 Q283 72 359 46 L533 658 Q399 763 346 848.5 Q293 934 293 1031 Q293 1181 404.5 1271.5 Q516 1362 646 1362 Q679 1362 735 1356 L758 1434 L822 1434 L796 1347 Q865 1327 906 1303.5 Q947 1280 1001 1232 L935 991 L894 991 Q898 1037 898 1065 Q898 1149 859 1214 Q836 1252 780 1284 Z M720 1302 Q675 1309 650 1309 Q564 1309 502 1244.5 Q440 1180 440 1083 Q440 1027 471 973.5 Q502 920 589 843 L720 1302 Z M415 37 Q445 34 460 34 Q528 34 604.5 72 Q681 110 722.5 180 Q764 250 764 328 Q764 394 725.5 459.5 Q687 525 585 613 L415 37 Z " />
<glyph glyph-name="percent" unicode="&#x25;" horiz-adv-x="1706" d="M1673 1387 L239 -54 L144 -54 L1578 1387 L1673 1387 Z M541 1387 Q635 1387 704 1312 Q773 1237 773 1115 Q773 929 651 795 Q529 661 392 661 Q291 661 221 737.5 Q151 814 151 934 Q151 1115 276.5 1251 Q402 1387 541 1387 Z M548 1344 Q499 1344 458 1305 Q386 1239 333 1091 Q280 943 280 818 Q280 764 310 731.5 Q340 699 382 699 Q425 699 457 729 Q528 795 587.5 942.5 Q647 1090 647 1222 Q647 1278 617.5 1311 Q588 1344 548 1344 Z M1432 669 Q1529 669 1599 593.5 Q1669 518 1669 393 Q1669 279 1611.5 172 Q1554 65 1462.5 5 Q1371 -55 1287 -55 Q1187 -55 1117.5 19 Q1048 93 1048 209 Q1048 394 1172.5 531.5 Q1297 669 1432 669 Z M1444 628 Q1393 628 1355 592 Q1287 529 1230.5 378 Q1174 227 1174 106 Q1174 51 1203.5 18 Q1233 -15 1273 -15 Q1321 -15 1355 18 Q1426 85 1483 234 Q1540 383 1540 500 Q1540 561 1511.5 594.5 Q1483 628 1444 628 Z " />
<glyph glyph-name="ampersand" unicode="&#x26;" horiz-adv-x="1593" d="M1077 711 L1482 711 L1482 673 Q1394 661 1339 625 Q1284 589 1209 481 Q1110 337 1045 252 Q1164 51 1302 51 Q1387 51 1456 124 L1501 124 Q1441 42 1374 5.5 Q1307 -31 1215 -31 Q1119 -31 1049 4.5 Q979 40 910 124 Q799 41 698.5 5 Q598 -31 476 -31 Q295 -31 196.5 63 Q98 157 98 308 Q98 487 249 623 Q348 711 652 814 Q647 852 644.5 885.5 Q642 919 642 947 Q642 1151 749 1269 Q856 1387 1007 1387 Q1109 1387 1168.5 1330.5 Q1228 1274 1228 1189 Q1228 1082 1142 984 Q1056 886 834 814 Q906 516 1011 315 Q1166 502 1166 614 Q1166 638 1147 654 Q1128 670 1077 673 L1077 711 Z M821 878 Q973 943 1026 1002 Q1099 1084 1099 1181 Q1099 1245 1064 1282 Q1029 1319 973 1319 Q901 1319 851 1256 Q801 1193 801 1048 Q801 1014 806 971.5 Q811 929 821 878 Z M662 751 Q469 679 384 574.5 Q299 470 299 358 Q299 232 379.5 149.5 Q460 67 589 67 Q660 67 716.5 88.5 Q773 110 872 180 Q808 280 748.5 441 Q689 602 662 751 Z " />
<glyph glyph-name="quotesingle" unicode="&#x27;" horiz-adv-x="438" d="M269 803 L300 1099 Q313 1225 326 1269 Q345 1332 379.5 1359.5 Q414 1387 457 1387 Q493 1387 514 1367 Q535 1347 535 1316 Q535 1293 525 1265 Q512 1227 451 1098 L313 803 L269 803 Z " />
<glyph glyph-name="parenleft" unicode="&#x28;" horiz-adv-x="682" d="M385 -422 L351 -438 Q232 -211 180 -37 Q140 99 140 237 Q140 559 289 814 Q472 1126 882 1422 L906 1387 Q721 1250 604 1080 Q458 868 365 568 Q272 268 272 22 Q272 -166 385 -422 Z " />
<glyph glyph-name="parenright" unicode="&#x29;" horiz-adv-x="682" d="M298 1403 L332 1422 Q451 1196 502 1022 Q543 886 543 748 Q543 425 394 171 Q210 -142 -199 -438 L-223 -407 Q-38 -269 79 -100 Q225 112 318 412.5 Q411 713 411 959 Q411 1147 298 1403 Z " />
<glyph glyph-name="asterisk" unicode="&#x2a;" horiz-adv-x="1024" d="M639 1044 Q635 1113 611 1181 Q577 1279 577 1316 Q577 1368 601.5 1395 Q626 1422 662 1422 Q693 1422 716 1395 Q739 1368 739 1318 Q739 1273 712.5 1192.5 Q686 1112 680 1044 Q735 1079 779 1129 Q847 1208 880 1227 Q913 1246 947 1246 Q980 1246 1002.5 1223.5 Q1025 1201 1025 1170 Q1025 1133 992 1104 Q959 1075 827 1046 Q750 1029 699 1007 Q751 980 826 966 Q947 944 984.5 911 Q1022 878 1022 839 Q1022 809 999.5 787 Q977 765 947 765 Q917 765 880.5 786 Q844 807 782 880 Q741 929 680 972 Q682 915 703 848 Q739 730 739 687 Q739 647 715 619.5 Q691 592 664 592 Q627 592 597 621 Q576 642 576 688 Q576 736 599 803.5 Q622 871 628 896.5 Q634 922 639 972 Q580 933 536 885 Q463 803 426 781 Q400 765 372 765 Q338 765 314 788 Q290 811 290 839 Q290 864 310.5 891.5 Q331 919 372 937 Q399 949 495 969 Q557 982 616 1007 Q562 1034 487 1049 Q364 1075 335 1096 Q290 1129 290 1176 Q290 1203 312.5 1225.5 Q335 1248 365 1248 Q398 1248 435 1227 Q472 1206 527 1142.5 Q582 1079 639 1044 Z " />
<glyph glyph-name="plus" unicode="&#x2b;" horiz-adv-x="1382" d="M687 141 L687 640 L190 640 L190 722 L687 722 L687 1219 L769 1219 L769 722 L1268 722 L1268 640 L769 640 L769 141 L687 141 Z " />
<glyph glyph-name="comma" unicode="&#x2c;" horiz-adv-x="512" d="M-21 -225 Q54 -191 101 -139 Q137 -99 137 -62 Q137 -44 131 -29 Q127 -21 103 3 Q79 27 76 36 Q69 53 69 75 Q69 118 98.5 149 Q128 180 168 180 Q209 180 240.5 147 Q272 114 272 64 Q272 -25 202 -116 Q132 -207 -1 -257 L-21 -225 Z " />
<glyph glyph-name="&amp;#x2d;" unicode="&#x2d;" horiz-adv-x="682" d="M613 511 L572 378 L54 378 L95 511 L613 511 Z " />
<glyph glyph-name="&amp;#xad;" unicode="&#xad;" horiz-adv-x="682" d="M613 511 L572 378 L54 378 L95 511 L613 511 Z " />
<glyph glyph-name="period" unicode="&#x2e;" horiz-adv-x="512" d="M170 179 Q213 179 242.5 149.5 Q272 120 272 78 Q272 36 242 6.5 Q212 -23 170 -23 Q128 -23 98.5 6.5 Q69 36 69 78 Q69 120 98.5 149.5 Q128 179 170 179 Z " />
<glyph glyph-name="slash" unicode="&#x2f;" horiz-adv-x="569" d="M781 1422 L19 -31 L-69 -31 L698 1422 L781 1422 Z " />
<glyph glyph-name="zero" unicode="0" horiz-adv-x="1024" d="M708 1384 Q836 1384 923.5 1277 Q1011 1170 1011 939 Q1011 741 946 535 Q881 329 763 178 Q669 59 566 6 Q506 -24 427 -24 Q297 -24 209.5 83 Q122 190 122 422 Q122 651 210 882 Q313 1152 473 1292 Q578 1384 708 1384 Z M709 1332 Q651 1332 591.5 1286.5 Q532 1241 468.5 1097 Q405 953 347 726 Q272 429 272 220 Q272 116 317 64.5 Q362 13 426 13 Q487 13 530 53 Q645 161 727 422 Q860 849 860 1116 Q860 1227 815 1279.5 Q770 1332 709 1332 Z " />
<glyph glyph-name="one" unicode="1" horiz-adv-x="1024" d="M855 1384 L533 263 Q505 164 505 120 Q505 83 530.5 63.5 Q556 44 650 37 L640 0 L125 0 L139 37 Q221 39 247 50 Q289 68 310 98 Q343 144 377 263 L609 1068 Q630 1141 632 1152 Q635 1172 635 1191 Q635 1226 616 1246 Q597 1266 564 1266 Q538 1266 483 1254 L470 1290 L807 1384 L855 1384 Z " />
<glyph glyph-name="two" unicode="2" horiz-adv-x="1024" d="M707 0 L32 0 L32 37 Q548 489 714 746 Q791 865 791 996 Q791 1100 727 1165.5 Q663 1231 561 1231 Q420 1231 329 1096 L294 1112 Q345 1241 443 1312.5 Q541 1384 655 1384 Q784 1384 872 1295.5 Q960 1207 960 1081 Q960 993 929 918 Q881 801 752 656 Q556 434 229 145 L569 145 Q651 145 704 179 Q757 213 780 270 L820 270 L707 0 Z " />
<glyph glyph-name="three" unicode="3" horiz-adv-x="1024" d="M313 741 L313 770 Q555 807 674 914 Q760 990 760 1095 Q760 1174 710 1225.5 Q660 1277 589 1277 Q477 1277 390 1138 L353 1149 Q405 1265 486.5 1324.5 Q568 1384 665 1384 Q783 1384 856 1313.5 Q929 1243 929 1135 Q929 1043 860.5 958 Q792 873 625 806 Q729 763 782 682.5 Q835 602 835 489 Q835 364 763 238.5 Q691 113 565.5 44.5 Q440 -24 302 -24 Q176 -24 111 20 Q68 50 68 90 Q68 125 93.5 150 Q119 175 156 175 Q182 175 208 167 Q224 162 286.5 127 Q349 92 384 80.5 Q419 69 456 69 Q546 69 604.5 173.5 Q663 278 663 396 Q663 492 623.5 567 Q584 642 499 688.5 Q414 735 313 741 Z " />
<glyph glyph-name="four" unicode="4" horiz-adv-x="1024" d="M997 1356 L738 464 L900 464 L864 340 L700 340 L595 -24 L448 -24 L554 340 L64 340 L106 480 L921 1356 L997 1356 Z M775 1098 L192 464 L593 464 L775 1098 Z " />
<glyph glyph-name="five" unicode="5" horiz-adv-x="1024" d="M528 1356 L981 1356 L935 1191 L528 1191 L453 1024 Q615 998 705 923 Q844 806 844 596 Q844 457 792.5 344.5 Q741 232 666.5 156 Q592 80 507 36 Q391 -24 273 -24 Q172 -24 113 20 Q73 50 73 96 Q73 132 99 157.5 Q125 183 163 183 Q216 183 281 130 Q321 97 347 86 Q368 77 397 77 Q510 77 605 189.5 Q700 302 700 482 Q700 607 649.5 695 Q599 783 521 819 Q443 855 313 869 L528 1356 Z " />
<glyph glyph-name="six" unicode="6" horiz-adv-x="1024" d="M1076 1384 L1076 1345 Q905 1305 744 1176.5 Q583 1048 462 847 Q570 893 638 893 Q765 893 854.5 801 Q944 709 944 553 Q944 314 790 145 Q636 -24 458 -24 Q296 -24 212.5 95.5 Q129 215 129 372 Q129 577 224 776.5 Q319 976 481.5 1119 Q644 1262 819 1330 Q923 1370 1076 1384 Z M414 763 Q271 458 271 251 Q271 144 325 82.5 Q379 21 449 21 Q564 21 663.5 188.5 Q763 356 763 577 Q763 695 705 759 Q647 823 565 823 Q530 823 498.5 811.5 Q467 800 414 763 Z " />
<glyph glyph-name="seven" unicode="7" horiz-adv-x="1024" d="M397 1356 L1072 1356 L1072 1322 L312 -24 L232 13 L897 1197 L575 1197 Q442 1197 393.5 1173.5 Q345 1150 281 1059 L240 1059 L397 1356 Z " />
<glyph glyph-name="eight" unicode="8" horiz-adv-x="1024" d="M691 759 Q787 655 831.5 564 Q876 473 876 382 Q876 219 752 97.5 Q628 -24 446 -24 Q283 -24 180.5 75 Q78 174 78 306 Q78 419 161.5 528 Q245 637 477 738 Q388 847 356.5 918 Q325 989 325 1059 Q325 1192 424.5 1288 Q524 1384 675 1384 Q819 1384 910 1301 Q1001 1218 1001 1107 Q1001 997 927.5 907 Q854 817 691 759 Z M652 801 Q760 838 819.5 922 Q879 1006 879 1115 Q879 1217 821.5 1275.5 Q764 1334 671 1334 Q582 1334 527 1278 Q472 1222 472 1133 Q472 1066 501 1009 Q543 925 652 801 Z M514 697 Q365 635 288.5 517.5 Q212 400 212 265 Q212 156 279.5 89.5 Q347 23 457 23 Q571 23 649 103 Q727 183 727 294 Q727 378 681.5 470.5 Q636 563 514 697 Z " />
<glyph glyph-name="nine" unicode="9" horiz-adv-x="1024" d="M59 -24 L59 8 Q162 30 238 72 Q373 146 480.5 255 Q588 364 672 508 Q611 478 577 469 Q543 460 501 460 Q350 460 270 563 Q190 666 190 803 Q190 1042 345.5 1213 Q501 1384 676 1384 Q835 1384 920 1264.5 Q1005 1145 1005 985 Q1005 782 911 584 Q817 386 656 243 Q495 100 318 31 Q213 -10 59 -24 Z M722 591 Q863 877 863 1102 Q863 1211 809.5 1271 Q756 1331 685 1331 Q567 1331 469.5 1166 Q372 1001 372 774 Q372 654 427.5 592.5 Q483 531 567 531 Q605 531 637 542.5 Q669 554 722 591 Z " />
<glyph glyph-name="colon" unicode="&#x3a;" horiz-adv-x="682" d="M435 906 Q477 906 507 876.5 Q537 847 537 805 Q537 763 507 733 Q477 703 435 703 Q393 703 363 733 Q333 763 333 805 Q333 847 363 876.5 Q393 906 435 906 Z M223 182 Q265 182 294 152.5 Q323 123 323 81 Q323 40 293.5 10.5 Q264 -19 223 -19 Q181 -19 151.5 10.5 Q122 40 122 81 Q122 123 151.5 152.5 Q181 182 223 182 Z " />
<glyph glyph-name="&amp;#x3b;" unicode="&#x3b;" horiz-adv-x="682" d="M438 904 Q480 904 510 874.5 Q540 845 540 802 Q540 760 510 730 Q480 700 438 700 Q396 700 366 730 Q336 760 336 802 Q336 845 365.5 874.5 Q395 904 438 904 Z M36 -222 Q141 -162 166 -128.5 Q191 -95 191 -63 Q191 -43 184 -28 Q181 -19 158.5 6.5 Q136 32 132 43 Q124 60 124 80 Q124 122 154 153 Q184 184 223 184 Q265 184 296 151 Q327 118 327 65 Q327 -2 289.5 -66.5 Q252 -131 186 -183 Q162 -201 53 -257 L36 -222 Z " />
<glyph glyph-name="&amp;#x37e;" unicode="&#x37e;" horiz-adv-x="682" d="M438 904 Q480 904 510 874.5 Q540 845 540 802 Q540 760 510 730 Q480 700 438 700 Q396 700 366 730 Q336 760 336 802 Q336 845 365.5 874.5 Q395 904 438 904 Z M36 -222 Q141 -162 166 -128.5 Q191 -95 191 -63 Q191 -43 184 -28 Q181 -19 158.5 6.5 Q136 32 132 43 Q124 60 124 80 Q124 122 154 153 Q184 184 223 184 Q265 184 296 151 Q327 118 327 65 Q327 -2 289.5 -66.5 Q252 -131 186 -183 Q162 -201 53 -257 L36 -222 Z " />
<glyph glyph-name="less" unicode="&#x3c;" horiz-adv-x="1382" d="M150 706 L1226 1172 L1226 1085 L300 683 L1226 277 L1226 187 L150 657 L150 706 Z " />
<glyph glyph-name="equal" unicode="&#x3d;" horiz-adv-x="1382" d="M200 883 L1279 883 L1279 801 L200 801 L200 883 Z M200 557 L1279 557 L1279 475 L200 475 L200 557 Z " />
<glyph glyph-name="greater" unicode="&#x3e;" horiz-adv-x="1382" d="M1226 653 L150 187 L150 273 L1077 675 L150 1081 L150 1172 L1226 702 L1226 653 Z " />
<glyph glyph-name="question" unicode="&#x3f;" horiz-adv-x="1024" d="M360 333 L322 333 Q336 460 383 552 Q430 644 567 789.5 Q704 935 748 1024 Q779 1087 779 1154 Q779 1233 723 1287.5 Q667 1342 579 1342 Q494 1342 441 1306 Q411 1286 411 1257 Q411 1237 427.5 1202 Q444 1167 444 1144 Q444 1110 420 1087 Q396 1064 361 1064 Q326 1064 301.5 1089 Q277 1114 277 1155 Q277 1243 362.5 1315 Q448 1387 596 1387 Q750 1387 844.5 1300.5 Q939 1214 939 1103 Q939 1014 895 948 Q837 862 675 750.5 Q513 639 452 554 Q391 469 360 333 Z M300 172 Q342 172 372 142.5 Q402 113 402 70 Q402 28 372 -1.5 Q342 -31 300 -31 Q258 -31 228 -1.5 Q198 28 198 70 Q198 113 227.5 142.5 Q257 172 300 172 Z " />
<glyph glyph-name="at" unicode="&#x40;" horiz-adv-x="1884" d="M1408 958 L1291 559 Q1226 335 1212 275 Q1198 215 1198 179 Q1198 147 1219.5 125 Q1241 103 1273 103 Q1346 103 1448.5 176 Q1551 249 1624 413 Q1697 577 1697 755 Q1697 926 1614.5 1071 Q1532 1216 1381.5 1293.5 Q1231 1371 1049 1371 Q818 1371 620 1248.5 Q422 1126 306.5 896 Q191 666 191 418 Q191 188 292.5 0 Q394 -188 578 -284.5 Q762 -381 974 -381 Q1237 -381 1449.5 -240 Q1662 -99 1778 172 L1836 172 Q1746 -102 1509 -272 Q1272 -442 969 -442 Q731 -442 527 -329.5 Q323 -217 210 -10.5 Q97 196 97 444 Q97 708 221 936.5 Q345 1165 568.5 1293.5 Q792 1422 1043 1422 Q1250 1422 1416.5 1336.5 Q1583 1251 1670 1086.5 Q1757 922 1757 737 Q1757 554 1675.5 374.5 Q1594 195 1468 113 Q1342 31 1205 31 Q1129 31 1090.5 67 Q1052 103 1052 168 Q1052 224 1070 315 Q922 136 833 83 Q744 30 676 30 Q605 30 550 93.5 Q495 157 495 263 Q495 408 589.5 588 Q684 768 840 881 Q955 964 1046 964 Q1113 964 1157.5 929.5 Q1202 895 1218 826 L1251 936 L1408 958 Z M1057 917 Q982 917 905 838 Q792 722 712 525 Q653 381 653 293 Q653 230 688.5 190.5 Q724 151 768 151 Q826 151 890 195 Q954 239 1024 330.5 Q1094 422 1126 514 Q1182 673 1182 773 Q1182 839 1145.5 878 Q1109 917 1057 917 Z " />
<glyph glyph-name="A" unicode="A" horiz-adv-x="1251" d="M1055 1387 L952 259 Q944 180 944 155 Q944 115 959 94 Q978 65 1010.5 51 Q1043 37 1120 37 L1109 0 L575 0 L586 37 L609 37 Q674 37 715 65 Q744 84 760 128 Q771 159 781 274 L797 446 L409 446 L271 259 Q224 196 212 168.5 Q200 141 200 117 Q200 85 226 62 Q252 39 312 37 L301 0 L-100 0 L-89 37 Q-15 40 41.5 86.5 Q98 133 210 285 L1020 1387 L1055 1387 Z M857 1054 L464 519 L805 519 L857 1054 Z " />
<glyph glyph-name="B" unicode="B" horiz-adv-x="1251" d="M303 1319 L317 1356 L801 1356 Q923 1356 1018.5 1318 Q1114 1280 1161.5 1212 Q1209 1144 1209 1068 Q1209 951 1124.5 856.5 Q1040 762 849 717 Q972 671 1030 595 Q1088 519 1088 428 Q1088 327 1036 235 Q984 143 902.5 92 Q821 41 706 17 Q624 0 450 0 L-47 0 L-34 37 Q44 39 72 52 Q112 69 129 97 Q153 135 193 271 L436 1092 Q467 1196 467 1238 Q467 1275 439.5 1296.5 Q412 1318 335 1318 Q318 1318 303 1319 Z M506 756 Q571 754 600 754 Q808 754 909.5 844.5 Q1011 935 1011 1071 Q1011 1174 949 1231.5 Q887 1289 751 1289 Q715 1289 659 1277 L506 756 Z M309 88 Q417 74 478 74 Q634 74 754.5 168 Q875 262 875 423 Q875 546 800.5 615 Q726 684 560 684 Q528 684 482 681 L309 88 Z " />
<glyph glyph-name="C" unicode="C" horiz-adv-x="1366" d="M1441 1387 L1340 948 L1304 948 L1300 1058 Q1295 1118 1277 1165 Q1259 1212 1223 1246.5 Q1187 1281 1132 1300.5 Q1077 1320 1010 1320 Q831 1320 697 1222 Q526 1097 429 869 Q349 681 349 488 Q349 291 464 173.5 Q579 56 763 56 Q902 56 1010.5 118 Q1119 180 1212 309 L1259 309 Q1149 134 1015 51.5 Q881 -31 694 -31 Q528 -31 400 38.5 Q272 108 205 234 Q138 360 138 505 Q138 727 257 937 Q376 1147 583.5 1267 Q791 1387 1002 1387 Q1101 1387 1224 1340 Q1278 1320 1302 1320 Q1326 1320 1344 1330 Q1362 1340 1404 1387 L1441 1387 Z " />
<glyph glyph-name="D" unicode="D" horiz-adv-x="1479" d="M300 1319 L312 1356 L745 1356 Q1020 1356 1152.5 1293 Q1285 1230 1364 1094.5 Q1443 959 1443 804 Q1443 671 1397.5 545.5 Q1352 420 1294.5 344.5 Q1237 269 1118 178 Q999 87 860 43.5 Q721 0 513 0 L-61 0 L-48 37 Q31 39 58 51 Q98 68 117 97 Q146 139 182 266 L422 1086 Q450 1183 450 1238 Q450 1277 424 1298 Q398 1319 322 1319 L300 1319 Z M655 1281 L361 266 Q328 152 328 125 Q328 109 338.5 94 Q349 79 367 74 Q393 65 451 65 Q608 65 742.5 97.5 Q877 130 963 194 Q1085 287 1158 450 Q1231 613 1231 821 Q1231 1056 1119 1170.5 Q1007 1285 792 1285 Q739 1285 655 1281 Z " />
<glyph glyph-name="E" unicode="E" horiz-adv-x="1251" d="M663 1283 L508 747 L635 747 Q771 747 832 788.5 Q893 830 937 942 L974 942 L835 450 L795 450 Q813 512 813 556 Q813 599 795.5 625 Q778 651 747.5 663.5 Q717 676 619 676 L490 676 L359 227 Q340 162 340 128 Q340 102 365 82 Q382 68 450 68 L570 68 Q765 68 882.5 137 Q1000 206 1093 377 L1130 377 L1002 0 L-46 0 L-33 37 Q45 39 72 51 Q112 69 130 97 Q157 138 194 269 L432 1087 Q460 1186 460 1238 Q460 1276 433.5 1297.5 Q407 1319 330 1319 L309 1319 L321 1356 L1295 1356 L1211 1029 L1174 1029 Q1181 1075 1181 1106 Q1181 1159 1155 1195 Q1121 1241 1056 1265 Q1008 1283 835 1283 L663 1283 Z " />
<glyph glyph-name="F" unicode="F" horiz-adv-x="1251" d="M666 1284 L506 747 L684 747 Q804 747 863.5 784 Q923 821 986 942 L1024 942 L883 448 L843 448 Q858 508 858 547 Q858 608 817.5 641.5 Q777 675 666 675 L486 675 L368 266 Q336 157 336 121 Q336 84 363.5 64 Q391 44 498 37 L486 0 L-50 0 L-37 37 Q41 39 67 51 Q107 68 126 97 Q153 138 190 266 L429 1083 Q458 1182 458 1238 Q458 1264 445 1282.5 Q432 1301 406.5 1310 Q381 1319 305 1319 L317 1356 L1369 1356 L1269 1013 L1231 1013 Q1242 1075 1242 1115 Q1242 1181 1205.5 1219.5 Q1169 1258 1112 1274 Q1072 1284 933 1284 L666 1284 Z " />
<glyph glyph-name="G" unicode="G" horiz-adv-x="1479" d="M1474 1387 L1373 960 L1335 960 Q1344 1035 1344 1071 Q1344 1169 1257.5 1244.5 Q1171 1320 1019 1320 Q708 1320 511 1028 Q354 797 354 511 Q354 321 451 183 Q548 45 750 45 Q800 45 844.5 54 Q889 63 979 94 L1078 443 Q1099 515 1099 558 Q1099 594 1073 613 Q1031 642 937 642 L909 642 L920 681 L1484 681 L1474 642 Q1397 641 1362 624 Q1327 607 1302 566 Q1285 539 1247 409 L1147 66 Q1010 7 926 -12.5 Q842 -32 749 -32 Q535 -32 402 48.5 Q269 129 205.5 261.5 Q142 394 142 525 Q142 701 216 859.5 Q290 1018 400.5 1127.5 Q511 1237 641 1300 Q820 1387 1017 1387 Q1162 1387 1279 1339 Q1326 1320 1348 1320 Q1373 1320 1390.5 1331.5 Q1408 1343 1436 1387 L1474 1387 Z " />
<glyph glyph-name="H" unicode="H" horiz-adv-x="1479" d="M505 751 L1131 751 L1230 1086 Q1258 1184 1258 1238 Q1258 1264 1245.5 1282.5 Q1233 1301 1207 1310 Q1181 1319 1105 1319 L1115 1356 L1661 1356 L1649 1319 Q1580 1320 1546 1305 Q1498 1284 1475 1251 Q1442 1204 1408 1086 L1169 267 Q1139 165 1139 121 Q1139 83 1165.5 63.5 Q1192 44 1292 37 L1281 0 L753 0 L767 37 Q845 39 871 51 Q911 69 929 97 Q955 136 993 267 L1115 682 L486 682 L363 267 Q334 167 334 121 Q334 83 360 63.5 Q386 44 486 37 L478 0 L-54 0 L-41 37 Q38 39 64 51 Q104 69 123 97 Q149 138 187 267 L427 1086 Q456 1186 456 1238 Q456 1264 443.5 1282.5 Q431 1301 404.5 1310 Q378 1319 301 1319 L313 1356 L848 1356 L837 1319 Q770 1320 738 1305 Q691 1285 669 1252 Q639 1208 603 1086 L505 751 Z " />
<glyph glyph-name="I" unicode="I" horiz-adv-x="682" d="M505 37 L494 0 L-64 0 L-50 37 Q34 39 61 51 Q105 68 126 98 Q159 145 194 266 L430 1084 Q460 1186 460 1238 Q460 1264 447 1282 Q434 1300 407.5 1309.5 Q381 1319 304 1319 L316 1356 L840 1356 L829 1319 Q765 1320 734 1305 Q689 1285 665.5 1248 Q642 1211 605 1084 L370 266 Q338 153 338 122 Q338 97 350.5 79.5 Q363 62 390.5 52.5 Q418 43 505 37 Z " />
<glyph glyph-name="J" unicode="J" horiz-adv-x="909" d="M586 1356 L1120 1356 L1109 1319 Q1006 1318 964 1281.5 Q922 1245 876 1086 L704 489 Q655 320 605 231 Q538 111 424.5 40 Q311 -31 170 -31 Q54 -31 -8 22.5 Q-70 76 -70 152 Q-70 212 -32.5 252 Q5 292 57 292 Q102 292 130.5 265 Q159 238 159 199 Q159 167 133 137 Q100 99 100 85 Q100 64 119 47 Q138 30 170 30 Q216 30 265.5 52 Q315 74 358.5 119 Q402 164 434.5 227 Q467 290 501 399 L550 572 L699 1086 Q732 1199 732 1227 Q732 1265 702 1289 Q672 1313 575 1319 L586 1356 Z " />
<glyph glyph-name="K" unicode="K" horiz-adv-x="1366" d="M654 771 L990 252 Q1080 114 1139 75.5 Q1198 37 1294 37 L1283 0 L705 0 L714 37 Q783 44 811.5 70 Q840 96 840 129 Q840 159 830 187 Q822 207 772 285 L497 716 L364 267 Q331 159 331 122 Q331 84 359 64 Q387 44 497 37 L481 0 L-55 0 L-42 37 Q36 39 63 51 Q103 69 122 97 Q148 138 186 267 L425 1086 Q452 1180 452 1237 Q452 1277 426.5 1298 Q401 1319 327 1319 L307 1319 L319 1356 L828 1356 L818 1319 Q755 1320 724 1305 Q681 1284 661 1251 Q641 1218 602 1086 L497 738 L979 1101 Q1075 1173 1105 1215 Q1123 1241 1123 1262 Q1123 1280 1104.5 1297 Q1086 1314 1048 1319 L1058 1356 L1492 1356 L1483 1319 Q1412 1307 1363.5 1287.5 Q1315 1268 1264 1234 Q1249 1224 1069 1086 L654 771 Z " />
<glyph glyph-name="L" unicode="L" horiz-adv-x="1139" d="M939 0 L-66 0 L-52 37 Q28 39 55 50 Q97 68 117 97 Q148 143 183 263 L422 1088 Q452 1190 452 1238 Q452 1276 424.5 1297 Q397 1318 321 1318 Q304 1318 294 1319 L306 1356 L859 1356 L851 1319 Q758 1319 719 1301 Q680 1283 654 1242 Q636 1215 595 1074 L360 263 Q333 171 333 135 Q333 111 360 89 Q377 74 437 74 L568 74 Q711 74 795 110 Q857 137 909 191 Q937 221 1008 340 L1034 385 L1071 385 L939 0 Z " />
<glyph glyph-name="M" unicode="M" horiz-adv-x="1706" d="M649 1356 L774 264 L1561 1356 L1892 1356 L1892 1319 Q1784 1312 1765 1305 Q1732 1292 1704.5 1253 Q1677 1214 1645 1103 L1394 243 Q1372 168 1372 125 Q1372 86 1399 66 Q1437 37 1519 37 L1543 37 L1534 0 L963 0 L973 37 L1000 37 Q1076 37 1116 59 Q1147 75 1171.5 119.5 Q1196 164 1240 317 L1464 1103 L673 0 L633 0 L506 1103 L264 264 Q233 157 233 120 Q233 83 260 63.5 Q287 44 391 37 L380 0 L-67 0 L-56 37 L-29 37 Q70 37 114 87 Q146 123 181 243 L476 1254 Q443 1288 413 1300 Q383 1312 302 1319 L312 1356 L649 1356 Z " />
<glyph glyph-name="N" unicode="N" horiz-adv-x="1366" d="M587 1356 L1006 293 L1233 1087 Q1261 1185 1261 1239 Q1261 1276 1235 1297 Q1209 1318 1138 1318 Q1126 1318 1113 1319 L1124 1356 L1560 1356 L1548 1319 Q1480 1320 1447 1305 Q1400 1284 1377 1251 Q1345 1204 1312 1087 L993 -31 L957 -31 L506 1113 L265 268 Q238 172 238 121 Q238 83 262.5 63.5 Q287 44 379 37 L369 0 L-57 0 L-43 37 Q37 39 64 51 Q105 69 125 98 Q154 142 190 268 L459 1211 Q420 1271 375.5 1293.5 Q331 1316 237 1319 L248 1356 L587 1356 Z " />
<glyph glyph-name="O" unicode="O" horiz-adv-x="1479" d="M1009 1387 Q1144 1387 1248 1328.5 Q1352 1270 1411 1155.5 Q1470 1041 1470 918 Q1470 700 1343.5 460.5 Q1217 221 1013 95 Q809 -31 591 -31 Q434 -31 328.5 38.5 Q223 108 172.5 222 Q122 336 122 443 Q122 633 213.5 818.5 Q305 1004 432 1128.5 Q559 1253 703 1320 Q847 1387 1009 1387 Z M975 1323 Q875 1323 779.5 1273.5 Q684 1224 590 1111.5 Q496 999 421 817 Q329 593 329 394 Q329 252 402 142.5 Q475 33 626 33 Q717 33 804.5 78 Q892 123 987 232 Q1106 369 1187 581.5 Q1268 794 1268 978 Q1268 1114 1195 1218.5 Q1122 1323 975 1323 Z " />
<glyph glyph-name="P" unicode="P" horiz-adv-x="1251" d="M320 1356 L854 1356 Q1064 1356 1168 1265.5 Q1272 1175 1272 1045 Q1272 942 1206 845 Q1140 748 1010 687.5 Q880 627 729 627 Q635 627 490 661 L382 291 Q344 159 344 117 Q344 85 371 64 Q398 43 500 37 L490 0 L-49 0 L-38 37 Q68 37 109.5 73.5 Q151 110 199 275 L423 1047 Q463 1186 463 1233 Q463 1268 434.5 1291 Q406 1314 309 1319 L320 1356 Z M507 724 Q620 695 689 695 Q798 695 887.5 740 Q977 785 1027.5 875 Q1078 965 1078 1062 Q1078 1163 1016 1222 Q954 1281 828 1281 Q760 1281 663 1264 L507 724 Z " />
<glyph glyph-name="Q" unicode="Q" horiz-adv-x="1479" d="M599 -31 L341 -240 Q402 -229 454 -229 Q504 -229 546.5 -235 Q589 -241 728.5 -272.5 Q868 -304 972 -304 Q1083 -304 1160.5 -265.5 Q1238 -227 1311 -137 L1344 -153 Q1241 -301 1101 -366.5 Q961 -432 804 -432 Q717 -432 566 -398 Q335 -347 243 -347 Q208 -347 186 -352 Q164 -357 120 -376 L97 -349 L507 -25 Q317 1 219 142 Q121 283 121 443 Q121 662 253.5 896 Q386 1130 592.5 1258.5 Q799 1387 998 1387 Q1146 1387 1250.5 1327 Q1355 1267 1412 1152.5 Q1469 1038 1469 918 Q1469 688 1338 452 Q1207 216 1012.5 94.5 Q818 -27 599 -31 Z M974 1323 Q874 1323 778.5 1273.5 Q683 1224 589 1111.5 Q495 999 420 817 Q329 593 329 394 Q329 252 402 142.5 Q475 33 626 33 Q716 33 804 78 Q892 123 986 231 Q1106 369 1187 582 Q1268 795 1268 978 Q1268 1113 1195 1218 Q1122 1323 974 1323 Z " />
<glyph glyph-name="R" unicode="R" horiz-adv-x="1251" d="M851 0 L634 659 Q558 658 478 674 L361 264 Q338 184 338 129 Q338 87 367 63 Q389 45 487 37 L478 0 L-47 0 L-36 37 Q38 40 64 52 Q105 69 124 98 Q156 145 191 264 L428 1083 Q452 1165 452 1210 Q452 1256 414.5 1288 Q377 1320 307 1319 L319 1356 L761 1356 Q983 1356 1081 1272 Q1179 1188 1179 1051 Q1179 920 1078.5 811.5 Q978 703 803 674 L935 277 Q983 131 1031 87 Q1079 43 1186 37 L1175 0 L851 0 Z M495 731 Q559 722 609 722 Q781 722 881 817.5 Q981 913 981 1055 Q981 1166 918.5 1225 Q856 1284 731 1284 Q699 1284 655 1276 L495 731 Z " />
<glyph glyph-name="S" unicode="S" horiz-adv-x="1024" d="M14 -31 L126 472 L160 472 Q153 399 153 351 Q153 214 240.5 128 Q328 42 469 42 Q600 42 668 122.5 Q736 203 736 308 Q736 376 705 432 Q658 515 454 724 Q355 824 327 873 Q281 954 281 1043 Q281 1185 387 1286 Q493 1387 659 1387 Q715 1387 765 1376 Q796 1370 878 1336 Q936 1313 942 1311 Q956 1308 973 1308 Q1002 1308 1023 1323 Q1044 1338 1072 1387 L1110 1387 L1006 937 L972 937 Q976 997 976 1034 Q976 1155 896 1232 Q816 1309 685 1309 Q581 1309 516 1248 Q451 1187 451 1107 Q451 1037 492.5 973.5 Q534 910 683.5 766.5 Q833 623 877 542.5 Q921 462 921 371 Q921 268 866.5 171.5 Q812 75 710 22 Q608 -31 487 -31 Q427 -31 375 -20 Q323 -9 209 34 Q170 49 144 49 Q85 49 52 -31 L14 -31 Z " />
<glyph glyph-name="T" unicode="T" horiz-adv-x="1139" d="M300 1356 L1330 1356 L1219 996 L1181 996 Q1200 1075 1200 1137 Q1200 1210 1155 1247 Q1121 1275 980 1275 L873 1275 L605 341 Q554 165 554 124 Q554 86 586 61.5 Q618 37 699 37 L745 37 L733 0 L143 0 L154 37 L180 37 Q258 37 300 62 Q329 79 352.5 123.5 Q376 168 418 312 L699 1275 L618 1275 Q501 1275 429.5 1245 Q358 1215 314 1158 Q270 1101 242 996 L205 996 L300 1356 Z " />
<glyph glyph-name="U" unicode="U" horiz-adv-x="1479" d="M268 1356 L841 1356 L830 1319 Q742 1317 704.5 1302.5 Q667 1288 640.5 1251 Q614 1214 585 1114 L446 634 Q409 506 402 466 Q390 402 390 347 Q390 226 480 142.5 Q570 59 721 59 Q820 59 898 96.5 Q976 134 1031.5 201.5 Q1087 269 1133 384.5 Q1179 500 1214 618 L1334 1032 Q1379 1187 1379 1234 Q1379 1267 1348.5 1290.5 Q1318 1314 1225 1319 L1236 1356 L1667 1356 L1656 1319 Q1580 1319 1546.5 1304.5 Q1513 1290 1488 1252.5 Q1463 1215 1432 1107 L1285 604 Q1214 359 1151 242.5 Q1088 126 968.5 47.5 Q849 -31 672 -31 Q468 -31 343 84.5 Q218 200 218 349 Q218 408 229 475 Q237 519 268 627 L402 1088 Q430 1188 430 1235 Q430 1272 401.5 1292.5 Q373 1313 258 1319 L268 1356 Z " />
<glyph glyph-name="V" unicode="V" horiz-adv-x="1251" d="M311 -31 L423 1098 Q431 1184 431 1214 Q431 1259 397.5 1289 Q364 1319 292 1319 L256 1319 L266 1356 L801 1356 L790 1319 Q703 1318 670.5 1301 Q638 1284 619 1243 Q609 1221 598 1118 L518 309 L1047 1031 Q1133 1148 1155 1194 Q1170 1225 1170 1248 Q1170 1275 1147 1295 Q1124 1315 1061 1319 L1073 1356 L1481 1356 L1471 1319 Q1422 1315 1393 1300 Q1338 1274 1283.5 1221 Q1229 1168 1111 1007 L347 -31 L311 -31 Z " />
<glyph glyph-name="W" unicode="W" horiz-adv-x="1706" d="M277 -31 L394 1099 Q401 1164 401 1199 Q401 1257 368 1287 Q335 1317 249 1319 L260 1356 L768 1356 L757 1319 Q655 1320 617.5 1282.5 Q580 1245 566 1099 L491 367 L1006 1162 Q1007 1182 1007 1196 Q1007 1252 974 1282 Q941 1312 832 1319 L840 1356 L1389 1356 L1378 1319 Q1283 1318 1250 1303 Q1226 1292 1209.5 1267.5 Q1193 1243 1183 1184 Q1180 1167 1158.5 952 Q1137 737 1094 367 L1523 1019 Q1593 1126 1611 1169 Q1629 1212 1629 1242 Q1629 1270 1605 1291.5 Q1581 1313 1523 1319 L1531 1356 L1933 1356 L1923 1319 Q1870 1315 1829 1293 Q1788 1271 1732 1209 Q1700 1173 1600 1019 L919 -31 L882 -31 L992 1019 L311 -31 L277 -31 Z " />
<glyph glyph-name="X" unicode="X" horiz-adv-x="1251" d="M1058 1356 L1517 1356 L1506 1319 Q1409 1305 1336.5 1260.5 Q1264 1216 1139 1083 L787 723 L886 360 Q900 308 938 199 Q962 129 986 100 Q1010 71 1046.5 55.5 Q1083 40 1157 37 L1146 0 L614 0 L625 37 Q707 40 743 68 Q770 88 770 120 Q770 148 744 243 L649 584 L331 263 Q238 168 220 138 Q209 120 209 103 Q209 73 239 54 Q253 46 324 37 L314 0 L-137 0 L-126 37 Q-41 45 13 76 Q92 123 231 263 L625 659 L517 1050 Q468 1230 431.5 1271.5 Q395 1313 304 1319 L314 1356 L799 1356 L787 1319 Q720 1319 696.5 1310.5 Q673 1302 660.5 1284.5 Q648 1267 648 1245 Q648 1221 672 1133 L764 799 L977 1011 Q1103 1137 1150 1214 Q1167 1241 1167 1262 Q1167 1285 1148 1298 Q1121 1316 1047 1319 L1058 1356 Z " />
<glyph glyph-name="Y" unicode="Y" horiz-adv-x="1139" d="M716 721 L974 1082 Q1074 1223 1074 1262 Q1074 1284 1052.5 1298.5 Q1031 1313 930 1319 L940 1356 L1366 1356 L1358 1319 Q1296 1311 1273 1302 Q1237 1287 1202 1255 Q1155 1213 1066 1090 L734 632 L634 297 Q597 171 597 123 Q597 92 608.5 76 Q620 60 649 50 Q687 38 765 37 L755 0 L184 0 L196 37 Q281 39 309 51 Q354 69 376 99 Q410 145 446 264 L565 660 L420 1128 Q381 1252 348.5 1282 Q316 1312 235 1319 L245 1356 L746 1356 L734 1319 Q640 1312 627 1307 Q605 1300 591 1279 Q577 1258 577 1230 Q577 1189 606 1090 L716 721 Z " />
<glyph glyph-name="Z" unicode="Z" horiz-adv-x="1139" d="M310 1356 L1251 1356 L1251 1319 L244 65 L401 65 Q655 65 759.5 90 Q864 115 933.5 177 Q1003 239 1050 353 L1088 353 L971 0 L-4 0 L-4 29 L1003 1283 L722 1283 Q538 1283 463 1266.5 Q388 1250 334.5 1199.5 Q281 1149 244 1047 L209 1047 L310 1356 Z " />
<glyph glyph-name="bracketleft" unicode="&#x5b;" horiz-adv-x="797" d="M13 -408 L539 1387 L965 1387 L943 1318 L664 1318 L180 -336 L458 -336 L438 -408 L13 -408 Z " />
<glyph glyph-name="backslash" unicode="&#x5c;" horiz-adv-x="569" d="M289 1422 L474 -31 L400 -31 L218 1422 L289 1422 Z " />
<glyph glyph-name="bracketright" unicode="&#x5d;" horiz-adv-x="797" d="M747 1387 L221 -408 L-205 -408 L-184 -339 L96 -339 L579 1315 L302 1315 L322 1387 L747 1387 Z " />
<glyph glyph-name="asciicircum" unicode="&#x5e;" horiz-adv-x="864" d="M517 1387 L942 671 L850 671 L500 1257 L150 671 L56 671 L487 1387 L517 1387 Z " />
<glyph glyph-name="underscore" unicode="&#x5f;" horiz-adv-x="1024" d="M1042 -442 L-17 -442 L-17 -358 L1042 -358 L1042 -442 Z " />
<glyph glyph-name="grave" unicode="&#x60;" horiz-adv-x="682" d="M581 1402 L690 1058 L658 1058 L360 1402 L581 1402 Z " />
<glyph glyph-name="a" unicode="a" horiz-adv-x="1024" d="M961 905 L766 227 L744 136 Q741 123 741 114 Q741 98 751 86 Q759 77 771 77 Q784 77 805 93 Q844 122 909 213 L943 189 Q874 85 801 30.5 Q728 -24 666 -24 Q623 -24 601.5 -2.5 Q580 19 580 60 Q580 109 602 189 L623 264 Q492 93 382 25 Q303 -24 227 -24 Q154 -24 101 36.5 Q48 97 48 203 Q48 362 143.5 538.5 Q239 715 386 821 Q501 905 603 905 Q664 905 704.5 873 Q745 841 766 767 L802 881 L961 905 Z M605 853 Q541 853 469 793 Q367 708 287.5 541 Q208 374 208 239 Q208 171 242 131.5 Q276 92 320 92 Q429 92 557 253 Q728 467 728 692 Q728 777 695 815 Q662 853 605 853 Z " />
<glyph glyph-name="b" unicode="b" horiz-adv-x="1024" d="M591 1422 L394 731 Q490 831 561.5 868 Q633 905 711 905 Q821 905 891 832 Q961 759 961 634 Q961 473 869 313.5 Q777 154 638 65 Q499 -24 364 -24 Q213 -24 54 89 L358 1136 Q393 1257 393 1278 Q393 1304 377 1317 Q354 1335 309 1335 Q288 1335 245 1328 L245 1366 L591 1422 Z M204 78 Q304 23 380 23 Q468 23 562.5 87.5 Q657 152 726.5 305 Q796 458 796 614 Q796 706 750.5 758 Q705 810 643 810 Q550 810 461 735.5 Q372 661 334 528 L204 78 Z " />
<glyph glyph-name="c" unicode="c" horiz-adv-x="909" d="M791 218 Q687 93 581 34.5 Q475 -24 357 -24 Q215 -24 135.5 56 Q56 136 56 271 Q56 424 141.5 572 Q227 720 371.5 812.5 Q516 905 655 905 Q764 905 818 859.5 Q872 814 872 748 Q872 686 834 642 Q806 608 765 608 Q734 608 713.5 628 Q693 648 693 678 Q693 697 700.5 713 Q708 729 731.5 751.5 Q755 774 760 784 Q765 794 765 805 Q765 826 746 840 Q717 860 664 860 Q566 860 470 791 Q374 722 306 595 Q224 441 224 287 Q224 185 282 125.5 Q340 66 440 66 Q517 66 592.5 104.5 Q668 143 762 244 L791 218 Z " />
<glyph glyph-name="d" unicode="d" horiz-adv-x="1024" d="M1108 1422 L764 242 Q736 146 736 116 Q736 106 744.5 97 Q753 88 762 88 Q775 88 793 101 Q827 125 907 221 L941 200 Q869 100 795.5 38 Q722 -24 658 -24 Q624 -24 602 0 Q580 24 580 68 Q580 125 610 221 L649 345 Q504 121 385 35 Q303 -24 228 -24 Q152 -24 95.5 43.5 Q39 111 39 227 Q39 376 134 545 Q229 714 385 820 Q508 905 611 905 Q665 905 704 883 Q743 861 781 810 L879 1158 Q890 1195 897 1217 Q909 1257 909 1283 Q909 1304 894 1318 Q873 1335 840 1335 Q817 1335 764 1328 L764 1365 L1108 1422 Z M737 712 Q737 776 700 815 Q663 854 606 854 Q480 854 343.5 646 Q207 438 207 248 Q207 173 240 133.5 Q273 94 319 94 Q423 94 580 319 Q737 544 737 712 Z " />
<glyph glyph-name="e" unicode="e" horiz-adv-x="909" d="M244 377 Q237 327 237 294 Q237 205 300 142.5 Q363 80 453 80 Q525 80 591.5 109.5 Q658 139 789 240 L810 211 Q573 -24 358 -24 Q212 -24 138 68 Q64 160 64 271 Q64 420 156 576 Q248 732 387 818.5 Q526 905 673 905 Q779 905 830 862 Q881 819 881 760 Q881 677 815 601 Q728 502 559 441 Q447 400 244 377 Z M251 426 Q399 443 492 484 Q615 539 676.5 615.5 Q738 692 738 761 Q738 803 711.5 829 Q685 855 636 855 Q534 855 419.5 746.5 Q305 638 251 426 Z " />
<glyph glyph-name="f" unicode="f" horiz-adv-x="569" d="M607 881 L589 815 L443 815 L333 378 Q260 89 186 -69 Q81 -292 -40 -377 Q-132 -442 -224 -442 Q-284 -442 -326 -406 Q-357 -381 -357 -341 Q-357 -309 -331.5 -285.5 Q-306 -262 -269 -262 Q-242 -262 -223.5 -279 Q-205 -296 -205 -318 Q-205 -340 -226 -359 Q-242 -373 -242 -380 Q-242 -389 -235 -394 Q-226 -401 -207 -401 Q-164 -401 -116.5 -374 Q-69 -347 -32 -293.5 Q5 -240 38 -139 Q52 -97 113 138 L287 815 L113 815 L127 881 Q210 881 243 892.5 Q276 904 303.5 936.5 Q331 969 375 1058 Q434 1178 488 1244 Q562 1333 643.5 1377.5 Q725 1422 797 1422 Q873 1422 919 1383.5 Q965 1345 965 1300 Q965 1265 942 1241 Q919 1217 883 1217 Q852 1217 832.5 1235 Q813 1253 813 1278 Q813 1294 826 1317.5 Q839 1341 839 1349 Q839 1363 830 1370 Q817 1380 792 1380 Q729 1380 679 1340 Q612 1287 559 1174 Q532 1115 460 881 L607 881 Z " />
<glyph glyph-name="g" unicode="g" horiz-adv-x="1024" d="M1067 843 L1038 739 L871 739 Q890 685 890 638 Q890 506 778 403 Q665 300 468 289 Q362 257 309 213 Q289 197 289 180 Q289 160 307 143.5 Q325 127 398 110 L592 65 Q753 27 805 -25 Q856 -78 856 -147 Q856 -229 795.5 -297 Q735 -365 618.5 -403.5 Q502 -442 361 -442 Q237 -442 135 -412.5 Q33 -383 -11 -333 Q-55 -283 -55 -230 Q-55 -187 -26.5 -140.5 Q2 -94 45 -64 Q72 -45 198 26 Q152 62 152 105 Q152 145 192.5 190 Q233 235 364 289 Q254 310 189.5 381 Q125 452 125 539 Q125 681 249.5 793 Q374 905 581 905 Q656 905 704 890 Q752 875 797 843 L1067 843 Z M720 686 Q720 766 675.5 812 Q631 858 559 858 Q446 858 372.5 744.5 Q299 631 299 508 Q299 431 346 382 Q393 333 460 333 Q513 333 562.5 362 Q612 391 646 442 Q680 493 700 572 Q720 651 720 686 Z M241 0 Q160 -37 118.5 -95 Q77 -153 77 -209 Q77 -275 137 -318 Q223 -380 389 -380 Q532 -380 633.5 -331.5 Q735 -283 735 -206 Q735 -167 697.5 -132 Q660 -97 552 -75 Q493 -63 241 0 Z " />
<glyph glyph-name="h" unicode="h" horiz-adv-x="1024" d="M601 1422 L320 451 Q502 725 604 815 Q706 905 799 905 Q847 905 879 872 Q911 839 911 784 Q911 718 883 624 L761 205 Q738 129 738 121 Q738 107 746.5 98 Q755 89 766 89 Q779 89 796 102 Q853 146 909 224 L940 205 Q906 152 845.5 88.5 Q785 25 741.5 0.5 Q698 -24 664 -24 Q627 -24 603.5 -0.5 Q580 23 580 60 Q580 104 615 224 L730 624 Q752 699 752 742 Q752 762 739.5 774 Q727 786 707 786 Q678 786 641 764 Q573 722 484 608 Q460 577 324 358 Q282 288 255 205 L191 0 L41 0 L370 1144 L405 1268 Q405 1294 383.5 1314 Q362 1334 331 1334 Q313 1334 276 1328 L255 1325 L255 1364 L601 1422 Z " />
<glyph glyph-name="i" unicode="i" horiz-adv-x="569" d="M458 1302 Q500 1302 529 1273 Q558 1244 558 1202 Q558 1161 528.5 1131.5 Q499 1102 458 1102 Q417 1102 387.5 1131.5 Q358 1161 358 1202 Q358 1244 387 1273 Q416 1302 458 1302 Z M471 905 L273 204 Q253 133 253 119 Q253 103 262.5 93 Q272 83 285 83 Q300 83 321 99 Q378 144 436 227 L471 204 Q403 100 311 29 Q243 -24 181 -24 Q140 -24 114 0.5 Q88 25 88 62 Q88 99 113 185 L243 633 Q275 743 275 771 Q275 793 259.5 807 Q244 821 217 821 Q195 821 126 810 L126 849 L471 905 Z " />
<glyph glyph-name="j" unicode="j" horiz-adv-x="569" d="M469 1301 Q511 1301 540.5 1271.5 Q570 1242 570 1200 Q570 1158 540.5 1128.5 Q511 1099 469 1099 Q427 1099 397.5 1128.5 Q368 1158 368 1200 Q368 1242 397.5 1271.5 Q427 1301 469 1301 Z M485 905 L226 10 Q157 -230 36.5 -336 Q-84 -442 -224 -442 Q-287 -442 -319.5 -413 Q-352 -384 -352 -344 Q-352 -313 -327.5 -289.5 Q-303 -266 -271 -266 Q-242 -266 -220 -285 Q-202 -300 -202 -319 Q-202 -345 -227 -364 Q-241 -375 -241 -382 L-239 -387 Q-236 -391 -230 -393 Q-224 -395 -212 -395 Q-131 -395 -73.5 -343.5 Q-16 -292 29 -138 L253 630 Q286 743 286 755 Q286 779 264.5 798 Q243 817 210 817 Q197 817 180 814 Q167 812 142 808 L142 843 L485 905 Z " />
<glyph glyph-name="k" unicode="k" horiz-adv-x="909" d="M586 1422 L302 439 L416 536 Q603 694 659 770 Q677 795 677 808 Q677 817 671 825 Q665 833 647.5 838 Q630 843 586 843 L551 843 L562 881 L999 881 L989 843 Q914 839 859.5 819.5 Q805 800 754 762 Q653 687 621 658 L535 582 Q557 510 589 381 Q643 167 662 127 Q681 87 701 87 Q718 87 741 104 Q793 142 852 225 L887 200 Q778 63 720 19.5 Q662 -24 614 -24 Q572 -24 549 9 Q509 68 416 474 L279 355 L176 0 L20 0 L352 1141 L380 1238 Q385 1263 385 1282 Q385 1306 366.5 1322 Q348 1338 313 1338 Q290 1338 240 1328 L240 1363 L586 1422 Z " />
<glyph glyph-name="l" unicode="l" horiz-adv-x="569" d="M609 1422 L267 232 Q242 143 242 123 Q242 108 251.5 98 Q261 88 275 88 Q294 88 316 105 Q368 146 425 232 L455 201 Q360 67 280 14 Q221 -24 168 -24 Q130 -24 104.5 2 Q79 28 79 62 Q79 98 111 210 L382 1148 Q415 1263 415 1280 Q415 1304 396 1319.5 Q377 1335 337 1335 Q314 1335 267 1328 L267 1365 L609 1422 Z " />
<glyph glyph-name="m" unicode="m" horiz-adv-x="1479" d="M444 905 L314 454 Q401 613 462 693 Q557 817 647 873 Q700 905 758 905 Q808 905 841 873 Q874 841 874 791 Q874 742 851 663 L780 409 Q943 714 1089 837 Q1170 905 1249 905 Q1295 905 1324.5 873.5 Q1354 842 1354 776 Q1354 718 1336 653 L1226 264 Q1190 137 1190 123 Q1190 109 1199 99 Q1205 92 1215 92 Q1225 92 1250 111 Q1307 155 1357 227 L1390 206 Q1365 166 1301.5 96 Q1238 26 1193 1 Q1148 -24 1110 -24 Q1075 -24 1051.5 0 Q1028 24 1028 59 Q1028 107 1069 252 L1160 573 Q1191 684 1193 696 Q1196 715 1196 733 Q1196 758 1185 772 Q1173 786 1158 786 Q1116 786 1069 743 Q931 616 811 387 Q732 236 663 0 L512 0 L683 605 Q711 703 711 736 Q711 763 700 776 Q689 789 673 789 Q640 789 603 765 Q543 726 448.5 598 Q354 470 302 353 Q277 298 183 0 L35 0 L220 648 L244 732 Q251 751 251 760 Q251 782 231 799.5 Q211 817 180 817 Q167 817 108 805 L99 842 L444 905 Z " />
<glyph glyph-name="n" unicode="n" horiz-adv-x="1024" d="M452 905 L319 450 Q506 729 605.5 817 Q705 905 797 905 Q847 905 879.5 872 Q912 839 912 786 Q912 726 883 626 L761 205 Q740 132 740 116 Q740 102 748 92.5 Q756 83 765 83 Q777 83 794 96 Q847 138 910 224 L941 205 Q848 72 765 15 Q707 -24 661 -24 Q624 -24 602 -1.5 Q580 21 580 59 Q580 107 614 224 L730 626 Q752 701 752 743 Q752 763 739 775.5 Q726 788 707 788 Q679 788 640 764 Q566 719 486 615.5 Q406 512 317 351 Q270 266 239 165 L189 0 L39 0 L221 626 Q253 739 253 762 Q253 784 235.5 800.5 Q218 817 192 817 Q180 817 150 813 L112 807 L106 843 L452 905 Z " />
<glyph glyph-name="o" unicode="o" horiz-adv-x="1024" d="M947 592 Q947 442 867.5 295 Q788 148 646 62 Q504 -24 370 -24 Q233 -24 146.5 63.5 Q60 151 60 290 Q60 437 144.5 585 Q229 733 370.5 819 Q512 905 644 905 Q776 905 861.5 818 Q947 731 947 592 Z M781 661 Q781 754 735.5 803.5 Q690 853 618 853 Q471 853 347.5 642.5 Q224 432 224 224 Q224 129 272 77.5 Q320 26 393 26 Q534 26 657.5 235.5 Q781 445 781 661 Z " />
<glyph glyph-name="p" unicode="p" horiz-adv-x="1024" d="M453 905 L384 675 Q493 803 578.5 854 Q664 905 753 905 Q842 905 905 834.5 Q968 764 968 651 Q968 431 789 203.5 Q610 -24 372 -24 Q322 -24 283.5 -13 Q245 -2 197 26 L124 -232 Q102 -308 102 -331 Q102 -353 113.5 -368.5 Q125 -384 151 -392.5 Q177 -401 254 -401 L245 -438 L-226 -438 L-216 -401 Q-123 -397 -90.5 -369 Q-58 -341 -22 -214 L231 662 Q254 745 254 765 Q254 792 238.5 807 Q223 822 191 822 Q162 822 110 815 L110 854 L453 905 Z M220 105 Q282 31 387 31 Q439 31 493 60 Q547 89 598.5 146 Q650 203 691 277.5 Q732 352 764.5 453 Q797 554 797 653 Q797 733 760.5 775.5 Q724 818 675 818 Q567 818 461.5 694 Q356 570 307 404 L220 105 Z " />
<glyph glyph-name="q" unicode="q" horiz-adv-x="1024" d="M971 905 L644 -225 Q622 -303 622 -325 Q622 -348 633.5 -364.5 Q645 -381 665 -389 Q696 -401 746 -401 L736 -438 L257 -438 L267 -401 Q365 -393 389 -384 Q427 -369 451.5 -335 Q476 -301 506 -192 L644 301 Q512 108 398 30 Q317 -25 247 -25 Q147 -25 96 56.5 Q45 138 45 233 Q45 384 138 550 Q231 716 383 822 Q501 905 597 905 Q668 905 714 870.5 Q760 836 783 760 L814 872 L971 905 Z M743 710 Q743 774 704 815 Q665 856 608 856 Q486 856 351 646 Q216 436 216 250 Q216 175 249.5 136 Q283 97 331 97 Q392 97 469 165 Q586 268 664.5 429.5 Q743 591 743 710 Z " />
<glyph glyph-name="r" unicode="r" horiz-adv-x="797" d="M107 849 L452 905 L308 419 Q483 718 626 837 Q707 905 758 905 Q791 905 810 885.5 Q829 866 829 829 Q829 763 795 703 Q771 658 726 658 Q703 658 686.5 673 Q670 688 666 719 Q664 738 657 744 Q649 752 638 752 Q621 752 606 744 Q580 730 527 666 Q444 568 347 412 Q305 346 275 263 Q233 149 227 126 L195 0 L42 0 L227 621 Q259 729 259 775 Q259 793 244 805 Q224 821 191 821 Q170 821 114 812 L107 849 Z " />
<glyph glyph-name="s" unicode="s" horiz-adv-x="797" d="M743 905 L682 598 L645 598 Q640 732 588 793 Q536 854 459 854 Q397 854 360.5 820 Q324 786 324 738 Q324 705 338.5 675 Q353 645 402 591 Q532 449 570 377 Q608 305 608 241 Q608 137 521.5 56.5 Q435 -24 303 -24 Q231 -24 137 10 Q104 22 86 22 Q41 22 18 -24 L-19 -24 L42 300 L79 300 Q85 148 142 85 Q199 22 298 22 Q374 22 418.5 64.5 Q463 107 463 169 Q463 209 447 243 Q419 303 329.5 409 Q240 515 214.5 568 Q189 621 189 674 Q189 771 259.5 838 Q330 905 441 905 Q473 905 499 900 Q513 897 564.5 877.5 Q616 858 633 858 Q676 858 705 905 L743 905 Z " />
<glyph glyph-name="t" unicode="t" horiz-adv-x="569" d="M532 1153 L454 881 L611 881 L594 818 L438 818 L266 228 Q238 133 238 105 Q238 88 246 79 Q254 70 265 70 Q290 70 331 105 Q355 125 438 228 L471 203 Q379 69 297 14 Q241 -24 184 -24 Q140 -24 112 3.5 Q84 31 84 74 Q84 128 116 239 L283 818 L132 818 L142 857 Q252 887 325 946.5 Q398 1006 488 1153 L532 1153 Z " />
<glyph glyph-name="u" unicode="u" horiz-adv-x="1024" d="M964 881 L790 285 Q751 152 751 117 Q751 99 757.5 90.5 Q764 82 775 82 Q792 82 812.5 97.5 Q833 113 916 221 L946 198 Q867 73 784 14 Q729 -24 678 -24 Q639 -24 617 -2 Q595 20 595 55 Q595 89 608 145 Q624 219 699 467 Q529 188 414.5 82 Q300 -24 202 -24 Q156 -24 124 8 Q92 40 92 89 Q92 164 136 319 L223 628 Q255 739 255 766 Q255 778 246.5 786.5 Q238 795 228 795 Q207 795 186 780 Q165 765 91 669 L60 691 Q135 807 219 862 Q283 905 337 905 Q374 905 397.5 881.5 Q421 858 421 821 Q421 767 381 628 L287 305 Q248 173 248 138 Q248 119 260.5 107.5 Q273 96 294 96 Q327 96 380 129 Q433 162 521.5 275.5 Q610 389 667.5 488.5 Q725 588 790 805 L812 881 L964 881 Z " />
<glyph glyph-name="v" unicode="v" horiz-adv-x="909" d="M44 843 L333 905 Q364 831 383 754 Q410 641 427 486 Q435 408 449 156 Q574 294 598 327 Q730 506 750 537 Q783 590 796 630 Q807 660 807 687 Q807 713 760.5 747 Q714 781 714 823 Q714 855 739.5 880 Q765 905 800 905 Q842 905 874 870.5 Q906 836 906 785 Q906 734 890 687 Q864 611 793 501.5 Q722 392 564 208 Q544 185 342 -24 L305 -24 Q281 609 205 766 Q180 817 122 817 Q97 817 51 808 L44 843 Z " />
<glyph glyph-name="w" unicode="w" horiz-adv-x="1366" d="M858 905 L927 155 Q1101 359 1205 538 Q1266 643 1266 690 Q1266 712 1256 729 Q1252 738 1224.5 755.5 Q1197 773 1186 791.5 Q1175 810 1175 831 Q1175 862 1198 883.5 Q1221 905 1257 905 Q1298 905 1326.5 874.5 Q1355 844 1355 793 Q1355 741 1340 696 Q1310 610 1223 474 Q1117 311 1004.5 171.5 Q892 32 837 -24 L800 -24 L735 668 L322 -24 L278 -24 Q271 403 235 650 Q220 753 185 785 Q160 808 109 808 Q80 808 35 802 L35 838 L322 905 Q382 738 400 392 Q406 261 410 227 L821 905 L858 905 Z " />
<glyph glyph-name="x" unicode="x" horiz-adv-x="909" d="M355 905 Q404 853 429 801 Q447 765 488 612 L576 744 Q611 792 661 835.5 Q711 879 749 895 Q773 905 802 905 Q845 905 870.5 882 Q896 859 896 826 Q896 788 881 774 Q853 749 817 749 Q796 749 772 758 Q725 774 709 774 Q685 774 652 746 Q590 694 504 545 L586 201 Q605 122 618 106.5 Q631 91 644 91 Q665 91 693 114 Q748 160 787 234 L822 216 Q759 98 662 20 Q607 -24 569 -24 Q513 -24 480 39 Q459 78 393 375 Q237 104 143 26 Q82 -24 25 -24 Q-15 -24 -48 5 Q-72 27 -72 64 Q-72 97 -50 119 Q-28 141 4 141 Q36 141 72 109 Q98 86 112 86 Q124 86 143 102 Q190 140 271 266 Q352 392 377 448 Q315 691 310 705 Q287 770 250 797 Q213 824 141 824 Q118 824 88 822 L88 858 L355 905 Z " />
<glyph glyph-name="y" unicode="y" horiz-adv-x="909" d="M327 905 Q361 847 374 796.5 Q387 746 400 598 L444 106 Q504 178 618 334 Q673 410 754 541 Q803 621 814 653 Q820 669 820 686 Q820 697 813 704 Q806 711 776.5 720.5 Q747 730 727.5 755.5 Q708 781 708 814 Q708 855 732 880 Q756 905 792 905 Q836 905 867 868.5 Q898 832 898 768 Q898 689 844 587.5 Q790 486 636 276 Q482 66 263 -182 Q112 -353 39 -397.5 Q-34 -442 -86 -442 Q-117 -442 -140.5 -418.5 Q-164 -395 -164 -364 Q-164 -325 -131.5 -293 Q-99 -261 -61 -261 Q-41 -261 -28 -270 Q-20 -275 -10.5 -298.5 Q-1 -322 7 -330 Q12 -335 19 -335 Q25 -335 40 -325 Q95 -291 168 -217 Q264 -119 310 -57 L254 577 Q240 734 212 768 Q184 802 118 802 Q97 802 43 796 L34 833 L327 905 Z " />
<glyph glyph-name="z" unicode="z" horiz-adv-x="797" d="M172 881 L807 881 L807 856 L115 136 L408 136 Q512 136 540 144 Q568 152 591.5 178 Q615 204 644 272 L681 272 L594 0 L-57 0 L-57 29 L635 749 L347 749 Q256 749 237 744 Q209 738 181.5 712.5 Q154 687 125 628 L87 628 L172 881 Z " />
<glyph glyph-name="braceleft" unicode="&#x7b;" horiz-adv-x="819" d="M448 -407 L437 -442 Q306 -423 232.5 -342 Q159 -261 159 -149 Q159 -47 236.5 99 Q314 245 314 302 Q314 366 270.5 412 Q227 458 141 470 L153 511 Q256 524 330 578 Q404 632 434 701 Q454 748 462 886.5 Q470 1025 525 1129 Q580 1233 703.5 1318 Q827 1403 972 1422 L962 1387 Q849 1361 779 1307 Q709 1253 677 1178 Q655 1126 647.5 996.5 Q640 867 604.5 786 Q569 705 473.5 622.5 Q378 540 230 493 Q332 450 384 378 Q436 306 436 220 Q436 133 358 -13.5 Q280 -160 280 -227 Q280 -292 318 -337 Q356 -382 448 -407 Z " />
<glyph glyph-name="bar" unicode="&#x7c;" horiz-adv-x="563" d="M320 1422 L320 -442 L237 -442 L237 1422 L320 1422 Z " />
<glyph glyph-name="braceright" unicode="&#x7d;" horiz-adv-x="819" d="M371 1387 L381 1422 Q512 1404 586 1323 Q660 1242 660 1130 Q660 1027 582 881.5 Q504 736 504 679 Q504 615 548 569 Q592 523 678 511 L666 470 Q564 457 490 403 Q416 349 385 280 Q365 234 357 94.5 Q349 -45 293.5 -149 Q238 -253 115 -338 Q-8 -423 -153 -442 L-143 -407 Q-30 -380 40 -326.5 Q110 -273 142 -198 Q164 -145 171.5 -15.5 Q179 114 210 184 Q249 275 345 357.5 Q441 440 589 488 Q487 530 435 602.5 Q383 675 383 761 Q383 848 461 994.5 Q539 1141 539 1207 Q539 1273 501 1318 Q463 1363 371 1387 Z " />
<glyph glyph-name="asciitilde" unicode="&#x7e;" horiz-adv-x="1108" d="M1042 675 L1087 675 Q1083 545 1013 471.5 Q943 398 842 398 Q796 398 743 413.5 Q690 429 469 519 Q315 583 250 583 Q180 583 132 540 Q84 497 64 400 L20 400 Q26 535 94 606.5 Q162 678 254 678 Q298 678 344 664 Q448 634 617.5 561.5 Q787 489 856 489 Q931 489 982 537 Q1033 585 1042 675 Z " />
<glyph glyph-name="Adieresis" unicode="&#xc4;" horiz-adv-x="1251" d="M1055 1387 L952 259 Q944 180 944 155 Q944 115 959 94 Q978 65 1010.5 51 Q1043 37 1120 37 L1109 0 L575 0 L586 37 L609 37 Q674 37 715 65 Q744 84 760 128 Q771 159 781 274 L797 446 L409 446 L271 259 Q224 196 212 168.5 Q200 141 200 117 Q200 85 226 62 Q252 39 312 37 L301 0 L-100 0 L-89 37 Q-15 40 41.5 86.5 Q98 133 210 285 L1020 1387 L1055 1387 Z M857 1054 L464 519 L805 519 L857 1054 Z M1263 1712 Q1308 1712 1339 1680.5 Q1370 1649 1370 1604 Q1370 1560 1339 1528.5 Q1308 1497 1263 1497 Q1219 1497 1187.5 1528.5 Q1156 1560 1156 1604 Q1156 1649 1187 1680.5 Q1218 1712 1263 1712 Z M907 1712 Q952 1712 983.5 1680.5 Q1015 1649 1015 1604 Q1015 1560 983.5 1528.5 Q952 1497 907 1497 Q863 1497 831.5 1528.5 Q800 1560 800 1604 Q800 1649 831.5 1680.5 Q863 1712 907 1712 Z " />
<glyph glyph-name="Aring" unicode="&#xc5;" horiz-adv-x="1251" d="M1055 1387 L952 259 Q944 180 944 155 Q944 115 959 94 Q978 65 1010.5 51 Q1043 37 1120 37 L1109 0 L575 0 L586 37 L609 37 Q674 37 715 65 Q744 84 760 128 Q771 159 781 274 L797 446 L409 446 L271 259 Q224 196 212 168.5 Q200 141 200 117 Q200 85 226 62 Q252 39 312 37 L301 0 L-100 0 L-89 37 Q-15 40 41.5 86.5 Q98 133 210 285 L1020 1387 L1055 1387 Z M857 1054 L464 519 L805 519 L857 1054 Z M1052 1721 Q1131 1721 1186 1666 Q1241 1611 1241 1532 Q1241 1454 1185.5 1398.5 Q1130 1343 1052 1343 Q974 1343 918.5 1398.5 Q863 1454 863 1532 Q863 1611 918 1666 Q973 1721 1052 1721 Z M1053 1657 Q1001 1657 964.5 1620.5 Q928 1584 928 1532 Q928 1481 964.5 1444.5 Q1001 1408 1053 1408 Q1104 1408 1140.5 1444.5 Q1177 1481 1177 1532 Q1177 1584 1141 1620.5 Q1105 1657 1053 1657 Z " />
<glyph glyph-name="Ccedilla" unicode="&#xc7;" horiz-adv-x="1366" d="M1441 1387 L1340 948 L1304 948 L1300 1058 Q1295 1118 1277 1165 Q1259 1212 1223 1246.5 Q1187 1281 1132 1300.5 Q1077 1320 1010 1320 Q831 1320 697 1222 Q526 1097 429 869 Q349 681 349 488 Q349 291 464 173.5 Q579 56 763 56 Q902 56 1010.5 118 Q1119 180 1212 309 L1259 309 Q1149 134 1015 51.5 Q881 -31 694 -31 Q528 -31 400 38.5 Q272 108 205 234 Q138 360 138 505 Q138 727 257 937 Q376 1147 583.5 1267 Q791 1387 1002 1387 Q1101 1387 1224 1340 Q1278 1320 1302 1320 Q1326 1320 1344 1330 Q1362 1340 1404 1387 L1441 1387 Z M738 30 L693 -46 Q752 -59 784 -98 Q816 -137 816 -192 Q816 -259 760 -307 Q684 -370 582 -370 Q527 -370 441 -348 L453 -315 Q503 -327 539 -327 Q603 -327 638.5 -296.5 Q674 -266 674 -223 Q674 -186 653 -168 Q625 -145 569 -144 L679 30 L738 30 Z " />
<glyph glyph-name="Eacute" unicode="&#xc9;" horiz-adv-x="1251" d="M663 1283 L508 747 L635 747 Q771 747 832 788.5 Q893 830 937 942 L974 942 L835 450 L795 450 Q813 512 813 556 Q813 599 795.5 625 Q778 651 747.5 663.5 Q717 676 619 676 L490 676 L359 227 Q340 162 340 128 Q340 102 365 82 Q382 68 450 68 L570 68 Q765 68 882.5 137 Q1000 206 1093 377 L1130 377 L1002 0 L-46 0 L-33 37 Q45 39 72 51 Q112 69 130 97 Q157 138 194 269 L432 1087 Q460 1186 460 1238 Q460 1276 433.5 1297.5 Q407 1319 330 1319 L309 1319 L321 1356 L1295 1356 L1211 1029 L1174 1029 Q1181 1075 1181 1106 Q1181 1159 1155 1195 Q1121 1241 1056 1265 Q1008 1283 835 1283 L663 1283 Z M1025 1802 L731 1459 L697 1459 L800 1802 L1025 1802 Z " />
<glyph glyph-name="Ntilde" unicode="&#xd1;" horiz-adv-x="1366" d="M587 1356 L1006 293 L1233 1087 Q1261 1185 1261 1239 Q1261 1276 1235 1297 Q1209 1318 1138 1318 Q1126 1318 1113 1319 L1124 1356 L1560 1356 L1548 1319 Q1480 1320 1447 1305 Q1400 1284 1377 1251 Q1345 1204 1312 1087 L993 -31 L957 -31 L506 1113 L265 268 Q238 172 238 121 Q238 83 262.5 63.5 Q287 44 379 37 L369 0 L-57 0 L-43 37 Q37 39 64 51 Q105 69 125 98 Q154 142 190 268 L459 1211 Q420 1271 375.5 1293.5 Q331 1316 237 1319 L248 1356 L587 1356 Z M1255 1733 L1285 1733 Q1288 1607 1232 1539 Q1176 1471 1101 1471 Q1028 1471 932.5 1532 Q837 1593 815 1603 Q798 1611 776 1611 Q739 1611 716.5 1585 Q694 1559 680 1475 L648 1475 Q655 1615 708 1675 Q761 1735 836 1735 Q909 1735 1014.5 1665 Q1120 1595 1159 1595 Q1194 1595 1216 1621 Q1245 1654 1255 1733 Z " />
<glyph glyph-name="Odieresis" unicode="&#xd6;" horiz-adv-x="1479" d="M1009 1387 Q1144 1387 1248 1328.5 Q1352 1270 1411 1155.5 Q1470 1041 1470 918 Q1470 700 1343.5 460.5 Q1217 221 1013 95 Q809 -31 591 -31 Q434 -31 328.5 38.5 Q223 108 172.5 222 Q122 336 122 443 Q122 633 213.5 818.5 Q305 1004 432 1128.5 Q559 1253 703 1320 Q847 1387 1009 1387 Z M975 1323 Q875 1323 779.5 1273.5 Q684 1224 590 1111.5 Q496 999 421 817 Q329 593 329 394 Q329 252 402 142.5 Q475 33 626 33 Q717 33 804.5 78 Q892 123 987 232 Q1106 369 1187 581.5 Q1268 794 1268 978 Q1268 1114 1195 1218.5 Q1122 1323 975 1323 Z M1261 1712 Q1306 1712 1337 1680.5 Q1368 1649 1368 1604 Q1368 1560 1337 1528.5 Q1306 1497 1261 1497 Q1217 1497 1185.5 1528.5 Q1154 1560 1154 1604 Q1154 1649 1185 1680.5 Q1216 1712 1261 1712 Z M905 1712 Q950 1712 981.5 1680.5 Q1013 1649 1013 1604 Q1013 1560 981.5 1528.5 Q950 1497 905 1497 Q861 1497 829.5 1528.5 Q798 1560 798 1604 Q798 1649 829.5 1680.5 Q861 1712 905 1712 Z " />
<glyph glyph-name="Udieresis" unicode="&#xdc;" horiz-adv-x="1479" d="M268 1356 L841 1356 L830 1319 Q742 1317 704.5 1302.5 Q667 1288 640.5 1251 Q614 1214 585 1114 L446 634 Q409 506 402 466 Q390 402 390 347 Q390 226 480 142.5 Q570 59 721 59 Q820 59 898 96.5 Q976 134 1031.5 201.5 Q1087 269 1133 384.5 Q1179 500 1214 618 L1334 1032 Q1379 1187 1379 1234 Q1379 1267 1348.5 1290.5 Q1318 1314 1225 1319 L1236 1356 L1667 1356 L1656 1319 Q1580 1319 1546.5 1304.5 Q1513 1290 1488 1252.5 Q1463 1215 1432 1107 L1285 604 Q1214 359 1151 242.5 Q1088 126 968.5 47.5 Q849 -31 672 -31 Q468 -31 343 84.5 Q218 200 218 349 Q218 408 229 475 Q237 519 268 627 L402 1088 Q430 1188 430 1235 Q430 1272 401.5 1292.5 Q373 1313 258 1319 L268 1356 Z M1207 1712 Q1252 1712 1283 1680.5 Q1314 1649 1314 1604 Q1314 1560 1283 1528.5 Q1252 1497 1207 1497 Q1163 1497 1131.5 1528.5 Q1100 1560 1100 1604 Q1100 1649 1131 1680.5 Q1162 1712 1207 1712 Z M851 1712 Q896 1712 927.5 1680.5 Q959 1649 959 1604 Q959 1560 927.5 1528.5 Q896 1497 851 1497 Q807 1497 775.5 1528.5 Q744 1560 744 1604 Q744 1649 775.5 1680.5 Q807 1712 851 1712 Z " />
<glyph glyph-name="aacute" unicode="&#xe1;" horiz-adv-x="1024" d="M961 905 L766 227 L744 136 Q741 123 741 114 Q741 98 751 86 Q759 77 771 77 Q784 77 805 93 Q844 122 909 213 L943 189 Q874 85 801 30.5 Q728 -24 666 -24 Q623 -24 601.5 -2.5 Q580 19 580 60 Q580 109 602 189 L623 264 Q492 93 382 25 Q303 -24 227 -24 Q154 -24 101 36.5 Q48 97 48 203 Q48 362 143.5 538.5 Q239 715 386 821 Q501 905 603 905 Q664 905 704.5 873 Q745 841 766 767 L802 881 L961 905 Z M605 853 Q541 853 469 793 Q367 708 287.5 541 Q208 374 208 239 Q208 171 242 131.5 Q276 92 320 92 Q429 92 557 253 Q728 467 728 692 Q728 777 695 815 Q662 853 605 853 Z M908 1402 L614 1059 L580 1059 L683 1402 L908 1402 Z " />
<glyph glyph-name="agrave" unicode="&#xe0;" horiz-adv-x="1024" d="M961 905 L766 227 L744 136 Q741 123 741 114 Q741 98 751 86 Q759 77 771 77 Q784 77 805 93 Q844 122 909 213 L943 189 Q874 85 801 30.5 Q728 -24 666 -24 Q623 -24 601.5 -2.5 Q580 19 580 60 Q580 109 602 189 L623 264 Q492 93 382 25 Q303 -24 227 -24 Q154 -24 101 36.5 Q48 97 48 203 Q48 362 143.5 538.5 Q239 715 386 821 Q501 905 603 905 Q664 905 704.5 873 Q745 841 766 767 L802 881 L961 905 Z M605 853 Q541 853 469 793 Q367 708 287.5 541 Q208 374 208 239 Q208 171 242 131.5 Q276 92 320 92 Q429 92 557 253 Q728 467 728 692 Q728 777 695 815 Q662 853 605 853 Z M727 1402 L836 1058 L804 1058 L506 1402 L727 1402 Z " />
<glyph glyph-name="acircumflex" unicode="&#xe2;" horiz-adv-x="1024" d="M961 905 L766 227 L744 136 Q741 123 741 114 Q741 98 751 86 Q759 77 771 77 Q784 77 805 93 Q844 122 909 213 L943 189 Q874 85 801 30.5 Q728 -24 666 -24 Q623 -24 601.5 -2.5 Q580 19 580 60 Q580 109 602 189 L623 264 Q492 93 382 25 Q303 -24 227 -24 Q154 -24 101 36.5 Q48 97 48 203 Q48 362 143.5 538.5 Q239 715 386 821 Q501 905 603 905 Q664 905 704.5 873 Q745 841 766 767 L802 881 L961 905 Z M605 853 Q541 853 469 793 Q367 708 287.5 541 Q208 374 208 239 Q208 171 242 131.5 Q276 92 320 92 Q429 92 557 253 Q728 467 728 692 Q728 777 695 815 Q662 853 605 853 Z M885 1387 L960 1071 L939 1071 L770 1273 L451 1071 L424 1071 L735 1387 L885 1387 Z " />
<glyph glyph-name="adieresis" unicode="&#xe4;" horiz-adv-x="1024" d="M961 905 L766 227 L744 136 Q741 123 741 114 Q741 98 751 86 Q759 77 771 77 Q784 77 805 93 Q844 122 909 213 L943 189 Q874 85 801 30.5 Q728 -24 666 -24 Q623 -24 601.5 -2.5 Q580 19 580 60 Q580 109 602 189 L623 264 Q492 93 382 25 Q303 -24 227 -24 Q154 -24 101 36.5 Q48 97 48 203 Q48 362 143.5 538.5 Q239 715 386 821 Q501 905 603 905 Q664 905 704.5 873 Q745 841 766 767 L802 881 L961 905 Z M605 853 Q541 853 469 793 Q367 708 287.5 541 Q208 374 208 239 Q208 171 242 131.5 Q276 92 320 92 Q429 92 557 253 Q728 467 728 692 Q728 777 695 815 Q662 853 605 853 Z M905 1340 Q950 1340 981 1308.5 Q1012 1277 1012 1232 Q1012 1188 981 1156.5 Q950 1125 905 1125 Q861 1125 829.5 1156.5 Q798 1188 798 1232 Q798 1277 829 1308.5 Q860 1340 905 1340 Z M549 1340 Q594 1340 625.5 1308.5 Q657 1277 657 1232 Q657 1188 625.5 1156.5 Q594 1125 549 1125 Q505 1125 473.5 1156.5 Q442 1188 442 1232 Q442 1277 473.5 1308.5 Q505 1340 549 1340 Z " />
<glyph glyph-name="atilde" unicode="&#xe3;" horiz-adv-x="1024" d="M961 905 L766 227 L744 136 Q741 123 741 114 Q741 98 751 86 Q759 77 771 77 Q784 77 805 93 Q844 122 909 213 L943 189 Q874 85 801 30.5 Q728 -24 666 -24 Q623 -24 601.5 -2.5 Q580 19 580 60 Q580 109 602 189 L623 264 Q492 93 382 25 Q303 -24 227 -24 Q154 -24 101 36.5 Q48 97 48 203 Q48 362 143.5 538.5 Q239 715 386 821 Q501 905 603 905 Q664 905 704.5 873 Q745 841 766 767 L802 881 L961 905 Z M605 853 Q541 853 469 793 Q367 708 287.5 541 Q208 374 208 239 Q208 171 242 131.5 Q276 92 320 92 Q429 92 557 253 Q728 467 728 692 Q728 777 695 815 Q662 853 605 853 Z M976 1364 L1006 1364 Q1009 1238 953 1170 Q897 1102 822 1102 Q749 1102 653.5 1163 Q558 1224 536 1234 Q519 1242 497 1242 Q460 1242 437.5 1216 Q415 1190 401 1106 L369 1106 Q376 1246 429 1306 Q482 1366 557 1366 Q630 1366 735.5 1296 Q841 1226 880 1226 Q915 1226 937 1252 Q966 1285 976 1364 Z " />
<glyph glyph-name="aring" unicode="&#xe5;" horiz-adv-x="1024" d="M961 905 L766 227 L744 136 Q741 123 741 114 Q741 98 751 86 Q759 77 771 77 Q784 77 805 93 Q844 122 909 213 L943 189 Q874 85 801 30.5 Q728 -24 666 -24 Q623 -24 601.5 -2.5 Q580 19 580 60 Q580 109 602 189 L623 264 Q492 93 382 25 Q303 -24 227 -24 Q154 -24 101 36.5 Q48 97 48 203 Q48 362 143.5 538.5 Q239 715 386 821 Q501 905 603 905 Q664 905 704.5 873 Q745 841 766 767 L802 881 L961 905 Z M605 853 Q541 853 469 793 Q367 708 287.5 541 Q208 374 208 239 Q208 171 242 131.5 Q276 92 320 92 Q429 92 557 253 Q728 467 728 692 Q728 777 695 815 Q662 853 605 853 Z M740 1421 Q819 1421 874 1366 Q929 1311 929 1232 Q929 1154 873.5 1098.5 Q818 1043 740 1043 Q662 1043 606.5 1098.5 Q551 1154 551 1232 Q551 1311 606 1366 Q661 1421 740 1421 Z M741 1357 Q689 1357 652.5 1320.5 Q616 1284 616 1232 Q616 1181 652.5 1144.5 Q689 1108 741 1108 Q792 1108 828.5 1144.5 Q865 1181 865 1232 Q865 1284 829 1320.5 Q793 1357 741 1357 Z " />
<glyph glyph-name="ccedilla" unicode="&#xe7;" horiz-adv-x="909" d="M787 218 Q683 93 577 34.5 Q471 -24 353 -24 Q211 -24 131.5 56 Q52 136 52 271 Q52 424 137.5 572 Q223 720 367.5 812.5 Q512 905 651 905 Q760 905 814 859.5 Q868 814 868 748 Q868 686 830 642 Q802 608 761 608 Q730 608 709.5 628 Q689 648 689 678 Q689 697 696.5 713 Q704 729 727.5 751.5 Q751 774 756 784 Q761 794 761 805 Q761 826 742 840 Q713 860 660 860 Q562 860 466 791 Q370 722 302 595 Q220 441 220 287 Q220 185 278 125.5 Q336 66 436 66 Q513 66 588.5 104.5 Q664 143 758 244 L787 218 Z M452 30 L407 -46 Q466 -59 498 -98 Q530 -137 530 -192 Q530 -259 474 -307 Q398 -370 296 -370 Q241 -370 155 -348 L167 -315 Q217 -327 253 -327 Q317 -327 352.5 -296.5 Q388 -266 388 -223 Q388 -186 367 -168 Q339 -145 283 -144 L393 30 L452 30 Z " />
<glyph glyph-name="eacute" unicode="&#xe9;" horiz-adv-x="909" d="M244 377 Q237 327 237 294 Q237 205 300 142.5 Q363 80 453 80 Q525 80 591.5 109.5 Q658 139 789 240 L810 211 Q573 -24 358 -24 Q212 -24 138 68 Q64 160 64 271 Q64 420 156 576 Q248 732 387 818.5 Q526 905 673 905 Q779 905 830 862 Q881 819 881 760 Q881 677 815 601 Q728 502 559 441 Q447 400 244 377 Z M251 426 Q399 443 492 484 Q615 539 676.5 615.5 Q738 692 738 761 Q738 803 711.5 829 Q685 855 636 855 Q534 855 419.5 746.5 Q305 638 251 426 Z M854 1402 L560 1059 L526 1059 L629 1402 L854 1402 Z " />
<glyph glyph-name="egrave" unicode="&#xe8;" horiz-adv-x="909" d="M244 377 Q237 327 237 294 Q237 205 300 142.5 Q363 80 453 80 Q525 80 591.5 109.5 Q658 139 789 240 L810 211 Q573 -24 358 -24 Q212 -24 138 68 Q64 160 64 271 Q64 420 156 576 Q248 732 387 818.5 Q526 905 673 905 Q779 905 830 862 Q881 819 881 760 Q881 677 815 601 Q728 502 559 441 Q447 400 244 377 Z M251 426 Q399 443 492 484 Q615 539 676.5 615.5 Q738 692 738 761 Q738 803 711.5 829 Q685 855 636 855 Q534 855 419.5 746.5 Q305 638 251 426 Z M677 1402 L786 1058 L754 1058 L456 1402 L677 1402 Z " />
<glyph glyph-name="ecircumflex" unicode="&#xea;" horiz-adv-x="909" d="M244 377 Q237 327 237 294 Q237 205 300 142.5 Q363 80 453 80 Q525 80 591.5 109.5 Q658 139 789 240 L810 211 Q573 -24 358 -24 Q212 -24 138 68 Q64 160 64 271 Q64 420 156 576 Q248 732 387 818.5 Q526 905 673 905 Q779 905 830 862 Q881 819 881 760 Q881 677 815 601 Q728 502 559 441 Q447 400 244 377 Z M251 426 Q399 443 492 484 Q615 539 676.5 615.5 Q738 692 738 761 Q738 803 711.5 829 Q685 855 636 855 Q534 855 419.5 746.5 Q305 638 251 426 Z M832 1387 L907 1071 L886 1071 L717 1273 L398 1071 L371 1071 L682 1387 L832 1387 Z " />
<glyph glyph-name="edieresis" unicode="&#xeb;" horiz-adv-x="909" d="M244 377 Q237 327 237 294 Q237 205 300 142.5 Q363 80 453 80 Q525 80 591.5 109.5 Q658 139 789 240 L810 211 Q573 -24 358 -24 Q212 -24 138 68 Q64 160 64 271 Q64 420 156 576 Q248 732 387 818.5 Q526 905 673 905 Q779 905 830 862 Q881 819 881 760 Q881 677 815 601 Q728 502 559 441 Q447 400 244 377 Z M251 426 Q399 443 492 484 Q615 539 676.5 615.5 Q738 692 738 761 Q738 803 711.5 829 Q685 855 636 855 Q534 855 419.5 746.5 Q305 638 251 426 Z M851 1340 Q896 1340 927 1308.5 Q958 1277 958 1232 Q958 1188 927 1156.5 Q896 1125 851 1125 Q807 1125 775.5 1156.5 Q744 1188 744 1232 Q744 1277 775 1308.5 Q806 1340 851 1340 Z M495 1340 Q540 1340 571.5 1308.5 Q603 1277 603 1232 Q603 1188 571.5 1156.5 Q540 1125 495 1125 Q451 1125 419.5 1156.5 Q388 1188 388 1232 Q388 1277 419.5 1308.5 Q451 1340 495 1340 Z " />
<glyph glyph-name="iacute" unicode="&#xed;" horiz-adv-x="569" d="M471 905 L273 204 Q253 133 253 119 Q253 103 262.5 93 Q272 83 285 83 Q300 83 321 99 Q378 144 436 227 L471 204 Q403 100 311 29 Q243 -24 181 -24 Q140 -24 114 0.5 Q88 25 88 62 Q88 99 113 185 L243 633 Q275 743 275 771 Q275 793 259.5 807 Q244 821 217 821 Q195 821 126 810 L126 849 L471 905 Z M684 1402 L390 1059 L356 1059 L459 1402 L684 1402 Z " />
<glyph glyph-name="igrave" unicode="&#xec;" horiz-adv-x="569" d="M471 905 L273 204 Q253 133 253 119 Q253 103 262.5 93 Q272 83 285 83 Q300 83 321 99 Q378 144 436 227 L471 204 Q403 100 311 29 Q243 -24 181 -24 Q140 -24 114 0.5 Q88 25 88 62 Q88 99 113 185 L243 633 Q275 743 275 771 Q275 793 259.5 807 Q244 821 217 821 Q195 821 126 810 L126 849 L471 905 Z M456 1402 L565 1058 L533 1058 L235 1402 L456 1402 Z " />
<glyph glyph-name="icircumflex" unicode="&#xee;" horiz-adv-x="569" d="M471 905 L273 204 Q253 133 253 119 Q253 103 262.5 93 Q272 83 285 83 Q300 83 321 99 Q378 144 436 227 L471 204 Q403 100 311 29 Q243 -24 181 -24 Q140 -24 114 0.5 Q88 25 88 62 Q88 99 113 185 L243 633 Q275 743 275 771 Q275 793 259.5 807 Q244 821 217 821 Q195 821 126 810 L126 849 L471 905 Z M625 1387 L700 1071 L679 1071 L510 1273 L191 1071 L164 1071 L475 1387 L625 1387 Z " />
<glyph glyph-name="idieresis" unicode="&#xef;" horiz-adv-x="569" d="M471 905 L273 204 Q253 133 253 119 Q253 103 262.5 93 Q272 83 285 83 Q300 83 321 99 Q378 144 436 227 L471 204 Q403 100 311 29 Q243 -24 181 -24 Q140 -24 114 0.5 Q88 25 88 62 Q88 99 113 185 L243 633 Q275 743 275 771 Q275 793 259.5 807 Q244 821 217 821 Q195 821 126 810 L126 849 L471 905 Z M645 1340 Q690 1340 721 1308.5 Q752 1277 752 1232 Q752 1188 721 1156.5 Q690 1125 645 1125 Q601 1125 569.5 1156.5 Q538 1188 538 1232 Q538 1277 569 1308.5 Q600 1340 645 1340 Z M289 1340 Q334 1340 365.5 1308.5 Q397 1277 397 1232 Q397 1188 365.5 1156.5 Q334 1125 289 1125 Q245 1125 213.5 1156.5 Q182 1188 182 1232 Q182 1277 213.5 1308.5 Q245 1340 289 1340 Z " />
<glyph glyph-name="ntilde" unicode="&#xf1;" horiz-adv-x="1024" d="M452 905 L319 450 Q506 729 605.5 817 Q705 905 797 905 Q847 905 879.5 872 Q912 839 912 786 Q912 726 883 626 L761 205 Q740 132 740 116 Q740 102 748 92.5 Q756 83 765 83 Q777 83 794 96 Q847 138 910 224 L941 205 Q848 72 765 15 Q707 -24 661 -24 Q624 -24 602 -1.5 Q580 21 580 59 Q580 107 614 224 L730 626 Q752 701 752 743 Q752 763 739 775.5 Q726 788 707 788 Q679 788 640 764 Q566 719 486 615.5 Q406 512 317 351 Q270 266 239 165 L189 0 L39 0 L221 626 Q253 739 253 762 Q253 784 235.5 800.5 Q218 817 192 817 Q180 817 150 813 L112 807 L106 843 L452 905 Z M976 1364 L1006 1364 Q1009 1238 953 1170 Q897 1102 822 1102 Q749 1102 653.5 1163 Q558 1224 536 1234 Q519 1242 497 1242 Q460 1242 437.5 1216 Q415 1190 401 1106 L369 1106 Q376 1246 429 1306 Q482 1366 557 1366 Q630 1366 735.5 1296 Q841 1226 880 1226 Q915 1226 937 1252 Q966 1285 976 1364 Z " />
<glyph glyph-name="oacute" unicode="&#xf3;" horiz-adv-x="1024" d="M947 592 Q947 442 867.5 295 Q788 148 646 62 Q504 -24 370 -24 Q233 -24 146.5 63.5 Q60 151 60 290 Q60 437 144.5 585 Q229 733 370.5 819 Q512 905 644 905 Q776 905 861.5 818 Q947 731 947 592 Z M781 661 Q781 754 735.5 803.5 Q690 853 618 853 Q471 853 347.5 642.5 Q224 432 224 224 Q224 129 272 77.5 Q320 26 393 26 Q534 26 657.5 235.5 Q781 445 781 661 Z M908 1402 L614 1059 L580 1059 L683 1402 L908 1402 Z " />
<glyph glyph-name="ograve" unicode="&#xf2;" horiz-adv-x="1024" d="M947 592 Q947 442 867.5 295 Q788 148 646 62 Q504 -24 370 -24 Q233 -24 146.5 63.5 Q60 151 60 290 Q60 437 144.5 585 Q229 733 370.5 819 Q512 905 644 905 Q776 905 861.5 818 Q947 731 947 592 Z M781 661 Q781 754 735.5 803.5 Q690 853 618 853 Q471 853 347.5 642.5 Q224 432 224 224 Q224 129 272 77.5 Q320 26 393 26 Q534 26 657.5 235.5 Q781 445 781 661 Z M775 1402 L884 1058 L852 1058 L554 1402 L775 1402 Z " />
<glyph glyph-name="ocircumflex" unicode="&#xf4;" horiz-adv-x="1024" d="M947 592 Q947 442 867.5 295 Q788 148 646 62 Q504 -24 370 -24 Q233 -24 146.5 63.5 Q60 151 60 290 Q60 437 144.5 585 Q229 733 370.5 819 Q512 905 644 905 Q776 905 861.5 818 Q947 731 947 592 Z M781 661 Q781 754 735.5 803.5 Q690 853 618 853 Q471 853 347.5 642.5 Q224 432 224 224 Q224 129 272 77.5 Q320 26 393 26 Q534 26 657.5 235.5 Q781 445 781 661 Z M885 1387 L960 1071 L939 1071 L770 1273 L451 1071 L424 1071 L735 1387 L885 1387 Z " />
<glyph glyph-name="odieresis" unicode="&#xf6;" horiz-adv-x="1024" d="M947 592 Q947 442 867.5 295 Q788 148 646 62 Q504 -24 370 -24 Q233 -24 146.5 63.5 Q60 151 60 290 Q60 437 144.5 585 Q229 733 370.5 819 Q512 905 644 905 Q776 905 861.5 818 Q947 731 947 592 Z M781 661 Q781 754 735.5 803.5 Q690 853 618 853 Q471 853 347.5 642.5 Q224 432 224 224 Q224 129 272 77.5 Q320 26 393 26 Q534 26 657.5 235.5 Q781 445 781 661 Z M905 1340 Q950 1340 981 1308.5 Q1012 1277 1012 1232 Q1012 1188 981 1156.5 Q950 1125 905 1125 Q861 1125 829.5 1156.5 Q798 1188 798 1232 Q798 1277 829 1308.5 Q860 1340 905 1340 Z M549 1340 Q594 1340 625.5 1308.5 Q657 1277 657 1232 Q657 1188 625.5 1156.5 Q594 1125 549 1125 Q505 1125 473.5 1156.5 Q442 1188 442 1232 Q442 1277 473.5 1308.5 Q505 1340 549 1340 Z " />
<glyph glyph-name="otilde" unicode="&#xf5;" horiz-adv-x="1024" d="M947 592 Q947 442 867.5 295 Q788 148 646 62 Q504 -24 370 -24 Q233 -24 146.5 63.5 Q60 151 60 290 Q60 437 144.5 585 Q229 733 370.5 819 Q512 905 644 905 Q776 905 861.5 818 Q947 731 947 592 Z M781 661 Q781 754 735.5 803.5 Q690 853 618 853 Q471 853 347.5 642.5 Q224 432 224 224 Q224 129 272 77.5 Q320 26 393 26 Q534 26 657.5 235.5 Q781 445 781 661 Z M976 1364 L1006 1364 Q1009 1238 953 1170 Q897 1102 822 1102 Q749 1102 653.5 1163 Q558 1224 536 1234 Q519 1242 497 1242 Q460 1242 437.5 1216 Q415 1190 401 1106 L369 1106 Q376 1246 429 1306 Q482 1366 557 1366 Q630 1366 735.5 1296 Q841 1226 880 1226 Q915 1226 937 1252 Q966 1285 976 1364 Z " />
<glyph glyph-name="uacute" unicode="&#xfa;" horiz-adv-x="1024" d="M964 881 L790 285 Q751 152 751 117 Q751 99 757.5 90.5 Q764 82 775 82 Q792 82 812.5 97.5 Q833 113 916 221 L946 198 Q867 73 784 14 Q729 -24 678 -24 Q639 -24 617 -2 Q595 20 595 55 Q595 89 608 145 Q624 219 699 467 Q529 188 414.5 82 Q300 -24 202 -24 Q156 -24 124 8 Q92 40 92 89 Q92 164 136 319 L223 628 Q255 739 255 766 Q255 778 246.5 786.5 Q238 795 228 795 Q207 795 186 780 Q165 765 91 669 L60 691 Q135 807 219 862 Q283 905 337 905 Q374 905 397.5 881.5 Q421 858 421 821 Q421 767 381 628 L287 305 Q248 173 248 138 Q248 119 260.5 107.5 Q273 96 294 96 Q327 96 380 129 Q433 162 521.5 275.5 Q610 389 667.5 488.5 Q725 588 790 805 L812 881 L964 881 Z M908 1402 L614 1059 L580 1059 L683 1402 L908 1402 Z " />
<glyph glyph-name="ugrave" unicode="&#xf9;" horiz-adv-x="1024" d="M964 881 L790 285 Q751 152 751 117 Q751 99 757.5 90.5 Q764 82 775 82 Q792 82 812.5 97.5 Q833 113 916 221 L946 198 Q867 73 784 14 Q729 -24 678 -24 Q639 -24 617 -2 Q595 20 595 55 Q595 89 608 145 Q624 219 699 467 Q529 188 414.5 82 Q300 -24 202 -24 Q156 -24 124 8 Q92 40 92 89 Q92 164 136 319 L223 628 Q255 739 255 766 Q255 778 246.5 786.5 Q238 795 228 795 Q207 795 186 780 Q165 765 91 669 L60 691 Q135 807 219 862 Q283 905 337 905 Q374 905 397.5 881.5 Q421 858 421 821 Q421 767 381 628 L287 305 Q248 173 248 138 Q248 119 260.5 107.5 Q273 96 294 96 Q327 96 380 129 Q433 162 521.5 275.5 Q610 389 667.5 488.5 Q725 588 790 805 L812 881 L964 881 Z M641 1402 L750 1058 L718 1058 L420 1402 L641 1402 Z " />
<glyph glyph-name="ucircumflex" unicode="&#xfb;" horiz-adv-x="1024" d="M964 881 L790 285 Q751 152 751 117 Q751 99 757.5 90.5 Q764 82 775 82 Q792 82 812.5 97.5 Q833 113 916 221 L946 198 Q867 73 784 14 Q729 -24 678 -24 Q639 -24 617 -2 Q595 20 595 55 Q595 89 608 145 Q624 219 699 467 Q529 188 414.5 82 Q300 -24 202 -24 Q156 -24 124 8 Q92 40 92 89 Q92 164 136 319 L223 628 Q255 739 255 766 Q255 778 246.5 786.5 Q238 795 228 795 Q207 795 186 780 Q165 765 91 669 L60 691 Q135 807 219 862 Q283 905 337 905 Q374 905 397.5 881.5 Q421 858 421 821 Q421 767 381 628 L287 305 Q248 173 248 138 Q248 119 260.5 107.5 Q273 96 294 96 Q327 96 380 129 Q433 162 521.5 275.5 Q610 389 667.5 488.5 Q725 588 790 805 L812 881 L964 881 Z M825 1387 L900 1071 L879 1071 L710 1273 L391 1071 L364 1071 L675 1387 L825 1387 Z " />
<glyph glyph-name="udieresis" unicode="&#xfc;" horiz-adv-x="1024" d="M964 881 L790 285 Q751 152 751 117 Q751 99 757.5 90.5 Q764 82 775 82 Q792 82 812.5 97.5 Q833 113 916 221 L946 198 Q867 73 784 14 Q729 -24 678 -24 Q639 -24 617 -2 Q595 20 595 55 Q595 89 608 145 Q624 219 699 467 Q529 188 414.5 82 Q300 -24 202 -24 Q156 -24 124 8 Q92 40 92 89 Q92 164 136 319 L223 628 Q255 739 255 766 Q255 778 246.5 786.5 Q238 795 228 795 Q207 795 186 780 Q165 765 91 669 L60 691 Q135 807 219 862 Q283 905 337 905 Q374 905 397.5 881.5 Q421 858 421 821 Q421 767 381 628 L287 305 Q248 173 248 138 Q248 119 260.5 107.5 Q273 96 294 96 Q327 96 380 129 Q433 162 521.5 275.5 Q610 389 667.5 488.5 Q725 588 790 805 L812 881 L964 881 Z M881 1340 Q926 1340 957 1308.5 Q988 1277 988 1232 Q988 1188 957 1156.5 Q926 1125 881 1125 Q837 1125 805.5 1156.5 Q774 1188 774 1232 Q774 1277 805 1308.5 Q836 1340 881 1340 Z M525 1340 Q570 1340 601.5 1308.5 Q633 1277 633 1232 Q633 1188 601.5 1156.5 Q570 1125 525 1125 Q481 1125 449.5 1156.5 Q418 1188 418 1232 Q418 1277 449.5 1308.5 Q481 1340 525 1340 Z " />
<glyph glyph-name="dagger" unicode="&#x2020;" horiz-adv-x="1024" d="M686 672 Q597 513 523 325 Q449 137 273 -415 L235 -415 Q470 319 470 638 L469 672 Q525 723 560.5 777 Q596 831 621 905 Q547 897 454 857.5 Q361 818 324 818 Q279 818 246 847 Q221 869 221 904 Q221 940 250 965.5 Q279 991 329 991 Q376 991 459 962 Q516 942 541 937 Q566 932 631 929 Q650 996 650 1093 L646 1227 Q646 1298 689 1350 Q720 1387 768 1387 Q806 1387 831.5 1360.5 Q857 1334 857 1291 Q857 1253 844 1221 Q826 1176 770 1101.5 Q714 1027 698 999.5 Q682 972 669 929 Q730 933 751.5 937 Q773 941 821 957 Q918 990 967 990 Q1012 990 1040 964.5 Q1068 939 1068 904 Q1068 869 1039.5 842.5 Q1011 816 967 816 Q939 816 914 823 Q889 830 815 862.5 Q741 895 659 905 Q648 841 648 803 Q648 739 686 672 Z " />
<glyph glyph-name="degree" unicode="&#xb0;" horiz-adv-x="819" d="M519 1386 Q648 1386 737.5 1296 Q827 1206 827 1078 Q827 951 737 861 Q647 771 519 771 Q392 771 302 861 Q212 951 212 1078 Q212 1206 301.5 1296 Q391 1386 519 1386 Z M519 1302 Q426 1302 361 1237 Q296 1172 296 1079 Q296 987 361 921.5 Q426 856 519 856 Q611 856 676.5 921.5 Q742 987 742 1079 Q742 1172 677 1237 Q612 1302 519 1302 Z " />
<glyph glyph-name="cent" unicode="&#xa2;" horiz-adv-x="1024" d="M850 221 Q763 101 664 44 Q565 -13 432 -24 L324 -377 L266 -377 L373 -24 Q252 -11 183 67 Q114 145 114 267 Q114 490 272.5 678.5 Q431 867 648 905 L768 1303 L824 1303 L708 905 Q825 905 876.5 860.5 Q928 816 928 743 Q928 683 897 646 Q866 609 825 609 Q792 609 772.5 627.5 Q753 646 753 676 Q753 697 761 713 Q769 729 797 759 Q825 789 825 809 Q825 820 816 830 Q803 846 780.5 853 Q758 860 695 860 L459 69 L500 66 Q668 66 824 246 L850 221 Z M405 82 L634 848 Q544 809 487 756 Q389 663 336.5 540.5 Q284 418 284 291 Q284 208 318 153 Q344 114 405 82 Z " />
<glyph glyph-name="sterling" unicode="&#xa3;" horiz-adv-x="1024" d="M576 742 L846 742 L821 657 L556 657 Q501 413 420 225 Q459 210 516 185 Q607 144 658 130 Q709 116 751 116 Q794 116 832 136 Q870 156 902 196 L946 196 Q889 83 811 26 Q733 -31 634 -31 Q571 -31 514.5 -6 Q458 19 354 101 Q310 35 264.5 2 Q219 -31 172 -31 Q119 -31 84 2.5 Q49 36 49 89 Q49 156 105.5 207 Q162 258 246 258 Q261 258 280.5 257 Q300 256 323 253 Q343 359 374 657 L143 657 L168 742 L387 742 Q471 1122 611 1267 Q724 1384 881 1384 Q968 1384 1021 1336 Q1074 1288 1074 1225 Q1074 1184 1049 1158.5 Q1024 1133 988 1133 Q948 1133 920 1164 Q905 1181 891.5 1235.5 Q878 1290 868 1302 Q846 1327 817 1327 Q779 1327 748 1295 Q701 1247 659 1110 Q641 1049 576 742 Z M291 145 Q262 161 238.5 169 Q215 177 197 177 Q158 177 130 150.5 Q102 124 102 88 Q102 58 121 37 Q140 16 166 16 Q199 16 231.5 44.5 Q264 73 291 145 Z " />
<glyph glyph-name="section" unicode="&#xa7;" horiz-adv-x="1024" d="M544 766 Q480 852 456.5 914 Q433 976 433 1047 Q433 1198 532 1298.5 Q631 1399 771 1399 Q886 1399 965 1330 Q1044 1261 1044 1189 Q1044 1158 1019 1130 Q1003 1111 973 1111 Q943 1111 925 1131 Q907 1151 895.5 1221 Q884 1291 851 1317 Q801 1356 738 1356 Q652 1356 587 1291 Q522 1226 522 1136 Q522 1057 551 996 Q580 935 688.5 814.5 Q797 694 838 600 Q866 535 866 460 Q866 347 794 273.5 Q722 200 619 200 Q577 200 522 222 Q593 123 617.5 60 Q642 -3 642 -70 Q642 -214 541.5 -315 Q441 -416 294 -416 Q162 -416 79 -342.5 Q-4 -269 -4 -181 Q-4 -145 17 -121.5 Q38 -98 63 -98 Q91 -98 114.5 -122 Q138 -146 149 -211 Q163 -298 209 -337 Q254 -376 324 -376 Q418 -376 485.5 -312 Q553 -248 553 -157 Q553 -89 526 -26 Q499 37 424 125 Q279 293 244.5 364.5 Q210 436 210 522 Q210 637 280 707.5 Q350 778 462 778 Q497 778 544 766 Z M453 743 Q390 743 345 699.5 Q300 656 300 598 Q300 467 407.5 351.5 Q515 236 622 236 Q678 236 721 279.5 Q764 323 764 384 Q764 471 714 560 Q664 649 591 696 Q518 743 453 743 Z " />
<glyph glyph-name="bullet" unicode="&#x2022;" horiz-adv-x="717" d="M424 928 Q528 928 601.5 854.5 Q675 781 675 677 Q675 573 601.5 499.5 Q528 426 424 426 Q320 426 246.5 499.5 Q173 573 173 677 Q173 781 246 854.5 Q319 928 424 928 Z " />
<glyph glyph-name="paragraph" unicode="&#xb6;" horiz-adv-x="1071" d="M920 1301 L920 -442 L848 -442 L848 1301 L661 1301 L661 -442 L588 -442 L588 601 Q397 609 302.5 651.5 Q208 694 158 782.5 Q108 871 108 981 Q108 1091 151 1161 Q209 1257 305.5 1306.5 Q402 1356 558 1356 L1053 1356 L1053 1301 L920 1301 Z " />
<glyph glyph-name="germandbls" unicode="&#xdf;" horiz-adv-x="1024" d="M525 829 Q689 829 782.5 946.5 Q876 1064 876 1205 Q876 1276 832 1323 Q788 1370 726 1370 Q667 1370 620 1336.5 Q573 1303 528 1216 Q499 1158 442 962 L251 302 L127 -79 Q95 -178 69 -225 Q33 -288 -19 -341.5 Q-71 -395 -121.5 -418.5 Q-172 -442 -217 -442 Q-265 -442 -303 -408 Q-329 -385 -329 -344 Q-329 -312 -308 -291 Q-287 -270 -257 -270 Q-234 -270 -218 -285.5 Q-202 -301 -202 -320 Q-202 -334 -215 -357 Q-225 -373 -225 -381 Q-225 -389 -219 -393 Q-211 -400 -195 -400 Q-156 -400 -119 -362 Q-68 -309 -13 -121 L132 413 L274 905 Q342 1141 394 1227.5 Q446 1314 534 1368 Q622 1422 730 1422 Q862 1422 941 1345.5 Q1020 1269 1020 1153 Q1020 1054 967 978 Q914 902 820 854 Q754 821 634 800 Q737 773 790 735 Q843 697 876.5 629.5 Q910 562 910 485 Q910 358 847 239.5 Q784 121 682 48.5 Q580 -24 497 -24 Q427 -24 381.5 24 Q336 72 336 152 Q336 208 359.5 235 Q383 262 418 262 Q447 262 466.5 242.5 Q486 223 486 194 Q486 163 463 116 Q446 82 446 67 Q446 47 460.5 33.5 Q475 20 496 20 Q533 20 562 46 Q635 110 680 231 Q739 386 739 525 Q739 640 665 716 Q612 772 514 787 L525 829 Z " />
<glyph glyph-name="registered" unicode="&#xae;" horiz-adv-x="1556" d="M848 1387 Q1027 1387 1197 1295.5 Q1367 1204 1462.5 1033.5 Q1558 863 1558 678 Q1558 494 1464 325 Q1370 156 1201 62.5 Q1032 -31 848 -31 Q664 -31 495.5 62.5 Q327 156 233 325 Q139 494 139 678 Q139 863 234.5 1033.5 Q330 1204 500 1295.5 Q670 1387 848 1387 Z M848 1326 Q685 1326 530 1242 Q375 1158 288 1002.5 Q201 847 201 678 Q201 510 286.5 356 Q372 202 526 116 Q680 30 848 30 Q1016 30 1170.5 116 Q1325 202 1410.5 356 Q1496 510 1496 678 Q1496 847 1409 1002.5 Q1322 1158 1167 1242 Q1012 1326 848 1326 Z M456 1114 L842 1114 Q987 1114 1063 1048.5 Q1139 983 1139 890 Q1139 814 1087.5 756.5 Q1036 699 917 668 L1126 370 Q1164 317 1194 297 Q1213 285 1247 282 L1247 249 L1063 249 L769 654 L693 654 L693 345 Q699 312 721.5 297 Q744 282 811 282 L811 249 L444 249 L444 282 Q492 282 512 293.5 Q532 305 541 327 Q548 343 548 420 L548 943 Q548 1017 545 1030 Q538 1053 519.5 1065.5 Q501 1078 456 1078 L456 1114 Z M693 697 Q811 697 865.5 720 Q920 743 949 784.5 Q978 826 978 879 Q978 960 921.5 1015 Q865 1070 777 1070 Q739 1070 693 1054 L693 697 Z " />
<glyph glyph-name="copyright" unicode="&#xa9;" horiz-adv-x="1556" d="M848 1387 Q1027 1387 1197 1295.5 Q1367 1204 1462.5 1033.5 Q1558 863 1558 678 Q1558 494 1464 325 Q1370 156 1201 62.5 Q1032 -31 848 -31 Q664 -31 495.5 62.5 Q327 156 233 325 Q139 494 139 678 Q139 863 234.5 1033.5 Q330 1204 500 1295.5 Q670 1387 848 1387 Z M848 1326 Q685 1326 530 1242 Q375 1158 288 1002.5 Q201 847 201 678 Q201 510 286.5 356 Q372 202 526 116 Q680 30 848 30 Q1016 30 1170.5 116 Q1325 202 1410.5 356 Q1496 510 1496 678 Q1496 847 1409 1002.5 Q1322 1158 1167 1242 Q1012 1326 848 1326 Z M1199 1134 L1219 854 L1180 854 Q1144 973 1065.5 1031.5 Q987 1090 877 1090 Q795 1090 731 1056 Q667 1022 626 965 Q596 922 576 851 Q556 780 556 701 Q556 489 647 388.5 Q738 288 887 288 Q1082 288 1199 450 L1236 431 Q1097 228 853 228 Q653 228 521.5 357.5 Q390 487 390 672 Q390 864 530 999.5 Q670 1135 888 1135 Q934 1135 964.5 1129 Q995 1123 1073 1097 Q1098 1089 1110 1089 Q1126 1089 1137 1097.5 Q1148 1106 1159 1134 L1199 1134 Z " />
<glyph glyph-name="trademark" unicode="&#x2122;" horiz-adv-x="2007" d="M211 1356 L939 1356 L961 1155 L927 1155 Q917 1227 874.5 1261.5 Q832 1296 733 1296 L658 1296 L658 717 Q658 633 678 610.5 Q698 588 764 585 L764 549 L390 549 L390 585 Q455 591 472.5 612.5 Q490 634 490 716 L490 1296 L414 1296 Q319 1296 279 1264.5 Q239 1233 224 1155 L190 1155 L211 1356 Z M1316 1356 L1589 784 L1854 1356 L2133 1356 L2133 1319 Q2077 1318 2058.5 1308 Q2040 1298 2031 1276 Q2022 1254 2022 1184 L2022 716 Q2022 631 2041 610 Q2060 589 2133 585 L2133 549 L1735 549 L1735 585 Q1794 586 1814.5 597 Q1835 608 1844.5 629 Q1854 650 1854 715 L1854 1207 L1547 549 L1515 549 L1207 1198 L1207 716 Q1207 648 1215.5 627.5 Q1224 607 1242.5 596 Q1261 585 1300 585 L1336 585 L1336 549 L1030 549 L1030 585 Q1086 585 1105.5 595 Q1125 605 1134 626 Q1143 647 1143 716 L1143 1182 Q1143 1258 1134.5 1278 Q1126 1298 1106 1308.5 Q1086 1319 1030 1319 L1030 1356 L1316 1356 Z " />
<glyph glyph-name="acute" unicode="&#xb4;" horiz-adv-x="682" d="M737 1402 L443 1059 L409 1059 L512 1402 L737 1402 Z " />
<glyph glyph-name="dieresis" unicode="&#xa8;" horiz-adv-x="682" d="M731 1340 Q776 1340 807 1308.5 Q838 1277 838 1232 Q838 1188 807 1156.5 Q776 1125 731 1125 Q687 1125 655.5 1156.5 Q624 1188 624 1232 Q624 1277 655 1308.5 Q686 1340 731 1340 Z M375 1340 Q420 1340 451.5 1308.5 Q483 1277 483 1232 Q483 1188 451.5 1156.5 Q420 1125 375 1125 Q331 1125 299.5 1156.5 Q268 1188 268 1232 Q268 1277 299.5 1308.5 Q331 1340 375 1340 Z " />
<glyph glyph-name="notequal" unicode="&#x2260;" horiz-adv-x="1124" d="M25 818 L627 818 L837 1351 L917 1351 L711 818 L1099 818 L1099 724 L674 724 L530 354 L1099 354 L1099 261 L494 261 L283 -270 L203 -270 L412 261 L25 261 L25 354 L448 354 L593 724 L25 724 L25 818 Z " />
<glyph glyph-name="AE" unicode="&#xc6;" horiz-adv-x="1821" d="M1099 679 L964 218 Q946 153 946 130 Q946 109 967.5 90 Q989 71 1034 71 L1154 71 Q1499 71 1651 378 L1690 378 L1559 0 L560 0 L570 37 Q658 37 699 66 Q756 106 791 224 L867 483 L450 483 L305 304 Q227 207 205 165 Q191 138 191 110 Q191 79 216 59 Q241 39 305 37 L294 0 L-108 0 L-98 37 Q-36 42 15 74.5 Q66 107 180 249 L891 1134 Q943 1198 955 1222 Q967 1246 967 1266 Q967 1281 958 1293 Q949 1305 930 1312 Q911 1319 861 1319 L875 1356 L1862 1356 L1779 1033 L1737 1033 Q1746 1082 1746 1115 Q1746 1164 1721 1198 Q1687 1244 1621 1269 Q1571 1289 1415 1289 L1274 1289 L1118 750 L1217 750 Q1341 750 1398 786 Q1477 835 1515 944 L1559 944 L1415 451 L1374 451 Q1392 520 1392 562 Q1392 626 1341 659 Q1308 679 1193 679 L1099 679 Z M891 559 L1099 1289 L509 559 L891 559 Z " />
<glyph glyph-name="Oslash" unicode="&#xd8;" horiz-adv-x="1479" d="M1323 1273 L1456 1411 L1510 1356 L1374 1218 Q1471 1072 1471 918 Q1471 701 1342.5 464 Q1214 227 1005 98 Q796 -31 593 -31 Q416 -31 279 82 L127 -72 L72 -24 L228 138 Q172 217 148 287.5 Q124 358 124 443 Q124 670 256.5 901.5 Q389 1133 593.5 1260 Q798 1387 1001 1387 Q1109 1387 1199 1352 Q1260 1328 1323 1273 Z M1225 1170 Q1189 1243 1138 1276 Q1068 1321 974 1321 Q876 1321 796 1280 Q687 1223 588.5 1108 Q490 993 410.5 793 Q331 593 331 393 Q331 338 349 262 L1225 1170 Z M1254 1093 L378 183 Q458 37 627 37 Q720 37 806 81 Q892 125 995.5 244.5 Q1099 364 1184 574.5 Q1269 785 1269 979 Q1269 1026 1254 1093 Z " />
<glyph glyph-name="infinity" unicode="&#x221e;" horiz-adv-x="1460" d="M653 667 Q721 823 802 883.5 Q883 944 1023 944 Q1184 944 1295 828 Q1406 712 1406 527 Q1406 344 1298 225.5 Q1190 107 1057 107 Q958 107 873 180 Q817 228 720 393 Q656 269 580 214.5 Q504 160 396 160 Q252 160 152.5 263 Q53 366 53 529 Q53 694 145 795 Q237 896 360 896 Q446 896 512 851.5 Q578 807 653 667 Z M749 464 Q824 308 897 254.5 Q970 201 1061 201 Q1184 201 1266.5 289.5 Q1349 378 1349 527 Q1349 674 1262 770 Q1175 866 1067 866 Q998 866 946.5 831 Q895 796 853 719 Q829 674 749 464 Z M624 590 Q575 700 512 752 Q449 804 357 804 Q251 804 179.5 729.5 Q108 655 108 530 Q108 397 178.5 317.5 Q249 238 338 238 Q433 238 506 323 Q553 379 624 590 Z " />
<glyph glyph-name="plusminus" unicode="&#xb1;" horiz-adv-x="1124" d="M53 141 L53 222 L551 222 L551 640 L53 640 L53 722 L551 722 L551 1219 L631 1219 L631 722 L1131 722 L1131 640 L631 640 L631 222 L1132 222 L1131 141 L53 141 Z " />
<glyph glyph-name="lessequal" unicode="&#x2264;" horiz-adv-x="1124" d="M1168 246 L95 702 L95 785 L1168 1239 L1168 1137 L218 744 L1168 348 L1168 246 Z M94 -70 L1170 -70 L1170 -163 L94 -163 L94 -70 Z " />
<glyph glyph-name="greaterequal" unicode="&#x2265;" horiz-adv-x="1124" d="M91 1239 L1164 783 L1164 700 L91 246 L91 348 L1041 741 L91 1137 L91 1239 Z M90 -70 L1166 -70 L1166 -163 L90 -163 L90 -70 Z " />
<glyph glyph-name="yen" unicode="&#xa5;" horiz-adv-x="1024" d="M607 443 L1059 443 L1038 377 L587 377 L557 277 Q525 169 525 117 Q525 82 549 64 Q580 41 678 37 L664 0 L149 0 L159 37 Q243 42 266 53 Q304 72 328 109 Q345 134 382 258 L418 377 L-14 377 L6 443 L439 443 L502 652 L49 652 L68 719 L484 719 L361 1122 Q325 1239 295 1273.5 Q265 1308 210 1318 L219 1356 L664 1356 L654 1318 Q566 1318 536 1294.5 Q506 1271 506 1233 Q506 1191 531 1106 L645 719 L920 1098 Q1010 1224 1010 1266 Q1010 1283 990 1297 Q962 1315 880 1318 L889 1356 L1275 1356 L1264 1318 Q1206 1312 1157 1277 Q1108 1242 1026 1129 L726 719 L1121 719 L1101 652 L677 652 L664 634 L607 443 Z " />
<glyph glyph-name="uni00B5" unicode="&#xb5;" horiz-adv-x="1180" d="M365 881 L517 881 L370 371 Q337 256 332.5 234.5 Q328 213 328 189 Q328 129 355 99.5 Q382 70 426 70 Q469 70 542 124 Q615 178 715 340 Q738 390 770 501 L881 881 L1032 881 L865 303 L837 208 Q832 179 832 152 Q832 112 848.5 92.5 Q865 73 890 73 Q918 73 945 95 Q981 125 1026 215 L1062 215 Q1034 128 944.5 52 Q855 -24 809 -24 Q755 -24 716.5 15.5 Q678 55 678 123 Q678 153 683 202 Q605 88 517.5 32 Q430 -24 361 -24 Q300 -24 256 6 Q228 26 199 84 Q171 -9 160.5 -65.5 Q150 -122 137 -273 Q128 -370 98.5 -405.5 Q69 -441 28 -441 Q-5 -441 -22 -422 Q-46 -396 -46 -363 Q-46 -339 -36.5 -313 Q-27 -287 31 -175 Q64 -111 93 -32.5 Q122 46 171 215 L365 881 Z " />
<glyph glyph-name="partialdiff" unicode="&#x2202;" horiz-adv-x="1012" d="M929 717 Q941 830 941 903 Q941 1083 846.5 1181.5 Q752 1280 595 1280 Q489 1280 419 1240 Q349 1200 294 1121 L248 1121 Q325 1279 414 1350.5 Q503 1422 629 1422 Q719 1422 804.5 1373 Q890 1324 942.5 1215 Q995 1106 995 920 Q995 566 841 284 Q668 -31 403 -31 Q247 -31 155.5 59 Q64 149 64 304 Q64 421 110.5 533.5 Q157 646 228 724 Q299 802 386 848 Q499 908 616 908 Q698 908 764.5 876.5 Q831 845 874 800 Q901 772 929 717 Z M912 628 Q873 739 795.5 796 Q718 853 625 853 Q535 853 448 791 Q361 729 297 573.5 Q233 418 233 263 Q233 149 288 87.5 Q343 26 428 26 Q551 26 679 156 Q842 322 912 628 Z " />
<glyph glyph-name="summation" unicode="&#x2211;" horiz-adv-x="1460" d="M1356 -442 L43 -442 L43 -405 L712 496 L43 1383 L43 1420 L1321 1420 L1348 1083 L1308 1083 Q1292 1221 1230.5 1280 Q1169 1339 1059 1339 L319 1339 L881 582 L252 -265 L1070 -265 Q1140 -265 1223 -238 Q1280 -220 1317.5 -171.5 Q1355 -123 1380 -19 L1420 -27 L1356 -442 Z " />
<glyph glyph-name="product" unicode="&#x220f;" horiz-adv-x="1686" d="M1340 1342 L545 1342 L545 -249 Q545 -332 582 -368 Q619 -404 707 -404 L743 -404 L743 -442 L146 -442 L146 -404 L181 -404 Q269 -404 306.5 -368.5 Q344 -333 344 -249 L344 1228 Q344 1311 307 1347 Q270 1383 181 1383 L146 1383 L146 1420 L1740 1420 L1740 1383 L1705 1383 Q1617 1383 1580 1347 Q1543 1311 1543 1228 L1543 -249 Q1543 -332 1580 -368 Q1617 -404 1705 -404 L1740 -404 L1740 -442 L1143 -442 L1143 -404 L1178 -404 Q1266 -404 1303 -368.5 Q1340 -333 1340 -249 L1340 1342 Z " />
<glyph glyph-name="integral" unicode="&#x222b;" horiz-adv-x="561" d="M200 895 L218 1476 Q226 1630 268 1731 Q295 1798 342 1830.5 Q389 1863 435 1863 Q485 1863 522.5 1829.5 Q560 1796 560 1756 Q560 1709 533.5 1680.5 Q507 1652 468 1652 Q433 1652 392 1688 Q369 1708 352 1708 Q335 1708 323.5 1693.5 Q312 1679 312 1644 Q312 1603 321 1499 Q358 1088 358 836 Q358 766 342 246 Q334 -49 252 -153 Q198 -220 118 -220 Q66 -220 33 -186 Q0 -152 0 -99 Q0 -54 25.5 -27 Q51 0 90 0 Q130 0 159 -32 Q188 -64 208 -64 Q225 -64 236 -50 Q247 -36 247 -3 Q247 39 238 117 Q221 260 212 455 Q200 704 200 895 Z " />
<glyph glyph-name="ordfeminine" unicode="&#xaa;" horiz-adv-x="565" d="M771 1387 L645 980 Q629 929 629 909 Q629 902 634 896 Q639 890 646 890 Q656 890 671 901 Q695 918 737 972 L760 958 Q668 830 580 830 Q552 830 538 843.5 Q524 857 524 879 Q524 910 538 958 L552 1003 Q466 900 397 860 Q344 830 296 830 Q246 830 212 867 Q178 904 178 967 Q178 1058 237.5 1163 Q297 1268 383.5 1327.5 Q470 1387 536 1387 Q578 1387 603.5 1369 Q629 1351 645 1305 L668 1373 L771 1387 Z M544 1360 Q470 1360 394 1264 Q282 1123 282 989 Q282 948 303.5 923.5 Q325 899 356 899 Q428 899 525.5 1016.5 Q623 1134 623 1264 Q623 1312 601.5 1336 Q580 1360 544 1360 Z " />
<glyph glyph-name="ordmasculine" unicode="&#xba;" horiz-adv-x="635" d="M805 1203 Q805 1056 690 943 Q575 830 429 830 Q338 830 283 883.5 Q228 937 228 1018 Q228 1156 345.5 1271.5 Q463 1387 606 1387 Q695 1387 750 1334.5 Q805 1282 805 1203 Z M697 1241 Q697 1296 668 1326 Q639 1356 590 1356 Q494 1356 414.5 1228.5 Q335 1101 335 979 Q335 923 365.5 891.5 Q396 860 446 860 Q536 860 616.5 985.5 Q697 1111 697 1241 Z " />
<glyph glyph-name="uni2126" unicode="&#x2126;" horiz-adv-x="1573" d="M665 290 L695 0 L91 0 L91 334 L125 334 Q145 255 172 233 Q199 211 271 211 L574 211 L574 240 Q416 287 326 358 Q236 429 183 549.5 Q130 670 130 794 Q130 946 211 1087.5 Q292 1229 447 1305.5 Q602 1382 807 1382 Q1011 1382 1166 1306 Q1321 1230 1402 1088.5 Q1483 947 1483 794 Q1483 669 1430 549 Q1377 429 1287.5 358 Q1198 287 1039 240 L1039 211 L1342 211 Q1415 211 1442 233 Q1469 255 1489 334 L1523 334 L1523 0 L918 0 L949 290 Q1072 335 1134 421 Q1238 566 1238 797 Q1238 1053 1122.5 1183 Q1007 1313 812 1313 Q607 1313 506 1199 Q376 1053 376 798 Q376 652 416.5 541.5 Q457 431 529 366 Q577 322 665 290 Z " />
<glyph glyph-name="ae" unicode="&#xe6;" horiz-adv-x="1366" d="M917 889 L893 792 Q1022 905 1148 905 Q1234 905 1285 861.5 Q1336 818 1336 759 Q1336 701 1298 638.5 Q1260 576 1195.5 529 Q1131 482 1020.5 439.5 Q910 397 787 379 Q775 310 775 264 Q775 175 821 126 Q867 77 946 77 Q1014 77 1082.5 113 Q1151 149 1241 244 L1267 214 Q1179 100 1072.5 38 Q966 -24 872 -24 Q761 -24 690.5 47 Q620 118 620 228 Q620 257 624 300 Q487 102 428 55 Q330 -24 225 -24 Q150 -24 97.5 36.5 Q45 97 45 207 Q45 361 144 540.5 Q243 720 389 825 Q500 905 597 905 Q664 905 703.5 865 Q743 825 753 728 L787 868 L917 889 Z M310 93 Q365 93 444 157 Q550 241 629 412.5 Q708 584 708 720 Q708 792 679.5 825 Q651 858 600 858 Q473 858 338.5 628.5 Q204 399 204 232 Q204 174 243 126 Q270 93 310 93 Z M797 428 Q1011 474 1110 573 Q1209 672 1209 759 Q1209 796 1181 824 Q1153 852 1117 852 Q1069 852 1003.5 810.5 Q938 769 890 686 Q842 603 797 428 Z " />
<glyph glyph-name="oslash" unicode="&#xf8;" horiz-adv-x="1024" d="M961 965 L1001 925 L879 796 Q948 697 948 591 Q948 439 862.5 288.5 Q777 138 638.5 57 Q500 -24 364 -24 Q306 -24 261.5 -7 Q217 10 166 51 L44 -73 L5 -31 L127 93 Q57 191 57 287 Q57 431 144.5 582 Q232 733 376 819 Q520 905 654 905 Q705 905 746.5 890.5 Q788 876 840 838 L961 965 Z M766 759 Q730 814 699.5 833 Q669 852 619 852 Q536 852 460 784 Q355 691 283 506 Q225 357 225 233 Q225 221 226 197 L766 759 Z M783 693 L242 129 Q279 67 311.5 46 Q344 25 396 25 Q448 25 498.5 53 Q549 81 609.5 158.5 Q670 236 727 384 Q784 532 784 658 Q784 666 783 693 Z " />
<glyph glyph-name="questiondown" unicode="&#xbf;" horiz-adv-x="1024" d="M712 977 Q755 977 784.5 947.5 Q814 918 814 875 Q814 833 784 803.5 Q754 774 712 774 Q670 774 640 803.5 Q610 833 610 875 Q610 918 640 947.5 Q670 977 712 977 Z M652 613 L690 613 Q676 486 629 394 Q582 302 433 143 Q308 10 264 -78 Q233 -141 233 -208 Q233 -287 289 -341.5 Q345 -396 433 -396 Q518 -396 571 -360 Q601 -340 601 -312 Q601 -292 584.5 -256.5 Q568 -221 568 -198 Q568 -164 592 -141.5 Q616 -119 651 -119 Q686 -119 710.5 -144 Q735 -169 735 -209 Q735 -263 698.5 -317 Q662 -371 587.5 -406.5 Q513 -442 416 -442 Q262 -442 167.5 -355 Q73 -268 73 -157 Q73 -68 117 -2 Q175 84 337 195.5 Q499 307 560 391.5 Q621 476 652 613 Z " />
<glyph glyph-name="exclamdown" unicode="&#xa1;" horiz-adv-x="797" d="M538 979 Q580 979 610 949 Q640 919 640 876 Q640 834 610 804 Q580 774 538 774 Q495 774 465 804 Q435 834 435 876 Q435 919 465 949 Q495 979 538 979 Z M471 615 L509 615 Q460 434 440 339 Q420 244 395 90 Q345 -228 334 -281 Q314 -371 269 -419 Q247 -442 210 -442 Q183 -442 163.5 -420 Q144 -398 144 -361 Q144 -318 163 -255 Q205 -114 325 197 Q382 345 388 362 Q407 415 471 615 Z " />
<glyph glyph-name="logicalnot" unicode="&#xac;" horiz-adv-x="1382" d="M150 878 L1230 878 L1230 472 L1151 472 L1151 797 L150 797 L150 878 Z " />
<glyph glyph-name="radical" unicode="&#x221a;" horiz-adv-x="1124" d="M1050 1869 L1124 1869 L812 -78 L316 943 L118 852 L84 916 L385 1067 L790 244 L1050 1869 Z " />
<glyph glyph-name="florin" unicode="&#x192;" horiz-adv-x="1024" d="M687 875 L865 875 L848 809 L674 809 Q622 540 502 101 Q408 -240 297 -348 Q213 -431 124 -431 Q68 -431 35 -400.5 Q2 -370 2 -326 Q2 -287 25.5 -262 Q49 -237 79 -237 Q105 -237 124.5 -255 Q144 -273 144 -293 Q144 -315 130 -331 Q120 -343 120 -350 Q120 -358 127 -364.5 Q134 -371 145 -371 Q165 -371 182 -361 Q212 -344 241 -297 Q270 -250 301 -120 Q307 -98 387 295 Q394 330 510 809 L333 809 L348 875 Q447 882 472.5 890.5 Q498 899 515 922 Q541 956 575 1056 Q648 1268 715 1328 Q781 1387 862 1387 Q924 1387 961.5 1354 Q999 1321 999 1275 Q999 1240 979 1219 Q959 1198 931 1198 Q905 1198 886.5 1215.5 Q868 1233 868 1254 Q868 1270 879 1288.5 Q890 1307 890 1315 Q890 1326 881 1334 Q872 1341 855 1341 Q823 1341 797 1317 Q762 1284 751 1233 Q724 1112 687 875 Z " />
<glyph glyph-name="approxequal" unicode="&#x2248;" horiz-adv-x="1124" d="M1052 1038 L1095 1038 Q1092 912 1022.5 838.5 Q953 765 853 765 Q807 765 755 780 Q703 795 480 886 Q324 950 259 950 Q189 950 140.5 906.5 Q92 863 73 767 L30 767 Q34 856 63.5 914.5 Q93 973 149.5 1006.5 Q206 1040 262 1040 Q305 1040 351 1027 Q455 997 642 917 Q739 875 798 859 Q828 851 865 851 Q940 851 991 899 Q1042 947 1052 1038 Z M1052 547 L1095 547 Q1092 420 1022.5 346.5 Q953 273 853 273 Q807 273 703 304 L480 395 Q324 458 259 458 Q189 458 140.5 414.5 Q92 371 73 275 L30 275 Q34 364 63 422.5 Q92 481 148.5 515 Q205 549 261 549 Q304 549 350 536 Q455 505 642 425 L740 383 L798 368 Q828 360 865 360 Q940 360 991 407.5 Q1042 455 1052 547 Z " />
<glyph glyph-name="increment" unicode="&#x2206;" horiz-adv-x="1253" d="M1140 0 L-60 0 L568 1387 L1140 0 Z M904 82 L505 1049 L65 82 L904 82 Z " />
<glyph glyph-name="guillemotleft" unicode="&#xab;" horiz-adv-x="1024" d="M606 920 L266 442 L375 -31 L331 -31 L84 442 L553 920 L606 920 Z M988 920 L648 442 L759 -31 L715 -31 L467 442 L934 920 L988 920 Z " />
<glyph glyph-name="guillemotright" unicode="&#xbb;" horiz-adv-x="1024" d="M418 -31 L759 446 L649 920 L693 920 L941 446 L472 -31 L418 -31 Z M37 -31 L376 446 L266 920 L310 920 L558 446 L90 -31 L37 -31 Z " />
<glyph glyph-name="ellipsis" unicode="&#x2026;" horiz-adv-x="1821" d="M377 194 Q424 194 456 161.5 Q488 129 488 83 Q488 37 455.5 4.5 Q423 -28 377 -28 Q331 -28 298.5 4.5 Q266 37 266 83 Q266 130 298.5 162 Q331 194 377 194 Z M906 194 Q953 194 985 161.5 Q1017 129 1017 83 Q1017 37 984.5 4.5 Q952 -28 906 -28 Q860 -28 827.5 4.5 Q795 37 795 83 Q795 130 827.5 162 Q860 194 906 194 Z M1435 194 Q1482 194 1514 161.5 Q1546 129 1546 83 Q1546 37 1513.5 4.5 Q1481 -28 1435 -28 Q1389 -28 1356.5 4.5 Q1324 37 1324 83 Q1324 130 1356.5 162 Q1389 194 1435 194 Z " />
<glyph glyph-name="Agrave" unicode="&#xc0;" horiz-adv-x="1251" d="M1055 1387 L952 259 Q944 180 944 155 Q944 115 959 94 Q978 65 1010.5 51 Q1043 37 1120 37 L1109 0 L575 0 L586 37 L609 37 Q674 37 715 65 Q744 84 760 128 Q771 159 781 274 L797 446 L409 446 L271 259 Q224 196 212 168.5 Q200 141 200 117 Q200 85 226 62 Q252 39 312 37 L301 0 L-100 0 L-89 37 Q-15 40 41.5 86.5 Q98 133 210 285 L1020 1387 L1055 1387 Z M857 1054 L464 519 L805 519 L857 1054 Z M1086 1802 L1195 1458 L1163 1458 L865 1802 L1086 1802 Z " />
<glyph glyph-name="Atilde" unicode="&#xc3;" horiz-adv-x="1251" d="M1055 1387 L952 259 Q944 180 944 155 Q944 115 959 94 Q978 65 1010.5 51 Q1043 37 1120 37 L1109 0 L575 0 L586 37 L609 37 Q674 37 715 65 Q744 84 760 128 Q771 159 781 274 L797 446 L409 446 L271 259 Q224 196 212 168.5 Q200 141 200 117 Q200 85 226 62 Q252 39 312 37 L301 0 L-100 0 L-89 37 Q-15 40 41.5 86.5 Q98 133 210 285 L1020 1387 L1055 1387 Z M857 1054 L464 519 L805 519 L857 1054 Z M1335 1733 L1365 1733 Q1368 1607 1312 1539 Q1256 1471 1181 1471 Q1108 1471 1012.5 1532 Q917 1593 895 1603 Q878 1611 856 1611 Q819 1611 796.5 1585 Q774 1559 760 1475 L728 1475 Q735 1615 788 1675 Q841 1735 916 1735 Q989 1735 1094.5 1665 Q1200 1595 1239 1595 Q1274 1595 1296 1621 Q1325 1654 1335 1733 Z " />
<glyph glyph-name="Otilde" unicode="&#xd5;" horiz-adv-x="1479" d="M1009 1387 Q1144 1387 1248 1328.5 Q1352 1270 1411 1155.5 Q1470 1041 1470 918 Q1470 700 1343.5 460.5 Q1217 221 1013 95 Q809 -31 591 -31 Q434 -31 328.5 38.5 Q223 108 172.5 222 Q122 336 122 443 Q122 633 213.5 818.5 Q305 1004 432 1128.5 Q559 1253 703 1320 Q847 1387 1009 1387 Z M975 1323 Q875 1323 779.5 1273.5 Q684 1224 590 1111.5 Q496 999 421 817 Q329 593 329 394 Q329 252 402 142.5 Q475 33 626 33 Q717 33 804.5 78 Q892 123 987 232 Q1106 369 1187 581.5 Q1268 794 1268 978 Q1268 1114 1195 1218.5 Q1122 1323 975 1323 Z M1339 1733 L1369 1733 Q1372 1607 1316 1539 Q1260 1471 1185 1471 Q1112 1471 1016.5 1532 Q921 1593 899 1603 Q882 1611 860 1611 Q823 1611 800.5 1585 Q778 1559 764 1475 L732 1475 Q739 1615 792 1675 Q845 1735 920 1735 Q993 1735 1098.5 1665 Q1204 1595 1243 1595 Q1278 1595 1300 1621 Q1329 1654 1339 1733 Z " />
<glyph glyph-name="OE" unicode="&#x152;" horiz-adv-x="1933" d="M1809 375 L1682 0 L1016 0 Q861 0 751 -4 L515 -14 Q377 -14 267.5 48.5 Q158 111 101.5 225 Q45 339 45 455 Q45 638 132.5 808.5 Q220 979 345 1101 Q470 1223 624.5 1295.5 Q779 1368 897 1368 Q908 1368 998 1363 Q1139 1356 1285 1356 L1985 1356 L1898 1027 L1860 1027 Q1867 1073 1867 1103 Q1867 1153 1836.5 1197 Q1806 1241 1757.5 1260.5 Q1709 1280 1563 1280 L1360 1280 L1205 744 L1285 744 Q1401 744 1457 761 Q1513 778 1550.5 816 Q1588 854 1624 938 L1661 938 L1517 446 L1480 446 Q1499 525 1499 557 Q1499 609 1464 642 Q1429 675 1368 675 L1313 674 L1184 674 L1059 249 Q1033 160 1033 135 Q1033 115 1044.5 98 Q1056 81 1073 75.5 Q1090 70 1164 70 L1272 70 Q1390 70 1460 93 Q1563 125 1640.5 196.5 Q1718 268 1771 375 L1809 375 Z M1101 989 Q1136 1108 1136 1162 Q1136 1213 1088 1252.5 Q1040 1292 943 1292 Q768 1292 639 1201 Q473 1083 364.5 850.5 Q256 618 256 398 Q256 239 342 150 Q428 61 584 61 Q726 61 795 118 Q864 175 922 375 L1101 989 Z " />
<glyph glyph-name="oe" unicode="&#x153;" horiz-adv-x="1366" d="M1230 240 L1256 211 Q1152 93 1042.5 34.5 Q933 -24 855 -24 Q781 -24 730 20 Q679 64 661 152 Q514 -25 331 -25 Q211 -25 132.5 60 Q54 145 54 282 Q54 406 111.5 523 Q169 640 250.5 725 Q332 810 425 857.5 Q518 905 597 905 Q690 905 754 855.5 Q818 806 834 726 Q992 905 1165 905 Q1243 905 1285.5 866 Q1328 827 1328 765 Q1328 708 1298 655 Q1255 580 1177.5 523 Q1100 466 988.5 424.5 Q877 383 795 374 Q787 316 787 284 Q787 194 835.5 140 Q884 86 951 86 Q1004 86 1050 110 Q1116 143 1230 240 Z M342 20 Q473 20 581 243 Q715 518 715 694 Q715 767 675.5 810 Q636 853 578 853 Q520 853 465 807 Q389 744 310 574 Q211 362 211 174 Q211 101 248 60.5 Q285 20 342 20 Z M803 422 Q996 462 1096 564.5 Q1196 667 1196 764 Q1196 804 1174.5 828 Q1153 852 1120 852 Q1032 852 951.5 745.5 Q871 639 803 422 Z " />
<glyph glyph-name="endash" unicode="&#x2013;" horiz-adv-x="1024" d="M1041 453 L-18 453 L-18 526 L1041 526 L1041 453 Z " />
<glyph glyph-name="emdash" unicode="&#x2014;" horiz-adv-x="1821" d="M1840 452 L-19 453 L-19 527 L1840 526 L1840 452 Z " />
<glyph glyph-name="quotedblleft" unicode="&#x201c;" horiz-adv-x="1139" d="M686 1356 Q610 1325 556 1263 Q530 1233 530 1190 Q530 1170 535 1157 Q538 1150 560.5 1123.5 Q583 1097 589 1084 Q596 1067 596 1050 Q596 1008 566 976.5 Q536 945 494 945 Q453 945 423.5 977.5 Q394 1010 394 1063 Q394 1122 425 1184 Q456 1246 517 1297 Q559 1332 663 1387 L686 1356 Z M1145 1356 Q1044 1300 1016 1263.5 Q988 1227 988 1193 Q988 1172 995 1157 Q998 1149 1020.5 1123 Q1043 1097 1048 1087 Q1055 1070 1055 1052 Q1055 1008 1025 976.5 Q995 945 953 945 Q911 945 881.5 976.5 Q852 1008 852 1062 Q852 1148 914 1230 Q976 1312 1125 1380 L1145 1356 Z " />
<glyph glyph-name="quotedblright" unicode="&#x201d;" horiz-adv-x="1139" d="M832 983 Q907 1013 961 1075 Q988 1105 988 1146 Q988 1166 982 1179 Q980 1186 957.5 1212 Q935 1238 929 1250 Q921 1267 921 1285 Q921 1326 951.5 1357 Q982 1388 1024 1388 Q1065 1388 1094.5 1355.5 Q1124 1323 1124 1270 Q1124 1210 1093 1148 Q1062 1086 1001 1036 Q959 1001 854 945 L832 983 Z M373 982 Q474 1037 502 1073 Q530 1109 530 1143 Q530 1163 523 1178 Q520 1186 497.5 1212 Q475 1238 470 1248 Q463 1264 463 1282 Q463 1325 493 1356 Q523 1387 564 1387 Q607 1387 636.5 1355.5 Q666 1324 666 1269 Q666 1072 393 946 L373 982 Z " />
<glyph glyph-name="quoteleft" unicode="&#x2018;" horiz-adv-x="682" d="M727 1356 Q651 1323 610 1276.5 Q569 1230 569 1194 Q569 1175 575 1160 Q578 1152 602 1128 Q626 1104 630 1095 Q637 1078 637 1056 Q637 1012 607 981 Q577 950 538 950 Q497 950 465.5 983 Q434 1016 434 1066 Q434 1155 504 1246 Q574 1337 707 1387 L727 1356 Z " />
<glyph glyph-name="quoteright" unicode="&#x2019;" horiz-adv-x="682" d="M401 982 Q476 1015 523 1068 Q559 1108 559 1144 Q559 1163 553 1178 Q549 1186 525 1210 Q501 1234 498 1243 Q491 1259 491 1282 Q491 1325 520.5 1356 Q550 1387 590 1387 Q631 1387 662.5 1354 Q694 1321 694 1271 Q694 1182 624 1091 Q554 1000 421 950 L401 982 Z " />
<glyph glyph-name="divide" unicode="&#xf7;" horiz-adv-x="1124" d="M592 1075 Q628 1075 653.5 1049.5 Q679 1024 679 988 Q679 952 653.5 926.5 Q628 901 591 901 Q555 901 529.5 926.5 Q504 952 504 988 Q504 1024 529.5 1049.5 Q555 1075 592 1075 Z M1131 640 L53 640 L53 722 L1131 722 L1131 640 Z M592 455 Q629 455 654.5 429 Q680 403 680 367 Q680 331 654 305 Q628 279 592 279 Q556 279 530 305 Q504 331 504 367 Q504 403 529.5 429 Q555 455 592 455 Z " />
<glyph glyph-name="lozenge" unicode="&#x25ca;" horiz-adv-x="1012" d="M549 1422 L967 709 L549 0 L438 0 L47 709 L438 1422 L549 1422 Z M495 1325 L155 709 L495 94 L854 709 L495 1325 Z " />
<glyph glyph-name="ydieresis" unicode="&#xff;" horiz-adv-x="909" d="M323 905 Q357 847 370 796.5 Q383 746 396 598 L440 106 Q500 178 614 334 Q669 410 750 541 Q799 621 810 653 Q816 669 816 686 Q816 697 809 704 Q802 711 772.5 720.5 Q743 730 723.5 755.5 Q704 781 704 814 Q704 855 728 880 Q752 905 788 905 Q832 905 863 868.5 Q894 832 894 768 Q894 689 840 587.5 Q786 486 632 276 Q478 66 259 -182 Q108 -353 35 -397.5 Q-38 -442 -90 -442 Q-121 -442 -144.5 -418.5 Q-168 -395 -168 -364 Q-168 -325 -135.5 -293 Q-103 -261 -65 -261 Q-45 -261 -32 -270 Q-24 -275 -14.5 -298.5 Q-5 -322 3 -330 Q8 -335 15 -335 Q21 -335 36 -325 Q91 -291 164 -217 Q260 -119 306 -57 L250 577 Q236 734 208 768 Q180 802 114 802 Q93 802 39 796 L30 833 L323 905 Z M815 1340 Q860 1340 891 1308.5 Q922 1277 922 1232 Q922 1188 891 1156.5 Q860 1125 815 1125 Q771 1125 739.5 1156.5 Q708 1188 708 1232 Q708 1277 739 1308.5 Q770 1340 815 1340 Z M459 1340 Q504 1340 535.5 1308.5 Q567 1277 567 1232 Q567 1188 535.5 1156.5 Q504 1125 459 1125 Q415 1125 383.5 1156.5 Q352 1188 352 1232 Q352 1277 383.5 1308.5 Q415 1340 459 1340 Z " />
<glyph glyph-name="Ydieresis" unicode="&#x178;" horiz-adv-x="1139" d="M716 721 L974 1082 Q1074 1223 1074 1262 Q1074 1284 1052.5 1298.5 Q1031 1313 930 1319 L940 1356 L1366 1356 L1358 1319 Q1296 1311 1273 1302 Q1237 1287 1202 1255 Q1155 1213 1066 1090 L734 632 L634 297 Q597 171 597 123 Q597 92 608.5 76 Q620 60 649 50 Q687 38 765 37 L755 0 L184 0 L196 37 Q281 39 309 51 Q354 69 376 99 Q410 145 446 264 L565 660 L420 1128 Q381 1252 348.5 1282 Q316 1312 235 1319 L245 1356 L746 1356 L734 1319 Q640 1312 627 1307 Q605 1300 591 1279 Q577 1258 577 1230 Q577 1189 606 1090 L716 721 Z M1036 1712 Q1081 1712 1112 1680.5 Q1143 1649 1143 1604 Q1143 1560 1112 1528.5 Q1081 1497 1036 1497 Q992 1497 960.5 1528.5 Q929 1560 929 1604 Q929 1649 960 1680.5 Q991 1712 1036 1712 Z M680 1712 Q725 1712 756.5 1680.5 Q788 1649 788 1604 Q788 1560 756.5 1528.5 Q725 1497 680 1497 Q636 1497 604.5 1528.5 Q573 1560 573 1604 Q573 1649 604.5 1680.5 Q636 1712 680 1712 Z " />
<glyph glyph-name="&amp;#x2044;" unicode="&#x2044;" horiz-adv-x="342" d="M683 1384 L-252 -55 L-341 -55 L594 1384 L683 1384 Z " />
<glyph glyph-name="&amp;#x2215;" unicode="&#x2215;" horiz-adv-x="342" d="M683 1384 L-252 -55 L-341 -55 L594 1384 L683 1384 Z " />
<glyph glyph-name="Euro" unicode="&#x20ac;" horiz-adv-x="1024" d="M890 737 L352 737 Q337 695 325 654 L867 654 L845 576 L305 576 Q274 454 274 348 Q274 60 481 60 Q615 60 725 129 Q791 170 907 285 L932 265 Q807 129 720 71 Q578 -24 417 -24 Q86 -24 86 357 Q86 458 111 576 L17 576 L39 654 L129 654 L134 670 Q142 700 155 737 L63 737 L85 815 L186 815 Q288 1052 460 1206 Q658 1384 887 1384 Q1058 1384 1201 1296 L1116 997 L1077 997 Q1088 1054 1088 1102 Q1088 1318 868 1318 Q710 1318 570 1151 Q461 1021 380 815 L912 815 L890 737 Z " />
<glyph glyph-name="guilsinglleft" unicode="&#x2039;" horiz-adv-x="682" d="M638 920 L297 443 L408 -31 L365 -31 L116 443 L583 920 L638 920 Z " />
<glyph glyph-name="guilsinglright" unicode="&#x203a;" horiz-adv-x="682" d="M46 -31 L386 447 L276 920 L319 920 L568 447 L100 -31 L46 -31 Z " />
<glyph glyph-name="fi" unicode="&#xfb01;" horiz-adv-x="1024" d="M409 817 L299 376 Q244 157 177 -10.5 Q110 -178 28.5 -273.5 Q-53 -369 -136 -414 Q-189 -442 -246 -442 Q-310 -442 -354 -406 Q-387 -379 -387 -344 Q-387 -312 -360.5 -287.5 Q-334 -263 -297 -263 Q-271 -263 -253 -279.5 Q-235 -296 -235 -317 Q-235 -337 -252.5 -354.5 Q-270 -372 -274 -380 L-272 -387 Q-268 -392 -258 -396 Q-248 -400 -237 -400 Q-173 -400 -124 -355 Q-42 -281 7 -141 Q16 -116 148 394 L255 817 L77 817 L94 881 L132 881 Q199 881 244 907 Q270 924 295 973 Q402 1185 454 1253.5 Q506 1322 601.5 1372 Q697 1422 810 1422 Q920 1422 972 1381 Q1024 1340 1024 1282 Q1024 1241 1000.5 1217 Q977 1193 943 1193 Q910 1193 885 1215 Q866 1232 866 1260 Q866 1281 883.5 1304 Q901 1327 901 1335 Q901 1348 885 1359 Q861 1376 819 1376 Q739 1376 660.5 1325.5 Q582 1275 534.5 1191.5 Q487 1108 426 881 L689 881 Q797 881 838 885.5 Q879 890 930 905 L959 905 L758 199 Q740 138 740 114 Q740 104 748.5 95.5 Q757 87 766 87 Q785 87 807 103 Q851 134 922 227 L959 199 Q868 73 780 15 Q719 -24 669 -24 Q626 -24 600 0 Q574 24 574 59 Q574 93 599 177 L742 675 Q763 749 763 773 Q763 784 757 792 Q745 807 726 813 Q712 817 650 817 L409 817 Z " />
<glyph glyph-name="fl" unicode="&#xfb02;" horiz-adv-x="1024" d="M796 817 L418 817 L305 374 Q188 -84 44.5 -263 Q-99 -442 -251 -442 Q-316 -442 -351.5 -413 Q-387 -384 -387 -346 Q-387 -310 -361 -285 Q-335 -260 -298 -260 Q-268 -260 -249 -277.5 Q-230 -295 -230 -315 Q-230 -334 -252 -354 Q-263 -365 -266 -370 L-268 -376 Q-268 -383 -260 -390 Q-249 -398 -233 -398 Q-171 -398 -126 -358 Q-44 -284 8 -141 Q47 -36 155 397 L261 817 L82 817 L102 881 L143 881 Q220 881 250 898 Q280 915 306 969 Q431 1232 548 1327 Q665 1422 818 1422 Q859 1422 890 1414 Q921 1406 971 1382 Q1014 1384 1035 1392 Q1056 1400 1086 1422 L1126 1422 L767 201 Q751 145 751 119 Q751 107 759 98.5 Q767 90 778 90 Q797 90 821 107 Q874 145 934 227 L971 201 Q878 71 792 15 Q731 -24 681 -24 Q638 -24 612.5 0.5 Q587 25 587 64 Q587 103 609 178 L796 817 Z M815 881 L909 1204 Q884 1230 884 1255 Q884 1276 904 1300.5 Q924 1325 924 1334 Q924 1346 908 1356 Q884 1372 833 1372 Q750 1372 672.5 1325.5 Q595 1279 548.5 1196 Q502 1113 435 881 L815 881 Z " />
<glyph glyph-name="daggerdbl" unicode="&#x2021;" horiz-adv-x="1024" d="M692 759 Q604 688 548.5 565 Q493 442 493 327 Q493 284 513 220 Q415 137 369 0 Q458 5 529 30 Q600 55 637 55 Q668 55 691 33 Q714 11 714 -20 Q714 -51 692 -72.5 Q670 -94 640 -94 Q605 -94 518 -61 Q453 -36 356 -31 Q334 -125 332 -225 Q329 -357 297.5 -399.5 Q266 -442 225 -442 Q201 -442 179 -418.5 Q157 -395 157 -366 Q157 -304 220 -207.5 Q283 -111 314 -31 Q228 -40 146 -70 Q85 -92 46 -92 Q16 -92 -6.5 -70 Q-29 -48 -29 -20 Q-29 9 -6 32.5 Q17 56 45 56 Q84 56 160.5 29 Q237 2 329 0 Q344 59 344 95 Q344 158 304 220 Q395 289 451 412 Q507 535 507 655 Q507 699 487 759 Q536 798 565.5 841 Q595 884 633 980 Q551 975 476 950 Q401 925 360 925 Q331 925 308 948 Q285 971 285 1001 Q285 1030 308.5 1052.5 Q332 1075 364 1075 Q402 1075 479.5 1046 Q557 1017 645 1014 Q670 1104 670 1220 Q670 1336 702 1379 Q734 1422 776 1422 Q801 1422 822.5 1400 Q844 1378 844 1351 Q844 1282 780.5 1188 Q717 1094 683 1014 Q766 1021 839 1046.5 Q912 1072 953 1072 Q983 1072 1007.5 1048.5 Q1032 1025 1032 997 Q1032 969 1008.5 946.5 Q985 924 953 924 Q913 924 834 950.5 Q755 977 672 980 Q656 913 656 872 Q656 820 692 759 Z " />
<glyph glyph-name="&amp;#xb7;" unicode="&#xb7;" horiz-adv-x="512" d="M321 789 Q368 789 400 756.5 Q432 724 432 678 Q432 632 399.5 599.5 Q367 567 321 567 Q275 567 242.5 599.5 Q210 632 210 678 Q210 724 242.5 756.5 Q275 789 321 789 Z " />
<glyph glyph-name="&amp;#x2219;" unicode="&#x2219;" horiz-adv-x="512" d="M321 789 Q368 789 400 756.5 Q432 724 432 678 Q432 632 399.5 599.5 Q367 567 321 567 Q275 567 242.5 599.5 Q210 632 210 678 Q210 724 242.5 756.5 Q275 789 321 789 Z " />
<glyph glyph-name="quotesinglbase" unicode="&#x201a;" horiz-adv-x="682" d="M65 -225 Q140 -191 187 -139 Q223 -99 223 -62 Q223 -44 217 -29 Q213 -21 189 3 Q165 27 162 36 Q155 53 155 75 Q155 118 184.5 149 Q214 180 254 180 Q295 180 326.5 147 Q358 114 358 64 Q358 -25 288 -116 Q218 -207 85 -257 L65 -225 Z " />
<glyph glyph-name="quotedblbase" unicode="&#x201e;" horiz-adv-x="1139" d="M489 -224 Q564 -194 618 -132 Q645 -102 645 -61 Q645 -41 639 -28 Q637 -21 614.5 5 Q592 31 586 43 Q578 60 578 78 Q578 119 608.5 150 Q639 181 681 181 Q722 181 751.5 148.5 Q781 116 781 63 Q781 3 750 -58.5 Q719 -120 659 -171 Q616 -206 511 -262 L489 -224 Z M30 -225 Q131 -170 159 -134 Q187 -98 187 -64 Q187 -44 180 -28 Q177 -21 154.5 5 Q132 31 127 41 Q120 57 120 75 Q120 118 150 149.5 Q180 181 221 181 Q264 181 293.5 149 Q323 117 323 62 Q323 -135 50 -261 L30 -225 Z " />
<glyph glyph-name="perthousand" unicode="&#x2030;" horiz-adv-x="2048" d="M1325 1387 L214 -54 L127 -54 L1241 1387 L1325 1387 Z M522 1387 Q614 1387 684.5 1310 Q755 1233 755 1113 Q755 929 633.5 795 Q512 661 371 661 Q267 661 200 734.5 Q133 808 133 928 Q133 1046 192.5 1156 Q252 1266 347.5 1326.5 Q443 1387 522 1387 Z M528 1345 Q482 1345 445 1309 Q371 1240 315 1093.5 Q259 947 259 819 Q259 764 288.5 731 Q318 698 357 698 Q406 698 438 728 Q507 791 566.5 942.5 Q626 1094 626 1225 Q626 1278 595.5 1311.5 Q565 1345 528 1345 Z M1082 670 Q1182 670 1252.5 595 Q1323 520 1323 400 Q1323 214 1200.5 80 Q1078 -54 942 -54 Q840 -54 769.5 20 Q699 94 699 211 Q699 396 823 533 Q947 670 1082 670 Z M1096 629 Q1047 629 1007 591 Q938 526 883 375.5 Q828 225 828 107 Q828 50 856 18 Q884 -14 924 -14 Q974 -14 1009 18 Q1078 81 1136.5 228.5 Q1195 376 1195 498 Q1195 560 1165.5 594.5 Q1136 629 1096 629 Z M1786 669 Q1884 669 1952 595 Q2020 521 2020 395 Q2020 277 1961 169.5 Q1902 62 1813.5 4 Q1725 -54 1639 -54 Q1539 -54 1469.5 21 Q1400 96 1400 214 Q1400 396 1524.5 532.5 Q1649 669 1786 669 Z M1797 628 Q1747 628 1711 595 Q1646 536 1587 385 Q1528 234 1528 103 Q1528 51 1558 18.5 Q1588 -14 1629 -14 Q1675 -14 1704 12 Q1768 71 1832 222.5 Q1896 374 1896 500 Q1896 558 1862 598 Q1837 628 1797 628 Z " />
<glyph glyph-name="Acircumflex" unicode="&#xc2;" horiz-adv-x="1251" d="M1055 1387 L952 259 Q944 180 944 155 Q944 115 959 94 Q978 65 1010.5 51 Q1043 37 1120 37 L1109 0 L575 0 L586 37 L609 37 Q674 37 715 65 Q744 84 760 128 Q771 159 781 274 L797 446 L409 446 L271 259 Q224 196 212 168.5 Q200 141 200 117 Q200 85 226 62 Q252 39 312 37 L301 0 L-100 0 L-89 37 Q-15 40 41.5 86.5 Q98 133 210 285 L1020 1387 L1055 1387 Z M857 1054 L464 519 L805 519 L857 1054 Z M1196 1768 L1271 1452 L1250 1452 L1081 1654 L762 1452 L735 1452 L1046 1768 L1196 1768 Z " />
<glyph glyph-name="Ecircumflex" unicode="&#xca;" horiz-adv-x="1251" d="M663 1283 L508 747 L635 747 Q771 747 832 788.5 Q893 830 937 942 L974 942 L835 450 L795 450 Q813 512 813 556 Q813 599 795.5 625 Q778 651 747.5 663.5 Q717 676 619 676 L490 676 L359 227 Q340 162 340 128 Q340 102 365 82 Q382 68 450 68 L570 68 Q765 68 882.5 137 Q1000 206 1093 377 L1130 377 L1002 0 L-46 0 L-33 37 Q45 39 72 51 Q112 69 130 97 Q157 138 194 269 L432 1087 Q460 1186 460 1238 Q460 1276 433.5 1297.5 Q407 1319 330 1319 L309 1319 L321 1356 L1295 1356 L1211 1029 L1174 1029 Q1181 1075 1181 1106 Q1181 1159 1155 1195 Q1121 1241 1056 1265 Q1008 1283 835 1283 L663 1283 Z M1051 1768 L1126 1452 L1105 1452 L936 1654 L617 1452 L590 1452 L901 1768 L1051 1768 Z " />
<glyph glyph-name="Aacute" unicode="&#xc1;" horiz-adv-x="1251" d="M1055 1387 L952 259 Q944 180 944 155 Q944 115 959 94 Q978 65 1010.5 51 Q1043 37 1120 37 L1109 0 L575 0 L586 37 L609 37 Q674 37 715 65 Q744 84 760 128 Q771 159 781 274 L797 446 L409 446 L271 259 Q224 196 212 168.5 Q200 141 200 117 Q200 85 226 62 Q252 39 312 37 L301 0 L-100 0 L-89 37 Q-15 40 41.5 86.5 Q98 133 210 285 L1020 1387 L1055 1387 Z M857 1054 L464 519 L805 519 L857 1054 Z M1266 1802 L972 1459 L938 1459 L1041 1802 L1266 1802 Z " />
<glyph glyph-name="Edieresis" unicode="&#xcb;" horiz-adv-x="1251" d="M663 1283 L508 747 L635 747 Q771 747 832 788.5 Q893 830 937 942 L974 942 L835 450 L795 450 Q813 512 813 556 Q813 599 795.5 625 Q778 651 747.5 663.5 Q717 676 619 676 L490 676 L359 227 Q340 162 340 128 Q340 102 365 82 Q382 68 450 68 L570 68 Q765 68 882.5 137 Q1000 206 1093 377 L1130 377 L1002 0 L-46 0 L-33 37 Q45 39 72 51 Q112 69 130 97 Q157 138 194 269 L432 1087 Q460 1186 460 1238 Q460 1276 433.5 1297.5 Q407 1319 330 1319 L309 1319 L321 1356 L1295 1356 L1211 1029 L1174 1029 Q1181 1075 1181 1106 Q1181 1159 1155 1195 Q1121 1241 1056 1265 Q1008 1283 835 1283 L663 1283 Z M1067 1712 Q1112 1712 1143 1680.5 Q1174 1649 1174 1604 Q1174 1560 1143 1528.5 Q1112 1497 1067 1497 Q1023 1497 991.5 1528.5 Q960 1560 960 1604 Q960 1649 991 1680.5 Q1022 1712 1067 1712 Z M711 1712 Q756 1712 787.5 1680.5 Q819 1649 819 1604 Q819 1560 787.5 1528.5 Q756 1497 711 1497 Q667 1497 635.5 1528.5 Q604 1560 604 1604 Q604 1649 635.5 1680.5 Q667 1712 711 1712 Z " />
<glyph glyph-name="Egrave" unicode="&#xc8;" horiz-adv-x="1251" d="M663 1283 L508 747 L635 747 Q771 747 832 788.5 Q893 830 937 942 L974 942 L835 450 L795 450 Q813 512 813 556 Q813 599 795.5 625 Q778 651 747.5 663.5 Q717 676 619 676 L490 676 L359 227 Q340 162 340 128 Q340 102 365 82 Q382 68 450 68 L570 68 Q765 68 882.5 137 Q1000 206 1093 377 L1130 377 L1002 0 L-46 0 L-33 37 Q45 39 72 51 Q112 69 130 97 Q157 138 194 269 L432 1087 Q460 1186 460 1238 Q460 1276 433.5 1297.5 Q407 1319 330 1319 L309 1319 L321 1356 L1295 1356 L1211 1029 L1174 1029 Q1181 1075 1181 1106 Q1181 1159 1155 1195 Q1121 1241 1056 1265 Q1008 1283 835 1283 L663 1283 Z M893 1802 L1002 1458 L970 1458 L672 1802 L893 1802 Z " />
<glyph glyph-name="Iacute" unicode="&#xcd;" horiz-adv-x="682" d="M505 37 L494 0 L-64 0 L-50 37 Q34 39 61 51 Q105 68 126 98 Q159 145 194 266 L430 1084 Q460 1186 460 1238 Q460 1264 447 1282 Q434 1300 407.5 1309.5 Q381 1319 304 1319 L316 1356 L840 1356 L829 1319 Q765 1320 734 1305 Q689 1285 665.5 1248 Q642 1211 605 1084 L370 266 Q338 153 338 122 Q338 97 350.5 79.5 Q363 62 390.5 52.5 Q418 43 505 37 Z M833 1802 L539 1459 L505 1459 L608 1802 L833 1802 Z " />
<glyph glyph-name="Icircumflex" unicode="&#xce;" horiz-adv-x="682" d="M505 37 L494 0 L-64 0 L-50 37 Q34 39 61 51 Q105 68 126 98 Q159 145 194 266 L430 1084 Q460 1186 460 1238 Q460 1264 447 1282 Q434 1300 407.5 1309.5 Q381 1319 304 1319 L316 1356 L840 1356 L829 1319 Q765 1320 734 1305 Q689 1285 665.5 1248 Q642 1211 605 1084 L370 266 Q338 153 338 122 Q338 97 350.5 79.5 Q363 62 390.5 52.5 Q418 43 505 37 Z M787 1768 L862 1452 L841 1452 L672 1654 L353 1452 L326 1452 L637 1768 L787 1768 Z " />
<glyph glyph-name="Idieresis" unicode="&#xcf;" horiz-adv-x="682" d="M505 37 L494 0 L-64 0 L-50 37 Q34 39 61 51 Q105 68 126 98 Q159 145 194 266 L430 1084 Q460 1186 460 1238 Q460 1264 447 1282 Q434 1300 407.5 1309.5 Q381 1319 304 1319 L316 1356 L840 1356 L829 1319 Q765 1320 734 1305 Q689 1285 665.5 1248 Q642 1211 605 1084 L370 266 Q338 153 338 122 Q338 97 350.5 79.5 Q363 62 390.5 52.5 Q418 43 505 37 Z M807 1712 Q852 1712 883 1680.5 Q914 1649 914 1604 Q914 1560 883 1528.5 Q852 1497 807 1497 Q763 1497 731.5 1528.5 Q700 1560 700 1604 Q700 1649 731 1680.5 Q762 1712 807 1712 Z M451 1712 Q496 1712 527.5 1680.5 Q559 1649 559 1604 Q559 1560 527.5 1528.5 Q496 1497 451 1497 Q407 1497 375.5 1528.5 Q344 1560 344 1604 Q344 1649 375.5 1680.5 Q407 1712 451 1712 Z " />
<glyph glyph-name="Igrave" unicode="&#xcc;" horiz-adv-x="682" d="M505 37 L494 0 L-64 0 L-50 37 Q34 39 61 51 Q105 68 126 98 Q159 145 194 266 L430 1084 Q460 1186 460 1238 Q460 1264 447 1282 Q434 1300 407.5 1309.5 Q381 1319 304 1319 L316 1356 L840 1356 L829 1319 Q765 1320 734 1305 Q689 1285 665.5 1248 Q642 1211 605 1084 L370 266 Q338 153 338 122 Q338 97 350.5 79.5 Q363 62 390.5 52.5 Q418 43 505 37 Z M665 1802 L774 1458 L742 1458 L444 1802 L665 1802 Z " />
<glyph glyph-name="Oacute" unicode="&#xd3;" horiz-adv-x="1479" d="M1009 1387 Q1144 1387 1248 1328.5 Q1352 1270 1411 1155.5 Q1470 1041 1470 918 Q1470 700 1343.5 460.5 Q1217 221 1013 95 Q809 -31 591 -31 Q434 -31 328.5 38.5 Q223 108 172.5 222 Q122 336 122 443 Q122 633 213.5 818.5 Q305 1004 432 1128.5 Q559 1253 703 1320 Q847 1387 1009 1387 Z M975 1323 Q875 1323 779.5 1273.5 Q684 1224 590 1111.5 Q496 999 421 817 Q329 593 329 394 Q329 252 402 142.5 Q475 33 626 33 Q717 33 804.5 78 Q892 123 987 232 Q1106 369 1187 581.5 Q1268 794 1268 978 Q1268 1114 1195 1218.5 Q1122 1323 975 1323 Z M1300 1802 L1006 1459 L972 1459 L1075 1802 L1300 1802 Z " />
<glyph glyph-name="Ocircumflex" unicode="&#xd4;" horiz-adv-x="1479" d="M1009 1387 Q1144 1387 1248 1328.5 Q1352 1270 1411 1155.5 Q1470 1041 1470 918 Q1470 700 1343.5 460.5 Q1217 221 1013 95 Q809 -31 591 -31 Q434 -31 328.5 38.5 Q223 108 172.5 222 Q122 336 122 443 Q122 633 213.5 818.5 Q305 1004 432 1128.5 Q559 1253 703 1320 Q847 1387 1009 1387 Z M975 1323 Q875 1323 779.5 1273.5 Q684 1224 590 1111.5 Q496 999 421 817 Q329 593 329 394 Q329 252 402 142.5 Q475 33 626 33 Q717 33 804.5 78 Q892 123 987 232 Q1106 369 1187 581.5 Q1268 794 1268 978 Q1268 1114 1195 1218.5 Q1122 1323 975 1323 Z M1218 1768 L1293 1452 L1272 1452 L1103 1654 L784 1452 L757 1452 L1068 1768 L1218 1768 Z " />
<glyph glyph-name="Ograve" unicode="&#xd2;" horiz-adv-x="1479" d="M1009 1387 Q1144 1387 1248 1328.5 Q1352 1270 1411 1155.5 Q1470 1041 1470 918 Q1470 700 1343.5 460.5 Q1217 221 1013 95 Q809 -31 591 -31 Q434 -31 328.5 38.5 Q223 108 172.5 222 Q122 336 122 443 Q122 633 213.5 818.5 Q305 1004 432 1128.5 Q559 1253 703 1320 Q847 1387 1009 1387 Z M975 1323 Q875 1323 779.5 1273.5 Q684 1224 590 1111.5 Q496 999 421 817 Q329 593 329 394 Q329 252 402 142.5 Q475 33 626 33 Q717 33 804.5 78 Q892 123 987 232 Q1106 369 1187 581.5 Q1268 794 1268 978 Q1268 1114 1195 1218.5 Q1122 1323 975 1323 Z M1108 1802 L1217 1458 L1185 1458 L887 1802 L1108 1802 Z " />
<glyph glyph-name="Uacute" unicode="&#xda;" horiz-adv-x="1479" d="M268 1356 L841 1356 L830 1319 Q742 1317 704.5 1302.5 Q667 1288 640.5 1251 Q614 1214 585 1114 L446 634 Q409 506 402 466 Q390 402 390 347 Q390 226 480 142.5 Q570 59 721 59 Q820 59 898 96.5 Q976 134 1031.5 201.5 Q1087 269 1133 384.5 Q1179 500 1214 618 L1334 1032 Q1379 1187 1379 1234 Q1379 1267 1348.5 1290.5 Q1318 1314 1225 1319 L1236 1356 L1667 1356 L1656 1319 Q1580 1319 1546.5 1304.5 Q1513 1290 1488 1252.5 Q1463 1215 1432 1107 L1285 604 Q1214 359 1151 242.5 Q1088 126 968.5 47.5 Q849 -31 672 -31 Q468 -31 343 84.5 Q218 200 218 349 Q218 408 229 475 Q237 519 268 627 L402 1088 Q430 1188 430 1235 Q430 1272 401.5 1292.5 Q373 1313 258 1319 L268 1356 Z M1234 1802 L940 1459 L906 1459 L1009 1802 L1234 1802 Z " />
<glyph glyph-name="Ucircumflex" unicode="&#xdb;" horiz-adv-x="1479" d="M268 1356 L841 1356 L830 1319 Q742 1317 704.5 1302.5 Q667 1288 640.5 1251 Q614 1214 585 1114 L446 634 Q409 506 402 466 Q390 402 390 347 Q390 226 480 142.5 Q570 59 721 59 Q820 59 898 96.5 Q976 134 1031.5 201.5 Q1087 269 1133 384.5 Q1179 500 1214 618 L1334 1032 Q1379 1187 1379 1234 Q1379 1267 1348.5 1290.5 Q1318 1314 1225 1319 L1236 1356 L1667 1356 L1656 1319 Q1580 1319 1546.5 1304.5 Q1513 1290 1488 1252.5 Q1463 1215 1432 1107 L1285 604 Q1214 359 1151 242.5 Q1088 126 968.5 47.5 Q849 -31 672 -31 Q468 -31 343 84.5 Q218 200 218 349 Q218 408 229 475 Q237 519 268 627 L402 1088 Q430 1188 430 1235 Q430 1272 401.5 1292.5 Q373 1313 258 1319 L268 1356 Z M1187 1768 L1262 1452 L1241 1452 L1072 1654 L753 1452 L726 1452 L1037 1768 L1187 1768 Z " />
<glyph glyph-name="Ugrave" unicode="&#xd9;" horiz-adv-x="1479" d="M268 1356 L841 1356 L830 1319 Q742 1317 704.5 1302.5 Q667 1288 640.5 1251 Q614 1214 585 1114 L446 634 Q409 506 402 466 Q390 402 390 347 Q390 226 480 142.5 Q570 59 721 59 Q820 59 898 96.5 Q976 134 1031.5 201.5 Q1087 269 1133 384.5 Q1179 500 1214 618 L1334 1032 Q1379 1187 1379 1234 Q1379 1267 1348.5 1290.5 Q1318 1314 1225 1319 L1236 1356 L1667 1356 L1656 1319 Q1580 1319 1546.5 1304.5 Q1513 1290 1488 1252.5 Q1463 1215 1432 1107 L1285 604 Q1214 359 1151 242.5 Q1088 126 968.5 47.5 Q849 -31 672 -31 Q468 -31 343 84.5 Q218 200 218 349 Q218 408 229 475 Q237 519 268 627 L402 1088 Q430 1188 430 1235 Q430 1272 401.5 1292.5 Q373 1313 258 1319 L268 1356 Z M1107 1802 L1216 1458 L1184 1458 L886 1802 L1107 1802 Z " />
<glyph glyph-name="dotlessi" unicode="&#x131;" horiz-adv-x="569" d="M471 905 L273 204 Q253 133 253 119 Q253 103 262.5 93 Q272 83 285 83 Q300 83 321 99 Q378 144 436 227 L471 204 Q403 100 311 29 Q243 -24 181 -24 Q140 -24 114 0.5 Q88 25 88 62 Q88 99 113 185 L243 633 Q275 743 275 771 Q275 793 259.5 807 Q244 821 217 821 Q195 821 126 810 L126 849 L471 905 Z " />
<glyph glyph-name="circumflex" unicode="&#x2c6;" horiz-adv-x="682" d="M715 1387 L790 1071 L769 1071 L600 1273 L281 1071 L254 1071 L565 1387 L715 1387 Z " />
<glyph glyph-name="tilde" unicode="&#x2dc;" horiz-adv-x="682" d="M805 1364 L835 1364 Q838 1238 782 1170 Q726 1102 651 1102 Q578 1102 482.5 1163 Q387 1224 365 1234 Q348 1242 326 1242 Q289 1242 266.5 1216 Q244 1190 230 1106 L198 1106 Q205 1246 258 1306 Q311 1366 386 1366 Q459 1366 564.5 1296 Q670 1226 709 1226 Q744 1226 766 1252 Q795 1285 805 1364 Z " />
<glyph glyph-name="overscore" unicode="&#x2c9;" horiz-adv-x="682" d="M282 1348 L882 1348 L847 1220 L246 1220 L282 1348 Z " />
<glyph glyph-name="breve" unicode="&#x2d8;" horiz-adv-x="682" d="M833 1406 L863 1406 Q796 1258 699.5 1185 Q603 1112 515 1112 Q421 1112 359 1183.5 Q297 1255 294 1406 L326 1406 Q341 1333 390.5 1294.5 Q440 1256 523 1256 Q692 1256 833 1406 Z " />
<glyph glyph-name="dotaccent" unicode="&#x2d9;" horiz-adv-x="682" d="M556 1340 Q600 1340 631.5 1308.5 Q663 1277 663 1233 Q663 1189 631.5 1157.5 Q600 1126 556 1126 Q512 1126 480.5 1157.5 Q449 1189 449 1233 Q449 1277 480 1308.5 Q511 1340 556 1340 Z " />
<glyph glyph-name="ring" unicode="&#x2da;" horiz-adv-x="682" d="M570 1421 Q649 1421 704 1366 Q759 1311 759 1232 Q759 1154 703.5 1098.5 Q648 1043 570 1043 Q492 1043 436.5 1098.5 Q381 1154 381 1232 Q381 1311 436 1366 Q491 1421 570 1421 Z M571 1357 Q519 1357 482.5 1320.5 Q446 1284 446 1232 Q446 1181 482.5 1144.5 Q519 1108 571 1108 Q622 1108 658.5 1144.5 Q695 1181 695 1232 Q695 1284 659 1320.5 Q623 1357 571 1357 Z " />
<glyph glyph-name="cedilla" unicode="&#xb8;" horiz-adv-x="682" d="M260 30 L215 -46 Q274 -59 306 -98 Q338 -137 338 -192 Q338 -259 282 -307 Q206 -370 104 -370 Q49 -370 -37 -348 L-25 -315 Q25 -327 61 -327 Q125 -327 160.5 -296.5 Q196 -266 196 -223 Q196 -186 175 -168 Q147 -145 91 -144 L201 30 L260 30 Z " />
<glyph glyph-name="hungarumlaut" unicode="&#x2dd;" horiz-adv-x="682" d="M634 1402 L336 1058 L303 1058 L409 1402 L634 1402 Z M923 1402 L621 1058 L589 1058 L698 1402 L923 1402 Z " />
<glyph glyph-name="ogonek" unicode="&#x2db;" horiz-adv-x="682" d="M417 60 L342 -2 Q257 -72 210 -136.5 Q163 -201 163 -260 Q163 -336 241 -336 Q284 -336 335 -310 L342 -339 Q226 -429 138 -429 Q64 -429 34 -382 Q19 -359 17 -331 L17 -320 Q17 -258 70 -187 Q102 -145 141 -110 Q204 -54 298 6 L382 60 L417 60 Z " />
<glyph glyph-name="caron" unicode="&#x2c7;" horiz-adv-x="682" d="M413 1071 L338 1387 L359 1387 L528 1185 L847 1387 L874 1387 L563 1071 L413 1071 Z " />
<glyph glyph-name="Lslash" unicode="&#x141;" horiz-adv-x="1139" d="M938 0 L-58 0 L-46 37 Q39 42 59 51 Q98 69 118 99 Q146 140 183 265 L262 535 L21 364 L55 476 L297 651 L424 1090 Q452 1187 452 1231 Q452 1271 422 1293.5 Q392 1316 297 1319 L310 1356 L858 1356 L847 1319 Q754 1316 716.5 1298.5 Q679 1281 654 1241 Q635 1213 596 1078 L519 811 L801 1012 L769 897 L484 693 L361 265 Q333 164 333 137 Q333 115 360 93 Q379 77 440 77 L568 77 Q743 77 836 134.5 Q929 192 1010 344 L1033 388 L1072 388 L938 0 Z " />
<glyph glyph-name="lslash" unicode="&#x142;" horiz-adv-x="569" d="M615 1422 L427 792 L593 897 L570 814 L408 711 L268 230 Q240 134 240 125 Q240 109 249.5 98.5 Q259 88 272 88 Q288 88 318 110 Q368 146 427 230 L459 208 Q377 80 289 20 Q223 -24 166 -24 Q128 -24 102.5 2 Q77 28 77 66 Q77 101 108 208 L222 597 L51 489 L76 570 L246 678 L379 1147 L408 1247 Q414 1272 414 1288 Q414 1308 397 1323.5 Q380 1339 348 1339 Q324 1339 268 1330 L268 1369 L615 1422 Z " />
<glyph glyph-name="Scaron" unicode="&#x160;" horiz-adv-x="1024" d="M14 -31 L126 472 L160 472 Q153 399 153 351 Q153 214 240.5 128 Q328 42 469 42 Q600 42 668 122.5 Q736 203 736 308 Q736 376 705 432 Q658 515 454 724 Q355 824 327 873 Q281 954 281 1043 Q281 1185 387 1286 Q493 1387 659 1387 Q715 1387 765 1376 Q796 1370 878 1336 Q936 1313 942 1311 Q956 1308 973 1308 Q1002 1308 1023 1323 Q1044 1338 1072 1387 L1110 1387 L1006 937 L972 937 Q976 997 976 1034 Q976 1155 896 1232 Q816 1309 685 1309 Q581 1309 516 1248 Q451 1187 451 1107 Q451 1037 492.5 973.5 Q534 910 683.5 766.5 Q833 623 877 542.5 Q921 462 921 371 Q921 268 866.5 171.5 Q812 75 710 22 Q608 -31 487 -31 Q427 -31 375 -20 Q323 -9 209 34 Q170 49 144 49 Q85 49 52 -31 L14 -31 Z M657 1452 L582 1768 L603 1768 L772 1566 L1091 1768 L1118 1768 L807 1452 L657 1452 Z " />
<glyph glyph-name="scaron" unicode="&#x161;" horiz-adv-x="797" d="M743 905 L682 598 L645 598 Q640 732 588 793 Q536 854 459 854 Q397 854 360.5 820 Q324 786 324 738 Q324 705 338.5 675 Q353 645 402 591 Q532 449 570 377 Q608 305 608 241 Q608 137 521.5 56.5 Q435 -24 303 -24 Q231 -24 137 10 Q104 22 86 22 Q41 22 18 -24 L-19 -24 L42 300 L79 300 Q85 148 142 85 Q199 22 298 22 Q374 22 418.5 64.5 Q463 107 463 169 Q463 209 447 243 Q419 303 329.5 409 Q240 515 214.5 568 Q189 621 189 674 Q189 771 259.5 838 Q330 905 441 905 Q473 905 499 900 Q513 897 564.5 877.5 Q616 858 633 858 Q676 858 705 905 L743 905 Z M382 1071 L307 1387 L328 1387 L497 1185 L816 1387 L843 1387 L532 1071 L382 1071 Z " />
<glyph glyph-name="Zcaron" unicode="&#x17d;" horiz-adv-x="1139" d="M310 1356 L1251 1356 L1251 1319 L244 65 L401 65 Q655 65 759.5 90 Q864 115 933.5 177 Q1003 239 1050 353 L1088 353 L971 0 L-4 0 L-4 29 L1003 1283 L722 1283 Q538 1283 463 1266.5 Q388 1250 334.5 1199.5 Q281 1149 244 1047 L209 1047 L310 1356 Z M667 1452 L592 1768 L613 1768 L782 1566 L1101 1768 L1128 1768 L817 1452 L667 1452 Z " />
<glyph glyph-name="zcaron" unicode="&#x17e;" horiz-adv-x="797" d="M172 881 L807 881 L807 856 L115 136 L408 136 Q512 136 540 144 Q568 152 591.5 178 Q615 204 644 272 L681 272 L594 0 L-57 0 L-57 29 L635 749 L347 749 Q256 749 237 744 Q209 738 181.5 712.5 Q154 687 125 628 L87 628 L172 881 Z M382 1071 L307 1387 L328 1387 L497 1185 L816 1387 L843 1387 L532 1071 L382 1071 Z " />
<glyph glyph-name="brokenbar" unicode="&#xa6;" horiz-adv-x="563" d="M320 1422 L320 680 L237 680 L237 1422 L320 1422 Z M320 300 L320 -442 L237 -442 L237 300 L320 300 Z " />
<glyph glyph-name="Eth" unicode="&#xd0;" horiz-adv-x="1479" d="M-48 0 L-38 33 Q33 39 44 41 Q72 49 100 69 Q121 85 136 112 Q157 151 190 265 L311 677 L132 677 L155 751 L332 751 L431 1088 Q460 1188 460 1227 Q460 1267 429.5 1291 Q399 1315 305 1317 L315 1356 L755 1356 Q1033 1356 1164.5 1293 Q1296 1230 1376.5 1092.5 Q1457 955 1457 804 Q1457 673 1410.5 546.5 Q1364 420 1307.5 345.5 Q1251 271 1151 194 Q1017 90 875.5 45 Q734 0 522 0 L-48 0 Z M665 1283 L510 751 L880 751 L860 677 L489 677 L370 265 Q336 147 336 123 Q336 109 346.5 94 Q357 79 374 74 Q400 66 459 66 Q616 66 751.5 98 Q887 130 974 195 Q1096 288 1169.5 448.5 Q1243 609 1243 811 Q1243 1049 1128 1167.5 Q1013 1286 794 1286 Q741 1286 665 1283 Z " />
<glyph glyph-name="eth" unicode="&#xf0;" horiz-adv-x="1024" d="M696 1180 L476 1061 L448 1110 L671 1230 Q626 1321 576 1387 L605 1418 Q683 1342 739 1266 L959 1387 L986 1336 L774 1222 Q866 1070 908.5 936.5 Q951 803 951 661 Q951 469 864 305.5 Q777 142 638.5 59 Q500 -24 364 -24 Q234 -24 144.5 67 Q55 158 55 300 Q55 434 140 581.5 Q225 729 366.5 817 Q508 905 617 905 Q666 905 700.5 888.5 Q735 872 774 829 Q770 933 754 1005 Q738 1077 696 1180 Z M613 852 Q541 852 467 792 Q370 712 295.5 549 Q221 386 221 224 Q221 129 269.5 77 Q318 25 389 25 Q465 25 540 91 Q641 180 710 356.5 Q779 533 779 662 Q779 750 731 801 Q683 852 613 852 Z " />
<glyph glyph-name="Yacute" unicode="&#xdd;" horiz-adv-x="1139" d="M716 721 L974 1082 Q1074 1223 1074 1262 Q1074 1284 1052.5 1298.5 Q1031 1313 930 1319 L940 1356 L1366 1356 L1358 1319 Q1296 1311 1273 1302 Q1237 1287 1202 1255 Q1155 1213 1066 1090 L734 632 L634 297 Q597 171 597 123 Q597 92 608.5 76 Q620 60 649 50 Q687 38 765 37 L755 0 L184 0 L196 37 Q281 39 309 51 Q354 69 376 99 Q410 145 446 264 L565 660 L420 1128 Q381 1252 348.5 1282 Q316 1312 235 1319 L245 1356 L746 1356 L734 1319 Q640 1312 627 1307 Q605 1300 591 1279 Q577 1258 577 1230 Q577 1189 606 1090 L716 721 Z M1105 1802 L811 1459 L777 1459 L880 1802 L1105 1802 Z " />
<glyph glyph-name="yacute" unicode="&#xfd;" horiz-adv-x="909" d="M323 905 Q357 847 370 796.5 Q383 746 396 598 L440 106 Q500 178 614 334 Q669 410 750 541 Q799 621 810 653 Q816 669 816 686 Q816 697 809 704 Q802 711 772.5 720.5 Q743 730 723.5 755.5 Q704 781 704 814 Q704 855 728 880 Q752 905 788 905 Q832 905 863 868.5 Q894 832 894 768 Q894 689 840 587.5 Q786 486 632 276 Q478 66 259 -182 Q108 -353 35 -397.5 Q-38 -442 -90 -442 Q-121 -442 -144.5 -418.5 Q-168 -395 -168 -364 Q-168 -325 -135.5 -293 Q-103 -261 -65 -261 Q-45 -261 -32 -270 Q-24 -275 -14.5 -298.5 Q-5 -322 3 -330 Q8 -335 15 -335 Q21 -335 36 -325 Q91 -291 164 -217 Q260 -119 306 -57 L250 577 Q236 734 208 768 Q180 802 114 802 Q93 802 39 796 L30 833 L323 905 Z M866 1402 L572 1059 L538 1059 L641 1402 L866 1402 Z " />
<glyph glyph-name="Thorn" unicode="&#xde;" horiz-adv-x="1251" d="M384 305 L373 266 Q341 152 341 122 Q341 97 354.5 78.5 Q368 60 398 48.5 Q428 37 496 37 L486 0 L-49 0 L-40 37 Q38 38 67 50 Q109 69 129 98 Q156 138 192 262 L431 1087 Q462 1192 462 1228 Q462 1253 448 1273 Q434 1293 403 1304.5 Q372 1316 310 1315 L321 1356 L851 1356 L842 1315 Q762 1316 724 1296 Q686 1276 660 1231 Q640 1198 599 1049 L819 1049 Q945 1049 1002 1032 Q1109 1001 1174.5 921.5 Q1240 842 1240 730 Q1240 591 1140 479.5 Q1040 368 924 336.5 Q808 305 523 305 L384 305 Z M403 372 L546 372 Q811 372 919.5 469 Q1028 566 1028 742 Q1028 879 946 940 Q892 980 772 980 L576 980 L403 372 Z " />
<glyph glyph-name="thorn" unicode="&#xfe;" horiz-adv-x="1024" d="M603 1422 L384 675 Q493 803 578.5 854 Q664 905 753 905 Q842 905 905 834.5 Q968 764 968 651 Q968 431 789 203.5 Q610 -24 372 -24 Q283 -24 197 26 L124 -232 Q102 -308 102 -332 Q102 -355 113.5 -370 Q125 -385 151 -393.5 Q177 -402 254 -402 L245 -442 L-226 -442 L-216 -402 Q-124 -399 -91.5 -370.5 Q-59 -342 -22 -214 L380 1180 Q404 1262 404 1283 Q404 1310 388 1325 Q372 1340 341 1340 Q312 1340 260 1332 L260 1372 L603 1422 Z M220 105 Q282 31 387 31 Q462 31 552 101.5 Q642 172 719.5 334 Q797 496 797 653 Q797 733 760.5 775.5 Q724 818 675 818 Q588 818 496 730 Q367 608 307 404 L220 105 Z " />
<glyph glyph-name="minus" unicode="&#x2212;" horiz-adv-x="1382" d="M1228 640 L150 640 L150 722 L1228 722 L1228 640 Z " />
<glyph glyph-name="multiply" unicode="&#xd7;" horiz-adv-x="1382" d="M378 328 L731 681 L379 1033 L437 1091 L789 739 L1141 1091 L1197 1034 L845 682 L1199 328 L1142 270 L788 624 L435 271 L378 328 Z " />
<glyph glyph-name="onesuperior" unicode="&#xb9;" horiz-adv-x="614" d="M623 1384 L430 798 Q414 751 414 730 Q414 712 424 705 Q437 695 474 694 Q484 694 502 693 L492 662 L163 662 L177 693 Q247 694 264 708 Q290 728 316 807 L453 1218 Q468 1262 468 1280 Q468 1294 460 1301 Q452 1308 437 1308 Q423 1308 381 1301 L368 1331 L623 1384 Z " />
<glyph glyph-name="twosuperior" unicode="&#xb2;" horiz-adv-x="614" d="M531 662 L111 662 L111 689 Q421 923 516 1054 Q559 1112 559 1175 Q559 1226 526 1258.5 Q493 1291 438 1291 Q358 1291 303 1218 L264 1234 Q295 1304 356 1344 Q417 1384 491 1384 Q576 1384 629.5 1334.5 Q683 1285 683 1217 Q683 1183 667 1144 Q651 1105 594 1039.5 Q537 974 444 896 L263 749 L440 749 Q528 749 555 813 L603 813 L531 662 Z " />
<glyph glyph-name="threesuperior" unicode="&#xb3;" horiz-adv-x="614" d="M277 1041 L277 1067 Q427 1086 496 1141 Q540 1177 540 1226 Q540 1265 515 1289.5 Q490 1314 451 1314 Q392 1314 340 1241 L298 1252 Q365 1384 496 1384 Q574 1384 619 1344 Q664 1304 664 1249 Q664 1204 631 1166 Q588 1116 497 1082 Q609 1028 609 919 Q609 816 516.5 732.5 Q424 649 281 649 Q200 649 158 676 Q132 693 132 714 Q132 734 149.5 749 Q167 764 197 764 Q226 764 272 742 Q338 710 376 710 Q412 710 442 749 Q483 801 483 871 Q483 943 432 990 Q381 1037 277 1041 Z " />
<glyph glyph-name="onehalf" unicode="&#xbd;" horiz-adv-x="1536" d="M1280 1384 L345 -55 L256 -55 L1191 1384 L1280 1384 Z M621 1384 L428 798 Q412 751 412 730 Q412 712 422 705 Q435 695 472 694 Q482 694 500 693 L490 662 L161 662 L175 693 Q245 694 262 708 Q288 728 314 807 L451 1218 Q466 1262 466 1280 Q466 1294 458 1301 Q450 1308 435 1308 Q421 1308 379 1301 L366 1331 L621 1384 Z M1257 -43 L837 -43 L837 -16 Q1147 218 1243 349 Q1285 407 1285 470 Q1285 521 1252.5 553.5 Q1220 586 1164 586 Q1120 586 1089 569 Q1058 552 1029 513 L991 529 Q1022 599 1082.5 639 Q1143 679 1217 679 Q1302 679 1355.5 629.5 Q1409 580 1409 512 Q1409 478 1393 439 Q1377 400 1320 334.5 Q1263 269 1171 191 L989 44 L1166 44 Q1255 44 1282 108 L1329 108 L1257 -43 Z " />
<glyph glyph-name="onequarter" unicode="&#xbc;" horiz-adv-x="1536" d="M1328 1384 L394 -55 L304 -55 L1240 1384 L1328 1384 Z M621 1384 L428 798 Q412 751 412 730 Q412 712 422 705 Q435 695 472 694 Q482 694 500 693 L490 662 L161 662 L175 693 Q245 694 262 708 Q288 728 314 807 L451 1218 Q466 1262 466 1280 Q466 1294 458 1301 Q450 1308 435 1308 Q421 1308 379 1301 L366 1331 L621 1384 Z M1433 663 L1272 204 L1376 204 L1350 130 L1253 130 L1191 -55 L1087 -55 L1149 130 L854 130 L882 210 L1367 663 L1433 663 Z M1272 501 L960 204 L1173 204 L1272 501 Z " />
<glyph glyph-name="threequarters" unicode="&#xbe;" horiz-adv-x="1536" d="M275 1041 L275 1067 Q425 1086 494 1141 Q538 1177 538 1226 Q538 1265 513 1289.5 Q488 1314 449 1314 Q390 1314 338 1241 L296 1252 Q363 1384 494 1384 Q572 1384 617 1344 Q662 1304 662 1249 Q662 1204 629 1166 Q586 1116 495 1082 Q607 1028 607 919 Q607 816 514.5 732.5 Q422 649 279 649 Q198 649 156 676 Q130 693 130 714 Q130 734 147.5 749 Q165 764 195 764 Q224 764 270 742 Q336 710 374 710 Q410 710 440 749 Q481 801 481 871 Q481 943 430 990 Q379 1037 275 1041 Z M1316 1384 L382 -55 L292 -55 L1228 1384 L1316 1384 Z M1433 663 L1272 204 L1376 204 L1350 130 L1254 130 L1191 -55 L1087 -55 L1149 130 L854 130 L882 210 L1367 663 L1433 663 Z M1272 501 L960 204 L1173 204 L1272 501 Z " />
<glyph glyph-name="franc" unicode="&#x20a3;" horiz-adv-x="1024" d="M389 341 L637 341 L616 268 L368 268 Q336 154 336 122 Q336 84 363.5 64 Q391 44 498 37 L486 0 L-50 0 L-37 37 Q43 39 76 53.5 Q109 68 127 98 Q155 144 191 268 L22 268 L42 341 L212 341 L429 1083 Q458 1182 458 1238 Q458 1264 445 1282.5 Q432 1301 406.5 1310 Q381 1319 305 1319 L317 1356 L1134 1356 L1035 1013 L996 1013 Q1007 1075 1007 1115 Q1007 1172 979 1210 Q951 1248 893 1269 Q849 1284 666 1284 L506 747 L563 747 Q683 747 743 784 Q803 821 866 942 L904 942 L762 448 L722 448 Q737 508 737 547 Q737 608 696.5 641.5 Q656 675 545 675 L486 675 L389 341 Z " />
<glyph glyph-name="Gbreve" unicode="&#x11e;" horiz-adv-x="1479" d="M1474 1387 L1373 960 L1335 960 Q1344 1035 1344 1071 Q1344 1169 1257.5 1244.5 Q1171 1320 1019 1320 Q708 1320 511 1028 Q354 797 354 511 Q354 321 451 183 Q548 45 750 45 Q800 45 844.5 54 Q889 63 979 94 L1078 443 Q1099 515 1099 558 Q1099 594 1073 613 Q1031 642 937 642 L909 642 L920 681 L1484 681 L1474 642 Q1397 641 1362 624 Q1327 607 1302 566 Q1285 539 1247 409 L1147 66 Q1010 7 926 -12.5 Q842 -32 749 -32 Q535 -32 402 48.5 Q269 129 205.5 261.5 Q142 394 142 525 Q142 701 216 859.5 Q290 1018 400.5 1127.5 Q511 1237 641 1300 Q820 1387 1017 1387 Q1162 1387 1279 1339 Q1326 1320 1348 1320 Q1373 1320 1390.5 1331.5 Q1408 1343 1436 1387 L1474 1387 Z M1384 1768 L1414 1768 Q1347 1620 1250.5 1547 Q1154 1474 1066 1474 Q972 1474 910 1545.5 Q848 1617 845 1768 L877 1768 Q892 1695 941.5 1656.5 Q991 1618 1074 1618 Q1243 1618 1384 1768 Z " />
<glyph glyph-name="gbreve" unicode="&#x11f;" horiz-adv-x="1024" d="M1067 843 L1038 739 L871 739 Q890 685 890 638 Q890 506 778 403 Q665 300 468 289 Q362 257 309 213 Q289 197 289 180 Q289 160 307 143.5 Q325 127 398 110 L592 65 Q753 27 805 -25 Q856 -78 856 -147 Q856 -229 795.5 -297 Q735 -365 618.5 -403.5 Q502 -442 361 -442 Q237 -442 135 -412.5 Q33 -383 -11 -333 Q-55 -283 -55 -230 Q-55 -187 -26.5 -140.5 Q2 -94 45 -64 Q72 -45 198 26 Q152 62 152 105 Q152 145 192.5 190 Q233 235 364 289 Q254 310 189.5 381 Q125 452 125 539 Q125 681 249.5 793 Q374 905 581 905 Q656 905 704 890 Q752 875 797 843 L1067 843 Z M720 686 Q720 766 675.5 812 Q631 858 559 858 Q446 858 372.5 744.5 Q299 631 299 508 Q299 431 346 382 Q393 333 460 333 Q513 333 562.5 362 Q612 391 646 442 Q680 493 700 572 Q720 651 720 686 Z M241 0 Q160 -37 118.5 -95 Q77 -153 77 -209 Q77 -275 137 -318 Q223 -380 389 -380 Q532 -380 633.5 -331.5 Q735 -283 735 -206 Q735 -167 697.5 -132 Q660 -97 552 -75 Q493 -63 241 0 Z M956 1406 L986 1406 Q919 1258 822.5 1185 Q726 1112 638 1112 Q544 1112 482 1183.5 Q420 1255 417 1406 L449 1406 Q464 1333 513.5 1294.5 Q563 1256 646 1256 Q815 1256 956 1406 Z " />
<glyph glyph-name="Idot" unicode="&#x130;" horiz-adv-x="682" d="M505 37 L494 0 L-64 0 L-50 37 Q34 39 61 51 Q105 68 126 98 Q159 145 194 266 L430 1084 Q460 1186 460 1238 Q460 1264 447 1282 Q434 1300 407.5 1309.5 Q381 1319 304 1319 L316 1356 L840 1356 L829 1319 Q765 1320 734 1305 Q689 1285 665.5 1248 Q642 1211 605 1084 L370 266 Q338 153 338 122 Q338 97 350.5 79.5 Q363 62 390.5 52.5 Q418 43 505 37 Z M685 1721 Q729 1721 760.5 1689.5 Q792 1658 792 1614 Q792 1570 760.5 1538.5 Q729 1507 685 1507 Q641 1507 609.5 1538.5 Q578 1570 578 1614 Q578 1658 609 1689.5 Q640 1721 685 1721 Z " />
<glyph glyph-name="Scedilla" unicode="&#x15e;" horiz-adv-x="1024" d="M14 -31 L126 472 L160 472 Q153 399 153 351 Q153 214 240.5 128 Q328 42 469 42 Q600 42 668 122.5 Q736 203 736 308 Q736 376 705 432 Q658 515 454 724 Q355 824 327 873 Q281 954 281 1043 Q281 1185 387 1286 Q493 1387 659 1387 Q715 1387 765 1376 Q796 1370 878 1336 Q936 1313 942 1311 Q956 1308 973 1308 Q1002 1308 1023 1323 Q1044 1338 1072 1387 L1110 1387 L1006 937 L972 937 Q976 997 976 1034 Q976 1155 896 1232 Q816 1309 685 1309 Q581 1309 516 1248 Q451 1187 451 1107 Q451 1037 492.5 973.5 Q534 910 683.5 766.5 Q833 623 877 542.5 Q921 462 921 371 Q921 268 866.5 171.5 Q812 75 710 22 Q608 -31 487 -31 Q427 -31 375 -20 Q323 -9 209 34 Q170 49 144 49 Q85 49 52 -31 L14 -31 Z M523 30 L478 -46 Q537 -59 569 -98 Q601 -137 601 -192 Q601 -259 545 -307 Q469 -370 367 -370 Q312 -370 226 -348 L238 -315 Q288 -327 324 -327 Q388 -327 423.5 -296.5 Q459 -266 459 -223 Q459 -186 438 -168 Q410 -145 354 -144 L464 30 L523 30 Z " />
<glyph glyph-name="scedilla" unicode="&#x15f;" horiz-adv-x="797" d="M743 905 L682 598 L645 598 Q640 732 588 793 Q536 854 459 854 Q397 854 360.5 820 Q324 786 324 738 Q324 705 338.5 675 Q353 645 402 591 Q532 449 570 377 Q608 305 608 241 Q608 137 521.5 56.5 Q435 -24 303 -24 Q231 -24 137 10 Q104 22 86 22 Q41 22 18 -24 L-19 -24 L42 300 L79 300 Q85 148 142 85 Q199 22 298 22 Q374 22 418.5 64.5 Q463 107 463 169 Q463 209 447 243 Q419 303 329.5 409 Q240 515 214.5 568 Q189 621 189 674 Q189 771 259.5 838 Q330 905 441 905 Q473 905 499 900 Q513 897 564.5 877.5 Q616 858 633 858 Q676 858 705 905 L743 905 Z M324 30 L279 -46 Q338 -59 370 -98 Q402 -137 402 -192 Q402 -259 346 -307 Q270 -370 168 -370 Q113 -370 27 -348 L39 -315 Q89 -327 125 -327 Q189 -327 224.5 -296.5 Q260 -266 260 -223 Q260 -186 239 -168 Q211 -145 155 -144 L265 30 L324 30 Z " />
<glyph glyph-name="Cacute" unicode="&#x106;" horiz-adv-x="1366" d="M1441 1387 L1340 948 L1304 948 L1300 1058 Q1295 1118 1277 1165 Q1259 1212 1223 1246.5 Q1187 1281 1132 1300.5 Q1077 1320 1010 1320 Q831 1320 697 1222 Q526 1097 429 869 Q349 681 349 488 Q349 291 464 173.5 Q579 56 763 56 Q902 56 1010.5 118 Q1119 180 1212 309 L1259 309 Q1149 134 1015 51.5 Q881 -31 694 -31 Q528 -31 400 38.5 Q272 108 205 234 Q138 360 138 505 Q138 727 257 937 Q376 1147 583.5 1267 Q791 1387 1002 1387 Q1101 1387 1224 1340 Q1278 1320 1302 1320 Q1326 1320 1344 1330 Q1362 1340 1404 1387 L1441 1387 Z M1260 1802 L966 1459 L932 1459 L1035 1802 L1260 1802 Z " />
<glyph glyph-name="cacute" unicode="&#x107;" horiz-adv-x="909" d="M787 218 Q683 93 577 34.5 Q471 -24 353 -24 Q211 -24 131.5 56 Q52 136 52 271 Q52 424 137.5 572 Q223 720 367.5 812.5 Q512 905 651 905 Q760 905 814 859.5 Q868 814 868 748 Q868 686 830 642 Q802 608 761 608 Q730 608 709.5 628 Q689 648 689 678 Q689 697 696.5 713 Q704 729 727.5 751.5 Q751 774 756 784 Q761 794 761 805 Q761 826 742 840 Q713 860 660 860 Q562 860 466 791 Q370 722 302 595 Q220 441 220 287 Q220 185 278 125.5 Q336 66 436 66 Q513 66 588.5 104.5 Q664 143 758 244 L787 218 Z M878 1402 L584 1059 L550 1059 L653 1402 L878 1402 Z " />
<glyph glyph-name="Ccaron" unicode="&#x10c;" horiz-adv-x="1366" d="M1441 1387 L1340 948 L1304 948 L1300 1058 Q1295 1118 1277 1165 Q1259 1212 1223 1246.5 Q1187 1281 1132 1300.5 Q1077 1320 1010 1320 Q831 1320 697 1222 Q526 1097 429 869 Q349 681 349 488 Q349 291 464 173.5 Q579 56 763 56 Q902 56 1010.5 118 Q1119 180 1212 309 L1259 309 Q1149 134 1015 51.5 Q881 -31 694 -31 Q528 -31 400 38.5 Q272 108 205 234 Q138 360 138 505 Q138 727 257 937 Q376 1147 583.5 1267 Q791 1387 1002 1387 Q1101 1387 1224 1340 Q1278 1320 1302 1320 Q1326 1320 1344 1330 Q1362 1340 1404 1387 L1441 1387 Z M932 1452 L857 1768 L878 1768 L1047 1566 L1366 1768 L1393 1768 L1082 1452 L932 1452 Z " />
<glyph glyph-name="ccaron" unicode="&#x10d;" horiz-adv-x="909" d="M787 218 Q683 93 577 34.5 Q471 -24 353 -24 Q211 -24 131.5 56 Q52 136 52 271 Q52 424 137.5 572 Q223 720 367.5 812.5 Q512 905 651 905 Q760 905 814 859.5 Q868 814 868 748 Q868 686 830 642 Q802 608 761 608 Q730 608 709.5 628 Q689 648 689 678 Q689 697 696.5 713 Q704 729 727.5 751.5 Q751 774 756 784 Q761 794 761 805 Q761 826 742 840 Q713 860 660 860 Q562 860 466 791 Q370 722 302 595 Q220 441 220 287 Q220 185 278 125.5 Q336 66 436 66 Q513 66 588.5 104.5 Q664 143 758 244 L787 218 Z M590 1071 L515 1387 L536 1387 L705 1185 L1024 1387 L1051 1387 L740 1071 L590 1071 Z " />
<glyph glyph-name="uni0111" unicode="&#x111;" horiz-adv-x="1024" d="M1031 1156 L1203 1156 L1185 1074 L1007 1074 L764 242 Q736 146 736 116 Q736 106 744.5 97 Q753 88 762 88 Q775 88 793 101 Q827 125 907 221 L941 200 Q869 100 795.5 38 Q722 -24 658 -24 Q624 -24 602 0 Q580 24 580 68 Q580 125 610 221 L649 345 Q504 121 385 35 Q303 -24 228 -24 Q152 -24 95.5 43.5 Q39 111 39 227 Q39 376 134 545 Q229 714 385 820 Q508 905 611 905 Q665 905 704 883 Q743 861 781 810 L856 1074 L493 1074 L511 1156 L879 1156 Q911 1266 911 1283 Q911 1303 894 1316 Q872 1335 841 1335 Q819 1335 764 1328 L764 1365 L1108 1422 L1031 1156 Z M737 712 Q737 776 700 815 Q663 854 606 854 Q480 854 343.5 646 Q207 438 207 248 Q207 173 240 133.5 Q273 94 319 94 Q423 94 580 319 Q737 544 737 712 Z " />
<glyph glyph-name="uni00AF" unicode="&#xaf;" horiz-adv-x="1024" d="M1256 1462 L197 1462 L197 1546 L1256 1546 L1256 1462 Z " />
<glyph glyph-name="Abreve" unicode="&#x102;" horiz-adv-x="1251" d="M1055 1387 L952 259 Q944 180 944 155 Q944 115 959 94 Q978 65 1010.5 51 Q1043 37 1120 37 L1109 0 L575 0 L586 37 L609 37 Q674 37 715 65 Q744 84 760 128 Q771 159 781 274 L797 446 L409 446 L271 259 Q224 196 212 168.5 Q200 141 200 117 Q200 85 226 62 Q252 39 312 37 L301 0 L-100 0 L-89 37 Q-15 40 41.5 86.5 Q98 133 210 285 L1020 1387 L1055 1387 Z M857 1054 L464 519 L805 519 L857 1054 Z M1382 1769 L1412 1769 Q1345 1621 1248.5 1548 Q1152 1475 1064 1475 Q970 1475 908 1546.5 Q846 1618 843 1769 L875 1769 Q890 1696 939.5 1657.5 Q989 1619 1072 1619 Q1241 1619 1382 1769 Z " />
<glyph glyph-name="abreve" unicode="&#x103;" horiz-adv-x="1024" d="M961 905 L766 227 L744 136 Q741 123 741 114 Q741 98 751 86 Q759 77 771 77 Q784 77 805 93 Q844 122 909 213 L943 189 Q874 85 801 30.5 Q728 -24 666 -24 Q623 -24 601.5 -2.5 Q580 19 580 60 Q580 109 602 189 L623 264 Q492 93 382 25 Q303 -24 227 -24 Q154 -24 101 36.5 Q48 97 48 203 Q48 362 143.5 538.5 Q239 715 386 821 Q501 905 603 905 Q664 905 704.5 873 Q745 841 766 767 L802 881 L961 905 Z M605 853 Q541 853 469 793 Q367 708 287.5 541 Q208 374 208 239 Q208 171 242 131.5 Q276 92 320 92 Q429 92 557 253 Q728 467 728 692 Q728 777 695 815 Q662 853 605 853 Z M954 1406 L984 1406 Q917 1258 820.5 1185 Q724 1112 636 1112 Q542 1112 480 1183.5 Q418 1255 415 1406 L447 1406 Q462 1333 511.5 1294.5 Q561 1256 644 1256 Q813 1256 954 1406 Z " />
<glyph glyph-name="Aogonek" unicode="&#x104;" horiz-adv-x="1251" d="M1055 1387 L952 259 Q944 180 944 155 Q944 115 959 94 Q978 65 1010.5 51 Q1043 37 1120 37 L1109 0 L575 0 L586 37 L609 37 Q674 37 715 65 Q744 84 760 128 Q771 159 781 274 L797 446 L409 446 L271 259 Q224 196 212 168.5 Q200 141 200 117 Q200 85 226 62 Q252 39 312 37 L301 0 L-100 0 L-89 37 Q-15 40 41.5 86.5 Q98 133 210 285 L1020 1387 L1055 1387 Z M857 1054 L464 519 L805 519 L857 1054 Z M967 60 L892 -2 Q807 -72 760 -136.5 Q713 -201 713 -260 Q713 -336 791 -336 Q834 -336 885 -310 L892 -339 Q776 -429 688 -429 Q614 -429 584 -382 Q569 -359 567 -331 L567 -320 Q567 -258 620 -187 Q652 -145 691 -110 Q754 -54 848 6 L932 60 L967 60 Z " />
<glyph glyph-name="aogonek" unicode="&#x105;" horiz-adv-x="1024" d="M961 905 L766 227 L744 136 Q741 123 741 114 Q741 98 751 86 Q759 77 771 77 Q784 77 805 93 Q844 122 909 213 L943 189 Q874 85 801 30.5 Q728 -24 666 -24 Q623 -24 601.5 -2.5 Q580 19 580 60 Q580 109 602 189 L623 264 Q492 93 382 25 Q303 -24 227 -24 Q154 -24 101 36.5 Q48 97 48 203 Q48 362 143.5 538.5 Q239 715 386 821 Q501 905 603 905 Q664 905 704.5 873 Q745 841 766 767 L802 881 L961 905 Z M605 853 Q541 853 469 793 Q367 708 287.5 541 Q208 374 208 239 Q208 171 242 131.5 Q276 92 320 92 Q429 92 557 253 Q728 467 728 692 Q728 777 695 815 Q662 853 605 853 Z M827 60 L752 -2 Q667 -72 620 -136.5 Q573 -201 573 -260 Q573 -336 651 -336 Q694 -336 745 -310 L752 -339 Q636 -429 548 -429 Q474 -429 444 -382 Q429 -359 427 -331 L427 -320 Q427 -258 480 -187 Q512 -145 551 -110 Q614 -54 708 6 L792 60 L827 60 Z " />
<glyph glyph-name="Dcaron" unicode="&#x10e;" horiz-adv-x="1479" d="M300 1319 L312 1356 L745 1356 Q1020 1356 1152.5 1293 Q1285 1230 1364 1094.5 Q1443 959 1443 804 Q1443 671 1397.5 545.5 Q1352 420 1294.5 344.5 Q1237 269 1118 178 Q999 87 860 43.5 Q721 0 513 0 L-61 0 L-48 37 Q31 39 58 51 Q98 68 117 97 Q146 139 182 266 L422 1086 Q450 1183 450 1238 Q450 1277 424 1298 Q398 1319 322 1319 L300 1319 Z M655 1281 L361 266 Q328 152 328 125 Q328 109 338.5 94 Q349 79 367 74 Q393 65 451 65 Q608 65 742.5 97.5 Q877 130 963 194 Q1085 287 1158 450 Q1231 613 1231 821 Q1231 1056 1119 1170.5 Q1007 1285 792 1285 Q739 1285 655 1281 Z M749 1452 L674 1768 L695 1768 L864 1566 L1183 1768 L1210 1768 L899 1452 L749 1452 Z " />
<glyph glyph-name="dcaron" unicode="&#x10f;" horiz-adv-x="1246" d="M1133 1017 Q1209 1050 1256 1103 Q1291 1143 1291 1179 Q1291 1198 1285 1213 Q1282 1221 1258 1245 Q1234 1269 1230 1278 Q1223 1294 1223 1317 Q1223 1360 1253 1391 Q1283 1422 1322 1422 Q1363 1422 1394.5 1389 Q1426 1356 1426 1307 Q1426 1217 1356 1126 Q1286 1035 1153 985 L1133 1017 Z M1108 1422 L764 242 Q736 146 736 116 Q736 106 744.5 97 Q753 88 762 88 Q775 88 793 101 Q827 125 907 221 L941 200 Q869 100 795.5 38 Q722 -24 658 -24 Q624 -24 602 0 Q580 24 580 68 Q580 125 610 221 L649 345 Q504 121 385 35 Q303 -24 228 -24 Q152 -24 95.5 43.5 Q39 111 39 227 Q39 376 134 545 Q229 714 385 820 Q508 905 611 905 Q665 905 704 883 Q743 861 781 810 L879 1158 Q909 1264 909 1283 Q909 1304 894 1318 Q873 1335 840 1335 Q817 1335 764 1328 L764 1365 L1108 1422 Z M737 712 Q737 776 700 815 Q663 854 606 854 Q480 854 343.5 646 Q207 438 207 248 Q207 173 240 133.5 Q273 94 319 94 Q423 94 580 319 Q737 544 737 712 Z " />
<glyph glyph-name="uni0110" unicode="&#x110;" horiz-adv-x="1479" d="M-48 0 L-38 33 Q33 39 44 41 Q72 49 100 69 Q121 85 136 112 Q157 151 190 265 L311 677 L132 677 L155 751 L332 751 L431 1088 Q460 1188 460 1227 Q460 1267 429.5 1291 Q399 1315 305 1317 L315 1356 L755 1356 Q1033 1356 1164.5 1293 Q1296 1230 1376.5 1092.5 Q1457 955 1457 804 Q1457 673 1410.5 546.5 Q1364 420 1307.5 345.5 Q1251 271 1151 194 Q1017 90 875.5 45 Q734 0 522 0 L-48 0 Z M665 1283 L510 751 L880 751 L860 677 L489 677 L370 265 Q336 147 336 123 Q336 109 346.5 94 Q357 79 374 74 Q400 66 459 66 Q616 66 751.5 98 Q887 130 974 195 Q1096 288 1169.5 448.5 Q1243 609 1243 811 Q1243 1049 1128 1167.5 Q1013 1286 794 1286 Q741 1286 665 1283 Z " />
<glyph glyph-name="Eogonek" unicode="&#x118;" horiz-adv-x="1251" d="M663 1283 L508 747 L635 747 Q771 747 832 788.5 Q893 830 937 942 L974 942 L835 450 L795 450 Q813 512 813 556 Q813 599 795.5 625 Q778 651 747.5 663.5 Q717 676 619 676 L490 676 L359 227 Q340 162 340 128 Q340 102 365 82 Q382 68 450 68 L570 68 Q765 68 882.5 137 Q1000 206 1093 377 L1130 377 L1002 0 L-46 0 L-33 37 Q45 39 72 51 Q112 69 130 97 Q157 138 194 269 L432 1087 Q460 1186 460 1238 Q460 1276 433.5 1297.5 Q407 1319 330 1319 L309 1319 L321 1356 L1295 1356 L1211 1029 L1174 1029 Q1181 1075 1181 1106 Q1181 1159 1155 1195 Q1121 1241 1056 1265 Q1008 1283 835 1283 L663 1283 Z M966 60 L891 -2 Q806 -72 759 -136.5 Q712 -201 712 -260 Q712 -336 790 -336 Q833 -336 884 -310 L891 -339 Q775 -429 687 -429 Q613 -429 583 -382 Q568 -359 566 -331 L566 -320 Q566 -258 619 -187 Q651 -145 690 -110 Q753 -54 847 6 L931 60 L966 60 Z " />
<glyph glyph-name="eogonek" unicode="&#x119;" horiz-adv-x="909" d="M244 377 Q237 327 237 294 Q237 205 300 142.5 Q363 80 453 80 Q525 80 591.5 109.5 Q658 139 789 240 L810 211 Q573 -24 358 -24 Q212 -24 138 68 Q64 160 64 271 Q64 420 156 576 Q248 732 387 818.5 Q526 905 673 905 Q779 905 830 862 Q881 819 881 760 Q881 677 815 601 Q728 502 559 441 Q447 400 244 377 Z M251 426 Q399 443 492 484 Q615 539 676.5 615.5 Q738 692 738 761 Q738 803 711.5 829 Q685 855 636 855 Q534 855 419.5 746.5 Q305 638 251 426 Z M577 60 L502 -2 Q417 -72 370 -136.5 Q323 -201 323 -260 Q323 -336 401 -336 Q444 -336 495 -310 L502 -339 Q386 -429 298 -429 Q224 -429 194 -382 Q179 -359 177 -331 L177 -320 Q177 -258 230 -187 Q262 -145 301 -110 Q364 -54 458 6 L542 60 L577 60 Z " />
<glyph glyph-name="Ecaron" unicode="&#x11a;" horiz-adv-x="1251" d="M663 1283 L508 747 L635 747 Q771 747 832 788.5 Q893 830 937 942 L974 942 L835 450 L795 450 Q813 512 813 556 Q813 599 795.5 625 Q778 651 747.5 663.5 Q717 676 619 676 L490 676 L359 227 Q340 162 340 128 Q340 102 365 82 Q382 68 450 68 L570 68 Q765 68 882.5 137 Q1000 206 1093 377 L1130 377 L1002 0 L-46 0 L-33 37 Q45 39 72 51 Q112 69 130 97 Q157 138 194 269 L432 1087 Q460 1186 460 1238 Q460 1276 433.5 1297.5 Q407 1319 330 1319 L309 1319 L321 1356 L1295 1356 L1211 1029 L1174 1029 Q1181 1075 1181 1106 Q1181 1159 1155 1195 Q1121 1241 1056 1265 Q1008 1283 835 1283 L663 1283 Z M743 1452 L668 1768 L689 1768 L858 1566 L1177 1768 L1204 1768 L893 1452 L743 1452 Z " />
<glyph glyph-name="ecaron" unicode="&#x11b;" horiz-adv-x="909" d="M244 377 Q237 327 237 294 Q237 205 300 142.5 Q363 80 453 80 Q525 80 591.5 109.5 Q658 139 789 240 L810 211 Q573 -24 358 -24 Q212 -24 138 68 Q64 160 64 271 Q64 420 156 576 Q248 732 387 818.5 Q526 905 673 905 Q779 905 830 862 Q881 819 881 760 Q881 677 815 601 Q728 502 559 441 Q447 400 244 377 Z M251 426 Q399 443 492 484 Q615 539 676.5 615.5 Q738 692 738 761 Q738 803 711.5 829 Q685 855 636 855 Q534 855 419.5 746.5 Q305 638 251 426 Z M579 1071 L504 1387 L525 1387 L694 1185 L1013 1387 L1040 1387 L729 1071 L579 1071 Z " />
<glyph glyph-name="Lacute" unicode="&#x139;" horiz-adv-x="1139" d="M939 0 L-66 0 L-52 37 Q28 39 55 50 Q97 68 117 97 Q148 143 183 263 L422 1088 Q452 1190 452 1238 Q452 1276 424.5 1297 Q397 1318 321 1318 Q304 1318 294 1319 L306 1356 L859 1356 L851 1319 Q758 1319 719 1301 Q680 1283 654 1242 Q636 1215 595 1074 L360 263 Q333 171 333 135 Q333 111 360 89 Q377 74 437 74 L568 74 Q711 74 795 110 Q857 137 909 191 Q937 221 1008 340 L1034 385 L1071 385 L939 0 Z M985 1802 L691 1459 L657 1459 L760 1802 L985 1802 Z " />
<glyph glyph-name="lacute" unicode="&#x13a;" horiz-adv-x="569" d="M609 1422 L267 232 Q242 143 242 123 Q242 108 251.5 98 Q261 88 275 88 Q294 88 316 105 Q368 146 425 232 L455 201 Q360 67 280 14 Q221 -24 168 -24 Q130 -24 104.5 2 Q79 28 79 62 Q79 98 111 210 L382 1148 Q415 1263 415 1280 Q415 1304 396 1319.5 Q377 1335 337 1335 Q314 1335 267 1328 L267 1365 L609 1422 Z M753 1802 L459 1459 L425 1459 L528 1802 L753 1802 Z " />
<glyph glyph-name="Lcaron" unicode="&#x13d;" horiz-adv-x="1139" d="M938 982 Q1014 1015 1061 1068 Q1096 1108 1096 1144 Q1096 1163 1090 1178 Q1087 1186 1063 1210 Q1039 1234 1035 1243 Q1028 1259 1028 1282 Q1028 1325 1058 1356 Q1088 1387 1127 1387 Q1168 1387 1199.5 1354 Q1231 1321 1231 1271 Q1231 1182 1161 1091 Q1091 1000 958 950 L938 982 Z M939 0 L-66 0 L-52 37 Q28 39 55 50 Q97 68 117 97 Q148 143 183 263 L422 1088 Q452 1190 452 1238 Q452 1276 424.5 1297 Q397 1318 321 1318 Q304 1318 294 1319 L306 1356 L859 1356 L851 1319 Q758 1319 719 1301 Q680 1283 654 1242 Q636 1215 595 1074 L360 263 Q333 171 333 135 Q333 111 360 89 Q377 74 437 74 L568 74 Q711 74 795 110 Q857 137 909 191 Q937 221 1008 340 L1034 385 L1071 385 L939 0 Z " />
<glyph glyph-name="lcaron" unicode="&#x13e;" horiz-adv-x="745" d="M633 1017 Q708 1050 755 1103 Q791 1143 791 1179 Q791 1198 785 1213 Q781 1221 757 1245 Q733 1269 730 1278 Q722 1294 722 1317 Q722 1360 752 1391 Q782 1422 822 1422 Q863 1422 894.5 1389 Q926 1356 926 1306 Q926 1217 856 1126 Q786 1035 652 985 L633 1017 Z M608 1422 L266 232 Q241 143 241 123 Q241 108 250.5 98 Q260 88 274 88 Q293 88 315 105 Q367 146 424 232 L454 201 Q359 67 279 14 Q220 -24 167 -24 Q129 -24 103.5 2 Q78 28 78 62 Q78 98 110 210 L381 1148 Q414 1263 414 1280 Q414 1304 395 1319.5 Q376 1335 336 1335 Q313 1335 266 1328 L266 1365 L608 1422 Z " />
<glyph glyph-name="Ldot" unicode="&#x13f;" horiz-adv-x="1139" d="M939 0 L-66 0 L-52 37 Q28 39 55 50 Q97 68 117 97 Q148 143 183 263 L422 1088 Q452 1190 452 1238 Q452 1276 424.5 1297 Q397 1318 321 1318 Q304 1318 294 1319 L306 1356 L859 1356 L851 1319 Q758 1319 719 1301 Q680 1283 654 1242 Q636 1215 595 1074 L360 263 Q333 171 333 135 Q333 111 360 89 Q377 74 437 74 L568 74 Q711 74 795 110 Q857 137 909 191 Q937 221 1008 340 L1034 385 L1071 385 L939 0 Z M822 806 Q865 806 896 775.5 Q927 745 927 701 Q927 658 896 627.5 Q865 597 822 597 Q778 597 747.5 627.5 Q717 658 717 701 Q717 745 747.5 775.5 Q778 806 822 806 Z " />
<glyph glyph-name="ldot" unicode="&#x140;" horiz-adv-x="661" d="M609 1422 L267 232 Q242 143 242 123 Q242 108 251.5 98 Q261 88 275 88 Q294 88 316 105 Q368 146 425 232 L455 201 Q360 67 280 14 Q221 -24 168 -24 Q130 -24 104.5 2 Q79 28 79 62 Q79 98 111 210 L382 1148 Q415 1263 415 1280 Q415 1304 396 1319.5 Q377 1335 337 1335 Q314 1335 267 1328 L267 1365 L609 1422 Z M671 805 Q714 805 745 774.5 Q776 744 776 700 Q776 657 745 626.5 Q714 596 671 596 Q627 596 596.5 626.5 Q566 657 566 700 Q566 744 596.5 774.5 Q627 805 671 805 Z " />
<glyph glyph-name="Nacute" unicode="&#x143;" horiz-adv-x="1366" d="M587 1356 L1006 293 L1233 1087 Q1261 1185 1261 1239 Q1261 1276 1235 1297 Q1209 1318 1138 1318 Q1126 1318 1113 1319 L1124 1356 L1560 1356 L1548 1319 Q1480 1320 1447 1305 Q1400 1284 1377 1251 Q1345 1204 1312 1087 L993 -31 L957 -31 L506 1113 L265 268 Q238 172 238 121 Q238 83 262.5 63.5 Q287 44 379 37 L369 0 L-57 0 L-43 37 Q37 39 64 51 Q105 69 125 98 Q154 142 190 268 L459 1211 Q420 1271 375.5 1293.5 Q331 1316 237 1319 L248 1356 L587 1356 Z M1203 1802 L909 1459 L875 1459 L978 1802 L1203 1802 Z " />
<glyph glyph-name="nacute" unicode="&#x144;" horiz-adv-x="1024" d="M452 905 L319 450 Q506 729 605.5 817 Q705 905 797 905 Q847 905 879.5 872 Q912 839 912 786 Q912 726 883 626 L761 205 Q740 132 740 116 Q740 102 748 92.5 Q756 83 765 83 Q777 83 794 96 Q847 138 910 224 L941 205 Q848 72 765 15 Q707 -24 661 -24 Q624 -24 602 -1.5 Q580 21 580 59 Q580 107 614 224 L730 626 Q752 701 752 743 Q752 763 739 775.5 Q726 788 707 788 Q679 788 640 764 Q566 719 486 615.5 Q406 512 317 351 Q270 266 239 165 L189 0 L39 0 L221 626 Q253 739 253 762 Q253 784 235.5 800.5 Q218 817 192 817 Q180 817 150 813 L112 807 L106 843 L452 905 Z M900 1402 L606 1059 L572 1059 L675 1402 L900 1402 Z " />
<glyph glyph-name="Ncaron" unicode="&#x147;" horiz-adv-x="1366" d="M587 1356 L1006 293 L1233 1087 Q1261 1185 1261 1239 Q1261 1276 1235 1297 Q1209 1318 1138 1318 Q1126 1318 1113 1319 L1124 1356 L1560 1356 L1548 1319 Q1480 1320 1447 1305 Q1400 1284 1377 1251 Q1345 1204 1312 1087 L993 -31 L957 -31 L506 1113 L265 268 Q238 172 238 121 Q238 83 262.5 63.5 Q287 44 379 37 L369 0 L-57 0 L-43 37 Q37 39 64 51 Q105 69 125 98 Q154 142 190 268 L459 1211 Q420 1271 375.5 1293.5 Q331 1316 237 1319 L248 1356 L587 1356 Z M834 1452 L759 1768 L780 1768 L949 1566 L1268 1768 L1295 1768 L984 1452 L834 1452 Z " />
<glyph glyph-name="ncaron" unicode="&#x148;" horiz-adv-x="1024" d="M452 905 L319 450 Q506 729 605.5 817 Q705 905 797 905 Q847 905 879.5 872 Q912 839 912 786 Q912 726 883 626 L761 205 Q740 132 740 116 Q740 102 748 92.5 Q756 83 765 83 Q777 83 794 96 Q847 138 910 224 L941 205 Q848 72 765 15 Q707 -24 661 -24 Q624 -24 602 -1.5 Q580 21 580 59 Q580 107 614 224 L730 626 Q752 701 752 743 Q752 763 739 775.5 Q726 788 707 788 Q679 788 640 764 Q566 719 486 615.5 Q406 512 317 351 Q270 266 239 165 L189 0 L39 0 L221 626 Q253 739 253 762 Q253 784 235.5 800.5 Q218 817 192 817 Q180 817 150 813 L112 807 L106 843 L452 905 Z M476 1071 L401 1387 L422 1387 L591 1185 L910 1387 L937 1387 L626 1071 L476 1071 Z " />
<glyph glyph-name="uni0150" unicode="&#x150;" horiz-adv-x="1479" d="M1009 1387 Q1144 1387 1248 1328.5 Q1352 1270 1411 1155.5 Q1470 1041 1470 918 Q1470 700 1343.5 460.5 Q1217 221 1013 95 Q809 -31 591 -31 Q434 -31 328.5 38.5 Q223 108 172.5 222 Q122 336 122 443 Q122 633 213.5 818.5 Q305 1004 432 1128.5 Q559 1253 703 1320 Q847 1387 1009 1387 Z M975 1323 Q875 1323 779.5 1273.5 Q684 1224 590 1111.5 Q496 999 421 817 Q329 593 329 394 Q329 252 402 142.5 Q475 33 626 33 Q717 33 804.5 78 Q892 123 987 232 Q1106 369 1187 581.5 Q1268 794 1268 978 Q1268 1114 1195 1218.5 Q1122 1323 975 1323 Z M1185 1802 L891 1459 L857 1459 L960 1802 L1185 1802 Z M1474 1802 L1180 1459 L1146 1459 L1249 1802 L1474 1802 Z " />
<glyph glyph-name="uni0151" unicode="&#x151;" horiz-adv-x="1024" d="M947 592 Q947 442 867.5 295 Q788 148 646 62 Q504 -24 370 -24 Q233 -24 146.5 63.5 Q60 151 60 290 Q60 437 144.5 585 Q229 733 370.5 819 Q512 905 644 905 Q776 905 861.5 818 Q947 731 947 592 Z M781 661 Q781 754 735.5 803.5 Q690 853 618 853 Q471 853 347.5 642.5 Q224 432 224 224 Q224 129 272 77.5 Q320 26 393 26 Q534 26 657.5 235.5 Q781 445 781 661 Z M821 1402 L527 1059 L493 1059 L596 1402 L821 1402 Z M1110 1402 L816 1059 L782 1059 L885 1402 L1110 1402 Z " />
<glyph glyph-name="Racute" unicode="&#x154;" horiz-adv-x="1251" d="M851 0 L634 659 Q558 658 478 674 L361 264 Q338 184 338 129 Q338 87 367 63 Q389 45 487 37 L478 0 L-47 0 L-36 37 Q38 40 64 52 Q105 69 124 98 Q156 145 191 264 L428 1083 Q452 1165 452 1210 Q452 1256 414.5 1288 Q377 1320 307 1319 L319 1356 L761 1356 Q983 1356 1081 1272 Q1179 1188 1179 1051 Q1179 920 1078.5 811.5 Q978 703 803 674 L935 277 Q983 131 1031 87 Q1079 43 1186 37 L1175 0 L851 0 Z M495 731 Q559 722 609 722 Q781 722 881 817.5 Q981 913 981 1055 Q981 1166 918.5 1225 Q856 1284 731 1284 Q699 1284 655 1276 L495 731 Z M1052 1802 L758 1459 L724 1459 L827 1802 L1052 1802 Z " />
<glyph glyph-name="racute" unicode="&#x155;" horiz-adv-x="797" d="M107 849 L452 905 L308 419 Q483 718 626 837 Q707 905 758 905 Q791 905 810 885.5 Q829 866 829 829 Q829 763 795 703 Q771 658 726 658 Q703 658 686.5 673 Q670 688 666 719 Q664 738 657 744 Q649 752 638 752 Q621 752 606 744 Q580 730 527 666 Q444 568 347 412 Q305 346 275 263 Q233 149 227 126 L195 0 L42 0 L227 621 Q259 729 259 775 Q259 793 244 805 Q224 821 191 821 Q170 821 114 812 L107 849 Z M805 1402 L511 1059 L477 1059 L580 1402 L805 1402 Z " />
<glyph glyph-name="Rcaron" unicode="&#x158;" horiz-adv-x="1251" d="M851 0 L634 659 Q558 658 478 674 L361 264 Q338 184 338 129 Q338 87 367 63 Q389 45 487 37 L478 0 L-47 0 L-36 37 Q38 40 64 52 Q105 69 124 98 Q156 145 191 264 L428 1083 Q452 1165 452 1210 Q452 1256 414.5 1288 Q377 1320 307 1319 L319 1356 L761 1356 Q983 1356 1081 1272 Q1179 1188 1179 1051 Q1179 920 1078.5 811.5 Q978 703 803 674 L935 277 Q983 131 1031 87 Q1079 43 1186 37 L1175 0 L851 0 Z M495 731 Q559 722 609 722 Q781 722 881 817.5 Q981 913 981 1055 Q981 1166 918.5 1225 Q856 1284 731 1284 Q699 1284 655 1276 L495 731 Z M664 1452 L589 1768 L610 1768 L779 1566 L1098 1768 L1125 1768 L814 1452 L664 1452 Z " />
<glyph glyph-name="rcaron" unicode="&#x159;" horiz-adv-x="797" d="M107 849 L452 905 L308 419 Q483 718 626 837 Q707 905 758 905 Q791 905 810 885.5 Q829 866 829 829 Q829 763 795 703 Q771 658 726 658 Q703 658 686.5 673 Q670 688 666 719 Q664 738 657 744 Q649 752 638 752 Q621 752 606 744 Q580 730 527 666 Q444 568 347 412 Q305 346 275 263 Q233 149 227 126 L195 0 L42 0 L227 621 Q259 729 259 775 Q259 793 244 805 Q224 821 191 821 Q170 821 114 812 L107 849 Z M417 1071 L342 1387 L363 1387 L532 1185 L851 1387 L878 1387 L567 1071 L417 1071 Z " />
<glyph glyph-name="Sacute" unicode="&#x15a;" horiz-adv-x="1024" d="M14 -31 L126 472 L160 472 Q153 399 153 351 Q153 214 240.5 128 Q328 42 469 42 Q600 42 668 122.5 Q736 203 736 308 Q736 376 705 432 Q658 515 454 724 Q355 824 327 873 Q281 954 281 1043 Q281 1185 387 1286 Q493 1387 659 1387 Q715 1387 765 1376 Q796 1370 878 1336 Q936 1313 942 1311 Q956 1308 973 1308 Q1002 1308 1023 1323 Q1044 1338 1072 1387 L1110 1387 L1006 937 L972 937 Q976 997 976 1034 Q976 1155 896 1232 Q816 1309 685 1309 Q581 1309 516 1248 Q451 1187 451 1107 Q451 1037 492.5 973.5 Q534 910 683.5 766.5 Q833 623 877 542.5 Q921 462 921 371 Q921 268 866.5 171.5 Q812 75 710 22 Q608 -31 487 -31 Q427 -31 375 -20 Q323 -9 209 34 Q170 49 144 49 Q85 49 52 -31 L14 -31 Z M972 1802 L678 1459 L644 1459 L747 1802 L972 1802 Z " />
<glyph glyph-name="sacute" unicode="&#x15b;" horiz-adv-x="797" d="M743 905 L682 598 L645 598 Q640 732 588 793 Q536 854 459 854 Q397 854 360.5 820 Q324 786 324 738 Q324 705 338.5 675 Q353 645 402 591 Q532 449 570 377 Q608 305 608 241 Q608 137 521.5 56.5 Q435 -24 303 -24 Q231 -24 137 10 Q104 22 86 22 Q41 22 18 -24 L-19 -24 L42 300 L79 300 Q85 148 142 85 Q199 22 298 22 Q374 22 418.5 64.5 Q463 107 463 169 Q463 209 447 243 Q419 303 329.5 409 Q240 515 214.5 568 Q189 621 189 674 Q189 771 259.5 838 Q330 905 441 905 Q473 905 499 900 Q513 897 564.5 877.5 Q616 858 633 858 Q676 858 705 905 L743 905 Z M772 1402 L478 1059 L444 1059 L547 1402 L772 1402 Z " />
<glyph glyph-name="uni0162" unicode="&#x162;" horiz-adv-x="1139" d="M300 1356 L1330 1356 L1219 996 L1181 996 Q1200 1075 1200 1137 Q1200 1210 1155 1247 Q1121 1275 980 1275 L873 1275 L605 341 Q554 165 554 124 Q554 86 586 61.5 Q618 37 699 37 L745 37 L733 0 L143 0 L154 37 L180 37 Q258 37 300 62 Q329 79 352.5 123.5 Q376 168 418 312 L699 1275 L618 1275 Q501 1275 429.5 1245 Q358 1215 314 1158 Q270 1101 242 996 L205 996 L300 1356 Z M480 30 L435 -46 Q494 -59 526 -98 Q558 -137 558 -192 Q558 -259 502 -307 Q426 -370 324 -370 Q269 -370 183 -348 L195 -315 Q245 -327 281 -327 Q345 -327 380.5 -296.5 Q416 -266 416 -223 Q416 -186 395 -168 Q367 -145 311 -144 L421 30 L480 30 Z " />
<glyph glyph-name="uni0163" unicode="&#x163;" horiz-adv-x="569" d="M532 1153 L454 881 L611 881 L594 818 L438 818 L266 228 Q238 133 238 105 Q238 88 246 79 Q254 70 265 70 Q290 70 331 105 Q355 125 438 228 L471 203 Q379 69 297 14 Q241 -24 184 -24 Q140 -24 112 3.5 Q84 31 84 74 Q84 128 116 239 L283 818 L132 818 L142 857 Q252 887 325 946.5 Q398 1006 488 1153 L532 1153 Z M230 30 L185 -46 Q244 -59 276 -98 Q308 -137 308 -192 Q308 -259 252 -307 Q176 -370 74 -370 Q19 -370 -67 -348 L-55 -315 Q-5 -327 31 -327 Q95 -327 130.5 -296.5 Q166 -266 166 -223 Q166 -186 145 -168 Q117 -145 61 -144 L171 30 L230 30 Z " />
<glyph glyph-name="Tcaron" unicode="&#x164;" horiz-adv-x="1139" d="M300 1356 L1330 1356 L1219 996 L1181 996 Q1200 1075 1200 1137 Q1200 1210 1155 1247 Q1121 1275 980 1275 L873 1275 L605 341 Q554 165 554 124 Q554 86 586 61.5 Q618 37 699 37 L745 37 L733 0 L143 0 L154 37 L180 37 Q258 37 300 62 Q329 79 352.5 123.5 Q376 168 418 312 L699 1275 L618 1275 Q501 1275 429.5 1245 Q358 1215 314 1158 Q270 1101 242 996 L205 996 L300 1356 Z M758 1452 L683 1768 L704 1768 L873 1566 L1192 1768 L1219 1768 L908 1452 L758 1452 Z " />
<glyph glyph-name="tcaron" unicode="&#x165;" horiz-adv-x="745" d="M633 1017 Q708 1050 755 1103 Q791 1143 791 1179 Q791 1198 785 1213 Q781 1221 757 1245 Q733 1269 730 1278 Q723 1294 723 1317 Q723 1360 752.5 1391 Q782 1422 822 1422 Q863 1422 894.5 1389 Q926 1356 926 1306 Q926 1217 856 1126 Q786 1035 653 985 L633 1017 Z M534 1153 L456 881 L613 881 L596 818 L440 818 L268 228 Q240 133 240 105 Q240 88 248 79 Q256 70 267 70 Q292 70 333 105 Q357 125 440 228 L473 203 Q381 69 299 14 Q243 -24 186 -24 Q142 -24 114 3.5 Q86 31 86 74 Q86 128 118 239 L285 818 L134 818 L144 857 Q254 887 327 946.5 Q400 1006 490 1153 L534 1153 Z " />
<glyph glyph-name="Uring" unicode="&#x16e;" horiz-adv-x="1479" d="M268 1356 L841 1356 L830 1319 Q742 1317 704.5 1302.5 Q667 1288 640.5 1251 Q614 1214 585 1114 L446 634 Q409 506 402 466 Q390 402 390 347 Q390 226 480 142.5 Q570 59 721 59 Q820 59 898 96.5 Q976 134 1031.5 201.5 Q1087 269 1133 384.5 Q1179 500 1214 618 L1334 1032 Q1379 1187 1379 1234 Q1379 1267 1348.5 1290.5 Q1318 1314 1225 1319 L1236 1356 L1667 1356 L1656 1319 Q1580 1319 1546.5 1304.5 Q1513 1290 1488 1252.5 Q1463 1215 1432 1107 L1285 604 Q1214 359 1151 242.5 Q1088 126 968.5 47.5 Q849 -31 672 -31 Q468 -31 343 84.5 Q218 200 218 349 Q218 408 229 475 Q237 519 268 627 L402 1088 Q430 1188 430 1235 Q430 1272 401.5 1292.5 Q373 1313 258 1319 L268 1356 Z M1058 1809 Q1137 1809 1192 1754 Q1247 1699 1247 1620 Q1247 1542 1191.5 1486.5 Q1136 1431 1058 1431 Q980 1431 924.5 1486.5 Q869 1542 869 1620 Q869 1699 924 1754 Q979 1809 1058 1809 Z M1059 1745 Q1007 1745 970.5 1708.5 Q934 1672 934 1620 Q934 1569 970.5 1532.5 Q1007 1496 1059 1496 Q1110 1496 1146.5 1532.5 Q1183 1569 1183 1620 Q1183 1672 1147 1708.5 Q1111 1745 1059 1745 Z " />
<glyph glyph-name="uring" unicode="&#x16f;" horiz-adv-x="1024" d="M964 881 L790 285 Q751 152 751 117 Q751 99 757.5 90.5 Q764 82 775 82 Q792 82 812.5 97.5 Q833 113 916 221 L946 198 Q867 73 784 14 Q729 -24 678 -24 Q639 -24 617 -2 Q595 20 595 55 Q595 89 608 145 Q624 219 699 467 Q529 188 414.5 82 Q300 -24 202 -24 Q156 -24 124 8 Q92 40 92 89 Q92 164 136 319 L223 628 Q255 739 255 766 Q255 778 246.5 786.5 Q238 795 228 795 Q207 795 186 780 Q165 765 91 669 L60 691 Q135 807 219 862 Q283 905 337 905 Q374 905 397.5 881.5 Q421 858 421 821 Q421 767 381 628 L287 305 Q248 173 248 138 Q248 119 260.5 107.5 Q273 96 294 96 Q327 96 380 129 Q433 162 521.5 275.5 Q610 389 667.5 488.5 Q725 588 790 805 L812 881 L964 881 Z M664 1421 Q743 1421 798 1366 Q853 1311 853 1232 Q853 1154 797.5 1098.5 Q742 1043 664 1043 Q586 1043 530.5 1098.5 Q475 1154 475 1232 Q475 1311 530 1366 Q585 1421 664 1421 Z M665 1357 Q613 1357 576.5 1320.5 Q540 1284 540 1232 Q540 1181 576.5 1144.5 Q613 1108 665 1108 Q716 1108 752.5 1144.5 Q789 1181 789 1232 Q789 1284 753 1320.5 Q717 1357 665 1357 Z " />
<glyph glyph-name="uni0170" unicode="&#x170;" horiz-adv-x="1479" d="M268 1356 L841 1356 L830 1319 Q742 1317 704.5 1302.5 Q667 1288 640.5 1251 Q614 1214 585 1114 L446 634 Q409 506 402 466 Q390 402 390 347 Q390 226 480 142.5 Q570 59 721 59 Q820 59 898 96.5 Q976 134 1031.5 201.5 Q1087 269 1133 384.5 Q1179 500 1214 618 L1334 1032 Q1379 1187 1379 1234 Q1379 1267 1348.5 1290.5 Q1318 1314 1225 1319 L1236 1356 L1667 1356 L1656 1319 Q1580 1319 1546.5 1304.5 Q1513 1290 1488 1252.5 Q1463 1215 1432 1107 L1285 604 Q1214 359 1151 242.5 Q1088 126 968.5 47.5 Q849 -31 672 -31 Q468 -31 343 84.5 Q218 200 218 349 Q218 408 229 475 Q237 519 268 627 L402 1088 Q430 1188 430 1235 Q430 1272 401.5 1292.5 Q373 1313 258 1319 L268 1356 Z M1139 1802 L845 1459 L811 1459 L914 1802 L1139 1802 Z M1428 1802 L1134 1459 L1100 1459 L1203 1802 L1428 1802 Z " />
<glyph glyph-name="uni0171" unicode="&#x171;" horiz-adv-x="1024" d="M964 881 L790 285 Q751 152 751 117 Q751 99 757.5 90.5 Q764 82 775 82 Q792 82 812.5 97.5 Q833 113 916 221 L946 198 Q867 73 784 14 Q729 -24 678 -24 Q639 -24 617 -2 Q595 20 595 55 Q595 89 608 145 Q624 219 699 467 Q529 188 414.5 82 Q300 -24 202 -24 Q156 -24 124 8 Q92 40 92 89 Q92 164 136 319 L223 628 Q255 739 255 766 Q255 778 246.5 786.5 Q238 795 228 795 Q207 795 186 780 Q165 765 91 669 L60 691 Q135 807 219 862 Q283 905 337 905 Q374 905 397.5 881.5 Q421 858 421 821 Q421 767 381 628 L287 305 Q248 173 248 138 Q248 119 260.5 107.5 Q273 96 294 96 Q327 96 380 129 Q433 162 521.5 275.5 Q610 389 667.5 488.5 Q725 588 790 805 L812 881 L964 881 Z M781 1402 L487 1059 L453 1059 L556 1402 L781 1402 Z M1070 1402 L776 1059 L742 1059 L845 1402 L1070 1402 Z " />
<glyph glyph-name="Zacute" unicode="&#x179;" horiz-adv-x="1139" d="M310 1356 L1251 1356 L1251 1319 L244 65 L401 65 Q655 65 759.5 90 Q864 115 933.5 177 Q1003 239 1050 353 L1088 353 L971 0 L-4 0 L-4 29 L1003 1283 L722 1283 Q538 1283 463 1266.5 Q388 1250 334.5 1199.5 Q281 1149 244 1047 L209 1047 L310 1356 Z M1033 1802 L739 1459 L705 1459 L808 1802 L1033 1802 Z " />
<glyph glyph-name="zacute" unicode="&#x17a;" horiz-adv-x="797" d="M172 881 L807 881 L807 856 L115 136 L408 136 Q512 136 540 144 Q568 152 591.5 178 Q615 204 644 272 L681 272 L594 0 L-57 0 L-57 29 L635 749 L347 749 Q256 749 237 744 Q209 738 181.5 712.5 Q154 687 125 628 L87 628 L172 881 Z M781 1402 L487 1059 L453 1059 L556 1402 L781 1402 Z " />
<glyph glyph-name="uni017B" unicode="&#x17b;" horiz-adv-x="1139" d="M310 1356 L1251 1356 L1251 1319 L244 65 L401 65 Q655 65 759.5 90 Q864 115 933.5 177 Q1003 239 1050 353 L1088 353 L971 0 L-4 0 L-4 29 L1003 1283 L722 1283 Q538 1283 463 1266.5 Q388 1250 334.5 1199.5 Q281 1149 244 1047 L209 1047 L310 1356 Z M815 1711 Q859 1711 890.5 1679.5 Q922 1648 922 1604 Q922 1560 890.5 1528.5 Q859 1497 815 1497 Q771 1497 739.5 1528.5 Q708 1560 708 1604 Q708 1648 739 1679.5 Q770 1711 815 1711 Z " />
<glyph glyph-name="uni017C" unicode="&#x17c;" horiz-adv-x="797" d="M172 881 L807 881 L807 856 L115 136 L408 136 Q512 136 540 144 Q568 152 591.5 178 Q615 204 644 272 L681 272 L594 0 L-57 0 L-57 29 L635 749 L347 749 Q256 749 237 744 Q209 738 181.5 712.5 Q154 687 125 628 L87 628 L172 881 Z M539 1340 Q583 1340 614.5 1308.5 Q646 1277 646 1233 Q646 1189 614.5 1157.5 Q583 1126 539 1126 Q495 1126 463.5 1157.5 Q432 1189 432 1233 Q432 1277 463 1308.5 Q494 1340 539 1340 Z " />
<glyph glyph-name="Gamma" unicode="&#x393;" horiz-adv-x="1165" d="M302 1356 L1359 1356 L1254 998 L1217 998 Q1227 1082 1227 1116 Q1227 1221 1175 1254 Q1123 1287 986 1287 L666 1287 L365 263 Q333 157 333 129 Q333 77 370.5 59.5 Q408 42 511 37 L501 0 L-74 0 L-62 37 Q68 38 106.5 83.5 Q145 129 185 263 L424 1062 Q458 1175 458 1226 Q458 1281 425.5 1297.5 Q393 1314 290 1319 L302 1356 Z " />
<glyph glyph-name="Theta" unicode="&#x398;" horiz-adv-x="1479" d="M997 1387 Q1239 1387 1356 1243 Q1473 1099 1473 915 Q1473 694 1344.5 458.5 Q1216 223 1017 96 Q818 -31 596 -31 Q359 -31 242 118 Q125 267 125 443 Q125 656 248.5 880.5 Q372 1105 578.5 1246 Q785 1387 997 1387 Z M972 1323 Q722 1323 527 1015.5 Q332 708 332 393 Q332 248 406.5 140.5 Q481 33 633 33 Q765 33 917 158 Q1069 283 1170 530.5 Q1271 778 1271 974 Q1271 1127 1192 1225 Q1113 1323 972 1323 Z M613 901 L650 901 Q640 864 640 845 Q640 758 763 758 L864 758 Q965 758 1006.5 786.5 Q1048 815 1079 901 L1116 901 L987 453 L949 453 Q962 499 962 524 Q962 571 925.5 591.5 Q889 612 786 612 L720 612 Q632 612 587.5 574.5 Q543 537 519 453 L482 453 L613 901 Z " />
<glyph glyph-name="Phi" unicode="&#x3a6;" horiz-adv-x="1559" d="M872 1121 Q889 1182 889 1214 Q889 1255 863 1287 Q837 1319 737 1319 L747 1356 L1353 1356 L1343 1319 Q1225 1317 1167 1281 Q1109 1245 1074 1120 Q1306 1111 1418.5 1004.5 Q1531 898 1531 749 Q1531 542 1349.5 392 Q1168 242 818 235 Q802 170 802 138 Q802 90 835 63.5 Q868 37 972 37 L961 0 L350 0 L361 37 Q470 37 528 76 Q586 115 615 235 Q376 246 266.5 352.5 Q157 459 157 605 Q157 807 332 958.5 Q507 1110 872 1121 Z M831 291 Q1061 291 1202 440 Q1343 589 1343 783 Q1343 1041 1058 1064 L831 291 Z M857 1064 Q625 1064 485 914 Q345 764 345 572 Q345 314 630 291 L857 1064 Z " />
<glyph glyph-name="alpha" unicode="&#x3b1;" horiz-adv-x="1075" d="M873 881 L1021 881 L807 392 Q822 117 902 117 Q930 117 955 146.5 Q980 176 985 220 L1026 220 Q996 -24 887 -24 Q849 -24 817 16 Q785 56 761 296 Q577 -24 347 -24 Q218 -24 139 65 Q60 154 60 303 Q60 448 133 584.5 Q206 721 315 813 Q424 905 556 905 Q650 905 703.5 847 Q757 789 777 667 L873 881 Z M739 591 Q734 664 693 755 Q652 846 572 846 Q455 846 335.5 621.5 Q216 397 216 226 Q216 132 255.5 77 Q295 22 364 22 Q436 22 494 96.5 Q552 171 655 403 L739 591 Z " />
<glyph glyph-name="delta" unicode="&#x3b4;" horiz-adv-x="952" d="M657 854 Q637 885 565 968 Q440 1111 440 1213 Q440 1311 505 1366.5 Q570 1422 685 1422 Q787 1422 867 1378 Q947 1334 947 1274 Q947 1241 923.5 1220.5 Q900 1200 868 1200 Q820 1200 781 1261 Q731 1339 699 1356 Q667 1373 632 1373 Q577 1373 541.5 1338.5 Q506 1304 506 1251 Q506 1208 534 1167.5 Q562 1127 664 1038 Q777 939 832.5 842 Q888 745 888 605 Q888 375 716.5 175.5 Q545 -24 338 -24 Q200 -24 124 60.5 Q48 145 48 282 Q48 477 199 634 Q350 791 657 854 Z M677 816 Q510 784 410 686.5 Q310 589 259 459.5 Q208 330 208 212 Q208 24 354 24 Q508 24 614 244 Q720 464 720 643 Q720 740 677 816 Z " />
<glyph glyph-name="epsilon" unicode="&#x3b5;" horiz-adv-x="807" d="M337 479 Q155 523 155 661 Q155 763 249.5 834 Q344 905 501 905 Q643 905 722 847 Q801 789 801 722 Q801 688 779 665 Q757 642 722 642 Q685 642 664 667.5 Q643 693 643 727 Q643 735 645 751 Q646 761 646 768 Q646 801 618 830.5 Q590 860 527 860 Q432 860 356 793 Q280 726 280 621 Q280 490 400 490 Q426 490 469 499 Q502 506 517 506 Q565 506 565 469 Q565 437 525 437 Q513 437 481 443 Q439 450 411 450 Q311 450 246.5 372 Q182 294 182 189 Q182 118 228.5 69.5 Q275 21 358 21 Q480 21 525 155 Q543 209 562 230 Q581 251 617 251 Q649 251 669 229 Q689 207 689 176 Q689 104 586 40 Q483 -24 336 -24 Q176 -24 99 44 Q22 112 22 211 Q22 312 101.5 391 Q181 470 337 479 Z " />
<glyph glyph-name="sigma" unicode="&#x3c3;" horiz-adv-x="1010" d="M1080 881 L1040 740 L715 740 Q856 623 856 478 Q856 288 708.5 132 Q561 -24 355 -24 Q211 -24 132.5 55.5 Q54 135 54 270 Q54 398 114 537 Q174 676 278 755.5 Q382 835 495 858 Q608 881 846 881 L1080 881 Z M666 740 Q414 738 310.5 559 Q207 380 207 198 Q207 22 359 22 Q505 22 605.5 216 Q706 410 706 580 Q706 682 666 740 Z " />
<glyph glyph-name="tau" unicode="&#x3c4;" horiz-adv-x="733" d="M87 627 L51 627 Q78 710 122.5 770 Q167 830 227 855.5 Q287 881 397 881 L798 881 L756 740 L511 740 L387 366 Q351 255 351 191 Q351 97 439 97 Q521 97 574 229 L614 229 Q534 -24 363 -24 Q299 -24 253 17.5 Q207 59 207 152 Q207 233 281 450 L379 740 Q257 740 194 724.5 Q131 709 87 627 Z " />
<glyph glyph-name="phi" unicode="&#x3c6;" horiz-adv-x="1133" d="M359 -438 L257 -438 L378 -24 Q233 -23 153.5 63.5 Q74 150 74 301 Q74 531 217 715 Q360 899 574 905 L563 869 Q429 847 329.5 650 Q230 453 230 264 Q230 36 392 29 L527 476 Q578 649 619 733.5 Q660 818 720 861.5 Q780 905 848 905 Q944 905 997 823.5 Q1050 742 1050 608 Q1050 366 900.5 175.5 Q751 -15 476 -25 L359 -438 Z M494 30 Q694 43 803 237.5 Q912 432 912 635 Q912 808 824 808 Q771 808 729 744 Q687 680 620 453 L494 30 Z " />
<glyph glyph-name="underscoredbl" unicode="&#x2017;" horiz-adv-x="1024" d="M1042 -284 L-17 -284 L-17 -200 L1042 -200 L1042 -284 Z M1042 -442 L-17 -442 L-17 -358 L1042 -358 L1042 -442 Z " />
<glyph glyph-name="exclamdbl" unicode="&#x203c;" horiz-adv-x="1173" d="M323 330 L285 330 Q334 511 354 606.5 Q374 702 399 856 Q449 1174 460 1227 Q480 1317 525 1364 Q546 1387 583 1387 Q611 1387 630.5 1365 Q650 1343 650 1306 Q650 1265 631 1202 Q590 1064 469 749 Q411 600 405 583 Q386 527 323 330 Z M256 172 Q299 172 329 142 Q359 112 359 69 Q359 27 329 -3 Q299 -33 256 -33 Q214 -33 184 -3 Q154 27 154 69 Q154 112 184 142 Q214 172 256 172 Z M814 330 L776 330 Q825 511 845 606.5 Q865 702 890 856 Q940 1174 951 1227 Q971 1317 1016 1364 Q1037 1387 1074 1387 Q1102 1387 1121.5 1365 Q1141 1343 1141 1306 Q1141 1265 1122 1202 Q1081 1064 960 749 Q902 600 896 583 Q877 527 814 330 Z M747 172 Q790 172 820 142 Q850 112 850 69 Q850 27 820 -3 Q790 -33 747 -33 Q705 -33 675 -3 Q645 27 645 69 Q645 112 675 142 Q705 172 747 172 Z " />
<glyph glyph-name="nsuperior" unicode="&#x207f;" horiz-adv-x="645" d="M289 1117 L208 858 Q331 1030 393.5 1073.5 Q456 1117 503 1117 Q535 1117 555.5 1095.5 Q576 1074 576 1038 Q576 1002 558 945 L481 696 Q468 653 468 645 Q468 639 478 632 Q490 632 502 641 Q530 660 574 715 L599 700 Q537 615 484 580 Q446 555 416 555 Q392 555 378 570 Q364 585 364 611 Q364 641 385 709 L458 946 Q472 992 472 1014 Q472 1023 465.5 1028.5 Q459 1034 445 1034 Q384 1034 286.5 908.5 Q189 783 153 673 L119 569 L20 569 L137 946 Q158 1014 158 1024 Q158 1035 148.5 1043 Q139 1051 121 1051 Q113 1051 70 1045 L64 1080 L289 1117 Z " />
<glyph glyph-name="peseta" unicode="&#x20a7;" horiz-adv-x="2027" d="M417 1356 L802 1356 Q1038 1356 1145 1268.5 Q1252 1181 1252 1046 Q1252 1012 1241 966 Q1319 1022 1396 1142 L1444 1142 L1372 896 L1504 896 L1484 832 L1354 832 L1156 150 Q1143 104 1143 94 Q1143 82 1149 75 Q1155 68 1163 68 Q1180 68 1204 87 Q1262 132 1334 236 L1346 299 L1383 299 Q1387 153 1442.5 86.5 Q1498 20 1568 20 Q1636 20 1684.5 67.5 Q1733 115 1733 178 Q1733 217 1712 268 Q1691 319 1623 421 Q1504 600 1504 700 Q1504 788 1572 853.5 Q1640 919 1733 919 Q1795 919 1856 892 Q1898 873 1911 873 Q1942 873 1970 920 L2005 920 L1949 612 L1916 612 Q1916 749 1867.5 812 Q1819 875 1756 875 Q1707 875 1672.5 841.5 Q1638 808 1638 765 Q1638 730 1651 696.5 Q1664 663 1711 591 Q1816 433 1848 355 Q1872 295 1872 238 Q1872 135 1787 55.5 Q1702 -24 1578 -24 Q1522 -24 1469 -4 Q1416 16 1400 16 Q1366 16 1322 -24 L1285 -24 L1319 150 Q1213 33 1164 4.5 Q1115 -24 1077 -24 Q1043 -24 1016.5 3.5 Q990 31 990 67 Q990 96 1010 165 L1203 832 L1174 832 Q1108 746 994.5 692 Q881 638 763 638 Q693 638 583 670 L464 254 Q444 187 444 150 Q444 101 479 70 Q514 39 603 36 L591 0 L47 0 L57 36 Q120 43 155.5 64 Q191 85 215 126.5 Q239 168 270 275 L511 1111 Q536 1197 536 1225 Q536 1261 504.5 1288.5 Q473 1316 407 1319 L417 1356 Z M602 737 Q675 714 718 714 Q850 714 947.5 814.5 Q1045 915 1045 1061 Q1045 1169 986.5 1228 Q928 1287 820 1287 Q794 1287 760 1281 L602 737 Z " />
<glyph glyph-name="arrowleft" unicode="&#x2190;" horiz-adv-x="2048" d="M492 876 L568 876 Q509 758 479.5 710.5 Q450 663 373 567 L1968 567 L1968 466 L373 466 Q477 358 571 157 L493 157 Q364 301 271 375.5 Q178 450 79 498 L79 543 Q166 580 263 656 Q360 732 492 876 Z " />
<glyph glyph-name="arrowup" unicode="&#x2191;" horiz-adv-x="1024" d="M153 926 Q298 1059 373.5 1156 Q449 1253 486 1339 L532 1339 Q579 1240 653.5 1147 Q728 1054 872 925 L872 848 Q671 942 563 1045 L563 -429 L462 -429 L462 1045 Q366 969 318.5 939 Q271 909 153 850 L153 926 Z " />
<glyph glyph-name="arrowright" unicode="&#x2192;" horiz-adv-x="2048" d="M1555 876 Q1688 731 1785 655.5 Q1882 580 1968 543 L1968 498 Q1869 450 1776 375.5 Q1683 301 1554 157 L1477 157 Q1571 358 1674 466 L79 466 L79 567 L1674 567 Q1598 664 1568 711 Q1538 758 1479 876 L1555 876 Z " />
<glyph glyph-name="arrowdown" unicode="&#x2193;" horiz-adv-x="1024" d="M153 -16 L153 60 Q272 1 319 -29 Q366 -59 462 -135 L462 1339 L563 1339 L563 -135 Q671 -32 872 62 L872 -15 Q728 -144 653.5 -237 Q579 -330 532 -429 L486 -429 Q449 -343 373.5 -246 Q298 -149 153 -16 Z " />
<glyph glyph-name="arrowboth" unicode="&#x2194;" horiz-adv-x="2048" d="M1968 540 L1968 495 Q1874 452 1783 379 Q1692 306 1562 158 L1482 158 Q1551 330 1676 469 L371 469 Q496 330 565 158 L485 158 Q355 306 264 379 Q173 452 79 495 L79 540 Q173 584 264 656.5 Q355 729 485 878 L565 878 Q496 706 371 567 L1676 567 Q1551 706 1482 878 L1562 878 Q1692 729 1783 656.5 Q1874 584 1968 540 Z " />
<glyph glyph-name="arrowupdn" unicode="&#x2195;" horiz-adv-x="1024" d="M489 1463 L534 1463 Q578 1369 650.5 1277.5 Q723 1186 871 1056 L871 976 Q700 1045 560 1171 L560 -135 Q700 -9 871 59 L871 -20 Q723 -150 650.5 -241.5 Q578 -333 534 -427 L489 -427 Q446 -333 373 -241.5 Q300 -150 152 -20 L152 59 Q323 -9 463 -135 L463 1171 Q323 1045 152 976 L152 1056 Q300 1186 373 1277.5 Q446 1369 489 1463 Z " />
<glyph glyph-name="arrowupdnbse" unicode="&#x21a8;" horiz-adv-x="1024" d="M489 1463 L534 1463 Q578 1369 650.5 1277.5 Q723 1186 871 1056 L871 976 Q700 1045 560 1171 L560 -135 Q700 -9 871 59 L871 -20 Q723 -150 650.5 -241.5 Q578 -333 534 -427 L489 -427 Q446 -333 373 -241.5 Q300 -150 152 -20 L152 59 Q323 -9 463 -135 L463 1171 Q323 1045 152 976 L152 1056 Q300 1186 373 1277.5 Q446 1369 489 1463 Z M154 -522 L871 -522 L871 -620 L154 -620 L154 -522 Z " />
<glyph glyph-name="orthogonal" unicode="&#x221f;" horiz-adv-x="2005" d="M362 1279 L462 1279 L462 100 L1643 100 L1643 0 L362 0 L362 1279 Z " />
<glyph glyph-name="intersection" unicode="&#x2229;" horiz-adv-x="1479" d="M302 0 L192 0 L192 560 Q192 808 198 874 Q210 993 242 1069 Q274 1145 344 1218.5 Q414 1292 517.5 1338 Q621 1384 737 1384 Q849 1384 951 1340 Q1053 1296 1128 1220.5 Q1203 1145 1235 1060 Q1267 975 1277 848 Q1281 798 1281 560 L1281 0 L1172 0 L1172 566 Q1172 784 1166 847 Q1155 958 1129.5 1023.5 Q1104 1089 1049.5 1146.5 Q995 1204 910.5 1241 Q826 1278 736 1278 Q662 1278 592.5 1252.5 Q523 1227 473.5 1189.5 Q424 1152 393.5 1112.5 Q363 1073 349 1038 Q324 978 313 891.5 Q302 805 302 566 L302 0 Z " />
<glyph glyph-name="equivalence" unicode="&#x2261;" horiz-adv-x="1382" d="M198 1046 L1277 1046 L1277 964 L198 964 L198 1046 Z M198 720 L1277 720 L1277 638 L198 638 L198 720 Z M198 393 L1277 393 L1277 312 L198 312 L198 393 Z " />
<glyph glyph-name="house" unicode="&#x2302;" horiz-adv-x="1229" d="M153 0 L153 634 L614 1153 L1076 634 L1076 0 L153 0 Z M234 81 L995 81 L995 600 L614 1027 L234 600 L234 81 Z " />
<glyph glyph-name="revlogicalnot" unicode="&#x2310;" horiz-adv-x="1382" d="M1232 878 L1232 797 L231 797 L231 472 L152 472 L152 878 L1232 878 Z " />
<glyph glyph-name="integraltp" unicode="&#x2320;" horiz-adv-x="1237" d="M691 -515 L546 -515 L546 1296 Q546 1515 635.5 1626 Q725 1737 838 1737 Q905 1737 940.5 1704.5 Q976 1672 976 1628 Q976 1588 950.5 1562 Q925 1536 888 1536 Q858 1536 831 1551 Q813 1561 789.5 1597.5 Q766 1634 743 1634 Q726 1634 712 1622 Q702 1614 698 1595 Q691 1562 691 1456 L691 -515 Z " />
<glyph glyph-name="integralbt" unicode="&#x2321;" horiz-adv-x="1237" d="M546 1737 L691 1737 L691 -74 Q691 -293 601.5 -404 Q512 -515 399 -515 Q332 -515 296.5 -482.5 Q261 -450 261 -406 Q261 -366 286.5 -340 Q312 -314 348 -314 Q379 -314 407 -330 Q425 -340 448 -376 Q471 -412 494 -412 Q511 -412 525 -401 Q535 -393 539 -372 Q546 -340 546 -234 L546 1737 Z " />
<glyph glyph-name="uni2500" unicode="&#x2500;" horiz-adv-x="1451" d="M1473 534 L-23 534 L-23 709 L1473 709 L1473 534 Z " />
<glyph glyph-name="uni2502" unicode="&#x2502;" horiz-adv-x="1261" d="M448 -621 L448 1864 L623 1864 L623 -621 L448 -621 Z " />
<glyph glyph-name="uni250C" unicode="&#x250c;" horiz-adv-x="1451" d="M1474 709 L1474 534 L813 534 L813 -621 L638 -621 L638 709 L1474 709 Z " />
<glyph glyph-name="uni2510" unicode="&#x2510;" horiz-adv-x="1451" d="M637 534 L-23 534 L-23 709 L812 709 L812 -621 L637 -621 L637 534 Z " />
<glyph glyph-name="uni2514" unicode="&#x2514;" horiz-adv-x="1451" d="M638 534 L638 1864 L813 1864 L813 709 L1474 709 L1474 534 L638 534 Z " />
<glyph glyph-name="uni2518" unicode="&#x2518;" horiz-adv-x="1451" d="M812 534 L-23 534 L-23 709 L637 709 L637 1864 L812 1864 L812 534 Z " />
<glyph glyph-name="uni251C" unicode="&#x251c;" horiz-adv-x="1451" d="M638 -621 L638 1864 L813 1864 L813 709 L1474 709 L1474 534 L813 534 L813 -621 L638 -621 Z " />
<glyph glyph-name="uni2524" unicode="&#x2524;" horiz-adv-x="1451" d="M637 -621 L637 534 L-23 534 L-23 709 L637 709 L637 1864 L812 1864 L812 -621 L637 -621 Z " />
<glyph glyph-name="uni252C" unicode="&#x252c;" horiz-adv-x="1451" d="M637 534 L-23 534 L-23 709 L1473 709 L1473 534 L812 534 L812 -621 L637 -621 L637 534 Z " />
<glyph glyph-name="uni2534" unicode="&#x2534;" horiz-adv-x="1451" d="M1473 534 L-23 534 L-23 709 L637 709 L637 1864 L812 1864 L812 709 L1473 709 L1473 534 Z " />
<glyph glyph-name="uni253C" unicode="&#x253c;" horiz-adv-x="1451" d="M637 534 L-23 534 L-23 709 L637 709 L637 1864 L812 1864 L812 709 L1473 709 L1473 534 L812 534 L812 -621 L637 -621 L637 534 Z " />
<glyph glyph-name="uni2550" unicode="&#x2550;" horiz-adv-x="1451" d="M1473 724 L-23 724 L-23 899 L1473 899 L1473 724 Z M1473 344 L-23 344 L-23 519 L1473 519 L1473 344 Z " />
<glyph glyph-name="uni2551" unicode="&#x2551;" horiz-adv-x="1451" d="M828 -621 L828 1864 L1003 1864 L1003 -621 L828 -621 Z M448 -621 L448 1864 L623 1864 L623 -621 L448 -621 Z " />
<glyph glyph-name="uni2552" unicode="&#x2552;" horiz-adv-x="1451" d="M638 -621 L638 899 L1474 899 L1474 724 L813 724 L813 519 L1474 519 L1474 344 L813 344 L813 -621 L638 -621 Z " />
<glyph glyph-name="uni2553" unicode="&#x2553;" horiz-adv-x="1451" d="M448 -621 L448 709 L1474 709 L1474 534 L1003 534 L1003 -621 L828 -621 L828 519 L623 519 L623 -621 L448 -621 Z " />
<glyph glyph-name="uni2554" unicode="&#x2554;" horiz-adv-x="1451" d="M623 -621 L448 -621 L448 899 L1473 899 L1473 724 L623 724 L623 -621 Z M1003 344 L1003 -621 L828 -621 L828 519 L1473 519 L1473 344 L1003 344 Z " />
<glyph glyph-name="uni2555" unicode="&#x2555;" horiz-adv-x="1451" d="M637 344 L-23 344 L-23 519 L637 519 L637 724 L-23 724 L-23 899 L812 899 L812 -621 L637 -621 L637 344 Z " />
<glyph glyph-name="uni2556" unicode="&#x2556;" horiz-adv-x="1451" d="M447 -621 L448 534 L-23 534 L-23 709 L1002 709 L1002 -621 L827 -621 L827 534 L622 534 L622 -621 L447 -621 Z " />
<glyph glyph-name="uni2557" unicode="&#x2557;" horiz-adv-x="1451" d="M827 -621 L827 724 L-23 724 L-23 899 L1002 899 L1002 -621 L827 -621 Z M447 344 L-23 344 L-23 519 L622 519 L622 -621 L447 -621 L447 344 Z " />
<glyph glyph-name="uni2558" unicode="&#x2558;" horiz-adv-x="1451" d="M638 344 L638 1864 L813 1864 L813 899 L1474 899 L1474 724 L813 724 L813 519 L1474 519 L1474 344 L638 344 Z " />
<glyph glyph-name="uni2559" unicode="&#x2559;" horiz-adv-x="1451" d="M1474 534 L448 534 L448 1864 L623 1864 L623 709 L828 709 L828 1864 L1003 1864 L1003 709 L1474 709 L1474 534 Z " />
<glyph glyph-name="uni255A" unicode="&#x255a;" horiz-adv-x="1451" d="M623 1864 L623 519 L1473 519 L1473 344 L448 344 L448 1864 L623 1864 Z M1003 899 L1473 899 L1473 724 L828 724 L828 1864 L1003 1864 L1003 899 Z " />
<glyph glyph-name="uni255B" unicode="&#x255b;" horiz-adv-x="1451" d="M812 344 L-23 344 L-23 519 L637 519 L637 724 L-23 724 L-23 899 L637 899 L637 1864 L812 1864 L812 344 Z " />
<glyph glyph-name="uni255C" unicode="&#x255c;" horiz-adv-x="1451" d="M1002 534 L-23 534 L-23 709 L447 709 L447 1864 L622 1864 L622 709 L827 709 L827 1864 L1002 1864 L1002 534 Z " />
<glyph glyph-name="uni255D" unicode="&#x255d;" horiz-adv-x="1451" d="M827 1864 L1002 1864 L1002 344 L-23 344 L-23 519 L827 519 L827 1864 Z M447 899 L447 1864 L622 1864 L622 724 L-23 724 L-23 899 L447 899 Z " />
<glyph glyph-name="uni255E" unicode="&#x255e;" horiz-adv-x="1451" d="M638 -621 L638 1864 L813 1864 L813 899 L1474 899 L1474 724 L813 724 L813 519 L1474 519 L1474 344 L813 344 L813 -621 L638 -621 Z " />
<glyph glyph-name="uni255F" unicode="&#x255f;" horiz-adv-x="1451" d="M828 -621 L828 1864 L1003 1864 L1003 709 L1474 709 L1474 534 L1003 534 L1003 -621 L828 -621 Z M448 -621 L448 1864 L623 1864 L623 -621 L448 -621 Z " />
<glyph glyph-name="uni2560" unicode="&#x2560;" horiz-adv-x="1451" d="M448 -621 L448 1864 L623 1864 L623 -621 L448 -621 Z M828 724 L828 1864 L1003 1864 L1003 899 L1474 899 L1474 724 L828 724 Z M828 -621 L828 519 L1474 519 L1474 344 L1003 344 L1003 -621 L828 -621 Z " />
<glyph glyph-name="uni2561" unicode="&#x2561;" horiz-adv-x="1451" d="M637 344 L-23 344 L-23 519 L638 519 L637 724 L-23 724 L-23 899 L637 899 L637 1864 L812 1864 L812 -621 L637 -621 L637 344 Z " />
<glyph glyph-name="uni2562" unicode="&#x2562;" horiz-adv-x="1451" d="M447 -621 L448 534 L-23 534 L-23 709 L447 709 L447 1864 L622 1864 L622 -621 L447 -621 Z M827 -621 L827 1864 L1002 1864 L1002 -621 L827 -621 Z " />
<glyph glyph-name="uni2563" unicode="&#x2563;" horiz-adv-x="1451" d="M827 -621 L827 1864 L1002 1864 L1002 -621 L827 -621 Z M622 1864 L622 724 L-23 724 L-23 899 L447 899 L447 1864 L622 1864 Z M447 344 L-23 344 L-23 519 L622 519 L622 -621 L447 -621 L447 344 Z " />
<glyph glyph-name="uni2564" unicode="&#x2564;" horiz-adv-x="1451" d="M1473 724 L-23 724 L-23 899 L1473 899 L1473 724 Z M637 344 L-23 344 L-23 519 L1473 519 L1473 344 L812 344 L812 -621 L637 -621 L637 344 Z " />
<glyph glyph-name="uni2565" unicode="&#x2565;" horiz-adv-x="1451" d="M447 -621 L448 534 L-23 534 L-23 709 L1473 709 L1473 534 L1002 534 L1002 -621 L827 -621 L827 519 L622 519 L622 -621 L447 -621 Z " />
<glyph glyph-name="uni2566" unicode="&#x2566;" horiz-adv-x="1451" d="M1473 724 L-23 724 L-23 899 L1473 899 L1473 724 Z M447 344 L-23 344 L-23 519 L622 519 L622 -621 L447 -621 L447 344 Z M827 -621 L827 519 L1473 519 L1473 344 L1002 344 L1002 -621 L827 -621 Z " />
<glyph glyph-name="uni2567" unicode="&#x2567;" horiz-adv-x="1451" d="M1473 724 L-23 724 L-23 899 L637 899 L637 1864 L812 1864 L812 899 L1473 899 L1473 724 Z M1473 344 L-23 344 L-23 519 L1473 519 L1473 344 Z " />
<glyph glyph-name="uni2568" unicode="&#x2568;" horiz-adv-x="1451" d="M1473 534 L-23 534 L-23 709 L447 709 L447 1864 L622 1864 L622 709 L827 709 L827 1864 L1002 1864 L1002 709 L1473 709 L1473 534 Z " />
<glyph glyph-name="uni2569" unicode="&#x2569;" horiz-adv-x="1451" d="M622 724 L-23 724 L-23 899 L447 899 L447 1864 L622 1864 L622 724 Z M1473 724 L827 724 L827 1864 L1002 1864 L1002 899 L1473 899 L1473 724 Z M1473 344 L-23 344 L-23 519 L1473 519 L1473 344 Z " />
<glyph glyph-name="uni256A" unicode="&#x256a;" horiz-adv-x="1451" d="M637 344 L-23 344 L-23 519 L637 519 L637 724 L-23 724 L-23 899 L637 899 L637 1864 L812 1864 L812 899 L1473 899 L1473 724 L812 724 L812 519 L1473 519 L1473 344 L812 344 L812 -621 L637 -621 L637 344 Z " />
<glyph glyph-name="uni256B" unicode="&#x256b;" horiz-adv-x="1451" d="M447 -621 L448 534 L-23 534 L-23 709 L447 709 L447 1864 L622 1864 L622 709 L827 709 L827 1864 L1002 1864 L1002 709 L1473 709 L1473 534 L1002 534 L1002 -621 L827 -621 L827 534 L622 534 L622 -621 L447 -621 Z " />
<glyph glyph-name="uni256C" unicode="&#x256c;" horiz-adv-x="1451" d="M1003 899 L1473 899 L1473 724 L828 724 L828 1864 L1003 1864 L1003 899 Z M447 899 L447 1864 L622 1864 L622 724 L-23 724 L-23 899 L447 899 Z M447 344 L-23 344 L-23 519 L622 519 L622 -621 L447 -621 L447 344 Z M1003 344 L1003 -621 L828 -621 L828 519 L1473 519 L1473 344 L1003 344 Z " />
<glyph glyph-name="upblock" unicode="&#x2580;" horiz-adv-x="1451" d="M1473 621 L-23 621 L-23 1864 L1473 1864 L1473 621 Z " />
<glyph glyph-name="dnblock" unicode="&#x2584;" horiz-adv-x="1451" d="M1473 -621 L-23 -621 L-23 621 L1473 621 L1473 -621 Z " />
<glyph glyph-name="block" unicode="&#x2588;" horiz-adv-x="1451" d="M-23 -621 L-23 1864 L1473 1864 L1473 -621 L-23 -621 Z " />
<glyph glyph-name="lfblock" unicode="&#x258c;" horiz-adv-x="1451" d="M-23 -621 L-23 1864 L725 1864 L725 -621 L-23 -621 Z " />
<glyph glyph-name="rtblock" unicode="&#x2590;" horiz-adv-x="1451" d="M726 -621 L726 1864 L1474 1864 L1474 -621 L726 -621 Z " />
<glyph glyph-name="ltshade" unicode="&#x2591;" horiz-adv-x="1451" d="M102 1864 L227 1864 L227 1739 L102 1739 L102 1864 Z M600 1864 L725 1864 L725 1739 L600 1739 L600 1864 Z M1099 1864 L1224 1864 L1224 1739 L1099 1739 L1099 1864 Z M351 1615 L476 1615 L476 1490 L351 1490 L351 1615 Z M850 1615 L974 1615 L974 1490 L850 1490 L850 1615 Z M1348 1615 L1473 1615 L1473 1490 L1348 1490 L1348 1615 Z M1099 1366 L1224 1366 L1224 1241 L1099 1241 L1099 1366 Z M600 1366 L725 1366 L725 1241 L600 1241 L600 1366 Z M102 1366 L227 1366 L227 1241 L102 1241 L102 1366 Z M1348 1116 L1473 1116 L1473 992 L1348 992 L1348 1116 Z M850 1116 L974 1116 L974 992 L850 992 L850 1116 Z M351 1116 L476 1116 L476 992 L351 992 L351 1116 Z M102 867 L227 867 L227 742 L102 742 L102 867 Z M600 867 L725 867 L725 742 L600 742 L600 867 Z M1099 867 L1224 867 L1224 742 L1099 742 L1099 867 Z M1348 618 L1473 618 L1473 493 L1348 493 L1348 618 Z M850 618 L974 618 L974 493 L850 493 L850 618 Z M351 618 L476 618 L476 493 L351 493 L351 618 Z M102 369 L227 369 L227 244 L102 244 L102 369 Z M600 369 L725 369 L725 244 L600 244 L600 369 Z M1099 369 L1224 369 L1224 244 L1099 244 L1099 369 Z M351 119 L476 119 L476 -5 L351 -5 L351 119 Z M850 119 L974 119 L974 -5 L850 -5 L850 119 Z M1348 119 L1473 119 L1473 -5 L1348 -5 L1348 119 Z M1099 -130 L1224 -130 L1224 -255 L1099 -255 L1099 -130 Z M600 -130 L725 -130 L725 -255 L600 -255 L600 -130 Z M102 -130 L227 -130 L227 -255 L102 -255 L102 -130 Z M351 -379 L476 -379 L476 -504 L351 -504 L351 -379 Z M850 -379 L974 -379 L974 -504 L850 -504 L850 -379 Z M1348 -379 L1473 -379 L1473 -504 L1348 -504 L1348 -379 Z " />
<glyph glyph-name="shade" unicode="&#x2592;" horiz-adv-x="1451" d="M103 1864 L227 1864 L227 1739 L103 1739 L103 1864 Z M352 1864 L476 1864 L476 1739 L352 1739 L352 1864 Z M601 1864 L726 1864 L726 1739 L601 1739 L601 1864 Z M850 1864 L975 1864 L975 1739 L850 1739 L850 1864 Z M1100 1864 L1224 1864 L1224 1739 L1100 1739 L1100 1864 Z M1349 1864 L1473 1864 L1473 1739 L1349 1739 L1349 1864 Z M-22 1615 L103 1615 L103 1490 L-22 1490 L-22 1615 Z M227 1615 L352 1615 L352 1490 L227 1490 L227 1615 Z M476 1615 L601 1615 L601 1490 L476 1490 L476 1615 Z M726 1615 L850 1615 L850 1490 L726 1490 L726 1615 Z M975 1615 L1100 1615 L1100 1490 L975 1490 L975 1615 Z M1224 1615 L1349 1615 L1349 1490 L1224 1490 L1224 1615 Z M103 1366 L227 1366 L227 1241 L103 1241 L103 1366 Z M352 1366 L476 1366 L476 1241 L352 1241 L352 1366 Z M601 1366 L726 1366 L726 1241 L601 1241 L601 1366 Z M850 1366 L975 1366 L975 1241 L850 1241 L850 1366 Z M1100 1366 L1224 1366 L1224 1241 L1100 1241 L1100 1366 Z M1349 1366 L1473 1366 L1473 1241 L1349 1241 L1349 1366 Z M227 1116 L352 1116 L352 992 L227 992 L227 1116 Z M476 1116 L601 1116 L601 992 L476 992 L476 1116 Z M726 1116 L850 1116 L850 992 L726 992 L726 1116 Z M975 1116 L1100 1116 L1100 992 L975 992 L975 1116 Z M1224 1116 L1349 1116 L1349 992 L1224 992 L1224 1116 Z M-22 1116 L103 1116 L103 992 L-22 992 L-22 1116 Z M103 867 L227 867 L227 742 L103 742 L103 867 Z M352 867 L476 867 L476 742 L352 742 L352 867 Z M601 867 L726 867 L726 742 L601 742 L601 867 Z M850 867 L975 867 L975 742 L850 742 L850 867 Z M1100 867 L1224 867 L1224 742 L1100 742 L1100 867 Z M1349 867 L1473 867 L1473 742 L1349 742 L1349 867 Z M-22 618 L103 618 L103 493 L-22 493 L-22 618 Z M476 618 L601 618 L601 493 L476 493 L476 618 Z M726 618 L850 618 L850 493 L726 493 L726 618 Z M975 618 L1100 618 L1100 493 L975 493 L975 618 Z M1224 618 L1349 618 L1349 493 L1224 493 L1224 618 Z M227 618 L352 618 L352 493 L227 493 L227 618 Z M1349 369 L1473 369 L1473 244 L1349 244 L1349 369 Z M1100 369 L1224 369 L1224 244 L1100 244 L1100 369 Z M850 369 L975 369 L975 244 L850 244 L850 369 Z M601 369 L726 369 L726 244 L601 244 L601 369 Z M352 369 L476 369 L476 244 L352 244 L352 369 Z M103 369 L227 369 L227 244 L103 244 L103 369 Z M-22 119 L103 119 L103 -5 L-22 -5 L-22 119 Z M227 119 L352 119 L352 -5 L227 -5 L227 119 Z M476 119 L601 119 L601 -5 L476 -5 L476 119 Z M726 119 L850 119 L850 -5 L726 -5 L726 119 Z M975 119 L1100 119 L1100 -5 L975 -5 L975 119 Z M1224 119 L1349 119 L1349 -5 L1224 -5 L1224 119 Z M1349 -130 L1473 -130 L1473 -255 L1349 -255 L1349 -130 Z M1100 -130 L1224 -130 L1224 -255 L1100 -255 L1100 -130 Z M850 -130 L975 -130 L975 -255 L850 -255 L850 -130 Z M601 -130 L726 -130 L726 -255 L601 -255 L601 -130 Z M352 -130 L476 -130 L476 -255 L352 -255 L352 -130 Z M103 -130 L227 -130 L227 -255 L103 -255 L103 -130 Z M-22 -379 L103 -379 L103 -504 L-22 -504 L-22 -379 Z M227 -379 L352 -379 L352 -504 L227 -504 L227 -379 Z M476 -379 L601 -379 L601 -504 L476 -504 L476 -379 Z M726 -379 L850 -379 L850 -504 L726 -504 L726 -379 Z M975 -379 L1100 -379 L1100 -504 L975 -504 L975 -379 Z M1224 -379 L1349 -379 L1349 -504 L1224 -504 L1224 -379 Z " />
<glyph glyph-name="dkshade" unicode="&#x2593;" horiz-adv-x="1493" d="M1494 1490 L1494 1116 L1370 1116 L1370 992 L1494 992 L1494 618 L1370 618 L1370 493 L1494 493 L1494 119 L1370 119 L1370 -5 L1494 -5 L1494 -379 L1370 -379 L1370 -504 L1494 -504 L1494 -628 L-1 -628 L-1 -255 L124 -255 L124 -130 L-1 -130 L-1 244 L124 244 L124 369 L-1 369 L-1 742 L124 742 L124 867 L-1 867 L-1 1241 L124 1241 L124 1366 L-1 1366 L-1 1739 L124 1739 L124 1864 L248 1864 L248 1739 L373 1739 L373 1864 L497 1864 L497 1739 L622 1739 L622 1864 L747 1864 L747 1739 L871 1739 L871 1864 L996 1864 L996 1739 L1121 1739 L1121 1864 L1245 1864 L1245 1739 L1370 1739 L1370 1864 L1494 1864 L1494 1615 L1370 1615 L1370 1490 L1494 1490 Z M124 1615 L124 1490 L248 1490 L248 1615 L124 1615 Z M373 1615 L373 1490 L497 1490 L497 1615 L373 1615 Z M622 1615 L622 1490 L747 1490 L747 1615 L622 1615 Z M871 1615 L871 1490 L996 1490 L996 1615 L871 1615 Z M1121 1615 L1121 1490 L1245 1490 L1245 1615 L1121 1615 Z M1370 1366 L1245 1366 L1245 1241 L1370 1241 L1370 1366 Z M1121 1366 L996 1366 L996 1241 L1121 1241 L1121 1366 Z M871 1366 L747 1366 L747 1241 L871 1241 L871 1366 Z M622 1366 L497 1366 L497 1241 L622 1241 L622 1366 Z M373 1366 L248 1366 L248 1241 L373 1241 L373 1366 Z M124 1116 L124 992 L248 992 L248 1116 L124 1116 Z M373 1116 L373 992 L497 992 L497 1116 L373 1116 Z M622 1116 L622 992 L747 992 L747 1116 L622 1116 Z M871 1116 L871 992 L996 992 L996 1116 L871 1116 Z M1121 1116 L1121 992 L1245 992 L1245 1116 L1121 1116 Z M373 867 L248 867 L248 742 L373 742 L373 867 Z M497 867 L497 742 L622 742 L622 867 L497 867 Z M747 867 L747 742 L871 742 L871 867 L747 867 Z M996 867 L996 742 L1121 742 L1121 867 L996 867 Z M1245 867 L1245 742 L1370 742 L1370 867 L1245 867 Z M124 618 L124 493 L248 493 L248 618 L124 618 Z M622 618 L622 493 L747 493 L747 618 L622 618 Z M497 493 L497 618 L373 618 L373 493 L497 493 Z M871 618 L871 493 L996 493 L996 618 L871 618 Z M1121 618 L1121 493 L1245 493 L1245 618 L1121 618 Z M1370 244 L1370 369 L1245 369 L1245 244 L1370 244 Z M1121 244 L1121 369 L996 369 L996 244 L1121 244 Z M871 244 L871 369 L747 369 L747 244 L871 244 Z M622 244 L622 369 L497 369 L497 244 L622 244 Z M373 244 L373 369 L248 369 L248 244 L373 244 Z M124 119 L124 -5 L248 -5 L248 119 L124 119 Z M373 119 L373 -5 L497 -5 L497 119 L373 119 Z M622 119 L622 -5 L747 -5 L747 119 L622 119 Z M871 119 L871 -5 L996 -5 L996 119 L871 119 Z M1121 119 L1121 -5 L1245 -5 L1245 119 L1121 119 Z M1370 -255 L1370 -130 L1245 -130 L1245 -255 L1370 -255 Z M1121 -255 L1121 -130 L996 -130 L996 -255 L1121 -255 Z M871 -255 L871 -130 L747 -130 L747 -255 L871 -255 Z M622 -255 L622 -130 L497 -130 L497 -255 L622 -255 Z M373 -255 L373 -130 L248 -130 L248 -255 L373 -255 Z M124 -379 L124 -504 L248 -504 L248 -379 L124 -379 Z M373 -379 L373 -504 L497 -504 L497 -379 L373 -379 Z M622 -379 L622 -504 L747 -504 L747 -379 L622 -379 Z M871 -379 L871 -504 L996 -504 L996 -379 L871 -379 Z M1121 -379 L1121 -504 L1245 -504 L1245 -379 L1121 -379 Z " />
<glyph glyph-name="filledbox" unicode="&#x25a0;" horiz-adv-x="1237" d="M146 944 L1090 944 L1090 0 L146 0 L146 944 Z " />
<glyph glyph-name="filledrect" unicode="&#x25ac;" horiz-adv-x="2048" d="M0 703 L2047 703 L2047 317 L0 317 L0 703 Z " />
<glyph glyph-name="triagup" unicode="&#x25b2;" horiz-adv-x="2027" d="M304 0 L1014 1419 L1724 0 L304 0 Z " />
<glyph glyph-name="triagrt" unicode="&#x25ba;" horiz-adv-x="2027" d="M288 1417 L1739 693 L288 -31 L288 1417 Z " />
<glyph glyph-name="triagdn" unicode="&#x25bc;" horiz-adv-x="2027" d="M1724 1388 L1014 -31 L304 1388 L1724 1388 Z " />
<glyph glyph-name="triaglf" unicode="&#x25c4;" horiz-adv-x="2027" d="M1739 1417 L1739 -31 L288 693 L1739 1417 Z " />
<glyph glyph-name="circle" unicode="&#x25cb;" horiz-adv-x="1237" d="M619 1018 Q729 1018 835 961 Q941 904 1000 798 Q1059 692 1059 578 Q1059 395 930 266 Q801 137 619 137 Q436 137 307 266 Q178 395 178 578 Q178 693 237 798.5 Q296 904 402 961 Q508 1018 619 1018 Z M619 942 Q526 942 439 895 Q352 848 303 760 Q254 672 254 578 Q254 427 361 320 Q468 213 619 213 Q770 213 876.5 320 Q983 427 983 578 Q983 672 934 760 Q885 848 798 895 Q711 942 619 942 Z " />
<glyph glyph-name="invbullet" unicode="&#x25d8;" horiz-adv-x="1237" d="M128 0 L128 980 L1108 980 L1108 0 L128 0 Z M618 692 Q534 692 475 633 Q416 574 416 490 Q416 407 475.5 347.5 Q535 288 618 288 Q702 288 761 347.5 Q820 407 820 490 Q820 574 761 633 Q702 692 618 692 Z " />
</font>
</svg>
