<?xml version="1.0" encoding="utf-8"?><svg width="44" height="22" viewBox="0 0 44 22" xmlns="http://www.w3.org/2000/svg" xmlns:xlink="http://www.w3.org/1999/xlink"><svg width="14" height="14" viewBox="0 0 14 14" id="check" x="16"><title>check</title><path fill="#acacac" d="M3.5 1.313h7V.438h-7v.875zm7 0c1.208 0 2.188.979 2.188 2.188h.875A3.063 3.063 0 0 0 10.5.438v.875zM12.688 3.5v7h.875v-7h-.875zm0 7a2.188 2.188 0 0 1-2.188 2.188v.875a3.063 3.063 0 0 0 3.063-3.063h-.875zM10.5 12.688h-7v.875h7v-.875zm-7 0A2.188 2.188 0 0 1 1.312 10.5H.437A3.063 3.063 0 0 0 3.5 13.563v-.875zM1.313 10.5v-7H.438v7h.875zm0-7c0-1.208.979-2.188 2.188-2.188V.437A3.063 3.063 0 0 0 .438 3.5h.875z"/></svg><svg width="14" height="14" viewBox="0 0 14 14" id="checked" x="30"><title>checked</title><path fill="#f39c12" d="M11 0a3 3 0 0 1 3 3v8a3 3 0 0 1-3 3H3a3 3 0 0 1-3-3V3a3 3 0 0 1 3-3h8zM7.354 8.682l4.242-4.243-1.414-1.414-4.243 4.243-2.121-2.121-1.414 1.414 3.535 3.535 1.415-1.414z"/></svg><svg width="16" height="22" viewBox="0 0 16 22" id="range"><title>range</title><desc>Created using Figma</desc><use xlink:href="#ca" transform="translate(1 2)" fill="#ACACAC"/><defs><path id="ca" d="M7.015 0l.652-.759-.65-.558-.652.557.65.76zM14 6h1v-.46l-.348-.299L14 6zM0 6l-.65-.76-.35.3V6h1zM6.363.759l6.985 6 1.304-1.518-6.985-6L6.363.76zM13 6v10h2V6h-2zm0 10a2 2 0 0 1-2 2v2a4 4 0 0 0 4-4h-2zm-2 2H3v2h8v-2zm-8 0a2 2 0 0 1-2-2h-2a4 4 0 0 0 4 4v-2zm-2-2V6h-2v10h2zM.65 6.76l7.015-6-1.3-1.52-7.015 6 1.3 1.52z"/></defs></svg></svg>