<?xml version="1.0" encoding="UTF-8"?>
<svg width="40px" height="40px" viewBox="0 0 40 40" version="1.1" xmlns="http://www.w3.org/2000/svg" xmlns:xlink="http://www.w3.org/1999/xlink">
    <!-- Generator: Sketch 43.1 (39012) - http://www.bohemiancoding.com/sketch -->
    <title>Group</title>
    <desc>Created with Sketch.</desc>
    <defs></defs>
    <g id="Page-1" stroke="none" stroke-width="1" fill="none" fill-rule="evenodd">
        <g id="Group" fill-rule="nonzero">
            <g id="003-cube-1" transform="translate(10.188679, 0.000000)" fill="#B70000">
                <path d="M19.6099231,4.99396226 C19.6077428,4.98596785 19.6033823,4.97870021 19.6008386,4.9707058 C19.5932075,4.9481761 19.5848498,4.92637317 19.5728581,4.90602376 C19.567044,4.89584906 19.5590496,4.88712788 19.5521454,4.87731656 C19.5405171,4.86096436 19.5285255,4.84497554 19.5143536,4.83080363 C19.5049057,4.8213557 19.4943676,4.81372467 19.4841929,4.80536688 C19.4743816,4.79737247 19.4660238,4.78828791 19.4554857,4.78138365 C19.4496716,4.77774983 19.4427673,4.77593291 19.4369532,4.77266247 C19.4315024,4.76975542 19.4275052,4.76503145 19.4220545,4.76248777 L9.974116,0.0385185185 C9.97084556,0.0370649895 9.96721174,0.037791754 9.9639413,0.0359748428 C9.91706499,0.0141719078 9.86619147,0 9.81132075,0 C9.75645003,0 9.70557652,0.0141719078 9.65906359,0.0359748428 C9.65579315,0.0374283718 9.65215933,0.0367016073 9.64888889,0.0385185185 L0.200950384,4.76248777 C0.195499651,4.76539483 0.191502446,4.76975542 0.186051712,4.77266247 C0.179874214,4.77593291 0.173333333,4.77774983 0.167519217,4.78138365 C0.15661775,4.78828791 0.14862334,4.79773585 0.13881202,4.80536688 C0.128273934,4.81372467 0.118099231,4.8213557 0.108651293,4.83044025 C0.094479385,4.84461216 0.0824877708,4.86060098 0.0708595388,4.87695318 C0.063955276,4.8867645 0.0559608665,4.89548567 0.0501467505,4.90566038 C0.0381551363,4.92600978 0.0297973445,4.9481761 0.0221663173,4.9707058 C0.0196226415,4.97870021 0.0152620545,4.98560447 0.013081761,4.99396226 C0.00472396925,5.02412299 0,5.05537386 0,5.0873515 L0,16.7155835 C0,16.7177638 0.00109014675,16.7199441 0.00109014675,16.7221244 C0.00109014675,16.729392 0.0036338225,16.7362963 0.00399720475,16.7432006 C0.00690426275,16.7802655 0.0156254368,16.815877 0.02907058,16.8493082 C0.0316142558,16.8551223 0.030524109,16.8616632 0.033431167,16.8674773 C0.036338225,16.8740182 0.0414255765,16.8787421 0.045059399,16.8849196 C0.0541439553,16.9016352 0.0643186583,16.9168973 0.0759468903,16.9321593 C0.0853948288,16.9448777 0.0948427673,16.9572327 0.105744235,16.9681342 C0.118099231,16.9804892 0.131544375,16.9913906 0.145716282,17.0019287 C0.158798043,17.0121034 0.171879804,17.0219147 0.186051712,17.0299092 C0.191502446,17.0328162 0.195499651,17.0375402 0.200950384,17.0400839 L9.64888889,21.7640531 C9.65433962,21.7665968 9.66015374,21.7655066 9.66560447,21.7680503 C9.7121174,21.7891265 9.761174,21.802935 9.81132075,21.802935 C9.86146751,21.802935 9.91052411,21.7891265 9.95703704,21.7684137 C9.96248777,21.76587 9.96866527,21.7669602 9.97375262,21.7644165 L19.4216911,17.0404472 C19.5448777,16.9790356 19.6226415,16.8533054 19.6226415,16.7155835 L19.6226415,5.0873515 C19.6226415,5.05537386 19.6182809,5.02412299 19.6099231,4.99396226 Z M1.3532355,16.258812 C1.2692942,16.0767575 1.05344514,15.9971768 0.871027254,16.0811181 L0.7267645,16.1476171 L0.7267645,5.65531796 L9.4479385,9.68050314 L9.4479385,20.8516003 L1.19661775,16.7257582 C1.36159329,16.6345493 1.43354298,16.4328721 1.3532355,16.258812 Z M9.81132075,1.09014675 C9.93959469,1.09014675 10.0467925,1.02001398 10.1114745,0.919720475 L18.420573,5.07426974 L10.174703,8.87997205 L10.174703,8.721174 C10.174703,8.520587 10.0119078,8.35779175 9.81132075,8.35779175 C9.61073375,8.35779175 9.4479385,8.520587 9.4479385,8.721174 L9.4479385,8.87997205 L1.20206848,5.07426974 L9.51116702,0.919720475 C9.57584906,1.02001398 9.68304682,1.09014675 9.81132075,1.09014675 Z M10.174703,12.922963 L10.7691964,13.1973166 C10.8186164,13.2202096 10.8702166,13.2307477 10.9210901,13.2307477 C11.0584486,13.2307477 11.189993,13.1522572 11.2514046,13.0192593 C11.3353459,12.8372048 11.2557652,12.6209923 11.0737107,12.537051 L10.4138085,12.2325367 C10.3356813,12.1965618 10.2524668,12.1958351 10.174703,12.2154577 L10.174703,9.68050314 L18.895877,5.65531796 L18.895877,16.1476171 L18.3322711,15.8874354 C18.1502166,15.8034941 17.9340042,15.8827114 17.8500629,16.0651293 C17.7657582,16.2471838 17.8453389,16.4630328 18.0277568,16.5473375 L18.420573,16.7286653 L10.174703,20.8516003 L10.174703,12.922963 Z" id="Shape"></path>
                <path d="M6.30250175,14.3379734 C6.35373864,14.3379734 6.40533892,14.3274354 6.45439553,14.3045423 L7.11429769,14.000028 C7.2963522,13.9160867 7.3762963,13.6998742 7.29199161,13.5178197 C7.20805031,13.3357652 6.99183788,13.2561845 6.80978337,13.3401258 L6.1498812,13.6446401 C5.96782669,13.7285814 5.8878826,13.9447939 5.97218728,14.1268484 C6.03359888,14.2598463 6.16514326,14.3379734 6.30250175,14.3379734 Z" id="Shape"></path>
                <path d="M4.32279525,15.2515164 C4.37366876,15.2515164 4.42563242,15.2409783 4.47468903,15.2180853 L5.13459119,14.9135709 C5.3166457,14.8296296 5.39622642,14.6134172 5.31228512,14.4313627 C5.22834382,14.2493082 5.01249476,14.1693641 4.83007687,14.2536688 L4.1701747,14.5581831 C3.9881202,14.6421244 3.90853948,14.8583368 3.99248078,15.0403913 C4.05389238,15.1733892 4.18543676,15.2515164 4.32279525,15.2515164 Z" id="Shape"></path>
                <path d="M2.34308875,16.1654228 C2.39432565,16.1654228 2.44592593,16.1545213 2.49498253,16.1316282 L3.1548847,15.8271139 C3.3369392,15.7431726 3.4168833,15.5269602 3.33257862,15.3449057 C3.24863732,15.1628512 3.03169811,15.0832704 2.85037037,15.1672117 L2.1904682,15.4717261 C2.0084137,15.5556674 1.9284696,15.7718798 2.01277428,15.9539343 C2.07418588,16.0872956 2.20573026,16.1654228 2.34308875,16.1654228 Z" id="Shape"></path>
                <path d="M15.0327603,14.3645003 L14.3728581,14.059986 C14.1908036,13.9760447 13.9745912,14.0556254 13.8906499,14.2376799 C13.8067086,14.4197345 13.8862893,14.6359469 14.0683438,14.7198882 L14.728246,15.0244025 C14.777666,15.0472956 14.8292662,15.0578337 14.8801398,15.0578337 C15.0174983,15.0578337 15.1490426,14.9797065 15.2104542,14.8467086 C15.2943955,14.6646541 15.2151782,14.448805 15.0327603,14.3645003 Z" id="Shape"></path>
                <path d="M17.0124668,15.2784067 L16.3525646,14.9738924 C16.1708735,14.8895877 15.9542977,14.9691684 15.8703564,15.1515863 C15.7860517,15.3336408 15.8656324,15.5494899 16.0480503,15.6337945 L16.7079525,15.9383089 C16.7573725,15.961202 16.8089727,15.97174 16.8598463,15.97174 C16.9972048,15.97174 17.1287491,15.8936129 17.1897973,15.760615 C17.2744654,15.5785604 17.1945213,15.3627114 17.0124668,15.2784067 Z" id="Shape"></path>
                <path d="M13.0530538,13.4513208 L12.3931516,13.1468064 C12.2110971,13.0621384 11.9948847,13.1420825 11.9109434,13.3245003 C11.8266387,13.5065549 11.9062194,13.7224039 12.0886373,13.8067086 L12.7485395,14.1112229 C12.7979595,14.134116 12.8495597,14.1446541 12.9004333,14.1446541 C13.0377918,14.1446541 13.1693361,14.0665269 13.2303843,13.933529 C13.3150524,13.7511111 13.2354717,13.5352621 13.0530538,13.4513208 Z" id="Shape"></path>
                <path d="M8.28220825,13.4240671 C8.33308176,13.4240671 8.38504542,13.413529 8.43410203,13.3906359 L9.09400419,13.0861216 C9.2760587,13.0021803 9.35563941,12.7859679 9.27169811,12.6039133 C9.18739343,12.4218588 8.97190776,12.3419147 8.78948987,12.4262194 L8.1295877,12.7307338 C7.94753319,12.8146751 7.86795248,13.0308875 7.95189378,13.212942 C8.01330538,13.3459399 8.14484976,13.4240671 8.28220825,13.4240671 Z" id="Shape"></path>
                <path d="M9.81132075,3.27044025 C10.0119078,3.27044025 10.174703,3.107645 10.174703,2.907058 L10.174703,2.1802935 C10.174703,1.9797065 10.0119078,1.81691125 9.81132075,1.81691125 C9.61073375,1.81691125 9.4479385,1.9797065 9.4479385,2.1802935 L9.4479385,2.907058 C9.4479385,3.107645 9.61073375,3.27044025 9.81132075,3.27044025 Z" id="Shape"></path>
                <path d="M9.81132075,5.45073375 C10.0119078,5.45073375 10.174703,5.2879385 10.174703,5.0873515 L10.174703,4.360587 C10.174703,4.16 10.0119078,3.99720475 9.81132075,3.99720475 C9.61073375,3.99720475 9.4479385,4.16 9.4479385,4.360587 L9.4479385,5.0873515 C9.4479385,5.2879385 9.61073375,5.45073375 9.81132075,5.45073375 Z" id="Shape"></path>
                <path d="M9.81132075,7.63102725 C10.0119078,7.63102725 10.174703,7.46823201 10.174703,7.267645 L10.174703,6.5408805 C10.174703,6.3402935 10.0119078,6.17749825 9.81132075,6.17749825 C9.61073375,6.17749825 9.4479385,6.3402935 9.4479385,6.5408805 L9.4479385,7.267645 C9.4479385,7.46823201 9.61073375,7.63102725 9.81132075,7.63102725 Z" id="Shape"></path>
            </g>
            <g id="003-cube-1-copy" transform="translate(0.000000, 16.981132)" fill="#000000">
                <path d="M20.3641509,5.18603774 C20.3467925,5.13849057 20.3381132,5.11584906 20.3256604,5.09471698 C20.2920755,5.04792453 20.2796226,5.03132075 20.2649057,5.01660377 C20.2233962,4.98188679 20.214717,4.97245283 20.2037736,4.96528302 C20.1788679,4.95320755 10.3577358,0.04 10.3577358,0.04 C10.2984906,0.0147169811 10.2456604,0 10.1886792,0 C10.1316981,0 10.0788679,0.0147169811 10.030566,0.0373584906 C10.0271698,0.0388679245 0.208679245,4.94566038 0.208679245,4.94566038 C0.162641509,4.97245283 0.154339623,4.98226415 0.144150943,4.99018868 C0.0981132075,5.0309434 0.0856603774,5.04754717 0.0735849057,5.0645283 C0.0396226415,5.1154717 0.0309433962,5.13849057 0.0230188679,5.16188679 C0.00490566038,5.21735849 0,5.24981132 0,5.28301887 L0,17.3584906 C0.00716981132,17.4256604 0.0162264151,17.4626415 0.0301886792,17.4973585 C0.0562264151,17.5516981 0.0667924528,17.5675472 0.0788679245,17.5833962 C0.122641509,17.6335849 0.136603774,17.6449057 0.151320755,17.6558491 C0.198867925,17.6879245 0.203018868,17.6928302 0.208679245,17.6954717 L10.02,22.6011321 C10.0856604,22.6271698 10.1366038,22.6415094 10.1886792,22.6415094 C10.2407547,22.6415094 10.2916981,22.6271698 10.34,22.6056604 C10.3456604,22.6030189 20.1686792,17.6958491 20.1686792,17.6958491 C20.2966038,17.6320755 20.3773585,17.5015094 20.3773585,17.3584906 L20.3773585,5.28301887 C20.3773585,5.24981132 20.3728302,5.21735849 20.3641509,5.18603774 Z M0.754716981,17.0763316 L0.754716981,5.87283019 L9.81132075,10.0528302 L9.81132075,21.6535849 L0.754716981,17.0763316 Z M19.1290566,5.26943396 L10.1886792,9.45472189 L1.24830189,5.26943396 L10.1886792,0.815153302 L19.1290566,5.26943396 Z M10.5660377,10.0528302 L19.6226415,5.87283019 L19.6226415,17.2315374 L10.5660377,21.6535849 L10.5660377,10.0528302 Z" id="Shape"></path>
            </g>
            <g id="003-cube-1-copy-2" transform="translate(19.622642, 16.981132)" fill="#000000">
                <path d="M20.3641509,5.18603774 C20.3467925,5.13849057 20.3381132,5.11584906 20.3256604,5.09471698 C20.2920755,5.04792453 20.2796226,5.03132075 20.2649057,5.01660377 C20.2233962,4.98188679 20.214717,4.97245283 20.2037736,4.96528302 C20.1788679,4.95320755 10.3577358,0.04 10.3577358,0.04 C10.2984906,0.0147169811 10.2456604,0 10.1886792,0 C10.1316981,0 10.0788679,0.0147169811 10.030566,0.0373584906 C10.0271698,0.0388679245 0.208679245,4.94566038 0.208679245,4.94566038 C0.162641509,4.97245283 0.154339623,4.98226415 0.144150943,4.99018868 C0.0981132075,5.0309434 0.0856603774,5.04754717 0.0735849057,5.0645283 C0.0396226415,5.1154717 0.0309433962,5.13849057 0.0230188679,5.16188679 C0.00490566038,5.21735849 0,5.24981132 0,5.28301887 L0,17.3584906 C0.00716981132,17.4256604 0.0162264151,17.4626415 0.0301886792,17.4973585 C0.0562264151,17.5516981 0.0667924528,17.5675472 0.0788679245,17.5833962 C0.122641509,17.6335849 0.136603774,17.6449057 0.151320755,17.6558491 C0.198867925,17.6879245 0.203018868,17.6928302 0.208679245,17.6954717 L10.02,22.6011321 C10.0856604,22.6271698 10.1366038,22.6415094 10.1886792,22.6415094 C10.2407547,22.6415094 10.2916981,22.6271698 10.34,22.6056604 C10.3456604,22.6030189 20.1686792,17.6958491 20.1686792,17.6958491 C20.2966038,17.6320755 20.3773585,17.5015094 20.3773585,17.3584906 L20.3773585,5.28301887 C20.3773585,5.24981132 20.3728302,5.21735849 20.3641509,5.18603774 Z M0.754716981,17.0763316 L0.754716981,5.87283019 L9.81132075,10.0528302 L9.81132075,21.6535849 L0.754716981,17.0763316 Z M19.1290566,5.26943396 L10.1886792,9.45472189 L1.24830189,5.26943396 L10.1886792,0.815153302 L19.1290566,5.26943396 Z M10.5660377,10.0528302 L19.6226415,5.87283019 L19.6226415,17.2315374 L10.5660377,21.6535849 L10.5660377,10.0528302 Z" id="Shape"></path>
            </g>
        </g>
    </g>
</svg>