<?xml version="1.0" encoding="utf-8"?><svg width="478" height="423" viewBox="0 0 478 423" xmlns="http://www.w3.org/2000/svg" xmlns:xlink="http://www.w3.org/1999/xlink"><view id="accessories" viewBox="210 296.5 42 42"/><svg width="42" height="42" viewBox="-5 -5 42 42" x="210" y="296.5"><title>accessories</title><path d="M24.869 2.377l-2.011 1.28-.183 1.097 2.011-1.371zM24.503 4.48l-2.011 1.371-.274 1.189 2.103-1.28zM25.234.274L23.497 0l-.457 2.56 2.011-1.28zM19.383 11.337c-.64 0-1.097.457-1.097 1.097s.457 1.097 1.097 1.097h.091c.274 1.92-1.829 3.749-3.749 3.84-2.194.091-3.109-2.011-3.291-3.84.457-.091.823-.549.823-1.097 0-.64-.457-1.097-1.097-1.097s-1.097.457-1.097 1.097c0 .366.183.64.366.823.183 2.56 1.646 5.394 4.663 5.029 2.56-.366 4.846-2.743 4.206-5.303.091-.183.183-.366.183-.549 0-.64-.457-1.097-1.097-1.097z"/><path d="M27.794 30.903c-.823-3.2-3.2-14.08 0-21.029s0-.091 0-.091V9.6v-.091s0-.091-.091-.091l-2.286-3.017-.274-.274c.274.64.183 1.371-.091 2.011l.731 1.006h-3.2l1.371-.914.183-1.189-2.011 1.28-.091.731h-2.194l1.097-1.646.274-.366-1.646-1.006-3.931-2.469-1.189 1.829 1.097 3.657h-.549l-2.469-7.863-6.309 1.92.823 2.743h-.64c-.274 0-.549.183-.64.366L4.205 9.234V9.781c3.291 9.143.914 18.56.183 21.211-.091.183-.091.457.091.731.091.183.274.274.549.274a.694.694 0 0 0 .457-.183h21.303c.091.091.274.091.366.091.183 0 .457-.091.549-.274.274-.183.183-.457.091-.731zM6.857 7.223h.64l.549 1.646H6.035l.823-1.646zm-.914 23.223c.914-3.566 2.56-11.886-.183-20.114h20.297c-2.56 6.766-.731 16.274.183 20.114H5.943z"/></svg><view id="accessoriesRed" viewBox="135.7 42 34 42"/><svg width="34" height="42" viewBox="-5 -5 34 42" x="135.7" y="42"><title>accessories</title><g fill-rule="nonzero" fill="#B70000"><path d="M20.869 2.377l-2.011 1.28-.183 1.097 2.011-1.371zM20.503 4.48l-2.011 1.371-.274 1.189 2.103-1.28zM21.234.274L19.497 0l-.457 2.56 2.011-1.28zM15.383 11.337c-.64 0-1.097.457-1.097 1.097 0 .64.457 1.097 1.097 1.097h.091c.274 1.92-1.829 3.749-3.749 3.84-2.194.091-3.109-2.011-3.291-3.84.457-.091.823-.549.823-1.097 0-.64-.457-1.097-1.097-1.097-.64 0-1.097.457-1.097 1.097 0 .366.183.64.366.823.183 2.56 1.646 5.394 4.663 5.029 2.56-.366 4.846-2.743 4.206-5.303.091-.183.183-.366.183-.549 0-.64-.457-1.097-1.097-1.097h-.001z"/><path d="M23.794 30.903c-.823-3.2-3.2-14.08 0-21.029v-.365s0-.091-.091-.091l-2.286-3.017-.274-.274c.274.64.183 1.371-.091 2.011l.731 1.006h-3.2l1.371-.914.183-1.189-2.011 1.28-.091.731h-2.194l1.097-1.646.274-.366-1.646-1.006-3.931-2.469-1.189 1.829 1.097 3.657h-.549L8.525 1.188l-6.309 1.92.823 2.743h-.64c-.274 0-.549.183-.64.366L.205 9.234V9.781c3.291 9.143.914 18.56.183 21.211-.091.183-.091.457.091.731.091.183.274.274.549.274a.694.694 0 0 0 .457-.183h21.303c.091.091.274.091.366.091.183 0 .457-.091.549-.274.274-.183.183-.457.091-.731v.003zM2.857 7.223h.64l.549 1.646H2.035l.823-1.646h-.001zm-.914 23.223c.914-3.566 2.56-11.886-.183-20.114h20.297c-2.56 6.766-.731 16.274.183 20.114H1.943z"/></g></svg><view id="archiveRed" viewBox="352 0 42 42"/><svg width="42" height="42" viewBox="-5 -5 42 42" x="352"><title>archiveRed</title><path fill="#950101" d="M31.089 4.87H.896a.874.874 0 0 0-.895.895v4.606c0 .512.384.895.895.895h1.151v15.096c0 .512.384.895.895.895h26.227a.874.874 0 0 0 .895-.895V11.266h1.151c.384 0 .767-.384.767-.895V5.765a.874.874 0 0 0-.895-.895zm-.896 4.605H1.791V6.66H30.32v2.815zm-2.047 15.992H3.838V11.266h24.308v14.201z"/><path fill="#950101" d="M9.723 20.094h12.41a2.02 2.02 0 0 0 2.047-2.047v-2.559a2.02 2.02 0 0 0-2.047-2.047H9.723c-1.023 0-2.047 1.023-2.047 2.047v2.559c0 1.151 1.023 2.047 2.047 2.047zm-.256-4.606c0-.128.128-.256.256-.256h12.41c.128 0 .256.128.256.256v2.559a.275.275 0 0 1-.256.256H9.723a.275.275 0 0 1-.256-.256v-2.559z"/></svg><view id="arrowDown" viewBox="235.7 176 21.1 16"/><svg width="21.1" height="16" viewBox="-5 -5 21.1 16" x="235.7" y="176"><style>.adst0{fill-rule:evenodd;clip-rule:evenodd;fill:#474344}</style><path class="adst0" d="M0 .4L.5 0l5.1 5.1L10.7 0l.4.4L5.6 6z"/></svg><view id="arrowRight" viewBox="461 309.1 16 21.1"/><svg width="16" height="21.1" viewBox="-5 -5 16 21.1" x="461" y="309.1"><style>.aest0{fill-rule:evenodd;clip-rule:evenodd;fill:#474344}</style><path class="aest0" d="M.4 11.1l-.4-.4 5.1-5.1L0 .5.4 0 6 5.6z"/></svg><view id="backArrow" viewBox="352 126 42 42"/><svg width="42" height="42" viewBox="-5 -5 42 42" x="352" y="126"><title>backArrow</title><path d="M10.462 5.292c.492-.492 1.108-.492 1.6 0 .492.369.492 1.108 0 1.6l-8.246 8H30.77c.738 0 1.231.492 1.231 1.108s-.492 1.108-1.108 1.108H3.816l8.123 8c.492.492.492 1.108 0 1.6s-1.108.492-1.6 0L.37 16.739c-.492-.369-.492-1.108 0-1.6l10.092-9.846z"/></svg><view id="backArrowRed" viewBox="352 168 42 34"/><svg width="42" height="34" viewBox="-5 -5 42 34" x="352" y="168"><title>backArrow</title><path d="M10.462 1.292c.492-.492 1.108-.492 1.6 0 .492.369.492 1.108 0 1.6l-8.246 8H30.77c.738 0 1.231.492 1.231 1.108 0 .616-.492 1.108-1.108 1.108H3.816l8.123 8c.492.492.492 1.108 0 1.6s-1.108.492-1.6 0L.37 12.739c-.492-.369-.492-1.108 0-1.6l10.092-9.846v-.001z" fill-rule="nonzero" fill="#B70000"/></svg><view id="backBuy" viewBox="336 380.5 42 42"/><svg width="42" height="42" viewBox="-5 -5 42 42" x="336" y="380.5"><title>backBuy</title><path fill="#f2f2f2" d="M28.2 3.7c-5-5-13.6-5-18.6 0L4 9.3V4H0v12h12v-3.9H7l5.5-5.5c3.4-3.4 9.5-3.4 12.9 0 1.7 1.7 2.7 4 2.7 6.5 0 2.4-.9 4.6-2.7 6.4l-3 3 2.8 2.8 3-3c2.5-2.5 3.8-5.8 3.8-9.2 0-3.6-1.4-6.9-3.8-9.4zM18.4 32l-2.8-2.8 2.8-2.9 2.9 2.9z"/></svg><view id="box" viewBox="96 108.9 26 26"/><svg width="26" height="26" viewBox="-5 -5 26 26" x="96" y="108.9"><path d="M8.8 6.2V16l7.2-2.8V3.4zM0 13.2L7.2 16V6.2L0 3.4zM8 0L1.6 2.2 8 4.8l6.4-2.6z"/></svg><view id="carouselNext" viewBox="259.7 121 29.8 46.9"/><svg width="29.8" height="46.9" viewBox="-5 -5 29.8 46.9" x="259.7" y="121"><style>.ajst0{fill-rule:evenodd;clip-rule:evenodd;fill:#fff}</style><path class="ajst0" d="M1 36.9l-1-1 17.8-17.4L0 1l1-1 18.8 18.5z"/></svg><view id="carouselNextHover" viewBox="259.7 74.1 29.8 46.9"/><svg width="29.8" height="46.9" viewBox="-5 -5 29.8 46.9" x="259.7" y="74.1"><style>.akst0{fill-rule:evenodd;clip-rule:evenodd;fill:#b5b5b5}</style><path class="akst0" d="M1 36.9l-1-1 17.8-17.4L0 1l1-1 18.8 18.5z"/></svg><view id="carouselPrev" viewBox="259.7 167.9 29.8 46.9"/><svg width="29.8" height="46.9" viewBox="-5 -5 29.8 46.9" x="259.7" y="167.9"><style>.alst0{fill-rule:evenodd;clip-rule:evenodd;fill:#fff}</style><path class="alst0" d="M18.9 36.9l.9-1L2 18.5 19.8 1l-.9-1L0 18.5z"/></svg><view id="carouselPrevHover" viewBox="170 66.9 29.8 46.9"/><svg width="29.8" height="46.9" viewBox="-5 -5 29.8 46.9" x="170" y="66.9"><style>.amst0{fill-rule:evenodd;clip-rule:evenodd;fill:#b5b5b5}</style><path class="amst0" d="M18.9 36.9l.9-1L2 18.5 19.8 1l-.9-1L0 18.5z"/></svg><view id="cart" viewBox="0 204.7 43 49.8"/><svg width="43" height="49.8" viewBox="-5 -5 43 49.8" y="204.7"><style>.anst0{fill-rule:evenodd;clip-rule:evenodd;fill:#474344}</style><path class="anst0" d="M21.4 11.4c.4 0 .8-.4.8-.8s-.4-.8-.8-.8H10.7c-.4 0-.8.4-.8.8s.4.8.8.8h10.7z"/><path class="anst0" d="M32.2 9.8h-5.3c-.4 0-.8.4-.8.8s.4.8.8.8h4.5v26.9H1.6V11.4h4.3c.4 0 .8-.4.8-.8s-.4-.8-.8-.8H.8c-.4 0-.8.4-.8.8v28.5c0 .4.4.8.8.8h31.4c.4 0 .8-.4.8-.8V10.6c0-.4-.4-.8-.8-.8"/><path class="anst0" d="M24.1 13.2c.4 0 .8-.4.8-.8V6.6C24.9 3 21 0 16.2 0c-4.7 0-8.6 3-8.6 6.6v5.8c0 .4.4.8.8.8s.8-.4.8-.8V6.6c0-2.8 3.2-5 7.1-5 3.9 0 7 2.2 7 5v5.8c0 .4.4.8.8.8M6.4 14.4c0 1.1.9 2 2 2s2-.9 2-2c0-.4-.4-.8-.8-.8s-.7.4-.7.8c0 .3-.2.5-.4.5s-.4-.2-.4-.5c0-.4-.4-.8-.8-.8-.5 0-.9.4-.9.8M24.1 16.5c1.1 0 2-.9 2-2 0-.4-.4-.8-.8-.8s-.8.4-.8.8c0 .3-.2.5-.4.5s-.4-.2-.4-.5c0-.4-.4-.8-.8-.8s-.8.4-.8.8c0 1.1.9 2 2 2"/></svg><view id="cartBlack" viewBox="43 204.7 43 49.8"/><svg width="43" height="49.8" viewBox="-5 -5 43 49.8" x="43" y="204.7"><style>.aost0{fill-rule:evenodd;clip-rule:evenodd;fill:#424242}</style><path class="aost0" d="M21.4 11.4c.4 0 .8-.4.8-.8s-.4-.8-.8-.8H10.7c-.4 0-.8.4-.8.8s.4.8.8.8h10.7z"/><path class="aost0" d="M32.2 9.8h-5.3c-.4 0-.8.4-.8.8s.4.8.8.8h4.5v26.9H1.6V11.4h4.3c.4 0 .8-.4.8-.8s-.4-.8-.8-.8H.8c-.4 0-.8.4-.8.8v28.5c0 .4.4.8.8.8h31.4c.4 0 .8-.4.8-.8V10.6c0-.4-.4-.8-.8-.8"/><path class="aost0" d="M24.1 13.2c.4 0 .8-.4.8-.8V6.6C24.9 3 21 0 16.2 0c-4.7 0-8.6 3-8.6 6.6v5.8c0 .4.4.8.8.8s.8-.4.8-.8V6.6c0-2.8 3.2-5 7.1-5 3.9 0 7 2.2 7 5v5.8c0 .4.4.8.8.8M6.4 14.4c0 1.1.9 2 2 2s2-.9 2-2c0-.4-.4-.8-.8-.8s-.7.4-.7.8c0 .3-.2.5-.4.5s-.4-.2-.4-.5c0-.4-.4-.8-.8-.8-.5 0-.9.4-.9.8M24.1 16.5c1.1 0 2-.9 2-2 0-.4-.4-.8-.8-.8s-.8.4-.8.8c0 .3-.2.5-.4.5s-.4-.2-.4-.5c0-.4-.4-.8-.8-.8s-.8.4-.8.8c0 1.1.9 2 2 2"/></svg><view id="cartOrder" viewBox="352 202 42 42"/><svg width="42" height="42" viewBox="-5 -5 42 42" x="352" y="202"><title>cartOrder</title><path fill="#fff" d="M19.92 9.12c.32 0 .64-.32.64-.64s-.32-.64-.64-.64h-8.56c-.32 0-.64.32-.64.64s.32.64.64.64h8.56z"/><path fill="#fff" d="M28.56 7.84h-4.24c-.32 0-.64.32-.64.64s.32.64.64.64h3.6v21.52H4.08V9.12h3.44c.32 0 .64-.32.64-.64s-.32-.64-.64-.64H3.44c-.32 0-.64.32-.64.64v22.8c0 .32.32.64.64.64h25.12c.32 0 .64-.32.64-.64V8.48c0-.32-.32-.64-.64-.64z"/><path fill="#fff" d="M22.08 10.56c.32 0 .64-.32.64-.64V5.28C22.72 2.4 19.6 0 15.76 0 12 0 8.88 2.4 8.88 5.28v4.64c0 .32.32.64.64.64s.64-.32.64-.64V5.28c0-2.24 2.56-4 5.68-4s5.6 1.76 5.6 4v4.64c0 .32.32.64.64.64zM7.92 11.52c0 .88.72 1.6 1.6 1.6s1.6-.72 1.6-1.6c0-.32-.32-.64-.64-.64s-.56.32-.56.64c0 .24-.16.4-.32.4s-.32-.16-.32-.4c0-.32-.32-.64-.64-.64-.4 0-.72.32-.72.64zM22.08 13.2c.88 0 1.6-.72 1.6-1.6 0-.32-.32-.64-.64-.64s-.64.32-.64.64c0 .24-.16.4-.32.4s-.32-.16-.32-.4c0-.32-.32-.64-.64-.64s-.64.32-.64.64c0 .88.72 1.6 1.6 1.6zM24.08 16.72L22 14.88c-.08-.08-.16-.08-.24-.08s-.16.08-.24.08L14 23.6 11.36 20c-.08-.08-.16-.08-.24-.16-.08 0-.16 0-.24.08L8.64 21.6c-.16.08-.16.32-.08.48l4.96 6.64c.08.08.16.16.24.16.08 0 .16-.08.24-.08l10.08-11.6c.16-.16.16-.32 0-.48z"/></svg><view id="cartRed" viewBox="352 286 37 42"/><svg width="37" height="42" viewBox="-5 -5 37 42" x="352" y="286"><title>cartRed</title><path fill="#b70000" d="M17 9c0-.5-.228-1-.455-1h-6.09C10.227 8 10 8.5 10 9s.228 1 .455 1h6.09c.228 0 .455-.5.455-1z"/><path fill="#b70000" d="M21.002 9c.002 1 .998 1 .998 1h3v20H2V10h3s1 0 1-1-.845-1-1.172-1H.655C.328 8 0 8.319 0 8.638v22.724c0 .319.327.638.655.638h25.691c.327 0 .655-.319.655-.638V8.638c0-.319-.327-.638-.655-.638h-4.255C21.795 8 21 8 21.002 9z"/><path fill="#b70000" d="M20 5.067C20 2.303 17.198 0 13.5 0 10.059 0 7 2.303 7 5.067v4.181c0 .307.485.751 1 .751.556 0 1.028-.444 1-.751V5.067c.028-2.15 1.66-3.074 4.5-3.067 3.022-.008 4.488.917 4.5 3v4s0 .999 1 .999S20 9 20 9V5.067zM20.5 11.667c0-.381-.3-.667-.6-.667s-.6.286-.6.572c0 .214-.15.357-.3.357s-.3-.143-.3-.357c0-.286-.3-.572-.6-.572s-.6.286-.6.572c0 .786.675 1.428 1.5 1.428s1.5-.643 1.5-1.333zM9.5 11.667c0-.381-.3-.667-.6-.667s-.6.286-.6.572c0 .214-.15.357-.3.357s-.3-.143-.3-.357c0-.286-.3-.572-.6-.572s-.6.286-.6.572C6.5 12.358 7.175 13 8 13s1.5-.643 1.5-1.333z"/></svg><view id="cartRedActive" viewBox="268 254.5 37 42"/><svg width="37" height="42" viewBox="-5 -5 37 42" x="268" y="254.5"><title>cartRedActive</title><path fill="#6b0000" d="M17 9c0-.5-.228-1-.455-1h-6.09C10.227 8 10 8.5 10 9s.228 1 .455 1h6.09c.228 0 .455-.5.455-1z"/><path fill="#6b0000" d="M21.002 9c.002 1 .998 1 .998 1h3v20H2V10h3s1 0 1-1-.845-1-1.172-1H.655C.328 8 0 8.319 0 8.638v22.724c0 .319.327.638.655.638h25.691c.327 0 .655-.319.655-.638V8.638c0-.319-.327-.638-.655-.638h-4.255C21.795 8 21 8 21.002 9z"/><path fill="#6b0000" d="M20 5.067C20 2.303 17.198 0 13.5 0 10.059 0 7 2.303 7 5.067v4.181c0 .307.485.751 1 .751.556 0 1.028-.444 1-.751V5.067c.028-2.15 1.66-3.074 4.5-3.067 3.022-.008 4.488.917 4.5 3v4s0 .999 1 .999S20 9 20 9V5.067zM20.5 11.667c0-.381-.3-.667-.6-.667s-.6.286-.6.572c0 .214-.15.357-.3.357s-.3-.143-.3-.357c0-.286-.3-.572-.6-.572s-.6.286-.6.572c0 .786.675 1.428 1.5 1.428s1.5-.643 1.5-1.333zM9.5 11.667c0-.381-.3-.667-.6-.667s-.6.286-.6.572c0 .214-.15.357-.3.357s-.3-.143-.3-.357c0-.286-.3-.572-.6-.572s-.6.286-.6.572C6.5 12.358 7.175 13 8 13s1.5-.643 1.5-1.333z"/></svg><view id="cartRedHover" viewBox="0 338.5 37 42"/><svg width="37" height="42" viewBox="-5 -5 37 42" y="338.5"><title>cartRedHover</title><path fill="#ff3838" d="M17 9c0-.5-.228-1-.455-1h-6.09C10.227 8 10 8.5 10 9s.228 1 .455 1h6.09c.228 0 .455-.5.455-1z"/><path fill="#ff3838" d="M21.002 9c.002 1 .998 1 .998 1h3v20H2V10h3s1 0 1-1-.845-1-1.172-1H.655C.328 8 0 8.319 0 8.638v22.724c0 .319.327.638.655.638h25.691c.327 0 .655-.319.655-.638V8.638c0-.319-.327-.638-.655-.638h-4.255C21.795 8 21 8 21.002 9z"/><path fill="#ff3838" d="M20 5.067C20 2.303 17.198 0 13.5 0 10.059 0 7 2.303 7 5.067v4.181c0 .307.485.751 1 .751.556 0 1.028-.444 1-.751V5.067c.028-2.15 1.66-3.074 4.5-3.067 3.022-.008 4.488.917 4.5 3v4s0 .999 1 .999S20 9 20 9V5.067zM20.5 11.667c0-.381-.3-.667-.6-.667s-.6.286-.6.572c0 .214-.15.357-.3.357s-.3-.143-.3-.357c0-.286-.3-.572-.6-.572s-.6.286-.6.572c0 .786.675 1.428 1.5 1.428s1.5-.643 1.5-1.333zM9.5 11.667c0-.381-.3-.667-.6-.667s-.6.286-.6.572c0 .214-.15.357-.3.357s-.3-.143-.3-.357c0-.286-.3-.572-.6-.572s-.6.286-.6.572C6.5 12.358 7.175 13 8 13s1.5-.643 1.5-1.333z"/></svg><view id="cartWhite" viewBox="79 338.5 37 42"/><svg width="37" height="42" viewBox="-5 -5 37 42" x="79" y="338.5"><title>cartWhite</title><g fill="#FFF" fill-rule="evenodd"><path d="M17 9c0-.5-.228-1-.455-1h-6.09C10.227 8 10 8.5 10 9s.228 1 .455 1h6.09c.228 0 .455-.5.455-1z"/><path d="M21.002 9c.002 1 .998 1 .998 1h3v20H2V10h3s1 0 1-1-.845-1-1.172-1H.655C.328 8 0 8.319 0 8.638v22.724c0 .319.327.638.655.638h25.691c.327 0 .655-.319.655-.638V8.638c0-.319-.327-.638-.655-.638h-4.255C21.795 8 21 8 21.002 9z"/><path d="M20 5.067C20 2.303 17.198 0 13.5 0 10.059 0 7 2.303 7 5.067v4.181c0 .307.485.751 1 .751.556 0 1.028-.444 1-.751V5.067c.028-2.15 1.66-3.074 4.5-3.067 3.022-.008 4.488.917 4.5 3v4s0 .999 1 .999S20 9 20 9V5.067zM20.5 11.667c0-.381-.3-.667-.6-.667s-.6.286-.6.572c0 .214-.15.357-.3.357s-.3-.143-.3-.357c0-.286-.3-.572-.6-.572s-.6.286-.6.572c0 .786.675 1.428 1.5 1.428s1.5-.643 1.5-1.333zM9.5 11.667c0-.381-.3-.667-.6-.667s-.6.286-.6.572c0 .214-.15.357-.3.357s-.3-.143-.3-.357c0-.286-.3-.572-.6-.572s-.6.286-.6.572C6.5 12.358 7.175 13 8 13s1.5-.643 1.5-1.333z"/></g></svg><view id="catalog" viewBox="200 338.5 42 42"/><svg width="42" height="42" viewBox="-5 -5 42 42" x="200" y="338.5"><title>catalog</title><path fill="#fff" d="M3.98 29.453h.159c.159 0 .478-.159.637-.318 0 0 .159-.159.159-.318.159-.159.159-.318.159-.478v-.159c0-.637-.478-1.114-1.114-1.114h-.159c-.318 0-.637.159-.796.318s-.159.318-.318.478v.318c0 .318.159.478.159.637.478.478.796.637 1.114.637z"/><path fill="#fff" d="M32.159 22.448l-2.229-6.209c-.159-.478-.637-.637-.955-.478l-7.483 2.706 6.05-6.05c.159-.159.159-.318.159-.637 0-.159-.159-.478-.159-.637l-4.617-4.617a.77.77 0 0 0-1.114 0l-6.05 6.05 3.343-7.801v-.637c-.159-.159-.159-.318-.478-.478l-6.05-2.547c-.478-.159-.955 0-1.274.478L7.959 9.233V1.114c0-.478 0-1.114-.478-1.114H.476C.158 0-.002.637-.002 1.114v30.249c0 .318.159.478.478.478h6.846c.159 0 .159.159.318 0 .159 0 .159.159.318.159h.318l23.403-8.597c.478-.159.637-.637.478-.955zM1.592 1.592h4.776v28.657H1.592zM7.96 26.269V13.373l4.617-10.507 4.617 1.91-4.458 10.826-1.592 3.821-1.433 3.343-.955 2.07-.796 1.433zm3.025-2.229l.796-2.07 2.388-5.572 8.119-7.96 3.503 3.502-10.667 10.667-6.209 6.05 2.07-4.617zm-.637 5.572l8.438-8.438 9.871-3.662 1.751 4.776-20.06 7.323z"/></svg><view id="catalogRed" viewBox="394 0 42 42"/><svg width="42" height="42" viewBox="-5 -5 42 42" x="394"><title>catalogRed</title><path fill="#b70000" d="M3.81 28.19h.152c.152 0 .457-.152.61-.305 0 0 .152-.152.152-.305.152-.152.152-.305.152-.457v-.152c0-.61-.457-1.067-1.067-1.067h-.152c-.305 0-.61.152-.762.305s-.152.305-.305.457v.305c0 .305.152.457.152.61.457.457.762.61 1.067.61z"/><path fill="#b70000" d="M30.781 21.486l-2.133-5.943c-.152-.457-.61-.61-.914-.457l-7.162 2.59 5.79-5.79c.152-.152.152-.305.152-.61 0-.152-.152-.457-.152-.61l-4.419-4.419a.737.737 0 0 0-1.067 0l-5.79 5.79 3.2-7.467v-.61c-.152-.152-.152-.305-.457-.457l-5.79-2.438c-.457-.152-.914 0-1.219.457l-3.2 7.314V1.065c0-.457 0-1.067-.457-1.067H.458c-.305 0-.457.61-.457 1.067v28.952c0 .305.152.457.457.457H7.01c.152 0 .152.152.305 0 .152 0 .152.152.305.152h.305l22.4-8.229c.457-.152.61-.61.457-.914zM1.524 1.524h4.571v27.429H1.524V1.524zm6.095 23.619V12.8l4.419-10.057 4.419 1.829-4.267 10.362-1.524 3.657-1.371 3.2-.914 1.981-.762 1.371zm2.895-2.133l.762-1.981 2.286-5.333 7.771-7.619 3.352 3.352-10.21 10.21-5.943 5.79 1.981-4.419zm-.609 5.333l8.076-8.076 9.448-3.505 1.676 4.571-19.2 7.01z"/></svg><view id="catalogRedActive" viewBox="394 42 42 42"/><svg width="42" height="42" viewBox="-5 -5 42 42" x="394" y="42"><title>catalogRedActive</title><path fill="#6b0000" d="M3.81 28.19h.152c.152 0 .457-.152.61-.305 0 0 .152-.152.152-.305.152-.152.152-.305.152-.457v-.152c0-.61-.457-1.067-1.067-1.067h-.152c-.305 0-.61.152-.762.305s-.152.305-.305.457v.305c0 .305.152.457.152.61.457.457.762.61 1.067.61z"/><path fill="#6b0000" d="M30.781 21.486l-2.133-5.943c-.152-.457-.61-.61-.914-.457l-7.162 2.59 5.79-5.79c.152-.152.152-.305.152-.61 0-.152-.152-.457-.152-.61l-4.419-4.419a.737.737 0 0 0-1.067 0l-5.79 5.79 3.2-7.467v-.61c-.152-.152-.152-.305-.457-.457l-5.79-2.438c-.457-.152-.914 0-1.219.457l-3.2 7.314V1.065c0-.457 0-1.067-.457-1.067H.458c-.305 0-.457.61-.457 1.067v28.952c0 .305.152.457.457.457H7.01c.152 0 .152.152.305 0 .152 0 .152.152.305.152h.305l22.4-8.229c.457-.152.61-.61.457-.914zM1.524 1.524h4.571v27.429H1.524V1.524zm6.095 23.619V12.8l4.419-10.057 4.419 1.829-4.267 10.362-1.524 3.657-1.371 3.2-.914 1.981-.762 1.371zm2.895-2.133l.762-1.981 2.286-5.333 7.771-7.619 3.352 3.352-10.21 10.21-5.943 5.79 1.981-4.419zm-.609 5.333l8.076-8.076 9.448-3.505 1.676 4.571-19.2 7.01z"/></svg><view id="catalogRedHover" viewBox="394 84 42 42"/><svg width="42" height="42" viewBox="-5 -5 42 42" x="394" y="84"><title>catalogRedHover</title><path fill="#ff3838" d="M3.81 28.19h.152c.152 0 .457-.152.61-.305 0 0 .152-.152.152-.305.152-.152.152-.305.152-.457v-.152c0-.61-.457-1.067-1.067-1.067h-.152c-.305 0-.61.152-.762.305s-.152.305-.305.457v.305c0 .305.152.457.152.61.457.457.762.61 1.067.61z"/><path fill="#ff3838" d="M30.781 21.486l-2.133-5.943c-.152-.457-.61-.61-.914-.457l-7.162 2.59 5.79-5.79c.152-.152.152-.305.152-.61 0-.152-.152-.457-.152-.61l-4.419-4.419a.737.737 0 0 0-1.067 0l-5.79 5.79 3.2-7.467v-.61c-.152-.152-.152-.305-.457-.457l-5.79-2.438c-.457-.152-.914 0-1.219.457l-3.2 7.314V1.065c0-.457 0-1.067-.457-1.067H.458c-.305 0-.457.61-.457 1.067v28.952c0 .305.152.457.457.457H7.01c.152 0 .152.152.305 0 .152 0 .152.152.305.152h.305l22.4-8.229c.457-.152.61-.61.457-.914zM1.524 1.524h4.571v27.429H1.524V1.524zm6.095 23.619V12.8l4.419-10.057 4.419 1.829-4.267 10.362-1.524 3.657-1.371 3.2-.914 1.981-.762 1.371zm2.895-2.133l.762-1.981 2.286-5.333 7.771-7.619 3.352 3.352-10.21 10.21-5.943 5.79 1.981-4.419zm-.609 5.333l8.076-8.076 9.448-3.505 1.676 4.571-19.2 7.01z"/></svg><view id="check" viewBox="394 294 42 42"/><svg width="42" height="42" viewBox="-5 -5 42 42" x="394" y="294"><title>check</title><path fill="#999" d="M7.467 29.867c-2.824 0-5.333-2.509-5.333-5.333V7.467c0-2.824 2.509-5.333 5.333-5.333h17.067c2.824 0 5.333 2.509 5.333 5.333v17.067c0 2.824-2.509 5.333-5.333 5.333H7.467zM32 24.533V7.466c0-4.002-3.464-7.467-7.467-7.467H7.466c-4.002 0-7.467 3.464-7.467 7.467v17.067C-.001 28.535 3.463 32 7.466 32h17.067C28.535 32 32 28.536 32 24.533z"/></svg><view id="checkGreen" viewBox="42 380.5 42 42"/><svg width="42" height="42" viewBox="-5 -5 42 42" x="42" y="380.5"><title>checkGreen</title><path fill="#39b54a" d="M31.84 5.6l-4.32-3.84c-.16-.16-.32-.16-.48-.16s-.32.16-.48.16L11.2 19.68l-5.44-7.36c-.16-.16-.32-.32-.48-.32s-.32 0-.48.16L.32 15.52c-.32.32-.48.64-.16.96l10.08 13.6c.16.16.32.32.48.32.16 0 .32-.16.48-.16L31.84 6.56c.16-.32.16-.8 0-.96z"/></svg><view id="checked" viewBox="84 380.5 42 42"/><svg width="42" height="42" viewBox="-5 -5 42 42" x="84" y="380.5"><title>checked</title><path fill="#666" d="M7.467 29.867c-2.824 0-5.333-2.509-5.333-5.333V7.467c0-2.824 2.509-5.333 5.333-5.333h17.067c2.824 0 5.333 2.509 5.333 5.333v17.067c0 2.824-2.509 5.333-5.333 5.333H7.467zM32 24.533V7.466c0-4.002-3.464-7.467-7.467-7.467H7.466c-4.002 0-7.467 3.464-7.467 7.467v17.067C-.001 28.535 3.463 32 7.466 32h17.067C28.535 32 32 28.536 32 24.533z"/><path fill="#666" d="M21.333 15.36a5.333 5.333 0 1 1-10.666 0 5.333 5.333 0 0 1 10.666 0z"/></svg><view id="clock" viewBox="126 380.5 42 42"/><svg width="42" height="42" viewBox="-5 -5 42 42" x="126" y="380.5"><title>clock</title><path d="M16.853.533C11.2.533 6.186 3.626 3.626 8.213L-.001 4.586v10.453h10.453l-4.587-4.587c2.133-3.947 6.08-6.72 10.987-6.72 6.507 0 11.947 5.44 11.947 11.947s-5.44 11.947-11.947 11.947c-5.227 0-9.6-3.307-11.307-8H2.132c1.813 6.4 7.68 11.2 14.72 11.2 8.427 0 15.147-6.827 15.147-15.147S25.172.532 16.852.532zm-2.453 8v8.107l7.573 4.48 1.28-2.027-6.4-3.84v-6.72H14.4z"/></svg><view id="clockWhite" viewBox="168 380.5 42 42"/><svg width="42" height="42" viewBox="-5 -5 42 42" x="168" y="380.5"><title>clockWhite</title><path fill="#f2f2f2" d="M16.853 1.067c-5.653 0-10.667 3.093-13.227 7.68L-.001 5.12v10.453h10.453l-4.587-4.587c2.133-3.947 6.08-6.72 10.987-6.72 6.507 0 11.947 5.44 11.947 11.947S23.359 28.16 16.852 28.16c-5.227 0-9.6-3.307-11.307-8H2.132c1.813 6.4 7.68 11.2 14.72 11.2 8.427 0 15.147-6.827 15.147-15.147S25.172 1.066 16.852 1.066zm-2.453 8v8.107l7.573 4.48 1.28-2.027-6.4-3.84v-6.72H14.4z"/></svg><view id="close" viewBox="210 380.5 42 42"/><svg width="42" height="42" viewBox="-5 -5 42 42" x="210" y="380.5"><title>close</title><path fill="#d5d5d5" d="M32 1.813L30.187 0 16 14.187 1.813 0 0 1.813 14.187 16 0 30.187 1.813 32 16 17.813 30.187 32 32 30.187 17.813 16z"/></svg><view id="closeRed" viewBox="252 380.5 42 42"/><svg width="42" height="42" viewBox="-5 -5 42 42" x="252" y="380.5"><title>closeRed</title><path fill="#c1272d" d="M32 1.813L30.187 0 16 14.187 1.813 0 0 1.813 14.187 16 0 30.187 1.813 32 16 17.813 30.187 32 32 30.187 17.813 16z"/></svg><view id="description" viewBox="294 380.5 42 42"/><svg width="42" height="42" viewBox="-5 -5 42 42" x="294" y="380.5"><title>description</title><path d="M31.877 11.2l-6.154-2.831c-.369-.123-.492.123-.492.123l-5.908 12.554v.369l1.231 5.538c0 .123.123.123.246.123l5.046-2.585a.265.265 0 0 0 .246-.246L32 11.691c0-.123.123-.369-.123-.492zm-7.754 13.046c-.123 0-.246.123-.369.123 0 0-1.354.738-1.969.985-.246.123-.738-.123-.862-.369-.123-.615-.492-2.215-.492-2.215 0-.123 0-.246-.123-.369 0-.246 0-.369.246-.246.123 0 .246.123.369.123l2.831 1.354c.123 0 .246.123.369.123.246.123.369.369 0 .492z"/><path d="M29.046 21.292c-.246.492-.615 1.231-.862 1.969-.123.246-.246.369-.246.985v5.908c0 .246-.246.492-.492.492H1.969c-.246 0-.492-.246-.492-.492V1.969c0-.246.246-.492.492-.492h25.6c.246 0 .492.246.492.492V6.4c0 .246.123.492.246.492.246.123.615.246.862.369.123 0 .369-.123.369-.492V1.846a1.944 1.944 0 0 0-1.969-1.969h-25.6C.861 0 0 .862 0 1.969v28.185C0 31.139.862 32 1.969 32h25.6a1.944 1.944 0 0 0 1.969-1.969v-8.615c-.123-.369-.369-.246-.492-.123z"/><path d="M22.4 9.969v-.738c0-.246-.123-.369-.369-.369H6.277c-.246 0-.369.123-.369.369v.738c0 .246.123.369.369.369h15.754c.123 0 .369-.123.369-.369zM19.323 16.369v-.738c0-.246-.123-.369-.369-.369H6.277c-.246 0-.369.123-.369.369v.738c0 .246.123.369.369.369h12.677c.246 0 .369-.246.369-.369zM7.631 25.477a.265.265 0 0 0-.246.246v.862c0 .123.123.246.246.246h10.831a.265.265 0 0 0 .246-.246v-.738a.265.265 0 0 0-.246-.246H7.631z"/></svg><view id="descriptionRed" viewBox="308 168 43 43"/><svg width="43" height="43" viewBox="-5 -5 43 43" x="308" y="168"><title>description</title><g fill-rule="nonzero" fill="#B70000"><path d="M31.877 12.2l-6.154-2.831c-.369-.123-.492.123-.492.123l-5.908 12.554v.369l1.231 5.538c0 .123.123.123.246.123l5.046-2.585a.265.265 0 0 0 .246-.246L32 12.691c0-.123.123-.369-.123-.492v.001zm-7.754 13.046c-.123 0-.246.123-.369.123 0 0-1.354.738-1.969.985-.246.123-.738-.123-.862-.369-.123-.615-.492-2.215-.492-2.215 0-.123 0-.246-.123-.369 0-.246 0-.369.246-.246.123 0 .246.123.369.123l2.831 1.354c.123 0 .246.123.369.123.246.123.369.369 0 .492v-.001z"/><path d="M29.046 22.292c-.246.492-.615 1.231-.862 1.969-.123.246-.246.369-.246.985v5.908c0 .246-.246.492-.492.492H1.969c-.246 0-.492-.246-.492-.492V2.969c0-.246.246-.492.492-.492h25.6c.246 0 .492.246.492.492V7.4c0 .246.123.492.246.492.246.123.615.246.862.369.123 0 .369-.123.369-.492V2.846A1.944 1.944 0 0 0 27.569.877h-25.6C.861 1 0 1.862 0 2.969v28.185C0 32.139.862 33 1.969 33h25.6a1.944 1.944 0 0 0 1.969-1.969v-8.615c-.123-.369-.369-.246-.492-.123v-.001z"/><path d="M22.4 10.969v-.738c0-.246-.123-.369-.369-.369H6.277c-.246 0-.369.123-.369.369v.738c0 .246.123.369.369.369h15.754c.123 0 .369-.123.369-.369zM19.323 17.369v-.738c0-.246-.123-.369-.369-.369H6.277c-.246 0-.369.123-.369.369v.738c0 .246.123.369.369.369h12.677c.246 0 .369-.246.369-.369zM7.631 26.477a.265.265 0 0 0-.246.246v.862c0 .123.123.246.246.246h10.831a.265.265 0 0 0 .246-.246v-.738a.265.265 0 0 0-.246-.246H7.631v-.124z"/></g></svg><view id="edit" viewBox="209.7 176 26 26"/><svg width="26" height="26" viewBox="-5 -5 26 26" x="209.7" y="176"><path d="M.7 12.4L0 16l3.6-.7 9.6-9.6-2.9-2.9-9.6 9.6zm2.5 2.2L1 15l.4-2.2 8.9-8.9 1.8 1.8-8.9 8.9zM13.1 0l-2.2 2.2 2.9 2.9L16 2.9 13.1 0zm-1 2.2l1.1-1.1L15 2.9 13.9 4l-1.8-1.8z"/></svg><view id="export" viewBox="176.3 204.7 26 26"/><svg width="26" height="26" viewBox="-5 -5 26 26" x="176.3" y="204.7"><path d="M9.7 0c-.2 0-.3.2-.3.4s.2.4.4.4h5L6.3 9.2c-.1.1-.1.4 0 .5.1.1.2.1.3.1.1 0 .2 0 .3-.1l8.5-8.5v5c0 .2.2.4.4.4s.4-.2.4-.4V0H9.7z"/><path d="M12.5 15.3H.7V3.5h8.9v-.7H0V16h13.2V6.4h-.7z"/></svg><view id="eyeRed" viewBox="84 296.5 42 42"/><svg width="42" height="42" viewBox="-5 -5 42 42" x="84" y="296.5"><title>eyeRed</title><path fill="#b70000" d="M31.36 14.933c-.107-.107-1.6-2.027-4.267-3.947-3.52-2.667-7.36-4.053-11.093-4.053S8.32 8.32 4.8 10.88C2.133 12.907.64 14.827.533 14.933l-.533.64.533.747c.107.107 1.6 2.027 4.267 3.947 3.52 2.56 7.36 3.947 11.2 3.947 3.733 0 7.573-1.387 11.2-3.947 2.667-1.92 4.16-3.84 4.267-3.947l.533-.747-.64-.64zm-5.653 3.52c-2.24 1.6-5.653 3.52-9.813 3.52s-7.573-1.92-9.813-3.52c-1.493-1.067-2.667-2.24-3.307-2.88.64-.64 1.813-1.813 3.307-2.88 2.24-1.6 5.653-3.52 9.813-3.52s7.573 1.92 9.813 3.52c1.493 1.067 2.667 2.24 3.307 2.88-.64.747-1.707 1.813-3.307 2.88z"/><path fill="#b70000" d="M16 10.88c-1.173 0-2.24.427-2.987 1.067.64.213 1.173.747 1.173 1.493 0 .853-.747 1.6-1.6 1.6-.427 0-.853-.213-1.173-.533-.107.32-.107.747-.107 1.067 0 2.667 2.133 4.693 4.693 4.693 2.667 0 4.693-2.133 4.693-4.693s-2.133-4.693-4.693-4.693z"/></svg><view id="fancyClose" viewBox="436 168 40 40"/><svg width="40" height="40" viewBox="-5 -5 40 40" x="436" y="168"><style>.bkst0{enable-background:new}.bkst1{fill:#474344}</style><g class="bkst0"><path class="bkst1" d="M30 1.7L28.3 0 15 13.3 1.7 0 0 1.7 13.3 15 0 28.3 1.7 30 15 16.7 28.3 30l1.7-1.7L16.7 15z" id="bkcross_1_"/></g></svg><view id="fancyNext" viewBox="96 42 39.7 66.9"/><svg width="39.7" height="66.9" viewBox="-5 -5 39.7 66.9" x="96" y="42"><style>.blst0{fill-rule:evenodd;clip-rule:evenodd;fill:#474344;enable-background:new}</style><path class="blst0" d="M1.5 56.9L0 55.3l26.7-26.9L0 1.6 1.5 0l28.2 28.4z"/></svg><view id="fancyPrev" viewBox="170 0 39.7 66.9"/><svg width="39.7" height="66.9" viewBox="-5 -5 39.7 66.9" x="170"><style>.bmst0{fill-rule:evenodd;clip-rule:evenodd;fill:#474344;enable-background:new}</style><path class="bmst0" d="M28.3 56.9l1.4-1.6L3 28.4 29.7 1.6 28.3 0 0 28.4z"/></svg><view id="fb" viewBox="436 335.3 26 26"/><svg width="26" height="26" viewBox="-5 -5 26 26" x="436" y="335.3"><style>.bnst0{fill:#3a559f}</style><path class="bnst0" d="M0 0v16h8.5V9.8H6.4V7.3h2.1V5.2c0-1.5 1.2-2.8 2.8-2.8h2.2v2.3h-1.6c-.5 0-.9.4-.9.9v1.8h2.4l-.3 2.5H11V16h5V0H0z"/></svg><view id="folder" viewBox="436 283.8 28.3 25.3"/><svg width="28.3" height="25.3" viewBox="-5 -5 28.3 25.3" x="436" y="283.8"><path d="M18.1 5.2c-.2-.3-.6-.5-1-.5h-1.6V3c0-.7-.6-1.2-1.2-1.2H8.6c-.2 0-.6-.2-.8-.4L7.4.8C7.1.3 6.4 0 5.9 0h-2c-.6 0-1.2.4-1.4 1l-.2.4c0 .2-.3.4-.5.4h-.6C.6 1.8 0 2.3 0 3V14.3c0 .2.1.4.2.6.2.3.6.5 1 .5h12.5c.8 0 1.5-.6 1.8-1.3l2.7-7.7c.2-.5.1-.9-.1-1.2zM1.2 2.8h.6c.6 0 1.2-.4 1.4-1l.1-.4c.2-.2.4-.4.6-.4h2c.2 0 .6.2.8.4L7 2c.3.5 1 .8 1.6.8h5.7c.1 0 .2.1.2.2v1.8H4.6c-.8-.1-1.5.5-1.8 1.2L1 11.2V3c0-.1.1-.2.2-.2zM17.3 6l-2.7 7.7c-.1.3-.5.6-.9.6H1.2c-.1 0-.2 0-.2-.1V14l2.7-7.7c.2-.3.6-.6.9-.6h12.5c.1 0 .2 0 .2.1V6z"/></svg><view id="heart" viewBox="66.7 138 53.2 49.9"/><svg width="53.2" height="49.9" viewBox="-5 -5 53.2 49.9" x="66.7" y="138"><style>.bpst0{fill-rule:evenodd;clip-rule:evenodd;fill:#474344}</style><g id="bplike_1_"><path class="bpst0" d="M30.8 0c-3.4 0-6.7 1.4-9.2 3.7C19.2 1.4 15.8 0 12.5 0 5.5 0 0 5.5 0 12.4c0 3.9 1.6 7.7 5.1 11.9 3 3.7 7.2 7.5 12.8 12.4l2.8 2.8c.3.2.6.4.9.4.3 0 .7-.1.9-.4l2.8-2.8c5.6-4.9 9.8-8.7 12.8-12.4 3.5-4.2 5.1-8 5.1-11.9C43.2 5.5 37.8 0 30.8 0m-7.2 34.8c0 .1 0 .1 0 0l-2 2-1.9-1.9-.1-.1c-10.9-9.6-17-15.4-17-22.4 0-5.5 4.3-9.9 9.9-9.9 3.1 0 6.2 1.5 8.2 3.8.2.3.6.5 1 .5s.7-.2 1-.5c2-2.4 5.1-3.8 8.2-3.8 5.5 0 9.9 4.3 9.9 9.9-.1 7-6.3 12.8-17.2 22.4"/><path class="bpst0" d="M13.7 5C8.8 5 5 8.8 5 13.7c0 .7.6 1.3 1.3 1.3s1.3-.6 1.3-1.3c0-3.4 2.7-6.1 6.1-6.1.7 0 1.3-.6 1.3-1.3 0-.7-.6-1.3-1.3-1.3"/></g></svg><view id="heartBlack" viewBox="119.9 138 53.2 49.9"/><svg width="53.2" height="49.9" viewBox="-5 -5 53.2 49.9" x="119.9" y="138"><style>.bqst0{fill-rule:evenodd;clip-rule:evenodd;fill:#424242}</style><g id="bqlike_1_"><path class="bqst0" d="M30.8 0c-3.4 0-6.7 1.4-9.2 3.7C19.2 1.4 15.8 0 12.5 0 5.5 0 0 5.5 0 12.4c0 3.9 1.6 7.7 5.1 11.9 3 3.7 7.2 7.5 12.8 12.4l2.8 2.8c.3.2.6.4.9.4.3 0 .7-.1.9-.4l2.8-2.8c5.6-4.9 9.8-8.7 12.8-12.4 3.5-4.2 5.1-8 5.1-11.9C43.2 5.5 37.8 0 30.8 0m-7.2 34.8c0 .1 0 .1 0 0l-2 2-1.9-1.9-.1-.1c-10.9-9.6-17-15.4-17-22.4 0-5.5 4.3-9.9 9.9-9.9 3.1 0 6.2 1.5 8.2 3.8.2.3.6.5 1 .5s.7-.2 1-.5c2-2.4 5.1-3.8 8.2-3.8 5.5 0 9.9 4.3 9.9 9.9-.1 7-6.3 12.8-17.2 22.4"/><path class="bqst0" d="M13.7 5C8.8 5 5 8.8 5 13.7c0 .7.6 1.3 1.3 1.3s1.3-.6 1.3-1.3c0-3.4 2.7-6.1 6.1-6.1.7 0 1.3-.6 1.3-1.3 0-.7-.6-1.3-1.3-1.3"/></g></svg><view id="heartRed" viewBox="0 254.5 45 42"/><svg width="45" height="42" viewBox="-5 -5 45 42" y="254.5"><title>heartRed</title><path fill="#b70000" d="M24.526 0c-2.707 0-5.335 1.123-7.326 2.967C15.289 1.122 12.581 0 9.954 0 4.38 0 0 4.411 0 9.945c0 3.128 1.274 6.175 4.061 9.544 2.389 2.967 5.733 6.015 10.193 9.945l2.23 2.246c.239.16.478.321.717.321s.557-.08.717-.321l2.23-2.246c4.459-3.93 7.804-6.977 10.193-9.945 2.787-3.368 4.061-6.416 4.061-9.544 0-5.534-4.3-9.945-9.874-9.945h-.002zm-5.733 27.91c0 .08 0 .08 0 0L17.2 29.514l-1.513-1.524-.08-.08C6.927 20.211 2.07 15.559 2.07 9.945c0-4.411 3.424-7.94 7.883-7.94 2.469 0 4.937 1.203 6.53 3.048.159.241.478.401.796.401.319 0 .557-.16.796-.401 1.593-1.925 4.061-3.048 6.53-3.048 4.38 0 7.883 3.449 7.883 7.94-.08 5.614-5.017 10.266-13.696 17.965h.001z"/><path fill="#b70000" d="M10.96 4C7.04 4 4 7.04 4 10.96c0 .56.48 1.04 1.04 1.04s1.04-.48 1.04-1.04c0-2.72 2.16-4.88 4.88-4.88.56 0 1.04-.48 1.04-1.04S11.52 4 10.96 4z"/></svg><view id="heartRedActive" viewBox="45 254.5 45 42"/><svg width="45" height="42" viewBox="-5 -5 45 42" x="45" y="254.5"><title>heartRedActive</title><path fill="#6b0000" d="M24.526 0c-2.707 0-5.335 1.123-7.326 2.967C15.289 1.122 12.581 0 9.954 0 4.38 0 0 4.411 0 9.945c0 3.128 1.274 6.175 4.061 9.544 2.389 2.967 5.733 6.015 10.193 9.945l2.23 2.246c.239.16.478.321.717.321s.557-.08.717-.321l2.23-2.246c4.459-3.93 7.804-6.977 10.193-9.945 2.787-3.368 4.061-6.416 4.061-9.544 0-5.534-4.3-9.945-9.874-9.945h-.002zm-5.733 27.91c0 .08 0 .08 0 0L17.2 29.514l-1.513-1.524-.08-.08C6.927 20.211 2.07 15.559 2.07 9.945c0-4.411 3.424-7.94 7.883-7.94 2.469 0 4.937 1.203 6.53 3.048.159.241.478.401.796.401.319 0 .557-.16.796-.401 1.593-1.925 4.061-3.048 6.53-3.048 4.38 0 7.883 3.449 7.883 7.94-.08 5.614-5.017 10.266-13.696 17.965h.001z"/><path fill="#6b0000" d="M10.96 4C7.04 4 4 7.04 4 10.96c0 .56.48 1.04 1.04 1.04s1.04-.48 1.04-1.04c0-2.72 2.16-4.88 4.88-4.88.56 0 1.04-.48 1.04-1.04S11.52 4 10.96 4z"/></svg><view id="heartRedHover" viewBox="90 254.5 45 42"/><svg width="45" height="42" viewBox="-5 -5 45 42" x="90" y="254.5"><title>heartRedHover</title><path fill="#ff3838" d="M24.526 0c-2.707 0-5.335 1.123-7.326 2.967C15.289 1.122 12.581 0 9.954 0 4.38 0 0 4.411 0 9.945c0 3.128 1.274 6.175 4.061 9.544 2.389 2.967 5.733 6.015 10.193 9.945l2.23 2.246c.239.16.478.321.717.321s.557-.08.717-.321l2.23-2.246c4.459-3.93 7.804-6.977 10.193-9.945 2.787-3.368 4.061-6.416 4.061-9.544 0-5.534-4.3-9.945-9.874-9.945h-.002zm-5.733 27.91c0 .08 0 .08 0 0L17.2 29.514l-1.513-1.524-.08-.08C6.927 20.211 2.07 15.559 2.07 9.945c0-4.411 3.424-7.94 7.883-7.94 2.469 0 4.937 1.203 6.53 3.048.159.241.478.401.796.401.319 0 .557-.16.796-.401 1.593-1.925 4.061-3.048 6.53-3.048 4.38 0 7.883 3.449 7.883 7.94-.08 5.614-5.017 10.266-13.696 17.965h.001z"/><path fill="#ff3838" d="M10.96 4C7.04 4 4 7.04 4 10.96c0 .56.48 1.04 1.04 1.04s1.04-.48 1.04-1.04c0-2.72 2.16-4.88 4.88-4.88.56 0 1.04-.48 1.04-1.04S11.52 4 10.96 4z"/></svg><view id="heartWhite" viewBox="135 254.5 45 42"/><svg width="45" height="42" viewBox="-5 -5 45 42" x="135" y="254.5"><title>heartRedActive</title><g fill="#FFF" fill-rule="evenodd"><path d="M24.526 0c-2.707 0-5.335 1.123-7.326 2.967C15.289 1.122 12.581 0 9.954 0 4.38 0 0 4.411 0 9.945c0 3.128 1.274 6.175 4.061 9.544 2.389 2.967 5.733 6.015 10.193 9.945l2.23 2.246c.239.16.478.321.717.321s.557-.08.717-.321l2.23-2.246c4.459-3.93 7.804-6.977 10.193-9.945 2.787-3.368 4.061-6.416 4.061-9.544 0-5.534-4.3-9.945-9.874-9.945h-.002zm-5.733 27.91c0 .08 0 .08 0 0L17.2 29.514l-1.513-1.524-.08-.08C6.927 20.211 2.07 15.559 2.07 9.945c0-4.411 3.424-7.94 7.883-7.94 2.469 0 4.937 1.203 6.53 3.048.159.241.478.401.796.401.319 0 .557-.16.796-.401 1.593-1.925 4.061-3.048 6.53-3.048 4.38 0 7.883 3.449 7.883 7.94-.08 5.614-5.017 10.266-13.696 17.965h.001z"/><path d="M10.96 4C7.04 4 4 7.04 4 10.96c0 .56.48 1.04 1.04 1.04s1.04-.48 1.04-1.04c0-2.72 2.16-4.88 4.88-4.88.56 0 1.04-.48 1.04-1.04S11.52 4 10.96 4z"/></g></svg><view id="inst" viewBox="436 361.3 26 26"/><svg width="26" height="26" viewBox="-5 -5 26 26" x="436" y="361.3"><style>.bvst0{fill-rule:evenodd;clip-rule:evenodd;fill:url(#bvSVGID_1_)}.bvst1{fill:#f9f9f9}.st2{fill-rule:evenodd;clip-rule:evenodd;fill:url(#SVGID_2_)}</style><linearGradient id="bvSVGID_1_" gradientUnits="userSpaceOnUse" x1="8" y1="16" x2="8"><stop offset="0" stop-color="#326d95"/><stop offset="1" stop-color="#12537a"/></linearGradient><path class="bvst0" d="M0 0h16v16H0z"/><path class="bvst1" d="M12.6 2.1H3.4c-.8 0-1.4.7-1.4 1.5v9.2c0 .8.6 1.4 1.4 1.4h9.1c.8 0 1.4-.6 1.4-1.4V3.6c.1-.8-.5-1.5-1.3-1.5zm-2.3 1.8c0-.2.2-.3.3-.3h1.6c.2 0 .3.1.3.3v1.6c0 .2-.2.3-.3.3h-1.6c-.2 0-.3-.1-.3-.3V3.9zM8 5.9c1.3 0 2.3 1 2.3 2.3 0 1.3-1 2.3-2.3 2.3-1.3 0-2.3-1-2.3-2.3 0-1.3 1-2.3 2.3-2.3zm4.7 6.5c0 .2-.2.3-.3.3H3.7c-.2 0-.3-.1-.3-.3V7.2h1.1c-.1.3-.1.6-.1 1 0 2 1.6 3.6 3.7 3.6 2 0 3.7-1.6 3.7-3.6 0-.3 0-.7-.1-1h1.1v5.2z"/></svg><view id="libra" viewBox="86 204.7 48.3 37"/><svg width="48.3" height="37" viewBox="-5 -5 48.3 37" x="86" y="204.7"><style>.bwst0{fill-rule:evenodd;clip-rule:evenodd;fill:#474344}</style><path class="bwst0" d="M38.3 22.2l-5.7-14h3.8V5.9s-5.8-.4-9.8-1.9C22.9 2.6 20.4.4 19.4.1c-1 .3-3.5 2.6-7.2 3.9C8 5.4 2.3 5.9 2.3 5.9v2.4h3.5L0 22.2S-.6 27 6.3 27c7 0 7.1-4.8 7.1-4.8l-5.8-14h9c.7 0 1.6 1.2 2.6 1.3 1-.1 1.6-1.3 2.3-1.3h9l-5.8 14s.2 4.8 7.1 4.8c7.1 0 6.5-4.8 6.5-4.8zm-32 0H1.1L6.3 8.9v13.3zm6 0h-5V8.9l5 13.3zm7-15.9c0-.1-1.2-.6-1.2-1.3 0-.7 1.2-1.2 1.2-1.2 0 .1 1.2.6 1.2 1.2-.1.8-1.2 1.3-1.2 1.3zm12 15.7v.2H26l5.3-13.3V22zm1 .2V8.9l4.9 13.3h-4.9z"/></svg><view id="libraRedActive" viewBox="259.7 37.1 48.3 37"/><svg width="48.3" height="37" viewBox="-5 -5 48.3 37" x="259.7" y="37.1"><style>.bxst0{fill:url(#bxSVGID_1_)}.st1{fill:url(#SVGID_2_)}</style><linearGradient id="bxSVGID_1_" gradientUnits="userSpaceOnUse" x1="19.163" y1="-290.534" x2="19.163" y2="-263.457" gradientTransform="matrix(1 0 0 -1 0 -263.434)"><stop offset="0" stop-color="#700101"/><stop offset="1" stop-color="#b70000"/></linearGradient><path class="bxst0" d="M38.3 22.2L32.5 8.3H36V5.8s-5.6-.4-9.7-1.9C22.6 2.5 20.2.3 19.2 0c-1 .3-3.6 2.6-7.3 3.9C7.9 5.3 2 5.8 2 5.8v2.5h3.7L0 22.2S-.6 27 6.3 27c7 0 7.1-4.7 7.1-4.7l-5.8-14h9c.7 0 1.6 1.2 2.6 1.3 1-.1 1.6-1.3 2.3-1.3h9l-5.8 13.9s.2 4.8 7.1 4.8c7.1 0 6.5-4.8 6.5-4.8zM6 22.3H1.1L6 8.8v13.5zm6.3 0H7V8.8l5.3 13.5zm7-16.1c0-.1-1.2-.6-1.2-1.3s1.2-1.2 1.2-1.2c0 .1 1.2.6 1.2 1.2-.1.8-1.2 1.3-1.2 1.3zM31 21.9v.3h-5.1L31 8.8v13.1zm1 .4V8.8l5.1 13.4H32v.1z"/></svg><view id="libraRedHover" viewBox="259.7 0 48.3 37.1"/><svg width="48.3" height="37.1" viewBox="-5 -5 48.3 37.1" x="259.7"><style>.byst0{fill:url(#bySVGID_1_)}.st1{fill:url(#SVGID_2_)}</style><linearGradient id="bySVGID_1_" gradientUnits="userSpaceOnUse" x1="19.163" y1="-416.834" x2="19.163" y2="-389.734" gradientTransform="matrix(1 0 0 -1 0 -389.634)"><stop offset="0" stop-color="#950101"/><stop offset="1" stop-color="#db0000"/></linearGradient><path class="byst0" d="M38.3 22.2L32.5 8.4h3.8V5.8s-5.8-.4-9.8-1.9C22.8 2.5 20.3.3 19.3 0c-1 .3-3.5 2.6-7.2 3.9C8 5.3 2.3 5.8 2.3 5.8v2.6h3.5L0 22.2s-.6 4.7 6.3 4.7c7 0 7.1-4.7 7.1-4.7L7.7 8.4h9c.7 0 1.6 1.2 2.6 1.3 1-.1 1.6-1.3 2.3-1.3h9l-5.8 13.9s.2 4.8 7.1 4.8c7-.1 6.4-4.9 6.4-4.9zm-32 .2H1.1L6.3 8.8v13.6zm6 0h-5V8.8l5 13.6zm7-16.2c0-.1-1.2-.6-1.2-1.3s1.2-1.2 1.2-1.2c0 .1 1.2.6 1.2 1.2-.1.8-1.2 1.3-1.2 1.3zm12 15.7v.4H26l5.3-13.5v13.1zm1 .5V8.8l4.9 13.5h-4.9v.1z"/></svg><view id="logoRed" viewBox="0 42 96 96"/><svg width="96" height="96" viewBox="-5 -5 96 96" y="42"><title>logoRed</title><defs><linearGradient x1="50%" y1="100%" x2="50%" y2="0%" id="bza"><stop stop-color="#700101" offset="0%"/><stop stop-color="#B70000" offset="100%"/></linearGradient></defs><g fill="none" fill-rule="evenodd"><path fill="url(#bza)" d="M0 0h86v86H0z"/><path d="M39.482 37.178L42 29s-6.548 0-9.369.404c-2.92.404-23.17 2.524-25.889 13.225-1.31 5.15 2.72 7.875 7.152 8.986 4.433 1.11 10.074 2.423 4.836 4.745-.302.1-7.153 2.927-14.91.908C3.519 57.37 1 65.951 1 65.951s9.973.605 21.054-2.423c10.98-3.231 15.11-6.563 15.917-12.418.805-5.856-8.16-7.37-13.6-9.086-1.007-.303-2.72-3.938 7.455-4.645 10.275-.807 7.656-.201 7.656-.201z" fill="#FFF"/><path fill="#FFF" d="M41.9 26.6L32 59l14.4-2.2 3.9-12.5L64.4 42l-3.8 12.5 14.5-2.2L85 20l-14.5 2.2-4.1 13.1-14 2.3 3.8-13.1z"/></g></svg><view id="logoRedInvert" viewBox="37 338.5 42 42"/><svg width="42" height="42" viewBox="-5 -5 42 42" x="37" y="338.5"><title>logoRedInvert</title><path fill="#b70000" d="M14.497 13.624l.97-3.103s-2.473 0-3.539.145c-1.115.145-8.776.97-9.794 4.994-.485 1.939 1.018 2.958 2.715 3.394s3.83.921 1.842 1.794c-.097.049-2.715 1.115-5.624.339C.97 21.236 0 24.484 0 24.484s3.782.242 7.952-.921c4.17-1.212 5.721-2.473 6.012-4.703s-3.103-2.764-5.139-3.442c-.388-.097-1.018-1.503 2.812-1.745 3.83-.291 2.861-.049 2.861-.049z"/><path fill="#b70000" d="M15.564 9.503l-3.782 12.364 5.479-.824 1.503-4.752 5.382-.873-1.455 4.752 5.527-.824L32 7.031l-5.527.824-1.552 4.994-5.333.873 1.455-4.994z"/></svg><view id="menu" viewBox="0 0 170 42"/><svg width="170" height="42" viewBox="-5 -5 170 42"><title>menu</title><path fill="#d5d5d5" d="M96 16c0 8.837-7.163 16-16 16s-16-7.163-16-16S71.163 0 80 0s16 7.163 16 16zM160 16c0 8.837-7.163 16-16 16s-16-7.163-16-16 7.163-16 16-16 16 7.163 16 16zM32 16c0 8.837-7.163 16-16 16S0 24.837 0 16 7.163 0 16 0s16 7.163 16 16z"/></svg><view id="menuSandvichRed" viewBox="116 338.5 42 42"/><svg width="42" height="42" viewBox="-5 -5 42 42" x="116" y="338.5"><title>menuSandvichRed</title><path fill="#950101" d="M0 3.733c0-.64.427-1.067 1.067-1.067h29.867c.64 0 1.067.427 1.067 1.067v3.2c0 .64-.427 1.067-1.067 1.067H1.067C.427 8 0 7.573 0 6.933v-3.2zM0 25.067C0 24.427.427 24 1.067 24h29.867c.64 0 1.067.427 1.067 1.067v3.2c0 .64-.427 1.067-1.067 1.067H1.067c-.64 0-1.067-.427-1.067-1.067v-3.2zM0 14.4c0-.64.427-1.067 1.067-1.067h29.867c.64 0 1.067.427 1.067 1.067v3.2c0 .64-.427 1.067-1.067 1.067H1.067C.427 18.667 0 18.24 0 17.6v-3.2z"/></svg><view id="menuSandvichWhite" viewBox="259.7 214.8 42 38"/><svg width="42" height="38" viewBox="-5 -5 42 38" x="259.7" y="214.8"><title>menuSandvichWhite</title><g fill="#FFF" fill-rule="evenodd"><path d="M0 1.733C0 1.093.427.666 1.067.666h29.867c.64 0 1.067.427 1.067 1.067v3.2c0 .64-.427 1.067-1.067 1.067H1.067C.427 6 0 5.573 0 4.933v-3.2zM0 23.067C0 22.427.427 22 1.067 22h29.867c.64 0 1.067.427 1.067 1.067v3.2c0 .64-.427 1.067-1.067 1.067H1.067c-.64 0-1.067-.427-1.067-1.067v-3.2zM0 12.4c0-.64.427-1.067 1.067-1.067h29.867c.64 0 1.067.427 1.067 1.067v3.2c0 .64-.427 1.067-1.067 1.067H1.067C.427 16.667 0 16.24 0 15.6v-3.2z"/></g></svg><view id="minus" viewBox="158 338.5 42 42"/><svg width="42" height="42" viewBox="-5 -5 42 42" x="158" y="338.5"><title>minus</title><path fill="#f2f2f2" d="M0 14.4h32v3.2H0v-3.2z"/></svg><view id="morePlus" viewBox="209.7 84 50 50"/><svg width="50" height="50" viewBox="-5 -5 33 33" x="209.7" y="84"><style>.cfst0{fill:#474344}</style><path class="cfst0" d="M11.5 23C5.2 23 0 17.8 0 11.5S5.2 0 11.5 0 23 5.2 23 11.5 17.8 23 11.5 23zm0-22.2C5.6.8.8 5.6.8 11.5s4.8 10.7 10.7 10.7 10.7-4.8 10.7-10.7S17.4.8 11.5.8z"/><path class="cfst0" d="M16.3 11.9H6.7c-.2 0-.4-.2-.4-.4s.2-.4.4-.4h9.7c.2 0 .4.2.4.4s-.2.4-.5.4z"/><path class="cfst0" d="M11.5 16.7c-.2 0-.4-.2-.4-.4V6.7c0-.2.2-.4.4-.4s.4.2.4.4v9.7c0 .2-.2.3-.4.3z"/></svg><view id="nextRed" viewBox="242 338.5 42 42"/><svg width="42" height="42" viewBox="-5 -5 42 42" x="242" y="338.5"><title>nextRed</title><path fill="#e6e6e6" d="M8.421 31.944l-.842-.898 14.989-15.102L7.579.898 8.421 0l15.832 15.944z"/><path fill="#b70000" d="M13.867 26.442l-.842-.842 9.544-9.656-9.544-9.6.842-.842L24.309 16z"/></svg><view id="nextRedHover" viewBox="284 338.5 42 42"/><svg width="42" height="42" viewBox="-5 -5 42 42" x="284" y="338.5"><title>nextRedHover</title><path fill="#b70000" d="M8.421 31.944l-.842-.898 14.989-15.102L7.579.898 8.421 0l15.832 15.944z"/><path fill="#e6e6e6" d="M13.867 26.442l-.842-.842 9.544-9.656-9.544-9.6.842-.842L24.309 16z"/></svg><view id="order" viewBox="326 338.5 42 42"/><svg width="42" height="42" viewBox="-5 -5 42 42" x="326" y="338.5"><title>order</title><path d="M16.853.533C11.2.533 6.186 3.626 3.626 8.213L-.001 4.586v10.453h10.453l-4.587-4.587c2.133-3.947 6.08-6.72 10.987-6.72 6.507 0 11.947 5.44 11.947 11.947s-5.44 11.947-11.947 11.947c-5.227 0-9.6-3.307-11.307-8H2.132c1.813 6.4 7.68 11.2 14.72 11.2 8.427 0 15.147-6.827 15.147-15.147S25.172.532 16.852.532zm-2.453 8v8.107l7.573 4.48 1.28-2.027-6.4-3.84v-6.72H14.4z"/></svg><view id="phoneRed" viewBox="209.7 0 50 42"/><svg width="50" height="42" viewBox="-5 -5 50 42" x="209.7"><title>phoneRed</title><path fill="#b70000" d="M20.4 30.4h-1.6c-.24 0-.4-.16-.4-.4v-1.6c0-.24.16-.4.4-.4h1.6c.24 0 .4.16.4.4V30c0 .24-.16.4-.4.4z"/><path fill="#b70000" d="M11.194 0C10.158 0 9.6 1.043 9.6 2.085v28.07c0 1.043.478 1.845 1.594 1.845h16.733c1.036 0 1.673-.802 1.673-1.845V2.085C29.52 1.042 28.963 0 27.927 0H11.194zM18.1 1.6h3c.25 0 .5.16.5.401s-.25.401-.5.401h-3c-.25 0-.5-.16-.5-.401s.25-.401.5-.401zm3.5 27.967c0 .735-.4 1.633-1.12 1.633h-1.84c-.72 0-1.04-.98-1.04-1.633v-1.224c0-.735.32-1.143 1.04-1.143h1.84c.72 0 1.12.49 1.12 1.143v1.224zM28 25.93c0 .24-.252.48-.504.48H11.704c-.252 0-.504-.24-.504-.48V4.49c0-.24.252-.48.504-.48h15.792c.336 0 .504.24.504.48v21.44zM36.96 8.32c-.32-.4-.96-.48-1.36-.16s-.48.96-.16 1.36c1.2 1.44 1.76 3.2 1.76 5.12s-.64 3.68-1.84 5.12c-.32.4-.24 1.04.16 1.36.16.16.4.24.64.24.32 0 .56-.16.72-.4 1.44-1.76 2.24-4.08 2.24-6.4.08-2.24-.72-4.48-2.16-6.24z"/><path fill="#b70000" d="M34 10.48c-.32-.4-.96-.48-1.36-.16s-.48.96-.16 1.36c.64.8 1.04 1.84 1.04 2.88s-.32 2.08-1.04 2.96c-.32.4-.24 1.04.16 1.36.16.16.4.24.64.24.32 0 .56-.16.72-.4.96-1.2 1.44-2.64 1.44-4.16 0-1.44-.48-2.88-1.44-4.08zM1.92 14.64c0-1.92.64-3.68 1.84-5.12.32-.4.24-1.04-.16-1.36s-1.04-.24-1.36.16C.8 10.08 0 12.32 0 14.64s.72 4.48 2.16 6.32c.16.24.48.4.72.4s.4-.08.56-.24c.56-.32.64-.96.24-1.36a8.267 8.267 0 0 1-1.76-5.12z"/><path fill="#b70000" d="M6.56 10.4c-.4-.32-1.04-.24-1.36.16-.96 1.2-1.44 2.64-1.44 4.16s.48 2.96 1.44 4.08c.16.24.48.4.72.4s.4-.08.56-.24c.4-.32.48-.96.16-1.36-.64-.8-1.04-1.84-1.04-2.88s.32-2.08 1.04-2.96c.4-.48.32-1.04-.08-1.36z"/></svg><view id="phoneRedActive" viewBox="209.7 42 50 42"/><svg width="50" height="42" viewBox="-5 -5 50 42" x="209.7" y="42"><title>phoneRedActive</title><path fill="#6b0000" d="M20.4 30.4h-1.6c-.24 0-.4-.16-.4-.4v-1.6c0-.24.16-.4.4-.4h1.6c.24 0 .4.16.4.4V30c0 .24-.16.4-.4.4z"/><path fill="#6b0000" d="M11.194 0C10.158 0 9.6 1.043 9.6 2.085v28.07c0 1.043.478 1.845 1.594 1.845h16.733c1.036 0 1.673-.802 1.673-1.845V2.085C29.52 1.042 28.963 0 27.927 0H11.194zM18.1 1.6h3c.25 0 .5.16.5.401s-.25.401-.5.401h-3c-.25 0-.5-.16-.5-.401s.25-.401.5-.401zm3.5 27.967c0 .735-.4 1.633-1.12 1.633h-1.84c-.72 0-1.04-.98-1.04-1.633v-1.224c0-.735.32-1.143 1.04-1.143h1.84c.72 0 1.12.49 1.12 1.143v1.224zM28 25.93c0 .24-.252.48-.504.48H11.704c-.252 0-.504-.24-.504-.48V4.49c0-.24.252-.48.504-.48h15.792c.336 0 .504.24.504.48v21.44zM36.96 8.32c-.32-.4-.96-.48-1.36-.16s-.48.96-.16 1.36c1.2 1.44 1.76 3.2 1.76 5.12s-.64 3.68-1.84 5.12c-.32.4-.24 1.04.16 1.36.16.16.4.24.64.24.32 0 .56-.16.72-.4 1.44-1.76 2.24-4.08 2.24-6.4.08-2.24-.72-4.48-2.16-6.24z"/><path fill="#6b0000" d="M34 10.48c-.32-.4-.96-.48-1.36-.16s-.48.96-.16 1.36c.64.8 1.04 1.84 1.04 2.88s-.32 2.08-1.04 2.96c-.32.4-.24 1.04.16 1.36.16.16.4.24.64.24.32 0 .56-.16.72-.4.96-1.2 1.44-2.64 1.44-4.16 0-1.44-.48-2.88-1.44-4.08zM1.92 14.64c0-1.92.64-3.68 1.84-5.12.32-.4.24-1.04-.16-1.36s-1.04-.24-1.36.16C.8 10.08 0 12.32 0 14.64s.72 4.48 2.16 6.32c.16.24.48.4.72.4s.4-.08.56-.24c.56-.32.64-.96.24-1.36a8.267 8.267 0 0 1-1.76-5.12z"/><path fill="#6b0000" d="M6.56 10.4c-.4-.32-1.04-.24-1.36.16-.96 1.2-1.44 2.64-1.44 4.16s.48 2.96 1.44 4.08c.16.24.48.4.72.4s.4-.08.56-.24c.4-.32.48-.96.16-1.36-.64-.8-1.04-1.84-1.04-2.88s.32-2.08 1.04-2.96c.4-.48.32-1.04-.08-1.36z"/></svg><view id="phoneRedHover" viewBox="209.7 134 50 42"/><svg width="50" height="42" viewBox="-5 -5 50 42" x="209.7" y="134"><title>phoneRedHover</title><path fill="#ff3838" d="M20.4 30.4h-1.6c-.24 0-.4-.16-.4-.4v-1.6c0-.24.16-.4.4-.4h1.6c.24 0 .4.16.4.4V30c0 .24-.16.4-.4.4z"/><path fill="#ff3838" d="M11.194 0C10.158 0 9.6 1.043 9.6 2.085v28.07c0 1.043.478 1.845 1.594 1.845h16.733c1.036 0 1.673-.802 1.673-1.845V2.085C29.52 1.042 28.963 0 27.927 0H11.194zM18.1 1.6h3c.25 0 .5.16.5.401s-.25.401-.5.401h-3c-.25 0-.5-.16-.5-.401s.25-.401.5-.401zm3.5 27.967c0 .735-.4 1.633-1.12 1.633h-1.84c-.72 0-1.04-.98-1.04-1.633v-1.224c0-.735.32-1.143 1.04-1.143h1.84c.72 0 1.12.49 1.12 1.143v1.224zM28 25.93c0 .24-.252.48-.504.48H11.704c-.252 0-.504-.24-.504-.48V4.49c0-.24.252-.48.504-.48h15.792c.336 0 .504.24.504.48v21.44zM36.96 8.32c-.32-.4-.96-.48-1.36-.16s-.48.96-.16 1.36c1.2 1.44 1.76 3.2 1.76 5.12s-.64 3.68-1.84 5.12c-.32.4-.24 1.04.16 1.36.16.16.4.24.64.24.32 0 .56-.16.72-.4 1.44-1.76 2.24-4.08 2.24-6.4.08-2.24-.72-4.48-2.16-6.24z"/><path fill="#ff3838" d="M34 10.48c-.32-.4-.96-.48-1.36-.16s-.48.96-.16 1.36c.64.8 1.04 1.84 1.04 2.88s-.32 2.08-1.04 2.96c-.32.4-.24 1.04.16 1.36.16.16.4.24.64.24.32 0 .56-.16.72-.4.96-1.2 1.44-2.64 1.44-4.16 0-1.44-.48-2.88-1.44-4.08zM1.92 14.64c0-1.92.64-3.68 1.84-5.12.32-.4.24-1.04-.16-1.36s-1.04-.24-1.36.16C.8 10.08 0 12.32 0 14.64s.72 4.48 2.16 6.32c.16.24.48.4.72.4s.4-.08.56-.24c.56-.32.64-.96.24-1.36a8.267 8.267 0 0 1-1.76-5.12z"/><path fill="#ff3838" d="M6.56 10.4c-.4-.32-1.04-.24-1.36.16-.96 1.2-1.44 2.64-1.44 4.16s.48 2.96 1.44 4.08c.16.24.48.4.72.4s.4-.08.56-.24c.4-.32.48-.96.16-1.36-.64-.8-1.04-1.84-1.04-2.88s.32-2.08 1.04-2.96c.4-.48.32-1.04-.08-1.36z"/></svg><view id="plus" viewBox="394 126 42 42"/><svg width="42" height="42" viewBox="-5 -5 42 42" x="394" y="126"><title>plus</title><path fill="#f2f2f2" d="M0 14.4h32v3.2H0v-3.2z"/><path fill="#f2f2f2" d="M17.6 0v32h-3.2V0h3.2z"/></svg><view id="prevRed" viewBox="394 168 42 42"/><svg width="42" height="42" viewBox="-5 -5 42 42" x="394" y="168"><title>prevRed</title><path fill="#e6e6e6" d="M23.467 31.944l.842-.898L9.32 15.944 24.309.898 23.467 0 7.635 15.944z"/><path fill="#b70000" d="M18.077 26.442l.786-.842-9.544-9.656 9.544-9.6-.842-.842L7.579 16z"/></svg><view id="prevRedHover" viewBox="394 210 42 42"/><svg width="42" height="42" viewBox="-5 -5 42 42" x="394" y="210"><title>prevRedHover</title><path fill="#b70000" d="M23.467 31.944l.842-.898L9.32 15.944 24.309.898 23.467 0 7.635 15.944z"/><path fill="#e6e6e6" d="M18.077 26.442l.786-.842-9.544-9.656 9.544-9.6-.842-.842L7.579 16z"/></svg><view id="print" viewBox="122 108.9 26 25"/><svg width="26" height="25" viewBox="-5 -5 26 25" x="122" y="108.9"><style>.cpst0{fill:#202020}</style><path class="cpst0" d="M4 12v3h8v-5H4v2zm1-1h6v1H5v-1zm0 2h6v1H5v-1zM12 3V0H4v5h8z"/><path class="cpst0" d="M14 3h-1v3H3V3H2C1 3 0 4 0 5v5c0 1 1 2 2 2h1V9h10v3h1c1 0 2-1 2-2V5c0-1-1-2-2-2z"/></svg><view id="revert" viewBox="436 233 30.1 26.8"/><svg width="30.1" height="26.8" viewBox="-5 -5 30.1 26.8" x="436" y="233"><path d="M7.8 4.5V0L0 7.8l7.8 7.8V11c5.6 0 9.5 1.8 12.3 5.7C19 11.2 15.7 5.6 7.8 4.5z"/></svg><view id="review" viewBox="394 336 42 42"/><svg width="42" height="42" viewBox="-5 -5 42 42" x="394" y="336"><title>review</title><path d="M16.948 12.207H4.267V11.14h12.681v1.067zM4.267 16.711h9.837v-1.067H4.267v1.067zm0 3.556v1.067h9.837v-1.067H4.267zm0 5.57h12.681v-.948H4.267v.948zM21.333 28.8l1.422-1.422c-.474 0-.948-.119-1.422-.237V28.8zM1.778 25.007V4.503c0-3.081.237-3.319 3.437-3.319h16c3.081 0 3.319.237 3.319 3.319v6.637c.356.119.83.119 1.185.356V4.503c0-3.793-.83-4.504-4.622-4.504H5.216C1.423-.001.594.829.594 4.503v20.385c0 3.793.83 4.504 4.622 4.504h15.407v-1.185H5.216c-3.2.119-3.437-.119-3.437-3.2zm25.007.237c-3.319 1.896-7.704.83-9.6-2.607-1.896-3.319-.83-7.585 2.607-9.6 3.319-1.896 7.704-.83 9.6 2.607s.711 7.704-2.607 9.6zm-.592-.948c2.844-1.659 3.793-5.215 2.133-7.941-1.659-2.844-5.215-3.793-8.059-2.133s-3.793 5.215-2.133 7.941c1.659 2.726 5.215 3.674 8.059 2.133zm2.37.474l-3.081 1.778 2.37 4.03 3.081-1.778-2.37-4.03zm2.607 4.623l-3.081 1.778c.474.83 1.541 1.067 2.37.593.948-.474 1.185-1.541.711-2.37z"/></svg><view id="reviewRed" viewBox="0 380.5 42 42"/><svg width="42" height="42" viewBox="-5 -5 42 42" y="380.5"><title>review</title><path d="M16.948 12.207H4.267V11.14h12.681v1.067zM4.267 16.711h9.837v-1.067H4.267v1.067zm0 3.556v1.067h9.837v-1.067H4.267zm0 5.57h12.681v-.948H4.267v.948zM21.333 28.8l1.422-1.422c-.474 0-.948-.119-1.422-.237V28.8zM1.778 25.007V4.503c0-3.081.237-3.319 3.437-3.319h16c3.081 0 3.319.237 3.319 3.319v6.637c.356.119.83.119 1.185.356V4.503c0-3.793-.83-4.504-4.622-4.504H5.216C1.423-.001.594.829.594 4.503v20.385c0 3.793.83 4.504 4.622 4.504h15.407v-1.185H5.216c-3.2.119-3.437-.119-3.437-3.2h-.001zm25.007.237c-3.319 1.896-7.704.83-9.6-2.607-1.896-3.319-.83-7.585 2.607-9.6 3.319-1.896 7.704-.83 9.6 2.607 1.896 3.437.711 7.704-2.607 9.6zm-.592-.948c2.844-1.659 3.793-5.215 2.133-7.941-1.659-2.844-5.215-3.793-8.059-2.133-2.844 1.66-3.793 5.215-2.133 7.941 1.659 2.726 5.215 3.674 8.059 2.133zm2.37.474l-3.081 1.778 2.37 4.03 3.081-1.778-2.37-4.03zm2.607 4.623l-3.081 1.778c.474.83 1.541 1.067 2.37.593.948-.474 1.185-1.541.711-2.37v-.001z" fill-rule="nonzero" fill="#B70000"/></svg><view id="rouble" viewBox="308 211 40 43"/><svg width="40" height="43" viewBox="-5 -5 40 43" x="308" y="211"><path d="M.8 27.7H6v4.5c0 .2.1.4.2.5.2.2.3.3.6.3h3.9c.2 0 .4-.1.5-.2.1-.1.2-.3.2-.5v-4.5h11.8c.2 0 .4-.1.5-.2.1-.1.2-.3.2-.5v-3c0-.2-.1-.4-.2-.5-.1-.1-.3-.2-.5-.2H11.4v-2.8h8c3.1 0 5.7-1 7.7-2.9s3-4.4 3-7.4-1-5.5-3-7.4C25.1 1 22.5 0 19.4 0H6.8c-.3 0-.4.1-.6.2-.1.2-.2.3-.2.5v14.7H.8c-.2 0-.4.1-.5.2-.2.3-.3.4-.3.6v3.5c0 .2.1.4.2.5.1.1.3.2.5.2H6v2.8H.8c-.2 0-.4.1-.5.2-.2.2-.3.4-.3.6v3c0 .2.1.4.2.5s.3.2.6.2zM11.4 5h7.5c1.7 0 3 .5 4 1.5s1.5 2.2 1.5 3.8c0 1.6-.5 2.8-1.5 3.8s-2.4 1.5-4 1.5h-7.5V5zm0 0"/></svg><view id="searchRed" viewBox="308 254 43 42"/><svg width="43" height="42" viewBox="-5 -5 43 42" x="308" y="254"><title>searchRed</title><path fill="#b70000" d="M4.507 12c-.241 0-.483-.225-.483-.45 0-.675.08-.975.241-1.575.08-.225.322-.375.563-.375.241.075.402.3.402.525-.161.525-.241.825-.241 1.35 0 .3-.161.525-.483.525zM5.34 8.8c-.08 0-.16 0-.241-.089-.241-.178-.321-.533-.241-.8C6.462 4.978 9.348 3.2 12.396 3.2c.241 0 .481.267.481.533s-.241.533-.481.533c-2.726 0-5.292 1.6-6.736 4.178 0 .178-.16.356-.321.356z"/><path fill="#b70000" d="M32.09 26.887l-8.188-8.082a2.495 2.495 0 0 0-.579-.412c1.075-1.814 1.654-3.876 1.654-6.186 0-6.68-5.624-12.206-12.489-12.206S-.001 5.527-.001 12.207s5.624 12.206 12.489 12.206c2.481 0 4.714-.66 6.699-1.897.083.165.248.33.414.495l8.188 8.082c.579.577 1.323.907 2.15.907s1.571-.33 2.15-.907.91-1.32.91-2.144c-.083-.742-.331-1.485-.91-2.062zM2.415 12.399c0-5.484 4.472-9.999 10.061-9.999s10.061 4.516 10.061 9.999c0 5.564-4.551 9.999-10.061 9.999-5.589.081-10.061-4.435-10.061-9.999zm26.384 16.94l-7.872-7.971s0-.242.551-.805.787-.564.787-.564.079 0 .157.081l7.793 7.89c.749.693.169 1.081-.079 1.369s-1.023.403-1.338 0z"/></svg><view id="searchRedActive" viewBox="308 126 43 42"/><svg width="43" height="42" viewBox="-5 -5 43 42" x="308" y="126"><title>searchRedActive</title><path fill="#6b0000" d="M4.507 12c-.241 0-.483-.225-.483-.45 0-.675.08-.975.241-1.575.08-.225.322-.375.563-.375.241.075.402.3.402.525-.161.525-.241.825-.241 1.35 0 .3-.161.525-.483.525zM5.34 8.8c-.08 0-.16 0-.241-.089-.241-.178-.321-.533-.241-.8C6.462 4.978 9.348 3.2 12.396 3.2c.241 0 .481.267.481.533s-.241.533-.481.533c-2.726 0-5.292 1.6-6.736 4.178 0 .178-.16.356-.321.356z"/><path fill="#6b0000" d="M32.09 26.887l-8.188-8.082a2.495 2.495 0 0 0-.579-.412c1.075-1.814 1.654-3.876 1.654-6.186 0-6.68-5.624-12.206-12.489-12.206S-.001 5.527-.001 12.207s5.624 12.206 12.489 12.206c2.481 0 4.714-.66 6.699-1.897.083.165.248.33.414.495l8.188 8.082c.579.577 1.323.907 2.15.907s1.571-.33 2.15-.907.91-1.32.91-2.144c-.083-.742-.331-1.485-.91-2.062zM2.415 12.399c0-5.484 4.472-9.999 10.061-9.999s10.061 4.516 10.061 9.999c0 5.564-4.551 9.999-10.061 9.999-5.589.081-10.061-4.435-10.061-9.999zm26.384 16.94l-7.872-7.971s0-.242.551-.805.787-.564.787-.564.079 0 .157.081l7.793 7.89c.749.693.169 1.081-.079 1.369s-1.023.403-1.338 0z"/></svg><view id="searchRedHover" viewBox="308 84 43 42"/><svg width="43" height="42" viewBox="-5 -5 43 42" x="308" y="84"><title>searchRedHover</title><path fill="#ff3838" d="M4.507 12c-.241 0-.483-.225-.483-.45 0-.675.08-.975.241-1.575.08-.225.322-.375.563-.375.241.075.402.3.402.525-.161.525-.241.825-.241 1.35 0 .3-.161.525-.483.525zM5.34 8.8c-.08 0-.16 0-.241-.089-.241-.178-.321-.533-.241-.8C6.462 4.978 9.348 3.2 12.396 3.2c.241 0 .481.267.481.533s-.241.533-.481.533c-2.726 0-5.292 1.6-6.736 4.178 0 .178-.16.356-.321.356z"/><path fill="#ff3838" d="M32.09 26.887l-8.188-8.082a2.495 2.495 0 0 0-.579-.412c1.075-1.814 1.654-3.876 1.654-6.186 0-6.68-5.624-12.206-12.489-12.206S-.001 5.527-.001 12.207s5.624 12.206 12.489 12.206c2.481 0 4.714-.66 6.699-1.897.083.165.248.33.414.495l8.188 8.082c.579.577 1.323.907 2.15.907s1.571-.33 2.15-.907.91-1.32.91-2.144c-.083-.742-.331-1.485-.91-2.062zM2.415 12.399c0-5.484 4.472-9.999 10.061-9.999s10.061 4.516 10.061 9.999c0 5.564-4.551 9.999-10.061 9.999-5.589.081-10.061-4.435-10.061-9.999zm26.384 16.94l-7.872-7.971s0-.242.551-.805.787-.564.787-.564.079 0 .157.081l7.793 7.89c.749.693.169 1.081-.079 1.369s-1.023.403-1.338 0z"/></svg><view id="signIn" viewBox="308 42 44 42"/><svg width="44" height="42" viewBox="-5 -5 44 42" x="308" y="42"><title>signIn</title><path fill="#fff" d="M32.922 0H7.967c-.473 0-.856.387-.856.865s.383.865.856.865h24.099v28.541H7.967c-.473 0-.856.387-.856.865s.383.865.856.865h24.955a.86.86 0 0 0 .856-.865V.865A.86.86 0 0 0 32.922 0z"/><path fill="#fff" d="M12.891 22.857a.83.83 0 0 0 1.197 0l5.22-5.354a.883.883 0 0 0 0-1.228l-5.22-5.354c-.331-.339-.866-.339-1.197 0s-.331.889 0 1.228l3.775 3.872H.847c-.467 0-.847.389-.847.868s.379.868.847.868h15.819l-3.775 3.871a.883.883 0 0 0 0 1.228z"/></svg><view id="signInRed" viewBox="308 0 44 42"/><svg width="44" height="42" viewBox="-5 -5 44 42" x="308"><title>signInRed</title><path fill="#b70000" d="M7.999 0C7.52 0 7 .516 7 .994s.521 1.002.999 1.002H32v28.006H7.867c-.479 0-.867.56-.867 1.038s.388.961.867.961h25.267a.866.866 0 0 0 .867-.865V.865A.866.866 0 0 0 33.134 0H8z"/><path fill="#b70000" d="M12.891 22.857a.83.83 0 0 0 1.197 0l5.22-5.354a.883.883 0 0 0 0-1.228l-5.22-5.354c-.331-.339-.866-.339-1.197 0s-.331.889 0 1.228l3.775 3.872H.847c-.467 0-.847.389-.847.868s.379.868.847.868h15.819l-3.775 3.871a.883.883 0 0 0 0 1.228v.001z"/></svg><view id="signInRedActive" viewBox="224 254.5 44 42"/><svg width="44" height="42" viewBox="-5 -5 44 42" x="224" y="254.5"><title>signInRedActive</title><path fill="#6b0000" d="M7.999 0C7.52 0 7 .516 7 .994s.521 1.002.999 1.002H32v28.006H7.867c-.479 0-.867.56-.867 1.038s.388.961.867.961h25.267a.866.866 0 0 0 .867-.865V.865A.866.866 0 0 0 33.134 0H8z"/><path fill="#6b0000" d="M12.891 22.857a.83.83 0 0 0 1.197 0l5.22-5.354a.883.883 0 0 0 0-1.228l-5.22-5.354c-.331-.339-.866-.339-1.197 0s-.331.889 0 1.228l3.775 3.872H.847c-.467 0-.847.389-.847.868s.379.868.847.868h15.819l-3.775 3.871a.883.883 0 0 0 0 1.228v.001z"/></svg><view id="signInRedHover" viewBox="180 254.5 44 42"/><svg width="44" height="42" viewBox="-5 -5 44 42" x="180" y="254.5"><title>signInRedHover</title><path fill="#ff3838" d="M7.999 0C7.52 0 7 .516 7 .994s.521 1.002.999 1.002H32v28.006H7.867c-.479 0-.867.56-.867 1.038s.388.961.867.961h25.267a.866.866 0 0 0 .867-.865V.865A.866.866 0 0 0 33.134 0H8z"/><path fill="#ff3838" d="M12.891 22.857a.83.83 0 0 0 1.197 0l5.22-5.354a.883.883 0 0 0 0-1.228l-5.22-5.354c-.331-.339-.866-.339-1.197 0s-.331.889 0 1.228l3.775 3.872H.847c-.467 0-.847.389-.847.868s.379.868.847.868h15.819l-3.775 3.871a.883.883 0 0 0 0 1.228v.001z"/></svg><view id="similarItems" viewBox="378 380.5 42 42"/><svg width="42" height="42" viewBox="-5 -5 42 42" x="378" y="380.5"><title>SimilarItems</title><path d="M14.277 8.123H3.939c-.862 0-1.477.615-1.477 1.477v9.969c0 .862.738 1.477 1.477 1.477h10.338c.862 0 1.477-.615 1.477-1.477V9.6c0-.862-.738-1.477-1.477-1.477zm-10.339.985h10.338c.246 0 .492.123.492.492v2.092l-5.169 4.554c-.123.123-.246.123-.369.123s-.246-.123-.369-.123l-1.477-2.092c-.492-.615-1.477-.738-2.215-.246l-1.723 1.231V9.601c0-.369.246-.492.492-.492zm10.339 10.954H3.939c-.246 0-.492-.246-.492-.492v-3.2l2.338-1.6c.246-.123.615-.123.738.123l1.6 1.969c.246.369.615.492.985.492h.123c.369 0 .738-.123.985-.369l4.554-3.938v6.523c0 .246-.246.492-.492.492z"/><path d="M31.138 10.831L18.707 3.323c-.862-.492-1.969-.246-2.462.615l-.985 1.6H1.722c-.985 0-1.723.738-1.723 1.723v17.477c0 .985.738 1.723 1.723 1.723h14.4l3.569 2.215c.246.123.615.246.985.246.615 0 1.231-.246 1.477-.862l9.477-14.892c.615-.738.369-1.846-.492-2.338zm-12.43-3.323l8.738 5.292c.246.123.369.492.123.738l-5.415 8.369c-.123.246-.492.246-.738.123l-3.323-1.969V7.384c.123-.123.369-.123.615.123zM1.477 24.738V7.261c0-.123.123-.246.246-.246h14.646c.123 0 .246.123.246.246v17.477a.265.265 0 0 1-.246.246H1.723a.265.265 0 0 1-.246-.246zM30.4 12.431l-9.477 14.892c-.123.123-.246.123-.369.123l-2.708-1.723c.246-.246.369-.615.369-.985v-3.569l2.831 1.723c.246.123.492.246.738.246h.369a2.69 2.69 0 0 0 .985-.615l5.415-8.492c.246-.369.246-.738.246-1.108a1.919 1.919 0 0 0-.738-.985l-8.738-5.292c-.492-.246-.862-.369-1.354-.246-.246-.369-.492-.615-.862-.738l.615-.985c.123-.123.246-.123.369-.123l12.431 7.508c0 .123 0 .246-.123.369z"/></svg><view id="similarItemsRed" viewBox="134.3 204.7 42 36"/><svg width="42" height="36" viewBox="-5 -5 42 36" x="134.3" y="204.7"><title>similarItems</title><g transform="translate(-1)" fill-rule="nonzero" fill="#B70000"><path d="M15.277 5.123H4.939c-.862 0-1.477.615-1.477 1.477v9.969c0 .862.738 1.477 1.477 1.477h10.338c.862 0 1.477-.615 1.477-1.477V6.6c0-.862-.738-1.477-1.477-1.477zm-10.339.985h10.338c.246 0 .492.123.492.492v2.092l-5.169 4.554c-.123.123-.246.123-.369.123s-.246-.123-.369-.123l-1.477-2.092c-.492-.615-1.477-.738-2.215-.246l-1.723 1.231V6.601c0-.369.246-.492.492-.492v-.001zm10.339 10.954H4.939c-.246 0-.492-.246-.492-.492v-3.2l2.338-1.6c.246-.123.615-.123.738.123l1.6 1.969c.246.369.615.492.985.492h.123c.369 0 .738-.123.985-.369l4.554-3.938v6.523c0 .246-.246.492-.492.492h-.001z"/><path d="M32.138 7.831L19.707.323c-.862-.492-1.969-.246-2.462.615l-.985 1.6H2.722c-.985 0-1.723.738-1.723 1.723v17.477c0 .985.738 1.723 1.723 1.723h14.4l3.569 2.215c.246.123.615.246.985.246.615 0 1.231-.246 1.477-.862l9.477-14.892c.615-.738.369-1.846-.492-2.338v.001zm-12.43-3.323L28.446 9.8c.246.123.369.492.123.738l-5.415 8.369c-.123.246-.492.246-.738.123l-3.323-1.969V4.384c.123-.123.369-.123.615.123v.001zM2.477 21.738V4.261c0-.123.123-.246.246-.246h14.646c.123 0 .246.123.246.246v17.477a.265.265 0 0 1-.246.246H2.723a.265.265 0 0 1-.246-.246zM31.4 9.431l-9.477 14.892c-.123.123-.246.123-.369.123l-2.708-1.723c.246-.246.369-.615.369-.985v-3.569l2.831 1.723c.246.123.492.246.738.246h.369a2.69 2.69 0 0 0 .985-.615l5.415-8.492c.246-.369.246-.738.246-1.108a1.919 1.919 0 0 0-.738-.985l-8.738-5.292c-.492-.246-.862-.369-1.354-.246-.246-.369-.492-.615-.862-.738l.615-.985c.123-.123.246-.123.369-.123l12.431 7.508c0 .123 0 .246-.123.369h.001z"/></g></svg><view id="sliderCircle" viewBox="436 259.8 30 24"/><svg width="30" height="24" viewBox="-5 -5 30 24" x="436" y="259.8"><style>.ddst0{fill-rule:evenodd;clip-rule:evenodd;fill:gray}</style><path class="ddst0" d="M5.8 14l.4-.6L1 7 6.2.6 5.8 0 0 7zM14.2 14l-.4-.6L19 7 13.8.6l.4-.6L20 7z"/></svg><view id="specifications" viewBox="436 42 42 42"/><svg width="42" height="42" viewBox="-5 -5 42 42" x="436" y="42"><title>specifications</title><path d="M11.077 12.308l2.462 2.462 1.231-1.231-2.462-2.462-1.231 1.231zm2.461-2.462l3.692 3.692 1.231-1.231-3.692-3.692-1.231 1.231zm6.154-6.154l-1.231 1.231 2.462 2.462 1.231-1.231-2.462-2.462zM20.923 0L0 20.923 11.077 32 32 11.077 20.923 0zM2.462 20.923l1.231-1.231 2.462 2.462 1.231-1.231-2.462-2.462 1.231-1.231 3.692 3.692 1.231-1.231-3.692-3.692 1.231-1.231 2.462 2.462 1.231-1.231-2.462-2.462 6.154-6.154 2.462 2.462 1.231-1.231-2.462-2.462 3.692-3.692 8.615 8.615-18.462 18.462-8.615-8.615z"/></svg><view id="specificationsRed" viewBox="436 84 42 42"/><svg width="42" height="42" viewBox="-5 -5 42 42" x="436" y="84"><title>Shape</title><path d="M11.077 12.308l2.462 2.462 1.231-1.231-2.462-2.462-1.231 1.231zm2.461-2.462l3.692 3.692 1.231-1.231-3.692-3.692-1.231 1.231zm6.154-6.154l-1.231 1.231 2.462 2.462 1.231-1.231-2.462-2.462zM20.923 0L0 20.923 11.077 32 32 11.077 20.923 0zM2.462 20.923l1.231-1.231 2.462 2.462 1.231-1.231-2.462-2.462 1.231-1.231 3.692 3.692 1.231-1.231-3.692-3.692 1.231-1.231 2.462 2.462 1.231-1.231-2.462-2.462 6.154-6.154 2.462 2.462 1.231-1.231-2.462-2.462 3.692-3.692 8.615 8.615-18.462 18.462-8.615-8.615-.001.001z" fill-rule="nonzero" fill="#B70000"/></svg><view id="star" viewBox="436 126 42 42"/><svg width="42" height="42" viewBox="-5 -5 42 42" x="436" y="126"><title>star</title><path d="M23.68 18.987c-.427.427-.64 1.28-.64 1.92l1.493 8.747-7.467-4.053c-.427-.213-.64-.213-1.067-.213s-.853 0-1.067.213l-7.253 4.053 1.493-8.747c.213-.64-.213-1.493-.64-1.92l-6.187-6.4 8.32-1.28c.853-.213 1.493-.64 1.707-1.28l3.627-7.68 3.627 7.68c.427.853 1.067 1.28 1.707 1.28l8.32 1.28-5.973 6.4zm8.107-7.04c-.213-.853-1.067-1.493-1.92-1.493l-8.32-1.28-3.413-7.893c-.427-.853-1.28-1.28-2.133-1.28s-1.707.427-2.133 1.28l-3.627 7.893-8.32 1.28c-.853 0-1.493.64-1.707 1.493-.427.853-.213 1.707.427 2.347l6.187 6.187-1.493 8.747c-.213.853.213 1.707.853 2.347.427.213 1.067.427 1.493.427s.853 0 1.067-.213l7.253-4.053 7.253 4.053c.427.213.64.213 1.067.213s.853-.213 1.28-.427c.64-.427 1.067-1.493.853-2.347l-1.493-8.747 6.187-6.187c.853-.64 1.067-1.493.64-2.347z"/></svg><view id="starRedActive" viewBox="436 0 42 42"/><svg width="42" height="42" viewBox="-5 -5 42 42" x="436"><title>starRedActive</title><path fill="#b70000" d="M31.787 11.947c-.213-.853-1.067-1.493-1.92-1.493l-8.32-1.28-3.413-7.893c-.427-.853-1.28-1.28-2.133-1.28s-1.707.427-2.133 1.28l-3.627 7.893-8.32 1.28c-.853 0-1.493.64-1.707 1.493-.427.853-.213 1.707.427 2.347l6.187 6.187-1.493 8.747c-.213.853.213 1.707.853 2.347.427.213 1.067.427 1.493.427s.853 0 1.067-.213l7.253-4.053 7.253 4.053c.427.213.64.213 1.067.213s.853-.213 1.28-.427c.64-.427 1.067-1.493.853-2.347l-1.493-8.747 6.187-6.187c.853-.64 1.067-1.493.64-2.347z"/></svg><view id="tw" viewBox="436 387.3 26 26"/><svg width="26" height="26" viewBox="-5 -5 26 26" x="436" y="387.3"><style>.dist0{fill:#50abf1}.dist1{fill:#fff}</style><path class="dist0" d="M0 0h16v16H0z"/><path class="dist1" d="M2.1 11.9c1.1.7 2.3 1.1 3.7 1.1 3.8 0 6.9-3.1 6.9-6.9v-.3c.1-.1 1-.8 1.2-1.2 0 0-.7.3-1.4.4.1 0 .9-.6 1.1-1.3 0 0-.5.3-1.2.5-.1 0-.2.1-.4.1-.4-.5-1.1-.8-1.8-.8-1.3 0-2.4 1.1-2.4 2.4 0 .2 0 .4.1.5-.2 0-3-.2-5-2.5 0 0-1.2 1.6.7 3.2 0 0-.6 0-1-.3 0 0-.2 1.9 1.9 2.4 0 0-.4.2-1.1 0 0 0 .4 1.5 2.2 1.7.1-.1-1.4 1.3-3.5 1z"/></svg><view id="up-icon" viewBox="0 138 66.7 66.7"/><svg width="66.7" height="66.7" viewBox="-5 -5 66.7 66.7" y="138"><style>.djst0{opacity:.9;fill:#474344;enable-background:new}.djst1,.djst2{fill-rule:evenodd;clip-rule:evenodd;fill:#fff}.djst2{fill:#b3b3b3}</style><circle class="djst0" cx="28.3" cy="28.3" r="28.3"/><g id="djnext_2_"><path class="djst1" d="M48.7 35.7l-1.2 1.1L28 17.4 8.5 36.8l-1.1-1.1L28 15.2z"/><path class="djst2" d="M41.6 28.7l-1.1 1.1L28 17.4 15.6 29.7l-1.1-1 13.6-13.6z"/></g></svg><view id="user" viewBox="394 252 42 42"/><svg width="42" height="42" viewBox="-5 -5 42 42" x="394" y="252"><title>user</title><path d="M16 22.08c4.96 0 8.96-4.96 8.96-11.04S20.96 0 16 0c-2.4 0-4.8 1.12-6.4 3.36-1.6 2.08-2.56 4.8-2.56 7.68 0 6.08 4 11.04 8.96 11.04zm0-20c3.84 0 7.04 4 7.04 8.96S19.84 20 16 20s-7.04-4-7.04-8.96c0-4.96 3.2-8.96 7.04-8.96zM23.04 20c-.48 0-.96.48-.96.96s.48.96.96.96c3.84 0 7.04 3.2 7.04 7.04 0 .48-.48.96-.96.96H3.04c-.48 0-.96-.48-.96-.96 0-3.84 3.2-7.04 7.04-7.04.48 0 .96-.48.96-.96S9.6 20 8.96 20C4 20 0 24 0 28.96 0 30.56 1.28 32 3.04 32h25.92c1.6 0 3.04-1.28 3.04-3.04C32 24 28 20 23.04 20z"/></svg><view id="userRed" viewBox="352 244 42 42"/><svg width="42" height="42" viewBox="-5 -5 42 42" x="352" y="244"><title>userRed</title><path fill="#b70000" d="M16 22.08c4.96 0 8.96-4.96 8.96-11.04S20.96 0 16 0c-2.4 0-4.8 1.12-6.4 3.36-1.6 2.08-2.56 4.8-2.56 7.68 0 6.08 4 11.04 8.96 11.04zm0-20c3.84 0 7.04 4 7.04 8.96S19.84 20 16 20s-7.04-4-7.04-8.96 3.2-8.96 7.04-8.96zM23.04 20c-.48 0-.96.48-.96.96s.48.96.96.96c3.84 0 7.04 3.2 7.04 7.04 0 .48-.48.96-.96.96H3.04c-.48 0-.96-.48-.96-.96 0-3.84 3.2-7.04 7.04-7.04.48 0 .96-.48.96-.96S9.6 20 8.96 20C4 20 0 24 0 28.96 0 30.56 1.28 32 3.04 32h25.92c1.6 0 3.04-1.28 3.04-3.04C32 24 28 20 23.04 20z"/></svg><view id="userRedActive" viewBox="294 296.5 42 42"/><svg width="42" height="42" viewBox="-5 -5 42 42" x="294" y="296.5"><title>userRedActive</title><path fill="#6b0000" d="M16 22.08c4.96 0 8.96-4.96 8.96-11.04S20.96 0 16 0c-2.4 0-4.8 1.12-6.4 3.36-1.6 2.08-2.56 4.8-2.56 7.68 0 6.08 4 11.04 8.96 11.04zm0-20c3.84 0 7.04 4 7.04 8.96S19.84 20 16 20s-7.04-4-7.04-8.96 3.2-8.96 7.04-8.96zM23.04 20c-.48 0-.96.48-.96.96s.48.96.96.96c3.84 0 7.04 3.2 7.04 7.04 0 .48-.48.96-.96.96H3.04c-.48 0-.96-.48-.96-.96 0-3.84 3.2-7.04 7.04-7.04.48 0 .96-.48.96-.96S9.6 20 8.96 20C4 20 0 24 0 28.96 0 30.56 1.28 32 3.04 32h25.92c1.6 0 3.04-1.28 3.04-3.04C32 24 28 20 23.04 20z"/></svg><view id="userRedHover" viewBox="252 296.5 42 42"/><svg width="42" height="42" viewBox="-5 -5 42 42" x="252" y="296.5"><title>userRedHover</title><path fill="#ff3838" d="M16 22.08c4.96 0 8.96-4.96 8.96-11.04S20.96 0 16 0c-2.4 0-4.8 1.12-6.4 3.36-1.6 2.08-2.56 4.8-2.56 7.68 0 6.08 4 11.04 8.96 11.04zm0-20c3.84 0 7.04 4 7.04 8.96S19.84 20 16 20s-7.04-4-7.04-8.96 3.2-8.96 7.04-8.96zM23.04 20c-.48 0-.96.48-.96.96s.48.96.96.96c3.84 0 7.04 3.2 7.04 7.04 0 .48-.48.96-.96.96H3.04c-.48 0-.96-.48-.96-.96 0-3.84 3.2-7.04 7.04-7.04.48 0 .96-.48.96-.96S9.6 20 8.96 20C4 20 0 24 0 28.96 0 30.56 1.28 32 3.04 32h25.92c1.6 0 3.04-1.28 3.04-3.04C32 24 28 20 23.04 20z"/></svg><view id="video" viewBox="126 296.5 42 42"/><svg width="42" height="42" viewBox="-5 -5 42 42" x="126" y="296.5"><title>video</title><path d="M23.385 14.892l-9.354-6.154c-.246-.123-.492-.246-.738-.246-.615 0-1.108.492-1.108 1.231v12.431c0 .738.492 1.231 1.108 1.231.246 0 .492-.123.738-.246l9.354-6.154c.369-.246.615-.615.615-1.108 0-.369-.246-.738-.615-.985zm-9.477 6.277V10.831L21.785 16l-7.877 5.169z"/><path d="M16 0C7.138 0 0 7.138 0 16s7.138 16 16 16 16-7.138 16-16S24.862 0 16 0zm0 30.154C8.123 30.154 1.846 23.877 1.846 16S8.123 1.846 16 1.846 30.154 8.123 30.154 16 23.877 30.154 16 30.154z"/></svg><view id="videoRed" viewBox="42 296.5 42 42"/><svg width="42" height="42" viewBox="-5 -5 42 42" x="42" y="296.5"><title>video</title><g fill-rule="nonzero" fill="#B70000"><path d="M23.385 14.892l-9.354-6.154c-.246-.123-.492-.246-.738-.246-.615 0-1.108.492-1.108 1.231v12.431c0 .738.492 1.231 1.108 1.231.246 0 .492-.123.738-.246l9.354-6.154c.369-.246.615-.615.615-1.108 0-.369-.246-.738-.615-.985zm-9.477 6.277V10.831L21.785 16l-7.877 5.169z"/><path d="M16 0C7.138 0 0 7.138 0 16s7.138 16 16 16 16-7.138 16-16S24.862 0 16 0zm0 30.154C8.123 30.154 1.846 23.877 1.846 16S8.123 1.846 16 1.846 30.154 8.123 30.154 16 23.877 30.154 16 30.154z"/></g></svg><view id="viewList" viewBox="0 296.5 42 42"/><svg width="42" height="42" viewBox="-5 -5 42 42" y="296.5"><title>viewList</title><path d="M0 0h6.4v6.4H0V0zM12.8 0H32v6.4H12.8V0zM0 12.8h6.4v6.4H0v-6.4zM12.8 12.8H32v6.4H12.8v-6.4zM0 25.6h6.4V32H0v-6.4zM12.8 25.6H32V32H12.8v-6.4z"/></svg><view id="viewListRedActive" viewBox="168 296.5 42 42"/><svg width="42" height="42" viewBox="-5 -5 42 42" x="168" y="296.5"><title>viewListRedActive</title><path fill="#b70000" d="M0 0h6.4v6.4H0V0zM12.8 0H32v6.4H12.8V0z"/><path fill="#950101" d="M0 12.8h6.4v6.4H0v-6.4zM12.8 12.8H32v6.4H12.8v-6.4z"/><path fill="#700101" d="M0 25.6h6.4V32H0v-6.4zM12.8 25.6H32V32H12.8v-6.4z"/></svg><view id="viewTable" viewBox="352 84 42 42"/><svg width="42" height="42" viewBox="-5 -5 42 42" x="352" y="84"><title>viewTable</title><path d="M0 0h6.4v6.4H0V0zM12.8 0h6.4v6.4h-6.4V0zM25.6 0H32v6.4h-6.4V0zM0 12.8h6.4v6.4H0v-6.4zM12.8 12.8h6.4v6.4h-6.4v-6.4zM25.6 12.8H32v6.4h-6.4v-6.4zM0 25.6h6.4V32H0v-6.4zM12.8 25.6h6.4V32h-6.4v-6.4zM25.6 25.6H32V32h-6.4v-6.4z"/></svg><view id="viewTableRedActive" viewBox="352 42 42 42"/><svg width="42" height="42" viewBox="-5 -5 42 42" x="352" y="42"><title>viewTableRedActive</title><path fill="#b70000" d="M0 0h6.4v6.4H0V0zM12.8 0h6.4v6.4h-6.4V0zM25.6 0H32v6.4h-6.4V0z"/><path fill="#950101" d="M0 12.8h6.4v6.4H0v-6.4zM12.8 12.8h6.4v6.4h-6.4v-6.4zM25.6 12.8H32v6.4h-6.4v-6.4z"/><path fill="#700101" d="M0 25.6h6.4V32H0v-6.4zM12.8 25.6h6.4V32h-6.4v-6.4zM25.6 25.6H32V32h-6.4v-6.4z"/></svg><view id="viewed" viewBox="436 208 37.8 25"/><svg width="37.8" height="25" viewBox="-5 -5 37.8 25" x="436" y="208"><path d="M27.2 6.9c-.1-.1-1.4-1.8-3.7-3.4-3-2.3-6.4-3.5-9.6-3.5S7.2 1.2 4.2 3.4C1.9 5.2.6 6.9.5 6.9l-.5.6.5.6c.1.1 1.4 1.8 3.7 3.4 3.1 2.2 6.4 3.4 9.7 3.4 3.2 0 6.6-1.2 9.7-3.4 2.3-1.7 3.6-3.3 3.7-3.4l.5-.6-.6-.6zM22.3 10c-1.9 1.4-4.9 3.1-8.5 3.1S7.2 11.4 5.3 10C4 9.1 3 8.1 2.4 7.5 3 6.9 4 5.9 5.3 5c1.9-1.4 4.9-3.1 8.5-3.1s6.6 1.7 8.5 3.1c1.3.9 2.3 1.9 2.9 2.5-.6.6-1.5 1.6-2.9 2.5z"/><path d="M13.9 3.4c-1 0-1.9.4-2.6.9.6.2 1 .6 1 1.3 0 .7-.6 1.4-1.4 1.4-.4 0-.7-.2-1-.5-.1.4-.1.7-.1 1 0 2.3 1.9 4.1 4.1 4.1 2.3 0 4.1-1.9 4.1-4.1s-1.9-4.1-4.1-4.1z"/></svg><view id="vk" viewBox="173.10000000000002 138 26 26"/><svg width="26" height="26" viewBox="-5 -5 26 26" x="173.10000000000002" y="138"><style>.dvst0{fill:#44678d}.dvst1{fill:#fff}</style><path class="dvst0" d="M0 0h16v16H0z"/><path class="dvst1" d="M4.1 4.9c.4.9.9 1.8 1.6 2.6 0 .1.1.2.3.3.2.1.3.1.4-.1.1-.2.1-.6.1-.8V5.5c0-.3-.1-.7-.7-.7-.2 0-.2-.2-.1-.3.2-.3.5-.3.8-.3h1.6c.2 0 .4 0 .6.1.3-.1.4.1.5.3v2.2c0 .2 0 .5.1.7.1.3.3.4.5.2.3-.3.5-.6.8-.9.4-.6.7-1.3 1-1.9.1-.4.2-.4.6-.4h2.1c.1 0 .3 0 .4.1.2.1.3.2.2.4-.1.5-.4.9-.6 1.2-.4.6-.9 1.2-1.3 1.8-.1.1-.1.2-.2.2-.2.3-.2.5.1.7l1.2 1.2c.3.3.5.6.7 1 .3.4.1.8-.4.9h-2c-.4 0-.8-.1-1.1-.4-.3-.3-.6-.7-.9-1l-.3-.3c-.3-.2-.5-.2-.6.2-.1.3-.2.9-.2 1 0 .3-.2.5-.6.5-1 .1-2-.1-2.8-.5-.9-.5-1.5-1.1-2-1.8-.8-1.1-1.5-2.2-2.1-3.4 0-.1-.6-1.4-.7-1.4-.1-.2 0-.4.2-.5h2.1c.4 0 .6.1.7.5z"/></svg><view id="write" viewBox="436 309.1 25 26.2"/><svg width="25" height="26.2" viewBox="-5 -5 25 26.2" x="436" y="309.1"><path d="M14.8 9.6l-1.2-1.2c-.2-.2-.3-.2-.6-.2-.2 0-.3.1-.5.2l-1 1-3.9 3.9c-.1.1-.1.2-.1.2l-.7 2.3v.1c0 .2.2.4.4.4h.1l2.3-.7c.1 0 .1 0 .2-.1l3.9-3.9 1-1c.1-.1.2-.3.2-.5.1-.2 0-.4-.1-.5zm-5.4 5.1l-1.4.4.4-1.4 3.5-3.5 1 1-3.5 3.5zm4.1-4.1l-1-1L13 9l1 1-.5.6zM8.8 7.6H2c-.2 0-.4.2-.4.4s.2.4.4.4h6.8c.2 0 .4-.2.4-.4s-.2-.4-.4-.4zM9.2 10c0-.2-.2-.4-.4-.4H2c-.2 0-.4.2-.4.4s.2.4.4.4h6.8c.2.1.4-.1.4-.4zM5.1 11.6H2c-.2 0-.4.2-.4.4s.2.4.4.4h3.2c.2 0 .4-.2.4-.4s-.2-.4-.5-.4zM5.1 13.5H2c-.2 0-.4.2-.4.4s.2.4.4.4h3.2c.2 0 .4-.2.4-.4s-.2-.4-.5-.4z"/><path d="M.9 15.3V1C.9.9.9.9 1 .9h3.3v4.7c0 .5.4 1 1 1H10v2.7h.9V5.7L5.1 0H1C.7 0 .5.1.3.3.1.5 0 .7 0 1v14.3c0 .5.4 1 1 1h5.2v-.9l-5.3-.1zm4.2-14l4.4 4.4H5.2c-.1 0-.1 0-.1-.1V1.3z"/></svg></svg>