<?xml version="1.0" encoding="utf-8"?>
<!-- Generator: Adobe Illustrator 20.0.0, SVG Export Plug-In . SVG Version: 6.00 Build 0)  -->
<svg version="1.1" id="Layer_1" xmlns="http://www.w3.org/2000/svg" xmlns:xlink="http://www.w3.org/1999/xlink" x="0px" y="0px"
	 viewBox="0 0 100 100" style="enable-background:new 0 0 100 100;" xml:space="preserve">
<style type="text/css">
	.st0{fill:#333333;}
</style>
<path class="st0" d="M67.5,28.6H32.5c-6.9,0-12.5,5.6-12.5,12.5v17.5c0,6.9,5.6,12.5,12.5,12.5h35.1c6.9,0,12.5-5.6,12.5-12.5V41.1
	C80,34.2,74.4,28.6,67.5,28.6z M59.1,50.7l-16.4,7.8c-0.4,0.2-0.9-0.1-0.9-0.6V41.8c0-0.5,0.5-0.8,1-0.6l16.4,8.3
	C59.6,49.7,59.6,50.4,59.1,50.7z"/>
<g>
	<path class="st0" d="M50-0.2c-27.6,0-50,22.4-50,50s22.4,50,50,50s50-22.4,50-50S77.6-0.2,50-0.2z M50,93.8c-24.3,0-44-19.7-44-44
		s19.7-44,44-44s44,19.7,44,44S74.3,93.8,50,93.8z"/>
</g>
</svg>
