<?xml version="1.0" encoding="UTF-8"?>
<svg xmlns="http://www.w3.org/2000/svg" xmlns:xlink="http://www.w3.org/1999/xlink" version="1.2" >
<font id="Charter Roman">
<font-face  font-family="Charter" units-per-em="2048" ascent="2007" descent="-492" font-style="normal" font-weight="400" font-stretch="normal" cap-height="1536" x-height="1024" underline-position="-223" underline-thickness="125" />
<missing-glyph  horiz-adv-x="1229" d="M102 -362 L102 1444 L1126 1444 L1126 -362 L102 -362 Z M217 -248 L1012 -248 L1012 1329 L217 1329 L217 -248 Z " />
<glyph glyph-name="space" unicode="&#x20;" horiz-adv-x="569" d="" />
<glyph glyph-name="exclam" unicode="&#x21;" horiz-adv-x="692" d="M346 215 Q395 215 429 181 Q463 147 463 98 Q463 50 429 16 Q395 -18 346 -18 Q298 -18 263.5 16 Q229 50 229 98 Q229 147 263.5 181 Q298 215 346 215 Z M453 1133 L395 350 L297 350 L240 1132 Q237 1166 235 1196 Q233 1226 233 1251 Q233 1324 261.5 1361.5 Q290 1399 346 1399 Q401 1399 430 1361.5 Q459 1324 459 1251 Q459 1235 457.5 1206 Q456 1177 453 1133 Z " />
<glyph glyph-name="quotedbl" unicode="&#x22;" horiz-adv-x="678" d="M518 864 L487 864 L422 1321 Q422 1323 421 1327 Q418 1349 418 1360 Q418 1409 440.5 1435.5 Q463 1462 504 1462 Q544 1462 566 1436 Q588 1410 588 1362 Q588 1348 587.5 1339 Q587 1330 586 1321 L518 864 Z M190 864 L158 864 L94 1321 Q92 1338 91 1347 Q90 1356 90 1362 Q90 1410 112 1436 Q134 1462 174 1462 Q215 1462 237.5 1436 Q260 1410 260 1362 Q260 1353 257 1328 Q256 1323 256 1321 L190 864 Z " />
<glyph glyph-name="numbersign" unicode="&#x23;" horiz-adv-x="1526" d="M662 866 L561 567 L866 567 L971 866 L662 866 Z M758 1454 L854 1417 L692 963 L1008 963 L1171 1452 L1268 1417 L1108 963 L1393 963 L1393 866 L1075 866 L975 567 L1309 567 L1309 471 L942 471 L770 -47 L674 -14 L838 471 L524 471 L354 -47 L258 -14 L426 471 L131 471 L131 567 L457 567 L555 866 L231 866 L231 963 L588 963 L758 1454 Z " />
<glyph glyph-name="dollar" unicode="&#x24;" horiz-adv-x="1139" d="M621 602 L621 102 Q726 119 788 187.5 Q850 256 850 356 Q850 446 792.5 507 Q735 568 621 602 Z M530 1274 Q435 1253 382.5 1191 Q330 1129 330 1038 Q330 952 379.5 893.5 Q429 835 530 803 L530 1274 Z M530 1522 L616 1522 L616 1376 L633 1376 Q700 1376 782 1365 Q864 1354 963 1331 L963 1012 L870 1012 L840 1202 L809 1245 Q761 1263 713 1271.5 Q665 1280 616 1280 L616 778 Q835 719 927.5 630 Q1020 541 1020 393 Q1020 245 912 139 Q804 33 616 0 L616 -209 L530 -209 L530 0 Q406 4 302 17 Q198 30 119 51 L119 395 L213 395 L250 172 L268 145 Q321 120 386.5 107 Q452 94 530 94 L530 629 Q343 672 249.5 765 Q156 858 156 1001 Q156 1145 255 1242.5 Q354 1340 530 1370 L530 1522 Z " />
<glyph glyph-name="percent" unicode="&#x25;" horiz-adv-x="1745" d="M1370 762 Q1293 762 1251.5 670.5 Q1210 579 1210 406 Q1210 230 1250.5 139.5 Q1291 49 1370 49 Q1451 49 1492.5 139.5 Q1534 230 1534 406 Q1534 579 1492 670.5 Q1450 762 1370 762 Z M1374 834 Q1516 834 1598.5 719 Q1681 604 1681 406 Q1681 205 1599 90 Q1517 -25 1374 -25 Q1231 -25 1149 89.5 Q1067 204 1067 406 Q1067 604 1150 719 Q1233 834 1374 834 Z M367 1325 Q289 1325 248 1234.5 Q207 1144 207 971 Q207 795 247.5 704.5 Q288 614 367 614 Q447 614 488.5 705 Q530 796 530 971 Q530 1144 488.5 1234.5 Q447 1325 367 1325 Z M1245 1374 L1370 1374 L494 0 L371 0 L1245 1374 Z M371 1399 Q512 1399 595 1284 Q678 1169 678 971 Q678 770 595.5 655.5 Q513 541 371 541 Q228 541 145.5 655 Q63 769 63 971 Q63 1169 146 1284 Q229 1399 371 1399 Z " />
<glyph glyph-name="ampersand" unicode="&#x26;" horiz-adv-x="1442" d="M457 686 Q373 629 335 566 Q297 503 297 422 Q297 281 382 189.5 Q467 98 598 98 Q677 98 747 128.5 Q817 159 883 221 L457 686 Z M637 731 L989 350 Q1038 420 1066 479 Q1094 538 1104 592 L1067 631 L954 647 L954 729 L1370 729 L1370 647 L1223 627 Q1194 528 1151.5 441 Q1109 354 1053 279 L1212 94 L1399 84 L1399 0 L1038 0 L1038 49 L946 152 Q843 63 744 19 Q645 -25 545 -25 Q356 -25 232.5 90 Q109 205 109 379 Q109 501 176 592.5 Q243 684 379 745 Q290 833 250.5 907 Q211 981 211 1059 Q211 1202 318 1300.5 Q425 1399 584 1399 Q739 1399 837.5 1312 Q936 1225 936 1092 Q936 973 867 889.5 Q798 806 637 731 Z M565 799 Q670 847 718 915 Q766 983 766 1081 Q766 1183 711.5 1244 Q657 1305 565 1305 Q483 1305 429 1248 Q375 1191 375 1104 Q375 1031 418 961 Q461 891 565 799 Z " />
<glyph glyph-name="quotesingle" unicode="&#x27;" horiz-adv-x="348" d="M190 864 L158 864 L92 1321 Q91 1329 90.5 1337 Q90 1345 90 1360 Q90 1410 111.5 1436 Q133 1462 174 1462 Q215 1462 237.5 1436 Q260 1410 260 1362 Q260 1353 257 1328 Q256 1323 256 1321 L190 864 Z " />
<glyph glyph-name="parenleft" unicode="&#x28;" horiz-adv-x="854" d="M791 1470 L791 1384 Q585 1348 488 1153.5 Q391 959 391 582 Q391 216 489 23 Q587 -170 791 -205 L791 -291 Q518 -259 367.5 -30.5 Q217 198 217 584 Q217 978 365.5 1207 Q514 1436 791 1470 Z " />
<glyph glyph-name="parenright" unicode="&#x29;" horiz-adv-x="854" d="M63 1470 Q340 1436 488.5 1207 Q637 978 637 584 Q637 198 486.5 -30.5 Q336 -259 63 -291 L63 -205 Q267 -170 365 23 Q463 216 463 582 Q463 959 366 1153.5 Q269 1348 63 1384 L63 1470 Z " />
<glyph glyph-name="asterisk" unicode="&#x2a;" horiz-adv-x="1024" d="M252 1206 L475 1063 L467 1038 L203 1055 L111 1169 L252 1206 Z M479 1006 L500 991 L403 743 L266 692 L274 840 L479 1006 Z M545 1006 L748 840 L756 692 L618 745 L522 991 L545 1006 Z M772 1206 L915 1169 L821 1055 L559 1038 L551 1065 L772 1206 Z M512 1470 L592 1346 L526 1090 L498 1090 L432 1346 L512 1470 Z " />
<glyph glyph-name="plus" unicode="&#x2b;" horiz-adv-x="1706" d="M795 1221 L913 1221 L913 670 L1452 670 L1452 553 L913 553 L913 0 L795 0 L795 553 L254 553 L254 670 L795 670 L795 1221 Z " />
<glyph glyph-name="comma" unicode="&#x2c;" horiz-adv-x="569" d="M80 -346 L80 -279 Q192 -257 248.5 -189 Q305 -121 305 -8 L305 14 L174 14 Q157 33 149 55 Q141 77 141 104 Q141 154 175 185.5 Q209 217 262 217 Q340 217 383 163.5 Q426 110 426 12 Q426 -125 328 -227.5 Q230 -330 80 -346 Z " />
<glyph glyph-name="hyphen" unicode="&#x2d;" horiz-adv-x="653" d="M96 561 L557 561 L557 424 L96 424 L96 561 Z " />
<glyph glyph-name="period" unicode="&#x2e;" horiz-adv-x="569" d="M285 242 Q339 242 376.5 204 Q414 166 414 111 Q414 57 376 19.5 Q338 -18 285 -18 Q230 -18 192 19 Q154 56 154 111 Q154 165 192 203.5 Q230 242 285 242 Z " />
<glyph glyph-name="slash" unicode="&#x2f;" horiz-adv-x="985" d="M817 1374 L942 1374 L66 -190 L-57 -190 L817 1374 Z " />
<glyph glyph-name="zero" unicode="0" horiz-adv-x="1139" d="M569 1303 Q426 1303 351 1145.5 Q276 988 276 686 Q276 386 351 230 Q426 74 569 74 Q712 74 786 230.5 Q860 387 860 688 Q860 990 786 1146.5 Q712 1303 569 1303 Z M569 1399 Q795 1399 925 1209 Q1055 1019 1055 688 Q1055 356 924.5 165.5 Q794 -25 569 -25 Q345 -25 214.5 165.5 Q84 356 84 688 Q84 1019 214 1209 Q344 1399 569 1399 Z " />
<glyph glyph-name="one" unicode="1" horiz-adv-x="1139" d="M637 1399 L694 1399 L694 127 L719 96 L940 86 L940 0 L254 0 L254 88 L489 100 L514 135 L514 1237 L193 1180 L193 1266 L637 1399 Z " />
<glyph glyph-name="two" unicode="2" horiz-adv-x="1139" d="M289 162 L905 162 L942 336 L1034 336 L1034 0 L86 0 L86 129 Q534 493 662.5 660 Q791 827 791 985 Q791 1130 718.5 1212 Q646 1294 518 1294 Q470 1294 425 1282 Q380 1270 336 1245 L336 1026 Q314 1011 291 1003 Q268 995 244 995 Q191 995 160 1026 Q129 1057 129 1110 Q129 1225 256.5 1312 Q384 1399 563 1399 Q758 1399 873.5 1293.5 Q989 1188 989 1012 Q989 850 848.5 673 Q708 496 289 162 Z " />
<glyph glyph-name="three" unicode="3" horiz-adv-x="1139" d="M649 723 Q817 711 912.5 623 Q1008 535 1008 393 Q1008 214 862.5 95.5 Q717 -23 489 -23 Q322 -23 203 46 Q84 115 84 203 Q84 247 117 277 Q150 307 199 307 Q216 307 231 304.5 Q246 302 260 297 L324 123 Q365 98 408.5 86 Q452 74 498 74 Q636 74 727.5 166.5 Q819 259 819 397 Q819 520 740.5 586.5 Q662 653 516 653 Q488 653 460.5 651 Q433 649 408 645 L408 766 Q415 766 429 765 Q443 764 451 764 Q603 764 685.5 833 Q768 902 768 1028 Q768 1149 697 1221.5 Q626 1294 508 1294 Q453 1294 405 1279.5 Q357 1265 313 1235 L313 1042 Q295 1029 274.5 1022.5 Q254 1016 229 1016 Q180 1016 149.5 1046.5 Q119 1077 119 1126 Q119 1236 245 1317.5 Q371 1399 551 1399 Q734 1399 844 1305 Q954 1211 954 1055 Q954 935 876 850.5 Q798 766 649 723 Z " />
<glyph glyph-name="four" unicode="4" horiz-adv-x="1139" d="M715 1163 L209 530 L715 530 L715 1163 Z M754 1386 L872 1386 L872 530 L1104 530 L1104 397 L872 397 L872 -76 L715 -76 L715 397 L55 397 L55 530 L754 1386 Z " />
<glyph glyph-name="five" unicode="5" horiz-adv-x="1139" d="M207 1374 L940 1374 L940 1214 L334 1214 L334 805 Q392 821 447 829.5 Q502 838 553 838 Q756 838 878.5 730 Q1001 622 1001 444 Q1001 240 850 111 Q699 -18 455 -18 Q305 -18 203.5 38.5 Q102 95 102 174 Q102 222 135.5 252.5 Q169 283 221 283 Q230 283 242 281.5 Q254 280 271 276 L352 100 Q386 88 420.5 82 Q455 76 489 76 Q632 76 722.5 167.5 Q813 259 813 403 Q813 559 708.5 635 Q604 711 387 711 Q330 711 285.5 708 Q241 705 207 698 L207 1374 Z " />
<glyph glyph-name="six" unicode="6" horiz-adv-x="1139" d="M297 696 Q295 674 294 647.5 Q293 621 293 571 Q293 331 371 202.5 Q449 74 596 74 Q724 74 806.5 179 Q889 284 889 446 Q889 602 808 695 Q727 788 594 788 Q509 788 434.5 765 Q360 742 297 696 Z M907 1462 L907 1343 L901 1343 Q655 1343 502 1201.5 Q349 1060 301 786 Q381 848 469.5 879.5 Q558 911 649 911 Q834 911 954.5 784.5 Q1075 658 1075 465 Q1075 257 932.5 116 Q790 -25 580 -25 Q365 -25 233.5 137 Q102 299 102 567 Q102 961 316.5 1199.5 Q531 1438 907 1462 Z " />
<glyph glyph-name="seven" unicode="7" horiz-adv-x="1139" d="M145 1374 L1087 1374 L1087 1292 L408 -31 L408 -76 L238 -76 L905 1219 L274 1219 L242 1032 L145 1032 L145 1374 Z " />
<glyph glyph-name="eight" unicode="8" horiz-adv-x="1139" d="M449 674 Q343 618 295.5 547 Q248 476 248 375 Q248 238 335.5 156 Q423 74 569 74 Q700 74 780 149 Q860 224 860 346 Q860 445 785 510.5 Q710 576 449 674 Z M743 719 Q886 669 961 578.5 Q1036 488 1036 367 Q1036 197 902.5 82 Q769 -33 563 -33 Q348 -33 219 75.5 Q90 184 90 362 Q90 485 161 574 Q232 663 371 717 Q265 761 210.5 841.5 Q156 922 156 1032 Q156 1197 273.5 1300 Q391 1403 580 1403 Q759 1403 869 1307.5 Q979 1212 979 1059 Q979 956 917.5 867 Q856 778 743 719 Z M657 756 Q735 807 778 881 Q821 955 821 1038 Q821 1160 754 1232.5 Q687 1305 573 1305 Q468 1305 397 1235 Q326 1165 326 1063 Q326 965 405 891.5 Q484 818 657 756 Z " />
<glyph glyph-name="nine" unicode="9" horiz-adv-x="1139" d="M258 -106 L211 -12 Q451 100 600 238.5 Q749 377 815 551 Q729 511 652 491 Q575 471 508 471 Q320 471 204 592.5 Q88 714 88 911 Q88 1124 228 1259.5 Q368 1395 588 1395 Q804 1395 926.5 1256 Q1049 1117 1049 870 Q1049 558 837.5 296 Q626 34 258 -106 Z M842 653 Q854 707 860 759 Q866 811 866 860 Q866 1071 789 1184.5 Q712 1298 569 1298 Q440 1298 360.5 1198 Q281 1098 281 934 Q281 764 359.5 673 Q438 582 584 582 Q643 582 707.5 599.5 Q772 617 842 653 Z " />
<glyph glyph-name="colon" unicode="&#x3a;" horiz-adv-x="653" d="M326 242 Q380 242 418.5 203.5 Q457 165 457 111 Q457 57 418.5 19.5 Q380 -18 326 -18 Q271 -18 234 19 Q197 56 197 111 Q197 166 234.5 204 Q272 242 326 242 Z M326 985 Q380 985 418.5 947.5 Q457 910 457 856 Q457 802 418 763.5 Q379 725 326 725 Q272 725 234.5 763.5 Q197 802 197 856 Q197 911 234 948 Q271 985 326 985 Z " />
<glyph glyph-name="semicolon" unicode="&#x3b;" horiz-adv-x="653" d="M133 -346 L133 -279 Q245 -257 301.5 -189 Q358 -121 358 -8 L358 14 L225 14 Q209 33 201 55 Q193 77 193 104 Q193 154 226.5 185.5 Q260 217 313 217 Q391 217 434 163.5 Q477 110 477 12 Q477 -125 380 -227.5 Q283 -330 133 -346 Z M326 985 Q380 985 418.5 947.5 Q457 910 457 856 Q457 802 418 763.5 Q379 725 326 725 Q272 725 234.5 763.5 Q197 802 197 856 Q197 911 234 948 Q271 985 326 985 Z " />
<glyph glyph-name="less" unicode="&#x3c;" horiz-adv-x="1706" d="M1442 1145 L1442 1018 L442 610 L1442 205 L1442 76 L264 559 L264 662 L1442 1145 Z " />
<glyph glyph-name="equal" unicode="&#x3d;" horiz-adv-x="1706" d="M254 477 L1452 477 L1452 360 L254 360 L254 477 Z M254 860 L1452 860 L1452 743 L254 743 L254 860 Z " />
<glyph glyph-name="greater" unicode="&#x3e;" horiz-adv-x="1706" d="M264 1145 L1442 662 L1442 559 L264 76 L264 205 L1264 610 L264 1018 L264 1145 Z " />
<glyph glyph-name="question" unicode="&#x3f;" horiz-adv-x="995" d="M410 215 Q459 215 493.5 181 Q528 147 528 98 Q528 50 493 16 Q458 -18 410 -18 Q362 -18 328.5 15.5 Q295 49 295 98 Q295 147 328.5 181 Q362 215 410 215 Z M465 590 L465 350 L356 350 L356 649 Q504 705 578.5 797 Q653 889 653 1016 Q653 1153 578 1229 Q503 1305 367 1305 L354 1305 L272 1102 Q266 1101 258.5 1100.5 Q251 1100 236 1100 Q177 1100 145 1128.5 Q113 1157 113 1208 Q113 1289 198 1344 Q283 1399 414 1399 Q608 1399 724 1297.5 Q840 1196 840 1028 Q840 886 748.5 779.5 Q657 673 465 590 Z " />
<glyph glyph-name="at" unicode="&#x40;" horiz-adv-x="1929" d="M1133 921 Q1117 924 1106 925 Q1095 926 1087 926 Q943 926 845.5 795.5 Q748 665 748 469 Q748 359 791.5 300.5 Q835 242 918 242 Q972 242 1025 275 Q1078 308 1133 377 L1217 807 L1133 921 Z M1432 999 Q1410 944 1385 821 Q1379 794 1376 780 L1296 428 Q1288 393 1284 364.5 Q1280 336 1280 315 Q1280 276 1303.5 251.5 Q1327 227 1366 227 Q1409 227 1456.5 255 Q1504 283 1546 334 Q1614 414 1652 529 Q1690 644 1690 772 Q1690 1016 1527.5 1172.5 Q1365 1329 1110 1329 Q943 1329 804 1277.5 Q665 1226 555 1124 Q427 1006 364 858 Q301 710 301 528 Q301 193 501.5 -10 Q702 -213 1032 -213 Q1172 -213 1308 -175 Q1444 -137 1571 -63 L1599 -133 Q1440 -222 1282 -267.5 Q1124 -313 977 -313 Q805 -313 654 -254.5 Q503 -196 385 -82 Q271 27 213.5 175 Q156 323 156 504 Q156 707 230.5 877.5 Q305 1048 453 1184 Q574 1294 739.5 1355.5 Q905 1417 1081 1417 Q1403 1417 1593.5 1239 Q1784 1061 1784 764 Q1784 651 1755 550 Q1726 449 1669 360 Q1596 247 1489.5 180 Q1383 113 1280 113 Q1206 113 1167 153 Q1128 193 1128 270 L1128 289 Q1044 201 970 159 Q896 117 827 117 Q715 117 644 207.5 Q573 298 573 444 Q573 540 602.5 629 Q632 718 688 795 Q762 894 867.5 951 Q973 1008 1083 1008 Q1132 1008 1181.5 994 Q1231 980 1284 952 L1321 999 L1432 999 Z " />
<glyph glyph-name="A" unicode="A" horiz-adv-x="1309" d="M614 1176 L412 608 L825 608 L614 1176 Z M582 1391 L717 1391 L1208 109 L1331 84 L1331 0 L866 0 L866 84 L993 94 L1008 123 L860 514 L377 514 L231 123 L252 94 L385 84 L385 0 L-16 0 L-16 84 L102 109 L582 1391 Z " />
<glyph glyph-name="B" unicode="B" horiz-adv-x="1237" d="M404 102 Q441 99 475 97.5 Q509 96 541 96 Q751 96 846.5 165.5 Q942 235 942 387 Q942 526 858.5 594 Q775 662 604 662 Q564 662 513.5 658.5 Q463 655 403 649 L404 102 Z M404 752 Q417 751 433.5 750.5 Q450 750 481 750 Q675 750 765.5 818.5 Q856 887 856 1034 Q856 1159 772 1221.5 Q688 1284 520 1284 Q505 1284 466.5 1281.5 Q428 1279 403 1278 L404 752 Z M68 1374 L590 1374 Q827 1374 943 1292 Q1059 1210 1059 1042 Q1059 926 984.5 847.5 Q910 769 762 729 Q942 727 1042.5 640.5 Q1143 554 1143 401 Q1143 206 1005.5 103 Q868 0 608 0 L68 0 L68 84 L184 94 L219 123 L219 1251 L184 1280 L68 1292 L68 1374 Z " />
<glyph glyph-name="C" unicode="C" horiz-adv-x="1294" d="M1204 47 Q1103 12 998 -6.5 Q893 -25 791 -25 Q690 -25 602 -4 Q514 17 442 57 Q277 151 182.5 319.5 Q88 488 88 688 Q88 1008 283.5 1203.5 Q479 1399 799 1399 Q891 1399 992.5 1381.5 Q1094 1364 1204 1329 L1204 1014 L1090 1014 L1059 1200 L1032 1237 Q973 1264 917 1277 Q861 1290 803 1290 Q571 1290 435 1132 Q299 974 299 702 Q299 413 441 248.5 Q583 84 834 84 Q878 84 922.5 90.5 Q967 97 1012 111 L1044 143 L1094 371 L1204 371 L1204 47 Z " />
<glyph glyph-name="D" unicode="D" horiz-adv-x="1419" d="M403 1280 L403 94 L565 94 Q845 94 983.5 241.5 Q1122 389 1122 688 Q1122 987 984.5 1133.5 Q847 1280 565 1280 L403 1280 Z M573 1374 Q933 1374 1131 1194.5 Q1329 1015 1329 688 Q1329 506 1264.5 364.5 Q1200 223 1073 127 Q983 59 870 29.5 Q757 0 573 0 L68 0 L68 84 L184 94 L219 123 L219 1251 L184 1280 L68 1292 L68 1374 L573 1374 Z " />
<glyph glyph-name="E" unicode="E" horiz-adv-x="1180" d="M68 0 L68 84 L184 94 L219 123 L219 1251 L184 1280 L68 1292 L68 1374 L1049 1374 L1049 1075 L934 1075 L905 1249 L877 1280 L403 1280 L403 762 L739 762 L768 791 L788 940 L885 940 L885 489 L788 489 L768 637 L739 668 L403 668 L403 94 L952 94 L981 127 L1016 334 L1122 334 L1122 0 L68 0 Z " />
<glyph glyph-name="F" unicode="F" horiz-adv-x="1100" d="M68 0 L68 84 L184 94 L219 123 L219 1251 L184 1280 L51 1292 L51 1374 L1034 1374 L1034 1055 L922 1055 L891 1249 L864 1280 L403 1280 L403 741 L739 741 L768 770 L788 920 L885 920 L885 467 L788 467 L768 616 L739 647 L403 647 L403 123 L438 94 L584 84 L584 0 L68 0 Z " />
<glyph glyph-name="G" unicode="G" horiz-adv-x="1421" d="M854 659 L1366 659 L1366 575 L1253 565 L1219 537 L1219 47 Q1095 11 989.5 -7 Q884 -25 795 -25 Q693 -25 603.5 -4 Q514 17 442 57 Q277 151 182.5 319 Q88 487 88 688 Q88 1014 287 1206.5 Q486 1399 823 1399 Q916 1399 1015 1384 Q1114 1369 1217 1339 L1217 1014 L1102 1014 L1071 1200 L1042 1237 Q984 1264 926.5 1277 Q869 1290 809 1290 Q572 1290 435.5 1133 Q299 976 299 702 Q299 415 440.5 249.5 Q582 84 825 84 Q872 84 924.5 90.5 Q977 97 1034 111 L1034 537 L999 565 L854 575 L854 659 Z " />
<glyph glyph-name="H" unicode="H" horiz-adv-x="1511" d="M68 1374 L565 1374 L565 1292 L438 1280 L403 1251 L403 768 L1108 768 L1108 1251 L1073 1280 L946 1292 L946 1374 L1444 1374 L1444 1292 L1327 1280 L1292 1251 L1292 123 L1327 94 L1444 84 L1444 0 L946 0 L946 84 L1073 94 L1108 123 L1108 674 L403 674 L403 123 L438 94 L565 84 L565 0 L68 0 L68 84 L184 94 L219 123 L219 1251 L184 1280 L68 1292 L68 1374 Z " />
<glyph glyph-name="I" unicode="I" horiz-adv-x="664" d="M72 0 L72 84 L203 94 L238 123 L238 1251 L203 1280 L72 1292 L72 1374 L592 1374 L592 1292 L461 1280 L426 1251 L426 123 L461 94 L592 84 L592 0 L72 0 Z " />
<glyph glyph-name="J" unicode="J" horiz-adv-x="909" d="M555 1251 L520 1280 L383 1292 L383 1374 L901 1374 L901 1292 L774 1280 L739 1251 L739 524 Q739 240 631 107.5 Q523 -25 293 -25 Q229 -25 162.5 -12.5 Q96 0 25 25 L25 367 L139 367 L188 109 L217 82 Q235 78 253 76 Q271 74 289 74 Q428 74 491.5 178 Q555 282 555 516 L555 1251 Z " />
<glyph glyph-name="K" unicode="K" horiz-adv-x="1251" d="M68 0 L68 84 L184 94 L219 123 L219 1251 L184 1280 L68 1292 L68 1374 L565 1374 L565 1292 L438 1280 L403 1251 L403 696 L481 696 L936 1251 L924 1280 L809 1292 L809 1374 L1235 1374 L1235 1292 L1100 1274 L670 762 L1135 94 L1284 84 L1284 0 L946 0 L946 61 L555 612 L403 612 L403 123 L438 94 L565 84 L565 0 L68 0 Z " />
<glyph glyph-name="L" unicode="L" horiz-adv-x="1065" d="M55 0 L55 84 L184 94 L219 123 L219 1251 L184 1280 L55 1292 L55 1374 L555 1374 L555 1292 L438 1280 L403 1251 L403 94 L866 94 L895 127 L930 373 L1036 373 L1036 0 L55 0 Z " />
<glyph glyph-name="M" unicode="M" horiz-adv-x="1774" d="M63 0 L63 84 L186 100 L223 139 L223 1251 L197 1280 L61 1292 L61 1374 L496 1374 L496 1319 L881 291 L1270 1311 L1270 1374 L1708 1374 L1708 1292 L1579 1280 L1554 1251 L1554 123 L1579 94 L1708 84 L1708 0 L1219 0 L1219 84 L1354 94 L1374 123 L1374 1278 L889 0 L801 0 L334 1257 L334 139 L371 100 L496 84 L496 0 L63 0 Z " />
<glyph glyph-name="N" unicode="N" horiz-adv-x="1460" d="M59 0 L59 84 L184 100 L221 139 L221 1251 L184 1280 L53 1292 L53 1374 L438 1374 L438 1323 L1137 274 L1137 1237 L1100 1274 L977 1292 L977 1374 L1407 1374 L1407 1292 L1284 1274 L1247 1237 L1247 0 L1112 0 L332 1163 L332 139 L369 100 L492 84 L492 0 L59 0 Z " />
<glyph glyph-name="O" unicode="O" horiz-adv-x="1497" d="M750 1298 Q544 1298 422.5 1133.5 Q301 969 301 688 Q301 408 423.5 242 Q546 76 750 76 Q952 76 1074 242.5 Q1196 409 1196 688 Q1196 967 1074 1132.5 Q952 1298 750 1298 Z M750 1409 Q881 1409 994 1364 Q1107 1319 1200 1229 Q1304 1128 1357.5 991 Q1411 854 1411 688 Q1411 574 1385 473 Q1359 372 1307 283 Q1220 134 1073 50.5 Q926 -33 750 -33 Q619 -33 503.5 12 Q388 57 299 143 Q195 244 141.5 382 Q88 520 88 688 Q88 855 141 992 Q194 1129 297 1229 Q389 1318 503.5 1363.5 Q618 1409 750 1409 Z " />
<glyph glyph-name="P" unicode="P" horiz-adv-x="1143" d="M403 625 Q459 619 489.5 616.5 Q520 614 539 614 Q714 614 805.5 703 Q897 792 897 961 Q897 1124 802.5 1202 Q708 1280 510 1280 Q468 1280 445.5 1279 Q423 1278 403 1276 L403 625 Z M68 0 L68 84 L184 94 L219 123 L219 1251 L184 1280 L51 1292 L51 1374 L518 1374 Q826 1374 956.5 1277 Q1087 1180 1087 956 Q1087 756 943.5 636 Q800 516 557 516 Q532 516 496 518.5 Q460 521 404 526 L403 123 L438 94 L584 84 L584 0 L68 0 Z " />
<glyph glyph-name="Q" unicode="Q" horiz-adv-x="1497" d="M750 80 Q956 80 1079 245.5 Q1202 411 1202 690 Q1202 971 1079 1135.5 Q956 1300 750 1300 Q541 1300 419 1136 Q297 972 297 690 Q297 411 420.5 245.5 Q544 80 750 80 Z M848 -23 Q853 -145 925.5 -205.5 Q998 -266 1139 -266 Q1185 -266 1232.5 -260.5 Q1280 -255 1331 -244 L1331 -328 Q1253 -344 1180.5 -352 Q1108 -360 1042 -360 Q846 -360 749.5 -276.5 Q653 -193 653 -23 Q389 17 234.5 209 Q80 401 80 690 Q80 858 134.5 995.5 Q189 1133 295 1233 Q387 1321 502.5 1366 Q618 1411 750 1411 Q882 1411 998 1365.5 Q1114 1320 1206 1233 Q1311 1133 1365 995 Q1419 857 1419 690 Q1419 403 1265.5 212 Q1112 21 848 -23 Z " />
<glyph glyph-name="R" unicode="R" horiz-adv-x="1323" d="M403 1280 L403 709 Q434 708 462 707.5 Q490 707 516 707 Q706 707 792.5 774 Q879 841 879 989 Q879 1142 790 1211 Q701 1280 502 1280 L403 1280 Z M68 1374 L590 1374 Q841 1374 962 1283.5 Q1083 1193 1083 1006 Q1083 873 1000 787.5 Q917 702 752 666 Q829 645 881 611.5 Q933 578 963 528 Q997 473 1021 366.5 Q1045 260 1059 225 Q1090 141 1144 110.5 Q1198 80 1325 80 L1343 80 L1343 2 Q1297 -7 1258 -11.5 Q1219 -16 1184 -16 Q1113 -16 1062.5 -1.5 Q1012 13 977 43 Q904 107 856 293 Q838 360 827 393 Q786 518 716.5 566 Q647 614 506 614 Q476 614 410 611 L403 610 L403 123 L438 94 L555 84 L555 0 L68 0 L68 84 L184 94 L219 123 L219 1251 L184 1280 L68 1292 L68 1374 Z " />
<glyph glyph-name="S" unicode="S" horiz-adv-x="1139" d="M123 41 L123 401 L244 401 L268 166 L295 131 Q340 108 398 96 Q456 84 524 84 Q667 84 750.5 150.5 Q834 217 834 330 Q834 487 540 612 Q508 626 491 633 Q281 724 213 802.5 Q145 881 145 1006 Q145 1182 274.5 1290.5 Q404 1399 618 1399 Q704 1399 790.5 1384.5 Q877 1370 967 1341 L967 1024 L860 1024 L829 1219 L799 1253 Q760 1275 714 1285.5 Q668 1296 614 1296 Q486 1296 411 1229.5 Q336 1163 336 1049 Q336 966 388.5 911.5 Q441 857 623 780 Q640 773 674 760 Q853 690 932 612 Q977 568 999.5 511 Q1022 454 1022 387 Q1022 202 877 88.5 Q732 -25 492 -25 Q385 -25 290.5 -8 Q196 9 123 41 Z " />
<glyph glyph-name="T" unicode="T" horiz-adv-x="1223" d="M33 1374 L1190 1374 L1190 1059 L1077 1059 L1049 1249 L1020 1280 L707 1280 L707 123 L741 94 L879 84 L879 0 L344 0 L344 84 L481 94 L516 123 L516 1280 L203 1280 L174 1249 L145 1059 L33 1059 L33 1374 Z " />
<glyph glyph-name="U" unicode="U" horiz-adv-x="1421" d="M51 1374 L553 1374 L553 1292 L426 1280 L391 1251 L391 510 Q391 295 477.5 198.5 Q564 102 756 102 Q946 102 1033 199.5 Q1120 297 1120 510 L1120 1237 L1081 1274 L958 1292 L958 1374 L1391 1374 L1391 1292 L1268 1274 L1231 1237 L1231 492 Q1231 345 1210 267 Q1189 189 1141 131 Q1080 58 968.5 16.5 Q857 -25 717 -25 Q576 -25 465 16.5 Q354 58 293 131 Q244 190 223.5 267 Q203 344 203 492 L203 1251 L168 1280 L51 1292 L51 1374 Z " />
<glyph glyph-name="V" unicode="V" horiz-adv-x="1266" d="M-47 1374 L430 1374 L430 1292 L311 1280 L289 1251 L674 219 L1044 1251 L1024 1280 L897 1292 L897 1374 L1305 1374 L1305 1292 L1178 1268 L707 -10 L565 -10 L84 1268 L-47 1292 L-47 1374 Z " />
<glyph glyph-name="W" unicode="W" horiz-adv-x="1901" d="M473 0 L129 1264 L0 1292 L0 1374 L459 1374 L459 1292 L330 1276 L313 1247 L578 301 L907 1374 L1051 1374 L1386 279 L1634 1239 L1612 1268 L1475 1292 L1475 1374 L1898 1374 L1898 1292 L1761 1264 L1436 0 L1296 0 L950 1120 L610 0 L473 0 Z " />
<glyph glyph-name="X" unicode="X" horiz-adv-x="1229" d="M23 1374 L516 1374 L516 1292 L393 1280 L377 1255 L645 834 L936 1247 L918 1274 L799 1292 L799 1374 L1217 1374 L1217 1292 L1085 1272 L711 737 L1108 109 L1247 84 L1247 0 L729 0 L729 84 L866 98 L881 127 L592 592 L268 133 L281 96 L418 84 L418 0 L-18 0 L-18 84 L117 111 L528 686 L158 1266 L23 1292 L23 1374 Z " />
<glyph glyph-name="Y" unicode="Y" horiz-adv-x="1200" d="M-27 1374 L449 1374 L449 1292 L332 1280 L311 1257 L625 694 L969 1241 L950 1270 L825 1292 L825 1374 L1243 1374 L1243 1292 L1118 1266 L692 584 L692 123 L725 94 L864 84 L864 0 L334 0 L334 84 L473 94 L506 123 L506 557 L98 1272 L-27 1292 L-27 1374 Z " />
<glyph glyph-name="Z" unicode="Z" horiz-adv-x="1200" d="M137 1374 L1094 1374 L1094 1288 L315 100 L934 100 L956 127 L993 371 L1104 371 L1104 0 L92 0 L92 84 L868 1276 L322 1276 L283 1249 L250 1057 L137 1057 L137 1374 Z " />
<glyph glyph-name="bracketleft" unicode="&#x5b;" horiz-adv-x="862" d="M285 1450 L770 1450 L770 1362 L446 1362 L446 -184 L770 -184 L770 -270 L285 -270 L285 1450 Z " />
<glyph glyph-name="backslash" unicode="&#x5c;" horiz-adv-x="985" d="M27 1374 L152 1374 L1028 -190 L903 -190 L27 1374 Z " />
<glyph glyph-name="bracketright" unicode="&#x5d;" horiz-adv-x="862" d="M94 1450 L578 1450 L578 -272 L94 -272 L94 -184 L418 -184 L418 1362 L94 1362 L94 1450 Z " />
<glyph glyph-name="asciicircum" unicode="&#x5e;" horiz-adv-x="2048" d="M934 1462 L1112 1462 L1632 897 L1540 897 L1022 1333 L502 897 L412 897 L934 1462 Z " />
<glyph glyph-name="underscore" unicode="&#x5f;" horiz-adv-x="1024" d="M0 -365 L1024 -365 L1024 -483 L0 -483 L0 -365 Z " />
<glyph glyph-name="grave" unicode="&#x60;" horiz-adv-x="1024" d="M213 1507 L416 1507 L614 1118 L512 1118 L213 1507 Z " />
<glyph glyph-name="a" unicode="a" horiz-adv-x="1038" d="M684 188 L684 549 Q427 478 346.5 419 Q266 360 266 264 Q266 187 310.5 141.5 Q355 96 430 96 Q478 96 540.5 119 Q603 142 684 188 Z M684 119 Q585 51 502.5 18.5 Q420 -14 348 -14 Q229 -14 157.5 58 Q86 130 86 248 Q86 379 193.5 454 Q301 529 684 621 L684 686 Q684 815 642 865 Q600 915 496 915 Q457 915 419 907 Q381 899 340 883 L340 711 L199 711 Q162 711 148.5 724.5 Q135 738 135 774 Q135 874 250.5 940 Q366 1006 549 1006 Q710 1006 783 936 Q856 866 856 711 L856 117 L891 84 L999 74 L999 0 L711 0 L684 119 Z " />
<glyph glyph-name="b" unicode="b" horiz-adv-x="1104" d="M346 94 Q378 93 406.5 92.5 Q435 92 459 92 Q660 92 754 190.5 Q848 289 848 500 Q848 691 764.5 794 Q681 897 526 897 Q490 897 445 889 Q400 881 346 864 L346 94 Z M268 1507 L346 1507 L346 934 Q422 970 491.5 988 Q561 1006 627 1006 Q808 1006 920 876.5 Q1032 747 1032 539 Q1032 273 881.5 136.5 Q731 0 438 0 L174 0 L174 1370 L16 1370 L16 1434 L268 1507 Z " />
<glyph glyph-name="c" unicode="c" horiz-adv-x="913" d="M870 86 Q784 36 701 11 Q618 -14 537 -14 Q329 -14 202.5 125.5 Q76 265 76 494 Q76 721 210.5 863.5 Q345 1006 561 1006 Q704 1006 786 951.5 Q868 897 868 805 Q868 756 837 726 Q806 696 754 696 Q731 696 708 704 Q685 712 662 727 L662 895 Q638 909 613 916.5 Q588 924 563 924 Q427 924 344.5 810.5 Q262 697 262 508 Q262 321 355.5 213.5 Q449 106 610 106 Q677 106 741 127.5 Q805 149 870 193 L870 86 Z " />
<glyph glyph-name="d" unicode="d" horiz-adv-x="1157" d="M784 182 L784 885 Q728 901 683.5 909.5 Q639 918 604 918 Q447 918 350.5 802 Q254 686 254 496 Q254 319 337.5 215 Q421 111 561 111 Q615 111 670.5 128.5 Q726 146 784 182 Z M784 1370 L627 1370 L627 1434 L877 1507 L954 1507 L954 117 L989 84 L1087 74 L1087 0 L784 0 L784 106 Q704 42 628 12 Q552 -18 469 -18 Q297 -18 185.5 116.5 Q74 251 74 461 Q74 705 220.5 856.5 Q367 1008 602 1008 Q643 1008 689 1002 Q735 996 784 985 L784 1370 Z " />
<glyph glyph-name="e" unicode="e" horiz-adv-x="1006" d="M735 625 L735 657 Q735 781 680.5 847 Q626 913 522 913 Q420 913 345.5 831.5 Q271 750 262 625 L735 625 Z M918 217 L918 104 Q827 44 729 13 Q631 -18 532 -18 Q329 -18 202.5 121.5 Q76 261 76 485 Q76 715 208.5 860.5 Q341 1006 549 1006 Q719 1006 818.5 897.5 Q918 789 918 602 Q918 577 917.5 564 Q917 551 915 539 L252 539 L252 516 Q252 323 345 210.5 Q438 98 596 98 Q669 98 747.5 127 Q826 156 918 217 Z " />
<glyph glyph-name="f" unicode="f" horiz-adv-x="657" d="M59 0 L59 74 L168 84 L205 117 L205 862 L74 862 L74 928 L205 958 L205 981 Q205 1228 319 1376 Q433 1524 621 1524 Q690 1524 735 1490.5 Q780 1457 780 1407 Q780 1370 758 1342.5 Q736 1315 696 1305 L510 1427 Q444 1397 410.5 1316.5 Q377 1236 377 1108 L377 958 L662 958 L662 862 L375 862 L375 117 L410 84 L537 74 L537 0 L59 0 Z " />
<glyph glyph-name="g" unicode="g" horiz-adv-x="1071" d="M422 61 Q339 36 292.5 -17 Q246 -70 246 -139 Q246 -231 324 -291.5 Q402 -352 524 -352 Q655 -352 742 -289 Q829 -226 829 -135 Q829 -66 791 -33 Q753 0 621 25 L422 61 Z M504 926 Q412 926 357.5 857.5 Q303 789 303 674 Q303 560 358.5 491 Q414 422 504 422 Q594 422 649.5 491 Q705 560 705 674 Q705 788 650 857 Q595 926 504 926 Z M756 948 L1049 948 L1049 852 L823 852 Q853 807 867 761 Q881 715 881 662 Q881 521 772 431.5 Q663 342 489 342 L455 342 Q443 319 437.5 296 Q432 273 432 250 Q432 243 434 220 Q436 207 436 201 L633 170 Q825 141 903 83.5 Q981 26 981 -82 Q981 -141 948.5 -202.5 Q916 -264 858 -311 Q777 -377 673 -411.5 Q569 -446 453 -446 Q278 -446 180 -376 Q82 -306 82 -182 Q82 -83 141 -15 Q200 53 303 72 Q293 96 288 119 Q283 142 283 164 Q283 203 307 251 Q331 299 381 358 Q264 384 195.5 467.5 Q127 551 127 668 Q127 819 236.5 912.5 Q346 1006 524 1006 Q583 1006 640.5 991.5 Q698 977 756 948 Z " />
<glyph glyph-name="h" unicode="h" horiz-adv-x="1155" d="M289 1507 L367 1507 L367 883 Q488 950 564.5 978 Q641 1006 698 1006 Q833 1006 904 926 Q975 846 975 694 L975 117 L1010 84 L1118 74 L1118 0 L672 0 L672 74 L768 84 L803 117 L803 659 Q803 774 755 822 Q707 870 596 870 Q547 870 490 853.5 Q433 837 367 803 L367 117 L403 84 L500 74 L500 0 L51 0 L51 74 L162 84 L197 117 L197 1370 L39 1370 L39 1434 L289 1507 Z " />
<glyph glyph-name="i" unicode="i" horiz-adv-x="573" d="M307 995 L387 995 L387 117 L422 84 L532 74 L532 0 L72 0 L72 74 L180 84 L215 117 L215 858 L72 858 L72 922 L307 995 Z M315 1450 Q365 1450 399.5 1415 Q434 1380 434 1331 Q434 1282 399.5 1248 Q365 1214 315 1214 Q266 1214 231.5 1248 Q197 1282 197 1331 Q197 1381 231.5 1415.5 Q266 1450 315 1450 Z " />
<glyph glyph-name="j" unicode="j" horiz-adv-x="545" d="M180 1331 Q180 1381 214.5 1415.5 Q249 1450 299 1450 Q348 1450 383 1415 Q418 1380 418 1331 Q418 1282 383 1248 Q348 1214 299 1214 Q250 1214 215 1248 Q180 1282 180 1331 Z M223 858 L78 858 L78 922 L315 995 L393 995 L393 172 Q393 -53 366.5 -148.5 Q340 -244 276 -313 Q217 -378 141 -412 Q65 -446 -18 -446 Q-84 -446 -122 -416.5 Q-160 -387 -160 -336 Q-160 -300 -140.5 -273 Q-121 -246 -84 -229 L115 -350 Q170 -332 196.5 -254.5 Q223 -177 223 -33 L223 858 Z " />
<glyph glyph-name="k" unicode="k" horiz-adv-x="1059" d="M51 0 L51 74 L162 84 L197 117 L197 1370 L39 1370 L39 1434 L289 1507 L367 1507 L367 522 L406 522 L719 872 L705 901 L612 909 L612 985 L1001 985 L1001 909 L870 893 L590 596 L950 88 L1081 78 L1081 0 L762 0 L762 68 L485 465 L367 465 L367 117 L403 84 L500 74 L500 0 L51 0 Z " />
<glyph glyph-name="l" unicode="l" horiz-adv-x="578" d="M57 0 L57 74 L178 84 L213 117 L213 1370 L55 1370 L55 1434 L305 1507 L383 1507 L383 117 L420 84 L537 74 L537 0 L57 0 Z " />
<glyph glyph-name="m" unicode="m" horiz-adv-x="1726" d="M930 868 Q1048 938 1135 972 Q1222 1006 1282 1006 Q1406 1006 1475 925.5 Q1544 845 1544 700 L1544 694 L1544 117 L1581 84 L1690 74 L1690 0 L1243 0 L1243 74 L1339 84 L1376 117 L1376 659 Q1376 768 1331 819 Q1286 870 1192 870 Q1145 870 1087.5 853.5 Q1030 837 961 803 L961 117 L997 84 L1094 74 L1094 0 L657 0 L657 74 L756 84 L791 117 L791 659 Q791 767 746.5 818.5 Q702 870 610 870 Q560 870 502.5 853.5 Q445 837 377 803 L377 117 L412 84 L510 74 L510 0 L61 0 L61 74 L172 84 L207 117 L207 858 L61 858 L61 922 L299 995 L377 995 L377 883 Q484 946 563.5 976 Q643 1006 705 1006 Q780 1006 837.5 971 Q895 936 930 868 Z " />
<glyph glyph-name="n" unicode="n" horiz-adv-x="1163" d="M61 0 L61 74 L172 84 L207 117 L207 858 L61 858 L61 922 L299 995 L377 995 L377 883 Q500 951 575 978.5 Q650 1006 707 1006 Q841 1006 912 926 Q983 846 983 694 L983 117 L1018 84 L1128 74 L1128 0 L680 0 L680 74 L778 84 L813 117 L813 659 Q813 774 765.5 822 Q718 870 606 870 Q557 870 500 853.5 Q443 837 377 803 L377 117 L412 84 L510 74 L510 0 L61 0 Z " />
<glyph glyph-name="o" unicode="o" horiz-adv-x="1104" d="M551 918 Q423 918 345.5 802.5 Q268 687 268 494 Q268 301 346 185.5 Q424 70 551 70 Q680 70 758 185 Q836 300 836 494 Q836 686 757.5 802 Q679 918 551 918 Z M551 1006 Q760 1006 894 862.5 Q1028 719 1028 494 Q1028 269 893.5 125.5 Q759 -18 551 -18 Q343 -18 209.5 125 Q76 268 76 494 Q76 720 208.5 863 Q341 1006 551 1006 Z " />
<glyph glyph-name="p" unicode="p" horiz-adv-x="1128" d="M362 119 Q412 102 455.5 94 Q499 86 537 86 Q689 86 783 199.5 Q877 313 877 500 Q877 673 795.5 775 Q714 877 578 877 Q529 877 477 860 Q425 843 362 807 L362 119 Z M47 -446 L47 -373 L158 -362 L190 -330 L190 858 L47 858 L47 922 L285 995 L362 995 L362 883 Q446 946 519.5 976 Q593 1006 664 1006 Q836 1006 946.5 872 Q1057 738 1057 526 Q1057 285 919 139.5 Q781 -6 553 -6 Q514 -6 467 -1.5 Q420 3 363 12 L362 -330 L397 -362 L528 -373 L528 -446 L47 -446 Z " />
<glyph glyph-name="q" unicode="q" horiz-adv-x="1087" d="M762 897 Q712 909 674 914.5 Q636 920 606 920 Q445 920 352.5 807 Q260 694 260 498 Q260 310 342 206 Q424 102 571 102 Q606 102 652.5 109.5 Q699 117 762 133 L762 897 Z M940 972 Q937 912 935.5 875.5 Q934 839 934 823 L934 -330 L969 -365 L1077 -373 L1077 -446 L598 -446 L598 -373 L727 -365 L762 -330 L762 68 Q683 30 613 12 Q543 -6 479 -6 Q298 -6 187 124.5 Q76 255 76 471 Q76 718 230 863 Q384 1008 647 1008 Q710 1008 783 999 Q856 990 940 972 Z " />
<glyph glyph-name="r" unicode="r" horiz-adv-x="782" d="M61 0 L61 74 L170 84 L205 117 L205 858 L61 858 L61 922 L299 995 L377 995 L377 803 Q427 854 481.5 903.5 Q536 953 596 1001 Q605 1004 615.5 1005 Q626 1006 647 1006 Q678 1006 708 999.5 Q738 993 770 979 L770 803 L705 803 Q685 827 658.5 839.5 Q632 852 600 852 Q551 852 496.5 815.5 Q442 779 377 702 L377 117 L412 84 L555 74 L555 0 L61 0 Z " />
<glyph glyph-name="s" unicode="s" horiz-adv-x="819" d="M705 961 L705 729 L604 729 L588 874 Q547 896 510 907 Q473 918 436 918 Q356 918 311 879 Q266 840 266 770 Q266 713 302 673 Q338 633 440 584 Q456 576 489 561 Q605 508 657 465 Q695 435 715 389.5 Q735 344 735 289 Q735 145 633.5 63.5 Q532 -18 352 -18 Q278 -18 210.5 -7.5 Q143 3 86 25 L86 291 L184 291 L209 117 Q252 92 295.5 80 Q339 68 383 68 Q470 68 522.5 113.5 Q575 159 575 233 Q575 295 539 335.5 Q503 376 367 438 Q213 507 157.5 568 Q102 629 102 719 Q102 856 197 931 Q292 1006 465 1006 Q534 1006 593.5 994.5 Q653 983 705 961 Z " />
<glyph glyph-name="t" unicode="t" horiz-adv-x="684" d="M180 862 L51 862 L51 926 L186 985 L274 1176 L350 1176 L350 958 L662 958 L662 862 L350 862 L350 322 Q350 189 387 143.5 Q424 98 520 98 Q553 98 588.5 102 Q624 106 662 115 L662 39 Q592 17 524 5.5 Q456 -6 393 -6 Q275 -6 227.5 38.5 Q180 83 180 201 L180 862 Z " />
<glyph glyph-name="u" unicode="u" horiz-adv-x="1165" d="M291 1006 L369 1006 L369 328 Q369 216 417 163.5 Q465 111 567 111 Q624 111 682.5 126 Q741 141 805 172 L805 866 L659 866 L659 930 L897 1006 L975 1006 L975 117 L1012 84 L1108 74 L1108 0 L805 0 L805 115 Q709 46 627.5 13 Q546 -20 473 -20 Q340 -20 269.5 60.5 Q199 141 199 293 L199 866 L53 866 L53 930 L291 1006 Z " />
<glyph glyph-name="v" unicode="v" horiz-adv-x="1012" d="M-10 985 L434 985 L434 909 L326 901 L301 868 L541 199 L803 868 L786 901 L676 909 L676 985 L1038 985 L1038 909 L918 893 L559 0 L444 0 L115 897 L-10 909 L-10 985 Z " />
<glyph glyph-name="w" unicode="w" horiz-adv-x="1579" d="M-4 985 L440 985 L440 909 L332 901 L307 868 L494 203 L768 985 L893 985 L1135 203 L1343 868 L1327 901 L1217 909 L1217 985 L1579 985 L1579 909 L1464 893 L1171 0 L1044 0 L797 776 L520 0 L393 0 L121 897 L-4 909 L-4 985 Z " />
<glyph glyph-name="x" unicode="x" horiz-adv-x="1030" d="M37 985 L477 985 L477 909 L383 897 L373 877 L545 608 L731 870 L715 897 L616 909 L616 985 L985 985 L985 909 L870 889 L600 530 L901 92 L1024 76 L1024 0 L588 0 L588 76 L674 90 L684 106 L494 412 L285 115 L295 90 L412 76 L412 0 L25 0 L25 76 L141 92 L436 487 L162 887 L37 909 L37 985 Z " />
<glyph glyph-name="y" unicode="y" horiz-adv-x="1014" d="M-2 985 L442 985 L442 909 L334 901 L309 868 L555 231 L811 868 L795 901 L684 909 L684 985 L1049 985 L1049 909 L930 893 L520 -102 Q445 -283 367 -364.5 Q289 -446 193 -446 Q129 -446 90 -414.5 Q51 -383 51 -332 Q51 -302 64.5 -274 Q78 -246 104 -221 L301 -299 Q346 -251 388.5 -172 Q431 -93 467 8 L123 897 L-2 909 L-2 985 Z " />
<glyph glyph-name="z" unicode="z" horiz-adv-x="958" d="M92 0 L92 102 L639 891 L260 891 L231 858 L209 700 L113 700 L113 985 L852 985 L852 907 L285 94 L725 94 L756 127 L778 301 L883 301 L883 0 L92 0 Z " />
<glyph glyph-name="braceleft" unicode="&#x7b;" horiz-adv-x="995" d="M856 1440 L856 1364 Q706 1359 651 1308 Q596 1257 596 1118 L596 952 Q596 784 535.5 704.5 Q475 625 328 594 Q472 562 534 482 Q596 402 596 248 L596 78 Q596 -94 648.5 -143 Q701 -192 856 -195 L856 -274 L805 -274 Q591 -274 511.5 -195.5 Q432 -117 432 100 L432 274 Q432 428 376 489.5 Q320 551 180 551 Q173 551 157.5 550 Q142 549 133 549 L133 638 Q142 638 153.5 637.5 Q165 637 186 637 Q321 637 376.5 696 Q432 755 432 901 L432 1110 Q432 1285 525.5 1362.5 Q619 1440 829 1440 L856 1440 Z " />
<glyph glyph-name="bar" unicode="&#x7c;" horiz-adv-x="1024" d="M449 1565 L575 1565 L575 -483 L449 -483 L449 1565 Z " />
<glyph glyph-name="braceright" unicode="&#x7d;" horiz-adv-x="995" d="M131 1440 L158 1440 Q368 1440 461.5 1362.5 Q555 1285 555 1110 L555 901 Q555 755 610.5 696 Q666 637 801 637 Q822 637 833.5 637.5 Q845 638 854 638 L854 549 Q846 549 830 550 Q814 551 807 551 Q667 551 611 489.5 Q555 428 555 274 L555 100 Q555 -116 475 -195 Q395 -274 180 -274 L131 -274 L131 -195 Q286 -192 338.5 -143 Q391 -94 391 78 L391 248 Q391 402 453 482 Q515 562 659 594 Q512 625 451.5 704.5 Q391 784 391 952 L391 1118 Q391 1257 336 1308 Q281 1359 132 1364 L131 1440 Z " />
<glyph glyph-name="asciitilde" unicode="&#x7e;" horiz-adv-x="1706" d="M1530 758 L1530 627 Q1429 555 1332.5 519 Q1236 483 1143 483 Q1100 483 1052.5 492 Q1005 501 952 518 Q922 528 865 549 Q663 621 563 621 Q480 621 389.5 583.5 Q299 546 178 461 L178 594 Q283 667 380 703 Q477 739 565 739 Q621 739 681.5 726.5 Q742 714 856 674 Q868 670 891 661 Q1055 602 1145 602 Q1230 602 1321 638.5 Q1412 675 1530 758 Z " />
<glyph glyph-name="Adieresis" unicode="&#xc4;" horiz-adv-x="1309" d="M614 1176 L412 608 L825 608 L614 1176 Z M582 1391 L717 1391 L1208 109 L1331 84 L1331 0 L866 0 L866 84 L993 94 L1008 123 L860 514 L377 514 L231 123 L252 94 L385 84 L385 0 L-16 0 L-16 84 L102 109 L582 1391 Z M845 1818 Q889 1818 918.5 1788 Q948 1758 948 1714 Q948 1671 918 1641 Q888 1611 845 1611 Q802 1611 771.5 1641 Q741 1671 741 1714 Q741 1758 771.5 1788 Q802 1818 845 1818 Z M465 1818 Q508 1818 537.5 1788 Q567 1758 567 1714 Q567 1671 537.5 1641 Q508 1611 465 1611 Q421 1611 390.5 1641 Q360 1671 360 1714 Q360 1758 390.5 1788 Q421 1818 465 1818 Z " />
<glyph glyph-name="Aring" unicode="&#xc5;" horiz-adv-x="1309" d="M614 1176 L412 608 L825 608 L614 1176 Z M582 1391 L717 1391 L1208 109 L1331 84 L1331 0 L866 0 L866 84 L993 94 L1008 123 L860 514 L377 514 L231 123 L252 94 L385 84 L385 0 L-16 0 L-16 84 L102 109 L582 1391 Z M629 1880 Q567 1880 523 1836.5 Q479 1793 479 1731 Q479 1669 523 1626 Q567 1583 629 1583 Q691 1583 733.5 1626 Q776 1669 776 1731 Q776 1794 733.5 1837 Q691 1880 629 1880 Z M627 1972 Q728 1972 798 1903 Q868 1834 868 1733 Q868 1631 798 1561 Q728 1491 627 1491 Q526 1491 456.5 1561 Q387 1631 387 1733 Q387 1834 456 1903 Q525 1972 627 1972 Z " />
<glyph glyph-name="Ccedilla" unicode="&#xc7;" horiz-adv-x="1294" d="M1204 47 Q1103 12 998 -6.5 Q893 -25 791 -25 Q690 -25 602 -4 Q514 17 442 57 Q277 151 182.5 319.5 Q88 488 88 688 Q88 1008 283.5 1203.5 Q479 1399 799 1399 Q891 1399 992.5 1381.5 Q1094 1364 1204 1329 L1204 1014 L1090 1014 L1059 1200 L1032 1237 Q973 1264 917 1277 Q861 1290 803 1290 Q571 1290 435 1132 Q299 974 299 702 Q299 413 441 248.5 Q583 84 834 84 Q878 84 922.5 90.5 Q967 97 1012 111 L1044 143 L1094 371 L1204 371 L1204 47 Z M725 0 L801 0 L801 -124 Q810 -124 819.5 -123.5 Q829 -123 842 -123 Q914 -123 955 -162 Q996 -201 996 -270 Q996 -356 931 -406.5 Q866 -457 754 -457 Q721 -457 686 -451.5 Q651 -446 613 -436 L613 -362 Q645 -371 674.5 -375 Q704 -379 733 -379 Q798 -379 834.5 -355.5 Q871 -332 871 -291 Q871 -255 844 -235 Q817 -215 768 -215 Q761 -215 752 -216 Q743 -217 726 -219 L725 0 Z " />
<glyph glyph-name="Eacute" unicode="&#xc9;" horiz-adv-x="1180" d="M68 0 L68 84 L184 94 L219 123 L219 1251 L184 1280 L68 1292 L68 1374 L1049 1374 L1049 1075 L934 1075 L905 1249 L877 1280 L403 1280 L403 762 L739 762 L768 791 L788 940 L885 940 L885 489 L788 489 L768 637 L739 668 L403 668 L403 94 L952 94 L981 127 L1016 334 L1122 334 L1122 0 L68 0 Z M711 1910 L914 1910 L615 1521 L512 1521 L711 1910 Z " />
<glyph glyph-name="Ntilde" unicode="&#xd1;" horiz-adv-x="1460" d="M59 0 L59 84 L184 100 L221 139 L221 1251 L184 1280 L53 1292 L53 1374 L438 1374 L438 1323 L1137 274 L1137 1237 L1100 1274 L977 1292 L977 1374 L1407 1374 L1407 1292 L1284 1274 L1247 1237 L1247 0 L1112 0 L332 1163 L332 139 L369 100 L492 84 L492 0 L59 0 Z M958 1853 L1042 1853 Q1042 1848 1043 1838 Q1044 1828 1044 1822 Q1044 1726 995.5 1665.5 Q947 1605 872 1605 Q802 1605 701 1658.5 Q600 1712 577 1712 Q544 1712 524 1682 Q504 1652 504 1601 Q504 1597 505 1589 Q506 1581 506 1577 L418 1577 L418 1597 Q418 1707 462.5 1764.5 Q507 1822 592 1822 Q654 1822 750.5 1769 Q847 1716 874 1716 Q918 1716 938 1746 Q958 1776 958 1843 L958 1853 Z " />
<glyph glyph-name="Odieresis" unicode="&#xd6;" horiz-adv-x="1497" d="M750 1298 Q544 1298 422.5 1133.5 Q301 969 301 688 Q301 408 423.5 242 Q546 76 750 76 Q952 76 1074 242.5 Q1196 409 1196 688 Q1196 967 1074 1132.5 Q952 1298 750 1298 Z M750 1409 Q881 1409 994 1364 Q1107 1319 1200 1229 Q1304 1128 1357.5 991 Q1411 854 1411 688 Q1411 574 1385 473 Q1359 372 1307 283 Q1220 134 1073 50.5 Q926 -33 750 -33 Q619 -33 503.5 12 Q388 57 299 143 Q195 244 141.5 382 Q88 520 88 688 Q88 855 141 992 Q194 1129 297 1229 Q389 1318 503.5 1363.5 Q618 1409 750 1409 Z M940 1818 Q984 1818 1013.5 1788 Q1043 1758 1043 1714 Q1043 1671 1013 1641 Q983 1611 940 1611 Q897 1611 866.5 1641 Q836 1671 836 1714 Q836 1758 866.5 1788 Q897 1818 940 1818 Z M560 1818 Q603 1818 632.5 1788 Q662 1758 662 1714 Q662 1671 632.5 1641 Q603 1611 560 1611 Q516 1611 485.5 1641 Q455 1671 455 1714 Q455 1758 485.5 1788 Q516 1818 560 1818 Z " />
<glyph glyph-name="Udieresis" unicode="&#xdc;" horiz-adv-x="1421" d="M51 1374 L553 1374 L553 1292 L426 1280 L391 1251 L391 510 Q391 295 477.5 198.5 Q564 102 756 102 Q946 102 1033 199.5 Q1120 297 1120 510 L1120 1237 L1081 1274 L958 1292 L958 1374 L1391 1374 L1391 1292 L1268 1274 L1231 1237 L1231 492 Q1231 345 1210 267 Q1189 189 1141 131 Q1080 58 968.5 16.5 Q857 -25 717 -25 Q576 -25 465 16.5 Q354 58 293 131 Q244 190 223.5 267 Q203 344 203 492 L203 1251 L168 1280 L51 1292 L51 1374 Z M901 1818 Q945 1818 974.5 1788 Q1004 1758 1004 1714 Q1004 1671 974 1641 Q944 1611 901 1611 Q858 1611 827.5 1641 Q797 1671 797 1714 Q797 1758 827.5 1788 Q858 1818 901 1818 Z M521 1818 Q564 1818 593.5 1788 Q623 1758 623 1714 Q623 1671 593.5 1641 Q564 1611 521 1611 Q477 1611 446.5 1641 Q416 1671 416 1714 Q416 1758 446.5 1788 Q477 1818 521 1818 Z " />
<glyph glyph-name="aacute" unicode="&#xe1;" horiz-adv-x="1038" d="M684 188 L684 549 Q427 478 346.5 419 Q266 360 266 264 Q266 187 310.5 141.5 Q355 96 430 96 Q478 96 540.5 119 Q603 142 684 188 Z M684 119 Q585 51 502.5 18.5 Q420 -14 348 -14 Q229 -14 157.5 58 Q86 130 86 248 Q86 379 193.5 454 Q301 529 684 621 L684 686 Q684 815 642 865 Q600 915 496 915 Q457 915 419 907 Q381 899 340 883 L340 711 L199 711 Q162 711 148.5 724.5 Q135 738 135 774 Q135 874 250.5 940 Q366 1006 549 1006 Q710 1006 783 936 Q856 866 856 711 L856 117 L891 84 L999 74 L999 0 L711 0 L684 119 Z M641 1507 L844 1507 L545 1118 L442 1118 L641 1507 Z " />
<glyph glyph-name="agrave" unicode="&#xe0;" horiz-adv-x="1038" d="M684 188 L684 549 Q427 478 346.5 419 Q266 360 266 264 Q266 187 310.5 141.5 Q355 96 430 96 Q478 96 540.5 119 Q603 142 684 188 Z M684 119 Q585 51 502.5 18.5 Q420 -14 348 -14 Q229 -14 157.5 58 Q86 130 86 248 Q86 379 193.5 454 Q301 529 684 621 L684 686 Q684 815 642 865 Q600 915 496 915 Q457 915 419 907 Q381 899 340 883 L340 711 L199 711 Q162 711 148.5 724.5 Q135 738 135 774 Q135 874 250.5 940 Q366 1006 549 1006 Q710 1006 783 936 Q856 866 856 711 L856 117 L891 84 L999 74 L999 0 L711 0 L684 119 Z M221 1507 L424 1507 L622 1118 L520 1118 L221 1507 Z " />
<glyph glyph-name="acircumflex" unicode="&#xe2;" horiz-adv-x="1038" d="M684 188 L684 549 Q427 478 346.5 419 Q266 360 266 264 Q266 187 310.5 141.5 Q355 96 430 96 Q478 96 540.5 119 Q603 142 684 188 Z M684 119 Q585 51 502.5 18.5 Q420 -14 348 -14 Q229 -14 157.5 58 Q86 130 86 248 Q86 379 193.5 454 Q301 529 684 621 L684 686 Q684 815 642 865 Q600 915 496 915 Q457 915 419 907 Q381 899 340 883 L340 711 L199 711 Q162 711 148.5 724.5 Q135 738 135 774 Q135 874 250.5 940 Q366 1006 549 1006 Q710 1006 783 936 Q856 866 856 711 L856 117 L891 84 L999 74 L999 0 L711 0 L684 119 Z M454 1507 L586 1507 L811 1118 L700 1118 L520 1407 L342 1118 L229 1118 L454 1507 Z " />
<glyph glyph-name="adieresis" unicode="&#xe4;" horiz-adv-x="1038" d="M684 188 L684 549 Q427 478 346.5 419 Q266 360 266 264 Q266 187 310.5 141.5 Q355 96 430 96 Q478 96 540.5 119 Q603 142 684 188 Z M684 119 Q585 51 502.5 18.5 Q420 -14 348 -14 Q229 -14 157.5 58 Q86 130 86 248 Q86 379 193.5 454 Q301 529 684 621 L684 686 Q684 815 642 865 Q600 915 496 915 Q457 915 419 907 Q381 899 340 883 L340 711 L199 711 Q162 711 148.5 724.5 Q135 738 135 774 Q135 874 250.5 940 Q366 1006 549 1006 Q710 1006 783 936 Q856 866 856 711 L856 117 L891 84 L999 74 L999 0 L711 0 L684 119 Z M710 1415 Q754 1415 783.5 1385 Q813 1355 813 1311 Q813 1268 783 1238 Q753 1208 710 1208 Q667 1208 636.5 1238 Q606 1268 606 1311 Q606 1355 636.5 1385 Q667 1415 710 1415 Z M330 1415 Q373 1415 402.5 1385 Q432 1355 432 1311 Q432 1268 402.5 1238 Q373 1208 330 1208 Q286 1208 255.5 1238 Q225 1268 225 1311 Q225 1355 255.5 1385 Q286 1415 330 1415 Z " />
<glyph glyph-name="atilde" unicode="&#xe3;" horiz-adv-x="1038" d="M684 188 L684 549 Q427 478 346.5 419 Q266 360 266 264 Q266 187 310.5 141.5 Q355 96 430 96 Q478 96 540.5 119 Q603 142 684 188 Z M684 119 Q585 51 502.5 18.5 Q420 -14 348 -14 Q229 -14 157.5 58 Q86 130 86 248 Q86 379 193.5 454 Q301 529 684 621 L684 686 Q684 815 642 865 Q600 915 496 915 Q457 915 419 907 Q381 899 340 883 L340 711 L199 711 Q162 711 148.5 724.5 Q135 738 135 774 Q135 874 250.5 940 Q366 1006 549 1006 Q710 1006 783 936 Q856 866 856 711 L856 117 L891 84 L999 74 L999 0 L711 0 L684 119 Z M747 1450 L831 1450 Q831 1445 832 1435 Q833 1425 833 1419 Q833 1323 784.5 1262.5 Q736 1202 661 1202 Q591 1202 490 1255.5 Q389 1309 366 1309 Q333 1309 313 1279 Q293 1249 293 1198 Q293 1194 294 1186 Q295 1178 295 1174 L207 1174 L207 1194 Q207 1304 251.5 1361.5 Q296 1419 381 1419 Q443 1419 539.5 1366 Q636 1313 663 1313 Q707 1313 727 1343 Q747 1373 747 1440 L747 1450 Z " />
<glyph glyph-name="aring" unicode="&#xe5;" horiz-adv-x="1038" d="M684 549 Q427 478 346.5 419 Q266 360 266 264 Q266 187 310.5 141.5 Q355 96 430 96 Q478 96 540.5 119 Q603 142 684 188 L684 549 Z M856 711 L856 117 L891 84 L999 74 L999 0 L711 0 L684 119 Q585 51 502.5 18.5 Q420 -14 348 -14 Q229 -14 157.5 58 Q86 130 86 248 Q86 379 193.5 454 Q301 529 684 621 L684 686 Q684 815 642 865 Q600 915 496 915 Q457 915 419 907 Q381 899 340 883 L340 711 L199 711 Q162 711 148.5 724.5 Q135 738 135 774 Q135 874 250.5 940 Q366 1006 549 1006 Q710 1006 783 936 Q856 866 856 711 Z M512 1507 Q450 1507 407.5 1464 Q365 1421 365 1358 Q365 1296 408 1253 Q451 1210 512 1210 Q575 1210 619.5 1253 Q664 1296 664 1358 Q664 1420 619.5 1463.5 Q575 1507 512 1507 Z M512 1599 Q614 1599 684 1530 Q754 1461 754 1360 Q754 1258 683.5 1188 Q613 1118 512 1118 Q411 1118 341.5 1188 Q272 1258 272 1360 Q272 1461 341.5 1530 Q411 1599 512 1599 Z " />
<glyph glyph-name="ccedilla" unicode="&#xe7;" horiz-adv-x="913" d="M870 86 Q784 36 701 11 Q618 -14 537 -14 Q329 -14 202.5 125.5 Q76 265 76 494 Q76 721 210.5 863.5 Q345 1006 561 1006 Q704 1006 786 951.5 Q868 897 868 805 Q868 756 837 726 Q806 696 754 696 Q731 696 708 704 Q685 712 662 727 L662 895 Q638 909 613 916.5 Q588 924 563 924 Q427 924 344.5 810.5 Q262 697 262 508 Q262 321 355.5 213.5 Q449 106 610 106 Q677 106 741 127.5 Q805 149 870 193 L870 86 Z M473 0 L549 0 L549 -124 Q558 -124 567.5 -123.5 Q577 -123 590 -123 Q662 -123 703 -162 Q744 -201 744 -270 Q744 -356 679 -406.5 Q614 -457 502 -457 Q469 -457 434 -451.5 Q399 -446 361 -436 L361 -362 Q393 -371 422.5 -375 Q452 -379 481 -379 Q546 -379 582.5 -355.5 Q619 -332 619 -291 Q619 -255 592 -235 Q565 -215 516 -215 Q509 -215 500 -216 Q491 -217 474 -219 L473 0 Z " />
<glyph glyph-name="eacute" unicode="&#xe9;" horiz-adv-x="1006" d="M735 625 L735 657 Q735 781 680.5 847 Q626 913 522 913 Q420 913 345.5 831.5 Q271 750 262 625 L735 625 Z M918 217 L918 104 Q827 44 729 13 Q631 -18 532 -18 Q329 -18 202.5 121.5 Q76 261 76 485 Q76 715 208.5 860.5 Q341 1006 549 1006 Q719 1006 818.5 897.5 Q918 789 918 602 Q918 577 917.5 564 Q917 551 915 539 L252 539 L252 516 Q252 323 345 210.5 Q438 98 596 98 Q669 98 747.5 127 Q826 156 918 217 Z M647 1507 L850 1507 L551 1118 L448 1118 L647 1507 Z " />
<glyph glyph-name="egrave" unicode="&#xe8;" horiz-adv-x="1006" d="M735 625 L735 657 Q735 781 680.5 847 Q626 913 522 913 Q420 913 345.5 831.5 Q271 750 262 625 L735 625 Z M918 217 L918 104 Q827 44 729 13 Q631 -18 532 -18 Q329 -18 202.5 121.5 Q76 261 76 485 Q76 715 208.5 860.5 Q341 1006 549 1006 Q719 1006 818.5 897.5 Q918 789 918 602 Q918 577 917.5 564 Q917 551 915 539 L252 539 L252 516 Q252 323 345 210.5 Q438 98 596 98 Q669 98 747.5 127 Q826 156 918 217 Z M227 1507 L430 1507 L628 1118 L526 1118 L227 1507 Z " />
<glyph glyph-name="ecircumflex" unicode="&#xea;" horiz-adv-x="1006" d="M735 625 L735 657 Q735 781 680.5 847 Q626 913 522 913 Q420 913 345.5 831.5 Q271 750 262 625 L735 625 Z M918 217 L918 104 Q827 44 729 13 Q631 -18 532 -18 Q329 -18 202.5 121.5 Q76 261 76 485 Q76 715 208.5 860.5 Q341 1006 549 1006 Q719 1006 818.5 897.5 Q918 789 918 602 Q918 577 917.5 564 Q917 551 915 539 L252 539 L252 516 Q252 323 345 210.5 Q438 98 596 98 Q669 98 747.5 127 Q826 156 918 217 Z M460 1507 L592 1507 L817 1118 L706 1118 L526 1407 L348 1118 L235 1118 L460 1507 Z " />
<glyph glyph-name="edieresis" unicode="&#xeb;" horiz-adv-x="1006" d="M735 625 L735 657 Q735 781 680.5 847 Q626 913 522 913 Q420 913 345.5 831.5 Q271 750 262 625 L735 625 Z M918 217 L918 104 Q827 44 729 13 Q631 -18 532 -18 Q329 -18 202.5 121.5 Q76 261 76 485 Q76 715 208.5 860.5 Q341 1006 549 1006 Q719 1006 818.5 897.5 Q918 789 918 602 Q918 577 917.5 564 Q917 551 915 539 L252 539 L252 516 Q252 323 345 210.5 Q438 98 596 98 Q669 98 747.5 127 Q826 156 918 217 Z M716 1415 Q760 1415 789.5 1385 Q819 1355 819 1311 Q819 1268 789 1238 Q759 1208 716 1208 Q673 1208 642.5 1238 Q612 1268 612 1311 Q612 1355 642.5 1385 Q673 1415 716 1415 Z M336 1415 Q379 1415 408.5 1385 Q438 1355 438 1311 Q438 1268 408.5 1238 Q379 1208 336 1208 Q292 1208 261.5 1238 Q231 1268 231 1311 Q231 1355 261.5 1385 Q292 1415 336 1415 Z " />
<glyph glyph-name="iacute" unicode="&#xed;" horiz-adv-x="573" d="M307 995 L387 995 L387 117 L422 84 L532 74 L532 0 L72 0 L72 74 L180 84 L215 117 L215 858 L72 858 L72 922 L307 995 Z M410 1507 L613 1507 L314 1118 L211 1118 L410 1507 Z " />
<glyph glyph-name="igrave" unicode="&#xec;" horiz-adv-x="573" d="M307 995 L387 995 L387 117 L422 84 L532 74 L532 0 L72 0 L72 74 L180 84 L215 117 L215 858 L72 858 L72 922 L307 995 Z M-10 1507 L193 1507 L391 1118 L289 1118 L-10 1507 Z " />
<glyph glyph-name="icircumflex" unicode="&#xee;" horiz-adv-x="573" d="M307 995 L387 995 L387 117 L422 84 L532 74 L532 0 L72 0 L72 74 L180 84 L215 117 L215 858 L72 858 L72 922 L307 995 Z M223 1507 L355 1507 L580 1118 L469 1118 L289 1407 L111 1118 L-2 1118 L223 1507 Z " />
<glyph glyph-name="idieresis" unicode="&#xef;" horiz-adv-x="573" d="M307 995 L387 995 L387 117 L422 84 L532 74 L532 0 L72 0 L72 74 L180 84 L215 117 L215 858 L72 858 L72 922 L307 995 Z M479 1415 Q523 1415 552.5 1385 Q582 1355 582 1311 Q582 1268 552 1238 Q522 1208 479 1208 Q436 1208 405.5 1238 Q375 1268 375 1311 Q375 1355 405.5 1385 Q436 1415 479 1415 Z M99 1415 Q142 1415 171.5 1385 Q201 1355 201 1311 Q201 1268 171.5 1238 Q142 1208 99 1208 Q55 1208 24.5 1238 Q-6 1268 -6 1311 Q-6 1355 24.5 1385 Q55 1415 99 1415 Z " />
<glyph glyph-name="ntilde" unicode="&#xf1;" horiz-adv-x="1163" d="M61 0 L61 74 L172 84 L207 117 L207 858 L61 858 L61 922 L299 995 L377 995 L377 883 Q500 951 575 978.5 Q650 1006 707 1006 Q841 1006 912 926 Q983 846 983 694 L983 117 L1018 84 L1128 74 L1128 0 L680 0 L680 74 L778 84 L813 117 L813 659 Q813 774 765.5 822 Q718 870 606 870 Q557 870 500 853.5 Q443 837 377 803 L377 117 L412 84 L510 74 L510 0 L61 0 Z M786 1450 L870 1450 Q870 1445 871 1435 Q872 1425 872 1419 Q872 1323 823.5 1262.5 Q775 1202 700 1202 Q630 1202 529 1255.5 Q428 1309 405 1309 Q372 1309 352 1279 Q332 1249 332 1198 Q332 1194 333 1186 Q334 1178 334 1174 L246 1174 L246 1194 Q246 1304 290.5 1361.5 Q335 1419 420 1419 Q482 1419 578.5 1366 Q675 1313 702 1313 Q746 1313 766 1343 Q786 1373 786 1440 L786 1450 Z " />
<glyph glyph-name="oacute" unicode="&#xf3;" horiz-adv-x="1104" d="M551 918 Q423 918 345.5 802.5 Q268 687 268 494 Q268 301 346 185.5 Q424 70 551 70 Q680 70 758 185 Q836 300 836 494 Q836 686 757.5 802 Q679 918 551 918 Z M551 1006 Q760 1006 894 862.5 Q1028 719 1028 494 Q1028 269 893.5 125.5 Q759 -18 551 -18 Q343 -18 209.5 125 Q76 268 76 494 Q76 720 208.5 863 Q341 1006 551 1006 Z M674 1507 L877 1507 L578 1118 L475 1118 L674 1507 Z " />
<glyph glyph-name="ograve" unicode="&#xf2;" horiz-adv-x="1104" d="M551 918 Q423 918 345.5 802.5 Q268 687 268 494 Q268 301 346 185.5 Q424 70 551 70 Q680 70 758 185 Q836 300 836 494 Q836 686 757.5 802 Q679 918 551 918 Z M551 1006 Q760 1006 894 862.5 Q1028 719 1028 494 Q1028 269 893.5 125.5 Q759 -18 551 -18 Q343 -18 209.5 125 Q76 268 76 494 Q76 720 208.5 863 Q341 1006 551 1006 Z M254 1507 L457 1507 L655 1118 L553 1118 L254 1507 Z " />
<glyph glyph-name="ocircumflex" unicode="&#xf4;" horiz-adv-x="1104" d="M551 918 Q423 918 345.5 802.5 Q268 687 268 494 Q268 301 346 185.5 Q424 70 551 70 Q680 70 758 185 Q836 300 836 494 Q836 686 757.5 802 Q679 918 551 918 Z M551 1006 Q760 1006 894 862.5 Q1028 719 1028 494 Q1028 269 893.5 125.5 Q759 -18 551 -18 Q343 -18 209.5 125 Q76 268 76 494 Q76 720 208.5 863 Q341 1006 551 1006 Z M487 1507 L619 1507 L844 1118 L733 1118 L553 1407 L375 1118 L262 1118 L487 1507 Z " />
<glyph glyph-name="odieresis" unicode="&#xf6;" horiz-adv-x="1104" d="M551 918 Q423 918 345.5 802.5 Q268 687 268 494 Q268 301 346 185.5 Q424 70 551 70 Q680 70 758 185 Q836 300 836 494 Q836 686 757.5 802 Q679 918 551 918 Z M551 1006 Q760 1006 894 862.5 Q1028 719 1028 494 Q1028 269 893.5 125.5 Q759 -18 551 -18 Q343 -18 209.5 125 Q76 268 76 494 Q76 720 208.5 863 Q341 1006 551 1006 Z M743 1415 Q787 1415 816.5 1385 Q846 1355 846 1311 Q846 1268 816 1238 Q786 1208 743 1208 Q700 1208 669.5 1238 Q639 1268 639 1311 Q639 1355 669.5 1385 Q700 1415 743 1415 Z M363 1415 Q406 1415 435.5 1385 Q465 1355 465 1311 Q465 1268 435.5 1238 Q406 1208 363 1208 Q319 1208 288.5 1238 Q258 1268 258 1311 Q258 1355 288.5 1385 Q319 1415 363 1415 Z " />
<glyph glyph-name="otilde" unicode="&#xf5;" horiz-adv-x="1104" d="M551 918 Q423 918 345.5 802.5 Q268 687 268 494 Q268 301 346 185.5 Q424 70 551 70 Q680 70 758 185 Q836 300 836 494 Q836 686 757.5 802 Q679 918 551 918 Z M551 1006 Q760 1006 894 862.5 Q1028 719 1028 494 Q1028 269 893.5 125.5 Q759 -18 551 -18 Q343 -18 209.5 125 Q76 268 76 494 Q76 720 208.5 863 Q341 1006 551 1006 Z M780 1450 L864 1450 Q864 1445 865 1435 Q866 1425 866 1419 Q866 1323 817.5 1262.5 Q769 1202 694 1202 Q624 1202 523 1255.5 Q422 1309 399 1309 Q366 1309 346 1279 Q326 1249 326 1198 Q326 1194 327 1186 Q328 1178 328 1174 L240 1174 L240 1194 Q240 1304 284.5 1361.5 Q329 1419 414 1419 Q476 1419 572.5 1366 Q669 1313 696 1313 Q740 1313 760 1343 Q780 1373 780 1440 L780 1450 Z " />
<glyph glyph-name="uacute" unicode="&#xfa;" horiz-adv-x="1165" d="M291 1006 L369 1006 L369 328 Q369 216 417 163.5 Q465 111 567 111 Q624 111 682.5 126 Q741 141 805 172 L805 866 L659 866 L659 930 L897 1006 L975 1006 L975 117 L1012 84 L1108 74 L1108 0 L805 0 L805 115 Q709 46 627.5 13 Q546 -20 473 -20 Q340 -20 269.5 60.5 Q199 141 199 293 L199 866 L53 866 L53 930 L291 1006 Z M705 1507 L908 1507 L609 1118 L506 1118 L705 1507 Z " />
<glyph glyph-name="ugrave" unicode="&#xf9;" horiz-adv-x="1165" d="M291 1006 L369 1006 L369 328 Q369 216 417 163.5 Q465 111 567 111 Q624 111 682.5 126 Q741 141 805 172 L805 866 L659 866 L659 930 L897 1006 L975 1006 L975 117 L1012 84 L1108 74 L1108 0 L805 0 L805 115 Q709 46 627.5 13 Q546 -20 473 -20 Q340 -20 269.5 60.5 Q199 141 199 293 L199 866 L53 866 L53 930 L291 1006 Z M285 1507 L488 1507 L686 1118 L584 1118 L285 1507 Z " />
<glyph glyph-name="ucircumflex" unicode="&#xfb;" horiz-adv-x="1165" d="M291 1006 L369 1006 L369 328 Q369 216 417 163.5 Q465 111 567 111 Q624 111 682.5 126 Q741 141 805 172 L805 866 L659 866 L659 930 L897 1006 L975 1006 L975 117 L1012 84 L1108 74 L1108 0 L805 0 L805 115 Q709 46 627.5 13 Q546 -20 473 -20 Q340 -20 269.5 60.5 Q199 141 199 293 L199 866 L53 866 L53 930 L291 1006 Z M518 1507 L650 1507 L875 1118 L764 1118 L584 1407 L406 1118 L293 1118 L518 1507 Z " />
<glyph glyph-name="udieresis" unicode="&#xfc;" horiz-adv-x="1165" d="M291 1006 L369 1006 L369 328 Q369 216 417 163.5 Q465 111 567 111 Q624 111 682.5 126 Q741 141 805 172 L805 866 L659 866 L659 930 L897 1006 L975 1006 L975 117 L1012 84 L1108 74 L1108 0 L805 0 L805 115 Q709 46 627.5 13 Q546 -20 473 -20 Q340 -20 269.5 60.5 Q199 141 199 293 L199 866 L53 866 L53 930 L291 1006 Z M774 1415 Q818 1415 847.5 1385 Q877 1355 877 1311 Q877 1268 847 1238 Q817 1208 774 1208 Q731 1208 700.5 1238 Q670 1268 670 1311 Q670 1355 700.5 1385 Q731 1415 774 1415 Z M394 1415 Q437 1415 466.5 1385 Q496 1355 496 1311 Q496 1268 466.5 1238 Q437 1208 394 1208 Q350 1208 319.5 1238 Q289 1268 289 1311 Q289 1355 319.5 1385 Q350 1415 394 1415 Z " />
<glyph glyph-name="dagger" unicode="&#x2020;" horiz-adv-x="1024" d="M498 942 L526 942 L612 602 L526 -264 L498 -264 L414 602 L498 942 Z M840 1081 L989 989 L840 895 L551 967 L551 999 L840 1081 Z M180 1081 L475 999 L475 967 L180 895 L35 989 L180 1081 Z M510 1470 L602 1315 L526 1028 L498 1028 L420 1315 L510 1470 Z " />
<glyph glyph-name="degree" unicode="&#xb0;" horiz-adv-x="674" d="M338 1372 Q254 1372 194.5 1313.5 Q135 1255 135 1171 Q135 1087 194.5 1028 Q254 969 338 969 Q422 969 480.5 1028 Q539 1087 539 1171 Q539 1255 480.5 1313.5 Q422 1372 338 1372 Z M338 1454 Q455 1454 538 1371 Q621 1288 621 1171 Q621 1055 537.5 972 Q454 889 336 889 Q218 889 136.5 971 Q55 1053 55 1171 Q55 1290 137.5 1372 Q220 1454 338 1454 Z " />
<glyph glyph-name="cent" unicode="&#xa2;" horiz-adv-x="1139" d="M559 930 Q438 896 372.5 786 Q307 676 307 506 Q307 350 374.5 240.5 Q442 131 559 98 L559 930 Z M559 1231 L653 1231 L653 1030 L682 1030 Q746 1030 812.5 1018.5 Q879 1007 950 983 L950 682 L858 682 L825 895 Q791 916 752.5 926 Q714 936 668 936 L653 936 L653 94 Q702 94 745 104 Q788 114 825 133 L854 356 L950 356 L950 45 Q894 23 826.5 12.5 Q759 2 678 2 L653 2 L653 -201 L559 -201 L559 6 Q362 32 246.5 166.5 Q131 301 131 504 Q131 713 245.5 852.5 Q360 992 559 1024 L559 1231 Z " />
<glyph glyph-name="sterling" unicode="&#xa3;" horiz-adv-x="1139" d="M854 1087 L854 1280 Q827 1289 800.5 1293.5 Q774 1298 748 1298 Q598 1298 534.5 1191 Q471 1084 471 825 Q471 784 471.5 762 Q472 740 473 721 L858 721 L858 625 L473 625 L473 598 Q473 440 421.5 327.5 Q370 215 268 152 L272 146 Q318 150 356 153 Q394 156 412 156 L1036 156 L1036 0 L76 0 L76 117 Q204 153 253.5 242.5 Q303 332 303 553 L303 625 L156 625 L156 721 L301 721 Q299 774 298 799.5 Q297 825 297 846 Q297 976 316.5 1065 Q336 1154 377 1217 Q432 1299 525 1349 Q618 1399 719 1399 Q860 1399 950 1339.5 Q1040 1280 1040 1190 Q1040 1142 1006 1110.5 Q972 1079 920 1079 Q904 1079 888 1081 Q872 1083 854 1087 Z " />
<glyph glyph-name="section" unicode="&#xa7;" horiz-adv-x="1024" d="M457 868 Q368 829 323.5 769.5 Q279 710 279 633 Q279 539 342.5 472 Q406 405 571 332 Q659 390 701 451 Q743 512 743 582 Q743 673 672.5 743.5 Q602 814 457 868 Z M831 1423 L831 1159 L739 1159 L719 1323 Q663 1354 614.5 1369 Q566 1384 522 1384 Q433 1384 374 1334.5 Q315 1285 315 1210 Q315 1109 541 1003 Q590 980 616 967 Q761 895 828 813 Q895 731 895 627 Q895 520 828 431 Q761 342 645 295 Q754 246 806 179.5 Q858 113 858 23 Q858 -113 753.5 -200 Q649 -287 483 -287 Q411 -287 336 -271 Q261 -255 182 -223 L178 41 L276 41 L305 -143 Q354 -170 403 -183.5 Q452 -197 502 -197 Q595 -197 654 -149 Q713 -101 713 -27 Q713 95 428 227 Q386 246 365 256 Q250 310 189.5 395.5 Q129 481 129 588 Q129 697 188.5 775.5 Q248 854 371 907 Q262 961 213 1024.5 Q164 1088 164 1176 Q164 1317 266 1393.5 Q368 1470 557 1470 Q623 1470 692 1458.5 Q761 1447 831 1423 Z " />
<glyph glyph-name="bullet" unicode="&#x2022;" horiz-adv-x="1208" d="M307 762 Q307 885 394 971 Q481 1057 604 1057 Q726 1057 812.5 970.5 Q899 884 899 762 Q899 640 811.5 552.5 Q724 465 602 465 Q479 465 393 552 Q307 639 307 762 Z " />
<glyph glyph-name="paragraph" unicode="&#xb6;" horiz-adv-x="991" d="M938 1374 L938 1300 L811 1280 L811 -162 L711 -162 L711 1290 L555 1290 L555 575 L518 575 Q283 575 168 673 Q53 771 53 971 Q53 1181 168.5 1277.5 Q284 1374 537 1374 L938 1374 Z " />
<glyph glyph-name="germandbls" unicode="&#xdf;" horiz-adv-x="1247" d="M989 954 Q987 955 983 955 Q953 958 940 958 Q854 958 805 915.5 Q756 873 756 799 Q756 702 936 606 Q974 586 994 575 Q1094 520 1142 453 Q1190 386 1190 301 Q1190 166 1093.5 76 Q997 -14 848 -14 Q810 -14 752.5 -4 Q695 6 612 27 L612 297 L715 297 L735 119 Q764 97 794 86.5 Q824 76 860 76 Q938 76 987 124.5 Q1036 173 1036 248 Q1036 358 853 461 L846 465 Q681 557 637.5 613 Q594 669 594 750 Q594 848 662.5 924.5 Q731 1001 844 1026 Q855 1075 859.5 1109 Q864 1143 864 1169 Q864 1282 805 1352.5 Q746 1423 651 1423 Q574 1423 513 1381.5 Q452 1340 408 1257 Q380 1205 368 1124 Q356 1043 356 883 L356 119 L373 82 L508 72 L508 0 L39 0 L39 72 L158 86 L180 117 L180 920 Q180 1189 318.5 1353.5 Q457 1518 682 1518 Q846 1518 936 1429.5 Q1026 1341 1026 1180 Q1026 1126 1017 1070.5 Q1008 1015 989 954 Z " />
<glyph glyph-name="registered" unicode="&#xae;" horiz-adv-x="1843" d="M793 727 Q802 726 813 725.5 Q824 725 844 725 Q972 725 1039 768.5 Q1106 812 1106 895 Q1106 980 1039 1025.5 Q972 1071 846 1071 Q825 1071 813.5 1070.5 Q802 1070 793 1069 L793 727 Z M520 1147 L952 1147 Q1121 1147 1202.5 1092 Q1284 1037 1284 924 Q1284 838 1220 778 Q1156 718 1036 692 Q1085 684 1121 665 Q1157 646 1184 612 Q1216 573 1241 490 Q1251 455 1257 440 Q1283 375 1324.5 351.5 Q1366 328 1456 328 L1456 254 Q1412 246 1381 242 Q1350 238 1329 238 Q1281 238 1241.5 252 Q1202 266 1167 297 Q1122 335 1083 452 Q1066 505 1055 530 Q1025 597 982 622 Q939 647 852 647 Q829 647 816.5 646.5 Q804 646 793 645 L793 338 L922 324 L922 248 L530 248 L530 322 L639 336 L639 1057 L520 1077 L520 1147 Z M928 1487 Q1083 1487 1230.5 1424.5 Q1378 1362 1489 1249 Q1597 1140 1655.5 993.5 Q1714 847 1714 688 Q1714 535 1651 389 Q1588 243 1473 129 Q1361 20 1219.5 -37 Q1078 -94 915 -94 Q764 -94 622 -34 Q480 26 369 137 Q255 250 196 393 Q137 536 137 696 Q137 854 196 996 Q255 1138 367 1251 Q478 1364 624 1425.5 Q770 1487 928 1487 Z M928 1403 Q789 1403 660 1348.5 Q531 1294 432 1194 Q332 1090 279.5 963.5 Q227 837 227 696 Q227 552 279 426 Q331 300 432 199 Q536 96 661 44 Q786 -8 926 -8 Q1068 -8 1193.5 45 Q1319 98 1417 199 Q1517 302 1570.5 430.5 Q1624 559 1624 696 Q1624 837 1570.5 968 Q1517 1099 1419 1196 Q1321 1294 1192 1348.5 Q1063 1403 928 1403 Z " />
<glyph glyph-name="copyright" unicode="&#xa9;" horiz-adv-x="1843" d="M1247 260 Q1174 235 1098 222 Q1022 209 946 209 Q728 209 590.5 344 Q453 479 453 692 Q453 909 592 1042.5 Q731 1176 958 1176 Q1027 1176 1100 1164 Q1173 1152 1247 1128 L1247 883 L1159 883 L1128 1036 Q1090 1059 1051 1070 Q1012 1081 969 1081 Q822 1081 726.5 971.5 Q631 862 631 694 Q631 527 725 415 Q819 303 958 303 Q991 303 1031.5 312.5 Q1072 322 1133 344 L1159 516 L1247 516 L1247 260 Z M928 1487 Q1083 1487 1230.5 1424.5 Q1378 1362 1489 1249 Q1597 1140 1655.5 993.5 Q1714 847 1714 688 Q1714 535 1651 389 Q1588 243 1473 129 Q1361 20 1219.5 -37 Q1078 -94 915 -94 Q764 -94 622 -34 Q480 26 369 137 Q255 250 196 393 Q137 536 137 696 Q137 854 196 996 Q255 1138 367 1251 Q478 1364 624 1425.5 Q770 1487 928 1487 Z M928 1401 Q787 1401 658.5 1347 Q530 1293 432 1194 Q331 1089 278 962.5 Q225 836 225 696 Q225 553 277.5 427 Q330 301 432 199 Q536 96 661 44 Q786 -8 926 -8 Q1068 -8 1193.5 45 Q1319 98 1417 199 Q1518 303 1572 431.5 Q1626 560 1626 696 Q1626 835 1572 966.5 Q1518 1098 1419 1196 Q1322 1294 1193 1347.5 Q1064 1401 928 1401 Z " />
<glyph glyph-name="trademark" unicode="&#x2122;" horiz-adv-x="1683" d="M774 817 L774 862 L838 870 L838 1298 L772 1309 L772 1356 L981 1356 L981 1331 L1120 963 L1262 1329 L1262 1356 L1466 1356 L1466 1309 L1401 1298 L1401 870 L1466 860 L1466 817 L1247 817 L1247 860 L1309 870 L1309 1305 L1120 817 L1075 817 L895 1305 L895 870 L958 862 L958 817 L774 817 Z M524 1309 L524 870 L602 862 L602 817 L352 817 L352 860 L432 868 L432 1309 L326 1309 L309 1296 L297 1214 L242 1214 L242 1356 L711 1356 L711 1214 L657 1214 L645 1296 L631 1309 L524 1309 Z " />
<glyph glyph-name="acute" unicode="&#xb4;" horiz-adv-x="1024" d="M633 1507 L836 1507 L537 1118 L434 1118 L633 1507 Z " />
<glyph glyph-name="dieresis" unicode="&#xa8;" horiz-adv-x="1024" d="M702 1415 Q746 1415 775.5 1385 Q805 1355 805 1311 Q805 1268 775 1238 Q745 1208 702 1208 Q659 1208 628.5 1238 Q598 1268 598 1311 Q598 1355 628.5 1385 Q659 1415 702 1415 Z M322 1415 Q365 1415 394.5 1385 Q424 1355 424 1311 Q424 1268 394.5 1238 Q365 1208 322 1208 Q278 1208 247.5 1238 Q217 1268 217 1311 Q217 1355 247.5 1385 Q278 1415 322 1415 Z " />
<glyph glyph-name="notequal" unicode="&#x2260;" horiz-adv-x="1706" d="M1210 1180 L1298 1110 L1102 860 L1452 860 L1452 745 L1028 745 L817 475 L1452 475 L1452 360 L743 360 L492 41 L403 111 L600 360 L254 360 L254 475 L674 475 L885 745 L254 745 L254 860 L958 860 L1210 1180 Z " />
<glyph glyph-name="AE" unicode="&#xc6;" horiz-adv-x="1774" d="M872 1284 L449 610 L872 610 L872 1284 Z M580 1374 L1640 1374 L1640 1075 L1528 1075 L1499 1249 L1470 1280 L1049 1280 L1049 762 L1331 762 L1362 791 L1382 940 L1477 940 L1477 489 L1382 489 L1362 637 L1331 668 L1049 668 L1049 94 L1544 94 L1575 127 L1608 334 L1714 334 L1714 0 L721 0 L721 84 L838 94 L872 123 L872 514 L395 514 L150 123 L160 94 L291 84 L291 0 L-115 0 L-115 84 L2 102 L717 1251 L698 1280 L580 1292 L580 1374 Z " />
<glyph glyph-name="Oslash" unicode="&#xd8;" horiz-adv-x="1497" d="M1069 1151 L481 172 Q541 125 607.5 101.5 Q674 78 750 78 Q958 78 1082 243 Q1206 408 1206 688 Q1206 829 1172.5 943 Q1139 1057 1069 1151 Z M995 1219 Q941 1260 881 1279 Q821 1298 750 1298 Q541 1298 417 1133 Q293 968 293 688 Q293 553 322.5 445 Q352 337 412 250 L995 1219 Z M1184 1532 L1268 1483 L1143 1278 Q1278 1170 1344.5 1023.5 Q1411 877 1411 688 Q1411 523 1356.5 383.5 Q1302 244 1198 143 Q1109 57 994.5 12 Q880 -33 750 -33 Q662 -33 577 -10.5 Q492 12 410 57 L283 -158 L203 -102 L332 115 Q210 219 149 363 Q88 507 88 688 Q88 854 141.5 992 Q195 1130 299 1231 Q387 1318 502.5 1363.5 Q618 1409 750 1409 Q828 1409 906 1391 Q984 1373 1065 1335 L1184 1532 Z " />
<glyph glyph-name="infinity" unicode="&#x221e;" horiz-adv-x="1706" d="M905 559 Q956 464 1024 417.5 Q1092 371 1180 371 Q1282 371 1348.5 442 Q1415 513 1415 623 Q1415 731 1354 802.5 Q1293 874 1202 874 Q1117 874 1048.5 801.5 Q980 729 905 559 Z M803 666 Q752 761 684 808.5 Q616 856 530 856 Q425 856 359 785 Q293 714 293 602 Q293 494 354 423 Q415 352 506 352 Q591 352 658 421 Q725 490 803 666 Z M866 494 Q795 356 718 292.5 Q641 229 545 229 Q411 229 319 338 Q227 447 227 610 Q227 782 309.5 887.5 Q392 993 524 993 Q621 993 696 930 Q771 867 840 727 Q907 865 986 931 Q1065 997 1161 997 Q1295 997 1387 888.5 Q1479 780 1479 616 Q1479 445 1397 339 Q1315 233 1184 233 Q1088 233 1015 293 Q942 353 866 494 Z " />
<glyph glyph-name="plusminus" unicode="&#xb1;" horiz-adv-x="1706" d="M254 158 L1452 158 L1452 41 L254 41 L254 158 Z M795 1180 L913 1180 L913 836 L1452 836 L1452 719 L913 719 L913 375 L795 375 L795 719 L254 719 L254 836 L795 836 L795 1180 Z " />
<glyph glyph-name="lessequal" unicode="&#x2264;" horiz-adv-x="1706" d="M262 150 L1444 150 L1444 33 L262 33 L262 150 Z M1444 1192 L1444 1067 L467 743 L1444 420 L1444 295 L262 694 L262 795 L1444 1192 Z " />
<glyph glyph-name="greaterequal" unicode="&#x2265;" horiz-adv-x="1706" d="M262 150 L1444 150 L1444 33 L262 33 L262 150 Z M262 1192 L1444 795 L1444 694 L262 295 L262 420 L1241 743 L262 1067 L262 1192 Z " />
<glyph glyph-name="yen" unicode="&#xa5;" horiz-adv-x="1139" d="M-12 1374 L422 1374 L422 1292 L315 1280 L297 1257 L584 696 L897 1241 L879 1270 L766 1292 L766 1374 L1145 1374 L1145 1292 L1032 1266 L807 872 L1102 872 L1102 786 L752 786 L631 573 L1102 573 L1102 487 L639 487 L639 123 L674 94 L821 84 L821 0 L293 0 L293 84 L434 94 L473 123 L473 487 L29 487 L29 573 L471 573 L362 786 L29 786 L29 872 L307 872 L104 1272 L-12 1292 L-12 1374 Z " />
<glyph glyph-name="mu" unicode="&#xb5;" horiz-adv-x="1120" d="M164 193 Q137 57 112 -146 Q78 -418 0 -418 Q-37 -418 -58.5 -394.5 Q-80 -371 -80 -330 Q-80 -290 -15.5 -56.5 Q49 177 90 371 L199 885 L346 885 L242 393 Q236 363 232.5 334.5 Q229 306 229 281 Q229 198 271 152 Q313 106 389 106 Q487 106 552.5 174.5 Q618 243 647 375 L758 885 L907 885 L793 354 Q780 295 776 266.5 Q772 238 772 217 Q772 169 798 139 Q824 109 864 109 Q899 109 929.5 127 Q960 145 981 178 Q1002 211 1022 271.5 Q1042 332 1061 332 Q1073 332 1080 322 Q1087 312 1087 295 Q1087 270 1076 228.5 Q1065 187 1047 145 Q1009 63 952 22.5 Q895 -18 817 -18 Q749 -18 708.5 33 Q668 84 668 172 L668 195 Q622 85 552 31 Q482 -23 387 -23 Q291 -23 234.5 31.5 Q178 86 164 193 Z " />
<glyph glyph-name="partialdiff" unicode="&#x2202;" horiz-adv-x="1044" d="M754 604 Q767 685 773.5 765.5 Q780 846 780 924 Q780 1064 740.5 1140.5 Q701 1217 629 1217 Q576 1217 512 1153.5 Q448 1090 403 1090 Q374 1090 352 1111.5 Q330 1133 330 1163 Q330 1222 398 1268.5 Q466 1315 561 1315 Q732 1315 834 1162.5 Q936 1010 936 750 Q936 415 797 195 Q658 -25 453 -25 Q306 -25 211.5 81.5 Q117 188 117 354 Q117 543 225.5 670 Q334 797 492 797 Q591 797 654.5 750 Q718 703 754 604 Z M709 483 Q709 600 664 663.5 Q619 727 537 727 Q424 727 352.5 599.5 Q281 472 281 266 Q281 149 325 88 Q369 27 453 27 Q564 27 636.5 155 Q709 283 709 483 Z " />
<glyph glyph-name="summation" unicode="&#x2211;" horiz-adv-x="1434" d="M12 1473 L1147 1473 L1245 1133 L1171 1133 L1104 1352 Q1096 1379 1072 1391 Q1048 1403 999 1403 L258 1403 L1122 553 L1122 516 L264 -240 L1157 -240 Q1217 -240 1234.5 -227 Q1252 -214 1264 -176 L1335 53 L1409 53 L1274 -393 L14 -393 L14 -365 L973 473 L12 1423 L12 1473 Z " />
<glyph glyph-name="product" unicode="&#x220f;" horiz-adv-x="1595" d="M57 1473 L1536 1473 L1536 1403 L1350 1403 L1350 -324 L1536 -324 L1536 -393 L981 -393 L981 -324 L1178 -324 L1178 1403 L416 1403 L416 -324 L612 -324 L612 -393 L57 -393 L57 -324 L244 -324 L244 1403 L57 1403 L57 1473 Z " />
<glyph glyph-name="integral" unicode="&#x222b;" horiz-adv-x="1020" d="M301 -268 Q404 -268 417 396 Q420 537 422 612 Q434 1115 524 1331.5 Q614 1548 805 1548 Q881 1548 927 1509 Q973 1470 973 1405 Q973 1357 942 1327.5 Q911 1298 860 1298 Q807 1298 775 1333 Q743 1368 743 1425 Q743 1433 737 1440.5 Q731 1448 723 1448 Q618 1448 604 814 Q601 657 598 569 Q588 261 566.5 108 Q545 -45 504 -139 Q455 -253 381 -312 Q307 -371 213 -371 Q140 -371 93.5 -333 Q47 -295 47 -236 Q47 -183 78.5 -152 Q110 -121 162 -121 Q209 -121 241.5 -150 Q274 -179 274 -217 Q274 -241 281.5 -254.5 Q289 -268 301 -268 Z " />
<glyph glyph-name="ordfeminine" unicode="&#xaa;" horiz-adv-x="778" d="M514 815 L514 1069 Q321 1018 261 976.5 Q201 935 201 868 Q201 815 234 783.5 Q267 752 324 752 Q359 752 406 767.5 Q453 783 514 815 Z M514 768 Q436 719 375 696.5 Q314 674 262 674 Q172 674 119 724 Q66 774 66 858 Q66 950 146.5 1002.5 Q227 1055 514 1118 L514 1165 Q514 1255 482.5 1290 Q451 1325 373 1325 Q346 1325 317.5 1319.5 Q289 1314 256 1303 L256 1182 L150 1182 Q123 1182 112.5 1191.5 Q102 1201 102 1227 Q102 1296 189 1342.5 Q276 1389 412 1389 Q533 1389 588 1339.5 Q643 1290 643 1182 L643 766 L668 743 L750 735 L750 684 L532 684 L514 768 Z " />
<glyph glyph-name="ordmasculine" unicode="&#xba;" horiz-adv-x="827" d="M414 1327 Q317 1327 259 1246.5 Q201 1166 201 1030 Q201 895 259.5 814 Q318 733 414 733 Q510 733 568.5 813.5 Q627 894 627 1030 Q627 1165 568.5 1246 Q510 1327 414 1327 Z M414 1389 Q570 1389 671 1288 Q772 1187 772 1030 Q772 873 671 772.5 Q570 672 414 672 Q257 672 157 772 Q57 872 57 1030 Q57 1188 157 1288.5 Q257 1389 414 1389 Z " />
<glyph glyph-name="ae" unicode="&#xe6;" horiz-adv-x="1485" d="M824 608 L1212 608 Q1212 617 1213 632.5 Q1214 648 1214 655 Q1214 783 1167.5 849 Q1121 915 1030 915 Q933 915 879.5 836 Q826 757 824 608 Z M664 188 L664 549 Q415 478 337.5 419 Q260 360 260 264 Q260 188 303.5 142 Q347 96 420 96 Q466 96 525.5 118.5 Q585 141 664 188 Z M340 711 L197 711 Q162 711 148.5 724.5 Q135 738 135 774 Q135 875 245.5 940.5 Q356 1006 532 1006 Q634 1006 695 976.5 Q756 947 791 883 Q846 945 913 975.5 Q980 1006 1061 1006 Q1221 1006 1309 900 Q1397 794 1397 600 Q1397 571 1396.5 556.5 Q1396 542 1395 529 L823 528 L823 244 Q889 176 965 143.5 Q1041 111 1130 111 Q1208 111 1270.5 136 Q1333 161 1397 217 L1397 104 Q1318 43 1235.5 12.5 Q1153 -18 1065 -18 Q962 -18 868.5 20.5 Q775 59 702 131 Q602 56 514 21 Q426 -14 340 -14 Q226 -14 157 56 Q88 126 88 240 Q88 376 187.5 451 Q287 526 664 621 L664 686 Q664 815 623 865 Q582 915 481 915 Q444 915 409.5 907 Q375 899 340 883 L340 711 Z " />
<glyph glyph-name="oslash" unicode="&#xf8;" horiz-adv-x="1104" d="M760 803 L381 141 Q416 105 457.5 87.5 Q499 70 551 70 Q683 70 762.5 185 Q842 300 842 494 Q842 586 821.5 662 Q801 738 760 803 Z M705 864 Q671 890 633 902.5 Q595 915 551 915 Q421 915 342.5 801 Q264 687 264 494 Q264 416 279.5 346 Q295 276 326 213 L705 864 Z M866 1147 L936 1108 L829 918 Q931 841 979.5 737.5 Q1028 634 1028 494 Q1028 269 893.5 125.5 Q759 -18 551 -18 Q487 -18 430 -4 Q373 10 319 39 L201 -164 L135 -123 L254 86 Q164 161 120 261.5 Q76 362 76 494 Q76 719 209 862.5 Q342 1006 551 1006 Q609 1006 661 994.5 Q713 983 760 961 L866 1147 Z " />
<glyph glyph-name="questiondown" unicode="&#xbf;" horiz-adv-x="995" d="M498 1030 L604 1030 L604 731 Q457 676 383 584 Q309 492 309 365 Q309 227 383.5 151.5 Q458 76 594 76 L608 76 L688 278 Q695 280 702.5 280.5 Q710 281 725 281 Q784 281 817 252 Q850 223 850 172 Q850 91 764.5 36.5 Q679 -18 549 -18 Q355 -18 239 83 Q123 184 123 352 Q123 494 214 601 Q305 708 498 791 L498 1030 Z M551 1399 Q599 1399 633.5 1365 Q668 1331 668 1282 Q668 1233 633.5 1199 Q599 1165 551 1165 Q502 1165 468 1199 Q434 1233 434 1282 Q434 1330 468 1364.5 Q502 1399 551 1399 Z " />
<glyph glyph-name="exclamdown" unicode="&#xa1;" horiz-adv-x="692" d="M297 1030 L395 1030 L453 247 Q456 206 457.5 175 Q459 144 459 129 Q459 57 430 19.5 Q401 -18 346 -18 Q290 -18 261.5 19 Q233 56 233 129 Q233 154 235 184 Q237 214 240 248 L297 1030 Z M346 1399 Q394 1399 428.5 1365 Q463 1331 463 1282 Q463 1233 428.5 1199 Q394 1165 346 1165 Q297 1165 263 1199 Q229 1233 229 1282 Q229 1330 263.5 1364.5 Q298 1399 346 1399 Z " />
<glyph glyph-name="logicalnot" unicode="&#xac;" horiz-adv-x="1706" d="M254 858 L1452 858 L1452 356 L1337 356 L1337 741 L254 741 L254 858 Z " />
<glyph glyph-name="radical" unicode="&#x221a;" horiz-adv-x="1288" d="M1106 1647 L1288 1647 L1288 1565 L1169 1565 L575 -41 L522 -41 L199 852 L80 809 L57 877 L319 969 L584 240 L1106 1647 Z " />
<glyph glyph-name="florin" unicode="&#x192;" horiz-adv-x="1139" d="M946 1149 L772 1296 Q685 1265 649.5 1186 Q614 1107 614 918 L614 754 L946 754 L946 653 L615 653 Q615 616 615.5 573 Q616 530 616 449 Q616 228 594.5 104.5 Q573 -19 522 -106 Q461 -216 358.5 -281 Q256 -346 147 -346 Q86 -346 49 -314 Q12 -282 12 -229 Q12 -192 31 -160.5 Q50 -129 86 -106 L295 -223 Q379 -174 414 -80 Q449 14 449 205 L449 653 L213 653 L213 754 L449 754 L449 907 Q449 1040 478 1122 Q507 1204 578 1274 Q635 1331 712 1365 Q789 1399 862 1399 Q940 1399 989 1363 Q1038 1327 1038 1272 Q1038 1234 1016 1204.5 Q994 1175 946 1149 Z " />
<glyph glyph-name="approxequal" unicode="&#x2248;" horiz-adv-x="1706" d="M1530 584 L1530 453 Q1423 378 1328 342.5 Q1233 307 1141 307 Q1043 307 853 376.5 Q663 446 563 446 Q481 446 393.5 410.5 Q306 375 178 287 L178 418 Q286 492 381.5 528.5 Q477 565 565 565 Q676 565 866.5 495.5 Q1057 426 1143 426 Q1228 426 1316.5 461.5 Q1405 497 1530 584 Z M1530 934 L1530 803 Q1426 730 1330 694.5 Q1234 659 1143 659 Q1043 659 853 728 Q663 797 563 797 Q480 797 391.5 761 Q303 725 178 639 L178 770 Q284 843 380 879 Q476 915 565 915 Q676 915 865.5 846.5 Q1055 778 1143 778 Q1230 778 1318 813 Q1406 848 1530 934 Z " />
<glyph glyph-name="increment" unicode="&#x2206;" horiz-adv-x="1208" d="M555 1212 L166 170 L934 170 L555 1212 Z M596 1497 L625 1497 L1180 0 L29 0 L596 1497 Z " />
<glyph glyph-name="guillemotleft" unicode="&#xab;" horiz-adv-x="905" d="M819 846 L819 711 L580 492 L819 270 L819 137 L485 410 L485 573 L819 846 Z M416 846 L416 711 L176 492 L416 270 L416 137 L80 410 L80 573 L416 846 Z " />
<glyph glyph-name="guillemotright" unicode="&#xbb;" horiz-adv-x="905" d="M498 846 L834 573 L834 410 L498 137 L498 270 L737 492 L498 711 L498 846 Z M94 846 L428 573 L428 410 L94 137 L94 270 L334 492 L94 711 L94 846 Z " />
<glyph glyph-name="ellipsis" unicode="&#x2026;" horiz-adv-x="2048" d="M342 242 Q396 242 433.5 204 Q471 166 471 111 Q471 57 433 19.5 Q395 -18 342 -18 Q287 -18 249 19 Q211 56 211 111 Q211 165 249 203.5 Q287 242 342 242 Z M1024 242 Q1078 242 1115.5 204 Q1153 166 1153 111 Q1153 57 1115 19.5 Q1077 -18 1024 -18 Q969 -18 931 19 Q893 56 893 111 Q893 165 931 203.5 Q969 242 1024 242 Z M1708 242 Q1762 242 1799.5 204 Q1837 166 1837 111 Q1837 57 1799 19.5 Q1761 -18 1708 -18 Q1653 -18 1615 19 Q1577 56 1577 111 Q1577 165 1615 203.5 Q1653 242 1708 242 Z " />
<glyph glyph-name="nbspace" unicode="&#xa0;" horiz-adv-x="1139" d="" />
<glyph glyph-name="Agrave" unicode="&#xc0;" horiz-adv-x="1309" d="M614 1176 L412 608 L825 608 L614 1176 Z M582 1391 L717 1391 L1208 109 L1331 84 L1331 0 L866 0 L866 84 L993 94 L1008 123 L860 514 L377 514 L231 123 L252 94 L385 84 L385 0 L-16 0 L-16 84 L102 109 L582 1391 Z M356 1910 L559 1910 L757 1521 L655 1521 L356 1910 Z " />
<glyph glyph-name="Atilde" unicode="&#xc3;" horiz-adv-x="1309" d="M614 1176 L412 608 L825 608 L614 1176 Z M582 1391 L717 1391 L1208 109 L1331 84 L1331 0 L866 0 L866 84 L993 94 L1008 123 L860 514 L377 514 L231 123 L252 94 L385 84 L385 0 L-16 0 L-16 84 L102 109 L582 1391 Z M882 1853 L966 1853 Q966 1848 967 1838 Q968 1828 968 1822 Q968 1726 919.5 1665.5 Q871 1605 796 1605 Q726 1605 625 1658.5 Q524 1712 501 1712 Q468 1712 448 1682 Q428 1652 428 1601 Q428 1597 429 1589 Q430 1581 430 1577 L342 1577 L342 1597 Q342 1707 386.5 1764.5 Q431 1822 516 1822 Q578 1822 674.5 1769 Q771 1716 798 1716 Q842 1716 862 1746 Q882 1776 882 1843 L882 1853 Z " />
<glyph glyph-name="Otilde" unicode="&#xd5;" horiz-adv-x="1497" d="M750 1298 Q544 1298 422.5 1133.5 Q301 969 301 688 Q301 408 423.5 242 Q546 76 750 76 Q952 76 1074 242.5 Q1196 409 1196 688 Q1196 967 1074 1132.5 Q952 1298 750 1298 Z M750 1409 Q881 1409 994 1364 Q1107 1319 1200 1229 Q1304 1128 1357.5 991 Q1411 854 1411 688 Q1411 574 1385 473 Q1359 372 1307 283 Q1220 134 1073 50.5 Q926 -33 750 -33 Q619 -33 503.5 12 Q388 57 299 143 Q195 244 141.5 382 Q88 520 88 688 Q88 855 141 992 Q194 1129 297 1229 Q389 1318 503.5 1363.5 Q618 1409 750 1409 Z M977 1853 L1061 1853 Q1061 1848 1062 1838 Q1063 1828 1063 1822 Q1063 1726 1014.5 1665.5 Q966 1605 891 1605 Q821 1605 720 1658.5 Q619 1712 596 1712 Q563 1712 543 1682 Q523 1652 523 1601 Q523 1597 524 1589 Q525 1581 525 1577 L437 1577 L437 1597 Q437 1707 481.5 1764.5 Q526 1822 611 1822 Q673 1822 769.5 1769 Q866 1716 893 1716 Q937 1716 957 1746 Q977 1776 977 1843 L977 1853 Z " />
<glyph glyph-name="OE" unicode="&#x152;" horiz-adv-x="2034" d="M1133 1124 L1133 1374 L1903 1374 L1903 1075 L1788 1075 L1759 1249 L1731 1280 L1305 1280 L1305 762 L1591 762 L1622 791 L1642 940 L1739 940 L1739 489 L1642 489 L1622 637 L1591 668 L1305 668 L1305 94 L1804 94 L1835 127 L1868 334 L1976 334 L1976 0 L1133 0 L1133 252 Q1060 120 949.5 52 Q839 -16 696 -16 Q576 -16 470.5 27.5 Q365 71 283 156 Q187 253 137.5 388 Q88 523 88 688 Q88 851 137.5 984.5 Q187 1118 285 1219 Q364 1301 471 1346 Q578 1391 696 1391 Q857 1391 963.5 1326 Q1070 1261 1133 1124 Z M717 1284 Q527 1284 414 1124 Q301 964 301 692 Q301 415 414 252.5 Q527 90 717 90 Q906 90 1020.5 252 Q1135 414 1135 686 Q1135 959 1020.5 1121.5 Q906 1284 717 1284 Z " />
<glyph glyph-name="oe" unicode="&#x153;" horiz-adv-x="1673" d="M1587 539 L977 539 L977 532 Q977 333 1067 221 Q1157 109 1315 109 Q1380 109 1442 133 Q1504 157 1587 217 L1587 104 Q1501 42 1417.5 11 Q1334 -20 1251 -20 Q1139 -20 1048 31 Q957 82 889 184 Q813 82 724 31 Q635 -20 532 -20 Q333 -20 204.5 124 Q76 268 76 494 Q76 719 204.5 862.5 Q333 1006 532 1006 Q651 1006 745.5 954.5 Q840 903 901 805 Q957 901 1044 953.5 Q1131 1006 1233 1006 Q1402 1006 1495.5 899.5 Q1589 793 1589 600 Q1589 576 1588.5 562.5 Q1588 549 1587 539 Z M1405 625 L1405 653 Q1405 778 1356.5 845.5 Q1308 913 1219 913 Q1128 913 1065.5 836 Q1003 759 987 625 L1405 625 Z M535 915 Q414 915 341 801 Q268 687 268 494 Q268 301 341.5 185.5 Q415 70 535 70 Q655 70 728 185 Q801 300 801 494 Q801 687 728.5 801 Q656 915 535 915 Z " />
<glyph glyph-name="endash" unicode="&#x2013;" horiz-adv-x="1024" d="M0 555 L1024 555 L1024 430 L0 430 L0 555 Z " />
<glyph glyph-name="emdash" unicode="&#x2014;" horiz-adv-x="2048" d="M0 430 L0 555 L2048 555 L2048 430 L0 430 Z " />
<glyph glyph-name="quotedblleft" unicode="&#x201c;" horiz-adv-x="825" d="M680 1460 L768 1460 Q684 1366 644 1289.5 Q604 1213 604 1145 Q604 1125 605 1115.5 Q606 1106 608 1098 L741 1098 Q755 1078 761.5 1060.5 Q768 1043 768 1026 Q768 973 733.5 939 Q699 905 645 905 Q572 905 527.5 956.5 Q483 1008 483 1094 Q483 1183 532.5 1275 Q582 1367 680 1460 Z M268 1460 L356 1460 Q272 1366 232.5 1289.5 Q193 1213 193 1145 Q193 1125 193.5 1115.5 Q194 1106 197 1098 L328 1098 Q341 1078 347.5 1060.5 Q354 1043 354 1026 Q354 973 320 939 Q286 905 231 905 Q159 905 115.5 956.5 Q72 1008 72 1094 Q72 1183 121 1275 Q170 1367 268 1460 Z " />
<glyph glyph-name="quotedblright" unicode="&#x201d;" horiz-adv-x="825" d="M563 905 L475 905 Q559 997 599 1074 Q639 1151 639 1221 Q639 1240 638 1249.5 Q637 1259 635 1268 L504 1268 Q490 1287 483.5 1306 Q477 1325 477 1343 Q477 1395 511 1427.5 Q545 1460 598 1460 Q671 1460 715.5 1408.5 Q760 1357 760 1272 Q760 1183 710 1090.5 Q660 998 563 905 Z M152 905 L63 905 Q148 997 187.5 1074 Q227 1151 227 1221 Q227 1240 226 1249.5 Q225 1259 223 1268 L90 1268 Q77 1287 70 1306 Q63 1325 63 1343 Q63 1394 98 1427 Q133 1460 186 1460 Q259 1460 303.5 1408.5 Q348 1357 348 1272 Q348 1183 298.5 1090.5 Q249 998 152 905 Z " />
<glyph glyph-name="quoteleft" unicode="&#x2018;" horiz-adv-x="412" d="M268 1460 L356 1460 Q272 1366 232.5 1289.5 Q193 1213 193 1145 Q193 1125 193.5 1115.5 Q194 1106 197 1098 L328 1098 Q341 1078 347.5 1060.5 Q354 1043 354 1026 Q354 973 320 939 Q286 905 231 905 Q159 905 115.5 956.5 Q72 1008 72 1094 Q72 1183 121 1275 Q170 1367 268 1460 Z " />
<glyph glyph-name="quoteright" unicode="&#x2019;" horiz-adv-x="412" d="M152 905 L63 905 Q148 997 187.5 1074 Q227 1151 227 1221 Q227 1240 226 1249.5 Q225 1259 223 1268 L90 1268 Q77 1287 70 1306 Q63 1325 63 1343 Q63 1394 98 1427 Q133 1460 186 1460 Q259 1460 303.5 1408.5 Q348 1357 348 1272 Q348 1183 298.5 1090.5 Q249 998 152 905 Z " />
<glyph glyph-name="divide" unicode="&#xf7;" horiz-adv-x="1706" d="M854 365 Q901 365 935 331 Q969 297 969 250 Q969 203 935.5 169 Q902 135 854 135 Q806 135 772.5 168.5 Q739 202 739 250 Q739 298 773 331.5 Q807 365 854 365 Z M254 670 L1452 670 L1452 553 L254 553 L254 670 Z M854 1085 Q902 1085 935.5 1051.5 Q969 1018 969 971 Q969 923 935.5 889.5 Q902 856 854 856 Q805 856 772 889.5 Q739 923 739 971 Q739 1018 773 1051.5 Q807 1085 854 1085 Z " />
<glyph glyph-name="lozenge" unicode="&#x25ca;" horiz-adv-x="1012" d="M506 1409 L121 592 L506 -233 L891 592 L506 1409 Z M506 1653 L1006 592 L506 -477 L6 592 L506 1653 Z " />
<glyph glyph-name="ydieresis" unicode="&#xff;" horiz-adv-x="1014" d="M-2 985 L442 985 L442 909 L334 901 L309 868 L555 231 L811 868 L795 901 L684 909 L684 985 L1049 985 L1049 909 L930 893 L520 -102 Q445 -283 367 -364.5 Q289 -446 193 -446 Q129 -446 90 -414.5 Q51 -383 51 -332 Q51 -302 64.5 -274 Q78 -246 104 -221 L301 -299 Q346 -251 388.5 -172 Q431 -93 467 8 L123 897 L-2 909 L-2 985 Z M700 1415 Q744 1415 773.5 1385 Q803 1355 803 1311 Q803 1268 773 1238 Q743 1208 700 1208 Q657 1208 626.5 1238 Q596 1268 596 1311 Q596 1355 626.5 1385 Q657 1415 700 1415 Z M320 1415 Q363 1415 392.5 1385 Q422 1355 422 1311 Q422 1268 392.5 1238 Q363 1208 320 1208 Q276 1208 245.5 1238 Q215 1268 215 1311 Q215 1355 245.5 1385 Q276 1415 320 1415 Z " />
<glyph glyph-name="Ydieresis" unicode="&#x178;" horiz-adv-x="1200" d="M-27 1374 L449 1374 L449 1292 L332 1280 L311 1257 L625 694 L969 1241 L950 1270 L825 1292 L825 1374 L1243 1374 L1243 1292 L1118 1266 L692 584 L692 123 L725 94 L864 84 L864 0 L334 0 L334 84 L473 94 L506 123 L506 557 L98 1272 L-27 1292 L-27 1374 Z M790 1818 Q834 1818 863.5 1788 Q893 1758 893 1714 Q893 1671 863 1641 Q833 1611 790 1611 Q747 1611 716.5 1641 Q686 1671 686 1714 Q686 1758 716.5 1788 Q747 1818 790 1818 Z M410 1818 Q453 1818 482.5 1788 Q512 1758 512 1714 Q512 1671 482.5 1641 Q453 1611 410 1611 Q366 1611 335.5 1641 Q305 1671 305 1714 Q305 1758 335.5 1788 Q366 1818 410 1818 Z " />
<glyph glyph-name="fraction" unicode="&#x2215;" horiz-adv-x="342" d="M545 1374 L670 1374 L-205 0 L-330 0 L545 1374 Z " />
<glyph glyph-name="currency" unicode="&#xa4;" horiz-adv-x="1139" d="M1071 47 Q964 10 875.5 -7.5 Q787 -25 709 -25 Q488 -25 360 108.5 Q232 242 197 508 L29 508 L49 594 L188 594 Q187 614 186.5 633.5 Q186 653 186 678 Q186 704 187.5 735.5 Q189 767 192 807 L29 807 L49 893 L205 893 Q249 1132 386.5 1265.5 Q524 1399 727 1399 Q792 1399 877 1381.5 Q962 1364 1071 1329 L1071 1014 L967 1014 L936 1212 L907 1249 Q860 1277 815 1290 Q770 1303 721 1303 Q583 1303 504.5 1205.5 Q426 1108 391 893 L856 893 L836 807 L383 807 Q382 792 381 765 Q379 708 379 688 Q379 659 379.5 637 Q380 615 381 594 L780 594 L760 508 L387 508 Q415 275 496 174.5 Q577 74 735 74 Q771 74 808.5 80.5 Q846 87 889 100 L922 133 L971 371 L1071 371 L1071 47 Z " />
<glyph glyph-name="guilsinglleft" unicode="&#x2039;" horiz-adv-x="502" d="M416 846 L416 711 L176 492 L416 270 L416 137 L80 410 L80 573 L416 846 Z " />
<glyph glyph-name="guilsinglright" unicode="&#x203a;" horiz-adv-x="502" d="M94 846 L428 573 L428 410 L94 137 L94 270 L334 492 L94 711 L94 846 Z " />
<glyph glyph-name="&amp;#xf001;" unicode="&#xf001;" horiz-adv-x="1176" d="M817 1321 Q817 1366 847.5 1395.5 Q878 1425 924 1425 Q968 1425 999 1394.5 Q1030 1364 1030 1321 Q1030 1276 999 1245 Q968 1214 924 1214 Q879 1214 848 1245 Q817 1276 817 1321 Z M653 1305 L496 1419 Q436 1385 406.5 1308 Q377 1231 377 1108 L377 958 L799 958 L918 1014 L985 1014 L985 117 L1018 84 L1114 74 L1114 0 L668 0 L668 74 L778 84 L813 117 L813 862 L375 862 L375 117 L410 84 L514 74 L514 0 L59 0 L59 74 L168 84 L205 117 L205 862 L74 862 L74 926 L205 958 L205 991 Q205 1225 318.5 1374.5 Q432 1524 604 1524 Q666 1524 703.5 1494 Q741 1464 741 1415 Q741 1377 719.5 1350 Q698 1323 653 1305 Z " />
<glyph glyph-name="&amp;#xfb01;" unicode="&#xfb01;" horiz-adv-x="1176" d="M817 1321 Q817 1366 847.5 1395.5 Q878 1425 924 1425 Q968 1425 999 1394.5 Q1030 1364 1030 1321 Q1030 1276 999 1245 Q968 1214 924 1214 Q879 1214 848 1245 Q817 1276 817 1321 Z M653 1305 L496 1419 Q436 1385 406.5 1308 Q377 1231 377 1108 L377 958 L799 958 L918 1014 L985 1014 L985 117 L1018 84 L1114 74 L1114 0 L668 0 L668 74 L778 84 L813 117 L813 862 L375 862 L375 117 L410 84 L514 74 L514 0 L59 0 L59 74 L168 84 L205 117 L205 862 L74 862 L74 926 L205 958 L205 991 Q205 1225 318.5 1374.5 Q432 1524 604 1524 Q666 1524 703.5 1494 Q741 1464 741 1415 Q741 1377 719.5 1350 Q698 1323 653 1305 Z " />
<glyph glyph-name="&amp;#xf002;" unicode="&#xf002;" horiz-adv-x="1186" d="M950 1522 L995 1522 L995 117 L1030 84 L1147 74 L1147 0 L682 0 L682 74 L791 84 L825 117 L825 1366 L733 1366 L662 1313 L510 1427 Q444 1397 410.5 1316.5 Q377 1236 377 1108 L377 958 L662 958 L662 862 L375 862 L375 117 L410 84 L514 74 L514 0 L59 0 L59 74 L168 84 L205 117 L205 862 L74 862 L74 926 L205 958 L205 991 Q205 1225 318.5 1374.5 Q432 1524 604 1524 Q663 1524 699 1497.5 Q735 1471 741 1423 L950 1522 Z " />
<glyph glyph-name="&amp;#xfb02;" unicode="&#xfb02;" horiz-adv-x="1186" d="M950 1522 L995 1522 L995 117 L1030 84 L1147 74 L1147 0 L682 0 L682 74 L791 84 L825 117 L825 1366 L733 1366 L662 1313 L510 1427 Q444 1397 410.5 1316.5 Q377 1236 377 1108 L377 958 L662 958 L662 862 L375 862 L375 117 L410 84 L514 74 L514 0 L59 0 L59 74 L168 84 L205 117 L205 862 L74 862 L74 926 L205 958 L205 991 Q205 1225 318.5 1374.5 Q432 1524 604 1524 Q663 1524 699 1497.5 Q735 1471 741 1423 L950 1522 Z " />
<glyph glyph-name="daggerdbl" unicode="&#x2021;" horiz-adv-x="1024" d="M498 172 L526 172 L602 -115 L510 -270 L420 -115 L498 172 Z M840 309 L989 217 L840 123 L551 195 L551 227 L840 309 Z M180 309 L475 227 L475 195 L180 123 L35 217 L180 309 Z M498 942 L526 942 L625 602 L526 260 L498 260 L393 602 L498 942 Z M840 1081 L989 989 L840 895 L551 967 L551 999 L840 1081 Z M180 1081 L475 999 L475 967 L180 895 L35 989 L180 1081 Z M510 1470 L602 1315 L526 1028 L498 1028 L420 1315 L510 1470 Z " />
<glyph glyph-name="middot" unicode="&#xb7;" horiz-adv-x="569" d="M285 817 Q339 817 376.5 779 Q414 741 414 686 Q414 632 376 594.5 Q338 557 285 557 Q231 557 192.5 595 Q154 633 154 686 Q154 741 192 779 Q230 817 285 817 Z " />
<glyph glyph-name="quotesinglbase" unicode="&#x201a;" horiz-adv-x="412" d="M152 -336 L63 -336 Q149 -239 188 -164 Q227 -89 227 -23 Q227 -3 226 6.5 Q225 16 223 25 L92 25 Q79 44 72.5 62.5 Q66 81 66 100 Q66 151 100.5 185 Q135 219 188 219 Q261 219 304.5 167.5 Q348 116 348 31 Q348 -58 298.5 -150.5 Q249 -243 152 -336 Z " />
<glyph glyph-name="quotedblbase" unicode="&#x201e;" horiz-adv-x="825" d="M565 -336 L477 -336 Q563 -239 602 -164 Q641 -89 641 -23 Q641 -3 640 6.5 Q639 16 637 25 L504 25 Q490 44 483.5 62.5 Q477 81 477 100 Q477 151 512 185 Q547 219 600 219 Q673 219 716.5 167.5 Q760 116 760 31 Q760 -59 710.5 -151.5 Q661 -244 565 -336 Z M152 -336 L63 -336 Q149 -239 188 -164 Q227 -89 227 -23 Q227 -3 226 6.5 Q225 16 223 25 L92 25 Q79 44 72.5 62.5 Q66 81 66 100 Q66 151 100.5 185 Q135 219 188 219 Q261 219 304.5 167.5 Q348 116 348 31 Q348 -58 298.5 -150.5 Q249 -243 152 -336 Z " />
<glyph glyph-name="perthousand" unicode="&#x2030;" horiz-adv-x="2509" d="M2132 762 Q2054 762 2013 670.5 Q1972 579 1972 406 Q1972 230 2012.5 139.5 Q2053 49 2132 49 Q2212 49 2254 139.5 Q2296 230 2296 406 Q2296 579 2254 670.5 Q2212 762 2132 762 Z M1370 762 Q1293 762 1251.5 670.5 Q1210 579 1210 406 Q1210 230 1250.5 139.5 Q1291 49 1370 49 Q1451 49 1492.5 139.5 Q1534 230 1534 406 Q1534 579 1492 670.5 Q1450 762 1370 762 Z M2136 834 Q2278 834 2360.5 719 Q2443 604 2443 406 Q2443 205 2360.5 90 Q2278 -25 2136 -25 Q1993 -25 1911 89.5 Q1829 204 1829 406 Q1829 604 1912 719 Q1995 834 2136 834 Z M1374 834 Q1516 834 1598.5 719 Q1681 604 1681 406 Q1681 205 1599 90 Q1517 -25 1374 -25 Q1231 -25 1149 89.5 Q1067 204 1067 406 Q1067 604 1150 719 Q1233 834 1374 834 Z M367 1325 Q289 1325 248 1234.5 Q207 1144 207 971 Q207 795 247.5 704.5 Q288 614 367 614 Q447 614 488.5 705 Q530 796 530 971 Q530 1144 488.5 1234.5 Q447 1325 367 1325 Z M1245 1374 L1370 1374 L494 0 L371 0 L1245 1374 Z M371 1399 Q512 1399 595 1284 Q678 1169 678 971 Q678 770 595.5 655.5 Q513 541 371 541 Q228 541 145.5 655 Q63 769 63 971 Q63 1169 146 1284 Q229 1399 371 1399 Z " />
<glyph glyph-name="Acircumflex" unicode="&#xc2;" horiz-adv-x="1309" d="M614 1176 L412 608 L825 608 L614 1176 Z M582 1391 L717 1391 L1208 109 L1331 84 L1331 0 L866 0 L866 84 L993 94 L1008 123 L860 514 L377 514 L231 123 L252 94 L385 84 L385 0 L-16 0 L-16 84 L102 109 L582 1391 Z M589 1910 L721 1910 L946 1521 L835 1521 L655 1810 L477 1521 L364 1521 L589 1910 Z " />
<glyph glyph-name="Ecircumflex" unicode="&#xca;" horiz-adv-x="1180" d="M68 0 L68 84 L184 94 L219 123 L219 1251 L184 1280 L68 1292 L68 1374 L1049 1374 L1049 1075 L934 1075 L905 1249 L877 1280 L403 1280 L403 762 L739 762 L768 791 L788 940 L885 940 L885 489 L788 489 L768 637 L739 668 L403 668 L403 94 L952 94 L981 127 L1016 334 L1122 334 L1122 0 L68 0 Z M524 1910 L656 1910 L881 1521 L770 1521 L590 1810 L412 1521 L299 1521 L524 1910 Z " />
<glyph glyph-name="Aacute" unicode="&#xc1;" horiz-adv-x="1309" d="M614 1176 L412 608 L825 608 L614 1176 Z M582 1391 L717 1391 L1208 109 L1331 84 L1331 0 L866 0 L866 84 L993 94 L1008 123 L860 514 L377 514 L231 123 L252 94 L385 84 L385 0 L-16 0 L-16 84 L102 109 L582 1391 Z M776 1910 L979 1910 L680 1521 L577 1521 L776 1910 Z " />
<glyph glyph-name="Edieresis" unicode="&#xcb;" horiz-adv-x="1180" d="M68 0 L68 84 L184 94 L219 123 L219 1251 L184 1280 L68 1292 L68 1374 L1049 1374 L1049 1075 L934 1075 L905 1249 L877 1280 L403 1280 L403 762 L739 762 L768 791 L788 940 L885 940 L885 489 L788 489 L768 637 L739 668 L403 668 L403 94 L952 94 L981 127 L1016 334 L1122 334 L1122 0 L68 0 Z M780 1818 Q824 1818 853.5 1788 Q883 1758 883 1714 Q883 1671 853 1641 Q823 1611 780 1611 Q737 1611 706.5 1641 Q676 1671 676 1714 Q676 1758 706.5 1788 Q737 1818 780 1818 Z M400 1818 Q443 1818 472.5 1788 Q502 1758 502 1714 Q502 1671 472.5 1641 Q443 1611 400 1611 Q356 1611 325.5 1641 Q295 1671 295 1714 Q295 1758 325.5 1788 Q356 1818 400 1818 Z " />
<glyph glyph-name="Egrave" unicode="&#xc8;" horiz-adv-x="1180" d="M68 0 L68 84 L184 94 L219 123 L219 1251 L184 1280 L68 1292 L68 1374 L1049 1374 L1049 1075 L934 1075 L905 1249 L877 1280 L403 1280 L403 762 L739 762 L768 791 L788 940 L885 940 L885 489 L788 489 L768 637 L739 668 L403 668 L403 94 L952 94 L981 127 L1016 334 L1122 334 L1122 0 L68 0 Z M291 1910 L494 1910 L692 1521 L590 1521 L291 1910 Z " />
<glyph glyph-name="Iacute" unicode="&#xcd;" horiz-adv-x="664" d="M72 0 L72 84 L203 94 L238 123 L238 1251 L203 1280 L72 1292 L72 1374 L592 1374 L592 1292 L461 1280 L426 1251 L426 123 L461 94 L592 84 L592 0 L72 0 Z M455 1910 L658 1910 L359 1521 L256 1521 L455 1910 Z " />
<glyph glyph-name="Icircumflex" unicode="&#xce;" horiz-adv-x="664" d="M72 0 L72 84 L203 94 L238 123 L238 1251 L203 1280 L72 1292 L72 1374 L592 1374 L592 1292 L461 1280 L426 1251 L426 123 L461 94 L592 84 L592 0 L72 0 Z M268 1910 L400 1910 L625 1521 L514 1521 L334 1810 L156 1521 L43 1521 L268 1910 Z " />
<glyph glyph-name="Idieresis" unicode="&#xcf;" horiz-adv-x="664" d="M72 0 L72 84 L203 94 L238 123 L238 1251 L203 1280 L72 1292 L72 1374 L592 1374 L592 1292 L461 1280 L426 1251 L426 123 L461 94 L592 84 L592 0 L72 0 Z M524 1818 Q568 1818 597.5 1788 Q627 1758 627 1714 Q627 1671 597 1641 Q567 1611 524 1611 Q481 1611 450.5 1641 Q420 1671 420 1714 Q420 1758 450.5 1788 Q481 1818 524 1818 Z M144 1818 Q187 1818 216.5 1788 Q246 1758 246 1714 Q246 1671 216.5 1641 Q187 1611 144 1611 Q100 1611 69.5 1641 Q39 1671 39 1714 Q39 1758 69.5 1788 Q100 1818 144 1818 Z " />
<glyph glyph-name="Igrave" unicode="&#xcc;" horiz-adv-x="664" d="M72 0 L72 84 L203 94 L238 123 L238 1251 L203 1280 L72 1292 L72 1374 L592 1374 L592 1292 L461 1280 L426 1251 L426 123 L461 94 L592 84 L592 0 L72 0 Z M35 1910 L238 1910 L436 1521 L334 1521 L35 1910 Z " />
<glyph glyph-name="Oacute" unicode="&#xd3;" horiz-adv-x="1497" d="M750 1298 Q544 1298 422.5 1133.5 Q301 969 301 688 Q301 408 423.5 242 Q546 76 750 76 Q952 76 1074 242.5 Q1196 409 1196 688 Q1196 967 1074 1132.5 Q952 1298 750 1298 Z M750 1409 Q881 1409 994 1364 Q1107 1319 1200 1229 Q1304 1128 1357.5 991 Q1411 854 1411 688 Q1411 574 1385 473 Q1359 372 1307 283 Q1220 134 1073 50.5 Q926 -33 750 -33 Q619 -33 503.5 12 Q388 57 299 143 Q195 244 141.5 382 Q88 520 88 688 Q88 855 141 992 Q194 1129 297 1229 Q389 1318 503.5 1363.5 Q618 1409 750 1409 Z M871 1910 L1074 1910 L775 1521 L672 1521 L871 1910 Z " />
<glyph glyph-name="Ocircumflex" unicode="&#xd4;" horiz-adv-x="1497" d="M750 1298 Q544 1298 422.5 1133.5 Q301 969 301 688 Q301 408 423.5 242 Q546 76 750 76 Q952 76 1074 242.5 Q1196 409 1196 688 Q1196 967 1074 1132.5 Q952 1298 750 1298 Z M750 1409 Q881 1409 994 1364 Q1107 1319 1200 1229 Q1304 1128 1357.5 991 Q1411 854 1411 688 Q1411 574 1385 473 Q1359 372 1307 283 Q1220 134 1073 50.5 Q926 -33 750 -33 Q619 -33 503.5 12 Q388 57 299 143 Q195 244 141.5 382 Q88 520 88 688 Q88 855 141 992 Q194 1129 297 1229 Q389 1318 503.5 1363.5 Q618 1409 750 1409 Z M684 1910 L816 1910 L1041 1521 L930 1521 L750 1810 L572 1521 L459 1521 L684 1910 Z " />
<glyph glyph-name="apple" unicode="&#xf000;" horiz-adv-x="1618" d="M836 1216 Q835 1222 834.5 1230 Q834 1238 834 1253 Q834 1377 929 1482.5 Q1024 1588 1165 1614 Q1166 1604 1166.5 1591 Q1167 1578 1167 1552 Q1167 1421 1063.5 1317.5 Q960 1214 860 1214 L852 1214 Q849 1214 844.5 1215 Q840 1216 836 1216 Z M1505 403 Q1391 156 1300 60.5 Q1209 -35 1096 -35 Q1046 -35 964.5 -2 Q883 31 842 31 Q797 31 711 -2 Q625 -35 584 -35 Q520 -35 455.5 9 Q391 53 326 141 Q224 281 168.5 436.5 Q113 592 113 737 Q113 956 238 1093.5 Q363 1231 561 1231 Q629 1231 716 1197 Q803 1163 840 1163 Q874 1163 961.5 1198 Q1049 1233 1114 1233 Q1224 1233 1312 1193 Q1400 1153 1473 1069 Q1371 1004 1321.5 923.5 Q1272 843 1272 741 Q1272 628 1332 541 Q1392 454 1505 403 Z " />
<glyph glyph-name="Ograve" unicode="&#xd2;" horiz-adv-x="1497" d="M750 1298 Q544 1298 422.5 1133.5 Q301 969 301 688 Q301 408 423.5 242 Q546 76 750 76 Q952 76 1074 242.5 Q1196 409 1196 688 Q1196 967 1074 1132.5 Q952 1298 750 1298 Z M750 1409 Q881 1409 994 1364 Q1107 1319 1200 1229 Q1304 1128 1357.5 991 Q1411 854 1411 688 Q1411 574 1385 473 Q1359 372 1307 283 Q1220 134 1073 50.5 Q926 -33 750 -33 Q619 -33 503.5 12 Q388 57 299 143 Q195 244 141.5 382 Q88 520 88 688 Q88 855 141 992 Q194 1129 297 1229 Q389 1318 503.5 1363.5 Q618 1409 750 1409 Z M451 1910 L654 1910 L852 1521 L750 1521 L451 1910 Z " />
<glyph glyph-name="Uacute" unicode="&#xda;" horiz-adv-x="1421" d="M51 1374 L553 1374 L553 1292 L426 1280 L391 1251 L391 510 Q391 295 477.5 198.5 Q564 102 756 102 Q946 102 1033 199.5 Q1120 297 1120 510 L1120 1237 L1081 1274 L958 1292 L958 1374 L1391 1374 L1391 1292 L1268 1274 L1231 1237 L1231 492 Q1231 345 1210 267 Q1189 189 1141 131 Q1080 58 968.5 16.5 Q857 -25 717 -25 Q576 -25 465 16.5 Q354 58 293 131 Q244 190 223.5 267 Q203 344 203 492 L203 1251 L168 1280 L51 1292 L51 1374 Z M832 1910 L1035 1910 L736 1521 L633 1521 L832 1910 Z " />
<glyph glyph-name="Ucircumflex" unicode="&#xdb;" horiz-adv-x="1421" d="M51 1374 L553 1374 L553 1292 L426 1280 L391 1251 L391 510 Q391 295 477.5 198.5 Q564 102 756 102 Q946 102 1033 199.5 Q1120 297 1120 510 L1120 1237 L1081 1274 L958 1292 L958 1374 L1391 1374 L1391 1292 L1268 1274 L1231 1237 L1231 492 Q1231 345 1210 267 Q1189 189 1141 131 Q1080 58 968.5 16.5 Q857 -25 717 -25 Q576 -25 465 16.5 Q354 58 293 131 Q244 190 223.5 267 Q203 344 203 492 L203 1251 L168 1280 L51 1292 L51 1374 Z M645 1910 L777 1910 L1002 1521 L891 1521 L711 1810 L533 1521 L420 1521 L645 1910 Z " />
<glyph glyph-name="Ugrave" unicode="&#xd9;" horiz-adv-x="1421" d="M51 1374 L553 1374 L553 1292 L426 1280 L391 1251 L391 510 Q391 295 477.5 198.5 Q564 102 756 102 Q946 102 1033 199.5 Q1120 297 1120 510 L1120 1237 L1081 1274 L958 1292 L958 1374 L1391 1374 L1391 1292 L1268 1274 L1231 1237 L1231 492 Q1231 345 1210 267 Q1189 189 1141 131 Q1080 58 968.5 16.5 Q857 -25 717 -25 Q576 -25 465 16.5 Q354 58 293 131 Q244 190 223.5 267 Q203 344 203 492 L203 1251 L168 1280 L51 1292 L51 1374 Z M412 1910 L615 1910 L813 1521 L711 1521 L412 1910 Z " />
<glyph glyph-name="dotlessi" unicode="&#x131;" horiz-adv-x="573" d="M307 995 L387 995 L387 117 L422 84 L532 74 L532 0 L72 0 L72 74 L180 84 L215 117 L215 858 L72 858 L72 922 L307 995 Z " />
<glyph glyph-name="circumflex" unicode="&#x2c6;" horiz-adv-x="1024" d="M446 1507 L578 1507 L803 1118 L692 1118 L512 1407 L334 1118 L221 1118 L446 1507 Z " />
<glyph glyph-name="tilde" unicode="&#x2dc;" horiz-adv-x="1024" d="M739 1450 L823 1450 Q823 1445 824 1435 Q825 1425 825 1419 Q825 1323 776.5 1262.5 Q728 1202 653 1202 Q583 1202 482 1255.5 Q381 1309 358 1309 Q325 1309 305 1279 Q285 1249 285 1198 Q285 1194 286 1186 Q287 1178 287 1174 L199 1174 L199 1194 Q199 1304 243.5 1361.5 Q288 1419 373 1419 Q435 1419 531.5 1366 Q628 1313 655 1313 Q699 1313 719 1343 Q739 1373 739 1440 L739 1450 Z " />
<glyph glyph-name="overscore" unicode="&#xaf;" horiz-adv-x="1024" d="M209 1368 L825 1368 L825 1245 L209 1245 L209 1368 Z " />
<glyph glyph-name="breve" unicode="&#x2d8;" horiz-adv-x="1024" d="M223 1452 L303 1452 L303 1436 Q303 1356 350 1323 Q397 1290 514 1290 Q629 1290 675 1323 Q721 1356 721 1436 L721 1452 L803 1452 L803 1430 Q803 1285 737 1223 Q671 1161 514 1161 Q355 1161 289 1222 Q223 1283 223 1430 L223 1452 Z " />
<glyph glyph-name="dotaccent" unicode="&#x2d9;" horiz-adv-x="1024" d="M512 1425 Q559 1425 591 1393.5 Q623 1362 623 1315 Q623 1269 591 1238.5 Q559 1208 512 1208 Q466 1208 434.5 1239 Q403 1270 403 1315 Q403 1361 434.5 1393 Q466 1425 512 1425 Z " />
<glyph glyph-name="ring" unicode="&#x2da;" horiz-adv-x="1024" d="M512 1507 Q450 1507 407.5 1464 Q365 1421 365 1358 Q365 1296 408 1253 Q451 1210 512 1210 Q575 1210 618.5 1253 Q662 1296 662 1358 Q662 1421 618.5 1464 Q575 1507 512 1507 Z M512 1599 Q614 1599 684 1530 Q754 1461 754 1360 Q754 1258 683.5 1188 Q613 1118 512 1118 Q411 1118 341.5 1188 Q272 1258 272 1360 Q272 1461 341.5 1530 Q411 1599 512 1599 Z " />
<glyph glyph-name="cedilla" unicode="&#xb8;" horiz-adv-x="1024" d="M481 0 L557 0 L557 -124 Q566 -124 575.5 -123.5 Q585 -123 598 -123 Q670 -123 711 -162 Q752 -201 752 -270 Q752 -356 687 -406.5 Q622 -457 510 -457 Q477 -457 442 -451.5 Q407 -446 369 -436 L369 -362 Q401 -371 430.5 -375 Q460 -379 489 -379 Q554 -379 590.5 -355.5 Q627 -332 627 -291 Q627 -255 600 -235 Q573 -215 524 -215 Q517 -215 508 -216 Q499 -217 482 -219 L481 0 Z " />
<glyph glyph-name="hungarumlaut" unicode="&#x2dd;" horiz-adv-x="1024" d="M768 1507 L969 1507 L582 1118 L485 1118 L768 1507 Z M465 1507 L645 1507 L356 1118 L272 1118 L465 1507 Z " />
<glyph glyph-name="ogonek" unicode="&#x2db;" horiz-adv-x="1024" d="M512 0 L602 0 Q549 -45 520.5 -102 Q492 -159 492 -217 Q492 -274 521.5 -304 Q551 -334 608 -334 Q622 -334 667 -327 Q673 -326 676 -326 L676 -428 Q652 -435 625.5 -438.5 Q599 -442 571 -442 Q474 -442 423.5 -398 Q373 -354 373 -268 Q373 -194 410 -122 Q447 -50 512 0 Z " />
<glyph glyph-name="caron" unicode="&#x2c7;" horiz-adv-x="1024" d="M221 1507 L334 1507 L512 1219 L692 1507 L803 1507 L578 1118 L446 1118 L221 1507 Z " />
<glyph glyph-name="Lslash" unicode="&#x141;" horiz-adv-x="1065" d="M55 1374 L555 1374 L555 1292 L438 1280 L403 1251 L403 834 L596 961 L649 883 L403 717 L403 94 L866 94 L895 127 L930 373 L1036 373 L1036 0 L55 0 L55 84 L184 94 L219 123 L219 596 L70 494 L20 575 L219 709 L219 1251 L184 1280 L55 1292 L55 1374 Z " />
<glyph glyph-name="lslash" unicode="&#x142;" horiz-adv-x="578" d="M305 1507 L383 1507 L383 860 L559 977 L612 897 L383 743 L383 117 L420 84 L537 74 L537 0 L57 0 L57 74 L178 84 L213 117 L213 629 L59 524 L10 606 L213 741 L213 1370 L55 1370 L55 1434 L305 1507 Z " />
<glyph glyph-name="Scaron" unicode="&#x160;" horiz-adv-x="1139" d="M123 41 L123 401 L244 401 L268 166 L295 131 Q340 108 398 96 Q456 84 524 84 Q667 84 750.5 150.5 Q834 217 834 330 Q834 487 540 612 Q508 626 491 633 Q281 724 213 802.5 Q145 881 145 1006 Q145 1182 274.5 1290.5 Q404 1399 618 1399 Q704 1399 790.5 1384.5 Q877 1370 967 1341 L967 1024 L860 1024 L829 1219 L799 1253 Q760 1275 714 1285.5 Q668 1296 614 1296 Q486 1296 411 1229.5 Q336 1163 336 1049 Q336 966 388.5 911.5 Q441 857 623 780 Q640 773 674 760 Q853 690 932 612 Q977 568 999.5 511 Q1022 454 1022 387 Q1022 202 877 88.5 Q732 -25 492 -25 Q385 -25 290.5 -8 Q196 9 123 41 Z M278 1910 L391 1910 L569 1622 L749 1910 L860 1910 L635 1521 L503 1521 L278 1910 Z " />
<glyph glyph-name="scaron" unicode="&#x161;" horiz-adv-x="819" d="M705 961 L705 729 L604 729 L588 874 Q547 896 510 907 Q473 918 436 918 Q356 918 311 879 Q266 840 266 770 Q266 713 302 673 Q338 633 440 584 Q456 576 489 561 Q605 508 657 465 Q695 435 715 389.5 Q735 344 735 289 Q735 145 633.5 63.5 Q532 -18 352 -18 Q278 -18 210.5 -7.5 Q143 3 86 25 L86 291 L184 291 L209 117 Q252 92 295.5 80 Q339 68 383 68 Q470 68 522.5 113.5 Q575 159 575 233 Q575 295 539 335.5 Q503 376 367 438 Q213 507 157.5 568 Q102 629 102 719 Q102 856 197 931 Q292 1006 465 1006 Q534 1006 593.5 994.5 Q653 983 705 961 Z M121 1507 L234 1507 L412 1219 L592 1507 L703 1507 L478 1118 L346 1118 L121 1507 Z " />
<glyph glyph-name="Zcaron" unicode="&#x17d;" horiz-adv-x="1200" d="M137 1374 L1094 1374 L1094 1288 L315 100 L934 100 L956 127 L993 371 L1104 371 L1104 0 L92 0 L92 84 L868 1276 L322 1276 L283 1249 L250 1057 L137 1057 L137 1374 Z M309 1910 L422 1910 L600 1622 L780 1910 L891 1910 L666 1521 L534 1521 L309 1910 Z " />
<glyph glyph-name="zcaron" unicode="&#x17e;" horiz-adv-x="958" d="M92 0 L92 102 L639 891 L260 891 L231 858 L209 700 L113 700 L113 985 L852 985 L852 907 L285 94 L725 94 L756 127 L778 301 L883 301 L883 0 L92 0 Z M190 1507 L303 1507 L481 1219 L661 1507 L772 1507 L547 1118 L415 1118 L190 1507 Z " />
<glyph glyph-name="brokenbar" unicode="&#xa6;" horiz-adv-x="1024" d="M449 408 L575 408 L575 -350 L449 -350 L449 408 Z M449 1432 L575 1432 L575 674 L449 674 L449 1432 Z " />
<glyph glyph-name="Eth" unicode="&#xd0;" horiz-adv-x="1419" d="M403 670 L403 94 L565 94 Q845 94 983.5 241.5 Q1122 389 1122 688 Q1122 987 984.5 1133.5 Q847 1280 565 1280 L403 1280 L403 768 L743 768 L743 670 L403 670 Z M573 1374 Q933 1374 1131 1194.5 Q1329 1015 1329 688 Q1329 506 1264.5 364.5 Q1200 223 1073 127 Q983 59 870 29.5 Q757 0 573 0 L68 0 L68 84 L184 94 L219 123 L219 670 L31 670 L31 768 L219 768 L219 1251 L184 1280 L68 1292 L68 1374 L573 1374 Z " />
<glyph glyph-name="eth" unicode="&#xf0;" horiz-adv-x="1081" d="M752 883 Q701 896 661 902.5 Q621 909 590 909 Q433 909 345.5 800.5 Q258 692 258 496 Q258 300 338 183 Q418 66 547 66 Q679 66 757.5 187 Q836 308 836 514 Q836 633 815 723 Q794 813 752 883 Z M700 981 Q664 1040 623 1097 Q582 1154 537 1208 L274 1051 L229 1128 L469 1274 L395 1358 L229 1372 L229 1432 L461 1501 L606 1352 L831 1487 L877 1407 L666 1280 Q843 1075 926.5 897.5 Q1010 720 1010 547 Q1010 297 876 138.5 Q742 -20 537 -20 Q330 -20 199 125.5 Q68 271 68 500 Q68 719 208.5 857 Q349 995 571 995 Q596 995 625 992 Q654 989 700 981 Z " />
<glyph glyph-name="Yacute" unicode="&#xdd;" horiz-adv-x="1200" d="M-27 1374 L449 1374 L449 1292 L332 1280 L311 1257 L625 694 L969 1241 L950 1270 L825 1292 L825 1374 L1243 1374 L1243 1292 L1118 1266 L692 584 L692 123 L725 94 L864 84 L864 0 L334 0 L334 84 L473 94 L506 123 L506 557 L98 1272 L-27 1292 L-27 1374 Z M721 1910 L924 1910 L625 1521 L522 1521 L721 1910 Z " />
<glyph glyph-name="yacute" unicode="&#xfd;" horiz-adv-x="1014" d="M-2 985 L442 985 L442 909 L334 901 L309 868 L555 231 L811 868 L795 901 L684 909 L684 985 L1049 985 L1049 909 L930 893 L520 -102 Q445 -283 367 -364.5 Q289 -446 193 -446 Q129 -446 90 -414.5 Q51 -383 51 -332 Q51 -302 64.5 -274 Q78 -246 104 -221 L301 -299 Q346 -251 388.5 -172 Q431 -93 467 8 L123 897 L-2 909 L-2 985 Z M631 1507 L834 1507 L535 1118 L432 1118 L631 1507 Z " />
<glyph glyph-name="Thorn" unicode="&#xde;" horiz-adv-x="1143" d="M410 381 Q450 377 484.5 375 Q519 373 545 373 Q720 373 811.5 459 Q903 545 903 711 Q903 871 809 947.5 Q715 1024 518 1024 Q475 1024 452.5 1023 Q430 1022 410 1020 L410 381 Z M72 1374 L569 1374 L569 1292 L442 1280 L410 1251 L410 1116 L522 1116 Q830 1116 961 1021 Q1092 926 1092 707 Q1092 510 948 392 Q804 274 561 274 Q537 274 503 276.5 Q469 279 410 285 L410 123 L442 94 L569 84 L569 0 L72 0 L72 84 L190 94 L223 123 L223 1251 L190 1280 L72 1292 L72 1374 Z " />
<glyph glyph-name="thorn" unicode="&#xfe;" horiz-adv-x="1128" d="M371 119 Q419 103 463.5 94.5 Q508 86 547 86 Q699 86 793 199.5 Q887 313 887 500 Q887 673 805.5 775 Q724 877 588 877 Q538 877 485 860 Q432 843 371 807 L371 119 Z M57 -446 L57 -373 L166 -362 L201 -330 L201 1370 L41 1370 L41 1434 L293 1507 L371 1507 L371 883 Q454 946 527.5 976 Q601 1006 672 1006 Q844 1006 955.5 871.5 Q1067 737 1067 526 Q1067 285 929.5 139.5 Q792 -6 563 -6 Q524 -6 475.5 -1.5 Q427 3 371 12 L371 -330 L408 -362 L537 -373 L537 -446 L57 -446 Z " />
<glyph glyph-name="minus" unicode="&#x2212;" horiz-adv-x="1706" d="M254 670 L1452 670 L1452 551 L254 551 L254 670 Z " />
<glyph glyph-name="multiply" unicode="&#xd7;" horiz-adv-x="1706" d="M381 1169 L858 692 L1333 1169 L1415 1087 L940 610 L1415 135 L1333 53 L858 528 L381 53 L301 135 L776 610 L301 1087 L381 1169 Z " />
<glyph glyph-name="onesuperior" unicode="&#xb9;" horiz-adv-x="752" d="M422 1389 L459 1389 L459 625 L475 606 L621 600 L621 549 L168 549 L168 602 L324 608 L340 631 L340 1290 L129 1257 L129 1309 L422 1389 Z " />
<glyph glyph-name="twosuperior" unicode="&#xb2;" horiz-adv-x="752" d="M190 645 L598 645 L623 750 L682 750 L682 549 L57 549 L57 627 Q356 849 439 948 Q522 1047 522 1141 Q522 1228 474.5 1276.5 Q427 1325 342 1325 Q310 1325 280 1318 Q250 1311 221 1296 L221 1166 Q207 1156 192 1151.5 Q177 1147 162 1147 Q126 1147 106 1165 Q86 1183 86 1214 Q86 1284 170 1336.5 Q254 1389 373 1389 Q501 1389 577 1325 Q653 1261 653 1155 Q653 1059 560.5 952.5 Q468 846 190 645 Z " />
<glyph glyph-name="threesuperior" unicode="&#xb3;" horiz-adv-x="752" d="M428 983 Q539 975 602.5 922.5 Q666 870 666 784 Q666 677 569.5 606 Q473 535 324 535 Q213 535 134 576.5 Q55 618 55 670 Q55 697 77 715 Q99 733 131 733 Q141 733 151 731.5 Q161 730 172 727 L213 623 Q239 608 267.5 601 Q296 594 328 594 Q419 594 480 649 Q541 704 541 786 Q541 861 489 900.5 Q437 940 340 940 Q313 940 297.5 939 Q282 938 268 936 L268 1008 L297 1008 Q398 1008 453 1049 Q508 1090 508 1165 Q508 1239 461.5 1282 Q415 1325 336 1325 Q299 1325 267 1316.5 Q235 1308 207 1290 L207 1174 Q195 1166 181 1162.5 Q167 1159 152 1159 Q119 1159 98.5 1177.5 Q78 1196 78 1225 Q78 1291 161.5 1340 Q245 1389 365 1389 Q486 1389 558.5 1332.5 Q631 1276 631 1182 Q631 1110 579 1059.5 Q527 1009 428 983 Z " />
<glyph glyph-name="onequarter" unicode="&#xbc;" horiz-adv-x="1776" d="M1509 651 L1190 297 L1509 297 L1509 651 Z M1534 776 L1608 776 L1608 297 L1755 297 L1755 223 L1608 223 L1608 -43 L1509 -43 L1509 223 L1094 223 L1094 297 L1534 776 Z M1262 1374 L1386 1374 L512 0 L387 0 L1262 1374 Z M399 1386 L436 1386 L436 676 L453 657 L592 653 L592 604 L160 604 L160 653 L307 659 L324 680 L324 1296 L121 1266 L121 1313 L399 1386 Z " />
<glyph glyph-name="onehalf" unicode="&#xbd;" horiz-adv-x="1776" d="M1241 90 L1628 90 L1653 188 L1710 188 L1710 0 L1112 0 L1112 72 Q1396 277 1476 370 Q1556 463 1556 551 Q1556 634 1511 679.5 Q1466 725 1384 725 Q1354 725 1326 718 Q1298 711 1270 696 L1269 575 Q1257 566 1242.5 561.5 Q1228 557 1212 557 Q1179 557 1160 574.5 Q1141 592 1141 623 Q1141 687 1220.5 734.5 Q1300 782 1413 782 Q1537 782 1609 724 Q1681 666 1681 567 Q1681 477 1593.5 378 Q1506 279 1241 90 Z M1262 1374 L1386 1374 L512 0 L387 0 L1262 1374 Z M399 1386 L436 1386 L436 676 L453 657 L592 653 L592 604 L160 604 L160 653 L307 659 L324 680 L324 1296 L121 1266 L121 1313 L399 1386 Z " />
<glyph glyph-name="threequarters" unicode="&#xbe;" horiz-adv-x="1778" d="M1509 651 L1190 297 L1509 297 L1509 651 Z M1534 776 L1608 776 L1608 297 L1755 297 L1755 223 L1608 223 L1608 -43 L1509 -43 L1509 223 L1094 223 L1094 297 L1534 776 Z M1262 1374 L1386 1374 L512 0 L387 0 L1262 1374 Z M410 1010 Q515 1002 575 953 Q635 904 635 825 Q635 724 543.5 658 Q452 592 309 592 Q204 592 128.5 630.5 Q53 669 53 717 Q53 743 73.5 759.5 Q94 776 125 776 Q134 776 143.5 774.5 Q153 773 164 770 L205 674 Q232 659 259 652 Q286 645 313 645 Q400 645 458 697.5 Q516 750 516 827 Q516 896 466.5 933.5 Q417 971 326 971 Q310 971 292 969.5 Q274 968 256 965 L256 1032 L285 1032 Q380 1032 431.5 1070.5 Q483 1109 483 1180 Q483 1248 438.5 1288.5 Q394 1329 319 1329 Q285 1329 255.5 1321 Q226 1313 197 1296 L197 1188 Q187 1181 174.5 1177.5 Q162 1174 145 1174 Q114 1174 95 1190.5 Q76 1207 76 1235 Q76 1296 154.5 1341 Q233 1386 346 1386 Q463 1386 532.5 1334 Q602 1282 602 1194 Q602 1128 552.5 1080.5 Q503 1033 410 1010 Z " />
<glyph glyph-name="franc" unicode="&#x20a3;" horiz-adv-x="1882" d="M68 0 L68 84 L184 94 L219 123 L219 1251 L184 1280 L51 1292 L51 1374 L1034 1374 L1034 1055 L922 1055 L891 1249 L864 1280 L403 1280 L403 741 L739 741 L768 770 L788 920 L885 920 L885 467 L788 467 L768 616 L739 647 L403 647 L403 123 L438 94 L584 84 L584 0 L68 0 Z M1161 0 L1161 74 L1270 84 L1305 117 L1305 858 L1161 858 L1161 922 L1399 995 L1477 995 L1477 803 Q1527 854 1581.5 903.5 Q1636 953 1696 1001 Q1705 1004 1715.5 1005 Q1726 1006 1747 1006 Q1778 1006 1808 999.5 Q1838 993 1870 979 L1870 803 L1805 803 Q1785 827 1758.5 839.5 Q1732 852 1700 852 Q1651 852 1596.5 815.5 Q1542 779 1477 702 L1477 117 L1512 84 L1655 74 L1655 0 L1161 0 Z " />
<glyph glyph-name="Gbreve" unicode="&#x11e;" horiz-adv-x="1421" d="M854 659 L1366 659 L1366 575 L1253 565 L1219 537 L1219 47 Q1095 11 989.5 -7 Q884 -25 795 -25 Q693 -25 603.5 -4 Q514 17 442 57 Q277 151 182.5 319 Q88 487 88 688 Q88 1014 287 1206.5 Q486 1399 823 1399 Q916 1399 1015 1384 Q1114 1369 1217 1339 L1217 1014 L1102 1014 L1071 1200 L1042 1237 Q984 1264 926.5 1277 Q869 1290 809 1290 Q572 1290 435.5 1133 Q299 976 299 702 Q299 415 440.5 249.5 Q582 84 825 84 Q872 84 924.5 90.5 Q977 97 1034 111 L1034 537 L999 565 L854 575 L854 659 Z M422 1855 L502 1855 L502 1839 Q502 1759 549 1726 Q596 1693 713 1693 Q828 1693 874 1726 Q920 1759 920 1839 L920 1855 L1002 1855 L1002 1833 Q1002 1688 936 1626 Q870 1564 713 1564 Q554 1564 488 1625 Q422 1686 422 1833 L422 1855 Z " />
<glyph glyph-name="gbreve" unicode="&#x11f;" horiz-adv-x="1071" d="M422 61 Q339 36 292.5 -17 Q246 -70 246 -139 Q246 -231 324 -291.5 Q402 -352 524 -352 Q655 -352 742 -289 Q829 -226 829 -135 Q829 -66 791 -33 Q753 0 621 25 L422 61 Z M504 926 Q412 926 357.5 857.5 Q303 789 303 674 Q303 560 358.5 491 Q414 422 504 422 Q594 422 649.5 491 Q705 560 705 674 Q705 788 650 857 Q595 926 504 926 Z M756 948 L1049 948 L1049 852 L823 852 Q853 807 867 761 Q881 715 881 662 Q881 521 772 431.5 Q663 342 489 342 L455 342 Q443 319 437.5 296 Q432 273 432 250 Q432 243 434 220 Q436 207 436 201 L633 170 Q825 141 903 83.5 Q981 26 981 -82 Q981 -141 948.5 -202.5 Q916 -264 858 -311 Q777 -377 673 -411.5 Q569 -446 453 -446 Q278 -446 180 -376 Q82 -306 82 -182 Q82 -83 141 -15 Q200 53 303 72 Q293 96 288 119 Q283 142 283 164 Q283 203 307 251 Q331 299 381 358 Q264 384 195.5 467.5 Q127 551 127 668 Q127 819 236.5 912.5 Q346 1006 524 1006 Q583 1006 640.5 991.5 Q698 977 756 948 Z M248 1452 L328 1452 L328 1436 Q328 1356 375 1323 Q422 1290 539 1290 Q654 1290 700 1323 Q746 1356 746 1436 L746 1452 L828 1452 L828 1430 Q828 1285 762 1223 Q696 1161 539 1161 Q380 1161 314 1222 Q248 1283 248 1430 L248 1452 Z " />
<glyph glyph-name="Idot" unicode="&#x130;" horiz-adv-x="664" d="M72 0 L72 84 L203 94 L238 123 L238 1251 L203 1280 L72 1292 L72 1374 L592 1374 L592 1292 L461 1280 L426 1251 L426 123 L461 94 L592 84 L592 0 L72 0 Z M334 1828 Q381 1828 413 1796.5 Q445 1765 445 1718 Q445 1672 413 1641.5 Q381 1611 334 1611 Q288 1611 256.5 1642 Q225 1673 225 1718 Q225 1764 256.5 1796 Q288 1828 334 1828 Z " />
<glyph glyph-name="Scedilla" unicode="&#x15e;" horiz-adv-x="1139" d="M123 41 L123 401 L244 401 L268 166 L295 131 Q340 108 398 96 Q456 84 524 84 Q667 84 750.5 150.5 Q834 217 834 330 Q834 487 540 612 Q508 626 491 633 Q281 724 213 802.5 Q145 881 145 1006 Q145 1182 274.5 1290.5 Q404 1399 618 1399 Q704 1399 790.5 1384.5 Q877 1370 967 1341 L967 1024 L860 1024 L829 1219 L799 1253 Q760 1275 714 1285.5 Q668 1296 614 1296 Q486 1296 411 1229.5 Q336 1163 336 1049 Q336 966 388.5 911.5 Q441 857 623 780 Q640 773 674 760 Q853 690 932 612 Q977 568 999.5 511 Q1022 454 1022 387 Q1022 202 877 88.5 Q732 -25 492 -25 Q385 -25 290.5 -8 Q196 9 123 41 Z M538 0 L614 0 L614 -124 Q623 -124 632.5 -123.5 Q642 -123 655 -123 Q727 -123 768 -162 Q809 -201 809 -270 Q809 -356 744 -406.5 Q679 -457 567 -457 Q534 -457 499 -451.5 Q464 -446 426 -436 L426 -362 Q458 -371 487.5 -375 Q517 -379 546 -379 Q611 -379 647.5 -355.5 Q684 -332 684 -291 Q684 -255 657 -235 Q630 -215 581 -215 Q574 -215 565 -216 Q556 -217 539 -219 L538 0 Z " />
<glyph glyph-name="scedilla" unicode="&#x15f;" horiz-adv-x="819" d="M705 961 L705 729 L604 729 L588 874 Q547 896 510 907 Q473 918 436 918 Q356 918 311 879 Q266 840 266 770 Q266 713 302 673 Q338 633 440 584 Q456 576 489 561 Q605 508 657 465 Q695 435 715 389.5 Q735 344 735 289 Q735 145 633.5 63.5 Q532 -18 352 -18 Q278 -18 210.5 -7.5 Q143 3 86 25 L86 291 L184 291 L209 117 Q252 92 295.5 80 Q339 68 383 68 Q470 68 522.5 113.5 Q575 159 575 233 Q575 295 539 335.5 Q503 376 367 438 Q213 507 157.5 568 Q102 629 102 719 Q102 856 197 931 Q292 1006 465 1006 Q534 1006 593.5 994.5 Q653 983 705 961 Z M381 0 L457 0 L457 -124 Q466 -124 475.5 -123.5 Q485 -123 498 -123 Q570 -123 611 -162 Q652 -201 652 -270 Q652 -356 587 -406.5 Q522 -457 410 -457 Q377 -457 342 -451.5 Q307 -446 269 -436 L269 -362 Q301 -371 330.5 -375 Q360 -379 389 -379 Q454 -379 490.5 -355.5 Q527 -332 527 -291 Q527 -255 500 -235 Q473 -215 424 -215 Q417 -215 408 -216 Q399 -217 382 -219 L381 0 Z " />
<glyph glyph-name="Cacute" unicode="&#x106;" horiz-adv-x="1294" d="M1204 47 Q1103 12 998 -6.5 Q893 -25 791 -25 Q690 -25 602 -4 Q514 17 442 57 Q277 151 182.5 319.5 Q88 488 88 688 Q88 1008 283.5 1203.5 Q479 1399 799 1399 Q891 1399 992.5 1381.5 Q1094 1364 1204 1329 L1204 1014 L1090 1014 L1059 1200 L1032 1237 Q973 1264 917 1277 Q861 1290 803 1290 Q571 1290 435 1132 Q299 974 299 702 Q299 413 441 248.5 Q583 84 834 84 Q878 84 922.5 90.5 Q967 97 1012 111 L1044 143 L1094 371 L1204 371 L1204 47 Z M869 1910 L1072 1910 L773 1521 L670 1521 L869 1910 Z " />
<glyph glyph-name="cacute" unicode="&#x107;" horiz-adv-x="913" d="M870 86 Q784 36 701 11 Q618 -14 537 -14 Q329 -14 202.5 125.5 Q76 265 76 494 Q76 721 210.5 863.5 Q345 1006 561 1006 Q704 1006 786 951.5 Q868 897 868 805 Q868 756 837 726 Q806 696 754 696 Q731 696 708 704 Q685 712 662 727 L662 895 Q638 909 613 916.5 Q588 924 563 924 Q427 924 344.5 810.5 Q262 697 262 508 Q262 321 355.5 213.5 Q449 106 610 106 Q677 106 741 127.5 Q805 149 870 193 L870 86 Z M633 1507 L836 1507 L537 1118 L434 1118 L633 1507 Z " />
<glyph glyph-name="Ccaron" unicode="&#x10c;" horiz-adv-x="1294" d="M1204 47 Q1103 12 998 -6.5 Q893 -25 791 -25 Q690 -25 602 -4 Q514 17 442 57 Q277 151 182.5 319.5 Q88 488 88 688 Q88 1008 283.5 1203.5 Q479 1399 799 1399 Q891 1399 992.5 1381.5 Q1094 1364 1204 1329 L1204 1014 L1090 1014 L1059 1200 L1032 1237 Q973 1264 917 1277 Q861 1290 803 1290 Q571 1290 435 1132 Q299 974 299 702 Q299 413 441 248.5 Q583 84 834 84 Q878 84 922.5 90.5 Q967 97 1012 111 L1044 143 L1094 371 L1204 371 L1204 47 Z M457 1910 L570 1910 L748 1622 L928 1910 L1039 1910 L814 1521 L682 1521 L457 1910 Z " />
<glyph glyph-name="ccaron" unicode="&#x10d;" horiz-adv-x="913" d="M870 86 Q784 36 701 11 Q618 -14 537 -14 Q329 -14 202.5 125.5 Q76 265 76 494 Q76 721 210.5 863.5 Q345 1006 561 1006 Q704 1006 786 951.5 Q868 897 868 805 Q868 756 837 726 Q806 696 754 696 Q731 696 708 704 Q685 712 662 727 L662 895 Q638 909 613 916.5 Q588 924 563 924 Q427 924 344.5 810.5 Q262 697 262 508 Q262 321 355.5 213.5 Q449 106 610 106 Q677 106 741 127.5 Q805 149 870 193 L870 86 Z M221 1507 L334 1507 L512 1219 L692 1507 L803 1507 L578 1118 L446 1118 L221 1507 Z " />
<glyph glyph-name="dslash" unicode="&#x111;" horiz-adv-x="1157" d="M784 182 L784 885 Q729 902 685 910 Q641 918 604 918 Q448 918 351 801 Q254 684 254 496 Q254 320 337.5 215.5 Q421 111 561 111 Q615 111 669.5 128.5 Q724 146 784 182 Z M784 1165 L496 1165 L496 1260 L784 1260 L784 1370 L627 1370 L627 1434 L877 1507 L954 1507 L954 1260 L1085 1260 L1085 1165 L954 1165 L954 117 L989 84 L1087 74 L1087 0 L784 0 L784 106 Q697 39 623.5 10.5 Q550 -18 469 -18 Q297 -18 185.5 116.5 Q74 251 74 461 Q74 705 221 856.5 Q368 1008 602 1008 Q644 1008 690.5 1002 Q737 996 784 985 L784 1165 Z " />
<glyph glyph-name="sfthyphen" unicode="&#xad;" horiz-adv-x="653" d="M96 561 L557 561 L557 424 L96 424 L96 561 Z " />
<glyph glyph-name="middot.001" unicode="&#x2219;" horiz-adv-x="569" d="M285 817 Q339 817 376.5 779 Q414 741 414 686 Q414 632 376 594.5 Q338 557 285 557 Q231 557 192.5 595 Q154 633 154 686 Q154 741 192 779 Q230 817 285 817 Z " />
<glyph glyph-name="&amp;#x80;" unicode="&#x80;" horiz-adv-x="1139" d="M1071 47 Q964 10 875.5 -7.5 Q787 -25 709 -25 Q488 -25 360 108.5 Q232 242 197 508 L29 508 L49 594 L188 594 Q187 614 186.5 633.5 Q186 653 186 678 Q186 704 187.5 735.5 Q189 767 192 807 L29 807 L49 893 L205 893 Q249 1132 386.5 1265.5 Q524 1399 727 1399 Q792 1399 877 1381.5 Q962 1364 1071 1329 L1071 1014 L967 1014 L936 1212 L907 1249 Q860 1277 815 1290 Q770 1303 721 1303 Q583 1303 504.5 1205.5 Q426 1108 391 893 L856 893 L836 807 L383 807 Q382 792 381 765 Q379 708 379 688 Q379 659 379.5 637 Q380 615 381 594 L780 594 L760 508 L387 508 Q415 275 496 174.5 Q577 74 735 74 Q771 74 808.5 80.5 Q846 87 889 100 L922 133 L971 371 L1071 371 L1071 47 Z " />
<glyph glyph-name="&amp;#x20ac;" unicode="&#x20ac;" horiz-adv-x="1139" d="M1071 47 Q964 10 875.5 -7.5 Q787 -25 709 -25 Q488 -25 360 108.5 Q232 242 197 508 L29 508 L49 594 L188 594 Q187 614 186.5 633.5 Q186 653 186 678 Q186 704 187.5 735.5 Q189 767 192 807 L29 807 L49 893 L205 893 Q249 1132 386.5 1265.5 Q524 1399 727 1399 Q792 1399 877 1381.5 Q962 1364 1071 1329 L1071 1014 L967 1014 L936 1212 L907 1249 Q860 1277 815 1290 Q770 1303 721 1303 Q583 1303 504.5 1205.5 Q426 1108 391 893 L856 893 L836 807 L383 807 Q382 792 381 765 Q379 708 379 688 Q379 659 379.5 637 Q380 615 381 594 L780 594 L760 508 L387 508 Q415 275 496 174.5 Q577 74 735 74 Q771 74 808.5 80.5 Q846 87 889 100 L922 133 L971 371 L1071 371 L1071 47 Z " />
<glyph glyph-name="gravecmb" unicode="&#x300;" d="M-1024 1507 L-821 1507 L-623 1118 L-725 1118 L-1024 1507 Z " />
<glyph glyph-name="acutecmb" unicode="&#x301;" d="M-825 1507 L-622 1507 L-921 1118 L-1024 1118 L-825 1507 Z " />
<glyph glyph-name="circumflexcmb" unicode="&#x302;" d="M-799 1507 L-667 1507 L-442 1118 L-553 1118 L-733 1407 L-911 1118 L-1024 1118 L-799 1507 Z " />
<glyph glyph-name="tildecmb" unicode="&#x303;" d="M-484 1450 L-400 1450 Q-400 1445 -399 1435 Q-398 1425 -398 1419 Q-398 1323 -446.5 1262.5 Q-495 1202 -570 1202 Q-640 1202 -741 1255.5 Q-842 1309 -865 1309 Q-898 1309 -918 1279 Q-938 1249 -938 1198 Q-938 1194 -937 1186 Q-936 1178 -936 1174 L-1024 1174 L-1024 1194 Q-1024 1304 -979.5 1361.5 Q-935 1419 -850 1419 Q-788 1419 -691.5 1366 Q-595 1313 -568 1313 Q-524 1313 -504 1343 Q-484 1373 -484 1440 L-484 1450 Z " />
<glyph glyph-name="macroncmb" unicode="&#x304;" d="M-829 1484 L-213 1484 L-213 1361 L-829 1361 L-829 1484 Z " />
<glyph glyph-name="brevecmb" unicode="&#x306;" d="M-1024 1452 L-944 1452 L-944 1436 Q-944 1356 -897 1323 Q-850 1290 -733 1290 Q-618 1290 -572 1323 Q-526 1356 -526 1436 L-526 1452 L-444 1452 L-444 1430 Q-444 1285 -510 1223 Q-576 1161 -733 1161 Q-892 1161 -958 1222 Q-1024 1283 -1024 1430 L-1024 1452 Z " />
<glyph glyph-name="dotaccentcmb" unicode="&#x307;" d="M-915 1425 Q-868 1425 -836 1393.5 Q-804 1362 -804 1315 Q-804 1269 -836 1238.5 Q-868 1208 -915 1208 Q-961 1208 -992.5 1239 Q-1024 1270 -1024 1315 Q-1024 1361 -992.5 1393 Q-961 1425 -915 1425 Z " />
<glyph glyph-name="dieresiscmb" unicode="&#x308;" d="M-539 1415 Q-495 1415 -465.5 1385 Q-436 1355 -436 1311 Q-436 1268 -466 1238 Q-496 1208 -539 1208 Q-582 1208 -612.5 1238 Q-643 1268 -643 1311 Q-643 1355 -612.5 1385 Q-582 1415 -539 1415 Z M-919 1415 Q-876 1415 -846.5 1385 Q-817 1355 -817 1311 Q-817 1268 -846.5 1238 Q-876 1208 -919 1208 Q-963 1208 -993.5 1238 Q-1024 1268 -1024 1311 Q-1024 1355 -993.5 1385 Q-963 1415 -919 1415 Z " />
<glyph glyph-name="hookabovecmb" unicode="&#x309;" d="M-504 1205 L-504 1118 L-572 1118 L-572 1227 Q-479 1247 -432 1281 Q-385 1315 -385 1361 Q-385 1411 -432 1438.5 Q-479 1466 -565 1466 L-573 1466 L-625 1393 Q-629 1392 -633.5 1392 Q-638 1392 -647 1392 Q-685 1392 -705 1402.5 Q-725 1413 -725 1431 Q-725 1461 -671 1481 Q-617 1501 -536 1501 Q-414 1501 -340.5 1463.5 Q-267 1426 -267 1365 Q-267 1314 -325 1275 Q-383 1236 -504 1205 Z " />
<glyph glyph-name="ringcmb" unicode="&#x30a;" d="M-683 1453 Q-736 1453 -772.5 1419.5 Q-809 1386 -809 1336 Q-809 1287 -772 1253 Q-735 1219 -683 1219 Q-629 1219 -591.5 1253 Q-554 1287 -554 1336 Q-554 1386 -591.5 1419.5 Q-629 1453 -683 1453 Z M-683 1526 Q-595 1526 -535 1471.5 Q-475 1417 -475 1337 Q-475 1257 -535.5 1202 Q-596 1147 -683 1147 Q-770 1147 -829.5 1202 Q-889 1257 -889 1337 Q-889 1417 -829.5 1471.5 Q-770 1526 -683 1526 Z " />
<glyph glyph-name="hungarumlautcmb" unicode="&#x30b;" d="M-528 1507 L-327 1507 L-714 1118 L-811 1118 L-528 1507 Z M-831 1507 L-651 1507 L-940 1118 L-1024 1118 L-831 1507 Z " />
<glyph glyph-name="caroncmb" unicode="&#x30c;" d="M-1024 1507 L-911 1507 L-733 1219 L-553 1507 L-442 1507 L-667 1118 L-799 1118 L-1024 1507 Z " />
<glyph glyph-name="doublegravecmb" unicode="&#x30f;" d="M-919 1531 L-726 1531 L-536 1179 L-633 1179 L-919 1531 Z M-586 1538 L-392 1538 L-203 1186 L-300 1186 L-586 1538 Z " />
<glyph glyph-name="invertedbrevecmb" unicode="&#x311;" d="M-580 1452 L-500 1452 L-500 1436 Q-500 1356 -453 1323 Q-406 1290 -289 1290 Q-174 1290 -128 1323 Q-82 1356 -82 1436 L-82 1452 L0 1452 L0 1430 Q0 1285 -66 1223 Q-132 1161 -289 1161 Q-448 1161 -514 1222 Q-580 1283 -580 1430 L-580 1452 Z " />
<glyph glyph-name="horncmb" unicode="&#x31b;" d="M-515 1083 L-515 1131 Q-416 1147 -365.5 1196.5 Q-315 1246 -315 1328 L-315 1344 L-432 1344 Q-447 1358 -454 1374 Q-461 1390 -461 1409 Q-461 1445 -430.5 1468 Q-400 1491 -353 1491 Q-284 1491 -246 1452 Q-208 1413 -208 1343 Q-208 1243 -295 1168.5 Q-382 1094 -515 1083 Z " />
<glyph glyph-name="dotbelowcmb" unicode="&#x323;" d="M-438 -140 Q-384 -140 -346.5 -178 Q-309 -216 -309 -271 Q-309 -325 -347 -362.5 Q-385 -400 -438 -400 Q-493 -400 -531 -363 Q-569 -326 -569 -271 Q-569 -217 -531 -178.5 Q-493 -140 -438 -140 Z " />
<glyph glyph-name="dieresisbelowcmb" unicode="&#x324;" d="M-539 -140 Q-495 -140 -465.5 -170 Q-436 -200 -436 -244 Q-436 -287 -466 -317 Q-496 -347 -539 -347 Q-582 -347 -612.5 -317 Q-643 -287 -643 -244 Q-643 -200 -612.5 -170 Q-582 -140 -539 -140 Z M-919 -140 Q-876 -140 -846.5 -170 Q-817 -200 -817 -244 Q-817 -287 -846.5 -317 Q-876 -347 -919 -347 Q-963 -347 -993.5 -317 Q-1024 -287 -1024 -244 Q-1024 -200 -993.5 -170 Q-963 -140 -919 -140 Z " />
<glyph glyph-name="ringbelowcmb" unicode="&#x325;" d="M-659 -119 Q-712 -119 -748 -154.5 Q-784 -190 -784 -242 Q-784 -292 -747.5 -327.5 Q-711 -363 -659 -363 Q-606 -363 -569 -327.5 Q-532 -292 -532 -242 Q-532 -190 -569 -154.5 Q-606 -119 -659 -119 Z M-659 -44 Q-573 -44 -513.5 -101 Q-454 -158 -454 -240 Q-454 -324 -514 -381 Q-574 -438 -659 -438 Q-745 -438 -804 -381 Q-863 -324 -863 -240 Q-863 -158 -804 -101 Q-745 -44 -659 -44 Z " />
<glyph glyph-name="commabelowcmb" unicode="&#x326;" d="M-559 -475 L-559 -421 Q-460 -402 -409.5 -346.5 Q-359 -291 -359 -198 L-359 -181 L-475 -181 Q-491 -165 -498 -146.5 Q-505 -128 -505 -107 Q-505 -65 -475 -39.5 Q-445 -14 -398 -14 Q-328 -14 -290 -58 Q-252 -102 -252 -182 Q-252 -294 -339 -378 Q-426 -462 -559 -475 Z " />
<glyph glyph-name="cedillacmb" unicode="&#x327;" d="M-912 0 L-836 0 L-836 -124 Q-827 -124 -817.5 -123.5 Q-808 -123 -795 -123 Q-723 -123 -682 -162 Q-641 -201 -641 -270 Q-641 -356 -706 -406.5 Q-771 -457 -883 -457 Q-916 -457 -951 -451.5 Q-986 -446 -1024 -436 L-1024 -362 Q-992 -371 -962.5 -375 Q-933 -379 -904 -379 Q-839 -379 -802.5 -355.5 Q-766 -332 -766 -291 Q-766 -255 -793 -235 Q-820 -215 -869 -215 Q-876 -215 -885 -216 Q-894 -217 -911 -219 L-912 0 Z " />
<glyph glyph-name="ogonekcmb" unicode="&#x328;" d="M-885 0 L-795 0 Q-848 -45 -876.5 -102 Q-905 -159 -905 -217 Q-905 -274 -875.5 -304 Q-846 -334 -789 -334 Q-775 -334 -730 -327 Q-724 -326 -721 -326 L-721 -428 Q-745 -435 -771.5 -438.5 Q-798 -442 -826 -442 Q-923 -442 -973.5 -398 Q-1024 -354 -1024 -268 Q-1024 -194 -987 -122 Q-950 -50 -885 0 Z " />
<glyph glyph-name="circumflexbelowcmb" unicode="&#x32d;" d="M-798 -80 L-677 -80 L-471 -454 L-573 -454 L-737 -176 L-900 -454 L-1004 -454 L-798 -80 Z " />
<glyph glyph-name="brevebelowcmb" unicode="&#x32e;" d="M-1024 -140 L-944 -140 L-944 -156 Q-944 -236 -897 -269 Q-850 -302 -733 -302 Q-618 -302 -572 -269 Q-526 -236 -526 -156 L-526 -140 L-444 -140 L-444 -162 Q-444 -307 -510 -369 Q-576 -431 -733 -431 Q-892 -431 -958 -370 Q-1024 -309 -1024 -162 L-1024 -140 Z " />
<glyph glyph-name="tildebelowcmb" unicode="&#x330;" d="M-484 -140 L-400 -140 Q-400 -145 -399 -155 Q-398 -165 -398 -171 Q-398 -267 -446.5 -327.5 Q-495 -388 -570 -388 Q-640 -388 -741 -334.5 Q-842 -281 -865 -281 Q-898 -281 -918 -311 Q-938 -341 -938 -392 Q-938 -396 -937 -404 Q-936 -412 -936 -416 L-1024 -416 L-1024 -396 Q-1024 -286 -979.5 -228.5 Q-935 -171 -850 -171 Q-788 -171 -691.5 -224 Q-595 -277 -568 -277 Q-524 -277 -504 -247 Q-484 -217 -484 -150 L-484 -140 Z " />
<glyph glyph-name="macronbelowcmb" unicode="&#x331;" d="M-811 -149 L-195 -149 L-195 -272 L-811 -272 L-811 -149 Z " />
<glyph glyph-name="clickdental" unicode="&#x1c0;" horiz-adv-x="1024" d="M449 1565 L575 1565 L575 -483 L449 -483 L449 1565 Z " />
<glyph glyph-name="clicklateral" unicode="&#x1c1;" horiz-adv-x="2048" d="M449 1565 L575 1565 L575 -483 L449 -483 L449 1565 Z M1473 1565 L1599 1565 L1599 -483 L1473 -483 L1473 1565 Z " />
<glyph glyph-name="centigrade" unicode="&#x2103;" horiz-adv-x="1968" d="M338 1372 Q254 1372 194.5 1313.5 Q135 1255 135 1171 Q135 1087 194.5 1028 Q254 969 338 969 Q422 969 480.5 1028 Q539 1087 539 1171 Q539 1255 480.5 1313.5 Q422 1372 338 1372 Z M338 1454 Q455 1454 538 1371 Q621 1288 621 1171 Q621 1055 537.5 972 Q454 889 336 889 Q218 889 136.5 971 Q55 1053 55 1171 Q55 1290 137.5 1372 Q220 1454 338 1454 Z M1878 47 Q1777 12 1672 -6.5 Q1567 -25 1465 -25 Q1364 -25 1276 -4 Q1188 17 1116 57 Q951 151 856.5 319.5 Q762 488 762 688 Q762 1008 957.5 1203.5 Q1153 1399 1473 1399 Q1565 1399 1666.5 1381.5 Q1768 1364 1878 1329 L1878 1014 L1764 1014 L1733 1200 L1706 1237 Q1647 1264 1591 1277 Q1535 1290 1477 1290 Q1245 1290 1109 1132 Q973 974 973 702 Q973 413 1115 248.5 Q1257 84 1508 84 Q1552 84 1596.5 90.5 Q1641 97 1686 111 L1718 143 L1768 371 L1878 371 L1878 47 Z " />
<glyph glyph-name="fahrenheit" unicode="&#x2109;" horiz-adv-x="1774" d="M338 1372 Q254 1372 194.5 1313.5 Q135 1255 135 1171 Q135 1087 194.5 1028 Q254 969 338 969 Q422 969 480.5 1028 Q539 1087 539 1171 Q539 1255 480.5 1313.5 Q422 1372 338 1372 Z M338 1454 Q455 1454 538 1371 Q621 1288 621 1171 Q621 1055 537.5 972 Q454 889 336 889 Q218 889 136.5 971 Q55 1053 55 1171 Q55 1290 137.5 1372 Q220 1454 338 1454 Z M742 0 L742 84 L858 94 L893 123 L893 1251 L858 1280 L725 1292 L725 1374 L1708 1374 L1708 1055 L1596 1055 L1565 1249 L1538 1280 L1077 1280 L1077 741 L1413 741 L1442 770 L1462 920 L1559 920 L1559 467 L1462 467 L1442 616 L1413 647 L1077 647 L1077 123 L1112 94 L1258 84 L1258 0 L742 0 Z " />
<glyph glyph-name="kelvin" unicode="&#x212a;" horiz-adv-x="1251" d="M68 0 L68 84 L184 94 L219 123 L219 1251 L184 1280 L68 1292 L68 1374 L565 1374 L565 1292 L438 1280 L403 1251 L403 696 L481 696 L936 1251 L924 1280 L809 1292 L809 1374 L1235 1374 L1235 1292 L1100 1274 L670 762 L1135 94 L1284 84 L1284 0 L946 0 L946 61 L555 612 L403 612 L403 123 L438 94 L565 84 L565 0 L68 0 Z " />
<glyph glyph-name="angstrom" unicode="&#x212b;" horiz-adv-x="1309" d="M614 1176 L412 608 L825 608 L614 1176 Z M582 1391 L717 1391 L1208 109 L1331 84 L1331 0 L866 0 L866 84 L993 94 L1008 123 L860 514 L377 514 L231 123 L252 94 L385 84 L385 0 L-16 0 L-16 84 L102 109 L582 1391 Z M629 1880 Q567 1880 523 1836.5 Q479 1793 479 1731 Q479 1669 523 1626 Q567 1583 629 1583 Q691 1583 733.5 1626 Q776 1669 776 1731 Q776 1794 733.5 1837 Q691 1880 629 1880 Z M627 1972 Q728 1972 798 1903 Q868 1834 868 1733 Q868 1631 798 1561 Q728 1491 627 1491 Q526 1491 456.5 1561 Q387 1631 387 1733 Q387 1834 456 1903 Q525 1972 627 1972 Z " />
<glyph glyph-name="Oneroman" unicode="&#x2160;" horiz-adv-x="664" d="M72 0 L72 84 L203 94 L238 123 L238 1251 L203 1280 L72 1292 L72 1374 L592 1374 L592 1292 L461 1280 L426 1251 L426 123 L461 94 L592 84 L592 0 L72 0 Z " />
<glyph glyph-name="Tworoman" unicode="&#x2161;" horiz-adv-x="1328" d="M72 0 L72 84 L203 94 L238 123 L238 1251 L203 1280 L72 1292 L72 1374 L592 1374 L592 1292 L461 1280 L426 1251 L426 123 L461 94 L592 84 L592 0 L72 0 Z M736 0 L736 84 L867 94 L902 123 L902 1251 L867 1280 L736 1292 L736 1374 L1256 1374 L1256 1292 L1125 1280 L1090 1251 L1090 123 L1125 94 L1256 84 L1256 0 L736 0 Z " />
<glyph glyph-name="Threeroman" unicode="&#x2162;" horiz-adv-x="1992" d="M72 0 L72 84 L203 94 L238 123 L238 1251 L203 1280 L72 1292 L72 1374 L592 1374 L592 1292 L461 1280 L426 1251 L426 123 L461 94 L592 84 L592 0 L72 0 Z M736 0 L736 84 L867 94 L902 123 L902 1251 L867 1280 L736 1292 L736 1374 L1256 1374 L1256 1292 L1125 1280 L1090 1251 L1090 123 L1125 94 L1256 84 L1256 0 L736 0 Z M1400 0 L1400 84 L1531 94 L1566 123 L1566 1251 L1531 1280 L1400 1292 L1400 1374 L1920 1374 L1920 1292 L1789 1280 L1754 1251 L1754 123 L1789 94 L1920 84 L1920 0 L1400 0 Z " />
<glyph glyph-name="Fourroman" unicode="&#x2163;" horiz-adv-x="1930" d="M72 0 L72 84 L203 94 L238 123 L238 1251 L203 1280 L72 1292 L72 1374 L592 1374 L592 1292 L461 1280 L426 1251 L426 123 L461 94 L592 84 L592 0 L72 0 Z M617 1374 L1094 1374 L1094 1292 L975 1280 L953 1251 L1338 219 L1708 1251 L1688 1280 L1561 1292 L1561 1374 L1969 1374 L1969 1292 L1842 1268 L1371 -10 L1229 -10 L748 1268 L617 1292 L617 1374 Z " />
<glyph glyph-name="Fiveroman" unicode="&#x2164;" horiz-adv-x="1266" d="M-47 1374 L430 1374 L430 1292 L311 1280 L289 1251 L674 219 L1044 1251 L1024 1280 L897 1292 L897 1374 L1305 1374 L1305 1292 L1178 1268 L707 -10 L565 -10 L84 1268 L-47 1292 L-47 1374 Z " />
<glyph glyph-name="Sixroman" unicode="&#x2165;" horiz-adv-x="1930" d="M-47 1374 L430 1374 L430 1292 L311 1280 L289 1251 L674 219 L1044 1251 L1024 1280 L897 1292 L897 1374 L1305 1374 L1305 1292 L1178 1268 L707 -10 L565 -10 L84 1268 L-47 1292 L-47 1374 Z M1338 0 L1338 84 L1469 94 L1504 123 L1504 1251 L1469 1280 L1338 1292 L1338 1374 L1858 1374 L1858 1292 L1727 1280 L1692 1251 L1692 123 L1727 94 L1858 84 L1858 0 L1338 0 Z " />
<glyph glyph-name="Sevenroman" unicode="&#x2166;" horiz-adv-x="2594" d="M-47 1374 L430 1374 L430 1292 L311 1280 L289 1251 L674 219 L1044 1251 L1024 1280 L897 1292 L897 1374 L1305 1374 L1305 1292 L1178 1268 L707 -10 L565 -10 L84 1268 L-47 1292 L-47 1374 Z M1338 0 L1338 84 L1469 94 L1504 123 L1504 1251 L1469 1280 L1338 1292 L1338 1374 L1858 1374 L1858 1292 L1727 1280 L1692 1251 L1692 123 L1727 94 L1858 84 L1858 0 L1338 0 Z M2002 0 L2002 84 L2133 94 L2168 123 L2168 1251 L2133 1280 L2002 1292 L2002 1374 L2522 1374 L2522 1292 L2391 1280 L2356 1251 L2356 123 L2391 94 L2522 84 L2522 0 L2002 0 Z " />
<glyph glyph-name="Eightroman" unicode="&#x2167;" horiz-adv-x="3258" d="M-47 1374 L430 1374 L430 1292 L311 1280 L289 1251 L674 219 L1044 1251 L1024 1280 L897 1292 L897 1374 L1305 1374 L1305 1292 L1178 1268 L707 -10 L565 -10 L84 1268 L-47 1292 L-47 1374 Z M1338 0 L1338 84 L1469 94 L1504 123 L1504 1251 L1469 1280 L1338 1292 L1338 1374 L1858 1374 L1858 1292 L1727 1280 L1692 1251 L1692 123 L1727 94 L1858 84 L1858 0 L1338 0 Z M2002 0 L2002 84 L2133 94 L2168 123 L2168 1251 L2133 1280 L2002 1292 L2002 1374 L2522 1374 L2522 1292 L2391 1280 L2356 1251 L2356 123 L2391 94 L2522 84 L2522 0 L2002 0 Z M2666 0 L2666 84 L2797 94 L2832 123 L2832 1251 L2797 1280 L2666 1292 L2666 1374 L3186 1374 L3186 1292 L3055 1280 L3020 1251 L3020 123 L3055 94 L3186 84 L3186 0 L2666 0 Z " />
<glyph glyph-name="Nineroman" unicode="&#x2168;" horiz-adv-x="1893" d="M72 0 L72 84 L203 94 L238 123 L238 1251 L203 1280 L72 1292 L72 1374 L592 1374 L592 1292 L461 1280 L426 1251 L426 123 L461 94 L592 84 L592 0 L72 0 Z M687 1374 L1180 1374 L1180 1292 L1057 1280 L1041 1255 L1309 834 L1600 1247 L1582 1274 L1463 1292 L1463 1374 L1881 1374 L1881 1292 L1749 1272 L1375 737 L1772 109 L1911 84 L1911 0 L1393 0 L1393 84 L1530 98 L1545 127 L1256 592 L932 133 L945 96 L1082 84 L1082 0 L646 0 L646 84 L781 111 L1192 686 L822 1266 L687 1292 L687 1374 Z " />
<glyph glyph-name="Tenroman" unicode="&#x2169;" horiz-adv-x="1229" d="M23 1374 L516 1374 L516 1292 L393 1280 L377 1255 L645 834 L936 1247 L918 1274 L799 1292 L799 1374 L1217 1374 L1217 1292 L1085 1272 L711 737 L1108 109 L1247 84 L1247 0 L729 0 L729 84 L866 98 L881 127 L592 592 L268 133 L281 96 L418 84 L418 0 L-18 0 L-18 84 L117 111 L528 686 L158 1266 L23 1292 L23 1374 Z " />
<glyph glyph-name="Elevenroman" unicode="&#x216a;" horiz-adv-x="1893" d="M23 1374 L516 1374 L516 1292 L393 1280 L377 1255 L645 834 L936 1247 L918 1274 L799 1292 L799 1374 L1217 1374 L1217 1292 L1085 1272 L711 737 L1108 109 L1247 84 L1247 0 L729 0 L729 84 L866 98 L881 127 L592 592 L268 133 L281 96 L418 84 L418 0 L-18 0 L-18 84 L117 111 L528 686 L158 1266 L23 1292 L23 1374 Z M1301 0 L1301 84 L1432 94 L1467 123 L1467 1251 L1432 1280 L1301 1292 L1301 1374 L1821 1374 L1821 1292 L1690 1280 L1655 1251 L1655 123 L1690 94 L1821 84 L1821 0 L1301 0 Z " />
<glyph glyph-name="Twelveroman" unicode="&#x216b;" horiz-adv-x="2557" d="M23 1374 L516 1374 L516 1292 L393 1280 L377 1255 L645 834 L936 1247 L918 1274 L799 1292 L799 1374 L1217 1374 L1217 1292 L1085 1272 L711 737 L1108 109 L1247 84 L1247 0 L729 0 L729 84 L866 98 L881 127 L592 592 L268 133 L281 96 L418 84 L418 0 L-18 0 L-18 84 L117 111 L528 686 L158 1266 L23 1292 L23 1374 Z M1301 0 L1301 84 L1432 94 L1467 123 L1467 1251 L1432 1280 L1301 1292 L1301 1374 L1821 1374 L1821 1292 L1690 1280 L1655 1251 L1655 123 L1690 94 L1821 84 L1821 0 L1301 0 Z M1965 0 L1965 84 L2096 94 L2131 123 L2131 1251 L2096 1280 L1965 1292 L1965 1374 L2485 1374 L2485 1292 L2354 1280 L2319 1251 L2319 123 L2354 94 L2485 84 L2485 0 L1965 0 Z " />
<glyph glyph-name="uni216C" unicode="&#x216c;" horiz-adv-x="1065" d="M55 0 L55 84 L184 94 L219 123 L219 1251 L184 1280 L55 1292 L55 1374 L555 1374 L555 1292 L438 1280 L403 1251 L403 94 L866 94 L895 127 L930 373 L1036 373 L1036 0 L55 0 Z " />
<glyph glyph-name="uni216D" unicode="&#x216d;" horiz-adv-x="1294" d="M1204 47 Q1103 12 998 -6.5 Q893 -25 791 -25 Q690 -25 602 -4 Q514 17 442 57 Q277 151 182.5 319.5 Q88 488 88 688 Q88 1008 283.5 1203.5 Q479 1399 799 1399 Q891 1399 992.5 1381.5 Q1094 1364 1204 1329 L1204 1014 L1090 1014 L1059 1200 L1032 1237 Q973 1264 917 1277 Q861 1290 803 1290 Q571 1290 435 1132 Q299 974 299 702 Q299 413 441 248.5 Q583 84 834 84 Q878 84 922.5 90.5 Q967 97 1012 111 L1044 143 L1094 371 L1204 371 L1204 47 Z " />
<glyph glyph-name="uni216E" unicode="&#x216e;" horiz-adv-x="1419" d="M403 1280 L403 94 L565 94 Q845 94 983.5 241.5 Q1122 389 1122 688 Q1122 987 984.5 1133.5 Q847 1280 565 1280 L403 1280 Z M573 1374 Q933 1374 1131 1194.5 Q1329 1015 1329 688 Q1329 506 1264.5 364.5 Q1200 223 1073 127 Q983 59 870 29.5 Q757 0 573 0 L68 0 L68 84 L184 94 L219 123 L219 1251 L184 1280 L68 1292 L68 1374 L573 1374 Z " />
<glyph glyph-name="uni216F" unicode="&#x216f;" horiz-adv-x="1774" d="M63 0 L63 84 L186 100 L223 139 L223 1251 L197 1280 L61 1292 L61 1374 L496 1374 L496 1319 L881 291 L1270 1311 L1270 1374 L1708 1374 L1708 1292 L1579 1280 L1554 1251 L1554 123 L1579 94 L1708 84 L1708 0 L1219 0 L1219 84 L1354 94 L1374 123 L1374 1278 L889 0 L801 0 L334 1257 L334 139 L371 100 L496 84 L496 0 L63 0 Z " />
<glyph glyph-name="oneroman" unicode="&#x2170;" horiz-adv-x="573" d="M307 995 L387 995 L387 117 L422 84 L532 74 L532 0 L72 0 L72 74 L180 84 L215 117 L215 858 L72 858 L72 922 L307 995 Z M315 1450 Q365 1450 399.5 1415 Q434 1380 434 1331 Q434 1282 399.5 1248 Q365 1214 315 1214 Q266 1214 231.5 1248 Q197 1282 197 1331 Q197 1381 231.5 1415.5 Q266 1450 315 1450 Z " />
<glyph glyph-name="tworoman" unicode="&#x2171;" horiz-adv-x="1146" d="M307 995 L387 995 L387 117 L422 84 L532 74 L532 0 L72 0 L72 74 L180 84 L215 117 L215 858 L72 858 L72 922 L307 995 Z M315 1450 Q365 1450 399.5 1415 Q434 1380 434 1331 Q434 1282 399.5 1248 Q365 1214 315 1214 Q266 1214 231.5 1248 Q197 1282 197 1331 Q197 1381 231.5 1415.5 Q266 1450 315 1450 Z M880 995 L960 995 L960 117 L995 84 L1105 74 L1105 0 L645 0 L645 74 L753 84 L788 117 L788 858 L645 858 L645 922 L880 995 Z M888 1450 Q938 1450 972.5 1415 Q1007 1380 1007 1331 Q1007 1282 972.5 1248 Q938 1214 888 1214 Q839 1214 804.5 1248 Q770 1282 770 1331 Q770 1381 804.5 1415.5 Q839 1450 888 1450 Z " />
<glyph glyph-name="threeroman" unicode="&#x2172;" horiz-adv-x="1719" d="M307 995 L387 995 L387 117 L422 84 L532 74 L532 0 L72 0 L72 74 L180 84 L215 117 L215 858 L72 858 L72 922 L307 995 Z M315 1450 Q365 1450 399.5 1415 Q434 1380 434 1331 Q434 1282 399.5 1248 Q365 1214 315 1214 Q266 1214 231.5 1248 Q197 1282 197 1331 Q197 1381 231.5 1415.5 Q266 1450 315 1450 Z M880 995 L960 995 L960 117 L995 84 L1105 74 L1105 0 L645 0 L645 74 L753 84 L788 117 L788 858 L645 858 L645 922 L880 995 Z M888 1450 Q938 1450 972.5 1415 Q1007 1380 1007 1331 Q1007 1282 972.5 1248 Q938 1214 888 1214 Q839 1214 804.5 1248 Q770 1282 770 1331 Q770 1381 804.5 1415.5 Q839 1450 888 1450 Z M1453 995 L1533 995 L1533 117 L1568 84 L1678 74 L1678 0 L1218 0 L1218 74 L1326 84 L1361 117 L1361 858 L1218 858 L1218 922 L1453 995 Z M1461 1450 Q1511 1450 1545.5 1415 Q1580 1380 1580 1331 Q1580 1282 1545.5 1248 Q1511 1214 1461 1214 Q1412 1214 1377.5 1248 Q1343 1282 1343 1331 Q1343 1381 1377.5 1415.5 Q1412 1450 1461 1450 Z " />
<glyph glyph-name="fourroman" unicode="&#x2173;" horiz-adv-x="1585" d="M307 995 L387 995 L387 117 L422 84 L532 74 L532 0 L72 0 L72 74 L180 84 L215 117 L215 858 L72 858 L72 922 L307 995 Z M315 1450 Q365 1450 399.5 1415 Q434 1380 434 1331 Q434 1282 399.5 1248 Q365 1214 315 1214 Q266 1214 231.5 1248 Q197 1282 197 1331 Q197 1381 231.5 1415.5 Q266 1450 315 1450 Z M563 985 L1007 985 L1007 909 L899 901 L874 868 L1114 199 L1376 868 L1359 901 L1249 909 L1249 985 L1611 985 L1611 909 L1491 893 L1132 0 L1017 0 L688 897 L563 909 L563 985 Z " />
<glyph glyph-name="fiveroman" unicode="&#x2174;" horiz-adv-x="1012" d="M-10 985 L434 985 L434 909 L326 901 L301 868 L541 199 L803 868 L786 901 L676 909 L676 985 L1038 985 L1038 909 L918 893 L559 0 L444 0 L115 897 L-10 909 L-10 985 Z " />
<glyph glyph-name="sixroman" unicode="&#x2175;" horiz-adv-x="1585" d="M-10 985 L434 985 L434 909 L326 901 L301 868 L541 199 L803 868 L786 901 L676 909 L676 985 L1038 985 L1038 909 L918 893 L559 0 L444 0 L115 897 L-10 909 L-10 985 Z M1319 995 L1399 995 L1399 117 L1434 84 L1544 74 L1544 0 L1084 0 L1084 74 L1192 84 L1227 117 L1227 858 L1084 858 L1084 922 L1319 995 Z M1327 1450 Q1377 1450 1411.5 1415 Q1446 1380 1446 1331 Q1446 1282 1411.5 1248 Q1377 1214 1327 1214 Q1278 1214 1243.5 1248 Q1209 1282 1209 1331 Q1209 1381 1243.5 1415.5 Q1278 1450 1327 1450 Z " />
<glyph glyph-name="sevenroman" unicode="&#x2176;" horiz-adv-x="2158" d="M-10 985 L434 985 L434 909 L326 901 L301 868 L541 199 L803 868 L786 901 L676 909 L676 985 L1038 985 L1038 909 L918 893 L559 0 L444 0 L115 897 L-10 909 L-10 985 Z M1319 995 L1399 995 L1399 117 L1434 84 L1544 74 L1544 0 L1084 0 L1084 74 L1192 84 L1227 117 L1227 858 L1084 858 L1084 922 L1319 995 Z M1327 1450 Q1377 1450 1411.5 1415 Q1446 1380 1446 1331 Q1446 1282 1411.5 1248 Q1377 1214 1327 1214 Q1278 1214 1243.5 1248 Q1209 1282 1209 1331 Q1209 1381 1243.5 1415.5 Q1278 1450 1327 1450 Z M1892 995 L1972 995 L1972 117 L2007 84 L2117 74 L2117 0 L1657 0 L1657 74 L1765 84 L1800 117 L1800 858 L1657 858 L1657 922 L1892 995 Z M1900 1450 Q1950 1450 1984.5 1415 Q2019 1380 2019 1331 Q2019 1282 1984.5 1248 Q1950 1214 1900 1214 Q1851 1214 1816.5 1248 Q1782 1282 1782 1331 Q1782 1381 1816.5 1415.5 Q1851 1450 1900 1450 Z " />
<glyph glyph-name="eightroman" unicode="&#x2177;" horiz-adv-x="2731" d="M-10 985 L434 985 L434 909 L326 901 L301 868 L541 199 L803 868 L786 901 L676 909 L676 985 L1038 985 L1038 909 L918 893 L559 0 L444 0 L115 897 L-10 909 L-10 985 Z M1319 995 L1399 995 L1399 117 L1434 84 L1544 74 L1544 0 L1084 0 L1084 74 L1192 84 L1227 117 L1227 858 L1084 858 L1084 922 L1319 995 Z M1327 1450 Q1377 1450 1411.5 1415 Q1446 1380 1446 1331 Q1446 1282 1411.5 1248 Q1377 1214 1327 1214 Q1278 1214 1243.5 1248 Q1209 1282 1209 1331 Q1209 1381 1243.5 1415.5 Q1278 1450 1327 1450 Z M1892 995 L1972 995 L1972 117 L2007 84 L2117 74 L2117 0 L1657 0 L1657 74 L1765 84 L1800 117 L1800 858 L1657 858 L1657 922 L1892 995 Z M1900 1450 Q1950 1450 1984.5 1415 Q2019 1380 2019 1331 Q2019 1282 1984.5 1248 Q1950 1214 1900 1214 Q1851 1214 1816.5 1248 Q1782 1282 1782 1331 Q1782 1381 1816.5 1415.5 Q1851 1450 1900 1450 Z M2465 995 L2545 995 L2545 117 L2580 84 L2690 74 L2690 0 L2230 0 L2230 74 L2338 84 L2373 117 L2373 858 L2230 858 L2230 922 L2465 995 Z M2473 1450 Q2523 1450 2557.5 1415 Q2592 1380 2592 1331 Q2592 1282 2557.5 1248 Q2523 1214 2473 1214 Q2424 1214 2389.5 1248 Q2355 1282 2355 1331 Q2355 1381 2389.5 1415.5 Q2424 1450 2473 1450 Z " />
<glyph glyph-name="nineroman" unicode="&#x2178;" horiz-adv-x="1603" d="M307 995 L387 995 L387 117 L422 84 L532 74 L532 0 L72 0 L72 74 L180 84 L215 117 L215 858 L72 858 L72 922 L307 995 Z M315 1450 Q365 1450 399.5 1415 Q434 1380 434 1331 Q434 1282 399.5 1248 Q365 1214 315 1214 Q266 1214 231.5 1248 Q197 1282 197 1331 Q197 1381 231.5 1415.5 Q266 1450 315 1450 Z M610 985 L1050 985 L1050 909 L956 897 L946 877 L1118 608 L1304 870 L1288 897 L1189 909 L1189 985 L1558 985 L1558 909 L1443 889 L1173 530 L1474 92 L1597 76 L1597 0 L1161 0 L1161 76 L1247 90 L1257 106 L1067 412 L858 115 L868 90 L985 76 L985 0 L598 0 L598 76 L714 92 L1009 487 L735 887 L610 909 L610 985 Z " />
<glyph glyph-name="tenroman" unicode="&#x2179;" horiz-adv-x="1030" d="M37 985 L477 985 L477 909 L383 897 L373 877 L545 608 L731 870 L715 897 L616 909 L616 985 L985 985 L985 909 L870 889 L600 530 L901 92 L1024 76 L1024 0 L588 0 L588 76 L674 90 L684 106 L494 412 L285 115 L295 90 L412 76 L412 0 L25 0 L25 76 L141 92 L436 487 L162 887 L37 909 L37 985 Z " />
<glyph glyph-name="elevenroman" unicode="&#x217a;" horiz-adv-x="1603" d="M37 985 L477 985 L477 909 L383 897 L373 877 L545 608 L731 870 L715 897 L616 909 L616 985 L985 985 L985 909 L870 889 L600 530 L901 92 L1024 76 L1024 0 L588 0 L588 76 L674 90 L684 106 L494 412 L285 115 L295 90 L412 76 L412 0 L25 0 L25 76 L141 92 L436 487 L162 887 L37 909 L37 985 Z M1337 995 L1417 995 L1417 117 L1452 84 L1562 74 L1562 0 L1102 0 L1102 74 L1210 84 L1245 117 L1245 858 L1102 858 L1102 922 L1337 995 Z M1345 1450 Q1395 1450 1429.5 1415 Q1464 1380 1464 1331 Q1464 1282 1429.5 1248 Q1395 1214 1345 1214 Q1296 1214 1261.5 1248 Q1227 1282 1227 1331 Q1227 1381 1261.5 1415.5 Q1296 1450 1345 1450 Z " />
<glyph glyph-name="twelveroman" unicode="&#x217b;" horiz-adv-x="2176" d="M37 985 L477 985 L477 909 L383 897 L373 877 L545 608 L731 870 L715 897 L616 909 L616 985 L985 985 L985 909 L870 889 L600 530 L901 92 L1024 76 L1024 0 L588 0 L588 76 L674 90 L684 106 L494 412 L285 115 L295 90 L412 76 L412 0 L25 0 L25 76 L141 92 L436 487 L162 887 L37 909 L37 985 Z M1337 995 L1417 995 L1417 117 L1452 84 L1562 74 L1562 0 L1102 0 L1102 74 L1210 84 L1245 117 L1245 858 L1102 858 L1102 922 L1337 995 Z M1345 1450 Q1395 1450 1429.5 1415 Q1464 1380 1464 1331 Q1464 1282 1429.5 1248 Q1395 1214 1345 1214 Q1296 1214 1261.5 1248 Q1227 1282 1227 1331 Q1227 1381 1261.5 1415.5 Q1296 1450 1345 1450 Z M1910 995 L1990 995 L1990 117 L2025 84 L2135 74 L2135 0 L1675 0 L1675 74 L1783 84 L1818 117 L1818 858 L1675 858 L1675 922 L1910 995 Z M1918 1450 Q1968 1450 2002.5 1415 Q2037 1380 2037 1331 Q2037 1282 2002.5 1248 Q1968 1214 1918 1214 Q1869 1214 1834.5 1248 Q1800 1282 1800 1331 Q1800 1381 1834.5 1415.5 Q1869 1450 1918 1450 Z " />
<glyph glyph-name="uni217C" unicode="&#x217c;" horiz-adv-x="578" d="M57 0 L57 74 L178 84 L213 117 L213 1370 L55 1370 L55 1434 L305 1507 L383 1507 L383 117 L420 84 L537 74 L537 0 L57 0 Z " />
<glyph glyph-name="uni217D" unicode="&#x217d;" horiz-adv-x="913" d="M870 86 Q784 36 701 11 Q618 -14 537 -14 Q329 -14 202.5 125.5 Q76 265 76 494 Q76 721 210.5 863.5 Q345 1006 561 1006 Q704 1006 786 951.5 Q868 897 868 805 Q868 756 837 726 Q806 696 754 696 Q731 696 708 704 Q685 712 662 727 L662 895 Q638 909 613 916.5 Q588 924 563 924 Q427 924 344.5 810.5 Q262 697 262 508 Q262 321 355.5 213.5 Q449 106 610 106 Q677 106 741 127.5 Q805 149 870 193 L870 86 Z " />
<glyph glyph-name="uni217E" unicode="&#x217e;" horiz-adv-x="1157" d="M784 182 L784 885 Q728 901 683.5 909.5 Q639 918 604 918 Q447 918 350.5 802 Q254 686 254 496 Q254 319 337.5 215 Q421 111 561 111 Q615 111 670.5 128.5 Q726 146 784 182 Z M784 1370 L627 1370 L627 1434 L877 1507 L954 1507 L954 117 L989 84 L1087 74 L1087 0 L784 0 L784 106 Q704 42 628 12 Q552 -18 469 -18 Q297 -18 185.5 116.5 Q74 251 74 461 Q74 705 220.5 856.5 Q367 1008 602 1008 Q643 1008 689 1002 Q735 996 784 985 L784 1370 Z " />
<glyph glyph-name="thousandroman" unicode="&#x217f;" horiz-adv-x="1726" d="M930 868 Q1048 938 1135 972 Q1222 1006 1282 1006 Q1406 1006 1475 925.5 Q1544 845 1544 700 L1544 694 L1544 117 L1581 84 L1690 74 L1690 0 L1243 0 L1243 74 L1339 84 L1376 117 L1376 659 Q1376 768 1331 819 Q1286 870 1192 870 Q1145 870 1087.5 853.5 Q1030 837 961 803 L961 117 L997 84 L1094 74 L1094 0 L657 0 L657 74 L756 84 L791 117 L791 659 Q791 767 746.5 818.5 Q702 870 610 870 Q560 870 502.5 853.5 Q445 837 377 803 L377 117 L412 84 L510 74 L510 0 L61 0 L61 74 L172 84 L207 117 L207 858 L61 858 L61 922 L299 995 L377 995 L377 883 Q484 946 563.5 976 Q643 1006 705 1006 Q780 1006 837.5 971 Q895 936 930 868 Z " />
<glyph glyph-name="Dcroat" unicode="&#x110;" horiz-adv-x="1419" d="M403 670 L403 94 L565 94 Q845 94 983.5 241.5 Q1122 389 1122 688 Q1122 987 984.5 1133.5 Q847 1280 565 1280 L403 1280 L403 768 L743 768 L743 670 L403 670 Z M573 1374 Q933 1374 1131 1194.5 Q1329 1015 1329 688 Q1329 506 1264.5 364.5 Q1200 223 1073 127 Q983 59 870 29.5 Q757 0 573 0 L68 0 L68 84 L184 94 L219 123 L219 670 L31 670 L31 768 L219 768 L219 1251 L184 1280 L68 1292 L68 1374 L573 1374 Z " />
<glyph glyph-name="Ibreve" unicode="&#x12c;" horiz-adv-x="664" d="M72 0 L72 84 L203 94 L238 123 L238 1251 L203 1280 L72 1292 L72 1374 L592 1374 L592 1292 L461 1280 L426 1251 L426 123 L461 94 L592 84 L592 0 L72 0 Z M43 1767 L123 1767 L123 1751 Q123 1671 170 1638 Q217 1605 334 1605 Q449 1605 495 1638 Q541 1671 541 1751 L541 1767 L623 1767 L623 1745 Q623 1600 557 1538 Q491 1476 334 1476 Q175 1476 109 1537 Q43 1598 43 1745 L43 1767 Z " />
<glyph glyph-name="ibreve" unicode="&#x12d;" horiz-adv-x="573" d="M307 995 L387 995 L387 117 L422 84 L532 74 L532 0 L72 0 L72 74 L180 84 L215 117 L215 858 L72 858 L72 922 L307 995 Z M13 1389 L93 1389 L93 1373 Q93 1293 140 1260 Q187 1227 304 1227 Q419 1227 465 1260 Q511 1293 511 1373 L511 1389 L593 1389 L593 1367 Q593 1222 527 1160 Q461 1098 304 1098 Q145 1098 79 1159 Q13 1220 13 1367 L13 1389 Z " />
<glyph glyph-name="IJ" unicode="&#x132;" horiz-adv-x="1573" d="M72 0 L72 84 L203 94 L238 123 L238 1251 L203 1280 L72 1292 L72 1374 L592 1374 L592 1292 L461 1280 L426 1251 L426 123 L461 94 L592 84 L592 0 L72 0 Z M1219 1251 L1184 1280 L1047 1292 L1047 1374 L1565 1374 L1565 1292 L1438 1280 L1403 1251 L1403 524 Q1403 240 1295 107.5 Q1187 -25 957 -25 Q893 -25 826.5 -12.5 Q760 0 689 25 L689 367 L803 367 L852 109 L881 82 Q899 78 917 76 Q935 74 953 74 Q1092 74 1155.5 178 Q1219 282 1219 516 L1219 1251 Z " />
<glyph glyph-name="ij" unicode="&#x133;" horiz-adv-x="1118" d="M307 995 L387 995 L387 117 L422 84 L532 74 L532 0 L72 0 L72 74 L180 84 L215 117 L215 858 L72 858 L72 922 L307 995 Z M315 1450 Q365 1450 399.5 1415 Q434 1380 434 1331 Q434 1282 399.5 1248 Q365 1214 315 1214 Q266 1214 231.5 1248 Q197 1282 197 1331 Q197 1381 231.5 1415.5 Q266 1450 315 1450 Z M753 1331 Q753 1381 787.5 1415.5 Q822 1450 872 1450 Q921 1450 956 1415 Q991 1380 991 1331 Q991 1282 956 1248 Q921 1214 872 1214 Q823 1214 788 1248 Q753 1282 753 1331 Z M796 858 L651 858 L651 922 L888 995 L966 995 L966 172 Q966 -53 939.5 -148.5 Q913 -244 849 -313 Q790 -378 714 -412 Q638 -446 555 -446 Q489 -446 451 -416.5 Q413 -387 413 -336 Q413 -300 432.5 -273 Q452 -246 489 -229 L688 -350 Q743 -332 769.5 -254.5 Q796 -177 796 -33 L796 858 Z " />
<glyph glyph-name="Jcircumflex" unicode="&#x134;" horiz-adv-x="909" d="M555 1251 L520 1280 L383 1292 L383 1374 L901 1374 L901 1292 L774 1280 L739 1251 L739 524 Q739 240 631 107.5 Q523 -25 293 -25 Q229 -25 162.5 -12.5 Q96 0 25 25 L25 367 L139 367 L188 109 L217 82 Q235 78 253 76 Q271 74 289 74 Q428 74 491.5 178 Q555 282 555 516 L555 1251 Z M398 1865 L530 1865 L755 1476 L644 1476 L464 1765 L286 1476 L173 1476 L398 1865 Z " />
<glyph glyph-name="napostrophe" unicode="&#x149;" horiz-adv-x="1575" d="M152 905 L63 905 Q148 997 187.5 1074 Q227 1151 227 1221 Q227 1240 226 1249.5 Q225 1259 223 1268 L90 1268 Q77 1287 70 1306 Q63 1325 63 1343 Q63 1394 98 1427 Q133 1460 186 1460 Q259 1460 303.5 1408.5 Q348 1357 348 1272 Q348 1183 298.5 1090.5 Q249 998 152 905 Z M473 0 L473 74 L584 84 L619 117 L619 858 L473 858 L473 922 L711 995 L789 995 L789 883 Q912 951 987 978.5 Q1062 1006 1119 1006 Q1253 1006 1324 926 Q1395 846 1395 694 L1395 117 L1430 84 L1540 74 L1540 0 L1092 0 L1092 74 L1190 84 L1225 117 L1225 659 Q1225 774 1177.5 822 Q1130 870 1018 870 Q969 870 912 853.5 Q855 837 789 803 L789 117 L824 84 L922 74 L922 0 L473 0 Z " />
<glyph glyph-name="clickretroflex" unicode="&#x1c3;" horiz-adv-x="692" d="M346 215 Q395 215 429 181 Q463 147 463 98 Q463 50 429 16 Q395 -18 346 -18 Q298 -18 263.5 16 Q229 50 229 98 Q229 147 263.5 181 Q298 215 346 215 Z M453 1133 L395 350 L297 350 L240 1132 Q237 1166 235 1196 Q233 1226 233 1251 Q233 1324 261.5 1361.5 Q290 1399 346 1399 Q401 1399 430 1361.5 Q459 1324 459 1251 Q459 1235 457.5 1206 Q456 1177 453 1133 Z " />
<glyph glyph-name="DZcaron" unicode="&#x1c4;" horiz-adv-x="2619" d="M403 1280 L403 94 L565 94 Q845 94 983.5 241.5 Q1122 389 1122 688 Q1122 987 984.5 1133.5 Q847 1280 565 1280 L403 1280 Z M573 1374 Q933 1374 1131 1194.5 Q1329 1015 1329 688 Q1329 506 1264.5 364.5 Q1200 223 1073 127 Q983 59 870 29.5 Q757 0 573 0 L68 0 L68 84 L184 94 L219 123 L219 1251 L184 1280 L68 1292 L68 1374 L573 1374 Z M1556 1374 L2513 1374 L2513 1288 L1734 100 L2353 100 L2375 127 L2412 371 L2523 371 L2523 0 L1511 0 L1511 84 L2287 1276 L1741 1276 L1702 1249 L1669 1057 L1556 1057 L1556 1374 Z M1726 1865 L1839 1865 L2017 1577 L2197 1865 L2308 1865 L2083 1476 L1951 1476 L1726 1865 Z " />
<glyph glyph-name="Dzcaron" unicode="&#x1c5;" horiz-adv-x="2418" d="M403 1280 L403 94 L565 94 Q845 94 983.5 241.5 Q1122 389 1122 688 Q1122 987 984.5 1133.5 Q847 1280 565 1280 L403 1280 Z M573 1374 Q933 1374 1131 1194.5 Q1329 1015 1329 688 Q1329 506 1264.5 364.5 Q1200 223 1073 127 Q983 59 870 29.5 Q757 0 573 0 L68 0 L68 84 L184 94 L219 123 L219 1251 L184 1280 L68 1292 L68 1374 L573 1374 Z M1511 0 L1511 102 L2058 891 L1679 891 L1650 858 L1628 700 L1532 700 L1532 985 L2271 985 L2271 907 L1704 94 L2144 94 L2175 127 L2197 301 L2302 301 L2302 0 L1511 0 Z M1615 1477 L1728 1477 L1906 1189 L2086 1477 L2197 1477 L1972 1088 L1840 1088 L1615 1477 Z " />
<glyph glyph-name="dzcaron" unicode="&#x1c6;" horiz-adv-x="2156" d="M784 182 L784 885 Q728 901 683.5 909.5 Q639 918 604 918 Q447 918 350.5 802 Q254 686 254 496 Q254 319 337.5 215 Q421 111 561 111 Q615 111 670.5 128.5 Q726 146 784 182 Z M784 1370 L627 1370 L627 1434 L877 1507 L954 1507 L954 117 L989 84 L1087 74 L1087 0 L784 0 L784 106 Q704 42 628 12 Q552 -18 469 -18 Q297 -18 185.5 116.5 Q74 251 74 461 Q74 705 220.5 856.5 Q367 1008 602 1008 Q643 1008 689 1002 Q735 996 784 985 L784 1370 Z M1249 0 L1249 102 L1796 891 L1417 891 L1388 858 L1366 700 L1270 700 L1270 985 L2009 985 L2009 907 L1442 94 L1882 94 L1913 127 L1935 301 L2040 301 L2040 0 L1249 0 Z M1353 1477 L1466 1477 L1644 1189 L1824 1477 L1935 1477 L1710 1088 L1578 1088 L1353 1477 Z " />
<glyph glyph-name="LJ" unicode="&#x1c7;" horiz-adv-x="1974" d="M55 0 L55 84 L184 94 L219 123 L219 1251 L184 1280 L55 1292 L55 1374 L555 1374 L555 1292 L438 1280 L403 1251 L403 94 L866 94 L895 127 L930 373 L1036 373 L1036 0 L55 0 Z M1620 1251 L1585 1280 L1448 1292 L1448 1374 L1966 1374 L1966 1292 L1839 1280 L1804 1251 L1804 524 Q1804 240 1696 107.5 Q1588 -25 1358 -25 Q1294 -25 1227.5 -12.5 Q1161 0 1090 25 L1090 367 L1204 367 L1253 109 L1282 82 Q1300 78 1318 76 Q1336 74 1354 74 Q1493 74 1556.5 178 Q1620 282 1620 516 L1620 1251 Z " />
<glyph glyph-name="Lj" unicode="&#x1c8;" horiz-adv-x="1610" d="M55 0 L55 84 L184 94 L219 123 L219 1251 L184 1280 L55 1292 L55 1374 L555 1374 L555 1292 L438 1280 L403 1251 L403 94 L866 94 L895 127 L930 373 L1036 373 L1036 0 L55 0 Z M1245 1331 Q1245 1381 1279.5 1415.5 Q1314 1450 1364 1450 Q1413 1450 1448 1415 Q1483 1380 1483 1331 Q1483 1282 1448 1248 Q1413 1214 1364 1214 Q1315 1214 1280 1248 Q1245 1282 1245 1331 Z M1288 858 L1143 858 L1143 922 L1380 995 L1458 995 L1458 172 Q1458 -53 1431.5 -148.5 Q1405 -244 1341 -313 Q1282 -378 1206 -412 Q1130 -446 1047 -446 Q981 -446 943 -416.5 Q905 -387 905 -336 Q905 -300 924.5 -273 Q944 -246 981 -229 L1180 -350 Q1235 -332 1261.5 -254.5 Q1288 -177 1288 -33 L1288 858 Z " />
<glyph glyph-name="lj" unicode="&#x1c9;" horiz-adv-x="1123" d="M57 0 L57 74 L178 84 L213 117 L213 1370 L55 1370 L55 1434 L305 1507 L383 1507 L383 117 L420 84 L537 74 L537 0 L57 0 Z M758 1331 Q758 1381 792.5 1415.5 Q827 1450 877 1450 Q926 1450 961 1415 Q996 1380 996 1331 Q996 1282 961 1248 Q926 1214 877 1214 Q828 1214 793 1248 Q758 1282 758 1331 Z M801 858 L656 858 L656 922 L893 995 L971 995 L971 172 Q971 -53 944.5 -148.5 Q918 -244 854 -313 Q795 -378 719 -412 Q643 -446 560 -446 Q494 -446 456 -416.5 Q418 -387 418 -336 Q418 -300 437.5 -273 Q457 -246 494 -229 L693 -350 Q748 -332 774.5 -254.5 Q801 -177 801 -33 L801 858 Z " />
<glyph glyph-name="NJ" unicode="&#x1ca;" horiz-adv-x="2369" d="M59 0 L59 84 L184 100 L221 139 L221 1251 L184 1280 L53 1292 L53 1374 L438 1374 L438 1323 L1137 274 L1137 1237 L1100 1274 L977 1292 L977 1374 L1407 1374 L1407 1292 L1284 1274 L1247 1237 L1247 0 L1112 0 L332 1163 L332 139 L369 100 L492 84 L492 0 L59 0 Z M2015 1251 L1980 1280 L1843 1292 L1843 1374 L2361 1374 L2361 1292 L2234 1280 L2199 1251 L2199 524 Q2199 240 2091 107.5 Q1983 -25 1753 -25 Q1689 -25 1622.5 -12.5 Q1556 0 1485 25 L1485 367 L1599 367 L1648 109 L1677 82 Q1695 78 1713 76 Q1731 74 1749 74 Q1888 74 1951.5 178 Q2015 282 2015 516 L2015 1251 Z " />
<glyph glyph-name="Nj" unicode="&#x1cb;" horiz-adv-x="2005" d="M59 0 L59 84 L184 100 L221 139 L221 1251 L184 1280 L53 1292 L53 1374 L438 1374 L438 1323 L1137 274 L1137 1237 L1100 1274 L977 1292 L977 1374 L1407 1374 L1407 1292 L1284 1274 L1247 1237 L1247 0 L1112 0 L332 1163 L332 139 L369 100 L492 84 L492 0 L59 0 Z M1640 1331 Q1640 1381 1674.5 1415.5 Q1709 1450 1759 1450 Q1808 1450 1843 1415 Q1878 1380 1878 1331 Q1878 1282 1843 1248 Q1808 1214 1759 1214 Q1710 1214 1675 1248 Q1640 1282 1640 1331 Z M1683 858 L1538 858 L1538 922 L1775 995 L1853 995 L1853 172 Q1853 -53 1826.5 -148.5 Q1800 -244 1736 -313 Q1677 -378 1601 -412 Q1525 -446 1442 -446 Q1376 -446 1338 -416.5 Q1300 -387 1300 -336 Q1300 -300 1319.5 -273 Q1339 -246 1376 -229 L1575 -350 Q1630 -332 1656.5 -254.5 Q1683 -177 1683 -33 L1683 858 Z " />
<glyph glyph-name="nj" unicode="&#x1cc;" horiz-adv-x="1708" d="M61 0 L61 74 L172 84 L207 117 L207 858 L61 858 L61 922 L299 995 L377 995 L377 883 Q500 951 575 978.5 Q650 1006 707 1006 Q841 1006 912 926 Q983 846 983 694 L983 117 L1018 84 L1128 74 L1128 0 L680 0 L680 74 L778 84 L813 117 L813 659 Q813 774 765.5 822 Q718 870 606 870 Q557 870 500 853.5 Q443 837 377 803 L377 117 L412 84 L510 74 L510 0 L61 0 Z M1343 1331 Q1343 1381 1377.5 1415.5 Q1412 1450 1462 1450 Q1511 1450 1546 1415 Q1581 1380 1581 1331 Q1581 1282 1546 1248 Q1511 1214 1462 1214 Q1413 1214 1378 1248 Q1343 1282 1343 1331 Z M1386 858 L1241 858 L1241 922 L1478 995 L1556 995 L1556 172 Q1556 -53 1529.5 -148.5 Q1503 -244 1439 -313 Q1380 -378 1304 -412 Q1228 -446 1145 -446 Q1079 -446 1041 -416.5 Q1003 -387 1003 -336 Q1003 -300 1022.5 -273 Q1042 -246 1079 -229 L1278 -350 Q1333 -332 1359.5 -254.5 Q1386 -177 1386 -33 L1386 858 Z " />
<glyph glyph-name="Acaron" unicode="&#x1cd;" horiz-adv-x="1309" d="M614 1176 L412 608 L825 608 L614 1176 Z M582 1391 L717 1391 L1208 109 L1331 84 L1331 0 L866 0 L866 84 L993 94 L1008 123 L860 514 L377 514 L231 123 L252 94 L385 84 L385 0 L-16 0 L-16 84 L102 109 L582 1391 Z M366 1882 L479 1882 L657 1594 L837 1882 L948 1882 L723 1493 L591 1493 L366 1882 Z " />
<glyph glyph-name="acaron" unicode="&#x1ce;" horiz-adv-x="1038" d="M684 188 L684 549 Q427 478 346.5 419 Q266 360 266 264 Q266 187 310.5 141.5 Q355 96 430 96 Q478 96 540.5 119 Q603 142 684 188 Z M684 119 Q585 51 502.5 18.5 Q420 -14 348 -14 Q229 -14 157.5 58 Q86 130 86 248 Q86 379 193.5 454 Q301 529 684 621 L684 686 Q684 815 642 865 Q600 915 496 915 Q457 915 419 907 Q381 899 340 883 L340 711 L199 711 Q162 711 148.5 724.5 Q135 738 135 774 Q135 874 250.5 940 Q366 1006 549 1006 Q710 1006 783 936 Q856 866 856 711 L856 117 L891 84 L999 74 L999 0 L711 0 L684 119 Z M251 1498 L364 1498 L542 1210 L722 1498 L833 1498 L608 1109 L476 1109 L251 1498 Z " />
<glyph glyph-name="Icaron" unicode="&#x1cf;" horiz-adv-x="664" d="M72 0 L72 84 L203 94 L238 123 L238 1251 L203 1280 L72 1292 L72 1374 L592 1374 L592 1292 L461 1280 L426 1251 L426 123 L461 94 L592 84 L592 0 L72 0 Z M42 1865 L155 1865 L333 1577 L513 1865 L624 1865 L399 1476 L267 1476 L42 1865 Z " />
<glyph glyph-name="icaron" unicode="&#x1d0;" horiz-adv-x="573" d="M307 995 L387 995 L387 117 L422 84 L532 74 L532 0 L72 0 L72 74 L180 84 L215 117 L215 858 L72 858 L72 922 L307 995 Z M12 1487 L125 1487 L303 1199 L483 1487 L594 1487 L369 1098 L237 1098 L12 1487 Z " />
<glyph glyph-name="Ocaron" unicode="&#x1d1;" horiz-adv-x="1497" d="M750 1298 Q544 1298 422.5 1133.5 Q301 969 301 688 Q301 408 423.5 242 Q546 76 750 76 Q952 76 1074 242.5 Q1196 409 1196 688 Q1196 967 1074 1132.5 Q952 1298 750 1298 Z M750 1409 Q881 1409 994 1364 Q1107 1319 1200 1229 Q1304 1128 1357.5 991 Q1411 854 1411 688 Q1411 574 1385 473 Q1359 372 1307 283 Q1220 134 1073 50.5 Q926 -33 750 -33 Q619 -33 503.5 12 Q388 57 299 143 Q195 244 141.5 382 Q88 520 88 688 Q88 855 141 992 Q194 1129 297 1229 Q389 1318 503.5 1363.5 Q618 1409 750 1409 Z M458 1900 L571 1900 L749 1612 L929 1900 L1040 1900 L815 1511 L683 1511 L458 1900 Z " />
<glyph glyph-name="ocaron" unicode="&#x1d2;" horiz-adv-x="1104" d="M551 918 Q423 918 345.5 802.5 Q268 687 268 494 Q268 301 346 185.5 Q424 70 551 70 Q680 70 758 185 Q836 300 836 494 Q836 686 757.5 802 Q679 918 551 918 Z M551 1006 Q760 1006 894 862.5 Q1028 719 1028 494 Q1028 269 893.5 125.5 Q759 -18 551 -18 Q343 -18 209.5 125 Q76 268 76 494 Q76 720 208.5 863 Q341 1006 551 1006 Z M261 1498 L374 1498 L552 1210 L732 1498 L843 1498 L618 1109 L486 1109 L261 1498 Z " />
<glyph glyph-name="Ucaron" unicode="&#x1d3;" horiz-adv-x="1421" d="M51 1374 L553 1374 L553 1292 L426 1280 L391 1251 L391 510 Q391 295 477.5 198.5 Q564 102 756 102 Q946 102 1033 199.5 Q1120 297 1120 510 L1120 1237 L1081 1274 L958 1292 L958 1374 L1391 1374 L1391 1292 L1268 1274 L1231 1237 L1231 492 Q1231 345 1210 267 Q1189 189 1141 131 Q1080 58 968.5 16.5 Q857 -25 717 -25 Q576 -25 465 16.5 Q354 58 293 131 Q244 190 223.5 267 Q203 344 203 492 L203 1251 L168 1280 L51 1292 L51 1374 Z M430 1865 L543 1865 L721 1577 L901 1865 L1012 1865 L787 1476 L655 1476 L430 1865 Z " />
<glyph glyph-name="ucaron" unicode="&#x1d4;" horiz-adv-x="1165" d="M291 1006 L369 1006 L369 328 Q369 216 417 163.5 Q465 111 567 111 Q624 111 682.5 126 Q741 141 805 172 L805 866 L659 866 L659 930 L897 1006 L975 1006 L975 117 L1012 84 L1108 74 L1108 0 L805 0 L805 115 Q709 46 627.5 13 Q546 -20 473 -20 Q340 -20 269.5 60.5 Q199 141 199 293 L199 866 L53 866 L53 930 L291 1006 Z M289 1498 L402 1498 L580 1210 L760 1498 L871 1498 L646 1109 L514 1109 L289 1498 Z " />
<glyph glyph-name="Udieresismacron" unicode="&#x1d5;" horiz-adv-x="1421" d="M51 1374 L553 1374 L553 1292 L426 1280 L391 1251 L391 510 Q391 295 477.5 198.5 Q564 102 756 102 Q946 102 1033 199.5 Q1120 297 1120 510 L1120 1237 L1081 1274 L958 1292 L958 1374 L1391 1374 L1391 1292 L1268 1274 L1231 1237 L1231 492 Q1231 345 1210 267 Q1189 189 1141 131 Q1080 58 968.5 16.5 Q857 -25 717 -25 Q576 -25 465 16.5 Q354 58 293 131 Q244 190 223.5 267 Q203 344 203 492 L203 1251 L168 1280 L51 1292 L51 1374 Z M912 1683 Q956 1683 985.5 1653 Q1015 1623 1015 1579 Q1015 1536 985 1506 Q955 1476 912 1476 Q869 1476 838.5 1506 Q808 1536 808 1579 Q808 1623 838.5 1653 Q869 1683 912 1683 Z M532 1683 Q575 1683 604.5 1653 Q634 1623 634 1579 Q634 1536 604.5 1506 Q575 1476 532 1476 Q488 1476 457.5 1506 Q427 1536 427 1579 Q427 1623 457.5 1653 Q488 1683 532 1683 Z M413 1908 L1029 1908 L1029 1785 L413 1785 L413 1908 Z " />
<glyph glyph-name="udieresismacron" unicode="&#x1d6;" horiz-adv-x="1165" d="M291 1006 L369 1006 L369 328 Q369 216 417 163.5 Q465 111 567 111 Q624 111 682.5 126 Q741 141 805 172 L805 866 L659 866 L659 930 L897 1006 L975 1006 L975 117 L1012 84 L1108 74 L1108 0 L805 0 L805 115 Q709 46 627.5 13 Q546 -20 473 -20 Q340 -20 269.5 60.5 Q199 141 199 293 L199 866 L53 866 L53 930 L291 1006 Z M771 1316 Q815 1316 844.5 1286 Q874 1256 874 1212 Q874 1169 844 1139 Q814 1109 771 1109 Q728 1109 697.5 1139 Q667 1169 667 1212 Q667 1256 697.5 1286 Q728 1316 771 1316 Z M391 1316 Q434 1316 463.5 1286 Q493 1256 493 1212 Q493 1169 463.5 1139 Q434 1109 391 1109 Q347 1109 316.5 1139 Q286 1169 286 1212 Q286 1256 316.5 1286 Q347 1316 391 1316 Z M272 1540 L888 1540 L888 1417 L272 1417 L272 1540 Z " />
<glyph glyph-name="Udieresisacute" unicode="&#x1d7;" horiz-adv-x="1421" d="M51 1374 L553 1374 L553 1292 L426 1280 L391 1251 L391 510 Q391 295 477.5 198.5 Q564 102 756 102 Q946 102 1033 199.5 Q1120 297 1120 510 L1120 1237 L1081 1274 L958 1292 L958 1374 L1391 1374 L1391 1292 L1268 1274 L1231 1237 L1231 492 Q1231 345 1210 267 Q1189 189 1141 131 Q1080 58 968.5 16.5 Q857 -25 717 -25 Q576 -25 465 16.5 Q354 58 293 131 Q244 190 223.5 267 Q203 344 203 492 L203 1251 L168 1280 L51 1292 L51 1374 Z M912 1683 Q956 1683 985.5 1653 Q1015 1623 1015 1579 Q1015 1536 985 1506 Q955 1476 912 1476 Q869 1476 838.5 1506 Q808 1536 808 1579 Q808 1623 838.5 1653 Q869 1683 912 1683 Z M532 1683 Q575 1683 604.5 1653 Q634 1623 634 1579 Q634 1536 604.5 1506 Q575 1476 532 1476 Q488 1476 457.5 1506 Q427 1536 427 1579 Q427 1623 457.5 1653 Q488 1683 532 1683 Z M719 2174 L922 2174 L623 1785 L520 1785 L719 2174 Z " />
<glyph glyph-name="udieresisacute" unicode="&#x1d8;" horiz-adv-x="1165" d="M291 1006 L369 1006 L369 328 Q369 216 417 163.5 Q465 111 567 111 Q624 111 682.5 126 Q741 141 805 172 L805 866 L659 866 L659 930 L897 1006 L975 1006 L975 117 L1012 84 L1108 74 L1108 0 L805 0 L805 115 Q709 46 627.5 13 Q546 -20 473 -20 Q340 -20 269.5 60.5 Q199 141 199 293 L199 866 L53 866 L53 930 L291 1006 Z M771 1316 Q815 1316 844.5 1286 Q874 1256 874 1212 Q874 1169 844 1139 Q814 1109 771 1109 Q728 1109 697.5 1139 Q667 1169 667 1212 Q667 1256 697.5 1286 Q728 1316 771 1316 Z M391 1316 Q434 1316 463.5 1286 Q493 1256 493 1212 Q493 1169 463.5 1139 Q434 1109 391 1109 Q347 1109 316.5 1139 Q286 1169 286 1212 Q286 1256 316.5 1286 Q347 1316 391 1316 Z M579 1806 L782 1806 L483 1417 L380 1417 L579 1806 Z " />
<glyph glyph-name="Udieresiscaron" unicode="&#x1d9;" horiz-adv-x="1421" d="M51 1374 L553 1374 L553 1292 L426 1280 L391 1251 L391 510 Q391 295 477.5 198.5 Q564 102 756 102 Q946 102 1033 199.5 Q1120 297 1120 510 L1120 1237 L1081 1274 L958 1292 L958 1374 L1391 1374 L1391 1292 L1268 1274 L1231 1237 L1231 492 Q1231 345 1210 267 Q1189 189 1141 131 Q1080 58 968.5 16.5 Q857 -25 717 -25 Q576 -25 465 16.5 Q354 58 293 131 Q244 190 223.5 267 Q203 344 203 492 L203 1251 L168 1280 L51 1292 L51 1374 Z M912 1683 Q956 1683 985.5 1653 Q1015 1623 1015 1579 Q1015 1536 985 1506 Q955 1476 912 1476 Q869 1476 838.5 1506 Q808 1536 808 1579 Q808 1623 838.5 1653 Q869 1683 912 1683 Z M532 1683 Q575 1683 604.5 1653 Q634 1623 634 1579 Q634 1536 604.5 1506 Q575 1476 532 1476 Q488 1476 457.5 1506 Q427 1536 427 1579 Q427 1623 457.5 1653 Q488 1683 532 1683 Z M430 2174 L543 2174 L721 1886 L901 2174 L1012 2174 L787 1785 L655 1785 L430 2174 Z " />
<glyph glyph-name="udieresiscaron" unicode="&#x1da;" horiz-adv-x="1165" d="M291 1006 L369 1006 L369 328 Q369 216 417 163.5 Q465 111 567 111 Q624 111 682.5 126 Q741 141 805 172 L805 866 L659 866 L659 930 L897 1006 L975 1006 L975 117 L1012 84 L1108 74 L1108 0 L805 0 L805 115 Q709 46 627.5 13 Q546 -20 473 -20 Q340 -20 269.5 60.5 Q199 141 199 293 L199 866 L53 866 L53 930 L291 1006 Z M771 1316 Q815 1316 844.5 1286 Q874 1256 874 1212 Q874 1169 844 1139 Q814 1109 771 1109 Q728 1109 697.5 1139 Q667 1169 667 1212 Q667 1256 697.5 1286 Q728 1316 771 1316 Z M391 1316 Q434 1316 463.5 1286 Q493 1256 493 1212 Q493 1169 463.5 1139 Q434 1109 391 1109 Q347 1109 316.5 1139 Q286 1169 286 1212 Q286 1256 316.5 1286 Q347 1316 391 1316 Z M289 1806 L402 1806 L580 1518 L760 1806 L871 1806 L646 1417 L514 1417 L289 1806 Z " />
<glyph glyph-name="Udieresisgrave" unicode="&#x1db;" horiz-adv-x="1421" d="M51 1374 L553 1374 L553 1292 L426 1280 L391 1251 L391 510 Q391 295 477.5 198.5 Q564 102 756 102 Q946 102 1033 199.5 Q1120 297 1120 510 L1120 1237 L1081 1274 L958 1292 L958 1374 L1391 1374 L1391 1292 L1268 1274 L1231 1237 L1231 492 Q1231 345 1210 267 Q1189 189 1141 131 Q1080 58 968.5 16.5 Q857 -25 717 -25 Q576 -25 465 16.5 Q354 58 293 131 Q244 190 223.5 267 Q203 344 203 492 L203 1251 L168 1280 L51 1292 L51 1374 Z M912 1683 Q956 1683 985.5 1653 Q1015 1623 1015 1579 Q1015 1536 985 1506 Q955 1476 912 1476 Q869 1476 838.5 1506 Q808 1536 808 1579 Q808 1623 838.5 1653 Q869 1683 912 1683 Z M532 1683 Q575 1683 604.5 1653 Q634 1623 634 1579 Q634 1536 604.5 1506 Q575 1476 532 1476 Q488 1476 457.5 1506 Q427 1536 427 1579 Q427 1623 457.5 1653 Q488 1683 532 1683 Z M521 2174 L724 2174 L922 1785 L820 1785 L521 2174 Z " />
<glyph glyph-name="udieresisgrave" unicode="&#x1dc;" horiz-adv-x="1165" d="M291 1006 L369 1006 L369 328 Q369 216 417 163.5 Q465 111 567 111 Q624 111 682.5 126 Q741 141 805 172 L805 866 L659 866 L659 930 L897 1006 L975 1006 L975 117 L1012 84 L1108 74 L1108 0 L805 0 L805 115 Q709 46 627.5 13 Q546 -20 473 -20 Q340 -20 269.5 60.5 Q199 141 199 293 L199 866 L53 866 L53 930 L291 1006 Z M771 1316 Q815 1316 844.5 1286 Q874 1256 874 1212 Q874 1169 844 1139 Q814 1109 771 1109 Q728 1109 697.5 1139 Q667 1169 667 1212 Q667 1256 697.5 1286 Q728 1316 771 1316 Z M391 1316 Q434 1316 463.5 1286 Q493 1256 493 1212 Q493 1169 463.5 1139 Q434 1109 391 1109 Q347 1109 316.5 1139 Q286 1169 286 1212 Q286 1256 316.5 1286 Q347 1316 391 1316 Z M380 1806 L583 1806 L781 1417 L679 1417 L380 1806 Z " />
<glyph glyph-name="Adieresismacron" unicode="&#x1de;" horiz-adv-x="1309" d="M614 1176 L412 608 L825 608 L614 1176 Z M582 1391 L717 1391 L1208 109 L1331 84 L1331 0 L866 0 L866 84 L993 94 L1008 123 L860 514 L377 514 L231 123 L252 94 L385 84 L385 0 L-16 0 L-16 84 L102 109 L582 1391 Z M848 1700 Q892 1700 921.5 1670 Q951 1640 951 1596 Q951 1553 921 1523 Q891 1493 848 1493 Q805 1493 774.5 1523 Q744 1553 744 1596 Q744 1640 774.5 1670 Q805 1700 848 1700 Z M468 1700 Q511 1700 540.5 1670 Q570 1640 570 1596 Q570 1553 540.5 1523 Q511 1493 468 1493 Q424 1493 393.5 1523 Q363 1553 363 1596 Q363 1640 393.5 1670 Q424 1700 468 1700 Z M349 1925 L965 1925 L965 1802 L349 1802 L349 1925 Z " />
<glyph glyph-name="adieresismacron" unicode="&#x1df;" horiz-adv-x="1038" d="M684 188 L684 549 Q427 478 346.5 419 Q266 360 266 264 Q266 187 310.5 141.5 Q355 96 430 96 Q478 96 540.5 119 Q603 142 684 188 Z M684 119 Q585 51 502.5 18.5 Q420 -14 348 -14 Q229 -14 157.5 58 Q86 130 86 248 Q86 379 193.5 454 Q301 529 684 621 L684 686 Q684 815 642 865 Q600 915 496 915 Q457 915 419 907 Q381 899 340 883 L340 711 L199 711 Q162 711 148.5 724.5 Q135 738 135 774 Q135 874 250.5 940 Q366 1006 549 1006 Q710 1006 783 936 Q856 866 856 711 L856 117 L891 84 L999 74 L999 0 L711 0 L684 119 Z M733 1316 Q777 1316 806.5 1286 Q836 1256 836 1212 Q836 1169 806 1139 Q776 1109 733 1109 Q690 1109 659.5 1139 Q629 1169 629 1212 Q629 1256 659.5 1286 Q690 1316 733 1316 Z M353 1316 Q396 1316 425.5 1286 Q455 1256 455 1212 Q455 1169 425.5 1139 Q396 1109 353 1109 Q309 1109 278.5 1139 Q248 1169 248 1212 Q248 1256 278.5 1286 Q309 1316 353 1316 Z M234 1540 L850 1540 L850 1417 L234 1417 L234 1540 Z " />
<glyph glyph-name="Adotmacron" unicode="&#x1e0;" horiz-adv-x="1309" d="M614 1176 L412 608 L825 608 L614 1176 Z M582 1391 L717 1391 L1208 109 L1331 84 L1331 0 L866 0 L866 84 L993 94 L1008 123 L860 514 L377 514 L231 123 L252 94 L385 84 L385 0 L-16 0 L-16 84 L102 109 L582 1391 Z M656 1710 Q703 1710 735 1678.5 Q767 1647 767 1600 Q767 1554 735 1523.5 Q703 1493 656 1493 Q610 1493 578.5 1524 Q547 1555 547 1600 Q547 1646 578.5 1678 Q610 1710 656 1710 Z M349 1935 L965 1935 L965 1812 L349 1812 L349 1935 Z " />
<glyph glyph-name="adotmacron" unicode="&#x1e1;" horiz-adv-x="1038" d="M684 188 L684 549 Q427 478 346.5 419 Q266 360 266 264 Q266 187 310.5 141.5 Q355 96 430 96 Q478 96 540.5 119 Q603 142 684 188 Z M684 119 Q585 51 502.5 18.5 Q420 -14 348 -14 Q229 -14 157.5 58 Q86 130 86 248 Q86 379 193.5 454 Q301 529 684 621 L684 686 Q684 815 642 865 Q600 915 496 915 Q457 915 419 907 Q381 899 340 883 L340 711 L199 711 Q162 711 148.5 724.5 Q135 738 135 774 Q135 874 250.5 940 Q366 1006 549 1006 Q710 1006 783 936 Q856 866 856 711 L856 117 L891 84 L999 74 L999 0 L711 0 L684 119 Z M541 1326 Q588 1326 620 1294.5 Q652 1263 652 1216 Q652 1170 620 1139.5 Q588 1109 541 1109 Q495 1109 463.5 1140 Q432 1171 432 1216 Q432 1262 463.5 1294 Q495 1326 541 1326 Z M234 1550 L850 1550 L850 1427 L234 1427 L234 1550 Z " />
<glyph glyph-name="AEmacron" unicode="&#x1e2;" horiz-adv-x="1774" d="M872 1284 L449 610 L872 610 L872 1284 Z M580 1374 L1640 1374 L1640 1075 L1528 1075 L1499 1249 L1470 1280 L1049 1280 L1049 762 L1331 762 L1362 791 L1382 940 L1477 940 L1477 489 L1382 489 L1362 637 L1331 668 L1049 668 L1049 94 L1544 94 L1575 127 L1608 334 L1714 334 L1714 0 L721 0 L721 84 L838 94 L872 123 L872 514 L395 514 L150 123 L160 94 L291 84 L291 0 L-115 0 L-115 84 L2 102 L717 1251 L698 1280 L580 1292 L580 1374 Z M491 1599 L1107 1599 L1107 1476 L491 1476 L491 1599 Z " />
<glyph glyph-name="aemacron" unicode="&#x1e3;" horiz-adv-x="1485" d="M824 608 L1212 608 Q1212 617 1213 632.5 Q1214 648 1214 655 Q1214 783 1167.5 849 Q1121 915 1030 915 Q933 915 879.5 836 Q826 757 824 608 Z M664 188 L664 549 Q415 478 337.5 419 Q260 360 260 264 Q260 188 303.5 142 Q347 96 420 96 Q466 96 525.5 118.5 Q585 141 664 188 Z M340 711 L197 711 Q162 711 148.5 724.5 Q135 738 135 774 Q135 875 245.5 940.5 Q356 1006 532 1006 Q634 1006 695 976.5 Q756 947 791 883 Q846 945 913 975.5 Q980 1006 1061 1006 Q1221 1006 1309 900 Q1397 794 1397 600 Q1397 571 1396.5 556.5 Q1396 542 1395 529 L823 528 L823 244 Q889 176 965 143.5 Q1041 111 1130 111 Q1208 111 1270.5 136 Q1333 161 1397 217 L1397 104 Q1318 43 1235.5 12.5 Q1153 -18 1065 -18 Q962 -18 868.5 20.5 Q775 59 702 131 Q602 56 514 21 Q426 -14 340 -14 Q226 -14 157 56 Q88 126 88 240 Q88 376 187.5 451 Q287 526 664 621 L664 686 Q664 815 623 865 Q582 915 481 915 Q444 915 409.5 907 Q375 899 340 883 L340 711 Z M434 1232 L1050 1232 L1050 1109 L434 1109 L434 1232 Z " />
<glyph glyph-name="Gcaron" unicode="&#x1e6;" horiz-adv-x="1421" d="M854 659 L1366 659 L1366 575 L1253 565 L1219 537 L1219 47 Q1095 11 989.5 -7 Q884 -25 795 -25 Q693 -25 603.5 -4 Q514 17 442 57 Q277 151 182.5 319 Q88 487 88 688 Q88 1014 287 1206.5 Q486 1399 823 1399 Q916 1399 1015 1384 Q1114 1369 1217 1339 L1217 1014 L1102 1014 L1071 1200 L1042 1237 Q984 1264 926.5 1277 Q869 1290 809 1290 Q572 1290 435.5 1133 Q299 976 299 702 Q299 415 440.5 249.5 Q582 84 825 84 Q872 84 924.5 90.5 Q977 97 1034 111 L1034 537 L999 565 L854 575 L854 659 Z M436 1890 L549 1890 L727 1602 L907 1890 L1018 1890 L793 1501 L661 1501 L436 1890 Z " />
<glyph glyph-name="gcaron" unicode="&#x1e7;" horiz-adv-x="1071" d="M422 61 Q339 36 292.5 -17 Q246 -70 246 -139 Q246 -231 324 -291.5 Q402 -352 524 -352 Q655 -352 742 -289 Q829 -226 829 -135 Q829 -66 791 -33 Q753 0 621 25 L422 61 Z M504 926 Q412 926 357.5 857.5 Q303 789 303 674 Q303 560 358.5 491 Q414 422 504 422 Q594 422 649.5 491 Q705 560 705 674 Q705 788 650 857 Q595 926 504 926 Z M756 948 L1049 948 L1049 852 L823 852 Q853 807 867 761 Q881 715 881 662 Q881 521 772 431.5 Q663 342 489 342 L455 342 Q443 319 437.5 296 Q432 273 432 250 Q432 243 434 220 Q436 207 436 201 L633 170 Q825 141 903 83.5 Q981 26 981 -82 Q981 -141 948.5 -202.5 Q916 -264 858 -311 Q777 -377 673 -411.5 Q569 -446 453 -446 Q278 -446 180 -376 Q82 -306 82 -182 Q82 -83 141 -15 Q200 53 303 72 Q293 96 288 119 Q283 142 283 164 Q283 203 307 251 Q331 299 381 358 Q264 384 195.5 467.5 Q127 551 127 668 Q127 819 236.5 912.5 Q346 1006 524 1006 Q583 1006 640.5 991.5 Q698 977 756 948 Z M274 1498 L387 1498 L565 1210 L745 1498 L856 1498 L631 1109 L499 1109 L274 1498 Z " />
<glyph glyph-name="Kcaron" unicode="&#x1e8;" horiz-adv-x="1251" d="M68 0 L68 84 L184 94 L219 123 L219 1251 L184 1280 L68 1292 L68 1374 L565 1374 L565 1292 L438 1280 L403 1251 L403 696 L481 696 L936 1251 L924 1280 L809 1292 L809 1374 L1235 1374 L1235 1292 L1100 1274 L670 762 L1135 94 L1284 84 L1284 0 L946 0 L946 61 L555 612 L403 612 L403 123 L438 94 L565 84 L565 0 L68 0 Z M385 1865 L498 1865 L676 1577 L856 1865 L967 1865 L742 1476 L610 1476 L385 1865 Z " />
<glyph glyph-name="kcaron" unicode="&#x1e9;" horiz-adv-x="1059" d="M51 0 L51 74 L162 84 L197 117 L197 1370 L39 1370 L39 1434 L289 1507 L367 1507 L367 522 L406 522 L719 872 L705 901 L612 909 L612 985 L1001 985 L1001 909 L870 893 L590 596 L950 88 L1081 78 L1081 0 L762 0 L762 68 L485 465 L367 465 L367 117 L403 84 L500 74 L500 0 L51 0 Z M269 1998 L382 1998 L560 1710 L740 1998 L851 1998 L626 1609 L494 1609 L269 1998 Z " />
<glyph glyph-name="Oogonek" unicode="&#x1ea;" horiz-adv-x="1497" d="M750 1298 Q544 1298 422.5 1133.5 Q301 969 301 688 Q301 408 423.5 242 Q546 76 750 76 Q952 76 1074 242.5 Q1196 409 1196 688 Q1196 967 1074 1132.5 Q952 1298 750 1298 Z M750 1409 Q881 1409 994 1364 Q1107 1319 1200 1229 Q1304 1128 1357.5 991 Q1411 854 1411 688 Q1411 574 1385 473 Q1359 372 1307 283 Q1220 134 1073 50.5 Q926 -33 750 -33 Q619 -33 503.5 12 Q388 57 299 143 Q195 244 141.5 382 Q88 520 88 688 Q88 855 141 992 Q194 1129 297 1229 Q389 1318 503.5 1363.5 Q618 1409 750 1409 Z M737 -32 L827 -32 Q774 -77 745.5 -134 Q717 -191 717 -249 Q717 -306 746.5 -336 Q776 -366 833 -366 Q847 -366 892 -359 Q898 -358 901 -358 L901 -460 Q877 -467 850.5 -470.5 Q824 -474 796 -474 Q699 -474 648.5 -430 Q598 -386 598 -300 Q598 -226 635 -154 Q672 -82 737 -32 Z " />
<glyph glyph-name="oogonek" unicode="&#x1eb;" horiz-adv-x="1104" d="M551 918 Q423 918 345.5 802.5 Q268 687 268 494 Q268 301 346 185.5 Q424 70 551 70 Q680 70 758 185 Q836 300 836 494 Q836 686 757.5 802 Q679 918 551 918 Z M551 1006 Q760 1006 894 862.5 Q1028 719 1028 494 Q1028 269 893.5 125.5 Q759 -18 551 -18 Q343 -18 209.5 125 Q76 268 76 494 Q76 720 208.5 863 Q341 1006 551 1006 Z M540 -17 L630 -17 Q577 -62 548.5 -119 Q520 -176 520 -234 Q520 -291 549.5 -321 Q579 -351 636 -351 Q650 -351 695 -344 Q701 -343 704 -343 L704 -445 Q680 -452 653.5 -455.5 Q627 -459 599 -459 Q502 -459 451.5 -415 Q401 -371 401 -285 Q401 -211 438 -139 Q475 -67 540 -17 Z " />
<glyph glyph-name="Oogonekmacron" unicode="&#x1ec;" horiz-adv-x="1497" d="M750 1298 Q544 1298 422.5 1133.5 Q301 969 301 688 Q301 408 423.5 242 Q546 76 750 76 Q952 76 1074 242.5 Q1196 409 1196 688 Q1196 967 1074 1132.5 Q952 1298 750 1298 Z M750 1409 Q881 1409 994 1364 Q1107 1319 1200 1229 Q1304 1128 1357.5 991 Q1411 854 1411 688 Q1411 574 1385 473 Q1359 372 1307 283 Q1220 134 1073 50.5 Q926 -33 750 -33 Q619 -33 503.5 12 Q388 57 299 143 Q195 244 141.5 382 Q88 520 88 688 Q88 855 141 992 Q194 1129 297 1229 Q389 1318 503.5 1363.5 Q618 1409 750 1409 Z M737 -32 L827 -32 Q774 -77 745.5 -134 Q717 -191 717 -249 Q717 -306 746.5 -336 Q776 -366 833 -366 Q847 -366 892 -359 Q898 -358 901 -358 L901 -460 Q877 -467 850.5 -470.5 Q824 -474 796 -474 Q699 -474 648.5 -430 Q598 -386 598 -300 Q598 -226 635 -154 Q672 -82 737 -32 Z M441 1634 L1057 1634 L1057 1511 L441 1511 L441 1634 Z " />
<glyph glyph-name="oogonekmacron" unicode="&#x1ed;" horiz-adv-x="1104" d="M551 918 Q423 918 345.5 802.5 Q268 687 268 494 Q268 301 346 185.5 Q424 70 551 70 Q680 70 758 185 Q836 300 836 494 Q836 686 757.5 802 Q679 918 551 918 Z M551 1006 Q760 1006 894 862.5 Q1028 719 1028 494 Q1028 269 893.5 125.5 Q759 -18 551 -18 Q343 -18 209.5 125 Q76 268 76 494 Q76 720 208.5 863 Q341 1006 551 1006 Z M540 -17 L630 -17 Q577 -62 548.5 -119 Q520 -176 520 -234 Q520 -291 549.5 -321 Q579 -351 636 -351 Q650 -351 695 -344 Q701 -343 704 -343 L704 -445 Q680 -452 653.5 -455.5 Q627 -459 599 -459 Q502 -459 451.5 -415 Q401 -371 401 -285 Q401 -211 438 -139 Q475 -67 540 -17 Z M244 1232 L860 1232 L860 1109 L244 1109 L244 1232 Z " />
<glyph glyph-name="DZ" unicode="&#x1f1;" horiz-adv-x="2619" d="M403 1280 L403 94 L565 94 Q845 94 983.5 241.5 Q1122 389 1122 688 Q1122 987 984.5 1133.5 Q847 1280 565 1280 L403 1280 Z M573 1374 Q933 1374 1131 1194.5 Q1329 1015 1329 688 Q1329 506 1264.5 364.5 Q1200 223 1073 127 Q983 59 870 29.5 Q757 0 573 0 L68 0 L68 84 L184 94 L219 123 L219 1251 L184 1280 L68 1292 L68 1374 L573 1374 Z M1556 1374 L2513 1374 L2513 1288 L1734 100 L2353 100 L2375 127 L2412 371 L2523 371 L2523 0 L1511 0 L1511 84 L2287 1276 L1741 1276 L1702 1249 L1669 1057 L1556 1057 L1556 1374 Z " />
<glyph glyph-name="Dz" unicode="&#x1f2;" horiz-adv-x="2377" d="M403 1280 L403 94 L565 94 Q845 94 983.5 241.5 Q1122 389 1122 688 Q1122 987 984.5 1133.5 Q847 1280 565 1280 L403 1280 Z M573 1374 Q933 1374 1131 1194.5 Q1329 1015 1329 688 Q1329 506 1264.5 364.5 Q1200 223 1073 127 Q983 59 870 29.5 Q757 0 573 0 L68 0 L68 84 L184 94 L219 123 L219 1251 L184 1280 L68 1292 L68 1374 L573 1374 Z M1511 0 L1511 102 L2058 891 L1679 891 L1650 858 L1628 700 L1532 700 L1532 985 L2271 985 L2271 907 L1704 94 L2144 94 L2175 127 L2197 301 L2302 301 L2302 0 L1511 0 Z " />
<glyph glyph-name="dz" unicode="&#x1f3;" horiz-adv-x="2115" d="M784 182 L784 885 Q728 901 683.5 909.5 Q639 918 604 918 Q447 918 350.5 802 Q254 686 254 496 Q254 319 337.5 215 Q421 111 561 111 Q615 111 670.5 128.5 Q726 146 784 182 Z M784 1370 L627 1370 L627 1434 L877 1507 L954 1507 L954 117 L989 84 L1087 74 L1087 0 L784 0 L784 106 Q704 42 628 12 Q552 -18 469 -18 Q297 -18 185.5 116.5 Q74 251 74 461 Q74 705 220.5 856.5 Q367 1008 602 1008 Q643 1008 689 1002 Q735 996 784 985 L784 1370 Z M1249 0 L1249 102 L1796 891 L1417 891 L1388 858 L1366 700 L1270 700 L1270 985 L2009 985 L2009 907 L1442 94 L1882 94 L1913 127 L1935 301 L2040 301 L2040 0 L1249 0 Z " />
<glyph glyph-name="Gacute" unicode="&#x1f4;" horiz-adv-x="1421" d="M854 659 L1366 659 L1366 575 L1253 565 L1219 537 L1219 47 Q1095 11 989.5 -7 Q884 -25 795 -25 Q693 -25 603.5 -4 Q514 17 442 57 Q277 151 182.5 319 Q88 487 88 688 Q88 1014 287 1206.5 Q486 1399 823 1399 Q916 1399 1015 1384 Q1114 1369 1217 1339 L1217 1014 L1102 1014 L1071 1200 L1042 1237 Q984 1264 926.5 1277 Q869 1290 809 1290 Q572 1290 435.5 1133 Q299 976 299 702 Q299 415 440.5 249.5 Q582 84 825 84 Q872 84 924.5 90.5 Q977 97 1034 111 L1034 537 L999 565 L854 575 L854 659 Z M725 1890 L928 1890 L629 1501 L526 1501 L725 1890 Z " />
<glyph glyph-name="gacute" unicode="&#x1f5;" horiz-adv-x="1071" d="M422 61 Q339 36 292.5 -17 Q246 -70 246 -139 Q246 -231 324 -291.5 Q402 -352 524 -352 Q655 -352 742 -289 Q829 -226 829 -135 Q829 -66 791 -33 Q753 0 621 25 L422 61 Z M504 926 Q412 926 357.5 857.5 Q303 789 303 674 Q303 560 358.5 491 Q414 422 504 422 Q594 422 649.5 491 Q705 560 705 674 Q705 788 650 857 Q595 926 504 926 Z M756 948 L1049 948 L1049 852 L823 852 Q853 807 867 761 Q881 715 881 662 Q881 521 772 431.5 Q663 342 489 342 L455 342 Q443 319 437.5 296 Q432 273 432 250 Q432 243 434 220 Q436 207 436 201 L633 170 Q825 141 903 83.5 Q981 26 981 -82 Q981 -141 948.5 -202.5 Q916 -264 858 -311 Q777 -377 673 -411.5 Q569 -446 453 -446 Q278 -446 180 -376 Q82 -306 82 -182 Q82 -83 141 -15 Q200 53 303 72 Q293 96 288 119 Q283 142 283 164 Q283 203 307 251 Q331 299 381 358 Q264 384 195.5 467.5 Q127 551 127 668 Q127 819 236.5 912.5 Q346 1006 524 1006 Q583 1006 640.5 991.5 Q698 977 756 948 Z M564 1498 L767 1498 L468 1109 L365 1109 L564 1498 Z " />
<glyph glyph-name="Ngrave" unicode="&#x1f8;" horiz-adv-x="1460" d="M59 0 L59 84 L184 100 L221 139 L221 1251 L184 1280 L53 1292 L53 1374 L438 1374 L438 1323 L1137 274 L1137 1237 L1100 1274 L977 1292 L977 1374 L1407 1374 L1407 1292 L1284 1274 L1247 1237 L1247 0 L1112 0 L332 1163 L332 139 L369 100 L492 84 L492 0 L59 0 Z M530 1865 L733 1865 L931 1476 L829 1476 L530 1865 Z " />
<glyph glyph-name="ngrave" unicode="&#x1f9;" horiz-adv-x="1163" d="M61 0 L61 74 L172 84 L207 117 L207 858 L61 858 L61 922 L299 995 L377 995 L377 883 Q500 951 575 978.5 Q650 1006 707 1006 Q841 1006 912 926 Q983 846 983 694 L983 117 L1018 84 L1128 74 L1128 0 L680 0 L680 74 L778 84 L813 117 L813 659 Q813 774 765.5 822 Q718 870 606 870 Q557 870 500 853.5 Q443 837 377 803 L377 117 L412 84 L510 74 L510 0 L61 0 Z M394 1498 L597 1498 L795 1109 L693 1109 L394 1498 Z " />
<glyph glyph-name="Aringacute" unicode="&#x1fa;" horiz-adv-x="1309" d="M614 1176 L412 608 L825 608 L614 1176 Z M582 1391 L717 1391 L1208 109 L1331 84 L1331 0 L866 0 L866 84 L993 94 L1008 123 L860 514 L377 514 L231 123 L252 94 L385 84 L385 0 L-16 0 L-16 84 L102 109 L582 1391 Z M656 1882 Q594 1882 551.5 1839 Q509 1796 509 1733 Q509 1671 552 1628 Q595 1585 656 1585 Q719 1585 762.5 1628 Q806 1671 806 1733 Q806 1796 762.5 1839 Q719 1882 656 1882 Z M656 1974 Q758 1974 828 1905 Q898 1836 898 1735 Q898 1633 827.5 1563 Q757 1493 656 1493 Q555 1493 485.5 1563 Q416 1633 416 1735 Q416 1836 485.5 1905 Q555 1974 656 1974 Z M655 2465 L858 2465 L559 2076 L456 2076 L655 2465 Z " />
<glyph glyph-name="aringacute" unicode="&#x1fb;" horiz-adv-x="1038" d="M684 188 L684 549 Q427 478 346.5 419 Q266 360 266 264 Q266 187 310.5 141.5 Q355 96 430 96 Q478 96 540.5 119 Q603 142 684 188 Z M684 119 Q585 51 502.5 18.5 Q420 -14 348 -14 Q229 -14 157.5 58 Q86 130 86 248 Q86 379 193.5 454 Q301 529 684 621 L684 686 Q684 815 642 865 Q600 915 496 915 Q457 915 419 907 Q381 899 340 883 L340 711 L199 711 Q162 711 148.5 724.5 Q135 738 135 774 Q135 874 250.5 940 Q366 1006 549 1006 Q710 1006 783 936 Q856 866 856 711 L856 117 L891 84 L999 74 L999 0 L711 0 L684 119 Z M541 1498 Q479 1498 436.5 1455 Q394 1412 394 1349 Q394 1287 437 1244 Q480 1201 541 1201 Q604 1201 647.5 1244 Q691 1287 691 1349 Q691 1412 647.5 1455 Q604 1498 541 1498 Z M541 1590 Q643 1590 713 1521 Q783 1452 783 1351 Q783 1249 712.5 1179 Q642 1109 541 1109 Q440 1109 370.5 1179 Q301 1249 301 1351 Q301 1452 370.5 1521 Q440 1590 541 1590 Z M541 2080 L744 2080 L445 1691 L342 1691 L541 2080 Z " />
<glyph glyph-name="AEacute" unicode="&#x1fc;" horiz-adv-x="1774" d="M872 1284 L449 610 L872 610 L872 1284 Z M580 1374 L1640 1374 L1640 1075 L1528 1075 L1499 1249 L1470 1280 L1049 1280 L1049 762 L1331 762 L1362 791 L1382 940 L1477 940 L1477 489 L1382 489 L1362 637 L1331 668 L1049 668 L1049 94 L1544 94 L1575 127 L1608 334 L1714 334 L1714 0 L721 0 L721 84 L838 94 L872 123 L872 514 L395 514 L150 123 L160 94 L291 84 L291 0 L-115 0 L-115 84 L2 102 L717 1251 L698 1280 L580 1292 L580 1374 Z M797 1865 L1000 1865 L701 1476 L598 1476 L797 1865 Z " />
<glyph glyph-name="aeacute" unicode="&#x1fd;" horiz-adv-x="1485" d="M824 608 L1212 608 Q1212 617 1213 632.5 Q1214 648 1214 655 Q1214 783 1167.5 849 Q1121 915 1030 915 Q933 915 879.5 836 Q826 757 824 608 Z M664 188 L664 549 Q415 478 337.5 419 Q260 360 260 264 Q260 188 303.5 142 Q347 96 420 96 Q466 96 525.5 118.5 Q585 141 664 188 Z M340 711 L197 711 Q162 711 148.5 724.5 Q135 738 135 774 Q135 875 245.5 940.5 Q356 1006 532 1006 Q634 1006 695 976.5 Q756 947 791 883 Q846 945 913 975.5 Q980 1006 1061 1006 Q1221 1006 1309 900 Q1397 794 1397 600 Q1397 571 1396.5 556.5 Q1396 542 1395 529 L823 528 L823 244 Q889 176 965 143.5 Q1041 111 1130 111 Q1208 111 1270.5 136 Q1333 161 1397 217 L1397 104 Q1318 43 1235.5 12.5 Q1153 -18 1065 -18 Q962 -18 868.5 20.5 Q775 59 702 131 Q602 56 514 21 Q426 -14 340 -14 Q226 -14 157 56 Q88 126 88 240 Q88 376 187.5 451 Q287 526 664 621 L664 686 Q664 815 623 865 Q582 915 481 915 Q444 915 409.5 907 Q375 899 340 883 L340 711 Z M740 1498 L943 1498 L644 1109 L541 1109 L740 1498 Z " />
<glyph glyph-name="Oslashacute" unicode="&#x1fe;" horiz-adv-x="1497" d="M1069 1151 L481 172 Q541 125 607.5 101.5 Q674 78 750 78 Q958 78 1082 243 Q1206 408 1206 688 Q1206 829 1172.5 943 Q1139 1057 1069 1151 Z M995 1219 Q941 1260 881 1279 Q821 1298 750 1298 Q541 1298 417 1133 Q293 968 293 688 Q293 553 322.5 445 Q352 337 412 250 L995 1219 Z M1184 1532 L1268 1483 L1143 1278 Q1278 1170 1344.5 1023.5 Q1411 877 1411 688 Q1411 523 1356.5 383.5 Q1302 244 1198 143 Q1109 57 994.5 12 Q880 -33 750 -33 Q662 -33 577 -10.5 Q492 12 410 57 L283 -158 L203 -102 L332 115 Q210 219 149 363 Q88 507 88 688 Q88 854 141.5 992 Q195 1130 299 1231 Q387 1318 502.5 1363.5 Q618 1409 750 1409 Q828 1409 906 1391 Q984 1373 1065 1335 L1184 1532 Z M747 2023 L950 2023 L651 1634 L548 1634 L747 2023 Z " />
<glyph glyph-name="oslashacute" unicode="&#x1ff;" horiz-adv-x="1104" d="M760 803 L381 141 Q416 105 457.5 87.5 Q499 70 551 70 Q683 70 762.5 185 Q842 300 842 494 Q842 586 821.5 662 Q801 738 760 803 Z M705 864 Q671 890 633 902.5 Q595 915 551 915 Q421 915 342.5 801 Q264 687 264 494 Q264 416 279.5 346 Q295 276 326 213 L705 864 Z M866 1147 L936 1108 L829 918 Q931 841 979.5 737.5 Q1028 634 1028 494 Q1028 269 893.5 125.5 Q759 -18 551 -18 Q487 -18 430 -4 Q373 10 319 39 L201 -164 L135 -123 L254 86 Q164 161 120 261.5 Q76 362 76 494 Q76 719 209 862.5 Q342 1006 551 1006 Q609 1006 661 994.5 Q713 983 760 961 L866 1147 Z M551 1638 L754 1638 L455 1249 L352 1249 L551 1638 Z " />
<glyph glyph-name="Adblgrave" unicode="&#x200;" horiz-adv-x="1309" d="M614 1176 L412 608 L825 608 L614 1176 Z M582 1391 L717 1391 L1208 109 L1331 84 L1331 0 L866 0 L866 84 L993 94 L1008 123 L860 514 L377 514 L231 123 L252 94 L385 84 L385 0 L-16 0 L-16 84 L102 109 L582 1391 Z M299 1845 L492 1845 L682 1493 L585 1493 L299 1845 Z M632 1852 L826 1852 L1015 1500 L918 1500 L632 1852 Z " />
<glyph glyph-name="adblgrave" unicode="&#x201;" horiz-adv-x="1038" d="M684 188 L684 549 Q427 478 346.5 419 Q266 360 266 264 Q266 187 310.5 141.5 Q355 96 430 96 Q478 96 540.5 119 Q603 142 684 188 Z M684 119 Q585 51 502.5 18.5 Q420 -14 348 -14 Q229 -14 157.5 58 Q86 130 86 248 Q86 379 193.5 454 Q301 529 684 621 L684 686 Q684 815 642 865 Q600 915 496 915 Q457 915 419 907 Q381 899 340 883 L340 711 L199 711 Q162 711 148.5 724.5 Q135 738 135 774 Q135 874 250.5 940 Q366 1006 549 1006 Q710 1006 783 936 Q856 866 856 711 L856 117 L891 84 L999 74 L999 0 L711 0 L684 119 Z M184 1461 L377 1461 L567 1109 L470 1109 L184 1461 Z M517 1468 L711 1468 L900 1116 L803 1116 L517 1468 Z " />
<glyph glyph-name="Ainvertedbreve" unicode="&#x202;" horiz-adv-x="1309" d="M614 1176 L412 608 L825 608 L614 1176 Z M582 1391 L717 1391 L1208 109 L1331 84 L1331 0 L866 0 L866 84 L993 94 L1008 123 L860 514 L377 514 L231 123 L252 94 L385 84 L385 0 L-16 0 L-16 84 L102 109 L582 1391 Z M367 1784 L447 1784 L447 1768 Q447 1688 494 1655 Q541 1622 658 1622 Q773 1622 819 1655 Q865 1688 865 1768 L865 1784 L947 1784 L947 1762 Q947 1617 881 1555 Q815 1493 658 1493 Q499 1493 433 1554 Q367 1615 367 1762 L367 1784 Z " />
<glyph glyph-name="ainvertedbreve" unicode="&#x203;" horiz-adv-x="1038" d="M684 188 L684 549 Q427 478 346.5 419 Q266 360 266 264 Q266 187 310.5 141.5 Q355 96 430 96 Q478 96 540.5 119 Q603 142 684 188 Z M684 119 Q585 51 502.5 18.5 Q420 -14 348 -14 Q229 -14 157.5 58 Q86 130 86 248 Q86 379 193.5 454 Q301 529 684 621 L684 686 Q684 815 642 865 Q600 915 496 915 Q457 915 419 907 Q381 899 340 883 L340 711 L199 711 Q162 711 148.5 724.5 Q135 738 135 774 Q135 874 250.5 940 Q366 1006 549 1006 Q710 1006 783 936 Q856 866 856 711 L856 117 L891 84 L999 74 L999 0 L711 0 L684 119 Z M252 1400 L332 1400 L332 1384 Q332 1304 379 1271 Q426 1238 543 1238 Q658 1238 704 1271 Q750 1304 750 1384 L750 1400 L832 1400 L832 1378 Q832 1233 766 1171 Q700 1109 543 1109 Q384 1109 318 1170 Q252 1231 252 1378 L252 1400 Z " />
<glyph glyph-name="Edblgrave" unicode="&#x204;" horiz-adv-x="1180" d="M68 0 L68 84 L184 94 L219 123 L219 1251 L184 1280 L68 1292 L68 1374 L1049 1374 L1049 1075 L934 1075 L905 1249 L877 1280 L403 1280 L403 762 L739 762 L768 791 L788 940 L885 940 L885 489 L788 489 L768 637 L739 668 L403 668 L403 94 L952 94 L981 127 L1016 334 L1122 334 L1122 0 L68 0 Z M237 1828 L430 1828 L620 1476 L523 1476 L237 1828 Z M570 1835 L764 1835 L953 1483 L856 1483 L570 1835 Z " />
<glyph glyph-name="edblgrave" unicode="&#x205;" horiz-adv-x="1006" d="M735 625 L735 657 Q735 781 680.5 847 Q626 913 522 913 Q420 913 345.5 831.5 Q271 750 262 625 L735 625 Z M918 217 L918 104 Q827 44 729 13 Q631 -18 532 -18 Q329 -18 202.5 121.5 Q76 261 76 485 Q76 715 208.5 860.5 Q341 1006 549 1006 Q719 1006 818.5 897.5 Q918 789 918 602 Q918 577 917.5 564 Q917 551 915 539 L252 539 L252 516 Q252 323 345 210.5 Q438 98 596 98 Q669 98 747.5 127 Q826 156 918 217 Z M139 1461 L332 1461 L522 1109 L425 1109 L139 1461 Z M472 1468 L666 1468 L855 1116 L758 1116 L472 1468 Z " />
<glyph glyph-name="Einvertedbreve" unicode="&#x206;" horiz-adv-x="1180" d="M68 0 L68 84 L184 94 L219 123 L219 1251 L184 1280 L68 1292 L68 1374 L1049 1374 L1049 1075 L934 1075 L905 1249 L877 1280 L403 1280 L403 762 L739 762 L768 791 L788 940 L885 940 L885 489 L788 489 L768 637 L739 668 L403 668 L403 94 L952 94 L981 127 L1016 334 L1122 334 L1122 0 L68 0 Z M305 1767 L385 1767 L385 1751 Q385 1671 432 1638 Q479 1605 596 1605 Q711 1605 757 1638 Q803 1671 803 1751 L803 1767 L885 1767 L885 1745 Q885 1600 819 1538 Q753 1476 596 1476 Q437 1476 371 1537 Q305 1598 305 1745 L305 1767 Z " />
<glyph glyph-name="einvertedbreve" unicode="&#x207;" horiz-adv-x="1006" d="M735 625 L735 657 Q735 781 680.5 847 Q626 913 522 913 Q420 913 345.5 831.5 Q271 750 262 625 L735 625 Z M918 217 L918 104 Q827 44 729 13 Q631 -18 532 -18 Q329 -18 202.5 121.5 Q76 261 76 485 Q76 715 208.5 860.5 Q341 1006 549 1006 Q719 1006 818.5 897.5 Q918 789 918 602 Q918 577 917.5 564 Q917 551 915 539 L252 539 L252 516 Q252 323 345 210.5 Q438 98 596 98 Q669 98 747.5 127 Q826 156 918 217 Z M207 1400 L287 1400 L287 1384 Q287 1304 334 1271 Q381 1238 498 1238 Q613 1238 659 1271 Q705 1304 705 1384 L705 1400 L787 1400 L787 1378 Q787 1233 721 1171 Q655 1109 498 1109 Q339 1109 273 1170 Q207 1231 207 1378 L207 1400 Z " />
<glyph glyph-name="Idblgrave" unicode="&#x208;" horiz-adv-x="664" d="M72 0 L72 84 L203 94 L238 123 L238 1251 L203 1280 L72 1292 L72 1374 L592 1374 L592 1292 L461 1280 L426 1251 L426 123 L461 94 L592 84 L592 0 L72 0 Z M-26 1828 L167 1828 L357 1476 L260 1476 L-26 1828 Z M307 1835 L501 1835 L690 1483 L593 1483 L307 1835 Z " />
<glyph glyph-name="idblgrave" unicode="&#x209;" horiz-adv-x="573" d="M307 995 L387 995 L387 117 L422 84 L532 74 L532 0 L72 0 L72 74 L180 84 L215 117 L215 858 L72 858 L72 922 L307 995 Z M-56 1450 L137 1450 L327 1098 L230 1098 L-56 1450 Z M277 1457 L471 1457 L660 1105 L563 1105 L277 1457 Z " />
<glyph glyph-name="Iinvertedbreve" unicode="&#x20a;" horiz-adv-x="664" d="M72 0 L72 84 L203 94 L238 123 L238 1251 L203 1280 L72 1292 L72 1374 L592 1374 L592 1292 L461 1280 L426 1251 L426 123 L461 94 L592 84 L592 0 L72 0 Z M42 1767 L122 1767 L122 1751 Q122 1671 169 1638 Q216 1605 333 1605 Q448 1605 494 1638 Q540 1671 540 1751 L540 1767 L622 1767 L622 1745 Q622 1600 556 1538 Q490 1476 333 1476 Q174 1476 108 1537 Q42 1598 42 1745 L42 1767 Z " />
<glyph glyph-name="iinvertedbreve" unicode="&#x20b;" horiz-adv-x="573" d="M307 995 L387 995 L387 117 L422 84 L532 74 L532 0 L72 0 L72 74 L180 84 L215 117 L215 858 L72 858 L72 922 L307 995 Z M12 1389 L92 1389 L92 1373 Q92 1293 139 1260 Q186 1227 303 1227 Q418 1227 464 1260 Q510 1293 510 1373 L510 1389 L592 1389 L592 1367 Q592 1222 526 1160 Q460 1098 303 1098 Q144 1098 78 1159 Q12 1220 12 1367 L12 1389 Z " />
<glyph glyph-name="Odblgrave" unicode="&#x20c;" horiz-adv-x="1497" d="M750 1298 Q544 1298 422.5 1133.5 Q301 969 301 688 Q301 408 423.5 242 Q546 76 750 76 Q952 76 1074 242.5 Q1196 409 1196 688 Q1196 967 1074 1132.5 Q952 1298 750 1298 Z M750 1409 Q881 1409 994 1364 Q1107 1319 1200 1229 Q1304 1128 1357.5 991 Q1411 854 1411 688 Q1411 574 1385 473 Q1359 372 1307 283 Q1220 134 1073 50.5 Q926 -33 750 -33 Q619 -33 503.5 12 Q388 57 299 143 Q195 244 141.5 382 Q88 520 88 688 Q88 855 141 992 Q194 1129 297 1229 Q389 1318 503.5 1363.5 Q618 1409 750 1409 Z M391 1863 L584 1863 L774 1511 L677 1511 L391 1863 Z M724 1870 L918 1870 L1107 1518 L1010 1518 L724 1870 Z " />
<glyph glyph-name="odblgrave" unicode="&#x20d;" horiz-adv-x="1104" d="M551 918 Q423 918 345.5 802.5 Q268 687 268 494 Q268 301 346 185.5 Q424 70 551 70 Q680 70 758 185 Q836 300 836 494 Q836 686 757.5 802 Q679 918 551 918 Z M551 1006 Q760 1006 894 862.5 Q1028 719 1028 494 Q1028 269 893.5 125.5 Q759 -18 551 -18 Q343 -18 209.5 125 Q76 268 76 494 Q76 720 208.5 863 Q341 1006 551 1006 Z M194 1461 L387 1461 L577 1109 L480 1109 L194 1461 Z M527 1468 L721 1468 L910 1116 L813 1116 L527 1468 Z " />
<glyph glyph-name="Oinvertedbreve" unicode="&#x20e;" horiz-adv-x="1497" d="M750 1298 Q544 1298 422.5 1133.5 Q301 969 301 688 Q301 408 423.5 242 Q546 76 750 76 Q952 76 1074 242.5 Q1196 409 1196 688 Q1196 967 1074 1132.5 Q952 1298 750 1298 Z M750 1409 Q881 1409 994 1364 Q1107 1319 1200 1229 Q1304 1128 1357.5 991 Q1411 854 1411 688 Q1411 574 1385 473 Q1359 372 1307 283 Q1220 134 1073 50.5 Q926 -33 750 -33 Q619 -33 503.5 12 Q388 57 299 143 Q195 244 141.5 382 Q88 520 88 688 Q88 855 141 992 Q194 1129 297 1229 Q389 1318 503.5 1363.5 Q618 1409 750 1409 Z M459 1802 L539 1802 L539 1786 Q539 1706 586 1673 Q633 1640 750 1640 Q865 1640 911 1673 Q957 1706 957 1786 L957 1802 L1039 1802 L1039 1780 Q1039 1635 973 1573 Q907 1511 750 1511 Q591 1511 525 1572 Q459 1633 459 1780 L459 1802 Z " />
<glyph glyph-name="oinvertedbreve" unicode="&#x20f;" horiz-adv-x="1104" d="M551 918 Q423 918 345.5 802.5 Q268 687 268 494 Q268 301 346 185.5 Q424 70 551 70 Q680 70 758 185 Q836 300 836 494 Q836 686 757.5 802 Q679 918 551 918 Z M551 1006 Q760 1006 894 862.5 Q1028 719 1028 494 Q1028 269 893.5 125.5 Q759 -18 551 -18 Q343 -18 209.5 125 Q76 268 76 494 Q76 720 208.5 863 Q341 1006 551 1006 Z M262 1400 L342 1400 L342 1384 Q342 1304 389 1271 Q436 1238 553 1238 Q668 1238 714 1271 Q760 1304 760 1384 L760 1400 L842 1400 L842 1378 Q842 1233 776 1171 Q710 1109 553 1109 Q394 1109 328 1170 Q262 1231 262 1378 L262 1400 Z " />
<glyph glyph-name="Rdblgrave" unicode="&#x210;" horiz-adv-x="1323" d="M403 1280 L403 709 Q434 708 462 707.5 Q490 707 516 707 Q706 707 792.5 774 Q879 841 879 989 Q879 1142 790 1211 Q701 1280 502 1280 L403 1280 Z M68 1374 L590 1374 Q841 1374 962 1283.5 Q1083 1193 1083 1006 Q1083 873 1000 787.5 Q917 702 752 666 Q829 645 881 611.5 Q933 578 963 528 Q997 473 1021 366.5 Q1045 260 1059 225 Q1090 141 1144 110.5 Q1198 80 1325 80 L1343 80 L1343 2 Q1297 -7 1258 -11.5 Q1219 -16 1184 -16 Q1113 -16 1062.5 -1.5 Q1012 13 977 43 Q904 107 856 293 Q838 360 827 393 Q786 518 716.5 566 Q647 614 506 614 Q476 614 410 611 L403 610 L403 123 L438 94 L555 84 L555 0 L68 0 L68 84 L184 94 L219 123 L219 1251 L184 1280 L68 1292 L68 1374 Z M347 1828 L540 1828 L730 1476 L633 1476 L347 1828 Z M680 1835 L874 1835 L1063 1483 L966 1483 L680 1835 Z " />
<glyph glyph-name="rdblgrave" unicode="&#x211;" horiz-adv-x="782" d="M61 0 L61 74 L170 84 L205 117 L205 858 L61 858 L61 922 L299 995 L377 995 L377 803 Q427 854 481.5 903.5 Q536 953 596 1001 Q605 1004 615.5 1005 Q626 1006 647 1006 Q678 1006 708 999.5 Q738 993 770 979 L770 803 L705 803 Q685 827 658.5 839.5 Q632 852 600 852 Q551 852 496.5 815.5 Q442 779 377 702 L377 117 L412 84 L555 74 L555 0 L61 0 Z M57 1461 L250 1461 L440 1109 L343 1109 L57 1461 Z M390 1468 L584 1468 L773 1116 L676 1116 L390 1468 Z " />
<glyph glyph-name="Rinvertedbreve" unicode="&#x212;" horiz-adv-x="1323" d="M403 1280 L403 709 Q434 708 462 707.5 Q490 707 516 707 Q706 707 792.5 774 Q879 841 879 989 Q879 1142 790 1211 Q701 1280 502 1280 L403 1280 Z M68 1374 L590 1374 Q841 1374 962 1283.5 Q1083 1193 1083 1006 Q1083 873 1000 787.5 Q917 702 752 666 Q829 645 881 611.5 Q933 578 963 528 Q997 473 1021 366.5 Q1045 260 1059 225 Q1090 141 1144 110.5 Q1198 80 1325 80 L1343 80 L1343 2 Q1297 -7 1258 -11.5 Q1219 -16 1184 -16 Q1113 -16 1062.5 -1.5 Q1012 13 977 43 Q904 107 856 293 Q838 360 827 393 Q786 518 716.5 566 Q647 614 506 614 Q476 614 410 611 L403 610 L403 123 L438 94 L555 84 L555 0 L68 0 L68 84 L184 94 L219 123 L219 1251 L184 1280 L68 1292 L68 1374 Z M415 1767 L495 1767 L495 1751 Q495 1671 542 1638 Q589 1605 706 1605 Q821 1605 867 1638 Q913 1671 913 1751 L913 1767 L995 1767 L995 1745 Q995 1600 929 1538 Q863 1476 706 1476 Q547 1476 481 1537 Q415 1598 415 1745 L415 1767 Z " />
<glyph glyph-name="rinvertedbreve" unicode="&#x213;" horiz-adv-x="782" d="M61 0 L61 74 L170 84 L205 117 L205 858 L61 858 L61 922 L299 995 L377 995 L377 803 Q427 854 481.5 903.5 Q536 953 596 1001 Q605 1004 615.5 1005 Q626 1006 647 1006 Q678 1006 708 999.5 Q738 993 770 979 L770 803 L705 803 Q685 827 658.5 839.5 Q632 852 600 852 Q551 852 496.5 815.5 Q442 779 377 702 L377 117 L412 84 L555 74 L555 0 L61 0 Z M125 1400 L205 1400 L205 1384 Q205 1304 252 1271 Q299 1238 416 1238 Q531 1238 577 1271 Q623 1304 623 1384 L623 1400 L705 1400 L705 1378 Q705 1233 639 1171 Q573 1109 416 1109 Q257 1109 191 1170 Q125 1231 125 1378 L125 1400 Z " />
</font>
</svg>
