<?xml version="1.0" encoding="UTF-8"?>
<svg xmlns="http://www.w3.org/2000/svg" xmlns:xlink="http://www.w3.org/1999/xlink" version="1.2" >
<font id="ITC Bodoni Seventytwo W10 It">
<font-face  font-family="ITCBodoniSeventytwoW10-It" units-per-em="1000" ascent="712" descent="-263" font-style="normal" font-weight="400" font-stretch="normal" cap-height="697" x-height="435" underline-position="-150" underline-thickness="50" />
<missing-glyph  horiz-adv-x="233" d="" />
<glyph glyph-name="space" unicode="&#x20;" horiz-adv-x="233" d="" />
<glyph glyph-name="exclam" unicode="&#x21;" horiz-adv-x="263" d="M84 100 Q102 100 115 88.5 Q128 77 128 56 Q128 30 110.5 11 Q93 -8 67 -8 Q47 -8 33.5 4.5 Q20 17 20 37 Q20 63 39 81.5 Q58 100 84 100 Z M127 154 Q122 143 118.5 141 Q115 139 113 139 Q105 139 105 150 Q105 154 106.5 158 Q108 162 110 170 L229 605 Q238 638 244 658 Q250 678 262 689 Q271 697 280 699 Q289 701 297 701 Q327 701 337 688 Q347 675 347 661 Q347 650 343 635.5 Q339 621 334 611 L127 154 Z " />
<glyph glyph-name="quotedbl" unicode="&#x22;" horiz-adv-x="343" d="M358 475 Q356 470 351.5 459 Q347 448 341 448 Q336 448 336 456 Q336 459 336.5 463 Q337 467 339 476 L369 656 Q371 668 373.5 676.5 Q376 685 381 692 Q389 703 397.5 705.5 Q406 708 411 708 Q421 708 431 702.5 Q441 697 441 680 Q441 672 437.5 662 Q434 652 428 638 L358 475 Z M212 475 Q210 470 205.5 459 Q201 448 195 448 Q190 448 190 456 Q190 459 190.5 463 Q191 467 193 476 L223 656 Q225 668 227.5 676.5 Q230 685 235 692 Q243 703 251.5 705.5 Q260 708 265 708 Q275 708 285 702.5 Q295 697 295 680 Q295 672 291.5 662 Q288 652 282 638 L212 475 Z " />
<glyph glyph-name="numbersign" unicode="&#x23;" horiz-adv-x="519" d="M271 435 L220 298 L361 298 L411 435 L271 435 Z M299 41 Q294 28 292 23 Q290 18 282 19 L270 21 Q260 22 261.5 28 Q263 34 267 41 L334 234 L195 234 L121 33 Q119 28 117.5 24.5 Q116 21 115 19.5 Q114 18 110 18 L97 20 Q92 21 89 23 Q86 25 87.5 30 Q89 35 91 40 L163 234 L77 234 Q50 234 56 251 L69 281 Q76 298 96 298 L187 298 L239 435 L140 435 Q120 436 124 451 L135 478 Q140 496 158 496 L265 496 L328 666 Q330 670 332 675 Q334 680 339 680 L351 680 Q356 680 358.5 677.5 Q361 675 356 663 L294 496 L435 496 L493 665 Q494 669 496.5 676.5 Q499 684 503 684 L514 684 Q521 684 522.5 681 Q524 678 522.5 673 Q521 668 519 664 L465 496 L556 496 Q573 496 571 481 L569 457 Q567 436 541 436 L444 436 L393 298 L494 298 Q515 298 513 287 L501 247 Q497 234 478 234 L365 234 L299 41 Z " />
<glyph glyph-name="dollar" unicode="&#x24;" horiz-adv-x="517" d="M209 8 Q235 7 268.5 13.5 Q302 20 325.5 39.5 Q349 59 365 87 Q381 115 381 159 Q381 184 375 205.5 Q369 227 359.5 245 Q350 263 338 277.5 Q326 292 315 303 L209 8 Z M426 686 Q415 688 402 688 Q384 688 366.5 684.5 Q349 681 332 673 Q301 657 278.5 625 Q256 593 256 547 Q256 527 260.5 511 Q265 495 274 481 Q283 467 296.5 453.5 Q310 440 329 424 L426 686 Z M158 -126 Q156 -131 153.5 -137.5 Q151 -144 140 -144 Q132 -144 130 -140 Q128 -136 128 -132 Q128 -124 129 -122.5 Q130 -121 131 -119 L174 -5 Q147 2 134 7 Q121 12 102.5 23 Q84 34 69.5 50.5 Q55 67 46 90.5 Q37 114 37 146 Q37 188 55.5 207.5 Q74 227 99 227 Q113 227 128.5 217.5 Q144 208 144 182 Q144 155 129.5 145 Q115 135 103 133 Q95 131 88.5 127.5 Q82 124 80 112 Q80 94 87.5 77.5 Q95 61 108 48 Q121 35 139.5 26 Q158 17 179 14 L292 320 Q260 347 247 358.5 Q234 370 226 379 Q212 396 201 417.5 Q190 439 184.5 460.5 Q179 482 179 506 Q179 555 204 600 Q229 645 280 674 Q311 691 349.5 697.5 Q388 704 403 703 L430 701 L460 786 Q463 795 465 798 Q467 801 473 801 Q484 801 487.5 794.5 Q491 788 488 780 L457 696 Q490 689 507.5 674.5 Q525 660 529 655 Q543 638 552.5 611 Q562 584 562 561 Q562 533 547 519 Q532 505 513 505 Q494 505 482.5 517.5 Q471 530 471 550 Q471 566 480.5 575 Q490 584 502 590 Q513 595 516 599.5 Q519 604 518 612 Q518 624 510.5 638 Q503 652 487 664 Q472 675 451 681 L351 403 Q364 392 378 378 Q392 364 405 349 Q418 334 429 318.5 Q440 303 449 285 Q458 267 461.5 245 Q465 223 465 203 Q465 189 463 171.5 Q461 154 453.5 134.5 Q446 115 432.5 94.5 Q419 74 393 48 Q367 22 340 13 Q313 4 283.5 -2.5 Q254 -9 233 -9 L202 -7 L158 -126 Z " />
<glyph glyph-name="percent" unicode="&#x25;" horiz-adv-x="755" d="M613 344 Q585 344 565 322 Q545 300 525 250 Q508 209 497.5 162 Q487 115 487 76 Q487 55 492 34 Q497 13 510 4 Q515 0 521 -1.5 Q527 -3 533 -3 Q546 -3 561.5 6.5 Q577 16 594 41 Q609 63 620.5 92 Q632 121 639.5 152 Q647 183 651 214.5 Q655 246 655 274 Q655 293 650.5 314 Q646 335 627 342 Q623 344 613 344 Z M609 357 Q649 357 673 337 Q697 317 708 295 Q717 278 720.5 259.5 Q724 241 724 222 Q724 179 708.5 131 Q693 83 667 50 Q650 29 629.5 14.5 Q609 0 580 -9 Q570 -12 560 -14 Q550 -16 539 -16 Q504 -16 484 -3 Q464 10 456 20 Q421 59 421 124 Q421 178 443 230 Q456 259 473 282 Q502 321 539.5 339 Q577 357 609 357 Z M330 695 Q321 695 311 691.5 Q301 688 290.5 679 Q280 670 269 653.5 Q258 637 246 611 Q232 579 218.5 529 Q205 479 205 426 Q205 418 206 405 Q207 392 211 379.5 Q215 367 224 358 Q233 349 250 349 Q266 349 280 358.5 Q294 368 305 382.5 Q316 397 324.5 415 Q333 433 340 450 Q352 482 362 522.5 Q372 563 372 624 Q372 649 368 663 Q364 677 358 684 Q352 691 344.5 693 Q337 695 330 695 Z M703 675 Q679 667 659.5 663 Q640 659 624 656.5 Q608 654 594 653.5 Q580 653 565 653 Q548 653 534.5 653.5 Q521 654 508.5 655.5 Q496 657 483 659 Q470 661 455 665 Q425 672 395 683 Q409 670 419 654.5 Q429 639 434 617 Q440 593 440 567 Q440 500 412 445 Q384 390 339 361 Q320 349 299 342 Q278 335 255 335 Q207 335 172.5 372 Q138 409 138 479 Q138 522 151.5 558.5 Q165 595 185 624 Q195 638 205.5 649.5 Q216 661 229 672 Q258 696 295 705 Q304 707 313.5 708 Q323 709 332 709 Q345 709 352.5 707 Q360 705 370 703 Q386 699 409.5 693.5 Q433 688 460 683.5 Q487 679 514.5 675.5 Q542 672 567 672 Q595 672 638 677 Q681 682 723 698 Q748 707 753 707 Q766 707 766 697 Q766 695 763.5 691 Q761 687 751 675 Q739 661 731.5 652 Q724 643 718 637 Q712 631 707.5 627 Q703 623 699 618 L152 3 Q149 -1 145 -5.5 Q141 -10 136 -10 Q134 -10 128 -8 Q123 -6 116 -1 Q109 4 109 6 Q109 8 111 11 Q113 14 120 22 L703 675 Z " />
<glyph glyph-name="ampersand" unicode="&#x26;" horiz-adv-x="733" d="M290 380 L273 371 Q255 362 232 347.5 Q209 333 185 310 Q161 287 143 254.5 Q125 222 125 172 Q125 139 134 110 Q143 81 160 60 Q177 39 201.5 27 Q226 15 257 15 Q298 15 334 36 Q370 57 393 97 Q376 133 363 167 Q354 189 344.5 216 Q335 243 325 271 Q315 299 306 327 Q297 355 290 380 Z M369 426 Q394 438 412 447 Q430 456 444 464.5 Q458 473 469 482 Q480 491 489 503 Q508 526 515 548 Q522 570 522 595 Q522 641 501 665.5 Q480 690 443 690 Q395 690 369 653.5 Q343 617 343 560 Q343 539 348 503.5 Q353 468 369 426 Z M375 407 Q389 356 401 320 Q413 284 427 247 Q434 230 440 212 Q446 194 453 177 Q459 188 471.5 208 Q484 228 499.5 249.5 Q515 271 532 290.5 Q549 310 566 322 Q597 344 630 344 Q657 344 675 330.5 Q693 317 693 294 Q693 276 681.5 264.5 Q670 253 652 253 Q641 253 634.5 256.5 Q628 260 624.5 265 Q621 270 620 275.5 Q619 281 619 285 Q619 295 616 304 Q614 309 611 312 Q608 315 600 315 Q590 315 582 310 Q573 305 560.5 292.5 Q548 280 528 254 Q514 236 502 219 Q493 206 483 189 Q473 172 464 155 Q469 141 474.5 129 Q480 117 487 104 Q496 86 507 69 Q518 52 534 40 Q545 32 559 26.5 Q573 21 588 21 Q612 21 631.5 34.5 Q651 48 660 59 Q669 70 673 76 Q677 82 682 82 Q687 82 687 75 Q687 72 683 66 Q679 60 668.5 48 Q658 36 647.5 26 Q637 16 608.5 1.5 Q580 -13 542 -13 Q524 -13 503.5 -9 Q483 -5 466 6 Q449 17 432.5 37 Q416 57 405 77 Q372 33 325 9.5 Q278 -14 221 -14 Q180 -14 146.5 -2.5 Q113 9 89 30.5 Q65 52 52 83.5 Q39 115 39 154 Q39 190 51.5 220.5 Q64 251 94.5 281.5 Q125 312 168 336.5 Q211 361 237.5 372.5 Q264 384 286 394 Q273 442 267.5 471.5 Q262 501 262 524 Q262 567 277.5 600.5 Q293 634 319 657.5 Q345 681 378.5 693.5 Q412 706 448 706 Q472 706 500.5 698.5 Q529 691 550 676 Q578 656 586.5 631.5 Q595 607 595 588 Q595 568 583 540.5 Q571 513 534 487 Q509 470 475.5 454 Q442 438 392 415 L375 407 Z " />
<glyph glyph-name="quotesingle" unicode="&#x27;" horiz-adv-x="197" d="M212 475 Q210 470 205.5 459 Q201 448 195 448 Q190 448 190 456 Q190 459 190.5 463 Q191 467 193 476 L223 656 Q225 668 227.5 676.5 Q230 685 235 692 Q243 703 251.5 705.5 Q260 708 265 708 Q275 708 285 702.5 Q295 697 295 680 Q295 672 291.5 662 Q288 652 282 638 L212 475 Z " />
<glyph glyph-name="parenleft" unicode="&#x28;" horiz-adv-x="327" d="M465 720 Q470 720 471.5 717 Q473 714 473 712 Q473 707 465.5 701 Q458 695 447 687 Q424 668 397.5 645.5 Q371 623 342.5 592 Q314 561 284.5 520 Q255 479 225 424 Q207 391 193.5 358.5 Q180 326 171 290 Q162 254 157.5 213 Q153 172 153 123 Q153 78 160 19 Q167 -40 190 -107 Q198 -130 201.5 -138.5 Q205 -147 205 -152 Q205 -161 197 -161 Q192 -161 183 -147.5 Q174 -134 153 -91 Q133 -50 119.5 -14.5 Q106 21 98 53 Q90 85 86.5 114 Q83 143 83 172 Q83 223 91 266.5 Q99 310 111 345.5 Q123 381 137.5 409 Q152 437 164 456 Q190 496 222 531 Q254 566 286 594.5 Q318 623 348 645.5 Q378 668 401 684 Q404 686 412.5 692 Q421 698 431.5 704 Q442 710 451 715 Q460 720 465 720 Z " />
<glyph glyph-name="parenright" unicode="&#x29;" horiz-adv-x="341" d="M213 721 Q218 721 226.5 706 Q235 691 251 661 Q272 620 291 572 Q310 524 319 467 Q326 426 326 380 Q326 258 275 155 Q224 52 112 -43 Q100 -54 74.5 -73.5 Q49 -93 22.5 -112.5 Q-4 -132 -26.5 -146.5 Q-49 -161 -56 -161 Q-61 -161 -63 -157.5 Q-65 -154 -65 -151 Q-65 -150 -63.5 -148 Q-62 -146 -56 -141 Q-50 -136 -39 -127 Q-28 -118 -9 -103 Q36 -66 69.5 -31 Q103 4 127.5 38.5 Q152 73 170.5 108 Q189 143 204 179 Q213 201 221 223 Q229 245 236 268 Q247 308 252 347 Q257 386 257 429 Q257 474 251 526 Q245 578 231 630 Q225 651 220.5 665 Q216 679 212.5 688 Q209 697 207 702.5 Q205 708 205 712 Q205 717 208 719 Q211 721 213 721 Z " />
<glyph glyph-name="asterisk" unicode="&#x2a;" horiz-adv-x="381" d="M337 557 Q339 550 340.5 545.5 Q342 541 344.5 536 Q347 531 351.5 524.5 Q356 518 365 508 Q372 500 376.5 494.5 Q381 489 381 481 Q381 470 375.5 464.5 Q370 459 366 451 Q364 448 364 445 Q364 442 363 439 Q363 435 361 431 Q357 424 352 424 Q346 424 339 434 Q334 440 331.5 443 Q329 446 318 454 Q313 457 308 461.5 Q303 466 303 474 Q303 480 306 486.5 Q309 493 312 503 Q315 514 317 528 Q319 542 319 557 L319 570 L311 565 Q307 563 298.5 556.5 Q290 550 288 546 L263 509 Q261 506 259 503 Q257 500 254 498 Q250 495 245 492.5 Q240 490 235 490 Q228 490 222 494 Q220 496 217.5 497 Q215 498 210 498 Q205 498 197 496 Q194 495 189 495 Q184 495 182 499.5 Q180 504 180 506 Q180 511 186 517 Q196 529 197.5 537.5 Q199 546 201 552 Q202 557 206 562.5 Q210 568 227 568 Q233 568 239 567.5 Q245 567 251 567 Q264 567 273.5 569 Q283 571 297 574 L314 578 L300 588 Q295 592 290 595.5 Q285 599 276 603 Q269 606 262 608 Q255 610 247 612 Q229 617 221.5 619.5 Q214 622 213 636 Q212 645 213 649.5 Q214 654 212 660 Q211 665 208 670 Q205 675 205 680 Q205 682 207 686 Q209 690 215 690 Q217 690 219 689.5 Q221 689 227 687 Q232 685 238 683.5 Q244 682 254 682 L271 682 Q280 682 282 676.5 Q284 671 284 667 Q285 653 296 631 Q307 609 315 596 L322 585 L326 603 Q331 626 331 645 Q331 653 330.5 660 Q330 667 330 675 Q330 685 332.5 689 Q335 693 346 698 L361 704 Q367 706 369 708 Q371 710 373 712 Q379 718 385 718 Q390 718 393 713 Q395 709 394 701.5 Q393 694 397 680 Q399 674 401 669 Q403 664 403 659 Q403 650 397 644.5 Q391 639 386 637 Q371 628 364 623.5 Q357 619 349 607 L331 582 L341 582 Q355 582 366 584 Q377 586 392 591 Q409 596 416 600 Q423 604 431 604 Q437 604 440.5 601 Q444 598 446 594 Q453 584 457 580.5 Q461 577 466 574 Q471 572 476 569 Q481 566 481 561 Q481 556 477.5 554.5 Q474 553 472 552 Q467 550 458 547 Q449 544 438 534 Q434 531 430.5 528 Q427 525 422 525 Q411 525 401 535 Q391 545 379 553 Q372 557 364 560 Q356 563 347 566 L332 571 L337 557 Z " />
<glyph glyph-name="plus" unicode="&#x2b;" horiz-adv-x="524" d="M518 353 L518 317 L329 317 L329 132 L293 132 L293 317 L104 317 L104 353 L293 353 L293 538 L329 538 L329 353 L518 353 Z " />
<glyph glyph-name="comma" unicode="&#x2c;" horiz-adv-x="237" d="M88 2 Q88 15 81 15 Q76 15 75.5 11 Q75 7 72 4 Q68 0 62.5 -1 Q57 -2 52 -2 Q42 -2 38 0 Q30 2 23 10 Q18 15 14.5 22 Q11 29 11 40 Q11 59 25 74 Q39 89 68 89 Q81 89 91.5 85 Q102 81 111 70 Q121 58 123.5 44.5 Q126 31 126 20 Q126 -8 116 -29 Q106 -52 89 -67 Q72 -82 49 -94 Q24 -107 -6 -115.5 Q-36 -124 -58 -124 Q-66 -124 -67.5 -121.5 Q-69 -119 -69 -118 Q-69 -113 -61.5 -112 Q-54 -111 -47 -110 Q-28 -107 -8 -100.5 Q12 -94 29 -84 Q49 -73 61 -60.5 Q73 -48 79 -36 Q85 -24 86.5 -14 Q88 -4 88 2 Z " />
<glyph glyph-name="hyphen" unicode="&#x2d;" horiz-adv-x="263" d="M242 211 L40 211 L48 266 L252 266 L242 211 Z " />
<glyph glyph-name="period" unicode="&#x2e;" horiz-adv-x="223" d="M64 98 Q87 98 99 84.5 Q111 71 111 49 Q111 24 95.5 8.5 Q80 -7 54 -7 Q31 -7 18.5 5 Q6 17 6 39 Q6 65 22 81.5 Q38 98 64 98 Z " />
<glyph glyph-name="slash" unicode="&#x2f;" horiz-adv-x="573" d="M476 684 Q480 693 482 696 Q484 699 489 699 Q501 699 512 690 Q517 686 520 681 Q521 680 521 677 Q521 674 519 670.5 Q517 667 515 662 L212 4 Q209 -4 206.5 -10.5 Q204 -17 196 -17 Q191 -17 184.5 -14.5 Q178 -12 174 -9 Q171 -7 168 -3.5 Q165 0 165 5 Q165 9 167.5 13.5 Q170 18 173 24 L476 684 Z " />
<glyph glyph-name="zero" unicode="0" horiz-adv-x="524" d="M433 689 Q415 689 393 680 Q371 671 344.5 646.5 Q318 622 288.5 578 Q259 534 228 465 Q196 393 177.5 336 Q159 279 149 243 Q140 209 135 178 Q130 147 130 105 Q130 86 132.5 68 Q135 50 143 35.5 Q151 21 165.5 12 Q180 3 203 3 Q231 3 254 15 Q273 25 291 43.5 Q309 62 328 93 Q347 124 368 169 Q389 214 414 276 Q424 301 438.5 341 Q453 381 466.5 426 Q480 471 489.5 517 Q499 563 499 601 Q499 629 492 646.5 Q485 664 475 673.5 Q465 683 453.5 686 Q442 689 433 689 Z M437 704 Q482 704 510 682 Q538 660 554 623 Q565 599 568.5 574 Q572 549 572 523 Q572 472 561 418.5 Q550 365 531 314.5 Q512 264 486.5 218 Q461 172 432 135 Q409 106 382.5 80 Q356 54 325 33 Q315 26 301 18 Q287 10 270 2.5 Q253 -5 233.5 -10 Q214 -15 194 -15 Q175 -15 157 -10.5 Q139 -6 124 5 Q114 11 106.5 19.5 Q99 28 92 37 Q72 66 62 106 Q52 146 52 184 Q52 225 62.5 270 Q73 315 91 361 Q109 407 133.5 451.5 Q158 496 187 537 Q228 595 266.5 628 Q305 661 338 678 Q371 695 396.5 699.5 Q422 704 437 704 Z " />
<glyph glyph-name="one" unicode="1" horiz-adv-x="524" d="M267 86 Q261 69 257.5 59 Q254 49 252 44 Q250 39 249.5 36.5 Q249 34 249 33 Q249 26 254 22 Q259 18 265.5 16.5 Q272 15 279.5 14.5 Q287 14 292 14 Q306 14 320 14.5 Q334 15 348 15 Q352 15 355.5 14.5 Q359 14 363 12 L366 9 Q367 8 367 6 Q367 2 361 0 Q358 -1 351 -1 Q342 -1 333 -0.5 Q324 0 315 0 L305 0 L101 0 Q89 0 78 0 Q68 0 57 -1 Q53 -1 49.5 -1.5 Q46 -2 42 -2 Q32 -2 29 2 Q28 3 28 5 Q28 13 37.5 13.5 Q47 14 55 14 Q68 14 80.5 13.5 Q93 13 106 13 Q116 13 125.5 14 Q135 15 144 22 Q156 31 163 48.5 Q170 66 176 81 L350 550 Q362 582 368 599 Q374 616 374 629 Q374 645 366 648 Q358 651 351 651 Q343 651 336 650 Q329 649 320 647 Q303 644 295 642.5 Q287 641 282 641 Q274 641 272 643.5 Q270 646 270 648 Q270 653 276 655 Q284 658 294.5 659.5 Q305 661 321 664 Q329 665 342 668 Q355 671 370 674 Q385 677 399.5 680.5 Q414 684 426 687 Q461 697 473 703 Q485 709 490 709 Q492 709 494 708 Q496 707 496 702 Q496 693 488 678.5 Q480 664 469 635 L267 86 Z " />
<glyph glyph-name="two" unicode="2" horiz-adv-x="524" d="M244 557 Q253 557 262.5 547 Q272 537 272 524 Q272 505 256 489.5 Q240 474 221 474 Q209 474 199 480 Q190 485 181.5 495.5 Q173 506 173 524 Q173 542 179 559 Q187 585 201 606.5 Q215 628 231 645 Q266 682 305.5 694 Q345 706 388 706 Q401 706 414 705 Q427 704 440 702 Q461 698 478 691 Q495 684 509 671 Q529 653 542 624.5 Q555 596 555 565 Q555 541 547 515 Q536 480 517 451 Q498 422 476 399 Q448 369 405 334 Q362 299 289 249 Q266 233 243 217.5 Q220 202 197 186 Q187 179 177 172 Q167 165 157 158 Q142 148 130.5 140 Q119 132 107 124 Q95 116 81 105.5 Q67 95 47 80 Q70 78 94.5 77 Q119 76 135 76 L225 76 Q273 76 310 77 Q347 78 372 100 Q380 108 395 126.5 Q410 145 425 175 Q428 180 431 185 Q434 190 439 190 Q441 190 444 187.5 Q447 185 447 180 Q447 172 437 151.5 Q427 131 413 100 Q411 97 410 93.5 Q409 90 407 87 Q404 79 400.5 72.5 Q397 66 394 58 Q387 42 382.5 32 Q378 22 375 16 Q372 10 370 6.5 Q368 3 367 0 Q340 -1 312.5 -1.5 Q285 -2 245 -2 Q122 -2 -1 1 Q-11 1 -21 1.5 Q-31 2 -41 2 L-32 27 Q-28 38 -23.5 46 Q-19 54 -11 63 Q0 76 14 86.5 Q28 97 45 108 Q63 120 75.5 129 Q88 138 98 145.5 Q108 153 118 160.5 Q128 168 142 178 Q194 217 226 241.5 Q258 266 283 287 Q314 313 337.5 335.5 Q361 358 378 379 Q395 400 407 420 Q419 440 429 462 Q437 479 446 507.5 Q455 536 455 571 Q455 595 449 612.5 Q443 630 434.5 641.5 Q426 653 415.5 660 Q405 667 396 671 Q385 676 373.5 677.5 Q362 679 350 679 Q339 679 325 677 Q311 675 294.5 667.5 Q278 660 261.5 646.5 Q245 633 230 610 Q224 601 217 586.5 Q210 572 210 563 Q210 556 215 556 L244 557 Z " />
<glyph glyph-name="three" unicode="3" horiz-adv-x="524" d="M72 133 Q61 134 54.5 127 Q48 120 48 108 Q48 91 56.5 74 Q65 57 80.5 44 Q96 31 118 23 Q140 15 167 15 Q212 15 253.5 38 Q295 61 321 96 Q331 111 341 130 Q351 149 358 171 Q365 193 369.5 216 Q374 239 374 260 Q374 307 349.5 333 Q325 359 293 358 L242 357 Q236 357 230 356 Q224 355 219 365 Q216 371 216 377 Q216 381 219 384 Q223 388 229 388 Q236 388 245 388 Q266 388 279 388 Q293 388 303.5 389.5 Q314 391 323 394 Q332 397 344 402 Q365 411 384 422.5 Q403 434 419 450 Q445 475 462 510.5 Q479 546 479 586 Q479 600 476.5 614 Q474 628 467 641 Q455 664 434.5 673.5 Q414 683 386 683 Q364 683 340 675 Q321 669 303 657 Q287 647 278.5 637.5 Q270 628 266 620 Q262 612 261 606 Q260 600 260 598 Q260 594 261.5 592.5 Q263 591 269 590 Q276 589 282.5 588 Q289 587 295 582 Q310 570 310 549 Q310 532 298.5 518.5 Q287 505 267 505 Q247 505 234 521 Q221 537 221 559 Q221 581 233.5 608.5 Q246 636 272 659 Q291 676 310.5 685.5 Q330 695 348 700 Q366 705 382 706.5 Q398 708 410 708 Q455 708 485.5 696.5 Q516 685 534 666 Q552 647 560 622.5 Q568 598 568 572 Q568 523 546 491 Q524 459 492 437 Q474 424 443 409 Q412 394 370 383 Q365 382 360.5 381.5 Q356 381 356 376 Q356 373 360.5 371.5 Q365 370 369 369 Q385 364 398 357 Q414 348 428 336 Q450 316 458.5 291.5 Q467 267 467 235 Q467 201 457 173 Q447 145 433.5 122.5 Q420 100 404.5 83.5 Q389 67 379 58 Q353 35 326.5 21.5 Q300 8 275 0.5 Q250 -7 227.5 -9 Q205 -11 187 -11 Q128 -11 95.5 5.5 Q63 22 46.5 44 Q30 66 26.5 88 Q23 110 23 122 Q23 145 29.5 162.5 Q36 180 46.5 191.5 Q57 203 70 209 Q83 215 96 215 Q116 215 127 203 Q138 191 138 178 Q138 160 124.5 145.5 Q111 131 94 132 L72 133 Z " />
<glyph glyph-name="four" unicode="4" horiz-adv-x="524" d="M347 73 Q342 56 328 15 Q320 -6 313 -10 Q306 -14 296 -14 L253 -12 Q235 -12 236 -2 Q236 3 241 15 L314 221 L55 221 Q36 221 36 229 Q36 236 45 242 L523 683 Q528 688 536 697 Q544 706 549 712 Q554 718 562 718 Q576 718 577 707 Q577 702 565 692 L91 249 L320 249 L417 501 Q422 514 424.5 518 Q427 522 435 522 L485 514 Q499 510 500 503.5 Q501 497 498 488 L408 249 L435 249 Q469 254 484 254 Q495 254 499 249.5 Q503 245 503 240 Q503 233 496.5 227 Q490 221 478 221 L398 221 L347 73 Z " />
<glyph glyph-name="five" unicode="5" horiz-adv-x="485" d="M156 392 Q176 410 195 420 Q214 430 230.5 435 Q247 440 260.5 441 Q274 442 282 442 Q352 442 391 397 Q430 352 430 277 Q430 230 412.5 179 Q395 128 353 83 Q316 44 261.5 17.5 Q207 -9 147 -9 Q113 -9 86.5 1 Q60 11 41.5 27.5 Q23 44 13.5 65 Q4 86 4 107 Q4 132 21.5 145 Q39 158 58 158 Q79 158 89 144.5 Q99 131 99 117 Q99 100 88 89 Q77 78 66 75 Q61 74 53.5 71 Q46 68 46 60 Q46 53 52 45 Q58 37 69 28 Q82 18 103 13 Q124 8 141 8 Q172 8 196 18.5 Q220 29 238.5 45 Q257 61 270 79 Q283 97 292 112 Q307 138 325 184 Q343 230 343 293 Q343 333 334.5 357.5 Q326 382 313 395 Q300 408 285 412 Q270 416 258 416 Q241 416 223.5 410.5 Q206 405 189 395 Q172 385 157.5 372.5 Q143 360 134 345 Q130 339 126 333 Q122 327 116 327 Q111 327 107.5 330 Q104 333 104 338 Q104 343 107 349.5 Q110 356 117.5 371 Q125 386 131 401 L235 663 Q239 673 244.5 685.5 Q250 698 262 698 L425 686 Q447 684 463 684 Q476 684 485.5 685.5 Q495 687 507 697 Q515 703 524 717 Q527 724 534 724 Q541 724 541 716 Q534 704 527 693 L487 631 Q477 616 469.5 613 Q462 610 450 610 Q439 610 434 610 L246 623 L156 392 Z " />
<glyph glyph-name="six" unicode="6" horiz-adv-x="524" d="M326 432 Q301 432 282 422 Q263 412 249 397 Q235 382 225.5 365 Q216 348 210 334 Q199 310 190.5 280.5 Q182 251 175.5 221 Q169 191 165.5 162.5 Q162 134 162 111 Q162 77 170.5 56.5 Q179 36 191.5 25 Q204 14 218 10.5 Q232 7 244 7 Q267 7 284.5 16.5 Q302 26 315.5 41 Q329 56 338.5 74.5 Q348 93 356 111 Q382 172 392 228.5 Q402 285 402 327 Q402 337 400.5 354.5 Q399 372 391.5 389 Q384 406 369 419 Q354 432 326 432 Z M244 425 Q275 443 299 448.5 Q323 454 343 454 Q372 454 399 445.5 Q426 437 447 418 Q468 399 480.5 368.5 Q493 338 493 295 Q493 229 466.5 168 Q440 107 395 61 Q360 24 322.5 6.5 Q285 -11 240 -11 Q217 -11 188 -2.5 Q159 6 133 38 Q113 62 99.5 102 Q86 142 86 189 Q86 232 99 282.5 Q112 333 135 385 Q158 437 188.5 487 Q219 537 255 579 Q269 595 291 617.5 Q313 640 342 659.5 Q371 679 406 693 Q441 707 481 707 Q524 707 547 688 Q570 669 570 641 Q570 621 558 609 Q546 597 526 597 Q507 597 498.5 607 Q490 617 490 631 Q490 639 492.5 644.5 Q495 650 503 658 Q509 662 510 671 Q507 679 503 682.5 Q499 686 490.5 688.5 Q482 691 466 691 Q443 691 423.5 682.5 Q404 674 387.5 660 Q371 646 357 629 Q343 612 332 595 Q320 577 308 555.5 Q296 534 284.5 511 Q273 488 262.5 465.5 Q252 443 244 425 Z " />
<glyph glyph-name="seven" unicode="7" horiz-adv-x="524" d="M245 601 Q237 601 231.5 591.5 Q226 582 223 574 Q219 562 216 553.5 Q213 545 210.5 541 Q208 537 204 537 Q196 537 196 544 Q197 551 201 564 Q205 577 211 597 L233 682 Q235 691 239.5 705 Q244 719 255 719 Q264 719 262 710 L258 697 Q256 691 256 686 Q256 679 268 678 Q280 677 317 676 L511 676 Q535 675 551 675 Q561 675 568.5 677 Q576 679 590 693 Q597 703 605 703 Q611 703 611 695 Q610 691 608 687 Q606 683 596 669 Q587 657 577.5 643.5 Q568 630 553.5 610.5 Q539 591 519 563.5 Q499 536 469 495 L310 277 Q307 272 300.5 263.5 Q294 255 282.5 238 Q271 221 252.5 192.5 Q234 164 206 121 Q199 110 191.5 96.5 Q184 83 184 72 Q184 64 188 59 Q192 54 198 54 Q204 54 207 58.5 Q210 63 214 67 Q222 75 234 75 Q245 75 253.5 65.5 Q262 56 262 39 Q262 13 244.5 0.5 Q227 -12 207 -12 Q188 -12 175 -4 Q151 10 151 42 Q151 56 158 76 Q165 96 174.5 113.5 Q184 131 200 155.5 Q216 180 240 215 Q264 249 282.5 275.5 Q301 302 318 325.5 Q335 349 351 371.5 Q367 394 387 421 Q403 444 417.5 464 Q432 484 446.5 504.5 Q461 525 477.5 547.5 Q494 570 516 599 L245 601 Z " />
<glyph glyph-name="eight" unicode="8" horiz-adv-x="524" d="M292 342 Q267 326 250.5 314 Q234 302 222 292 Q210 282 199 271 Q167 239 148 202 Q129 165 129 121 Q129 69 155 38 Q181 7 227 7 Q256 7 281 20 Q306 33 323 51 Q344 74 355 105 Q366 136 366 168 Q366 217 345 257.5 Q324 298 292 342 Z M359 399 Q394 418 429.5 451.5 Q465 485 482 524 Q496 555 496 587 Q496 625 482.5 646.5 Q469 668 455 677 Q444 685 430 688 Q416 691 402 691 Q377 691 355.5 681 Q334 671 318 653.5 Q302 636 292.5 612 Q283 588 283 561 Q283 540 289.5 518 Q296 496 306.5 475 Q317 454 331 434.5 Q345 415 359 399 Z M280 358 Q274 367 266 379 Q258 391 246.5 409.5 Q235 428 224 452 Q216 470 211 489.5 Q206 509 206 528 Q206 571 229 609 Q257 656 306.5 682 Q356 708 408 708 Q435 708 464 700.5 Q493 693 513 676 Q531 661 545 633 Q559 605 559 575 Q559 545 543.5 513.5 Q528 482 496 454 Q476 437 452.5 423.5 Q429 410 401 396 Q383 387 374 380 Q381 371 391.5 355 Q402 339 412.5 321 Q423 303 432.5 285 Q442 267 446 254 Q451 239 452.5 222.5 Q454 206 454 192 Q454 142 429 98 Q400 48 345 18.5 Q290 -11 221 -11 Q180 -11 150 -0.5 Q120 10 100 27.5 Q80 45 70.5 68.5 Q61 92 61 118 Q61 131 64 148.5 Q67 166 74.5 185 Q82 204 96 224.5 Q110 245 133 266 Q151 282 167 293 Q183 304 200 314 Q217 324 236.5 334 Q256 344 280 358 Z " />
<glyph glyph-name="nine" unicode="9" horiz-adv-x="524" d="M386 688 Q349 688 324 663.5 Q299 639 277 592 Q260 554 244.5 502 Q229 450 229 401 Q229 336 254 306 Q279 276 314 276 Q336 276 353.5 286 Q371 296 384.5 311.5 Q398 327 407.5 346.5 Q417 366 425 385 Q439 422 449 458 Q458 492 463 523 Q468 554 468 583 Q468 599 466.5 614.5 Q465 630 458 644 Q449 664 432 676 Q415 688 386 688 Z M386 282 Q359 264 336 258.5 Q313 253 294 253 Q262 253 232.5 261 Q203 269 180 294 Q171 304 164.5 316 Q158 328 153 341 Q147 358 144.5 375 Q142 392 142 409 Q142 420 144 442.5 Q146 465 153.5 493.5 Q161 522 175.5 554 Q190 586 216 617 Q253 662 298.5 684 Q344 706 391 706 Q414 706 435.5 700 Q457 694 474 681 Q495 665 509 641 Q528 609 534 575.5 Q540 542 540 515 Q540 453 526.5 405 Q513 357 496 318 Q488 299 469 261 Q450 223 421 179 Q392 135 352.5 92 Q313 49 264 21 Q244 10 215 -1 Q186 -12 150 -12 Q137 -12 124.5 -10 Q112 -8 100 -3 Q86 3 77.5 11 Q69 19 64.5 27 Q60 35 58.5 42 Q57 49 57 54 Q57 67 63 78 Q68 87 77.5 93.5 Q87 100 102 100 Q118 100 128.5 91.5 Q139 83 139 67 Q139 57 134.5 51.5 Q130 46 125 38 Q121 32 120.5 29 Q120 26 120 24 Q120 19 126 15 Q132 11 135 10 Q140 8 148.5 7 Q157 6 162 6 Q187 6 219.5 22 Q252 38 286 86 Q312 123 339 175.5 Q366 228 386 282 Z " />
<glyph glyph-name="colon" unicode="&#x3a;" horiz-adv-x="237" d="M189 416 Q212 416 224 402.5 Q236 389 236 367 Q236 342 220.5 326.5 Q205 311 179 311 Q156 311 143.5 323 Q131 335 131 357 Q131 383 147 399.5 Q163 416 189 416 Z M64 97 Q87 97 99 83.5 Q111 70 111 48 Q111 23 95.5 7.5 Q80 -8 54 -8 Q31 -8 18.5 4 Q6 16 6 38 Q6 64 22 80.5 Q38 97 64 97 Z " />
<glyph glyph-name="semicolon" unicode="&#x3b;" horiz-adv-x="238" d="M68 89 Q81 89 91.5 85 Q102 81 111 70 Q121 58 123.5 44.5 Q126 31 126 20 Q126 -8 116 -29 Q106 -52 89 -67 Q72 -82 49 -94 Q32 -103 17 -108 Q0 -115 -20.5 -119.5 Q-41 -124 -58 -124 Q-63 -124 -65 -123 Q-69 -122 -69 -118 Q-69 -117 -67 -115 Q-65 -113 -60.5 -112.5 Q-56 -112 -47 -110 Q-28 -107 -8 -100.5 Q12 -94 29 -84 Q49 -73 61 -60.5 Q73 -48 79 -36 Q85 -24 86.5 -14 Q88 -4 88 2 Q88 15 81 15 Q76 15 75.5 11 Q75 7 72 4 Q68 0 62.5 -1 Q57 -2 52 -2 Q44 -2 37.5 0 Q31 2 23 10 Q18 15 14.5 22 Q11 29 11 40 Q11 53 17 64 Q21 71 32.5 80 Q44 89 68 89 Z M167 415 Q190 415 202 401.5 Q214 388 214 366 Q214 341 198.5 325.5 Q183 310 157 310 Q134 310 121.5 322 Q109 334 109 356 Q109 382 125 398.5 Q141 415 167 415 Z " />
<glyph glyph-name="less" unicode="&#x3c;" horiz-adv-x="517" d="M484 588 L119 355 L484 112 L484 66 L56 353 L56 359 L484 634 L484 588 Z " />
<glyph glyph-name="equal" unicode="&#x3d;" horiz-adv-x="524" d="M518 268 L104 268 L104 304 L518 304 L518 268 Z M518 366 L104 366 L104 402 L518 402 L518 366 Z " />
<glyph glyph-name="greater" unicode="&#x3e;" horiz-adv-x="517" d="M521 359 L521 353 L93 66 L93 112 L458 355 L93 588 L93 634 L521 359 Z " />
<glyph glyph-name="question" unicode="&#x3f;" horiz-adv-x="392" d="M105 94 Q126 94 138 80.5 Q150 67 150 47 Q150 23 134.5 7.5 Q119 -8 96 -8 Q75 -8 61.5 4.5 Q48 17 48 37 Q48 60 63.5 77 Q79 94 105 94 Z M333 705 Q366 705 394 696 Q422 687 442 670 Q458 656 473 630.5 Q488 605 488 563 Q488 534 480 514.5 Q472 495 464 483 Q451 466 431.5 451 Q412 436 395 426 Q381 418 369.5 413 Q358 408 345.5 402.5 Q333 397 317.5 390.5 Q302 384 280 373 Q256 361 235.5 347.5 Q215 334 198.5 314 Q182 294 168 265.5 Q154 237 142 196 Q138 182 137 171 Q136 160 127 160 Q121 160 120 164 Q119 168 119 170 Q119 186 123 208.5 Q127 231 138 260 Q143 272 154 297.5 Q165 323 185 349 Q204 374 228.5 394 Q253 414 282 437 Q325 470 352 492 Q379 514 393 538 Q401 552 403.5 565 Q406 578 406 594 Q406 605 405 616 Q404 627 400 638 Q395 654 387 663 Q378 674 361.5 682 Q345 690 321 690 Q293 690 277 682.5 Q261 675 252 665 Q244 657 236.5 645 Q229 633 229 625 Q229 617 234 614.5 Q239 612 247 607 Q252 604 257 599.5 Q262 595 262 583 Q262 563 248.5 552 Q235 541 218 541 Q200 541 187 554 Q174 567 174 587 Q174 610 189 633 Q204 656 224 671 Q252 692 282.5 698.5 Q313 705 333 705 Z " />
<glyph glyph-name="at" unicode="&#x40;" horiz-adv-x="961" d="M644 370 Q658 401 663.5 412 Q669 423 671 431 Q672 434 672 441 Q672 455 664.5 468.5 Q657 482 649 489 Q641 496 629 500.5 Q617 505 604 505 Q586 505 567 497 Q539 485 518 459 Q497 433 482 410 Q456 370 434.5 327.5 Q413 285 402 240 Q398 224 396 208.5 Q394 193 394 176 Q394 165 397.5 147 Q401 129 417 118 Q430 109 447 109 Q461 109 477.5 115.5 Q494 122 512 138 Q530 154 550 182 Q570 210 590 254 L644 370 Z M662 224 Q642 178 637.5 159 Q633 140 633 134 Q633 124 639 116.5 Q645 109 667 109 Q683 109 703 114.5 Q723 120 743.5 129.5 Q764 139 783 152.5 Q802 166 817 182 Q854 220 873.5 275.5 Q893 331 893 389 Q893 445 871.5 503 Q850 561 805 603 Q768 637 707.5 661 Q647 685 571 685 Q516 685 472 674 Q428 663 394.5 647 Q361 631 337 613.5 Q313 596 299 583 Q255 542 227.5 496.5 Q200 451 185 406 Q170 361 164.5 318 Q159 275 159 240 Q159 149 185 83 Q211 17 250 -28 Q278 -60 309.5 -80 Q341 -100 374 -112 Q407 -124 438.5 -128.5 Q470 -133 498 -133 Q573 -133 650 -105 Q727 -77 791 -24 Q810 -8 828 10 Q865 48 877.5 71.5 Q890 95 898 104 Q902 108 904 108 Q908 108 912.5 107 Q917 106 917 98 Q917 95 913 87 Q909 79 890 53 Q878 36 861.5 18.5 Q845 1 827 -15.5 Q809 -32 791 -46.5 Q773 -61 758 -71 Q703 -108 632.5 -132 Q562 -156 481 -156 Q424 -156 368.5 -142 Q313 -128 264 -100 Q242 -87 221.5 -72 Q201 -57 184 -39 Q133 13 105.5 84 Q78 155 78 232 Q78 335 123 426 Q168 517 253 588 Q333 654 412.5 678 Q492 702 564 702 Q649 702 728 675.5 Q807 649 859 595 Q891 563 913 514.5 Q935 466 935 398 Q935 325 905.5 261 Q876 197 818 152 Q773 117 722.5 101.5 Q672 86 634 86 Q591 86 574 104 Q557 122 557 143 Q557 149 559 160 Q561 171 563 177 Q552 160 539 145 Q526 130 509 117 Q488 101 466 93 Q444 85 418 85 Q389 85 367.5 95 Q346 105 331.5 122.5 Q317 140 309.5 162 Q302 184 302 208 Q302 234 310 261 Q318 288 330.5 314 Q343 340 360 364 Q377 388 395 408 Q415 431 439.5 452 Q464 473 490.5 489.5 Q517 506 545 516 Q573 526 600 526 Q634 526 656.5 507 Q679 488 681 453 L706 507 Q708 512 710 516 Q712 520 719 520 Q725 520 731 518.5 Q737 517 751 517 Q760 517 765 518.5 Q770 520 773.5 521.5 Q777 523 780 524.5 Q783 526 788 526 Q792 526 792 519 Q792 514 789 507 Q786 500 778 484 L662 224 Z " />
<glyph glyph-name="A" unicode="A" horiz-adv-x="627" d="M460 536 L461 544 L455 544 L449 536 L256 276 Q250 270 247.5 267.5 Q245 265 245 260 Q245 255 258 255 L396 255 Q418 255 418 264 L460 536 Z M101 75 Q97 70 90 58 Q83 46 83 39 Q83 31 89.5 25.5 Q96 20 109 18.5 Q122 17 138 18 L154 19 Q160 19 163 20 Q166 21 171 21 Q188 20 188 11 Q187 -1 165 0 Q123 1 105 1 Q87 1 80.5 0.5 Q74 0 73 -0.5 Q72 -1 65.5 -1.5 Q59 -2 40 -2 Q21 -2 -21 -1 Q-29 -1 -38 -2 L-54 -3 Q-61 -3 -72.5 0 Q-84 3 -84 11 Q-84 20 -72 20 Q-58 20 -51 18 Q-44 16 -30 16 Q-18 16 -2.5 20 Q13 24 23 29 Q35 36 49 53.5 Q63 71 88 103 L424 544 L544 698 Q554 711 560 711 Q570 711 569 697 Q569 691 566.5 679 Q564 667 548 544 L491 105 Q488 85 487 75 Q486 65 486 57 Q486 43 490.5 36.5 Q495 30 502 25.5 Q509 21 521 20 L582 17 Q593 18 593 9 Q593 -3 577 -3 Q565 -3 552.5 -1.5 Q540 0 525 0 Q511 0 494.5 0.5 Q478 1 463 1 Q410 0 357 0 L331 0 Q311 -1 298 -1 Q278 -1 279 12 Q279 20 290 20 Q295 20 307 19 L325 19 Q336 19 349.5 21 Q363 23 371 28 Q384 36 387 52 Q390 68 392 84 L412 219 Q414 234 397 234 L219 234 L101 75 Z " />
<glyph glyph-name="B" unicode="B" horiz-adv-x="588" d="M159 64 Q151 43 149 35.5 Q147 28 147 26 Q147 22 148 20 Q150 16 153 15 Q156 14 159 14 L175 14 Q220 14 255 20 Q290 26 327 47 Q378 76 407.5 125 Q437 174 437 236 Q437 247 436 256.5 Q435 266 432 276 Q428 295 415 311 Q402 327 383.5 335 Q365 343 344.5 346 Q324 349 304 348 Q284 347 269 345 L159 64 Z M280 370 Q294 368 314 367.5 Q334 367 356.5 369.5 Q379 372 402 378.5 Q425 385 446 397 Q473 414 493 438 Q513 463 527 501 Q541 539 541 584 Q541 598 537 616.5 Q533 635 514 651 Q493 669 461.5 671.5 Q430 674 398 672 L280 370 Z M451 692 Q466 692 483 691.5 Q500 691 518 688 Q536 685 553.5 679 Q571 673 586 663 Q600 653 611.5 638 Q623 623 630 603 Q637 583 637 561 Q637 540 629 509.5 Q621 479 592 447 Q575 429 556.5 416 Q538 403 521 394 Q496 380 470 369.5 Q444 359 410 354 Q442 347 462.5 337.5 Q483 328 500 314 Q508 307 516 297.5 Q524 288 530 274 Q535 263 537 249.5 Q539 236 539 223 Q539 195 530 167.5 Q521 140 505.5 115.5 Q490 91 468 70 Q446 49 419 35 Q399 24 371 16 Q338 7 304 4 Q278 1 243.5 -0.5 Q209 -2 182 -2 Q165 -2 149 -1.5 Q133 -1 116 -1 L107 -1 L-8 -1 L-28 -1 Q-36 -1 -43 -1.5 Q-50 -2 -58 -2 Q-60 -2 -64.5 -1 Q-69 0 -69 6 Q-69 9 -66.5 12.5 Q-64 16 -57 16 Q-54 16 -51.5 15.5 Q-49 15 -46 15 Q-37 14 -28.5 13.5 Q-20 13 -11 13 Q16 13 25.5 15.5 Q35 18 37 19 Q42 22 45.5 28.5 Q49 35 57 55 L285 625 Q287 631 290 640.5 Q293 650 293 655 Q293 666 281.5 670 Q270 674 236 674 L219 674 Q211 674 207.5 677 Q204 680 204 682 Q204 684 205.5 686 Q207 688 211 689 Q214 690 222.5 690.5 Q231 691 242 691.5 Q253 692 263 692 Q274 692 281 692 L451 692 Z " />
<glyph glyph-name="C" unicode="C" horiz-adv-x="573" d="M497 704 Q531 704 552 696.5 Q573 689 599 669 Q610 661 622 650 Q634 639 640.5 636.5 Q647 634 651 634 Q656 634 660.5 636 Q665 638 670 646 Q672 649 675 653 Q678 657 682 657 Q688 657 688 650 Q688 644 684.5 635 Q681 626 673 608 L645 551 Q638 534 632 520 Q626 506 618 483 Q616 477 613.5 472 Q611 467 606 467 Q597 467 598 478 Q602 491 605 502 Q609 515 610 526.5 Q611 538 611 549 Q611 612 579.5 648.5 Q548 685 491 685 Q461 685 432 676 Q403 667 380 653 Q378 651 367.5 644 Q357 637 342 624 Q327 611 309 591 Q291 571 273 544 Q244 499 220 438 Q196 377 185 318 Q180 289 177.5 259 Q175 229 175 199 Q175 173 179 148 Q183 123 197 97 Q212 68 237.5 49.5 Q263 31 310 31 Q328 31 350 35.5 Q372 40 400.5 57.5 Q429 75 447.5 90.5 Q466 106 479.5 120 Q493 134 503 149.5 Q513 165 518.5 173.5 Q524 182 531 182 Q537 182 537 174 Q537 166 530 154 Q523 142 505.5 119.5 Q488 97 457.5 65.5 Q427 34 368 10.5 Q309 -13 255 -13 Q201 -13 159 8.5 Q117 30 91 81 Q77 108 71.5 138.5 Q66 169 66 200 Q66 261 83.5 324.5 Q101 388 132.5 446.5 Q164 505 209 555.5 Q254 606 308 642 Q371 683 420 693.5 Q469 704 497 704 Z " />
<glyph glyph-name="D" unicode="D" horiz-adv-x="715" d="M160 60 Q158 55 155.5 47.5 Q153 40 152.5 34.5 Q152 29 158.5 24.5 Q165 20 175.5 20 Q186 20 206 20 Q238 20 280.5 26 Q323 32 355 43 Q400 59 438 86 Q476 113 508 150 Q550 198 582.5 258 Q615 318 632 388 Q646 446 646 502 Q646 559 629.5 592.5 Q613 626 594 641 Q574 657 541 666 Q508 675 476 675 Q457 675 443.5 674 Q430 673 418.5 670 Q407 667 402.5 660 Q398 653 393.5 644.5 Q389 636 380 614 L160 60 Z M281 608 Q289 627 293.5 639 Q298 651 298 659 Q298 670 288 671.5 Q278 673 267 674 L213 679 Q208 680 205.5 679.5 Q203 679 199 683 Q197 685 197 687 Q197 693 202 694 Q207 695 212 695 Q219 695 229 694.5 Q239 694 257 693.5 Q275 693 297 692.5 Q319 692 340 692 Q378 692 416 692.5 Q454 693 492 693 Q530 693 565.5 688.5 Q601 684 639 664 Q674 645 695 620.5 Q716 596 727 569.5 Q738 543 741.5 516.5 Q745 490 745 468 Q745 405 726 342 Q707 279 669 222 Q631 165 572.5 117.5 Q514 70 435 38 Q400 24 370.5 17 Q341 10 311 6.5 Q281 3 248.5 2.5 Q216 2 176 1 Q138 0 100 0 Q63 0 25 0 L-1 0 Q-20 -1 -29 -1.5 Q-38 -2 -46 -2 Q-57 -2 -59.5 1.5 Q-62 5 -62 7 Q-62 12 -58.5 14.5 Q-55 17 -49.5 17.5 Q-44 18 -38 18 L-2 18 Q6 18 19 19 Q32 20 37.5 25 Q43 30 48 38 Q53 46 56 53 L281 608 Z " />
<glyph glyph-name="E" unicode="E" horiz-adv-x="573" d="M285 374 Q293 373 307.5 372 Q322 371 331 371 Q361 371 385 379.5 Q409 388 427 401.5 Q445 415 456.5 432.5 Q468 450 474 468 Q476 473 478.5 478 Q481 483 487 483 Q494 483 494 475 Q494 471 491.5 465 Q489 459 483 445 L424 307 Q421 301 416.5 289 Q412 277 407.5 263.5 Q403 250 399 238 Q395 226 393.5 220 Q392 214 390 207.5 Q388 201 382 201 Q371 201 377 219 Q386 247 389 264 Q392 281 392 295 Q392 305 389.5 316.5 Q387 328 375 338 Q361 349 337.5 351.5 Q314 354 292 354 Q277 354 272 343 L160 68 Q154 54 151 46.5 Q148 39 148 32.5 Q148 26 154 24.5 Q160 23 179 23 L272 23 Q318 23 353 27.5 Q388 32 419 45.5 Q450 59 471 83 Q485 100 499.5 131.5 Q514 163 523 188 Q525 193 529 200.5 Q533 208 540 208 Q547 208 547 201 Q545 191 542.5 185 Q540 179 537 171 Q534 163 525.5 140.5 Q517 118 507.5 92.5 Q498 67 490.5 45 Q483 23 481 16 Q478 6 473.5 2.5 Q469 -1 449 -1 L15 -1 Q-8 -1 -22 -0.5 Q-36 0 -45.5 -0.5 Q-55 -1 -55 8 Q-55 13 -49 14.5 Q-43 16 -23 16 L12 16 Q22 16 29.5 18.5 Q37 21 44.5 34 Q52 47 59 64 L290 620 Q297 637 300.5 647.5 Q304 658 304.5 666 Q305 674 298 675.5 Q291 677 282 677.5 Q273 678 267 678 L230 679 Q218 679 218 686 Q218 694 233 694 Q262 695 283 694.5 Q304 694 332 694 L630 692 Q648 693 653 693 Q675 694 675 683 Q674 679 669.5 670 Q665 661 662 650 L635 548 Q633 539 628 523.5 Q623 508 616 508 Q609 509 610 517 Q611 523 613 528.5 Q615 534 618 548 Q620 559 622 572.5 Q624 586 624 600 Q624 629 616 641 Q608 653 585.5 662 Q563 671 538.5 673 Q514 675 486 675 L423 675 Q418 675 411 673.5 Q404 672 400 665 Q396 658 392 649 L285 374 Z " />
<glyph glyph-name="F" unicode="F" horiz-adv-x="507" d="M153 53 Q148 41 145.5 34 Q143 27 143 23 Q143 19 146.5 16.5 Q150 14 157 14 Q183 14 199 15.5 Q215 17 236 17 Q249 17 249 8 Q249 -2 230 -2 Q203 -2 193 -1.5 Q183 -1 174 -1 Q165 -1 149 -0.5 Q133 0 95 0 Q84 0 63.5 -0.5 Q43 -1 21 -1 Q0 -1 -20.5 -1.5 Q-41 -2 -52 -2 Q-65 -2 -65 6 Q-65 16 -53 16 L-39 16 Q-29 16 -17.5 15.5 Q-6 15 6.5 15.5 Q19 16 30 18.5 Q41 21 49 37 Q57 53 60 61 L292 645 Q299 661 299 668 Q299 675 295.5 676 Q292 677 288 677 Q273 677 260 676.5 Q247 676 233 676 Q212 676 212 687 Q212 696 227 696 Q237 696 245 695.5 Q253 695 271 694 Q289 693 322 692.5 Q355 692 414 692 L520 692 L577 692 Q605 693 624.5 693.5 Q644 694 664 694 Q670 694 670 687.5 Q670 681 665.5 665.5 Q661 650 648 606 Q645 597 642.5 588 Q640 579 637.5 570.5 Q635 562 632 553.5 Q629 545 627 537 Q624 526 622.5 518 Q621 510 613 510 Q604 510 607 522 Q610 536 612 545 Q614 554 615.5 564.5 Q617 575 618 594 Q618 613 614 628 Q609 644 601 653 Q594 660 584 665 Q569 672 544.5 673 Q520 674 500 674 L431 674 Q408 674 401 668.5 Q394 663 387 644 L272 363 L301 363 Q320 363 340 363 Q361 363 380.5 368.5 Q400 374 414.5 389 Q429 404 438 421 Q449 442 464 475 Q466 480 469.5 487 Q473 494 481 494 Q487 494 487 488 Q487 478 476.5 453 Q466 428 454 394 L423 308 Q415 287 411 273 Q407 259 402.5 244.5 Q398 230 395 221 Q393 209 386 210 Q379 210 379 220 Q380 227 381.5 233 Q383 239 386.5 254 Q390 269 390 287 Q390 298 387.5 309.5 Q385 321 374 331 Q361 342 346 343.5 Q331 345 319 345 Q303 345 292 344.5 Q281 344 266 342 L153 53 Z " />
<glyph glyph-name="G" unicode="G" horiz-adv-x="675" d="M551 107 Q549 101 547 95.5 Q545 90 539 83.5 Q533 77 521 67.5 Q509 58 488 44 Q457 22 423 9 Q391 -4 358.5 -8.5 Q326 -13 291 -13 Q229 -13 188.5 -0.5 Q148 12 122 35 Q113 43 105.5 51.5 Q98 60 91 70 Q58 119 58 181 Q58 211 63 240 Q68 269 76 298 Q97 369 139 435 Q181 501 241 560 Q309 626 388 666 Q467 706 555 706 Q595 706 618 696 Q641 686 663 669 Q666 667 668.5 664.5 Q671 662 674 660 Q680 655 686.5 651 Q693 647 703 647 Q710 647 716 650 Q722 653 727 660 Q731 665 733.5 668.5 Q736 672 739 672 Q740 672 742.5 671.5 Q745 671 745 666 Q745 660 740.5 654 Q736 648 726 626 Q719 609 712.5 594 Q706 579 698 558 Q688 533 682.5 519 Q677 505 670 493 Q668 491 667 489 Q666 487 662 487 Q654 487 654 496 Q654 499 655 502.5 Q656 506 658 514 Q662 528 666 548 Q670 568 670 585 Q670 612 657 634 Q645 654 619.5 670 Q594 686 554 686 Q519 686 482.5 672 Q446 658 411 634 Q376 610 344 577 Q312 544 286 506 Q262 471 236.5 419.5 Q211 368 191 308 Q181 278 173.5 243.5 Q166 209 166 164 Q166 150 169 123 Q172 96 185.5 69 Q199 42 227.5 22 Q256 2 307 2 Q355 2 393 24 Q431 46 451 88 Q461 112 467 129 Q473 146 476 157.5 Q479 169 479 183 Q479 192 475 195.5 Q471 199 464.5 200.5 Q458 202 443 202 Q427 202 408 201 Q393 201 393 210 Q393 220 407 220 Q422 220 428.5 219.5 Q435 219 444.5 218.5 Q454 218 474 217.5 Q494 217 536 217 Q568 217 591.5 217.5 Q615 218 632 218.5 Q649 219 658 219 Q663 219 670 217.5 Q677 216 677 208 Q677 199 665 199 L612 199 Q598 199 590 197.5 Q582 196 577 189 Q572 182 567 162 L551 107 Z " />
<glyph glyph-name="H" unicode="H" horiz-adv-x="695" d="M536 91 Q529 74 523 57.5 Q517 41 516.5 33 Q516 25 520.5 21 Q525 17 540 17 Q562 15 588 14 L605 14 Q617 14 617 6 Q616 -2 605 -2 Q574 -2 542.5 -1.5 Q511 -1 478 -1 Q446 -1 396 0 L360 0 Q351 0 342 -1 Q333 -2 329 -2 Q316 -1 316 7 Q316 17 334 17 Q341 17 347 16.5 Q353 16 360 16 Q388 16 399 17.5 Q410 19 414.5 27 Q419 35 421 40 L522 303 Q529 320 530.5 331 Q532 342 512 342 L281 342 Q268 342 262 323 L167 81 Q159 61 155 51 Q151 41 151 33 Q151 22 163.5 18 Q176 14 189 15 L235 17 Q250 19 250 8 Q250 4 248 2 Q246 0 241.5 -0.5 Q237 -1 233 -1 Q188 -1 160.5 -0.5 Q133 0 115 0.5 Q97 1 85.5 1.5 Q74 2 62 2 Q48 2 33.5 1.5 Q19 1 5 0 Q-6 -1 -16.5 -1.5 Q-27 -2 -38 -2 Q-43 -2 -50 -0.5 Q-57 1 -57 8 Q-57 19 -44 19 Q-35 19 -21 18 L-1 18 Q13 18 24 20.5 Q35 23 40 28 Q45 33 51 46 Q57 59 64 74 Q71 89 78 106 L281 612 Q286 625 289.5 634 Q293 643 295 649.5 Q297 656 297 660 Q297 668 291.5 671 Q286 674 281 675 Q276 676 264.5 677 Q253 678 248 678 L225 678 Q221 678 212 679 Q203 680 203 687 Q203 695 214 695 L426 693 Q451 693 465 694 L480 694 Q485 694 489.5 693 Q494 692 494 685 Q494 682 491.5 678 Q489 674 483.5 673.5 Q478 673 474 673 Q469 673 463 673.5 Q457 674 452 674 Q444 675 437 675 L422 675 Q417 675 411 674 Q405 673 401.5 670 Q398 667 395.5 663 Q393 659 390 652 Q387 645 382.5 633.5 Q378 622 371 604 L295 409 Q287 387 285.5 376.5 Q284 366 294 365 Q304 364 314 364 L521 364 Q539 364 543.5 369.5 Q548 375 552 384 Q556 393 563 410 L642 603 Q649 620 655 635 Q661 650 661 657.5 Q661 665 658 668 Q655 671 649 672.5 Q643 674 633 674.5 Q623 675 616 675 L590 675 Q585 675 577.5 676 Q570 677 568.5 680 Q567 683 567 686 Q568 694 579 693 L780 692 L840 693 Q853 693 858 691.5 Q863 690 863 685 Q863 682 860 679 Q857 676 849 676 Q841 677 836 677 L811 677 Q800 677 788.5 675.5 Q777 674 769 669 Q757 661 749 641.5 Q741 622 727 587 L536 91 Z " />
<glyph glyph-name="I" unicode="I" horiz-adv-x="327" d="M435 678 Q422 678 412.5 674.5 Q403 671 398 663.5 Q393 656 384.5 639.5 Q376 623 367 601 L152 52 Q150 47 148.5 42.5 Q147 38 147 34.5 Q147 31 149.5 25.5 Q152 20 161 17 Q170 14 179.5 13.5 Q189 13 195 13 L207 12 Q214 12 224 11 Q231 11 231 5 Q231 -2 217 -2 L-24 -1 Q-41 -1 -46.5 0 Q-52 1 -52 6 Q-52 9 -50 11 Q-48 13 -39 13 L-25 13 Q-7 13 8 14 Q23 15 31 19.5 Q39 24 45.5 32 Q52 40 55 47 L286 627 Q290 635 293.5 646.5 Q297 658 297 662.5 Q297 667 291.5 673 Q286 679 266 679 L226 679 Q215 679 215 687 Q215 694 228 694 Q237 694 245.5 693.5 Q254 693 263 693 L440 693 Q455 693 473 694 Q488 694 488 686 Q487 678 475 677 Q472 677 461 678 L435 678 Z " />
<glyph glyph-name="J" unicode="J" horiz-adv-x="386" d="M297 249 Q290 232 279.5 206.5 Q269 181 256 153 Q243 125 229 98.5 Q215 72 202 52 Q182 23 154.5 -7 Q127 -37 101 -54 Q79 -68 56 -76 Q33 -84 12 -84 Q-25 -84 -44 -62.5 Q-63 -41 -63 -16 Q-63 0 -53.5 15 Q-44 30 -18 30 Q-4 30 4 26 Q12 22 15.5 16 Q19 10 20 3.5 Q21 -3 21 -7 Q21 -18 16 -27.5 Q11 -37 -6 -43 Q-13 -43 -13 -52 Q-13 -57 -5 -62.5 Q3 -68 20 -68 Q38 -68 50.5 -60 Q63 -52 70 -45 Q87 -28 101.5 0.5 Q116 29 136 80 L352 622 Q356 632 359.5 640.5 Q363 649 363.5 657 Q364 665 358.5 670 Q353 675 341.5 676 Q330 677 322 677 Q312 677 303 676.5 Q294 676 283 676 Q272 676 272 683 Q272 693 288 693 Q295 693 301.5 692.5 Q308 692 315 692 Q329 692 346 693 Q363 694 373 694 Q393 694 412 693.5 Q431 693 451 693 Q461 693 470.5 693.5 Q480 694 490 694 Q497 694 516 695 Q536 696 550 696 Q561 696 561 686 Q561 676 542 677 Q536 677 529.5 676.5 Q523 676 514.5 675.5 Q506 675 492.5 673.5 Q479 672 472 667 Q465 662 458 648 Q451 634 443.5 618 Q436 602 429.5 587 Q423 572 421 567 L297 249 Z " />
<glyph glyph-name="K" unicode="K" horiz-adv-x="621" d="M168 84 Q160 62 156 52.5 Q152 43 152 38 Q152 30 156 25.5 Q160 21 166 19 Q172 17 178.5 16.5 Q185 16 189 16 Q200 16 209.5 16.5 Q219 17 230 17 Q234 17 240.5 16 Q247 15 247 9 Q247 6 245 4 Q242 1 237.5 0.5 Q233 0 228 0 Q211 0 195 0.5 Q179 1 162 1 Q151 1 125 0.5 Q99 0 69 -0.5 Q39 -1 10 -1.5 Q-19 -2 -35 -2 Q-40 -2 -47 -1 Q-54 0 -54 7 Q-54 12 -51.5 14.5 Q-49 17 -39 17 Q-30 17 -20 16 Q-12 15 -4 15 Q10 15 21 16.5 Q32 18 40 26 Q42 28 48.5 38 Q55 48 67 79 L285 627 Q291 643 293.5 649.5 Q296 656 296 661.5 Q296 667 290.5 670.5 Q285 674 276.5 676.5 Q268 679 255.5 678 Q243 677 226 679 Q209 680 209 687 Q209 689 210.5 692 Q212 695 218 695 Q224 695 229 695 Q259 695 286 694.5 Q313 694 340 694 Q369 694 399.5 694.5 Q430 695 461 695 Q473 695 477 693 Q481 691 481 688 Q481 678 471 678 L440 678 Q426 678 418 676.5 Q410 675 404 672.5 Q398 670 393.5 663.5 Q389 657 387 652 L302 424 L291 396 L301 396 L322 411 L397 465 L519 563 Q544 586 565 602.5 Q586 619 603 637 Q608 642 611.5 647 Q615 652 615 660 Q615 668 608 672.5 Q601 677 581 677 Q572 677 563 676.5 Q554 676 545 676 Q543 676 539.5 676.5 Q536 677 534.5 678.5 Q533 680 533 683 Q533 692 541.5 693.5 Q550 695 555 695 Q576 695 586 695 Q597 695 603.5 694.5 Q610 694 615 693.5 Q620 693 628 693 L664 693 L750 693 Q770 694 770 684 Q770 676 760 675.5 Q750 675 740 675 Q714 675 700 669 Q686 663 669.5 652.5 Q653 642 611 608 Q584 586 543.5 552 Q503 518 468 491 L421 454 L376 420 L381 405 L496 49 Q503 27 514 22 Q525 17 548 17 Q558 17 567 17.5 Q576 18 586 18 Q598 18 599 10 Q600 4 593.5 1.5 Q587 -1 580.5 -1.5 Q574 -2 567 -2 Q553 -2 540.5 -1.5 Q528 -1 514 -1 Q500 -1 485.5 -0.5 Q471 0 457 0 Q431 0 405 -0.5 Q379 -1 353 -1 Q347 -1 336 0 Q325 1 325 8 Q325 18 337 17.5 Q349 17 360 17 L375 17 Q387 17 393 22.5 Q399 28 399 36 Q399 41 397.5 46.5 Q396 52 391 66 L309 337 L296 378 L283 378 L272 349 L168 84 Z " />
<glyph glyph-name="L" unicode="L" horiz-adv-x="575" d="M164 72 Q155 49 152 43 Q149 37 149 34 Q149 28 155 24.5 Q161 21 169.5 19.5 Q178 18 187 18 L245 18 Q269 18 303 18.5 Q337 19 373 27 Q398 36 413.5 43 Q429 50 444.5 62.5 Q460 75 475.5 94.5 Q491 114 507 144 Q513 155 520.5 172 Q528 189 533 200 Q534 206 541 206 Q551 206 550 197 Q550 189 540.5 161 Q531 133 513 88 Q508 77 503.5 65.5 Q499 54 494 43 L482 13 Q479 6 475.5 3 Q472 0 458 0 Q418 0 382 0 Q346 0 308 1 Q270 2 249 2 Q228 2 188 1 L91 1 Q77 1 53 2 L20 2 Q-3 1 -12 0.5 Q-21 0 -25 -0.5 Q-29 -1 -32.5 -1.5 Q-36 -2 -47 -2 Q-50 -2 -55 -1 Q-60 0 -60 6 Q-60 15 -40 15 Q-34 15 -25 15 Q-16 15 -6.5 15.5 Q3 16 12 16.5 Q21 17 28.5 18.5 Q36 20 39 22.5 Q42 25 44.5 29 Q47 33 51 43 L293 631 Q295 637 299 648.5 Q303 660 303 665 Q303 672 297.5 675.5 Q292 679 284 680 Q276 681 266 681 L255 681 Q243 681 236.5 680 Q230 679 225 679 Q215 679 215 688 Q215 697 226.5 697 Q238 697 242 697 Q262 697 283 696.5 Q304 696 324 696 Q355 695 385.5 694.5 Q416 694 448 694 Q460 694 468.5 694.5 Q477 695 487 696 Q498 697 498 686 Q497 677 486 677 Q480 677 475.5 678 Q471 679 466 679 L448 679 Q430 679 420.5 677 Q411 675 406 670.5 Q401 666 396 655.5 Q391 645 386 631 L164 72 Z " />
<glyph glyph-name="M" unicode="M" horiz-adv-x="776" d="M79 92 L280 632 Q286 648 288 659 Q288 671 277.5 673.5 Q267 676 256 676 Q242 676 229 675 Q216 674 207 674 Q197 674 194 675.5 Q191 677 191 683 Q191 695 205 695 Q218 694 227 693.5 Q236 693 253.5 692.5 Q271 692 303 692 L353 692 Q360 692 370.5 692.5 Q381 693 397 693 Q411 693 410 683 Q410 662 409 647 L385 171 L734 692 L924 693 Q936 693 936 685 Q935 673 921 674 Q913 674 909 675 Q905 676 898 676 L863 676 Q855 676 849.5 674.5 Q844 673 839.5 666.5 Q835 660 831 650 Q827 640 825 634 L604 56 Q598 42 596 37.5 Q594 33 594 29 Q594 21 602.5 18.5 Q611 16 622 15 L651 15 Q661 15 672 16 Q680 16 680 9 Q680 5 676.5 2 Q673 -1 663 -1 Q658 -1 651 0 Q644 1 637 1 L423 -1 Q414 -1 413 7 Q414 16 434 16 Q458 17 472 18.5 Q486 20 490 23.5 Q494 27 498 35.5 Q502 44 513 71 L729 614 L748 665 L722 628 L334 54 Q323 37 316.5 27.5 Q310 18 305.5 12 Q301 6 295 6 Q291 6 287.5 9 Q284 12 285 22 L315 592 Q317 618 317 627 Q317 636 312 644 L108 93 L89 37 Q88 35 88 30 Q88 25 90.5 21.5 Q93 18 102 16.5 Q111 15 117 15 L128 15 Q137 15 146 15.5 Q155 16 165 16 Q172 16 172 10 Q172 2 167 0.5 Q162 -1 159 -1 Q154 -1 149.5 -0.5 Q145 0 140 0 L122 0 Q117 0 106 0.5 Q95 1 90 1 L10 1 L-8 1 Q-17 1 -27 0 Q-37 -1 -41 -1 Q-44 -1 -48 0 Q-52 1 -52 6 Q-52 17 -36 17 Q-28 16 -23 15.5 Q-18 15 -9 15 L7 15 Q23 15 34.5 16 Q46 17 56 34 Q61 42 65 53.5 Q69 65 79 92 Z " />
<glyph glyph-name="N" unicode="N" horiz-adv-x="686" d="M718 637 Q720 640 722.5 650.5 Q725 661 725 666 Q725 673 719.5 674 Q714 675 707 675 Q684 675 674.5 674.5 Q665 674 661 674 Q651 673 641 673 Q629 673 626 676 Q623 679 623 682 Q623 686 625 689 Q627 692 633 693 Q639 694 645 694 Q657 694 668 693.5 Q679 693 692.5 692.5 Q706 692 722 692 L785 692 Q817 693 838 693 Q847 693 851.5 691.5 Q856 690 856 684 Q856 680 853 676.5 Q850 673 836 673 Q822 673 810 673.5 Q798 674 785 674 Q778 674 770 673 Q762 672 756 665 Q750 657 748 650.5 Q746 644 743 636 L521 36 Q515 20 510.5 10.5 Q506 1 503 -2.5 Q500 -6 494 -6 Q488 -6 485.5 0.5 Q483 7 479 20 L321 657 L110 72 Q102 49 100 40.5 Q98 32 98 29 Q98 26 101 22.5 Q104 19 112.5 18 Q121 17 126 17 Q137 17 149 17.5 Q161 18 172 18 Q184 18 192.5 17 Q201 16 201 8 Q201 0 194.5 -1 Q188 -2 183 -2 Q176 -2 170 -1.5 Q164 -1 157 -1 Q139 0 121.5 0.5 Q104 1 86 1 Q73 1 60.5 0.5 Q48 0 35 0 Q20 0 4.5 -0.5 Q-11 -1 -26 -1 Q-31 -1 -39 0 Q-47 1 -47 7 Q-47 12 -41.5 14.5 Q-36 17 -17 18 Q18 20 33 20.5 Q48 21 55 25 Q60 27 66.5 36 Q73 45 81 68 L292 650 Q296 659 298 666 Q298 674 285.5 674.5 Q273 675 265 675 Q248 675 232 674.5 Q216 674 199 674 Q177 674 177 685 Q178 697 198 697 Q205 697 213.5 696.5 Q222 696 245 695 Q268 694 291 694 L365 694 Q389 694 405 696 L543 161 L718 637 Z " />
<glyph glyph-name="O" unicode="O" horiz-adv-x="710" d="M524 691 Q491 691 457.5 677 Q424 663 401 646 Q386 635 370 619 Q354 603 339 585 Q324 567 310 547.5 Q296 528 284 510 Q258 469 236 421.5 Q214 374 198 325 Q182 276 173 228.5 Q164 181 164 141 Q164 129 165.5 112.5 Q167 96 172.5 79 Q178 62 188.5 46 Q199 30 218 18 Q234 8 252.5 4.5 Q271 1 290 1 Q319 1 342 8 Q365 15 386 27 Q400 35 412.5 44 Q425 53 437 64 Q488 108 524 163.5 Q560 219 591 299 Q614 358 629 419.5 Q644 481 644 532 Q644 546 642 565.5 Q640 585 633 607 Q631 614 628 620.5 Q625 627 622 634 Q617 643 610 653 Q603 663 591 671.5 Q579 680 562.5 685.5 Q546 691 524 691 Z M529 705 Q563 705 595 696 Q625 687 647 670.5 Q669 654 686 632 Q712 597 725.5 555.5 Q739 514 739 469 Q739 447 736.5 426 Q734 405 730.5 388 Q727 371 724 359.5 Q721 348 720 344 Q703 288 672.5 238 Q642 188 611 153 Q596 136 576.5 118.5 Q557 101 536 85 Q515 69 493.5 55 Q472 41 453 31 Q424 16 380 1.5 Q336 -13 279 -13 Q179 -13 123 42.5 Q67 98 67 197 Q67 251 81.5 305 Q96 359 121.5 409.5 Q147 460 182 506 Q217 552 259 589 Q285 612 315.5 633 Q346 654 380 670 Q414 686 451.5 695.5 Q489 705 529 705 Z " />
<glyph glyph-name="P" unicode="P" horiz-adv-x="567" d="M270 349 Q294 342 314 340.5 Q334 339 346 339 Q358 339 374 341 Q390 343 408 349 Q426 355 446 366.5 Q466 378 486 397 Q498 408 511 424 Q524 440 535 460.5 Q546 481 553 506.5 Q560 532 560 562 Q560 578 557 594.5 Q554 611 545 626 Q533 648 510 659 Q493 667 469.5 670.5 Q446 674 429 674 Q418 674 412 673.5 Q406 673 398 671 L270 349 Z M144 25 Q142 20 146 17 Q150 14 155 14 L232 15 Q242 15 242 7 Q242 1 235 -0.5 Q228 -2 222 -2 Q191 -2 176 -1 Q161 0 129 0 L70 0 Q56 0 42.5 0.5 Q29 1 15 1 Q0 1 -7 0.5 Q-14 0 -22.5 -1 Q-31 -2 -40 -2 Q-54 -2 -54 7 Q-54 17 -41 17 Q-30 16 -19 16 L22 15 Q27 15 31 15.5 Q35 16 39 18.5 Q43 21 47 30 L75 95 L302 676 Q291 678 282.5 677.5 Q274 677 265 676 Q251 674 244 673.5 Q237 673 232 673 Q227 673 220 674 Q213 675 210.5 678 Q208 681 208 684 Q208 689 213 691 Q218 693 221.5 693 Q225 693 228 693 Q237 693 246 692.5 Q255 692 264 692 Q270 692 276 692.5 Q282 693 288 693 Q301 694 313 694 Q326 694 339 694 Q378 694 407.5 693 Q437 692 459 690.5 Q481 689 497 687 Q513 685 526 682 Q569 673 595 657 Q621 641 635.5 622 Q650 603 655 582.5 Q660 562 660 545 Q660 524 653.5 498.5 Q647 473 630.5 447 Q614 421 587 397 Q560 373 518 354 Q468 331 424.5 326 Q381 321 358 321 Q332 321 305 324 Q278 327 261 329 L144 25 Z " />
<glyph glyph-name="Q" unicode="Q" horiz-adv-x="711" d="M520 689 Q460 689 394.5 639 Q329 589 269 484 Q246 445 226.5 399.5 Q207 354 193 307.5 Q179 261 170.5 216 Q162 171 162 132 Q162 121 164.5 98.5 Q167 76 179 53.5 Q191 31 215.5 14.5 Q240 -2 284 -2 Q302 -2 329.5 3.5 Q357 9 390 28 Q423 47 459.5 83 Q496 119 532 180 Q555 219 575.5 264 Q596 309 611 355.5 Q626 402 635 447.5 Q644 493 644 532 Q644 575 633.5 605 Q623 635 606 654 Q589 673 566.5 681 Q544 689 520 689 Z M315 -15 Q307 -32 304 -49.5 Q301 -67 301 -84 Q301 -100 305 -115.5 Q309 -131 317 -145 Q330 -166 354 -181 Q378 -196 418 -196 Q439 -196 455 -192 Q465 -190 473 -186.5 Q481 -183 485 -183 Q494 -183 493 -191 Q493 -196 465.5 -207.5 Q438 -219 385 -219 Q348 -219 313 -210 Q278 -201 250 -182 Q218 -160 204.5 -130.5 Q191 -101 191 -68 Q191 -48 194 -33 Q197 -18 200 -5 Q155 13 128.5 37.5 Q102 62 88 88.5 Q74 115 70 141.5 Q66 168 66 191 Q66 256 84 318 Q102 381 132.5 434.5 Q163 488 207 537 Q276 614 358.5 659 Q441 704 524 704 Q556 704 587.5 696 Q619 688 645 671 Q654 665 670 651 Q686 637 701 612 Q716 587 727.5 550.5 Q739 514 739 463 Q739 412 726 363.5 Q713 315 690 270 Q647 185 575 118 Q506 53 440.5 24.5 Q375 -4 315 -15 Z " />
<glyph glyph-name="R" unicode="R" horiz-adv-x="593" d="M281 377 Q313 375 345.5 378 Q378 381 407 391 Q434 400 456 413 Q494 436 518 472 Q542 508 542 563 Q542 602 526.5 629 Q511 656 490 666 Q475 673 456.5 673.5 Q438 674 419 674 Q408 674 403.5 672 Q399 670 393.5 661 Q388 652 384.5 643.5 Q381 635 379 630 L281 377 Z M148 42 Q145 34 145 30.5 Q145 27 148.5 23 Q152 19 160 17 Q168 15 175 14 Q182 13 187 13 Q197 12 205 12 Q208 12 217 13 Q227 13 227 8 Q227 8 224.5 3 Q222 -2 203 -2 L156 -2 Q131 -2 97 1 L47 1 Q30 1 19 0.5 Q8 0 0.5 -0.5 Q-7 -1 -13.5 -1.5 Q-20 -2 -29 -2 Q-34 -2 -39 -1 Q-44 0 -44 6 Q-44 13 -35.5 14 Q-27 15 -14 15 Q-1 15 12.5 16 Q26 17 32.5 20.5 Q39 24 46 31 Q53 38 60 55 L290 642 Q293 649 294 653 Q295 657 294.5 662 Q294 667 286 670.5 Q278 674 267 675 Q256 676 245 675.5 Q234 675 228 677 Q223 679 223 683 Q223 686 227 689 Q231 692 249 692 Q279 692 325 690.5 Q371 689 433 689 Q462 689 496 687.5 Q530 686 564 670 Q585 660 599.5 646 Q614 632 622.5 616.5 Q631 601 634.5 585.5 Q638 570 638 556 Q638 533 630 509.5 Q622 486 604.5 464 Q587 442 560.5 423 Q534 404 498 391 Q477 383 456 379 Q430 374 398.5 371 Q367 368 344 368 L377 359 Q397 353 421.5 343 Q446 333 461 313 Q476 292 478.5 264 Q481 236 481 222.5 Q481 209 480 187 L473 99 Q469 62 470 47 Q470 17 479 10.5 Q488 4 494 4 Q498 4 503 6.5 Q508 9 510 11 Q514 18 512 23 Q510 28 514.5 37 Q519 46 525.5 49 Q532 52 538 52 Q541 52 546.5 50 Q552 48 552 37 Q552 25 544 15 Q534 1 516 -5.5 Q498 -12 477 -12 Q463 -12 448.5 -9.5 Q434 -7 421 1 Q394 17 385.5 41.5 Q377 66 377 92 Q378 119 381 150 L390 227 Q391 237 392.5 253.5 Q394 270 394 281 Q394 300 387 319.5 Q380 339 351 349 Q343 351 327.5 353.5 Q312 356 273 358 L148 42 Z " />
<glyph glyph-name="S" unicode="S" horiz-adv-x="469" d="M357 373 Q392 338 414.5 300.5 Q437 263 437 214 Q437 176 422 135 Q407 94 372 59 Q341 30 304 12 Q249 -13 192 -13 Q174 -13 145.5 -9 Q117 -5 94 9 Q87 13 73.5 22.5 Q60 32 55 36 Q50 40 42.5 44.5 Q35 49 27 49 Q19 49 13 44 Q7 39 2.5 31.5 Q-2 24 -5.5 16 Q-9 8 -11 1 Q-12 -3 -13 -5 Q-14 -7 -15.5 -10.5 Q-17 -14 -22 -14 Q-27 -14 -29 -12 Q-31 -10 -31 -4 Q-29 3 -26 9 Q-23 15 -14 39 L37 178 Q40 186 43 194 Q46 202 56 202 Q64 202 64 194 Q64 191 61.5 187 Q59 183 57 175 Q54 165 53.5 156 Q53 147 53 136 Q53 106 61 80.5 Q69 55 95 35 Q118 18 142.5 12.5 Q167 7 190 7 Q235 7 263.5 20 Q292 33 309 48 Q325 63 336 83 Q345 100 349 118.5 Q353 137 353 156 Q353 167 350 183 Q347 199 339.5 217 Q332 235 318.5 255 Q305 275 284 295 L228 347 Q209 364 185 393 Q161 422 150 457 Q143 478 143 503 Q143 539 160.5 578 Q178 617 216 649 Q249 676 288 689 Q327 702 366 702 Q384 702 402 699 Q417 697 433.5 692.5 Q450 688 466 681 Q471 679 475.5 677 Q480 675 485 673 Q497 668 506 668 Q513 668 522 672.5 Q531 677 542 694 Q544 697 546.5 700.5 Q549 704 553 704 Q560 704 559 696 Q557 687 553 678.5 Q549 670 541 654 Q536 644 525.5 617 Q515 590 507 550 Q505 536 503.5 532 Q502 528 498.5 528 Q495 528 494 528 Q487 528 487 535 Q487 542 488 549 Q489 555 489.5 561.5 Q490 568 490 574 Q490 591 486 607.5 Q482 624 474 637 Q462 657 435.5 671 Q409 685 370 685 Q342 685 317 676 Q289 666 270 651 Q247 632 236.5 607.5 Q226 583 226 560 Q226 539 240.5 507 Q255 475 297 433 L357 373 Z " />
<glyph glyph-name="T" unicode="T" horiz-adv-x="570" d="M258 56 Q254 47 253 43.5 Q252 40 252 38 Q252 30 258.5 26 Q265 22 274.5 19.5 Q284 17 295.5 16.5 Q307 16 316 16 Q322 16 323.5 14 Q325 12 325 9 Q325 1 317.5 0 Q310 -1 305 -1 Q289 -1 274.5 -0.5 Q260 0 244 1 Q228 2 212 2 L179 2 Q153 2 142 1.5 Q131 1 113.5 -0.5 Q96 -2 72 -2 Q58 -2 58 5 Q58 9 61 12.5 Q64 16 74 16 Q83 15 89 15 L105 15 Q113 15 123.5 16.5 Q134 18 142 23 Q149 28 156 38.5 Q163 49 168 60 L411 673 L371 673 Q319 673 284 664 Q249 655 218 626 Q205 614 196 602.5 Q187 591 179 577 Q175 571 168 558.5 Q161 546 157.5 539.5 Q154 533 150 525 Q148 521 144 515 Q140 509 134 509 Q130 509 128.5 511.5 Q127 514 132 525 L207 693 Q335 691 465 691 Q595 691 729 694 Q721 672 713 648.5 Q705 625 699 606 Q693 587 690 576.5 Q687 566 684.5 558 Q682 550 679.5 541.5 Q677 533 673 518 Q671 513 669 509 Q667 505 660 505 Q655 505 653.5 507.5 Q652 510 652 516 L654 524 Q659 538 661 551 Q664 564 666.5 577 Q669 590 669 604 Q669 638 651 654 Q646 659 639.5 662.5 Q633 666 626 668 Q615 671 599 672 Q583 673 565 673 L505 673 L258 56 Z " />
<glyph glyph-name="U" unicode="U" horiz-adv-x="647" d="M229 276 Q223 262 214.5 238 Q206 214 198 187.5 Q190 161 184.5 135.5 Q179 110 179 93 Q179 73 187 57 Q195 41 206 31 Q214 24 231 15.5 Q248 7 279 7 Q316 7 350.5 19.5 Q385 32 411 51 Q445 75 464.5 103.5 Q484 132 497 156 Q503 168 513 187.5 Q523 207 532.5 228.5 Q542 250 551 270 Q560 290 565 303 L683 606 Q688 619 693 632.5 Q698 646 698 654 Q698 669 685 672.5 Q672 676 661 676 Q651 676 647 675.5 Q643 675 638 675 Q636 675 632 676 Q628 677 628 682 Q628 688 634.5 689 Q641 690 646 690 Q672 690 699 689.5 Q726 689 752 689 Q767 689 781.5 689.5 Q796 690 811 690 Q815 690 820.5 689.5 Q826 689 826 684 Q826 682 823 678.5 Q820 675 806 675 Q798 675 791.5 675.5 Q785 676 777 676 Q769 676 758.5 675 Q748 674 741 668 Q734 662 730.5 650.5 Q727 639 722 628 L607 338 Q573 253 548 201 Q523 149 499 112 Q482 86 459 61 Q436 36 400 17 Q369 0 334 -7 Q299 -14 260 -14 Q211 -14 182.5 -4 Q154 6 140 14 Q85 47 85 109 Q85 127 90.5 151.5 Q96 176 103.5 201 Q111 226 119.5 248.5 Q128 271 134 286 L263 603 Q274 631 279 640.5 Q284 650 284 656 Q284 663 276.5 669 Q269 675 256 675 L229 675 Q227 675 223 676 Q219 677 219 681 Q219 684 220.5 686.5 Q222 689 227.5 689.5 Q233 690 238 690 Q258 690 278.5 689.5 Q299 689 319 689 Q352 689 384.5 689.5 Q417 690 446 690 Q458 690 462 689 Q466 688 466 682 Q466 674 454 674.5 Q442 675 424 674 Q420 674 408 672.5 Q396 671 392 669 Q387 667 383 660.5 Q379 654 377 649 L229 276 Z " />
<glyph glyph-name="V" unicode="V" horiz-adv-x="578" d="M586 571 Q590 577 599 589 Q608 601 616 614.5 Q624 628 630.5 639.5 Q637 651 637 657 Q637 666 630 670 Q625 674 612 675.5 Q599 677 576 676 Q567 676 562.5 677 Q558 678 558 683 Q558 690 572 690 Q586 690 609 690 L725 690 Q744 690 760 690.5 Q776 691 776 683 Q776 678 771 677 Q766 676 758 676 Q747 675 743 675 Q714 673 698 667 Q682 661 671 649 Q665 643 654 627.5 Q643 612 615 575 L276 113 L218 30 Q208 15 204 8 Q195 -6 192.5 -10 Q190 -14 187 -14 Q183 -14 183 -9 Q183 -5 183.5 -1 Q184 3 184.5 9 Q185 15 186 30 L216 594 Q217 613 218 638 Q218 646 217.5 654 Q217 662 213 665.5 Q209 669 202 670.5 Q195 672 185.5 673.5 Q176 675 168 675 L153 675 Q148 675 143.5 676 Q139 677 139 682 Q139 689 149 690 Q159 691 164 691 Q179 691 191 690.5 Q203 690 215.5 689.5 Q228 689 245 688.5 Q262 688 288 688 Q320 688 353 689 Q386 690 436 690 Q449 690 449 684 Q449 679 441.5 675.5 Q434 672 421.5 672 Q409 672 392 671 L368 671 Q359 671 350 670.5 Q341 670 333.5 667.5 Q326 665 322 659 Q319 654 318.5 644.5 Q318 635 317 624 L285 165 L586 571 Z " />
<glyph glyph-name="W" unicode="W" horiz-adv-x="866" d="M671 646 Q676 652 678.5 656 Q681 660 680 663.5 Q679 667 674 669 Q669 671 659 673 Q649 675 628 675 Q607 675 595 672.5 Q583 670 577 666 Q571 662 569.5 655 Q568 648 568 632 L564 496 L671 646 Z M475 356 L213 13 Q208 8 201 0 Q194 -8 189 -8 Q181 -8 182 3 Q182 10 183 26 L204 638 Q204 648 203 655 Q202 662 196 667 Q190 672 179.5 672.5 Q169 673 154 675 L137 676 Q127 676 127 683 Q127 690 136.5 691 Q146 692 159 692 Q180 692 209.5 690.5 Q239 689 268 689 Q297 689 326 690.5 Q355 692 384 692 Q397 691 397 686 Q397 681 391.5 678.5 Q386 676 378.5 675 Q371 674 361 674 Q352 674 345 673 Q325 671 311 667 Q297 663 296 654 L275 134 L473 393 L476 619 Q476 632 476 645 Q476 659 469 667 Q460 676 429 676 L418 676 Q408 677 408 683 Q408 688 412.5 690 Q417 692 421 692 Q425 692 430 692 Q469 691 500 691 Q524 691 546 690 L723 688 Q730 688 746 689 Q762 690 774 691 Q786 692 796 692 Q801 692 808 691 Q815 690 815 685 Q814 679 806 678 Q795 676 784 675.5 Q773 675 758 673 Q725 668 709 651 Q693 634 678 614 L567 461 L558 137 L904 619 Q912 629 921.5 642 Q931 655 931 663 Q931 665 927.5 671.5 Q924 678 905 678 Q895 677 890 676.5 Q885 676 881 676 L873 676 Q860 676 857.5 679 Q855 682 855 684 Q855 693 869 692.5 Q883 692 892 692 L983 692 Q993 692 1002.5 691.5 Q1012 691 1021 691 Q1028 691 1034.5 691.5 Q1041 692 1049 692 Q1051 692 1055 691.5 Q1059 691 1059 687 Q1059 682 1051.5 680 Q1044 678 1039 678 Q1020 676 1004.5 675 Q989 674 976 666 Q969 661 961 652 Q953 643 936 620 L495 13 Q490 5 485.5 0 Q481 -5 473 -5 Q466 -5 466 6 Q466 10 467 21 L475 356 Z " />
<glyph glyph-name="X" unicode="X" horiz-adv-x="624" d="M456 116 Q458 102 461.5 81.5 Q465 61 470 48 Q479 22 494.5 18 Q510 14 530 14 L558 14 Q567 14 570 8 Q569 -1 550 -2 Q539 -1 535 -1 Q528 -1 512.5 -0.5 Q497 0 479.5 0.5 Q462 1 446 1 Q430 1 422 1 Q396 1 369 1 Q343 1 317 0 Q302 0 287 -0.5 Q272 -1 257 -1 Q253 -1 246 -1 Q239 -1 239 7 Q239 15 255 15 Q271 15 285 15 L327 15 Q332 15 338 15.5 Q344 16 349 18.5 Q354 21 358 26 Q362 31 363.5 38.5 Q365 46 365 56 Q365 66 365 76.5 Q365 87 363 112 L341 321 L114 82 Q91 58 82.5 47 Q74 36 74 29 Q74 22 80 19 Q86 16 95 15 Q104 14 114 14.5 Q124 15 132 15 L151 15 Q159 15 159 10 Q159 4 154.5 1 Q150 -2 130 -2 Q112 -2 102.5 -1.5 Q93 -1 84 0 Q75 1 62 1.5 Q49 2 25 2 Q0 2 -7.5 1.5 Q-15 1 -26 -0.5 Q-37 -2 -63 -2 Q-76 -1 -76 6 Q-76 13 -67.5 14.5 Q-59 16 -55 16 Q-37 17 -25.5 18 Q-14 19 -6 21 Q2 23 9 27 Q16 31 25 37 Q38 46 57 62.5 Q76 79 93 96 L338 353 L304 609 Q302 621 298 638 Q294 655 286 663 Q277 672 264 673.5 Q251 675 245 675 L227 675 Q223 675 211 674 Q200 675 200 682 Q200 692 224 691 Q242 691 260 690.5 Q278 690 296 689 Q312 688 327 688 Q343 688 359 688 Q382 688 404.5 688.5 Q427 689 449 690 Q461 690 473 690.5 Q485 691 497 691 Q510 692 511 685 Q511 677 506.5 675 Q502 673 483 673 L454 673 Q439 673 427.5 671.5 Q416 670 405 663 Q396 655 395 643 Q394 631 396 616 L418 419 L624 620 Q625 621 631 627 Q637 633 643 639.5 Q649 646 654 652.5 Q659 659 659 664.5 Q659 670 649 672.5 Q639 675 621 675 L600 675 Q595 675 590 676 Q585 677 585 684 Q585 690 602 691 Q609 691 615 690.5 Q621 690 630 689.5 Q639 689 653 688.5 Q667 688 689 688 Q710 688 730 688 Q751 688 771 690 Q788 691 794 691 Q806 692 806 685 Q806 677 796 677 Q788 675 780 675 L764 675 Q745 675 726 670 Q707 665 689.5 649 Q672 633 660.5 621.5 Q649 610 638 599 L425 392 L456 116 Z " />
<glyph glyph-name="Y" unicode="Y" horiz-adv-x="543" d="M583 625 Q598 643 602.5 650.5 Q607 658 607 661 Q607 667 601.5 670 Q596 673 588.5 674 Q581 675 574 675 L563 675 Q555 675 542 676.5 Q529 678 529 683 Q529 691 541 691.5 Q553 692 561 692 Q601 692 626 692 Q652 692 670 691.5 Q688 691 701 690.5 Q714 690 728 690 Q739 690 739 684 Q739 678 735 677.5 Q731 677 727 677 Q720 677 705.5 675.5 Q691 674 683 672 Q671 670 655.5 662.5 Q640 655 621 632 L394 361 Q385 350 373 337 Q361 324 351 308 Q343 296 334.5 276 Q326 256 322 246 L246 48 Q242 38 242 36 Q242 31 247.5 24 Q253 17 277 15 Q294 14 309 14.5 Q324 15 324 7 Q324 3 321 1.5 Q318 0 314 -0.5 Q310 -1 306 -1 Q285 -1 271 -0.5 Q257 0 234 1 Q217 2 199.5 2.5 Q182 3 165 3 Q133 3 108.5 0.5 Q84 -2 60 -2 Q46 -2 43 -1.5 Q40 -1 40 5 Q40 15 54 15 Q69 15 98 17 Q107 18 117.5 19 Q128 20 138 28 Q149 36 155 49.5 Q161 63 167 79 L236 259 Q242 275 247 288.5 Q252 302 252 319 Q252 324 251.5 333 Q251 342 249 367 L228 641 Q227 649 225.5 656.5 Q224 664 218 669 Q210 676 195 676 Q181 676 161 677 Q147 677 146 685 Q146 693 161 693 Q167 693 175 692 L293 690 Q337 689 355.5 689.5 Q374 690 381.5 690.5 Q389 691 393 691.5 Q397 692 414 692 Q426 692 428.5 689.5 Q431 687 431 685 Q431 678 418.5 677.5 Q406 677 398 676 Q376 674 359.5 673 Q343 672 332 664 Q324 659 321.5 649.5 Q319 640 321 621 L345 341 L583 625 Z " />
<glyph glyph-name="Z" unicode="Z" horiz-adv-x="570" d="M594 689 Q630 690 644 691 Q686 693 703 692 Q695 681 686 670.5 Q677 660 657 638 L148 65 Q144 60 137.5 52.5 Q131 45 113 21 Q147 20 188 19 Q229 18 260 18 Q286 18 311 19.5 Q336 21 359.5 28 Q383 35 406 49 Q429 63 451 89 Q462 102 469.5 113 Q477 124 483 133 Q489 142 495 152 Q501 163 507 173.5 Q513 184 519 195 Q525 210 533 210 Q541 210 540 202 Q539 196 535 186 Q513 129 491 79.5 Q469 30 454 -2 Q435 -1 402 0 L14 0 Q-3 -1 -16 -2 Q-27 -2 -27 4 Q-27 9 -18.5 17 Q-10 25 15 48 Q27 59 50 83.5 Q73 108 99 136 Q125 164 149.5 190.5 Q174 217 188 233 L574 663 Q544 666 528.5 667.5 Q513 669 493.5 670 Q474 671 454 671 Q437 671 419 670 Q401 669 384 667 Q364 664 344 658.5 Q324 653 307 642 Q290 632 277 618 Q264 604 253.5 589 Q243 574 234.5 558.5 Q226 543 218 529 Q214 521 209 514.5 Q204 508 199 508 Q191 508 192 518 Q194 526 200 539 Q206 552 211 563 L235 613 Q243 630 251.5 649.5 Q260 669 274 695 Q298 693 315 692 Q332 691 347 690.5 Q362 690 379 689.5 Q396 689 422 689 L594 689 Z " />
<glyph glyph-name="bracketleft" unicode="&#x5b;" horiz-adv-x="324" d="M73 -85 Q67 -98 65 -103.5 Q63 -109 63 -114.5 Q63 -120 69.5 -121 Q76 -122 82 -122 L162 -122 Q170 -122 172 -123.5 Q174 -125 174 -129 L174 -137 Q174 -142 169.5 -143 Q165 -144 156 -144 L4 -144 Q-19 -144 -21 -138 Q-23 -132 -20 -124 L270 685 Q272 690 275 696.5 Q278 703 282 705.5 Q286 708 291 708 Q296 708 300 708 L449 708 Q463 708 466.5 707.5 Q470 707 470 703 Q470 691 466.5 689 Q463 687 452 687 L359 687 Q346 687 345 677 L73 -85 Z " />
<glyph glyph-name="backslash" unicode="&#x5c;" horiz-adv-x="573" d="M173 658 Q170 664 167.5 668.5 Q165 673 165 677 Q165 682 168 685.5 Q171 689 174 691 Q178 694 184.5 696.5 Q191 699 196 699 Q204 699 206.5 692.5 Q209 686 212 678 L515 20 Q517 15 519 11.5 Q521 8 521 5 Q521 0 518 -3 Q515 -6 512 -8 Q501 -17 489 -17 Q484 -17 482 -14 Q480 -11 476 -2 L173 658 Z " />
<glyph glyph-name="bracketright" unicode="&#x5d;" horiz-adv-x="660" d="M299 -117 Q296 -125 293.5 -131.5 Q291 -138 288 -141 Q285 -144 280 -144 Q275 -144 271 -144 L100 -144 Q98 -144 96 -143 Q94 -142 94 -139 L95 -127 Q95 -125 97.5 -124 Q100 -123 105 -123 L206 -123 Q219 -123 222 -109 L497 654 Q502 667 504.5 677.5 Q507 688 492 688 L413 688 Q402 688 398 688 Q394 688 395 700 Q395 706 397.5 707.5 Q400 709 414 709 L567 709 Q588 709 587.5 698.5 Q587 688 582 674 L299 -117 Z " />
<glyph glyph-name="asciicircum" unicode="&#x5e;" horiz-adv-x="524" d="M442 325 Q424 352 390.5 415 Q357 478 325 584 Q310 549 285 504 Q260 459 220 403 Q199 374 185.5 357.5 Q172 341 163 332.5 Q154 324 149 321.5 Q144 319 142 319 Q140 319 136 321 Q132 323 132 328 Q132 335 136.5 341 Q141 347 146 353 Q163 372 182 396.5 Q201 421 222.5 454 Q244 487 267 530.5 Q290 574 316 631 Q328 658 335 673 Q342 688 347 695.5 Q352 703 356 705 Q360 707 366 707 Q372 707 375.5 705 Q379 703 382.5 695.5 Q386 688 391 672.5 Q396 657 405 630 Q443 518 481.5 440 Q520 362 541 325 L442 325 Z " />
<glyph glyph-name="underscore" unicode="&#x5f;" horiz-adv-x="517" d="M379 -91 L379 -136 L-92 -136 L-92 -91 L379 -91 Z " />
<glyph glyph-name="grave" unicode="&#x60;" horiz-adv-x="517" d="M385 527 Q386 521 387 517.5 Q388 514 388 511 Q388 503 382 503 Q378 503 376 507 Q374 511 372 515 L275 675 L362 675 L385 527 Z " />
<glyph glyph-name="a" unicode="a" horiz-adv-x="487" d="M362 302 Q371 322 373 331 Q375 340 375 345 Q375 353 372.5 361.5 Q370 370 366 378 Q360 389 346 399.5 Q332 410 307 410 Q281 410 264.5 400 Q248 390 235.5 377.5 Q223 365 210.5 349 Q198 333 185 313 Q172 293 162.5 276 Q153 259 138 230 Q112 177 104 140.5 Q96 104 96 79 Q96 69 97 59 Q98 49 103 40 Q108 30 119 20.5 Q130 11 151 11 Q160 11 169 13.5 Q178 16 186 20 Q201 27 213 38 Q230 52 248.5 75.5 Q267 99 284 134 L362 302 Z M414 412 Q418 420 419 424 Q420 428 428 428 Q434 428 437.5 426.5 Q441 425 446 424.5 Q451 424 456 424 Q464 424 473.5 425.5 Q483 427 488 430 Q490 431 495.5 432.5 Q501 434 501 426 Q501 424 493 405 L361 105 Q358 98 355 91.5 Q352 85 349.5 77 Q347 69 344.5 58.5 Q342 48 342 40 Q342 21 352 17 Q362 13 368 13 Q378 13 391 17 Q404 21 419 35 Q427 42 433.5 50 Q440 58 446 66 Q449 70 451.5 73.5 Q454 77 458 77 Q462 77 462 73 Q462 68 454.5 57 Q447 46 440 38 Q425 21 400 6 Q375 -9 337 -9 Q299 -9 282 8.5 Q265 26 265 46 Q265 53 267 61.5 Q269 70 272 80 Q261 63 247 47 Q233 31 218 19 Q198 3 176 -5 Q154 -13 125 -13 Q110 -13 91 -8.5 Q72 -4 52 11 Q26 31 17 57.5 Q8 84 8 107 Q8 144 25 187.5 Q42 231 71 271 Q88 294 107 315 Q126 336 147 355 Q189 393 227 412 Q265 431 305 431 Q313 431 327 429.5 Q341 428 355 420 Q372 410 379.5 393 Q387 376 389 359 L414 412 Z " />
<glyph glyph-name="b" unicode="b" horiz-adv-x="467" d="M99 100 Q97 90 92.5 70.5 Q88 51 88 42 Q88 27 94.5 19 Q101 11 109.5 7 Q118 3 127 2.5 Q136 2 141 2 Q169 2 198 15 Q216 23 233.5 38.5 Q251 54 267 72.5 Q283 91 296 112 Q309 133 318 153 Q338 189 354 230 Q368 268 374.5 295 Q381 322 381 344 Q381 366 376 380 Q371 394 363 401 Q355 408 346 410.5 Q337 413 329 413 Q305 413 276.5 398 Q248 383 218 343 Q197 315 179 281 Q161 247 147 214 L99 100 Z M239 421 Q230 398 227 393 Q224 388 215 371 L217 368 L248 398 Q259 409 275.5 416 Q292 423 309 427 Q317 429 324.5 430 Q332 431 340 431 Q369 431 398 417 Q427 403 444 374 Q462 342 462 304 Q462 275 453 244 Q444 213 428 182.5 Q412 152 389 123.5 Q366 95 338 71 Q290 29 239 8 Q188 -13 144 -13 Q112 -13 87.5 -4.5 Q63 4 46.5 18 Q30 32 21.5 49 Q13 66 13 84 Q13 100 20.5 120.5 Q28 141 42 174 L254 658 Q261 672 263.5 677 Q266 682 266.5 684.5 Q267 687 262.5 691 Q258 695 240 695 Q234 695 227.5 694.5 Q221 694 215 694 Q207 694 205.5 696 Q204 698 204 700 Q204 705 212.5 706 Q221 707 225 707 L246 707 Q260 707 291 708 L323 708 Q329 708 334 709 Q339 710 345 710 Q353 710 355.5 708 Q358 706 358 704 Q358 699 354.5 694 Q351 689 346.5 680 Q342 671 334 654 L239 421 Z " />
<glyph glyph-name="c" unicode="c" horiz-adv-x="356" d="M351 365 Q358 365 362 363 Q368 360 371 360 Q375 360 377 364 Q379 368 379 371 Q379 384 366 395 Q356 403 341.5 407.5 Q327 412 316 412 Q305 412 295.5 409.5 Q286 407 276 403 Q252 392 226 369 Q200 346 173 302 Q169 296 157.5 276 Q146 256 133.5 226.5 Q121 197 111.5 161.5 Q102 126 102 90 Q102 78 104 66 Q106 54 111 43 Q121 23 138 15 Q155 7 179 7 Q193 7 207.5 10.5 Q222 14 230 19 Q247 27 264 43.5 Q281 60 293 76 Q295 78 299.5 83 Q304 88 309 88 Q314 88 314 82 Q314 76 307.5 66.5 Q301 57 291 47 Q281 37 269 27 Q257 17 247 11 Q207 -13 159 -13 Q139 -13 118.5 -8.5 Q98 -4 80 6 Q70 12 59 21 Q48 30 38.5 44.5 Q29 59 22.5 78.5 Q16 98 16 124 Q16 155 27 188 Q35 213 47.5 235 Q60 257 74 276.5 Q88 296 102 311.5 Q116 327 128 339 Q178 388 227.5 409 Q277 430 317 430 Q359 430 380 407.5 Q401 385 401 356 Q401 331 388 319 Q375 307 360 307 Q346 307 335 317 Q324 327 324 341 Q324 349 329 357 Q334 365 351 365 Z " />
<glyph glyph-name="d" unicode="d" horiz-adv-x="507" d="M370 289 Q379 312 384.5 326.5 Q390 341 390 352 Q390 363 384 374.5 Q378 386 370 393 Q362 401 348.5 406 Q335 411 322 411 Q308 411 291 405.5 Q274 400 255.5 386 Q237 372 215.5 348 Q194 324 171 287 Q139 236 118.5 183 Q98 130 98 89 Q98 62 106.5 47.5 Q115 33 126 26 Q137 19 148 17.5 Q159 16 164 16 Q185 16 205 25 Q228 36 246.5 56.5 Q265 77 278 97 Q283 105 288.5 114 Q294 123 299 132 Q319 168 330 192 Q341 216 347 230 L370 289 Z M389 122 Q377 92 370 76 Q363 60 363 46 Q363 29 373 22.5 Q383 16 395 16 Q412 16 434.5 28 Q457 40 477 69 Q482 76 483.5 79.5 Q485 83 489 85 Q490 86 492 86 Q499 86 499 78 Q499 71 488.5 56 Q478 41 465 30 Q449 16 423 4 Q397 -8 365 -8 Q343 -8 328.5 -1.5 Q314 5 305 15 Q296 25 292.5 38 Q289 51 289 63 Q289 68 289.5 75 Q290 82 291 85 Q280 68 265 50.5 Q250 33 234 20 Q215 5 193.5 -4 Q172 -13 140 -13 Q83 -13 48 22 Q13 57 13 116 Q13 164 39.5 222.5 Q66 281 125 338 Q177 388 229 410.5 Q281 433 320 433 Q334 433 350.5 428.5 Q367 424 378 414 Q386 407 393 394.5 Q400 382 403 372 L416 399 L530 670 Q531 672 532.5 677 Q534 682 534 684 Q534 692 525 692 Q516 692 505 693 Q486 694 481 694.5 Q476 695 474 696.5 Q472 698 472 701 Q473 705 476.5 706 Q480 707 488 707 Q492 707 503.5 706.5 Q515 706 529 706 Q543 706 556.5 705.5 Q570 705 578 705 Q595 705 602.5 706 Q610 707 615 709 Q620 711 625 711 Q631 711 631 705 Q631 701 627.5 696.5 Q624 692 617 675 L389 122 Z " />
<glyph glyph-name="e" unicode="e" horiz-adv-x="380" d="M147 255 Q200 250 241.5 264.5 Q283 279 314 315 Q335 339 339.5 354.5 Q344 370 344 379 Q344 388 338.5 399 Q333 410 313 410 Q290 410 272 399.5 Q254 389 250 386 Q221 364 193.5 326.5 Q166 289 147 255 Z M139 242 Q133 231 127 218 Q121 205 116 188 Q108 165 105 144 Q102 123 102 100 Q102 92 103.5 77 Q105 62 112.5 47 Q120 32 136 21 Q152 10 180 10 Q205 10 221.5 17 Q238 24 252 32 Q259 36 264.5 39.5 Q270 43 275 47.5 Q280 52 286 58 Q292 64 300 74 Q303 78 307.5 83 Q312 88 317 88 Q322 88 322 82 Q322 76 316.5 68.5 Q311 61 303.5 52.5 Q296 44 288 37 Q280 30 275 26 Q258 13 232 0 Q206 -13 164 -13 Q132 -13 105 -3.5 Q78 6 57.5 23.5 Q37 41 25.5 66 Q14 91 14 122 Q14 140 19 164 Q24 188 37.5 215.5 Q51 243 74.5 274 Q98 305 136 338 Q191 386 239.5 408 Q288 430 332 430 Q377 430 396 409 Q415 388 415 362 Q415 351 408 328 Q401 305 372 283 Q349 266 320 255 Q285 242 250 239 Q220 237 210 237 Q189 237 171 238.5 Q153 240 139 242 Z " />
<glyph glyph-name="f" unicode="f" horiz-adv-x="269" d="M157 169 Q140 122 122 77.5 Q104 33 83 -12 Q55 -72 28 -115 Q1 -158 -26 -190 Q-45 -212 -62 -226 Q-79 -240 -95.5 -248.5 Q-112 -257 -129 -260.5 Q-146 -264 -165 -264 Q-189 -264 -205.5 -258.5 Q-222 -253 -231.5 -245 Q-241 -237 -245.5 -226.5 Q-250 -216 -250 -207 Q-250 -187 -236 -176.5 Q-222 -166 -206 -166 Q-196 -166 -186 -171 Q-176 -176 -176 -191 Q-176 -199 -179.5 -203.5 Q-183 -208 -186 -212 Q-192 -220 -192 -225 Q-192 -232 -185.5 -239.5 Q-179 -247 -162 -247 Q-145 -247 -128 -241 Q-113 -234 -102 -226 Q-85 -214 -73 -197 Q-65 -186 -57 -172 Q-49 -158 -40 -138 Q-31 -118 -21 -90.5 Q-11 -63 3 -24 L154 405 L81 405 Q72 405 66 404 Q60 403 55.5 405 Q51 407 51 413 Q51 418 56 422.5 Q61 427 85 427 L162 427 Q194 507 214.5 546.5 Q235 586 247 604 Q279 647 302.5 666 Q326 685 356 696 Q387 707 419 707 Q464 707 486 687 Q508 667 508 643 Q508 625 497 614.5 Q486 604 471 604 Q456 604 447.5 613 Q439 622 439 632 Q439 640 442.5 644.5 Q446 649 451 654 Q453 656 454.5 659 Q456 662 456 668 Q456 676 447 684.5 Q438 693 414 693 Q399 693 384 688.5 Q369 684 355 670 Q339 656 327 633 Q315 610 304 581 Q296 561 289 542 Q282 523 275 503 L248 427 L350 427 Q355 427 362 428 Q369 429 372 425.5 Q375 422 375 416 Q375 409 369.5 407 Q364 405 361 405 L243 405 L157 169 Z " />
<glyph glyph-name="g" unicode="g" horiz-adv-x="433" d="M65 -26 Q42 -38 29.5 -53 Q17 -68 10.5 -82.5 Q4 -97 3 -123 Q3 -141 7.5 -159 Q12 -177 23 -191 Q27 -196 35.5 -205 Q44 -214 58.5 -223 Q73 -232 94.5 -238.5 Q116 -245 146 -245 Q188 -245 223.5 -232.5 Q259 -220 284.5 -199.5 Q310 -179 324.5 -153 Q339 -127 339 -101 Q339 -86 333 -72.5 Q327 -59 315 -48 Q303 -37 289 -33.5 Q275 -30 254 -28 Q233 -26 214 -26 L65 -26 Z M264 413 Q247 413 234.5 406 Q222 399 211.5 387 Q201 375 192.5 360 Q184 345 177 329 Q172 317 167 305 Q162 293 158 280 Q153 263 148.5 238.5 Q144 214 144 196 Q144 174 152 159 Q157 149 170 139 Q183 129 206 129 Q241 129 257.5 151 Q274 173 289 206 Q306 244 313.5 279.5 Q321 315 321 340 Q321 382 303 397.5 Q285 413 264 413 Z M237 51 Q278 51 304 42 Q314 39 325.5 32.5 Q337 26 346.5 14 Q356 2 362 -16.5 Q368 -35 368 -62 Q368 -110 351 -144 Q334 -178 311 -201 Q271 -243 212 -256 Q181 -263 144 -263 Q119 -263 99.5 -261 Q80 -259 63.5 -254.5 Q47 -250 33 -243 Q19 -236 4 -227 Q-5 -221 -17.5 -212 Q-30 -203 -41.5 -190.5 Q-53 -178 -61 -161.5 Q-69 -145 -69 -124 Q-69 -97 -57.5 -81.5 Q-46 -66 -36.5 -59 Q-27 -52 -11 -44 Q5 -36 43 -22 Q29 -17 13.5 -6.5 Q-2 4 -9 18 Q-15 30 -15 46 Q-15 63 -7.5 83 Q0 103 23 121 Q37 132 59.5 142 Q82 152 101 157 Q90 169 82 187 Q69 214 69 245 Q69 288 91 329 Q117 377 163 403.5 Q209 430 260 430 Q281 430 301 424 Q315 419 331.5 408 Q348 397 362 375 Q376 400 398 416.5 Q420 433 440 433 Q461 433 472 420.5 Q483 408 483 392 Q483 378 475.5 369 Q468 360 454 360 Q445 360 438 364 Q425 371 425 387 Q424 392 426 395 Q428 398 428 402 Q428 408 421 408 Q415 408 407.5 401 Q400 394 392.5 385 Q385 376 374 359 Q381 338 386 322 Q391 302 391 281 Q391 243 376.5 211 Q362 179 342 159 Q328 145 312 135 Q289 121 264.5 116 Q240 111 217 111 Q196 111 169 116.5 Q142 122 113 144 Q105 142 97.5 138.5 Q90 135 82 132 Q67 125 51.5 115 Q36 105 36 85 Q36 69 47 64 Q58 59 66 57 Q79 54 97 52.5 Q115 51 129 51 L237 51 Z " />
<glyph glyph-name="h" unicode="h" horiz-adv-x="501" d="M201 307 Q211 320 226 335.5 Q241 351 257.5 366 Q274 381 291 394.5 Q308 408 324 416 Q344 427 361 430 Q378 433 394 433 Q419 433 440 424 Q464 413 471 397 Q478 381 478 369 Q478 355 470.5 330 Q463 305 455 288 L364 79 Q357 64 352 52 Q347 40 347 32 Q347 21 353.5 19 Q360 17 363 17 Q367 17 390 24 Q413 31 454 67 Q468 80 473 80 Q479 80 479 73 Q479 67 469 58.5 Q459 50 442 37 Q425 24 397 7.5 Q369 -9 331 -9 Q299 -9 284 8.5 Q269 26 269 48 Q269 66 277 84.5 Q285 103 293 122 L381 319 Q387 332 395 347 Q403 362 403 378 Q403 389 399 396 Q397 399 390.5 405 Q384 411 370 411 Q358 411 343 406 Q322 398 304.5 384.5 Q287 371 270 355 Q253 340 238 323 Q223 307 212 292 Q201 277 190.5 260 Q180 243 169.5 221 Q159 199 146 169 L81 23 Q74 7 71 2.5 Q68 -2 58 -2 Q53 -2 47 -1 Q41 0 31 0 Q16 0 6.5 -2 Q-3 -4 -8 -4 Q-13 -4 -15 -3 Q-17 -2 -17 1 Q-13 10 -8 19 L267 645 L274 661 Q282 678 282 685 Q282 691 278 692.5 Q274 694 263 694 L234 694 Q221 694 221 702 Q222 708 239 708 L324 707 Q331 707 338 707.5 Q345 708 352 709.5 Q359 711 362.5 711.5 Q366 712 371 712 Q380 712 380 705 Q380 703 378.5 699 Q377 695 372 684 Q367 676 363 666 L214 334 L201 307 Z " />
<glyph glyph-name="i" unicode="i" horiz-adv-x="240" d="M286 654 Q306 654 315.5 641.5 Q325 629 325 611 Q325 598 320 589 Q315 580 308 575 Q299 569 286 569 Q266 569 256.5 578.5 Q247 588 245 593 Q240 603 240 614 Q240 632 253.5 643 Q267 654 286 654 Z M113 100 Q101 72 95.5 58.5 Q90 45 90 36 Q90 25 97 16 Q104 7 118 7 Q135 7 157.5 18.5 Q180 30 199 53 Q203 58 206 61.5 Q209 65 213 65 Q215 65 216 64 Q219 62 219 59 Q219 53 209 42 Q199 31 191 23 Q173 8 148.5 -2.5 Q124 -13 96 -13 Q64 -13 40 3.5 Q16 20 16 54 Q16 71 22.5 88.5 Q29 106 41 132 L155 386 Q158 391 160 397 Q160 403 154 404.5 Q148 406 140 407 L117 409 Q108 409 108 416 Q108 418 110.5 421.5 Q113 425 119 425 Q122 425 133 423 Q144 421 157 421 L195 421 Q202 421 208 421.5 Q214 422 224 424.5 Q234 427 239 429.5 Q244 432 248 432 Q256 432 256 425 Q254 416 250.5 409.5 Q247 403 241.5 392 Q236 381 228 363 L113 100 Z " />
<glyph glyph-name="j" unicode="j" horiz-adv-x="234" d="M296 655 Q310 655 323 646 Q336 637 336 617 Q336 593 320 578.5 Q304 564 284 564 Q270 564 261.5 569.5 Q253 575 249 583 Q245 590 245 600 Q245 616 252.5 629 Q260 642 273 649 Q283 655 296 655 Z M109 67 Q100 45 87 17.5 Q74 -10 59 -39 Q44 -68 27.5 -96 Q11 -124 -5 -146 Q-16 -161 -28 -175.5 Q-40 -190 -54 -203 Q-85 -232 -114.5 -244.5 Q-144 -257 -181 -257 Q-205 -257 -220 -252 Q-235 -247 -243.5 -239 Q-252 -231 -255.5 -222 Q-259 -213 -259 -205 Q-259 -185 -246 -174 Q-233 -163 -219 -163 Q-199 -163 -189 -180 Q-185 -188 -185 -194 Q-185 -200 -188 -206 Q-195 -224 -195 -226 Q-195 -232 -188 -237.5 Q-181 -243 -168 -243 Q-152 -243 -134 -235 Q-116 -227 -105 -215 Q-103 -213 -96.5 -203.5 Q-90 -194 -77 -171 Q-67 -153 -57 -132 Q-47 -111 -38 -90.5 Q-29 -70 -21 -51 Q-13 -32 -7 -18 L155 382 Q159 390 160 397 Q160 401 151 404 Q140 406 129.5 406.5 Q119 407 110 410 Q104 412 104 417 Q104 424 116 424 Q123 424 127.5 423 Q132 422 143 421 Q153 420 165 420 L196 420 Q208 420 218.5 422.5 Q229 425 234 427.5 Q239 430 244 430 Q246 430 249.5 428.5 Q253 427 253 423 Q253 421 251.5 416 Q250 411 242 391 L109 67 Z " />
<glyph glyph-name="k" unicode="k" horiz-adv-x="493" d="M76 12 Q74 8 65 5 Q56 2 43.5 0 Q31 -2 18 -3 Q5 -4 -4 -4 Q-8 -4 -9.5 -2 Q-11 0 -11 2 Q-11 7 -9.5 9 Q-8 11 -6 14 L267 667 Q270 674 270 678 Q270 682 266.5 686 Q263 690 248 690 Q233 690 227 689.5 Q221 689 216 688 Q211 687 204 687 Q197 687 195 689.5 Q193 692 193 693 Q193 703 207 702.5 Q221 702 234 702 L288 702 Q315 703 328 704.5 Q341 706 349 709 Q357 712 362 712 Q368 712 368 706 Q367 696 358 678 L182 265 L218 265 Q233 264 244 269 Q257 275 269 288 Q281 301 303 330 Q335 367 356.5 390.5 Q378 414 401 427 Q415 435 427 438 Q439 441 451 441 Q486 441 500 424.5 Q514 408 514 388 Q514 370 503.5 356.5 Q493 343 474 343 Q457 343 450.5 353.5 Q444 364 444 372 L444 395 Q444 412 438 416 Q432 420 427 420 Q419 420 406 410 Q393 400 378 384.5 Q363 369 346.5 351 Q330 333 317 317 Q304 302 295.5 291.5 Q287 281 275 270.5 Q263 260 248 255 Q259 253 272 251 Q285 249 300.5 244 Q316 239 329 227.5 Q342 216 342 185 Q342 167 338.5 140 Q335 113 330 78 Q328 62 327 55 Q326 48 325 33 Q325 25 329 19 Q333 13 343 13 Q356 13 371 22.5 Q386 32 399.5 48 Q413 64 424 84.5 Q435 105 441 128 Q442 133 444.5 139.5 Q447 146 455 146 Q464 146 463 137 Q463 129 455 108.5 Q447 88 438 72.5 Q429 57 419.5 45 Q410 33 395.5 21 Q381 9 361 0 Q341 -9 316 -9 Q287 -9 266 8 Q245 25 245 63 Q245 76 247 92.5 Q249 109 252 126 L264 185 Q265 190 267 201 Q269 212 265.5 223 Q262 234 251 239 Q240 244 231.5 246 Q223 248 210 248 Q187 247 174 245 L76 12 Z " />
<glyph glyph-name="l" unicode="l" horiz-adv-x="243" d="M122 115 Q106 76 101.5 60 Q97 44 97 36 Q97 21 108.5 15 Q120 9 133 9 Q153 9 170.5 20.5 Q188 32 205 51 Q213 60 216.5 64.5 Q220 69 223 69 Q225 69 228 67 Q231 65 231 61 Q231 58 224 47 Q217 36 198 20 Q180 5 156 -4.5 Q132 -14 100 -14 Q65 -14 41.5 0.5 Q18 15 18 47 Q18 67 25 84.5 Q32 102 43 128 L267 673 Q269 678 270 682 Q270 688 265.5 689 Q261 690 251 690 L232 690 Q226 690 216.5 691 Q207 692 207 698 Q207 703 212.5 703.5 Q218 704 220 704 Q230 704 239.5 703 Q249 702 272 702 Q291 702 303.5 702.5 Q316 703 330 705.5 Q344 708 351 708 Q356 708 358.5 705 Q361 702 361 699 Q361 695 356 686 L122 115 Z " />
<glyph glyph-name="m" unicode="m" horiz-adv-x="691" d="M217 339 Q219 341 222 344.5 Q225 348 239 363 Q250 374 261 386.5 Q272 399 289 410 Q308 422 326.5 427 Q345 432 365 432 Q376 432 391.5 429.5 Q407 427 419 415 Q431 404 437 380.5 Q443 357 442 337 Q452 354 466.5 370.5 Q481 387 498.5 400.5 Q516 414 536.5 422.5 Q557 431 580 431 Q595 431 610 427 Q625 423 636.5 414 Q648 405 655.5 390.5 Q663 376 663 355 Q663 334 656 315 Q649 296 638 270 L564 102 Q554 80 550 68.5 Q546 57 546 46 Q546 41 549 32 Q552 23 569 23 Q582 23 599.5 31.5 Q617 40 637 60 Q641 64 646 68.5 Q651 73 656 73 Q659 73 660 72 L661 71 Q661 67 657 59.5 Q653 52 628 33 Q616 24 596.5 14 Q577 4 562 0 Q550 -3 536 -3 Q514 -3 499.5 5 Q485 13 479 24 Q475 30 474 37 Q473 44 473 51 Q473 66 478 81 Q483 96 486 104 L495 125 L568 294 Q581 323 587.5 338.5 Q594 354 594 370 Q594 383 588.5 395 Q583 407 564 407 Q548 407 532.5 399 Q517 391 503.5 380.5 Q490 370 479.5 358.5 Q469 347 463 340 Q452 326 442 310.5 Q432 295 421.5 275 Q411 255 399.5 229.5 Q388 204 374 170 L314 29 Q310 20 305.5 8 Q301 -4 293 -4 Q290 -4 288.5 -3.5 Q287 -3 284 -2.5 Q281 -2 274.5 -1.5 Q268 -1 256 -1 Q245 -1 243 -1.5 Q241 -2 241 -2 Q241 -3 239 -3.5 Q237 -4 227 -4 Q222 -4 221 -2 Q220 0 220 2 Q220 5 222 7.5 Q224 10 225 12 L339 282 Q347 302 354.5 321.5 Q362 341 368 361 Q370 367 371 372.5 Q372 378 372 384 Q372 401 358 408 Q351 412 342 412 Q326 412 300.5 397 Q275 382 246 347 Q220 318 208 300 Q196 282 194 279 Q183 262 175.5 245.5 Q168 229 161 213 L81 26 Q76 15 73.5 6.5 Q71 -2 64 -2 Q60 -2 57 -1.5 Q54 -1 50 0 Q45 2 39 1.5 Q33 1 28 1 Q19 1 15 1 Q12 1 10 1 Q8 1 7 0.5 Q6 0 3 -1 Q-2 -2 -3.5 -2.5 Q-5 -3 -7 -3 Q-12 -3 -12 2 Q-12 6 -9.5 8 Q-7 10 -4 16 Q-2 18 -2 19 Q-2 21 0 26 L161 399 Q162 401 160 405 Q158 409 143 409 Q115 409 115 419 Q115 421 117 423.5 Q119 426 127 426 Q132 426 137 425.5 Q142 425 147 424 Q155 423 164 422.5 Q173 422 181 422 Q192 422 204 422.5 Q216 423 226 425.5 Q236 428 237 429.5 Q238 431 244 431 Q246 431 248 429.5 Q250 428 250 424 Q250 420 247.5 415 Q245 410 242 404 Q230 378 222 353 L217 339 Z " />
<glyph glyph-name="n" unicode="n" horiz-adv-x="492" d="M208 328 L231 353 Q258 383 291 405 Q306 415 326.5 423 Q347 431 374 431 Q413 431 439 408 Q453 396 458.5 382 Q464 368 464 351 Q464 330 456 310 Q448 290 438 268 L357 85 Q348 65 345.5 56 Q343 47 343 42 Q343 30 353 24 Q359 21 367 21 Q383 21 398 29.5 Q413 38 425 48 Q442 62 447.5 66 Q453 70 456 70 Q459 70 460.5 68 Q462 66 462 64 Q462 60 452 50.5 Q442 41 437 36 Q420 22 391 10.5 Q362 -1 333 -1 Q298 -1 280 14 Q262 29 262 47 Q262 53 264.5 62 Q267 71 270.5 80 Q274 89 277 96.5 Q280 104 281 107 L361 286 Q377 321 383.5 340.5 Q390 360 390 372 Q390 386 381 397 Q372 408 354 408 Q340 408 325 402 Q310 396 296 386 Q282 376 269.5 364.5 Q257 353 247 342 Q232 326 222 313.5 Q212 301 204.5 289 Q197 277 190.5 265 Q184 253 178 240 Q173 230 169.5 221 Q166 212 161 202 L79 12 Q77 7 76 2 Q75 -3 68 -3 Q62 -3 52.5 -1.5 Q43 0 29 0 Q19 0 14.5 -0.5 Q10 -1 6 -2 Q2 -3 -2 -3 Q-9 -3 -9 2 Q-9 4 -7.5 6 Q-6 8 -4 12 L154 389 Q157 395 159 400 Q159 407 149 407.5 Q139 408 134 408 Q129 408 120 409.5 Q111 411 107 414 Q104 415 104 419 Q104 426 115 426 Q122 426 128 424.5 Q134 423 141.5 422.5 Q149 422 160 422 Q177 422 188.5 423 Q200 424 211 426 Q219 427 223.5 428.5 Q228 430 231.5 431.5 Q235 433 239 433 Q246 433 246 426 Q246 422 244 418 L208 328 Z " />
<glyph glyph-name="o" unicode="o" horiz-adv-x="462" d="M297 410 Q269 410 246 397.5 Q223 385 205.5 367 Q188 349 175 328.5 Q162 308 153 291 Q141 268 130.5 241.5 Q120 215 112 187 Q104 159 99.5 131 Q95 103 95 78 Q95 53 101.5 38 Q108 23 118 15 Q128 7 139.5 4.5 Q151 2 162 2 Q187 2 207.5 10.5 Q228 19 245.5 34 Q263 49 276.5 68.5 Q290 88 302 110 Q315 135 326.5 163.5 Q338 192 346.5 222 Q355 252 360 280.5 Q365 309 365 334 Q365 340 363.5 353 Q362 366 355.5 378.5 Q349 391 335.5 400.5 Q322 410 297 410 Z M305 428 Q337 428 362.5 416 Q388 404 405.5 382.5 Q423 361 432.5 332 Q442 303 442 269 Q442 201 410.5 148.5 Q379 96 335 58 Q282 12 236.5 -2 Q191 -16 161 -16 Q127 -16 100.5 -3.5 Q74 9 55.5 30 Q37 51 27.5 78.5 Q18 106 18 136 Q18 162 25.5 191.5 Q33 221 48 250.5 Q63 280 85.5 308.5 Q108 337 139 361 Q177 391 221 409.5 Q265 428 305 428 Z " />
<glyph glyph-name="p" unicode="p" horiz-adv-x="485" d="M120 113 Q118 107 113.5 94.5 Q109 82 109 73 Q109 58 117 44 Q123 33 137 21 Q151 9 177 9 Q189 9 201 12.5 Q213 16 224 21 Q242 30 270 56.5 Q298 83 331 145 Q358 196 376.5 250 Q395 304 395 349 Q395 361 391.5 376 Q388 391 372 401 Q359 408 343 408 Q314 408 285 389.5 Q256 371 236 346 Q213 319 191.5 277.5 Q170 236 153 195 L120 113 Z M-23 -232 Q-20 -232 -13 -232 Q-7 -232 1.5 -232.5 Q10 -233 19 -234 Q28 -235 35 -236 Q40 -237 45 -238 Q50 -239 50 -242 Q50 -248 40.5 -249 Q31 -250 27 -250 Q14 -250 1 -249.5 Q-12 -249 -26 -248 Q-36 -247 -45.5 -246.5 Q-55 -246 -65 -246 Q-82 -246 -90 -246.5 Q-98 -247 -105.5 -248 Q-113 -249 -124.5 -249.5 Q-136 -250 -160 -250 Q-163 -250 -166 -250 Q-170 -250 -173 -249 Q-178 -248 -179.5 -246 Q-181 -244 -181 -242 Q-181 -240 -177 -236 Q-173 -232 -153 -231 Q-141 -230 -128 -229.5 Q-115 -229 -106 -222 Q-98 -215 -92.5 -202.5 Q-87 -190 -81 -175 L151 382 Q157 396 160 406 Q160 412 156 413 Q152 414 145 414 L136 414 Q126 413 121 413 Q115 413 109.5 414.5 Q104 416 104 421 Q104 426 108 427 Q112 428 116 428 L155 428 Q199 428 213.5 430 Q228 432 235 434 Q242 436 246 436 Q252 436 252 430 Q251 422 248 415.5 Q245 409 239.5 396 Q234 383 224 362 Q249 388 283 410 Q317 432 359 432 Q382 432 401.5 425.5 Q421 419 435 408 Q451 396 465.5 373 Q480 350 480 312 Q480 289 476 270 Q466 215 437 165 Q408 115 369 77 Q341 49 310 30 Q276 9 243 -1 Q210 -11 179 -11 Q166 -11 150 -8 Q134 -5 119 9 Q100 27 92 50 L-23 -232 Z " />
<glyph glyph-name="q" unicode="q" horiz-adv-x="466" d="M369 313 Q372 321 375 331.5 Q378 342 378 350 Q378 372 359.5 390 Q341 408 308 408 Q284 408 264 398.5 Q244 389 228 374.5 Q212 360 200 344 Q188 328 179 315 Q165 294 150.5 265.5 Q136 237 124 206.5 Q112 176 104 145.5 Q96 115 96 90 Q96 73 101.5 53.5 Q107 34 127 21 Q144 10 164 10 Q179 10 195.5 16 Q212 22 225 32 Q240 43 255 61 Q268 77 276 91.5 Q284 106 293 126 Q298 138 303.5 150 Q309 162 314 175 L369 313 Z M226 -236 Q233 -237 239 -237 Q246 -237 253 -238 Q257 -238 260.5 -238.5 Q264 -239 268 -239 Q274 -240 281.5 -241 Q289 -242 289 -247 Q289 -253 281.5 -253.5 Q274 -254 271 -254 Q266 -254 253 -253.5 Q240 -253 225 -252 Q210 -251 194.5 -250.5 Q179 -250 169 -250 Q156 -250 146.5 -250.5 Q137 -251 127 -251 Q118 -251 107.5 -251.5 Q97 -252 83 -252 Q77 -252 71 -251.5 Q65 -251 65 -246 Q65 -238 90 -236 Q109 -235 121 -235 Q134 -235 140 -231 Q143 -229 145.5 -225 Q148 -221 150 -218 L238 7 Q240 13 243 17.5 Q246 22 249 31 Q234 20 222 12 Q210 4 198 -2 Q186 -8 173.5 -11 Q161 -14 144 -14 Q121 -14 100 -7.5 Q79 -1 59 14 Q13 50 13 114 Q13 149 25 187 Q37 225 58 260 Q81 298 114 332 Q134 352 157.5 370 Q181 388 206.5 401.5 Q232 415 258 422.5 Q284 430 308 430 Q322 430 338.5 426.5 Q355 423 369 409 Q385 393 393 367 L403 404 Q407 417 409 421 Q411 425 419 425 Q424 425 429.5 424.5 Q435 424 440 424 Q455 424 460.5 425.5 Q466 427 470.5 430 Q475 433 482 433 Q487 433 488 426 Q488 423 486 417.5 Q484 412 478 397 L226 -236 Z " />
<glyph glyph-name="r" unicode="r" horiz-adv-x="336" d="M193 300 Q237 360 278.5 394 Q320 428 355 428 Q375 428 389.5 417 Q404 406 404 384 Q404 361 389 348 Q374 335 361 335 Q345 335 345 346 Q345 350 347 355 Q349 360 349 368 Q349 376 344.5 383.5 Q340 391 325 391 Q314 391 302.5 385.5 Q291 380 280.5 371.5 Q270 363 260.5 353 Q251 343 244 335 Q228 318 216 302.5 Q204 287 193 269 Q182 251 170.5 229.5 Q159 208 146 178 L74 20 Q70 11 68.5 5.5 Q67 0 63 -2 Q62 -3 58 -3 Q54 -3 52 -2.5 Q50 -2 47.5 -1.5 Q45 -1 40 -0.5 Q35 0 26 0 Q14 0 10 -1 Q6 -2 -6 -2 Q-15 -2 -15 2 Q-15 4 -13.5 5.5 Q-12 7 -10 12 L158 393 Q160 397 161 400 Q161 404 157.5 406 Q154 408 150 408 Q145 408 138 407 L121 407 Q117 407 111.5 407.5 Q106 408 106 414 Q106 421 123 421 Q141 421 158 422 Q172 422 182.5 423 Q193 424 208.5 426.5 Q224 429 228 431 Q232 433 237 433 Q243 433 243 427 Q242 417 236 405 L193 300 Z " />
<glyph glyph-name="s" unicode="s" horiz-adv-x="346" d="M286 431 Q322 431 350 409 Q368 395 374 380 Q380 365 380 354 Q380 334 367.5 323.5 Q355 313 343 313 Q329 313 321 322 Q313 331 313 342 Q313 351 319 358.5 Q325 366 333 366 Q340 366 344 362 Q348 360 352 360 Q357 360 358 362 Q359 364 359 366 Q359 374 353 382.5 Q347 391 340 397 Q329 406 315 411 Q302 416 289 416 Q269 416 250 405.5 Q231 395 221 378 Q213 362 213 346 Q213 324 222 300 Q231 276 239 258 Q243 250 246 241 Q249 232 253 224 Q260 207 265.5 189.5 Q271 172 271 146 Q271 122 262.5 92.5 Q254 63 229 36 Q219 26 208.5 17.5 Q198 9 185 3 Q149 -14 110 -14 Q82 -14 59 -7 Q36 0 19 12 Q-10 32 -20.5 57 Q-31 82 -31 102 Q-31 111 -29.5 119.5 Q-28 128 -23 136 Q-15 152 -1 159 Q13 166 27 166 Q36 166 48 161 Q73 148 73 122 Q73 114 70 108 Q67 103 61 97.5 Q55 92 44 92 Q37 92 25 96 Q13 100 13 114 Q13 122 15.5 126 Q18 130 18 135 Q18 139 16.5 141.5 Q15 144 9 145 Q3 145 -1.5 141.5 Q-6 138 -10 126.5 Q-14 115 -14 102 Q-14 85 -6 67.5 Q2 50 15 37 Q28 23 45 16 Q70 5 95 5 Q114 5 130.5 10 Q147 15 162 29 Q175 40 183 55.5 Q191 71 191 93 Q191 104 189 114.5 Q187 125 184 136 Q181 147 177.5 158.5 Q174 170 170 181 Q165 196 160.5 210.5 Q156 225 153 240 Q150 258 150 276 Q150 296 154 315.5 Q158 335 168 354 Q179 375 193 390 Q211 409 235 420 Q259 431 286 431 Z " />
<glyph glyph-name="t" unicode="t" horiz-adv-x="255" d="M93 73 Q90 67 86.5 56.5 Q83 46 83 39 Q83 25 93.5 21 Q104 17 114 17 Q129 17 141.5 22 Q154 27 163.5 34 Q173 41 180 48.5 Q187 56 192 62 Q195 66 198.5 70.5 Q202 75 206 75 Q210 75 212 72.5 Q214 70 214 68 Q214 65 211 62 Q209 58 201.5 48 Q194 38 187 32 Q171 17 145.5 5 Q120 -7 90 -7 Q70 -7 56.5 -2.5 Q43 2 34 9 Q18 20 13.5 33.5 Q9 47 9 57 Q9 69 14 82 Q17 91 22 102 L163 403 L114 403 Q105 403 105 411 Q105 420 112 421.5 Q119 423 124 423 Q141 422 159 423 L171 423 L188 468 Q193 482 196.5 486 Q200 490 204 490 Q209 490 215.5 488 Q222 486 234 486 Q244 486 249 488 Q254 490 262 494 Q271 498 274 498 Q278 498 278 493 Q273 483 270 476 L245 423 L307 425 Q319 427 326 427 Q338 427 338 419 Q338 413 333.5 410 Q329 407 322.5 405.5 Q316 404 309 404 L240 403 L93 73 Z " />
<glyph glyph-name="u" unicode="u" horiz-adv-x="487" d="M377 136 L362 101 Q355 85 351.5 76.5 Q348 68 345.5 58 Q343 48 343 37 Q344 26 349.5 18.5 Q355 11 367 11 Q384 11 397.5 18.5 Q411 26 422 34 Q433 43 441.5 51.5 Q450 60 456 68 Q458 70 460.5 73 Q463 76 466 76 Q472 76 472 70 Q472 67 470 63 Q468 58 463 51.5 Q458 45 448 36 Q440 29 430.5 22 Q421 15 413 10 Q405 5 387.5 -3 Q370 -11 344 -11 Q315 -11 291.5 3.5 Q268 18 268 44 Q268 52 271 62 Q274 72 276 78 L289 113 Q272 92 246 64.5 Q220 37 198 20 Q181 7 160.5 -1.5 Q140 -10 107 -10 Q77 -10 58.5 -3.5 Q40 3 30.5 12 Q21 21 17.5 31.5 Q14 42 14 50 Q14 64 18.5 78.5 Q23 93 28 104.5 Q33 116 36 122 L155 388 Q160 398 155.5 400 Q151 402 147 402 Q141 402 130.5 403 Q120 404 115 405 Q103 407 103 415 Q104 421 111 421 Q121 420 126 419 Q132 418 138 417.5 Q144 417 155 417 Q172 417 184.5 418 Q197 419 209 420.5 Q221 422 226 423.5 Q231 425 234 426.5 Q237 428 240 428 Q246 428 246 423 Q246 420 244 415 Q242 410 237 397 L118 119 Q106 92 101 78 Q96 64 94.5 55 Q93 46 93 40 Q93 24 102 16.5 Q111 9 129 9 Q150 9 173.5 23.5 Q197 38 231 73 Q253 96 270 117.5 Q287 139 300.5 161 Q314 183 325 206 Q336 229 347 255 L411 407 Q415 416 416.5 417.5 Q418 419 421 419 Q430 418 434.5 417.5 Q439 417 443 417 L458 417 Q465 417 471 417.5 Q477 418 482 419 Q486 420 488.5 421 Q491 422 493 422 Q499 422 496 413 L377 136 Z " />
<glyph glyph-name="v" unicode="v" horiz-adv-x="437" d="M183 170 Q171 138 162 105 Q156 79 155 59 Q155 32 167.5 20 Q180 8 198 8 Q223 8 245.5 24.5 Q268 41 281 54 Q303 76 320 99 Q337 122 367 179 Q386 221 393 242 Q400 263 405 287.5 Q410 312 410 337 Q410 350 407.5 360 Q405 370 395 370 Q389 370 383 367.5 Q377 365 372 365 Q364 365 354.5 371 Q345 377 345 390 Q345 404 356 416.5 Q367 429 387 429 Q402 429 413 422 Q426 414 429 400.5 Q432 387 432 373 Q432 327 421 280 Q410 232 387.5 181 Q365 130 326 80 Q297 43 258.5 15 Q220 -13 172 -13 Q143 -13 119 -1 Q92 13 82.5 33.5 Q73 54 73 71 Q73 79 74 91 Q75 103 79.5 119.5 Q84 136 92.5 159.5 Q101 183 112 209 L175 358 Q182 373 182 382 Q182 395 175 399.5 Q168 404 158 404 Q145 404 132.5 396 Q120 388 111 380 Q91 363 77 345.5 Q63 328 56 315 Q53 310 50 305 Q47 300 41 300 Q33 299 32 307 Q32 315 48.5 337.5 Q65 360 87 381 Q123 415 149 422.5 Q175 430 189 430 Q224 430 241 412.5 Q258 395 258 372 Q258 364 254.5 346.5 Q251 329 239 300 L183 170 Z " />
<glyph glyph-name="w" unicode="w" horiz-adv-x="672" d="M400 145 Q396 136 393 127 Q390 118 387 109 Q384 98 381 82.5 Q378 67 378 55 Q378 29 391 17.5 Q404 6 421 6 Q439 6 457 16 Q475 25 492.5 40.5 Q510 56 526 74.5 Q542 93 555 112 Q568 131 578 148 Q591 171 603 197.5 Q615 224 623 250.5 Q631 277 636 302.5 Q641 328 641 349 Q641 363 637.5 367.5 Q634 372 628 372 Q621 372 618.5 370 Q616 368 610 368 Q594 368 587.5 375.5 Q581 383 581 393 Q581 408 594 419 Q607 430 622 430 Q630 430 640 425 Q650 420 656 403 Q659 395 660 386 Q661 377 661 368 Q661 319 647 264 Q633 209 608 161 Q599 143 588 126 Q577 109 565 92 Q528 43 485.5 14.5 Q443 -14 401 -14 Q380 -14 365 -6.5 Q350 1 339.5 12 Q329 23 323 36.5 Q317 50 314 62 Q312 73 311 86 Q310 99 311 110 Q306 100 301 91 Q296 82 291 73 Q283 61 275.5 50 Q268 39 258 29 Q240 9 217 -2 Q194 -13 163 -13 Q125 -13 97.5 9.5 Q70 32 70 74 Q70 96 78.5 127.5 Q87 159 98 185 L158 323 Q163 335 168 350.5 Q173 366 173 380 Q173 397 165 402 Q157 407 150 407 Q136 407 118 394.5 Q100 382 86 369 Q70 352 64.5 344 Q59 336 52 323 Q49 317 46.5 314.5 Q44 312 41 312 Q35 312 35 320 Q35 323 36.5 327.5 Q38 332 40 335 Q46 346 56 358 Q66 370 74 378 Q90 396 111 409 Q126 419 143 425 Q160 431 181 431 Q215 431 234.5 416 Q254 401 254 373 Q254 368 252 355.5 Q250 343 242 316 Q238 305 232.5 289 Q227 273 222 262 L163 132 Q140 83 140 48 Q140 43 141 36 Q142 29 145.5 22 Q149 15 156 10 Q163 5 175 5 Q201 5 227.5 27.5 Q254 50 276 82 Q294 109 312 144.5 Q330 180 344 215 L395 338 Q397 343 401 355 Q405 367 408 377 Q411 387 416 402 Q418 407 423 408 Q428 409 431 409 Q446 409 457 410.5 Q468 412 476 413.5 Q484 415 490.5 417 Q497 419 501 419 Q503 419 506 418 Q509 417 509 413 Q509 410 506 406 Q500 395 494 380 L400 145 Z " />
<glyph glyph-name="x" unicode="x" horiz-adv-x="468" d="M208 216 Q217 249 220 260 Q225 276 229 293.5 Q233 311 235 323.5 Q237 336 237 347 Q237 358 236 367 Q235 376 231 384 Q226 397 217 401.5 Q208 406 195 406 Q175 406 155.5 396.5 Q136 387 120 372 Q113 366 105 356 Q97 346 84 328 Q80 322 75 316 Q70 310 65 310 Q59 310 58 317 Q58 323 64 332 Q67 336 75 347 Q83 358 94 369 Q108 383 124 397 Q140 411 160 419 Q184 430 218 430 Q239 430 257.5 425 Q276 420 288 409 Q304 395 311 369.5 Q318 344 318 325 Q328 341 342 360 Q356 379 370 392 Q395 416 416.5 423.5 Q438 431 455 431 Q460 431 464 430.5 Q468 430 473 429 Q478 428 482 426 Q486 424 491 422 Q499 417 507.5 406.5 Q516 396 516 378 Q516 365 511 358 Q506 351 500 347.5 Q494 344 488.5 343.5 Q483 343 483 343 Q471 343 462.5 350 Q454 357 454 368 Q454 375 456.5 377.5 Q459 380 463 382 Q466 384 469 387 Q472 390 472 397 Q472 405 466 411 Q460 417 447 417 Q427 417 401 397 Q391 389 382 379.5 Q373 370 365 360 Q355 348 345.5 335.5 Q336 323 327 306 Q319 292 308.5 266 Q298 240 283 190 Q276 167 267.5 132.5 Q259 98 259 60 Q259 54 260 44.5 Q261 35 265 26 Q269 17 277.5 10.5 Q286 4 301 4 Q320 4 338 14 Q362 27 382 50 Q402 73 413 93 Q415 95 415.5 98 Q416 101 418 103 Q420 105 423 110.5 Q426 116 431 116 Q436 116 436 110 Q436 101 425.5 82.5 Q415 64 406 52 Q389 31 372 18 Q355 5 338.5 -1.5 Q322 -8 307.5 -10.5 Q293 -13 281 -13 Q275 -13 259 -11.5 Q243 -10 226.5 -1.5 Q210 7 197 24.5 Q184 42 184 74 Q184 79 184 87 Q184 95 187 114 Q177 96 161 71 Q145 46 131 30 Q110 7 86 -2.5 Q62 -12 36 -12 Q4 -12 -14 5 Q-20 10 -26 20 Q-32 30 -32 47 Q-32 69 -19 84 Q-12 91 -5 94 Q2 97 10 97 Q20 97 31 90 Q42 82 42 67 Q42 60 38.5 54.5 Q35 49 24 42 Q19 39 16 36.5 Q13 34 13 27 Q13 22 16.5 17 Q20 12 28 8 Q35 5 45 5 Q61 5 80 14 Q99 23 120 45 Q131 57 141 71 Q151 85 160 99 Q180 131 190 158 Q200 185 208 216 Z " />
<glyph glyph-name="y" unicode="y" horiz-adv-x="484" d="M258 73 L433 359 Q446 381 455 394.5 Q464 408 473 417 Q482 426 489.5 429 Q497 432 507 432 Q530 432 537 420.5 Q544 409 544 399 Q544 385 535 374 Q526 363 508 363 Q503 363 498 364.5 Q493 366 491 371 Q489 376 487 381 Q485 386 480 386 Q476 386 472.5 382 Q469 378 464.5 371.5 Q460 365 456 359 Q452 353 451 351 L318 135 L265 48 L190 -69 Q162 -110 132.5 -143.5 Q103 -177 50 -220 Q40 -228 16.5 -242 Q-7 -256 -38 -256 Q-55 -256 -68.5 -248 Q-82 -240 -82 -223 Q-82 -206 -69.5 -195 Q-57 -184 -39 -184 Q-24 -184 -21.5 -192 Q-19 -200 -19 -209 Q-19 -214 -17.5 -220.5 Q-16 -227 -5 -227 Q5 -227 18.5 -219.5 Q32 -212 46 -200 Q60 -188 74.5 -174 Q89 -160 100 -146 Q122 -120 134 -102 Q146 -84 154 -70 Q159 -59 164 -46 Q169 -33 169.5 -16.5 Q170 0 169 48 L168 330 Q168 343 167.5 355 Q167 367 164 377 Q161 387 155 393 Q149 399 139 399 Q126 399 116 390.5 Q106 382 100 374 Q87 359 80.5 347 Q74 335 69 322 Q66 314 61.5 304 Q57 294 49 294 Q40 294 41 303 Q44 312 47.5 320.5 Q51 329 61 351 L71 368 Q89 397 115 416 Q141 435 180 435 Q194 435 210 430 Q226 425 234 405 Q238 396 241 378.5 Q244 361 243 328 L240 114 L241 48 L258 73 Z " />
<glyph glyph-name="z" unicode="z" horiz-adv-x="403" d="M63 71 Q84 76 95 78.5 Q106 81 119 81 Q151 81 184.5 69.5 Q218 58 255 44 Q290 30 304 30 Q318 30 331 40.5 Q344 51 344 71 Q344 91 327 95 Q320 97 311.5 101 Q303 105 303 119 Q303 133 313 142 Q323 151 337 151 Q348 151 359 143.5 Q370 136 370 111 Q370 91 361 64 Q352 37 325 13 Q299 -10 283.5 -16 Q268 -22 259 -22 Q241 -22 220.5 -17 Q200 -12 171 -1.5 Q142 9 106.5 19 Q71 29 59.5 32 Q48 35 40 35 Q33 35 30 29.5 Q27 24 25 18 Q24 13 20.5 5.5 Q17 -2 6 -2 Q-6 -2 -6 8 Q-6 18 -1.5 26 Q3 34 7 39 Q23 57 34 69.5 Q45 82 65 103 Q134 179 193.5 235 Q253 291 287 319 Q296 326 302 331 Q308 336 313 340 Q318 344 322.5 348 Q327 352 332 358 Q293 344 269 341.5 Q245 339 229 339 Q200 339 181.5 344 Q163 349 151 354 Q139 359 131.5 364 Q124 369 119 372 Q114 375 110 375 Q104 375 100.5 369.5 Q97 364 93 354 Q89 344 83 326 Q81 321 79 316.5 Q77 312 69 312 Q62 312 62 319 Q62 323 65 329 Q68 335 75 351 Q83 370 86 381.5 Q89 393 94 408 Q96 417 98 426 Q100 435 102.5 438.5 Q105 442 111 442 Q118 442 127.5 437.5 Q137 433 145 430 Q181 416 224 404 Q267 392 324 392 Q336 392 348 393 Q372 395 379 401 Q386 407 386 415 Q386 418 385 421 Q384 424 384 427 Q384 439 397 439 Q401 439 405 436 Q409 433 409 420 Q409 415 406.5 405.5 Q404 396 392.5 385 Q381 374 371 366 Q360 357 338 337.5 Q316 318 290.5 295.5 Q265 273 241 251 Q217 229 202 216 Q129 148 63 71 Z " />
<glyph glyph-name="braceleft" unicode="&#x7b;" horiz-adv-x="375" d="M331 445 Q313 394 283 366.5 Q253 339 227 327 Q207 318 180.5 311.5 Q154 305 131 303 Q161 299 185 282 Q213 262 221 237.5 Q229 213 229 197 Q229 183 224 156.5 Q219 130 201 92 L169 23 Q161 4 154 -21.5 Q147 -47 147 -66 Q147 -91 162 -98.5 Q177 -106 195 -108 Q203 -109 209 -109.5 Q215 -110 222 -110 Q227 -110 229.5 -111 Q232 -112 232 -117 Q232 -122 227 -122.5 Q222 -123 212 -123 Q193 -123 166.5 -120.5 Q140 -118 119.5 -109 Q99 -100 86 -82.5 Q73 -65 73 -35 Q73 -14 79 4 Q85 22 96 49 L132 139 Q135 148 139.5 161.5 Q144 175 148 189.5 Q152 204 155 218 Q158 232 158 241 Q158 260 151.5 271 Q145 282 135 288 Q125 294 114.5 297 Q104 300 92 300 Q84 301 76.5 300.5 Q69 300 69 306 Q69 311 73 311.5 Q77 312 82 312 L116 311 Q150 310 171.5 322.5 Q193 335 204 348 Q212 358 220.5 376 Q229 394 243 435 L278 542 Q284 561 292 582 Q300 603 312.5 623 Q325 643 344.5 660.5 Q364 678 393 692 Q428 708 453.5 710.5 Q479 713 497 713 Q504 713 508 712 Q512 711 512 706 Q512 701 508.5 700 Q505 699 497 699 Q484 699 462.5 695.5 Q441 692 424 678 Q409 666 400 644.5 Q391 623 383 597 Q372 562 367.5 547.5 Q363 533 359 523 L331 445 Z " />
<glyph glyph-name="bar" unicode="&#x7c;" horiz-adv-x="517" d="M308 689 L308 -172 L251 -172 L251 689 L308 689 Z " />
<glyph glyph-name="braceright" unicode="&#x7d;" horiz-adv-x="378" d="M110 128 Q117 148 125 167.5 Q133 187 143.5 205 Q154 223 169 239.5 Q184 256 206 269 Q230 283 262 292.5 Q294 302 321 305 Q302 308 284.5 316.5 Q267 325 253.5 338.5 Q240 352 232 369.5 Q224 387 224 408 Q224 432 233.5 459 Q243 486 257 524 L281 585 Q292 614 294.5 632 Q297 650 297 659 Q297 666 295.5 673.5 Q294 681 288 687 Q282 693 269.5 697 Q257 701 235 702 Q227 702 219.5 701.5 Q212 701 212 709 Q212 714 216.5 714.5 Q221 715 227 715 Q236 715 244 714.5 Q252 714 264.5 712.5 Q277 711 290 709 Q303 707 315 703 Q350 692 360.5 670 Q371 648 371 624 Q371 606 366.5 592 Q362 578 352 550 L320 463 Q311 439 303 414.5 Q295 390 295 366 Q295 348 301 336 Q307 324 322 317 Q333 312 344 310.5 Q355 309 368 309 Q375 309 379 308 Q383 307 383 302 Q383 296 364 296 L347 296 Q306 296 282.5 284 Q259 272 248 259 Q239 248 232 229.5 Q225 211 213 176 L173 62 Q162 32 151.5 8 Q141 -16 127 -36 Q113 -56 94 -72 Q75 -88 49 -100 Q17 -115 -8 -118.5 Q-33 -122 -53 -122 Q-63 -122 -67 -121 Q-71 -120 -71 -115 Q-71 -109 -67 -108 Q-63 -107 -54 -107 Q-41 -107 -19 -102.5 Q3 -98 17 -87 Q33 -75 42 -53 Q51 -31 64 4 L110 128 Z " />
<glyph glyph-name="asciitilde" unicode="&#x7e;" horiz-adv-x="605" d="M462 673 Q432 683 415 687.5 Q398 692 375 692 Q361 692 347 689 Q333 686 323.5 680 Q314 674 308 668.5 Q302 663 292 652 Q283 642 279.5 637 Q276 632 272 632 Q265 632 265 639 Q265 646 284 668 Q294 679 300.5 687.5 Q307 696 319 707 Q339 724 361 733.5 Q383 743 410 743 Q436 743 460.5 734.5 Q485 726 502 720 Q533 709 549 705 Q565 701 585 701 Q600 701 618 703.5 Q636 706 649 713 Q658 718 664.5 724.5 Q671 731 676 738 Q681 745 684.5 751 Q688 757 694 757 Q699 757 699 751 Q699 744 695 738 Q691 732 684.5 723.5 Q678 715 670 705 Q662 695 649 684 Q630 668 606 658 Q582 648 557 648 Q537 648 515 655.5 Q493 663 462 673 Z " />
<glyph glyph-name="uni00A0" unicode="&#xa0;" horiz-adv-x="233" d="" />
<glyph glyph-name="currency" unicode="&#xa4;" horiz-adv-x="650" d="M326 134 Q371 134 407.5 152 Q444 170 469.5 198.5 Q495 227 508.5 263.5 Q522 300 522 337 Q522 373 508 408 Q494 443 468.5 471 Q443 499 406.5 516.5 Q370 534 326 534 Q285 534 249 519 Q213 504 186 477.5 Q159 451 143 415.5 Q127 380 127 338 Q127 288 145 250 Q163 212 191.5 186 Q220 160 255.5 147 Q291 134 326 134 Z M96 605 L179 521 Q217 550 256.5 560 Q296 570 329 570 Q358 570 395 559.5 Q432 549 470 518 L556 605 L588 573 L504 488 Q539 448 550 407.5 Q561 367 561 337 Q561 305 550 265.5 Q539 226 509 187 L594 102 L562 70 L478 155 Q441 124 400 110.5 Q359 97 321 97 Q308 97 291 99 Q274 101 254.5 107 Q235 113 214 124 Q193 135 172 152 L89 69 L57 101 L141 183 Q138 187 129 200.5 Q120 214 111 234.5 Q102 255 95 281 Q88 307 88 337 Q88 376 103 415.5 Q118 455 147 489 L64 573 L96 605 Z " />
<glyph glyph-name="brokenbar" unicode="&#xa6;" horiz-adv-x="517" d="M308 159 L308 -172 L251 -172 L251 159 L308 159 Z M308 689 L308 343 L251 343 L251 689 L308 689 Z " />
<glyph glyph-name="section" unicode="&#xa7;" horiz-adv-x="497" d="M285 378 Q270 391 258 403 Q246 415 228 433 Q204 417 187 392 Q170 367 170 344 Q170 327 184 300 Q198 273 241 237 L290 196 Q297 190 303 185 Q309 180 316.5 173.5 Q324 167 334 156.5 Q344 146 358 129 Q376 139 393.5 158.5 Q411 178 411 208 Q411 227 403 246 Q395 265 382 283 Q369 301 352 317.5 Q335 334 318 349 L285 378 Z M380 419 Q411 391 428.5 374 Q446 357 457 337 Q477 303 477 265 Q477 243 471 224 Q464 199 454 183 Q444 167 434 157 Q421 144 401.5 131.5 Q382 119 367 111 Q372 98 376.5 82 Q381 66 381 46 Q381 21 375.5 0.5 Q370 -20 361.5 -36 Q353 -52 343.5 -64 Q334 -76 325 -84 Q302 -106 268 -124.5 Q234 -143 187 -143 Q160 -143 129.5 -133.5 Q99 -124 71 -98 Q53 -81 39 -58 Q20 -25 20 13 Q20 26 24.5 39.5 Q29 53 43 61 Q54 68 71 68 Q91 68 103.5 57 Q116 46 116 24 Q116 4 106.5 -2 Q97 -8 88 -12 Q81 -14 73.5 -19 Q66 -24 66 -35 Q66 -46 70.5 -58.5 Q75 -71 83.5 -82 Q92 -93 118.5 -108.5 Q145 -124 180 -124 Q232 -124 264.5 -90.5 Q297 -57 297 0 Q297 25 289.5 45 Q282 65 271 80.5 Q260 96 246.5 109 Q233 122 220 133 L180 168 Q160 186 146 200 Q132 214 123 228 Q114 242 110 256.5 Q106 271 106 289 Q106 322 116.5 348.5 Q127 375 151 400 Q179 428 213 445 Q199 468 194.5 489.5 Q190 511 190 523 Q190 570 217 610.5 Q244 651 292 673 Q331 692 378 692 Q423 692 459.5 675 Q496 658 515 630 Q523 619 527.5 605.5 Q532 592 532 578 Q532 550 516 535.5 Q500 521 480 521 Q464 521 448.5 530.5 Q433 540 433 561 Q433 576 440 584 Q447 592 456 595.5 Q465 599 471 601 Q481 605 481 611 Q481 621 473.5 632 Q466 643 452.5 653 Q439 663 420 669.5 Q401 676 377 676 Q361 676 345.5 672.5 Q330 669 316 661 Q290 646 278.5 622.5 Q267 599 267 570 Q267 547 271.5 535.5 Q276 524 289.5 506.5 Q303 489 328 466 L380 419 Z " />
<glyph glyph-name="dieresis" unicode="&#xa8;" horiz-adv-x="517" d="M452 611 Q475 611 484.5 597 Q494 583 494 567 Q494 545 478.5 529.5 Q463 514 440 514 Q424 514 410.5 523.5 Q397 533 397 554 Q397 578 413 594.5 Q429 611 452 611 Z M285 609 Q305 609 315 595.5 Q325 582 325 565 Q325 540 308.5 526 Q292 512 271 512 Q255 512 241.5 521.5 Q228 531 228 553 Q228 578 245 593.5 Q262 609 285 609 Z " />
<glyph glyph-name="copyright" unicode="&#xa9;" horiz-adv-x="786" d="M599 432 Q597 428 595.5 425 Q594 422 586 422 Q583 422 579 423.5 Q575 425 575 431 Q575 435 576 438.5 Q577 442 579 448 Q583 462 582 482 Q581 502 573 517 Q565 532 551 541 Q537 550 514 550 Q480 550 444.5 529.5 Q409 509 380 467 Q372 454 364.5 440.5 Q357 427 351 413 Q320 341 320 276 Q320 259 322 242 Q324 225 332 210 Q343 189 360 180 Q377 171 398 171 Q420 171 439 179 Q458 187 473.5 199 Q489 211 500.5 224 Q512 237 520 247 Q525 252 529 256.5 Q533 261 539 261 Q548 261 548 253 Q548 248 542.5 240 Q537 232 530.5 224 Q524 216 517.5 209.5 Q511 203 509 201 Q473 166 435.5 152.5 Q398 139 364 139 Q304 139 271.5 173 Q239 207 239 265 Q239 320 263 374.5 Q287 429 326 472 Q365 515 415 541.5 Q465 568 516 568 Q544 568 560.5 560.5 Q577 553 591 543 Q602 535 606.5 531 Q611 527 614 527 Q617 527 618 529 Q619 531 621 533 Q625 538 629 539 Q633 540 635 540 Q642 540 642 533 Q642 526 631 505 Q625 493 619 480.5 Q613 468 608 455 L599 432 Z M467 674 Q397 674 334.5 645.5 Q272 617 225.5 568.5 Q179 520 151.5 456 Q124 392 124 322 Q124 258 147 202.5 Q170 147 210.5 106 Q251 65 305 41.5 Q359 18 422 18 Q493 18 556 46.5 Q619 75 666 123.5 Q713 172 740.5 236 Q768 300 768 372 Q768 436 744.5 491.5 Q721 547 680 587.5 Q639 628 584.5 651 Q530 674 467 674 Z M476 704 Q545 704 605 678.5 Q665 653 709.5 608 Q754 563 779.5 502.5 Q805 442 805 372 Q805 294 774 224 Q743 154 690.5 101.5 Q638 49 568.5 18.5 Q499 -12 421 -12 Q350 -12 289 13.5 Q228 39 183 84 Q138 129 112.5 190 Q87 251 87 321 Q87 399 118 468.5 Q149 538 202 590.5 Q255 643 325.5 673.5 Q396 704 476 704 Z " />
<glyph glyph-name="guillemotleft" unicode="&#xab;" horiz-adv-x="401" d="M299 246 Q278 228 278 220 Q278 216 282 205 Q286 194 288 190 L324 116 Q327 110 328.5 105.5 Q330 101 332 96 Q334 91 334 88 Q334 84 332 83 Q330 82 329 82 Q326 82 322 85.5 Q318 89 307 100 L228 182 Q219 191 215 195 Q211 199 212 205 L215 232 Q216 240 220 243 Q224 246 240 257 L340 322 L407 362 Q411 365 414 365 Q421 365 421 358 Q421 354 412 346 L399 334 L299 246 Z M128 246 Q107 228 107 220 Q107 216 111 205 Q115 194 117 190 L153 116 Q156 110 157.5 105.5 Q159 101 161 96 Q163 91 163 88 Q163 84 161 83 Q159 82 158 82 Q154 82 143 93 L136 100 L57 182 Q48 191 44 195 Q40 199 41 205 L44 232 Q45 240 49 243 Q53 246 69 257 L169 322 L236 362 Q240 365 243 365 Q250 365 250 358 Q250 354 241 346 L228 334 L128 246 Z " />
<glyph glyph-name="logicalnot" unicode="&#xac;" horiz-adv-x="525" d="M470 0 L406 0 L406 185 L55 185 L55 221 L470 221 L470 0 Z " />
<glyph glyph-name="uni00AD" unicode="&#xad;" horiz-adv-x="263" d="M242 211 L40 211 L48 266 L252 266 L242 211 Z " />
<glyph glyph-name="registered" unicode="&#xae;" horiz-adv-x="786" d="M419 374 Q433 374 452.5 376 Q472 378 489 383 Q529 394 547.5 421 Q566 448 566 478 Q566 498 557.5 515.5 Q549 533 536 538.5 Q523 544 504 544 Q486 544 482 539 Q478 534 474 519 L419 374 Z M347 188 Q345 183 343 179 Q341 175 341 170 Q341 163 345 162 Q349 161 354 161 L377 161 Q383 161 387 159.5 Q391 158 391 154 Q391 147 382.5 146 Q374 145 367 145 Q344 145 321.5 146 Q299 147 267 147 Q253 147 246 146.5 Q239 146 232 145.5 Q225 145 222 145 Q214 145 212 147.5 Q210 150 210 153 Q210 159 215.5 159.5 Q221 160 229 160 Q237 160 246 160.5 Q255 161 262 166 Q268 171 271.5 179.5 Q275 188 279 198 L399 509 Q404 523 406 528 Q408 533 408 536 Q408 546 397.5 545.5 Q387 545 375 546 Q364 547 364 553 Q364 561 377 561 L488 561 Q504 561 538 557.5 Q572 554 595 544.5 Q618 535 628.5 514 Q639 493 639 475 Q639 448 619.5 423 Q600 398 565 383 Q546 375 523.5 370.5 Q501 366 473 364 Q497 358 508.5 352.5 Q520 347 529.5 337.5 Q539 328 544.5 310 Q550 292 548 259 L545 207 Q544 189 544 179 Q544 169 546 162 Q548 154 554 154 Q560 154 559 163 Q559 177 568 180 Q577 183 581 183 Q585 183 590.5 180.5 Q596 178 596 171 Q596 160 581.5 149.5 Q567 139 541 139 Q502 139 487 160.5 Q472 182 472 199.5 Q472 217 474 236 L478 284 Q479 307 475.5 323 Q472 339 461.5 346.5 Q451 354 434.5 356 Q418 358 412 358 L347 188 Z M467 674 Q397 674 334.5 645.5 Q272 617 225.5 568.5 Q179 520 151.5 456 Q124 392 124 322 Q124 258 147 202.5 Q170 147 210.5 106 Q251 65 305.5 41.5 Q360 18 423 18 Q493 18 556 46.5 Q619 75 666 123 Q713 171 740.5 235.5 Q768 300 768 372 Q768 436 744.5 491.5 Q721 547 680 587.5 Q639 628 584.5 651 Q530 674 467 674 Z M476 704 Q545 704 605 678.5 Q665 653 709.5 608 Q754 563 779.5 502.5 Q805 442 805 372 Q805 294 774 224 Q743 154 690.5 101.5 Q638 49 568.5 18.5 Q499 -12 421 -12 Q350 -12 289 14 Q228 40 183 85 Q138 130 112.5 191 Q87 252 87 323 Q87 400 118 469.5 Q149 539 202 591 Q255 643 325.5 673.5 Q396 704 476 704 Z " />
<glyph glyph-name="degree" unicode="&#xb0;" horiz-adv-x="409" d="M355 675 Q324 675 303 654 Q282 633 282 601 Q282 568 302.5 551 Q323 534 346 534 Q361 534 374.5 540 Q388 546 398.5 556.5 Q409 567 415.5 581 Q422 595 422 610 Q422 621 418 633 Q414 645 403 657 Q399 662 388.5 668.5 Q378 675 355 675 Z M357 706 Q399 706 427.5 678 Q456 650 456 608 Q456 586 447 566.5 Q438 547 423 533 Q408 519 388.5 510.5 Q369 502 349 502 Q328 502 309.5 510 Q291 518 277 532 Q263 546 255 564 Q247 582 247 603 Q247 626 256 645 Q265 664 280 677.5 Q295 691 315 698.5 Q335 706 357 706 Z " />
<glyph glyph-name="plusminus" unicode="&#xb1;" horiz-adv-x="524" d="M518 12 L104 12 L104 48 L518 48 L518 12 Z M518 353 L518 317 L329 317 L329 132 L293 132 L293 317 L104 317 L104 353 L293 353 L293 538 L329 538 L329 353 L518 353 Z " />
<glyph glyph-name="acute" unicode="&#xb4;" horiz-adv-x="517" d="M535 677 Q537 677 541.5 676.5 Q546 676 546 672 Q546 670 543 667 Q540 664 538 662 Q531 656 526 652 L353 524 Q344 517 335.5 511 Q327 505 323 505 Q319 505 319 508 Q319 511 326 517 L454 677 L535 677 Z " />
<glyph glyph-name="mu" unicode="&#xb5;" horiz-adv-x="495" d="M383 136 Q364 93 357 72.5 Q350 52 350 37 Q350 29 354 20 Q358 11 375 11 Q391 11 404.5 18.5 Q418 26 428 34 Q444 47 457 63 Q459 66 463.5 71 Q468 76 472 76 Q479 77 478 69 Q478 66 474.5 61 Q471 56 469 52 Q458 38 444.5 27.5 Q431 17 420 10 Q397 -4 378 -7.5 Q359 -11 348 -11 Q315 -11 295 5.5 Q275 22 275 43 Q276 60 281 74.5 Q286 89 296 113 Q286 104 273.5 88 Q261 72 245 56 Q229 40 211.5 25.5 Q194 11 179 4 Q161 -5 144.5 -7.5 Q128 -10 111 -10 Q92 -10 75.5 -7 Q59 -4 43 7 Q38 -10 34 -27.5 Q30 -45 28 -53 L7 -169 Q2 -199 -7 -217 Q-16 -235 -26 -244.5 Q-36 -254 -46 -257 Q-56 -260 -64 -260 Q-78 -260 -92 -250.5 Q-106 -241 -106 -218 Q-106 -202 -98 -183 Q-90 -164 -73 -127 L157 377 Q161 385 166 395 Q166 402 156.5 402.5 Q147 403 142 403 Q134 403 122 404.5 Q110 406 110 414 Q110 422 118 421 Q122 421 135 419 Q148 417 159 417 Q187 417 201.5 419 Q216 421 229.5 424.5 Q243 428 248 428 Q253 428 253 423 Q248 408 244 398.5 Q240 389 233 372 L124 118 Q122 114 118 104 Q114 94 110 82 Q106 70 102.5 58 Q99 46 99 39 Q99 22 112 16 Q125 10 136 10 Q149 10 163.5 16.5 Q178 23 191.5 32.5 Q205 42 217 53.5 Q229 65 238 74 Q280 118 307.5 164 Q335 210 354 255 L418 407 Q420 411 421 415 Q422 419 428 419 Q433 419 438.5 418 Q444 417 453.5 417 Q463 417 473 417.5 Q483 418 488 419.5 Q493 421 499 422 Q504 421 504 417 Q504 416 502.5 413 Q501 410 496 397 L383 136 Z " />
<glyph glyph-name="paragraph" unicode="&#xb6;" horiz-adv-x="538" d="M509 671 L325 162 Q308 114 292.5 74.5 Q277 35 258 -2 Q243 -31 231.5 -47 Q220 -63 212.5 -72 Q205 -81 201 -85.5 Q197 -90 197 -96 Q197 -101 202 -101 Q206 -101 217 -93.5 Q228 -86 241 -75.5 Q254 -65 265.5 -55 Q277 -45 282 -39 Q290 -30 297.5 -20 Q305 -10 312 1 Q333 35 348.5 71 Q364 107 376 142 L561 671 L509 671 Z M400 143 Q383 96 360 46.5 Q337 -3 302 -43 Q270 -78 228 -106 Q214 -115 200.5 -123.5 Q187 -132 172 -139 Q150 -150 126 -156 Q102 -162 82 -162 Q38 -162 12.5 -142.5 Q-13 -123 -13 -100 Q-13 -77 3 -60 Q19 -43 38 -43 Q57 -43 69.5 -56 Q82 -69 82 -87 Q82 -98 78 -101.5 Q74 -105 71 -109 Q69 -111 67 -115.5 Q65 -120 65 -123 Q65 -129 71.5 -134.5 Q78 -140 91 -140 Q105 -140 119.5 -134 Q134 -128 146 -119 Q169 -102 187.5 -75 Q206 -48 222 -19 Q234 3 244.5 24 Q255 45 264.5 66.5 Q274 88 283 111.5 Q292 135 302 163 L355 315 Q298 313 265.5 321 Q233 329 213 341 Q203 347 191.5 356.5 Q180 366 169.5 380 Q159 394 152 412.5 Q145 431 145 455 Q145 485 155.5 514.5 Q166 544 184 570 Q202 596 226.5 617.5 Q251 639 279 654 Q311 671 341 677.5 Q371 684 383 686 Q400 688 417.5 689 Q435 690 452 690 L669 690 Q671 690 678 689 Q685 688 685 680 Q685 678 683 674.5 Q681 671 670 671 L584 671 L400 143 Z " />
<glyph glyph-name="middot" unicode="&#xb7;" horiz-adv-x="223" d="M64 98 Q87 98 99 84.5 Q111 71 111 49 Q111 24 95.5 8.5 Q80 -7 54 -7 Q31 -7 18.5 5 Q6 17 6 39 Q6 65 22 81.5 Q38 98 64 98 Z " />
<glyph glyph-name="guillemotright" unicode="&#xbb;" horiz-adv-x="425" d="M387 266 Q402 253 402 247 Q402 242 400.5 230.5 Q399 219 397 214 Q395 209 392 206 Q389 203 374 193 L299 143 L253 115 Q225 98 215 91 Q205 84 200 84 Q193 84 193 90 Q193 94 199 100 Q205 106 221 120 L308 195 Q320 205 329.5 214.5 Q339 224 339 233 Q339 241 323 266 Q317 275 305.5 293 Q294 311 285 328 Q276 345 270.5 355 Q265 365 262 370.5 Q259 376 258 380 Q258 384 263 384 Q268 384 276 377 Q286 366 299 353 L387 266 Z M219 266 Q234 253 234 247 Q234 242 232.5 230.5 Q231 219 229 214 Q227 209 224 206 Q221 203 206 193 L131 143 L85 115 Q57 98 47 91 Q37 84 32 84 Q25 84 25 90 Q25 94 31 100 Q37 106 53 120 L140 195 Q156 209 163.5 217 Q171 225 171 233 Q171 241 155 266 Q149 275 137.5 293 Q126 311 117 328 Q108 345 102.5 355 Q97 365 94 370.5 Q91 376 90 380 Q90 384 95 384 Q100 384 108 377 Q118 366 131 353 L219 266 Z " />
<glyph glyph-name="dotlessi" unicode="&#x131;" horiz-adv-x="240" d="M113 100 Q101 72 95.5 58.5 Q90 45 90 36 Q90 25 97 16 Q104 7 118 7 Q135 7 157.5 18.5 Q180 30 199 53 Q203 58 206 61.5 Q209 65 213 65 Q219 65 219 59 Q219 53 209 42 Q199 31 191 23 Q173 8 148.5 -2.5 Q124 -13 96 -13 Q64 -13 40 3.5 Q16 20 16 54 Q16 71 22.5 88.5 Q29 106 41 132 L155 386 Q157 391 160 397 Q160 403 154 404.5 Q148 406 140 407 L117 409 Q108 409 108 416 Q108 418 110.5 421.5 Q113 425 119 425 Q126 424 133 423 Q144 421 157 421 L195 421 Q202 421 212 422.5 Q222 424 232 428 Q242 432 248 432 Q256 432 256 425 Q253 416 244.5 398.5 Q236 381 228 363 L113 100 Z " />
<glyph glyph-name="uni0401" unicode="&#x401;" horiz-adv-x="573" d="M285 374 Q293 373 307.5 372 Q322 371 331 371 Q361 371 385 379.5 Q409 388 427 401.5 Q445 415 456.5 432.5 Q468 450 474 468 Q476 473 478.5 478 Q481 483 487 483 Q494 483 494 475 Q494 471 491.5 465 Q489 459 483 445 L424 307 Q421 301 416.5 289 Q412 277 407.5 263.5 Q403 250 399 238 Q395 226 393.5 220 Q392 214 390 207.5 Q388 201 382 201 Q371 201 377 219 Q386 247 389 264 Q392 281 392 295 Q392 305 389.5 316.5 Q387 328 375 338 Q361 349 337.5 351.5 Q314 354 292 354 Q277 354 272 343 L160 68 Q154 54 151 46.5 Q148 39 148 32.5 Q148 26 154 24.5 Q160 23 179 23 L272 23 Q318 23 353 27.5 Q388 32 419 45.5 Q450 59 471 83 Q485 100 499.5 131.5 Q514 163 523 188 Q525 193 529 200.5 Q533 208 540 208 Q547 208 547 201 Q545 191 542.5 185 Q540 179 537 171 Q534 163 525.5 140.5 Q517 118 507.5 92.5 Q498 67 490.5 45 Q483 23 481 16 Q478 6 473.5 2.5 Q469 -1 449 -1 L15 -1 Q-8 -1 -22 -0.5 Q-36 0 -45.5 -0.5 Q-55 -1 -55 8 Q-55 13 -49 14.5 Q-43 16 -23 16 L12 16 Q22 16 29.5 18.5 Q37 21 44.5 34 Q52 47 59 64 L290 620 Q297 637 300.5 647.5 Q304 658 304.5 666 Q305 674 298 675.5 Q291 677 282 677.5 Q273 678 267 678 L230 679 Q218 679 218 686 Q218 694 233 694 Q262 695 283 694.5 Q304 694 332 694 L630 692 Q648 693 653 693 Q675 694 675 683 Q674 679 669.5 670 Q665 661 662 650 L635 548 Q633 539 628 523.5 Q623 508 616 508 Q609 509 610 517 Q611 523 613 528.5 Q615 534 618 548 Q620 559 622 572.5 Q624 586 624 600 Q624 629 616 641 Q608 653 585.5 662 Q563 671 538.5 673 Q514 675 486 675 L423 675 Q418 675 411 673.5 Q404 672 400 665 Q396 658 392 649 L285 374 Z M593 841 Q616 841 625.5 827 Q635 813 635 797 Q635 775 619.5 759.5 Q604 744 581 744 Q565 744 551.5 753.5 Q538 763 538 784 Q538 808 554 824.5 Q570 841 593 841 Z M426 839 Q446 839 456 825.5 Q466 812 466 795 Q466 770 449.5 756 Q433 742 412 742 Q396 742 382.5 751.5 Q369 761 369 783 Q369 808 386 823.5 Q403 839 426 839 Z " />
<glyph glyph-name="uni0402" unicode="&#x402;" horiz-adv-x="697" d="M391 377 Q404 381 429 386.5 Q454 392 486 392 Q534 392 565.5 378.5 Q597 365 616 347 Q645 318 653 284 Q661 250 661 219 Q661 204 658.5 186 Q656 168 648.5 147.5 Q641 127 626.5 105 Q612 83 587 60 Q552 27 507.5 7.5 Q463 -12 421 -12 Q398 -12 382 -5 Q366 2 356 12.5 Q346 23 341.5 36 Q337 49 337 61 Q337 83 350.5 100 Q364 117 387 117 Q404 117 413 106 Q422 95 422 81 Q422 66 416 61 Q410 56 400 51 Q388 45 384.5 40 Q381 35 381 30 Q381 22 391 13 Q401 4 420 4 Q433 4 447 9 Q461 14 476 26 Q491 38 506 58.5 Q521 79 536 110 Q556 153 564.5 193.5 Q573 234 573 263 Q573 288 570 306.5 Q567 325 553 342 Q537 362 515 367.5 Q493 373 475 373 Q446 373 422.5 367 Q399 361 382 352 L265 56 Q262 49 259 37 Q256 25 249 -4 Q231 1 218 1.5 Q205 2 188 2 L141 2 Q128 2 115 0.5 Q102 -1 93.5 -1.5 Q85 -2 72 -2 Q63 -2 60.5 0.5 Q58 3 58 8 Q58 12 63.5 14 Q69 16 77 16 Q85 15 89 15 L105 15 Q113 15 123 16.5 Q133 18 144 24 Q155 30 161.5 40.5 Q168 51 172 60 L415 673 L375 673 Q323 673 288 664 Q253 655 222 626 Q209 614 200 602.5 Q191 591 183 577 Q175 565 167 550 Q159 535 154 525 Q152 521 148 515 Q144 509 138 509 Q128 510 136 525 L211 693 Q347 691 479 691 Q612 691 746 694 Q738 672 730 648.5 Q722 625 716 606 Q710 587 704.5 568.5 Q699 550 691 522 Q688 513 686 509 Q684 505 677 505 Q667 505 669 516 L671 524 Q676 544 678 551 Q681 564 683.5 577 Q686 590 686 604 Q686 616 682.5 629.5 Q679 643 668 654 Q653 669 629.5 671 Q606 673 580 673 L509 673 L391 377 Z " />
<glyph glyph-name="uni0403" unicode="&#x403;" horiz-adv-x="504" d="M294 654 Q296 659 297 661.5 Q298 664 298 668 Q298 676 292.5 676.5 Q287 677 282 677 Q267 677 255 676.5 Q243 676 229 676 Q217 676 214 680 Q211 684 211 687 Q211 694 218 695 Q225 696 229 696 Q243 696 274.5 694.5 Q306 693 355 693 L479 693 Q503 693 550 693 Q598 693 664 694 Q654 668 650.5 655.5 Q647 643 642 630 Q637 616 635 609.5 Q633 603 630.5 594.5 Q628 586 623.5 572 Q619 558 611 529 Q607 515 604 505 Q601 495 593 495 Q591 495 587.5 496.5 Q584 498 584 505 Q584 512 586.5 518 Q589 524 593 541 Q596 556 597.5 571.5 Q599 587 599 601 Q599 612 596.5 626 Q594 640 584 651 Q570 667 548.5 669.5 Q527 672 508 672 L397 672 L153 42 Q151 39 149.5 33 Q148 27 148 24 Q148 16 153 15 Q158 14 163 14 Q174 14 183 14 Q193 14 202 15 Q212 16 221.5 16.5 Q231 17 242 17 Q246 17 250.5 16 Q255 15 255 8 Q255 1 248.5 -0.5 Q242 -2 237 -2 Q230 -2 225 -2 Q220 -2 214 -1.5 Q208 -1 200 -0.5 Q192 0 180 0 Q165 0 153 0 Q142 0 131 0 Q120 0 108 -0.5 Q96 -1 80 -1 L-18 -1 L-21 -1 Q-26 -1 -31.5 -1.5 Q-37 -2 -43 -2 Q-46 -2 -50.5 -0.5 Q-55 1 -55 6 Q-55 8 -52 12 Q-49 16 -38 16 Q-33 16 -29.5 15.5 Q-26 15 -21 15 Q-15 14 -9 14 Q-3 14 3 14 Q9 14 23 14.5 Q37 15 43 19 Q49 23 54 33 Q59 43 67 63 L294 654 Z M675 907 L679 907 Q686 907 686 902 Q686 900 684 898 L678 892 Q671 886 666 882 L493 754 Q484 747 476 741 Q468 735 463 735 Q459 735 459 738 Q459 740 466 747 L594 907 L675 907 Z " />
<glyph glyph-name="uni0404" unicode="&#x404;" horiz-adv-x="573" d="M317 355 Q303 361 284.5 366.5 Q266 372 252 372 Q222 372 190 343 Q180 301 177.5 272 Q175 243 175 207 Q175 180 178 153.5 Q181 127 197 97 Q212 68 237.5 49.5 Q263 31 310 31 Q326 31 349 35.5 Q372 40 399 55 Q412 62 428.5 74.5 Q445 87 460 101 Q475 115 488 130 Q501 145 508 158 Q511 163 516.5 171.5 Q522 180 529 180 Q535 180 535 172 Q535 164 528 152 Q521 140 511.5 127.5 Q502 115 492.5 104 Q483 93 479 89 Q463 72 440.5 54 Q418 36 389.5 21 Q361 6 327 -3.5 Q293 -13 255 -13 Q200 -13 158.5 8.5 Q117 30 91 81 Q77 108 71.5 136.5 Q66 165 66 195 Q66 230 72 267 Q78 304 89 340.5 Q100 377 115 411 Q130 445 148 474 Q151 479 163 497 Q175 515 195.5 539.5 Q216 564 244 591 Q272 618 308 642 Q347 668 395.5 686 Q444 704 492 704 Q517 704 543.5 697 Q570 690 599 669 Q607 664 611 660.5 Q615 657 624 652 Q629 649 636 646.5 Q643 644 651 644 Q659 644 663 647.5 Q667 651 669.5 655.5 Q672 660 674.5 663.5 Q677 667 682 667 Q688 667 688 660 Q688 654 684.5 645 Q681 636 673 618 Q664 598 660 591 L645 561 Q643 556 639 546.5 Q635 537 631 526.5 Q627 516 623 506.5 Q619 497 617.5 493 Q616 489 613.5 483 Q611 477 606 477 Q598 477 598 488 Q602 501 605 512 Q607 519 609 530 Q611 541 611 555 Q611 594 596 623 Q581 652 558 667 Q541 678 523 681.5 Q505 685 491 685 Q461 685 432 676 Q403 667 380 653 Q378 651 367.5 644 Q357 637 342 624 Q327 611 309 591 Q291 571 273 544 Q247 505 228 458 Q209 411 198 371 Q236 400 261 408 Q286 416 301 416 Q325 416 345.5 409 Q366 402 382 396 L455 366 Q475 358 488 353.5 Q501 349 514 349 Q531 349 543 357 Q551 362 554 368 Q557 374 563 374 Q566 374 568.5 371 Q571 368 571 365 Q571 357 564 352 Q557 347 552 344 L504 317 Q496 313 483.5 308.5 Q471 304 453 304 Q438 304 426.5 307.5 Q415 311 406 315 L317 355 Z " />
<glyph glyph-name="uni0405" unicode="&#x405;" horiz-adv-x="469" d="M357 373 Q392 338 414.5 300.5 Q437 263 437 214 Q437 176 422 135 Q407 94 372 59 Q341 30 304 12 Q249 -13 192 -13 Q174 -13 145.5 -9 Q117 -5 94 9 Q87 13 73.5 22.5 Q60 32 55 36 Q50 40 42.5 44.5 Q35 49 27 49 Q19 49 13 44 Q7 39 2.5 31.5 Q-2 24 -5.5 16 Q-9 8 -11 1 Q-12 -3 -13 -5 Q-14 -7 -15.5 -10.5 Q-17 -14 -22 -14 Q-27 -14 -29 -12 Q-31 -10 -31 -4 Q-29 3 -26 9 Q-23 15 -14 39 L37 178 Q40 186 43 194 Q46 202 56 202 Q64 202 64 194 Q64 191 61.5 187 Q59 183 57 175 Q54 165 53.5 156 Q53 147 53 136 Q53 106 61 80.5 Q69 55 95 35 Q118 18 142.5 12.5 Q167 7 190 7 Q235 7 263.5 20 Q292 33 309 48 Q325 63 336 83 Q345 100 349 118.5 Q353 137 353 156 Q353 167 350 183 Q347 199 339.5 217 Q332 235 318.5 255 Q305 275 284 295 L228 347 Q209 364 185 393 Q161 422 150 457 Q143 478 143 503 Q143 539 160.5 578 Q178 617 216 649 Q249 676 288 689 Q327 702 366 702 Q384 702 402 699 Q417 697 433.5 692.5 Q450 688 466 681 Q471 679 475.5 677 Q480 675 485 673 Q497 668 506 668 Q513 668 522 672.5 Q531 677 542 694 Q544 697 546.5 700.5 Q549 704 553 704 Q560 704 559 696 Q557 687 553 678.5 Q549 670 541 654 Q536 644 525.5 617 Q515 590 507 550 Q505 536 503.5 532 Q502 528 498.5 528 Q495 528 494 528 Q487 528 487 535 Q487 542 488 549 Q489 555 489.5 561.5 Q490 568 490 574 Q490 591 486 607.5 Q482 624 474 637 Q462 657 435.5 671 Q409 685 370 685 Q342 685 317 676 Q289 666 270 651 Q247 632 236.5 607.5 Q226 583 226 560 Q226 539 240.5 507 Q255 475 297 433 L357 373 Z " />
<glyph glyph-name="uni0406" unicode="&#x406;" horiz-adv-x="327" d="M435 678 Q422 678 412.5 674.5 Q403 671 398 663.5 Q393 656 384.5 639.5 Q376 623 367 601 L152 52 Q150 47 148.5 42.5 Q147 38 147 34.5 Q147 31 149.5 25.5 Q152 20 161 17 Q170 14 179.5 13.5 Q189 13 195 13 L207 12 Q214 12 224 11 Q231 11 231 5 Q231 -2 217 -2 L-24 -1 Q-41 -1 -46.5 0 Q-52 1 -52 6 Q-52 9 -50 11 Q-48 13 -39 13 L-25 13 Q-7 13 8 14 Q23 15 31 19.5 Q39 24 45.5 32 Q52 40 55 47 L286 627 Q290 635 293.5 646.5 Q297 658 297 662.5 Q297 667 291.5 673 Q286 679 266 679 L226 679 Q215 679 215 687 Q215 694 228 694 Q237 694 245.5 693.5 Q254 693 263 693 L440 693 Q455 693 473 694 Q488 694 488 686 Q487 678 475 677 Q472 677 461 678 L435 678 Z " />
<glyph glyph-name="uni0407" unicode="&#x407;" horiz-adv-x="327" d="M435 678 Q422 678 412.5 674.5 Q403 671 398 663.5 Q393 656 384.5 639.5 Q376 623 367 601 L152 52 Q150 47 148.5 42.5 Q147 38 147 34.5 Q147 31 149.5 25.5 Q152 20 161 17 Q170 14 179.5 13.5 Q189 13 195 13 L207 12 Q214 12 224 11 Q231 11 231 5 Q231 -2 217 -2 L-24 -1 Q-41 -1 -46.5 0 Q-52 1 -52 6 Q-52 9 -50 11 Q-48 13 -39 13 L-25 13 Q-7 13 8 14 Q23 15 31 19.5 Q39 24 45.5 32 Q52 40 55 47 L286 627 Q290 635 293.5 646.5 Q297 658 297 662.5 Q297 667 291.5 673 Q286 679 266 679 L226 679 Q215 679 215 687 Q215 694 228 694 Q237 694 245.5 693.5 Q254 693 263 693 L440 693 Q455 693 473 694 Q488 694 488 686 Q487 678 475 677 Q472 677 461 678 L435 678 Z M470 841 Q493 841 502.5 827 Q512 813 512 797 Q512 775 496.5 759.5 Q481 744 458 744 Q442 744 428.5 753.5 Q415 763 415 784 Q415 808 431 824.5 Q447 841 470 841 Z M303 839 Q323 839 333 825.5 Q343 812 343 795 Q343 770 326.5 756 Q310 742 289 742 Q273 742 259.5 751.5 Q246 761 246 783 Q246 808 263 823.5 Q280 839 303 839 Z " />
<glyph glyph-name="uni0408" unicode="&#x408;" horiz-adv-x="386" d="M297 249 Q290 232 279.5 206.5 Q269 181 256 153 Q243 125 229 98.5 Q215 72 202 52 Q182 23 154.5 -7 Q127 -37 101 -54 Q79 -68 56 -76 Q33 -84 12 -84 Q-25 -84 -44 -62.5 Q-63 -41 -63 -16 Q-63 0 -53.5 15 Q-44 30 -18 30 Q-4 30 4 26 Q12 22 15.5 16 Q19 10 20 3.5 Q21 -3 21 -7 Q21 -18 16 -27.5 Q11 -37 -6 -43 Q-13 -43 -13 -52 Q-13 -57 -5 -62.5 Q3 -68 20 -68 Q38 -68 50.5 -60 Q63 -52 70 -45 Q87 -28 101.5 0.5 Q116 29 136 80 L352 622 Q356 632 359.5 640.5 Q363 649 363.5 657 Q364 665 358.5 670 Q353 675 341.5 676 Q330 677 322 677 Q312 677 303 676.5 Q294 676 283 676 Q272 676 272 683 Q272 693 288 693 Q295 693 301.5 692.5 Q308 692 315 692 Q329 692 346 693 Q363 694 373 694 Q393 694 412 693.5 Q431 693 451 693 Q461 693 470.5 693.5 Q480 694 490 694 Q497 694 516 695 Q536 696 550 696 Q561 696 561 686 Q561 676 542 677 Q536 677 529.5 676.5 Q523 676 514.5 675.5 Q506 675 492.5 673.5 Q479 672 472 667 Q465 662 458 648 Q451 634 443.5 618 Q436 602 429.5 587 Q423 572 421 567 L297 249 Z " />
<glyph glyph-name="uni0409" unicode="&#x409;" horiz-adv-x="820" d="M414 46 Q412 42 412 37 Q412 33 417 27 Q425 19 439.5 17.5 Q454 16 467 16 Q488 16 508.5 17.5 Q529 19 553 26 Q601 39 635 70 Q656 88 671 111.5 Q686 135 695.5 160 Q705 185 710 210 Q715 235 715 256 Q715 275 709 297 Q703 319 680 341 Q660 360 627.5 371 Q595 382 542 375 L414 46 Z M549 675 Q533 648 520.5 626.5 Q508 605 496.5 586.5 Q485 568 474.5 550.5 Q464 533 452 515 Q425 471 399.5 430 Q374 389 346.5 347 Q319 305 288.5 260.5 Q258 216 222 167 Q211 152 195.5 132 Q180 112 162 90.5 Q144 69 124 48.5 Q104 28 84 14 Q43 -15 5 -15 Q-27 -15 -48.5 5 Q-70 25 -70 58 Q-70 90 -51.5 108 Q-33 126 -11 126 Q10 126 23 112.5 Q36 99 36 79 Q36 60 25.5 50 Q15 40 6 37 Q2 35 -4.5 32.5 Q-11 30 -11 22 Q-11 17 -4.5 15 Q2 13 9 13 Q49 13 104 65 Q111 72 122.5 84 Q134 96 151 117 Q168 138 191.5 169.5 Q215 201 247 246 Q269 277 294.5 314.5 Q320 352 345 391 Q370 430 393 466 Q416 502 433 530 Q460 574 472 597 Q484 620 489 635 Q492 644 492 652 Q492 667 485.5 670.5 Q479 674 470.5 675 Q462 676 455 676 L419 676 Q408 676 389 677 Q386 677 382 678.5 Q378 680 378 685 Q378 689 382 692 Q386 695 397 695 Q416 695 433 694 Q450 693 467 693 L625 693 Q639 694 650 696 Q655 696 659.5 694 Q664 692 664 686 Q664 681 661.5 676.5 Q659 672 657 668 Q655 664 647 643 L550 395 Q602 399 651.5 388 Q701 377 739 352 Q778 326 795 294 Q812 262 812 221 Q812 175 793 134.5 Q774 94 746 68 Q720 43 689 29 Q658 15 627 8 Q596 1 568.5 -0.5 Q541 -2 522 -2 Q503 -2 484 -1.5 Q465 -1 446 0 Q417 1 389 1.5 Q361 2 332 2 Q305 2 291 1.5 Q277 1 268 0 Q259 -1 251.5 -1.5 Q244 -2 230 -2 Q225 -2 217.5 -0.5 Q210 1 210 9 Q210 16 215.5 17.5 Q221 19 226 19 Q234 19 241 18.5 Q248 18 256 18 Q280 18 289 20 Q298 22 301 24 Q312 30 319.5 44 Q327 58 329 65 L568 675 L549 675 Z " />
<glyph glyph-name="uni040A" unicode="&#x40a;" horiz-adv-x="918" d="M519 46 Q516 31 523 24.5 Q530 18 548 17 Q566 16 580 16 Q594 16 612 17.5 Q630 19 650.5 24 Q671 29 693.5 40 Q716 51 738 70 Q776 102 795 144.5 Q814 187 814 232 Q814 252 807.5 275 Q801 298 777 321 Q761 336 742.5 344 Q724 352 705.5 355.5 Q687 359 669.5 358.5 Q652 358 638 356 L519 46 Z M780 692 L802 692 Q810 692 818 692.5 Q826 693 846 693 Q853 693 858 691.5 Q863 690 863 685 Q863 682 860 679 Q857 676 849 676 Q844 676 836 677 L811 677 Q800 677 788.5 675.5 Q777 674 769 669 Q757 661 749 641.5 Q741 622 727 587 L646 376 Q697 380 748 368 Q799 356 836 332 Q860 316 875 298 Q890 280 898 262.5 Q906 245 908.5 229 Q911 213 911 202 Q911 163 892.5 127 Q874 91 849 68 Q823 44 792 30 Q761 16 729.5 9 Q698 2 668.5 0 Q639 -2 615 -2 Q598 -2 582 -1.5 Q566 -1 549 -1 Q507 0 466 0 Q425 0 363 0 Q353 0 343 -1 Q339 -1 329 -2 Q321 -2 318.5 1 Q316 4 316 7 Q316 9 319 13 Q322 17 334 17 Q341 17 347 16.5 Q353 16 360 16 Q388 16 397.5 17.5 Q407 19 410 21 Q413 23 416 29 Q419 35 421 40 L533 331 Q535 335 536 340 Q536 350 527 352 Q518 354 508 354 L286 354 Q277 354 274.5 351 Q272 348 267 334 L167 81 Q159 61 155 51 Q151 41 151 33 Q151 22 163.5 18 Q176 14 189 15 L238 17 Q247 17 248.5 15.5 Q250 14 250 8 Q250 1 245 0 Q240 -1 233 -1 Q188 -1 160.5 -0.5 Q133 0 115 0.5 Q97 1 85.5 1.5 Q74 2 62 2 Q48 2 33.5 1.5 Q19 1 5 0 Q-6 -1 -16.5 -1.5 Q-27 -2 -38 -2 Q-42 -2 -47 -1.5 Q-52 -1 -54.5 2 Q-57 5 -57 8 Q-57 12 -54.5 15.5 Q-52 19 -44 19 Q-41 19 -33 18 L-10 18 Q-3 18 10.5 19 Q24 20 29.5 21.5 Q35 23 40 28 Q43 31 48.5 41 Q54 51 59.5 63.5 Q65 76 70 88 Q75 100 78 106 L281 612 Q289 632 291.5 640 Q294 648 297 660 Q297 668 291.5 671 Q286 674 281 675 Q276 676 264.5 677 Q253 678 248 678 L225 678 Q221 678 212 679 Q203 680 203 687 Q203 695 214 695 L446 693 Q451 693 456 693.5 Q461 694 465 694 L480 694 Q485 694 489.5 693 Q494 692 494 685 Q494 676 486.5 674.5 Q479 673 474 673 Q469 673 463 673.5 Q457 674 452 674 L422 675 Q417 675 411 674 Q405 673 399 667 Q397 665 395 662 Q393 659 390 652 Q387 645 382.5 633.5 Q378 622 371 604 L293 404 Q290 396 288.5 392 Q287 388 287 385.5 Q287 383 290.5 379.5 Q294 376 319 376 L538 376 Q543 376 546 377.5 Q549 379 553.5 389 Q558 399 568 423 L642 603 Q643 605 646 612.5 Q649 620 652 629 Q655 638 657.5 646.5 Q660 655 660 660 Q660 667 657.5 669 Q655 671 650 672 Q643 674 633 674.5 Q623 675 616 675 L590 675 Q585 675 578.5 676.5 Q572 678 569 681 Q567 683 567 686 Q567 691 570.5 692 Q574 693 579 693 L780 692 Z " />
<glyph glyph-name="uni040B" unicode="&#x40b;" horiz-adv-x="755" d="M398 379 Q418 383 454.5 388 Q491 393 533 393 Q561 393 590.5 386.5 Q620 380 643 357 Q670 328 670 290 Q670 279 667 263.5 Q664 248 660 237 L600 81 Q592 62 588 50.5 Q584 39 584 33 Q584 25 589.5 22 Q595 19 600 18 Q605 17 616.5 16 Q628 15 633 15 L660 15 Q664 15 673 14 Q682 13 682 6 Q682 -2 671 -2 L439 0 Q434 0 431 0 Q429 0 426.5 -0.5 Q424 -1 419 -1 Q415 -1 405 -1 Q400 -1 395.5 0 Q391 1 391 6 Q391 9 393.5 13.5 Q396 18 409 18 Q420 18 433 17 Q446 16 457 16 Q465 16 470.5 19 Q476 22 480 26 Q481 27 487.5 39 Q494 51 508 89 L580 284 Q595 324 575.5 348.5 Q556 373 513 373 Q484 373 449 367.5 Q414 362 389 354 L285 90 Q271 55 269 44.5 Q267 34 267 33 Q267 24 277 21 Q282 19 293 18.5 Q304 18 311 18 L337 18 Q360 18 360 7 Q360 2 356.5 1 Q353 0 348 0 L141 1 L121 1 Q113 1 104 0.5 Q95 0 87 0 L75 0 Q58 0 58 10 Q58 12 60.5 15.5 Q63 19 72 19 Q75 19 78.5 18.5 Q82 18 85 18 L88 18 L110 18 Q134 18 143 20 Q152 22 156 24 Q162 28 168.5 40 Q175 52 178 60 L421 673 L381 673 Q329 673 294 664 Q259 655 228 626 Q215 614 206 602.5 Q197 591 189 577 Q181 565 173 550 Q165 535 160 525 Q158 521 154 515 Q150 509 144 509 Q136 511 142 525 L217 693 Q351 691 484 691 Q617 691 752 694 Q744 672 736 648.5 Q728 625 722 606 Q716 587 713 576.5 Q710 566 707.5 558 Q705 550 702.5 541.5 Q700 533 696 518 Q694 513 692 509 Q690 505 683 505 Q678 505 676.5 509.5 Q675 514 675 516 Q675 518 677 524 Q679 531 680.5 537.5 Q682 544 684 551 Q687 564 689.5 577 Q692 590 692 604 Q692 616 688.5 629.5 Q685 643 674 654 Q659 669 635.5 671 Q612 673 586 673 L515 673 L398 379 Z " />
<glyph glyph-name="uni040C" unicode="&#x40c;" horiz-adv-x="628" d="M542 593 Q559 619 571 637.5 Q583 656 598 671 Q611 685 627 692.5 Q643 700 667 700 Q687 700 699 695.5 Q711 691 718 685 Q726 679 731.5 668.5 Q737 658 737 641 Q737 623 731.5 612 Q726 601 722 596 Q714 585 700 578 Q686 571 672 571 Q654 571 642.5 582.5 Q631 594 631 611 Q631 624 635.5 630.5 Q640 637 646.5 640.5 Q653 644 659 649 Q665 654 665 659 Q664 669 651 669 Q637 669 626.5 662 Q616 655 609 648 Q604 643 595.5 632.5 Q587 622 574 602 L498 484 Q487 468 475.5 452 Q464 436 446 421 Q428 405 405.5 394 Q383 383 356 378 L356 377 Q390 372 417 350 Q444 327 451.5 295.5 Q459 264 459 233 Q459 211 456.5 188.5 Q454 166 452 145 Q448 117 446 94 Q444 71 444 50 Q444 33 448.5 22.5 Q453 12 459.5 8.5 Q466 5 471 5 Q476 5 481.5 7.5 Q487 10 487 22 Q487 34 495.5 43 Q504 52 514 52 Q528 52 528 37 Q528 31 525.5 25.5 Q523 20 520 15 Q514 7 498 -2.5 Q482 -12 448 -12 Q431 -12 413.5 -7.5 Q396 -3 379 15 Q363 32 357 52.5 Q351 73 351 96 Q351 126 358 170 L375 288 Q379 314 371.5 334 Q364 354 355.5 359.5 Q347 365 337 367.5 Q327 370 310 370 L278 370 L154 60 Q149 48 147 38 Q147 26 162 19 Q167 17 175 15.5 Q183 14 188 14 L228 13 Q237 13 239 10 Q241 7 241 6 Q241 1 233 0 Q225 -1 218 -1 Q201 -1 176.5 0 Q152 1 105 1 Q53 1 39.5 0 Q26 -1 3 -1 L-33 -1 Q-54 -1 -54 7 Q-54 12 -51 13 Q-48 14 -43 14 L-24 14 Q-3 14 14 17 Q31 20 40 29 Q45 34 50.5 44 Q56 54 59 62 L288 638 Q293 653 293 658 Q293 670 284 674 Q275 678 261 678 L228 678 Q215 678 209 678.5 Q203 679 203 685 Q203 687 205 690 Q207 693 215 693 Q224 693 233.5 692.5 Q243 692 258 692 L445 692 Q453 692 461 692.5 Q469 693 477 693 Q484 693 488 692 Q492 691 492 685 Q492 682 489.5 679 Q487 676 480 676 Q476 676 472 676.5 Q468 677 463 677 L430 677 Q423 677 411.5 674 Q400 671 392.5 660 Q385 649 377 627 L286 390 L324 390 Q345 390 364.5 397.5 Q384 405 398 413 Q427 430 444 449 Q461 468 475 490 L542 593 Z M714 907 L718 907 Q725 907 725 902 Q725 900 723 898 L717 892 Q710 886 705 882 L532 754 Q523 747 515 741 Q507 735 502 735 Q498 735 498 738 Q498 740 505 747 L633 907 L714 907 Z " />
<glyph glyph-name="uni040E" unicode="&#x40e;" horiz-adv-x="655" d="M376 110 Q406 152 430.5 188 Q455 224 475.5 256.5 Q496 289 514 319 Q532 349 549 378 Q587 442 612.5 487.5 Q638 533 654 563 Q670 593 678.5 610 Q687 627 690 633.5 Q693 640 693 649 Q693 659 684.5 667.5 Q676 676 649 676 Q644 676 629 675 Q615 674 615 683 Q615 691 622 692.5 Q629 694 640 694 Q653 694 661.5 693.5 Q670 693 678 692.5 Q686 692 697 691.5 Q708 691 727 691 L748 691 Q758 691 769.5 692 Q781 693 792 693.5 Q803 694 817 694 Q821 694 826 693 Q831 692 831 686 Q831 677 823.5 676.5 Q816 676 808 676 Q799 676 779.5 674 Q760 672 750 667 Q739 662 730 649.5 Q721 637 711 619 Q696 592 686 573.5 Q676 555 668.5 539.5 Q661 524 653.5 509.5 Q646 495 635 475.5 Q624 456 608 428 Q592 400 567 358 Q511 263 467 195.5 Q423 128 383 76 Q370 59 353 38.5 Q336 18 317 -3.5 Q298 -25 277.5 -45.5 Q257 -66 236 -82 Q213 -100 187 -114 Q161 -128 130 -128 Q106 -128 90.5 -120 Q75 -112 65 -102 Q54 -91 47 -75.5 Q40 -60 40 -38 Q40 -17 48 -2 Q56 13 68 22.5 Q80 32 94.5 36.5 Q109 41 121 41 Q145 41 160.5 25.5 Q176 10 176 -13 Q176 -38 161.5 -51 Q147 -64 134 -64 Q129 -64 124 -62 Q119 -60 111 -60 Q105 -60 100 -65 Q95 -70 95 -77 Q95 -85 105.5 -93 Q116 -101 138 -101 Q162 -101 190 -85 Q200 -79 213 -68.5 Q226 -58 239.5 -45 Q253 -32 266 -18.5 Q279 -5 288 6 L278 596 Q277 619 274.5 633 Q272 647 263 660 Q258 665 245.5 669.5 Q233 674 208 674 Q200 674 193 673.5 Q186 673 182 673 Q175 673 169.5 674 Q164 675 164 682 Q164 685 167 689.5 Q170 694 182 694 Q197 693 215 693 Q294 692 320 692 Q340 692 360 692.5 Q380 693 400 693 L450 693 Q457 693 463 692.5 Q469 692 473.5 690.5 Q478 689 478 685 Q478 680 475.5 677.5 Q473 675 466 675 L407 672 Q397 671 389.5 669 Q382 667 377 658 Q370 647 370.5 628.5 Q371 610 371 596 L378 180 L376 110 Z M489 887 Q512 887 522.5 873 Q533 859 533 843 Q533 831 526 821 Q519 811 509 806 Q502 803 492.5 798.5 Q483 794 483 786 Q483 781 490.5 774.5 Q498 768 522 768 Q547 768 572 778 Q597 788 619 806 Q639 823 652.5 841 Q666 859 673 870 Q685 890 690 890 Q700 890 700 880 Q700 875 693.5 864.5 Q687 854 678 842 Q669 830 659.5 819.5 Q650 809 636.5 796.5 Q623 784 590.5 767 Q558 750 513 750 Q490 750 473 756.5 Q456 763 445 773.5 Q434 784 429 797 Q424 810 424 822 Q424 852 445 869.5 Q466 887 489 887 Z " />
<glyph glyph-name="uni040F" unicode="&#x40f;" horiz-adv-x="713" d="M863 692 L887 692 Q911 693 919 693 L931 693 Q938 693 943 691.5 Q948 690 948 685 Q948 682 945 679 Q942 676 934 676 Q923 677 913 677 L896 677 Q885 677 873.5 675.5 Q862 674 854 669 Q842 661 834 641.5 Q826 622 812 587 L621 91 Q614 74 609.5 63.5 Q605 53 601 34 Q601 25 615 20.5 Q629 16 647 15 Q665 14 673 14 L686 14 Q703 14 702 7 Q702 0 694.5 -1 Q687 -2 679 -2 Q637 -2 608.5 -1.5 Q580 -1 554 0 L426 0 Q412 0 398 -1.5 Q384 -3 371 -14 Q363 -20 357 -32 Q351 -44 346.5 -57.5 Q342 -71 338.5 -85 Q335 -99 334 -111 Q331 -134 330.5 -151.5 Q330 -169 325 -188 Q317 -220 300.5 -235.5 Q284 -251 270 -251 Q259 -251 247.5 -241.5 Q236 -232 236 -213 Q236 -193 251.5 -168 Q267 -143 284 -118.5 Q301 -94 315 -72 Q329 -50 329 -31 Q329 -19 324 -13 Q319 -7 312 -4 Q305 -1 286 0 L215 0 Q199 0 173.5 1 Q148 2 111.5 0 Q75 -2 49 -2 Q44 -2 37 -0.5 Q30 1 30 8 Q30 12 32.5 15.5 Q35 19 40 19 Q45 19 54 18 L77 18 Q94 18 107 19.5 Q120 21 127 28 Q141 52 147 64.5 Q153 77 165 106 L366 612 Q372 628 376 638.5 Q380 649 382 660 Q382 668 376.5 671 Q371 674 366 675 Q361 676 349.5 677 Q338 678 333 678 L310 678 Q303 678 295.5 679 Q288 680 288 687 Q288 695 299 695 L531 693 Q543 693 550 694 L565 694 Q570 694 574.5 693 Q579 692 579 685 Q579 676 571.5 674.5 Q564 673 559 673 Q554 673 541.5 674 Q529 675 522 675 Q515 675 507 675 Q490 675 484 667 Q478 659 470.5 640.5 Q463 622 456 604 L227 21 L496 21 L725 603 Q738 636 743 660 Q743 671 734.5 672.5 Q726 674 716 674.5 Q706 675 699 675 L673 675 Q650 675 650 686 Q650 691 662 693 L863 692 Z " />
<glyph glyph-name="uni0410" unicode="&#x410;" horiz-adv-x="627" d="M460 536 L461 544 L455 544 L449 536 L256 276 Q250 270 247.5 267.5 Q245 265 245 260 Q245 255 258 255 L396 255 Q418 255 418 264 L460 536 Z M101 75 Q97 70 90 58 Q83 46 83 39 Q83 31 89.5 25.5 Q96 20 109 18.5 Q122 17 138 18 L154 19 Q160 19 163 20 Q166 21 171 21 Q188 20 188 11 Q187 -1 165 0 Q123 1 105 1 Q87 1 80.5 0.5 Q74 0 73 -0.5 Q72 -1 65.5 -1.5 Q59 -2 40 -2 Q21 -2 -21 -1 Q-29 -1 -38 -2 L-54 -3 Q-61 -3 -72.5 0 Q-84 3 -84 11 Q-84 20 -72 20 Q-58 20 -51 18 Q-44 16 -30 16 Q-18 16 -2.5 20 Q13 24 23 29 Q35 36 49 53.5 Q63 71 88 103 L424 544 L544 698 Q554 711 560 711 Q570 711 569 697 Q569 691 566.5 679 Q564 667 548 544 L491 105 Q488 85 487 75 Q486 65 486 57 Q486 43 490.5 36.5 Q495 30 502 25.5 Q509 21 521 20 L582 17 Q593 18 593 9 Q593 -3 577 -3 Q565 -3 552.5 -1.5 Q540 0 525 0 Q511 0 494.5 0.5 Q478 1 463 1 Q410 0 357 0 L331 0 Q311 -1 298 -1 Q278 -1 279 12 Q279 20 290 20 Q295 20 307 19 L325 19 Q336 19 349.5 21 Q363 23 371 28 Q384 36 387 52 Q390 68 392 84 L412 219 Q414 234 397 234 L219 234 L101 75 Z " />
<glyph glyph-name="uni0411" unicode="&#x411;" horiz-adv-x="582" d="M277 369 L154 57 Q149 46 147 39 Q145 32 145 27 Q145 14 160 14 L193 14 Q227 14 264 21.5 Q301 29 341 52 Q360 63 379.5 81 Q399 99 415 123.5 Q431 148 441.5 179 Q452 210 452 249 Q452 272 445.5 299.5 Q439 327 413 349 Q393 366 371 371 Q349 376 325 376 Q301 376 277 369 Z M293 647 Q297 655 297 662 Q297 674 285 676 Q273 678 259 678 L219 679 Q208 679 208 686 Q208 690 211 692.5 Q214 695 225 695 L475 695 Q511 695 550 694 Q589 693 612 692 Q625 692 635.5 693 Q646 694 654 694 Q659 694 665 692.5 Q671 691 671 683 Q671 679 668 672.5 Q665 666 660 652 Q653 630 651 621 Q649 612 646 599 Q644 589 641 575 Q638 561 634.5 548.5 Q631 536 626.5 527 Q622 518 617 518 Q611 518 611 526 Q612 535 614.5 542 Q617 549 620 569 Q621 575 621.5 583 Q622 591 622 601 Q622 609 620 623.5 Q618 638 610 648 Q604 655 594 659.5 Q584 664 572.5 667 Q561 670 550 671.5 Q539 673 532 673 Q523 674 508 674.5 Q493 675 477.5 675.5 Q462 676 447 676 Q433 676 426 676 Q412 676 403 672 Q394 668 386 647 L286 390 Q306 395 340 395 Q372 395 409.5 386 Q447 377 475 358 Q502 340 525.5 305.5 Q549 271 549 223 Q549 172 519.5 124.5 Q490 77 441 47 Q401 22 344.5 10 Q288 -2 203 -2 Q158 -1 143 -1 L-13 -1 Q-22 -1 -34 -1.5 Q-46 -2 -53 -2 Q-64 -2 -66.5 1 Q-69 4 -69 8 Q-69 10 -66 13 Q-63 16 -57 16 Q-51 16 -47 15 Q-43 14 -35 14 L12 14 Q17 14 24.5 15.5 Q32 17 38 22.5 Q44 28 47.5 35 Q51 42 56 56 L293 647 Z " />
<glyph glyph-name="uni0412" unicode="&#x412;" horiz-adv-x="588" d="M159 64 Q151 43 149 35.5 Q147 28 147 26 Q147 22 148 20 Q150 16 153 15 Q156 14 159 14 L175 14 Q220 14 255 20 Q290 26 327 47 Q378 76 407.5 125 Q437 174 437 236 Q437 247 436 256.5 Q435 266 432 276 Q428 295 415 311 Q402 327 383.5 335 Q365 343 344.5 346 Q324 349 304 348 Q284 347 269 345 L159 64 Z M280 370 Q294 368 314 367.5 Q334 367 356.5 369.5 Q379 372 402 378.5 Q425 385 446 397 Q473 414 493 438 Q513 463 527 501 Q541 539 541 584 Q541 598 537 616.5 Q533 635 514 651 Q493 669 461.5 671.5 Q430 674 398 672 L280 370 Z M451 692 Q466 692 483 691.5 Q500 691 518 688 Q536 685 553.5 679 Q571 673 586 663 Q600 653 611.5 638 Q623 623 630 603 Q637 583 637 561 Q637 540 629 509.5 Q621 479 592 447 Q575 429 556.5 416 Q538 403 521 394 Q496 380 470 369.5 Q444 359 410 354 Q442 347 462.5 337.5 Q483 328 500 314 Q508 307 516 297.5 Q524 288 530 274 Q535 263 537 249.5 Q539 236 539 223 Q539 195 530 167.5 Q521 140 505.5 115.5 Q490 91 468 70 Q446 49 419 35 Q399 24 371 16 Q338 7 304 4 Q278 1 243.5 -0.5 Q209 -2 182 -2 Q165 -2 149 -1.5 Q133 -1 116 -1 L107 -1 L-8 -1 L-28 -1 Q-36 -1 -43 -1.5 Q-50 -2 -58 -2 Q-60 -2 -64.5 -1 Q-69 0 -69 6 Q-69 9 -66.5 12.5 Q-64 16 -57 16 Q-54 16 -51.5 15.5 Q-49 15 -46 15 Q-37 14 -28.5 13.5 Q-20 13 -11 13 Q16 13 25.5 15.5 Q35 18 37 19 Q42 22 45.5 28.5 Q49 35 57 55 L285 625 Q287 631 290 640.5 Q293 650 293 655 Q293 666 281.5 670 Q270 674 236 674 L219 674 Q211 674 207.5 677 Q204 680 204 682 Q204 684 205.5 686 Q207 688 211 689 Q214 690 222.5 690.5 Q231 691 242 691.5 Q253 692 263 692 Q274 692 281 692 L451 692 Z " />
<glyph glyph-name="uni0413" unicode="&#x413;" horiz-adv-x="504" d="M294 654 Q296 659 297 661.5 Q298 664 298 668 Q298 676 292.5 676.5 Q287 677 282 677 Q267 677 255 676.5 Q243 676 229 676 Q217 676 214 680 Q211 684 211 687 Q211 694 218 695 Q225 696 229 696 Q243 696 274.5 694.5 Q306 693 355 693 L479 693 Q503 693 550 693 Q598 693 664 694 Q654 668 650.5 655.5 Q647 643 642 630 Q637 616 635 609.5 Q633 603 630.5 594.5 Q628 586 623.5 572 Q619 558 611 529 Q607 515 604 505 Q601 495 593 495 Q591 495 587.5 496.5 Q584 498 584 505 Q584 512 586.5 518 Q589 524 593 541 Q596 556 597.5 571.5 Q599 587 599 601 Q599 612 596.5 626 Q594 640 584 651 Q570 667 548.5 669.5 Q527 672 508 672 L397 672 L153 42 Q151 39 149.5 33 Q148 27 148 24 Q148 16 153 15 Q158 14 163 14 Q174 14 183 14 Q193 14 202 15 Q212 16 221.5 16.5 Q231 17 242 17 Q246 17 250.5 16 Q255 15 255 8 Q255 1 248.5 -0.5 Q242 -2 237 -2 Q230 -2 225 -2 Q220 -2 214 -1.5 Q208 -1 200 -0.5 Q192 0 180 0 Q165 0 153 0 Q142 0 131 0 Q120 0 108 -0.5 Q96 -1 80 -1 L-18 -1 L-21 -1 Q-26 -1 -31.5 -1.5 Q-37 -2 -43 -2 Q-46 -2 -50.5 -0.5 Q-55 1 -55 6 Q-55 8 -52 12 Q-49 16 -38 16 Q-33 16 -29.5 15.5 Q-26 15 -21 15 Q-15 14 -9 14 Q-3 14 3 14 Q9 14 23 14.5 Q37 15 43 19 Q49 23 54 33 Q59 43 67 63 L294 654 Z " />
<glyph glyph-name="uni0414" unicode="&#x414;" horiz-adv-x="607" d="M571 675 L45 44 Q42 40 40 35 Q38 30 40 26 Q42 22 47.5 21.5 Q53 21 58 21 L341 21 L596 675 L571 675 Z M607 693 L625 693 Q645 694 653 696 Q661 698 674 698 Q688 698 690.5 691 Q693 684 693 684 Q693 679 688.5 672 Q684 665 678 650 L448 60 Q445 53 443 47.5 Q441 42 441 37 Q441 23 457.5 21 Q474 19 497 19 L538 19 Q518 -1 506 -15.5 Q494 -30 481 -46 Q474 -55 464 -67.5 Q454 -80 443 -93.5 Q432 -107 421.5 -120.5 Q411 -134 403 -144 Q383 -169 376 -175 Q369 -181 365 -181 Q358 -181 358 -174 Q358 -168 362 -153 Q366 -138 371.5 -121.5 Q377 -105 382.5 -90 Q388 -75 391 -68 Q400 -48 404 -37 Q408 -26 408 -18 Q408 -9 404 -5.5 Q400 -2 397 -1 Q393 0 372 0 L59 0 Q47 0 35 -1 Q23 -2 14 -7 Q4 -13 -3.5 -28 Q-11 -43 -19 -66 Q-37 -116 -47 -139.5 Q-57 -163 -65 -175 Q-67 -177 -69.5 -180 Q-72 -183 -76 -183 Q-81 -183 -82 -179 Q-83 -175 -83 -172 Q-83 -165 -84 -152 Q-85 -139 -86 -125 Q-87 -111 -88 -97.5 Q-89 -84 -90 -75 Q-91 -69 -91.5 -62 Q-92 -55 -93.5 -44.5 Q-95 -34 -96.5 -19 Q-98 -4 -101 19 L-8 19 L514 644 Q516 646 518 651 Q520 656 520 659 Q520 666 515 669.5 Q510 673 503 674.5 Q496 676 487 676 Q478 676 471 676 Q458 676 446 675.5 Q434 675 420 675 Q408 675 405 678.5 Q402 682 402 687 Q402 693 408 694 Q414 695 417 695 Q438 695 461.5 694.5 Q485 694 500 693 L542 693 L607 693 Z " />
<glyph glyph-name="uni0415" unicode="&#x415;" horiz-adv-x="573" d="M285 374 Q293 373 307.5 372 Q322 371 331 371 Q361 371 385 379.5 Q409 388 427 401.5 Q445 415 456.5 432.5 Q468 450 474 468 Q476 473 478.5 478 Q481 483 487 483 Q494 483 494 475 Q494 471 491.5 465 Q489 459 483 445 L424 307 Q421 301 416.5 289 Q412 277 407.5 263.5 Q403 250 399 238 Q395 226 393.5 220 Q392 214 390 207.5 Q388 201 382 201 Q371 201 377 219 Q386 247 389 264 Q392 281 392 295 Q392 305 389.5 316.5 Q387 328 375 338 Q361 349 337.5 351.5 Q314 354 292 354 Q277 354 272 343 L160 68 Q154 54 151 46.5 Q148 39 148 32.5 Q148 26 154 24.5 Q160 23 179 23 L272 23 Q318 23 353 27.5 Q388 32 419 45.5 Q450 59 471 83 Q485 100 499.5 131.5 Q514 163 523 188 Q525 193 529 200.5 Q533 208 540 208 Q547 208 547 201 Q545 191 542.5 185 Q540 179 537 171 Q534 163 525.5 140.5 Q517 118 507.5 92.5 Q498 67 490.5 45 Q483 23 481 16 Q478 6 473.5 2.5 Q469 -1 449 -1 L15 -1 Q-8 -1 -22 -0.5 Q-36 0 -45.5 -0.5 Q-55 -1 -55 8 Q-55 13 -49 14.5 Q-43 16 -23 16 L12 16 Q22 16 29.5 18.5 Q37 21 44.5 34 Q52 47 59 64 L290 620 Q297 637 300.5 647.5 Q304 658 304.5 666 Q305 674 298 675.5 Q291 677 282 677.5 Q273 678 267 678 L230 679 Q218 679 218 686 Q218 694 233 694 Q262 695 283 694.5 Q304 694 332 694 L630 692 Q648 693 653 693 Q675 694 675 683 Q674 679 669.5 670 Q665 661 662 650 L635 548 Q633 539 628 523.5 Q623 508 616 508 Q609 509 610 517 Q611 523 613 528.5 Q615 534 618 548 Q620 559 622 572.5 Q624 586 624 600 Q624 629 616 641 Q608 653 585.5 662 Q563 671 538.5 673 Q514 675 486 675 L423 675 Q418 675 411 673.5 Q404 672 400 665 Q396 658 392 649 L285 374 Z " />
<glyph glyph-name="uni0416" unicode="&#x416;" horiz-adv-x="898" d="M809 592 Q822 612 833.5 631.5 Q845 651 864 669 Q881 686 898.5 693 Q916 700 939 700 Q951 700 964.5 697.5 Q978 695 989 685 Q1000 675 1003.5 663 Q1007 651 1007 641 Q1007 615 992 596 Q981 582 968 576.5 Q955 571 944 571 Q924 571 912.5 583 Q901 595 901 611 Q901 624 907.5 630.5 Q914 637 924 645 Q927 647 931 650.5 Q935 654 935 659 Q935 661 932 665 Q929 669 920 669 Q906 669 895.5 662 Q885 655 877 648 Q866 637 858 626 Q850 615 842 602 L777 498 Q763 476 746.5 452 Q730 428 706 405 Q691 391 670 378.5 Q649 366 620 360 Q640 359 654 352 Q668 345 676 338 Q690 326 698 311.5 Q706 297 710 282 Q714 267 715 251.5 Q716 236 716 223 Q716 202 714 185 Q712 168 710 145 Q704 91 704 52 Q704 44 704.5 36.5 Q705 29 709 22 Q716 9 731 9 Q745 9 759 19.5 Q773 30 781 45 Q785 53 789.5 60 Q794 67 803 67 Q808 67 812 58 Q812 49 800 35 Q788 21 781 15 Q761 -3 744 -7.5 Q727 -12 708 -12 Q692 -12 674 -7.5 Q656 -3 639 15 Q625 31 619 52.5 Q613 74 613 97 Q613 109 615 128.5 Q617 148 620 170 L635 278 Q640 311 631 326.5 Q622 342 611 347 Q602 352 584 352 L544 352 L428 60 Q423 48 422 44 Q421 40 421 38 Q421 30 430 22.5 Q439 15 462 14 L492 13 Q500 13 502.5 12 Q505 11 505 6 Q505 2 503 0.5 Q501 -1 490 -1 L244 0 Q230 0 225 1 Q220 2 220 7 Q220 12 223 13 Q226 14 231 14 L250 14 Q271 14 288 17 Q305 20 314 29 Q319 34 324.5 44 Q330 54 333 62 L452 352 L427 352 Q386 352 363 339.5 Q340 327 322 310 Q297 286 278.5 259.5 Q260 233 242 204 Q219 166 199 130.5 Q179 95 161 69 Q151 55 137.5 39 Q124 23 107 12 Q88 1 64.5 -4.5 Q41 -10 19 -10 Q-2 -10 -17 -4 Q-32 2 -43 17 Q-51 27 -53.5 36 Q-56 45 -56 54 Q-56 64 -52.5 67.5 Q-49 71 -45 71 Q-41 71 -38 68.5 Q-35 66 -34 57 Q-33 50 -34 45.5 Q-35 41 -33 35 Q-31 24 -21.5 16.5 Q-12 9 -2 9 Q10 9 21 19.5 Q32 30 42.5 45 Q53 60 61.5 76.5 Q70 93 78 106 Q116 171 144 213 Q172 255 198 282 Q236 321 274 339 Q300 351 329.5 357 Q359 363 387 363 Q367 371 357 387 Q347 403 343.5 420 Q340 437 340.5 452 Q341 467 342 473 L360 602 Q362 614 360.5 627.5 Q359 641 354 651 Q351 658 345 663.5 Q339 669 332 669 Q325 669 319 663.5 Q313 658 313 645 Q313 639 314.5 632.5 Q316 626 316 622 Q316 599 300 585 Q284 571 263 571 Q243 571 234 585.5 Q225 600 225 617 Q225 635 234.5 652.5 Q244 670 261 681 Q272 689 287.5 694.5 Q303 700 317 700 Q342 700 361 684 Q373 673 380.5 654 Q388 635 384 607 L367 477 Q366 472 365.5 461 Q365 450 366 437.5 Q367 425 369.5 413 Q372 401 378 394 Q386 383 401 377.5 Q416 372 433 372 L460 372 L561 636 Q563 640 564.5 646.5 Q566 653 566 656 Q566 668 557 672 Q548 676 534 676 L500 676 Q495 676 489.5 676.5 Q484 677 484 683 Q484 687 486.5 689 Q489 691 496 691 Q505 691 514.5 690.5 Q524 690 539 690 L710 690 Q720 690 728 690.5 Q736 691 744 691 Q759 690 759 683 Q759 680 756.5 677 Q754 674 747 674 Q743 674 739 674.5 Q735 675 730 675 L703 675 Q696 675 688.5 673.5 Q681 672 673 665 Q668 661 663 652.5 Q658 644 650 625 L552 372 L588 372 Q608 372 627.5 380 Q647 388 659 396 Q682 410 702.5 432 Q723 454 750 497 L809 592 Z " />
<glyph glyph-name="uni0417" unicode="&#x417;" horiz-adv-x="569" d="M387 370 Q379 377 360.5 385.5 Q342 394 308 394 Q285 393 277 385.5 Q269 378 269 368 Q269 360 274.5 351 Q280 342 303 342 Q323 342 346 350 Q369 358 387 370 Z M401 380 Q420 392 434 406 Q448 420 462 441 Q483 473 496.5 511.5 Q510 550 510 587 Q510 606 505.5 624 Q501 642 491 656 Q483 668 469.5 676 Q456 684 437 684 Q431 684 420.5 682.5 Q410 681 396 675.5 Q382 670 365.5 659.5 Q349 649 331 630 Q314 612 296 589 Q278 566 257 535 Q252 524 243 524 Q235 525 235 534 Q235 538 236.5 541.5 Q238 545 242 553.5 Q246 562 251.5 579 Q257 596 266 626 Q270 640 272 649 Q274 658 276 664.5 Q278 671 279.5 677.5 Q281 684 283 693 Q284 696 285.5 700 Q287 704 293 704 Q300 704 300 695 L299 686 Q299 678 304 676.5 Q309 675 314 675 Q321 675 331 677.5 Q341 680 362 687 Q382 693 398 697.5 Q414 702 441 702 Q466 702 497.5 696 Q529 690 552 674 Q570 662 580 647 Q590 632 595 617 Q600 602 601.5 588.5 Q603 575 603 566 Q603 535 595.5 512 Q588 489 576 471 Q564 453 547.5 439.5 Q531 426 513 414 Q490 400 467.5 389 Q445 378 414 370 Q446 357 462.5 340.5 Q479 324 483 319 Q500 296 507.5 267 Q515 238 515 211 Q515 197 512 178 Q509 159 500 137 Q491 115 473 91 Q455 67 425 45 Q399 25 371.5 13.5 Q344 2 318 -5 Q292 -12 268 -14 Q244 -16 225 -16 Q198 -16 168.5 -12 Q139 -8 120 1 Q107 7 95 16.5 Q83 26 74 37 Q66 46 57 54.5 Q48 63 35 63 Q24 63 15.5 53.5 Q7 44 3 38 Q-5 20 -14 20 Q-24 20 -24 30 Q-24 35 -20.5 41 Q-17 47 -9 57 Q-3 65 8.5 77.5 Q20 90 28 97 Q41 108 57.5 115.5 Q74 123 91 123 Q113 123 127 113.5 Q141 104 150 93 L173 60 Q186 41 194 31.5 Q202 22 216.5 13 Q231 4 254 4 Q277 4 294 10.5 Q311 17 328.5 33.5 Q346 50 363 76 Q374 94 384.5 118 Q395 142 402.5 168 Q410 194 414.5 221 Q419 248 419 272 Q419 283 418 297 Q417 311 415 321 Q413 332 410.5 340.5 Q408 349 401 360 Q369 334 343 326.5 Q317 319 298 319 Q278 319 264.5 324 Q251 329 243 336 Q235 343 231.5 351 Q228 359 228 366 Q228 373 231.5 381 Q235 389 244 396.5 Q253 404 267.5 409 Q282 414 305 414 Q325 414 349.5 408 Q374 402 401 380 Z " />
<glyph glyph-name="uni0418" unicode="&#x418;" horiz-adv-x="717" d="M293 642 Q294 644 295.5 650 Q297 656 297 659 Q297 667 292.5 670 Q288 673 285 674 Q279 676 268.5 677 Q258 678 253 678 L222 678 Q203 678 203 686 Q203 689 204.5 692 Q206 695 216 695 L423 693 Q433 693 440 693 Q448 693 454 693.5 Q460 694 466 694 Q473 694 481 694 Q486 694 490 693 Q494 692 494 685 Q494 677 488 675 Q482 673 476 673 Q461 673 448 674 Q435 675 421 675 Q416 675 410.5 674 Q405 673 400 668 Q397 665 392.5 656.5 Q388 648 378 622 L194 148 L180 115 L181 115 L675 631 L680 648 Q685 666 677 670.5 Q669 675 629 675 L612 675 Q589 675 589 685 Q589 691 593 692 Q597 693 601 693 L808 692 Q825 692 839.5 692.5 Q854 693 871 693 Q880 693 882.5 690.5 Q885 688 885 686 Q885 683 882.5 679.5 Q880 676 872 676 Q868 676 864 676.5 Q860 677 856 677 L852 677 L833 677 Q816 677 807 675 Q798 673 793 670 Q785 665 777.5 653 Q770 641 766 631 L546 60 Q544 55 541 46 Q538 37 538 33 Q538 26 542.5 23.5 Q547 21 549 20 Q554 18 569 16 Q584 14 624 14 Q626 14 632.5 13 Q639 12 639 7 Q639 0 631 -1 Q623 -2 616 -2 Q595 -2 574 -1.5 Q553 -1 532 -1 Q516 -1 500 -0.5 Q484 0 468 0 L381 0 L376 0 Q370 0 364 -1 Q358 -2 351 -2 Q348 -2 343 -1 Q338 0 338 7 Q338 9 341 13 Q344 17 356 17 Q361 17 364.5 16.5 Q368 16 373 16 L376 16 L389 16 Q410 16 418 17.5 Q426 19 430 21 Q438 26 441.5 36 Q445 46 450 59 L650 573 L648 573 L159 63 L154 47 Q149 30 152 25.5 Q155 21 162 19 Q169 17 173.5 16 Q178 15 187 15 Q201 15 213 16 Q225 17 240 17 Q244 17 247.5 16 Q251 15 251 9 Q251 1 245 0 Q239 -1 233 -1 Q168 -1 131 0.5 Q94 2 69 2 Q42 2 35.5 1.5 Q29 1 25 0 Q21 -1 9.5 -1.5 Q-2 -2 -39 -2 Q-42 -2 -49.5 -0.5 Q-57 1 -57 10 Q-57 12 -54.5 15.5 Q-52 19 -46 19 Q-43 19 -40.5 18.5 Q-38 18 -35 18 L-31 18 L-5 18 Q16 18 24.5 20.5 Q33 23 34 24 Q36 25 39 28 Q42 31 46.5 38.5 Q51 46 58 60 Q65 74 75 98 L293 642 Z " />
<glyph glyph-name="uni0419" unicode="&#x419;" horiz-adv-x="717" d="M293 642 Q294 644 295.5 650 Q297 656 297 659 Q297 667 292.5 670 Q288 673 285 674 Q279 676 268.5 677 Q258 678 253 678 L222 678 Q203 678 203 686 Q203 689 204.5 692 Q206 695 216 695 L423 693 Q433 693 440 693 Q448 693 454 693.5 Q460 694 466 694 Q473 694 481 694 Q486 694 490 693 Q494 692 494 685 Q494 677 488 675 Q482 673 476 673 Q461 673 448 674 Q435 675 421 675 Q416 675 410.5 674 Q405 673 400 668 Q397 665 392.5 656.5 Q388 648 378 622 L194 148 L180 115 L181 115 L675 631 L680 648 Q685 666 677 670.5 Q669 675 629 675 L612 675 Q589 675 589 685 Q589 691 593 692 Q597 693 601 693 L808 692 Q825 692 839.5 692.5 Q854 693 871 693 Q880 693 882.5 690.5 Q885 688 885 686 Q885 683 882.5 679.5 Q880 676 872 676 Q868 676 864 676.5 Q860 677 856 677 L852 677 L833 677 Q816 677 807 675 Q798 673 793 670 Q785 665 777.5 653 Q770 641 766 631 L546 60 Q544 55 541 46 Q538 37 538 33 Q538 26 542.5 23.5 Q547 21 549 20 Q554 18 569 16 Q584 14 624 14 Q626 14 632.5 13 Q639 12 639 7 Q639 0 631 -1 Q623 -2 616 -2 Q595 -2 574 -1.5 Q553 -1 532 -1 Q516 -1 500 -0.5 Q484 0 468 0 L381 0 L376 0 Q370 0 364 -1 Q358 -2 351 -2 Q348 -2 343 -1 Q338 0 338 7 Q338 9 341 13 Q344 17 356 17 Q361 17 364.5 16.5 Q368 16 373 16 L376 16 L389 16 Q410 16 418 17.5 Q426 19 430 21 Q438 26 441.5 36 Q445 46 450 59 L650 573 L648 573 L159 63 L154 47 Q149 30 152 25.5 Q155 21 162 19 Q169 17 173.5 16 Q178 15 187 15 Q201 15 213 16 Q225 17 240 17 Q244 17 247.5 16 Q251 15 251 9 Q251 1 245 0 Q239 -1 233 -1 Q168 -1 131 0.5 Q94 2 69 2 Q42 2 35.5 1.5 Q29 1 25 0 Q21 -1 9.5 -1.5 Q-2 -2 -39 -2 Q-42 -2 -49.5 -0.5 Q-57 1 -57 10 Q-57 12 -54.5 15.5 Q-52 19 -46 19 Q-43 19 -40.5 18.5 Q-38 18 -35 18 L-31 18 L-5 18 Q16 18 24.5 20.5 Q33 23 34 24 Q36 25 39 28 Q42 31 46.5 38.5 Q51 46 58 60 Q65 74 75 98 L293 642 Z M509 885 Q532 885 542.5 871 Q553 857 553 841 Q553 829 546 819 Q539 809 529 804 Q522 801 512.5 796.5 Q503 792 503 784 Q503 779 510.5 772.5 Q518 766 542 766 Q567 766 592 776 Q617 786 639 804 Q659 821 672.5 839 Q686 857 693 868 Q705 888 710 888 Q720 888 720 878 Q720 873 713.5 862.5 Q707 852 698 840 Q689 828 679.5 817.5 Q670 807 656.5 794.5 Q643 782 610.5 765 Q578 748 533 748 Q510 748 493 754.5 Q476 761 465 771.5 Q454 782 449 795 Q444 808 444 820 Q444 850 465 867.5 Q486 885 509 885 Z " />
<glyph glyph-name="uni041A" unicode="&#x41a;" horiz-adv-x="628" d="M542 593 Q559 619 571 637.5 Q583 656 598 671 Q611 685 627 692.5 Q643 700 667 700 Q687 700 699 695.5 Q711 691 718 685 Q726 679 731.5 668.5 Q737 658 737 641 Q737 623 731.5 612 Q726 601 722 596 Q714 585 700 578 Q686 571 672 571 Q654 571 642.5 582.5 Q631 594 631 611 Q631 624 635.5 630.5 Q640 637 646.5 640.5 Q653 644 659 649 Q665 654 665 659 Q664 669 651 669 Q637 669 626.5 662 Q616 655 609 648 Q604 643 595.5 632.5 Q587 622 574 602 L498 484 Q487 468 475.5 452 Q464 436 446 421 Q428 405 405.5 394 Q383 383 356 378 L356 377 Q390 372 417 350 Q444 327 451.5 295.5 Q459 264 459 233 Q459 211 456.5 188.5 Q454 166 452 145 Q448 117 446 94 Q444 71 444 50 Q444 33 448.5 22.5 Q453 12 459.5 8.5 Q466 5 471 5 Q476 5 481.5 7.5 Q487 10 487 22 Q487 34 495.5 43 Q504 52 514 52 Q528 52 528 37 Q528 31 525.5 25.5 Q523 20 520 15 Q514 7 498 -2.5 Q482 -12 448 -12 Q431 -12 413.5 -7.5 Q396 -3 379 15 Q363 32 357 52.5 Q351 73 351 96 Q351 126 358 170 L375 288 Q379 314 371.5 334 Q364 354 355.5 359.5 Q347 365 337 367.5 Q327 370 310 370 L278 370 L154 60 Q149 48 147 38 Q147 26 162 19 Q167 17 175 15.5 Q183 14 188 14 L228 13 Q237 13 239 10 Q241 7 241 6 Q241 1 233 0 Q225 -1 218 -1 Q201 -1 176.5 0 Q152 1 105 1 Q53 1 39.5 0 Q26 -1 3 -1 L-33 -1 Q-54 -1 -54 7 Q-54 12 -51 13 Q-48 14 -43 14 L-24 14 Q-3 14 14 17 Q31 20 40 29 Q45 34 50.5 44 Q56 54 59 62 L288 638 Q293 653 293 658 Q293 670 284 674 Q275 678 261 678 L228 678 Q215 678 209 678.5 Q203 679 203 685 Q203 687 205 690 Q207 693 215 693 Q224 693 233.5 692.5 Q243 692 258 692 L445 692 Q453 692 461 692.5 Q469 693 477 693 Q484 693 488 692 Q492 691 492 685 Q492 682 489.5 679 Q487 676 480 676 Q476 676 472 676.5 Q468 677 463 677 L430 677 Q423 677 411.5 674 Q400 671 392.5 660 Q385 649 377 627 L286 390 L324 390 Q345 390 364.5 397.5 Q384 405 398 413 Q427 430 444 449 Q461 468 475 490 L542 593 Z " />
<glyph glyph-name="uni041B" unicode="&#x41b;" horiz-adv-x="604" d="M547 675 Q530 643 517.5 621 Q505 599 486 565 Q467 531 456 512 Q432 469 408.5 426.5 Q385 384 358.5 340.5 Q332 297 300.5 250.5 Q269 204 229 153 Q188 103 169.5 83 Q151 63 130.5 44.5 Q110 26 89 13 Q72 2 48.5 -6.5 Q25 -15 3 -15 Q-35 -15 -52.5 8 Q-70 31 -70 59 Q-70 89 -52 107.5 Q-34 126 -11 126 Q10 126 23 112.5 Q36 99 36 79 Q36 60 25.5 50 Q15 40 6 37 Q0 35 -5.5 32.5 Q-11 30 -11 22 Q-11 18 -4.5 15.5 Q2 13 10 13 Q20 13 47.5 21.5 Q75 30 116 65 Q136 83 157.5 107.5 Q179 132 198.5 156 Q218 180 257 232 Q311 307 354 380 Q397 453 438 527 Q454 556 467 581.5 Q480 607 489 631 Q492 642 492 652 Q492 667 485.5 670.5 Q479 674 470.5 675 Q462 676 455 676 L419 676 Q408 676 389 677 Q378 679 378 685 Q378 689 382 692 Q386 695 397 695 Q416 695 433 694 Q450 693 467 693 L645 693 Q659 695 670 696 Q684 696 684 686 Q684 681 680 673.5 Q676 666 667 643 L438 55 Q436 50 434.5 44.5 Q433 39 433 34 Q433 25 443 20 Q453 15 471 15 Q483 15 495 16 Q507 17 521 17 Q526 17 529.5 16 Q533 15 533 9 Q533 1 527.5 0 Q522 -1 507 -1 L482 -1 Q467 -1 447 0 Q427 1 400.5 1.5 Q374 2 347 2 Q313 2 289 0 Q265 -2 253 -2 Q244 -2 237 -0.5 Q230 1 230 9 Q230 16 235.5 17.5 Q241 19 246 19 Q254 19 261 18.5 Q268 18 276 18 Q300 18 321 23 Q332 30 339.5 44 Q347 58 349 65 L588 675 L547 675 Z " />
<glyph glyph-name="uni041C" unicode="&#x41c;" horiz-adv-x="776" d="M79 92 L280 632 Q286 648 288 659 Q288 671 277.5 673.5 Q267 676 256 676 Q242 676 229 675 Q216 674 207 674 Q197 674 194 675.5 Q191 677 191 683 Q191 695 205 695 Q218 694 227 693.5 Q236 693 253.5 692.5 Q271 692 303 692 L353 692 Q360 692 370.5 692.5 Q381 693 397 693 Q411 693 410 683 Q410 662 409 647 L385 171 L734 692 L924 693 Q936 693 936 685 Q935 673 921 674 Q913 674 909 675 Q905 676 898 676 L863 676 Q855 676 849.5 674.5 Q844 673 839.5 666.5 Q835 660 831 650 Q827 640 825 634 L604 56 Q598 42 596 37.5 Q594 33 594 29 Q594 21 602.5 18.5 Q611 16 622 15 L651 15 Q661 15 672 16 Q680 16 680 9 Q680 5 676.5 2 Q673 -1 663 -1 Q658 -1 651 0 Q644 1 637 1 L423 -1 Q414 -1 413 7 Q414 16 434 16 Q458 17 472 18.5 Q486 20 490 23.5 Q494 27 498 35.5 Q502 44 513 71 L729 614 L748 665 L722 628 L334 54 Q323 37 316.5 27.5 Q310 18 305.5 12 Q301 6 295 6 Q291 6 287.5 9 Q284 12 285 22 L315 592 Q317 618 317 627 Q317 636 312 644 L108 93 L89 37 Q88 35 88 30 Q88 25 90.5 21.5 Q93 18 102 16.5 Q111 15 117 15 L128 15 Q137 15 146 15.5 Q155 16 165 16 Q172 16 172 10 Q172 2 167 0.5 Q162 -1 159 -1 Q154 -1 149.5 -0.5 Q145 0 140 0 L122 0 Q117 0 106 0.5 Q95 1 90 1 L10 1 L-8 1 Q-17 1 -27 0 Q-37 -1 -41 -1 Q-44 -1 -48 0 Q-52 1 -52 6 Q-52 17 -36 17 Q-28 16 -23 15.5 Q-18 15 -9 15 L7 15 Q23 15 34.5 16 Q46 17 56 34 Q61 42 65 53.5 Q69 65 79 92 Z " />
<glyph glyph-name="uni041D" unicode="&#x41d;" horiz-adv-x="695" d="M536 91 Q529 74 523 57.5 Q517 41 516.5 33 Q516 25 520.5 21 Q525 17 540 17 Q562 15 588 14 L605 14 Q617 14 617 6 Q616 -2 605 -2 Q574 -2 542.5 -1.5 Q511 -1 478 -1 Q446 -1 396 0 L360 0 Q351 0 342 -1 Q333 -2 329 -2 Q316 -1 316 7 Q316 17 334 17 Q341 17 347 16.5 Q353 16 360 16 Q388 16 399 17.5 Q410 19 414.5 27 Q419 35 421 40 L522 303 Q529 320 530.5 331 Q532 342 512 342 L281 342 Q268 342 262 323 L167 81 Q159 61 155 51 Q151 41 151 33 Q151 22 163.5 18 Q176 14 189 15 L235 17 Q250 19 250 8 Q250 4 248 2 Q246 0 241.5 -0.5 Q237 -1 233 -1 Q188 -1 160.5 -0.5 Q133 0 115 0.5 Q97 1 85.5 1.5 Q74 2 62 2 Q48 2 33.5 1.5 Q19 1 5 0 Q-6 -1 -16.5 -1.5 Q-27 -2 -38 -2 Q-43 -2 -50 -0.5 Q-57 1 -57 8 Q-57 19 -44 19 Q-35 19 -21 18 L-1 18 Q13 18 24 20.5 Q35 23 40 28 Q45 33 51 46 Q57 59 64 74 Q71 89 78 106 L281 612 Q286 625 289.5 634 Q293 643 295 649.5 Q297 656 297 660 Q297 668 291.5 671 Q286 674 281 675 Q276 676 264.5 677 Q253 678 248 678 L225 678 Q221 678 212 679 Q203 680 203 687 Q203 695 214 695 L426 693 Q451 693 465 694 L480 694 Q485 694 489.5 693 Q494 692 494 685 Q494 682 491.5 678 Q489 674 483.5 673.5 Q478 673 474 673 Q469 673 463 673.5 Q457 674 452 674 Q444 675 437 675 L422 675 Q417 675 411 674 Q405 673 401.5 670 Q398 667 395.5 663 Q393 659 390 652 Q387 645 382.5 633.5 Q378 622 371 604 L295 409 Q287 387 285.5 376.5 Q284 366 294 365 Q304 364 314 364 L521 364 Q539 364 543.5 369.5 Q548 375 552 384 Q556 393 563 410 L642 603 Q649 620 655 635 Q661 650 661 657.5 Q661 665 658 668 Q655 671 649 672.5 Q643 674 633 674.5 Q623 675 616 675 L590 675 Q585 675 577.5 676 Q570 677 568.5 680 Q567 683 567 686 Q568 694 579 693 L780 692 L840 693 Q853 693 858 691.5 Q863 690 863 685 Q863 682 860 679 Q857 676 849 676 Q841 677 836 677 L811 677 Q800 677 788.5 675.5 Q777 674 769 669 Q757 661 749 641.5 Q741 622 727 587 L536 91 Z " />
<glyph glyph-name="uni041E" unicode="&#x41e;" horiz-adv-x="710" d="M524 691 Q491 691 457.5 677 Q424 663 401 646 Q386 635 370 619 Q354 603 339 585 Q324 567 310 547.5 Q296 528 284 510 Q258 469 236 421.5 Q214 374 198 325 Q182 276 173 228.5 Q164 181 164 141 Q164 129 165.5 112.5 Q167 96 172.5 79 Q178 62 188.5 46 Q199 30 218 18 Q234 8 252.5 4.5 Q271 1 290 1 Q319 1 342 8 Q365 15 386 27 Q400 35 412.5 44 Q425 53 437 64 Q488 108 524 163.5 Q560 219 591 299 Q614 358 629 419.5 Q644 481 644 532 Q644 546 642 565.5 Q640 585 633 607 Q631 614 628 620.5 Q625 627 622 634 Q617 643 610 653 Q603 663 591 671.5 Q579 680 562.5 685.5 Q546 691 524 691 Z M529 705 Q563 705 595 696 Q625 687 647 670.5 Q669 654 686 632 Q712 597 725.5 555.5 Q739 514 739 469 Q739 447 736.5 426 Q734 405 730.5 388 Q727 371 724 359.5 Q721 348 720 344 Q703 288 672.5 238 Q642 188 611 153 Q596 136 576.5 118.5 Q557 101 536 85 Q515 69 493.5 55 Q472 41 453 31 Q424 16 380 1.5 Q336 -13 279 -13 Q179 -13 123 42.5 Q67 98 67 197 Q67 251 81.5 305 Q96 359 121.5 409.5 Q147 460 182 506 Q217 552 259 589 Q285 612 315.5 633 Q346 654 380 670 Q414 686 451.5 695.5 Q489 705 529 705 Z " />
<glyph glyph-name="uni041F" unicode="&#x41f;" horiz-adv-x="695" d="M536 91 Q529 74 523.5 60 Q518 46 516 34 Q516 25 523 22 Q530 19 540 17 Q562 15 571 14.5 Q580 14 588 14 L601 14 Q611 14 614 12.5 Q617 11 617 7 Q617 0 609.5 -1 Q602 -2 594 -2 Q574 -2 542.5 -1.5 Q511 -1 478 -1 Q446 -1 418 -0.5 Q390 0 377 0 Q369 0 356.5 -1 Q344 -2 332 -2 Q321 -2 318.5 1 Q316 4 316 7 Q316 11 319 14 Q322 17 334 17 Q341 17 347 16.5 Q353 16 360 16 Q388 16 397.5 17.5 Q407 19 410.5 21.5 Q414 24 421 40 L661 672 L397 672 L167 81 Q160 64 156 54 Q152 44 152 36 Q154 26 165 20.5 Q176 15 189 15 L234 17 Q241 17 245.5 15.5 Q250 14 250 8 Q250 3 247 1 Q244 -1 233 -1 Q188 -1 160.5 -0.5 Q133 0 115 0.5 Q97 1 85.5 1.5 Q74 2 62 2 Q48 2 33.5 1.5 Q19 1 6.5 0 Q-6 -1 -16.5 -1.5 Q-27 -2 -38 -2 Q-43 -2 -50 -0.5 Q-57 1 -57 8 Q-57 12 -54.5 15.5 Q-52 19 -44 19 Q-36 18 -31 18 L-10 18 Q6 18 19 19 Q32 20 40 28 Q55 52 61.5 67 Q68 82 78 106 L281 612 Q291 637 297 658 Q297 668 292 671.5 Q287 675 281.5 676 Q276 677 266 677.5 Q256 678 248 678 L235 678 Q221 678 212 679 Q203 680 203 687 Q203 695 214 695 L777 694 Q810 693 835 694 Q850 694 856.5 692.5 Q863 691 863 685 Q863 682 860 679 Q857 676 849 676 Q838 676 828 677 L811 677 Q800 677 788.5 675.5 Q777 674 769 669 Q757 661 749 641.5 Q741 622 727 587 L536 91 Z " />
<glyph glyph-name="uni0420" unicode="&#x420;" horiz-adv-x="567" d="M270 349 Q294 342 314 340.5 Q334 339 346 339 Q358 339 374 341 Q390 343 408 349 Q426 355 446 366.5 Q466 378 486 397 Q498 408 511 424 Q524 440 535 460.5 Q546 481 553 506.5 Q560 532 560 562 Q560 578 557 594.5 Q554 611 545 626 Q533 648 510 659 Q493 667 469.5 670.5 Q446 674 429 674 Q418 674 412 673.5 Q406 673 398 671 L270 349 Z M144 25 Q142 20 146 17 Q150 14 155 14 L232 15 Q242 15 242 7 Q242 1 235 -0.5 Q228 -2 222 -2 Q191 -2 176 -1 Q161 0 129 0 L70 0 Q56 0 42.5 0.5 Q29 1 15 1 Q0 1 -7 0.5 Q-14 0 -22.5 -1 Q-31 -2 -40 -2 Q-54 -2 -54 7 Q-54 17 -41 17 Q-30 16 -19 16 L22 15 Q27 15 31 15.5 Q35 16 39 18.5 Q43 21 47 30 L75 95 L302 676 Q291 678 282.5 677.5 Q274 677 265 676 Q251 674 244 673.5 Q237 673 232 673 Q227 673 220 674 Q213 675 210.5 678 Q208 681 208 684 Q208 689 213 691 Q218 693 221.5 693 Q225 693 228 693 Q237 693 246 692.5 Q255 692 264 692 Q270 692 276 692.5 Q282 693 288 693 Q301 694 313 694 Q326 694 339 694 Q378 694 407.5 693 Q437 692 459 690.5 Q481 689 497 687 Q513 685 526 682 Q569 673 595 657 Q621 641 635.5 622 Q650 603 655 582.5 Q660 562 660 545 Q660 524 653.5 498.5 Q647 473 630.5 447 Q614 421 587 397 Q560 373 518 354 Q468 331 424.5 326 Q381 321 358 321 Q332 321 305 324 Q278 327 261 329 L144 25 Z " />
<glyph glyph-name="uni0421" unicode="&#x421;" horiz-adv-x="573" d="M497 704 Q531 704 552 696.5 Q573 689 599 669 Q610 661 622 650 Q634 639 640.5 636.5 Q647 634 651 634 Q656 634 660.5 636 Q665 638 670 646 Q672 649 675 653 Q678 657 682 657 Q688 657 688 650 Q688 644 684.5 635 Q681 626 673 608 L645 551 Q638 534 632 520 Q626 506 618 483 Q616 477 613.5 472 Q611 467 606 467 Q597 467 598 478 Q602 491 605 502 Q609 515 610 526.5 Q611 538 611 549 Q611 612 579.5 648.5 Q548 685 491 685 Q461 685 432 676 Q403 667 380 653 Q378 651 367.5 644 Q357 637 342 624 Q327 611 309 591 Q291 571 273 544 Q244 499 220 438 Q196 377 185 318 Q180 289 177.5 259 Q175 229 175 199 Q175 173 179 148 Q183 123 197 97 Q212 68 237.5 49.5 Q263 31 310 31 Q328 31 350 35.5 Q372 40 400.5 57.5 Q429 75 447.5 90.5 Q466 106 479.5 120 Q493 134 503 149.5 Q513 165 518.5 173.5 Q524 182 531 182 Q537 182 537 174 Q537 166 530 154 Q523 142 505.5 119.5 Q488 97 457.5 65.5 Q427 34 368 10.5 Q309 -13 255 -13 Q201 -13 159 8.5 Q117 30 91 81 Q77 108 71.5 138.5 Q66 169 66 200 Q66 261 83.5 324.5 Q101 388 132.5 446.5 Q164 505 209 555.5 Q254 606 308 642 Q371 683 420 693.5 Q469 704 497 704 Z " />
<glyph glyph-name="uni0422" unicode="&#x422;" horiz-adv-x="570" d="M258 56 Q254 47 253 43.5 Q252 40 252 38 Q252 30 258.5 26 Q265 22 274.5 19.5 Q284 17 295.5 16.5 Q307 16 316 16 Q322 16 323.5 14 Q325 12 325 9 Q325 1 317.5 0 Q310 -1 305 -1 Q289 -1 274.5 -0.5 Q260 0 244 1 Q228 2 212 2 L179 2 Q153 2 142 1.5 Q131 1 113.5 -0.5 Q96 -2 72 -2 Q58 -2 58 5 Q58 9 61 12.5 Q64 16 74 16 Q83 15 89 15 L105 15 Q113 15 123.5 16.5 Q134 18 142 23 Q149 28 156 38.5 Q163 49 168 60 L411 673 L371 673 Q319 673 284 664 Q249 655 218 626 Q205 614 196 602.5 Q187 591 179 577 Q175 571 168 558.5 Q161 546 157.5 539.5 Q154 533 150 525 Q148 521 144 515 Q140 509 134 509 Q130 509 128.5 511.5 Q127 514 132 525 L207 693 Q335 691 465 691 Q595 691 729 694 Q721 672 713 648.5 Q705 625 699 606 Q693 587 690 576.5 Q687 566 684.5 558 Q682 550 679.5 541.5 Q677 533 673 518 Q671 513 669 509 Q667 505 660 505 Q655 505 653.5 507.5 Q652 510 652 516 L654 524 Q659 538 661 551 Q664 564 666.5 577 Q669 590 669 604 Q669 638 651 654 Q646 659 639.5 662.5 Q633 666 626 668 Q615 671 599 672 Q583 673 565 673 L505 673 L258 56 Z " />
<glyph glyph-name="uni0423" unicode="&#x423;" horiz-adv-x="655" d="M376 110 Q406 152 430.5 188 Q455 224 475.5 256.5 Q496 289 514 319 Q532 349 549 378 Q587 442 612.5 487.5 Q638 533 654 563 Q670 593 678.5 610 Q687 627 690 633.5 Q693 640 693 649 Q693 659 684.5 667.5 Q676 676 649 676 Q644 676 629 675 Q615 674 615 683 Q615 691 622 692.5 Q629 694 640 694 Q653 694 661.5 693.5 Q670 693 678 692.5 Q686 692 697 691.5 Q708 691 727 691 L748 691 Q758 691 769.5 692 Q781 693 792 693.5 Q803 694 817 694 Q821 694 826 693 Q831 692 831 686 Q831 677 823.5 676.5 Q816 676 808 676 Q799 676 779.5 674 Q760 672 750 667 Q739 662 730 649.5 Q721 637 711 619 Q696 592 686 573.5 Q676 555 668.5 539.5 Q661 524 653.5 509.5 Q646 495 635 475.5 Q624 456 608 428 Q592 400 567 358 Q511 263 467 195.5 Q423 128 383 76 Q370 59 353 38.5 Q336 18 317 -3.5 Q298 -25 277.5 -45.5 Q257 -66 236 -82 Q213 -100 187 -114 Q161 -128 130 -128 Q106 -128 90.5 -120 Q75 -112 65 -102 Q54 -91 47 -75.5 Q40 -60 40 -38 Q40 -17 48 -2 Q56 13 68 22.5 Q80 32 94.5 36.5 Q109 41 121 41 Q145 41 160.5 25.5 Q176 10 176 -13 Q176 -38 161.5 -51 Q147 -64 134 -64 Q129 -64 124 -62 Q119 -60 111 -60 Q105 -60 100 -65 Q95 -70 95 -77 Q95 -85 105.5 -93 Q116 -101 138 -101 Q162 -101 190 -85 Q200 -79 213 -68.5 Q226 -58 239.5 -45 Q253 -32 266 -18.5 Q279 -5 288 6 L278 596 Q277 619 274.5 633 Q272 647 263 660 Q258 665 245.5 669.5 Q233 674 208 674 Q200 674 193 673.5 Q186 673 182 673 Q175 673 169.5 674 Q164 675 164 682 Q164 685 167 689.5 Q170 694 182 694 Q197 693 215 693 Q294 692 320 692 Q340 692 360 692.5 Q380 693 400 693 L450 693 Q457 693 463 692.5 Q469 692 473.5 690.5 Q478 689 478 685 Q478 680 475.5 677.5 Q473 675 466 675 L407 672 Q397 671 389.5 669 Q382 667 377 658 Q370 647 370.5 628.5 Q371 610 371 596 L378 180 L376 110 Z " />
<glyph glyph-name="uni0424" unicode="&#x424;" horiz-adv-x="791" d="M414 129 Q464 128 497 137.5 Q530 147 538 150 Q571 163 594 182 Q617 201 638 228 Q659 255 676.5 286.5 Q694 318 706.5 351.5 Q719 385 726.5 419.5 Q734 454 734 486 Q734 505 729 527 Q724 549 707 567 Q686 589 653.5 594.5 Q621 600 591 599 L414 129 Z M502 603 Q485 603 463 602 Q441 601 417 596 Q393 591 368.5 581.5 Q344 572 322 556 Q296 538 276 513 Q256 488 242 465 Q228 442 220 423 Q212 404 210 398 Q197 365 189.5 329 Q182 293 182 264 Q182 197 225 163 Q245 147 271.5 139 Q298 131 325 133 L502 603 Z M317 112 Q267 112 226 128 Q185 144 156 169 Q124 196 105.5 233.5 Q87 271 87 322 Q87 364 100 401 Q113 438 133.5 469.5 Q154 501 180.5 525 Q207 549 234 565 Q262 581 296.5 592.5 Q331 604 368 611 Q405 618 441.5 621 Q478 624 510 624 L522 652 Q525 660 527.5 666 Q530 672 530 679 Q530 686 527.5 688 Q525 690 520 691 Q515 692 504 693 Q493 694 485 694 L459 694 Q445 694 441 698 Q437 702 437 705 Q437 710 440.5 711 Q444 712 453 712 L714 712 Q731 712 731 705 Q731 695 717 695 Q714 695 710.5 695.5 Q707 696 704 696 L678 696 Q668 696 657 695 Q646 694 637 688 Q626 681 622 671.5 Q618 662 613 651 L600 620 Q616 620 637 618.5 Q658 617 681 611.5 Q704 606 726.5 596.5 Q749 587 769 571 Q790 554 810 521 Q830 488 830 434 Q830 399 819.5 363.5 Q809 328 790.5 295 Q772 262 745.5 233 Q719 204 688 182 Q656 159 621 144.5 Q586 130 544 122 Q506 114 469 111 Q432 108 406 108 L397 81 Q391 62 389 52 Q387 42 387 37 Q387 32 392.5 23 Q398 14 425 15 L480 17 Q484 17 485.5 15.5 Q487 14 487 8 Q487 3 484 1 Q481 -1 470 -1 Q461 -1 443.5 -0.5 Q426 0 403 0.5 Q380 1 353.5 1.5 Q327 2 300 2 Q277 2 262.5 0.5 Q248 -1 237.5 -1.5 Q227 -2 200 -2 Q195 -2 188.5 -0.5 Q182 1 182 8 Q182 12 184.5 15.5 Q187 19 194 19 Q197 19 199.5 18.5 Q202 18 205 18 L230 18 Q249 18 259.5 20 Q270 22 277 28 Q281 31 286 40 Q291 49 302 75 L317 112 Z " />
<glyph glyph-name="uni0425" unicode="&#x425;" horiz-adv-x="624" d="M456 116 Q458 102 461.5 81.5 Q465 61 470 48 Q479 22 494.5 18 Q510 14 530 14 L558 14 Q567 14 570 8 Q569 -1 550 -2 Q539 -1 535 -1 Q528 -1 512.5 -0.5 Q497 0 479.5 0.5 Q462 1 446 1 Q430 1 422 1 Q396 1 369 1 Q343 1 317 0 Q302 0 287 -0.5 Q272 -1 257 -1 Q253 -1 246 -1 Q239 -1 239 7 Q239 15 255 15 Q271 15 285 15 L327 15 Q332 15 338 15.5 Q344 16 349 18.5 Q354 21 358 26 Q362 31 363.5 38.5 Q365 46 365 56 Q365 66 365 76.5 Q365 87 363 112 L341 321 L114 82 Q91 58 82.5 47 Q74 36 74 29 Q74 22 80 19 Q86 16 95 15 Q104 14 114 14.5 Q124 15 132 15 L151 15 Q159 15 159 10 Q159 4 154.5 1 Q150 -2 130 -2 Q112 -2 102.5 -1.5 Q93 -1 84 0 Q75 1 62 1.5 Q49 2 25 2 Q0 2 -7.5 1.5 Q-15 1 -26 -0.5 Q-37 -2 -63 -2 Q-76 -1 -76 6 Q-76 13 -67.5 14.5 Q-59 16 -55 16 Q-37 17 -25.5 18 Q-14 19 -6 21 Q2 23 9 27 Q16 31 25 37 Q38 46 57 62.5 Q76 79 93 96 L338 353 L304 609 Q302 621 298 638 Q294 655 286 663 Q277 672 264 673.5 Q251 675 245 675 L227 675 Q223 675 211 674 Q200 675 200 682 Q200 692 224 691 Q242 691 260 690.5 Q278 690 296 689 Q312 688 327 688 Q343 688 359 688 Q382 688 404.5 688.5 Q427 689 449 690 Q461 690 473 690.5 Q485 691 497 691 Q510 692 511 685 Q511 677 506.5 675 Q502 673 483 673 L454 673 Q439 673 427.5 671.5 Q416 670 405 663 Q396 655 395 643 Q394 631 396 616 L418 419 L624 620 Q625 621 631 627 Q637 633 643 639.5 Q649 646 654 652.5 Q659 659 659 664.5 Q659 670 649 672.5 Q639 675 621 675 L600 675 Q595 675 590 676 Q585 677 585 684 Q585 690 602 691 Q609 691 615 690.5 Q621 690 630 689.5 Q639 689 653 688.5 Q667 688 689 688 Q710 688 730 688 Q751 688 771 690 Q788 691 794 691 Q806 692 806 685 Q806 677 796 677 Q788 675 780 675 L764 675 Q745 675 726 670 Q707 665 689.5 649 Q672 633 660.5 621.5 Q649 610 638 599 L425 392 L456 116 Z " />
<glyph glyph-name="uni0426" unicode="&#x426;" horiz-adv-x="698" d="M638 603 Q651 636 653.5 646.5 Q656 657 656 660 Q656 667 653.5 669 Q651 671 646 672 Q639 674 629 674.5 Q619 675 612 675 L586 675 Q563 675 563 686 Q563 691 566.5 692 Q570 693 575 693 L776 692 L800 692 Q808 692 816 692.5 Q824 693 832 693 L844 693 Q851 693 856 691.5 Q861 690 861 685 Q861 682 858 679 Q855 676 847 676 Q844 676 840.5 676.5 Q837 677 834 677 L831 677 L809 677 Q798 677 786.5 675.5 Q775 674 767 669 Q755 661 747 641.5 Q739 622 725 587 L518 48 Q514 39 515 32.5 Q516 26 537 21 Q548 19 557.5 16.5 Q567 14 578 8 Q591 0 599 -11.5 Q607 -23 607 -43 Q607 -61 598.5 -81.5 Q590 -102 569 -122 Q559 -131 544.5 -141.5 Q530 -152 512.5 -160.5 Q495 -169 475 -175 Q455 -181 435 -181 Q417 -181 403 -177 Q389 -173 376 -168 L279 -127 Q256 -117 242.5 -113 Q229 -109 218 -109 Q191 -109 176 -125.5 Q161 -142 161 -161 Q161 -167 163.5 -170 Q166 -173 168 -173 Q172 -173 173.5 -170.5 Q175 -168 177.5 -165 Q180 -162 184 -159.5 Q188 -157 197 -157 Q207 -157 215.5 -164 Q224 -171 224 -185 Q224 -196 216 -206.5 Q208 -217 189 -217 Q165 -217 152.5 -201.5 Q140 -186 140 -166 Q140 -150 147 -136.5 Q154 -123 164 -113 Q174 -103 184.5 -96 Q195 -89 203 -86 Q221 -78 245 -73.5 Q269 -69 289 -69 Q308 -69 322.5 -72.5 Q337 -76 348 -80 L439 -112 Q462 -120 476.5 -123.5 Q491 -127 501 -127 Q522 -127 536 -117.5 Q550 -108 559 -98 Q567 -90 576.5 -75.5 Q586 -61 586 -41 Q586 -19 565 -8 Q551 -1 529.5 -0.5 Q508 0 472 0 L188 0 Q168 0 147 0 Q127 0 107 1 Q96 1 84.5 1.5 Q73 2 62 2 Q48 2 33.5 1.5 Q19 1 5 0 Q-6 -1 -16.5 -1.5 Q-27 -2 -38 -2 Q-43 -2 -50 -0.5 Q-57 1 -57 8 Q-57 12 -54.5 15.5 Q-52 19 -45 19 Q-42 19 -39 18.5 Q-36 18 -33 18 L-31 18 L-10 18 Q7 18 20 19.5 Q33 21 40 28 Q43 31 48.5 41.5 Q54 52 60 64.5 Q66 77 71 89 Q76 101 78 106 L279 612 Q287 634 291 644.5 Q295 655 295 660 Q295 668 289.5 671 Q284 674 279 675 Q274 676 262.5 677 Q251 678 246 678 L223 678 Q219 678 210 679 Q201 680 201 687 Q201 695 212 695 L444 693 Q449 693 451 693 Q453 693 456 693.5 Q459 694 463 694 Q468 694 478 694 Q483 694 487.5 693 Q492 692 492 685 Q492 676 484.5 674.5 Q477 673 472 673 Q467 673 461 673.5 Q455 674 450 674 Q442 675 435 675 Q428 675 420 675 Q415 675 409 674 Q403 673 397 667 Q395 665 393 662 Q391 659 388 652 Q385 645 380.5 633.5 Q376 622 369 604 L140 21 L409 21 L638 603 Z " />
<glyph glyph-name="uni0427" unicode="&#x427;" horiz-adv-x="576" d="M244 429 Q230 389 249 364.5 Q268 340 311 340 Q324 340 340 341.5 Q356 343 372 345.5 Q388 348 403.5 351.5 Q419 355 431 359 L523 603 Q536 637 538.5 646.5 Q541 656 541 660 Q541 669 531 672 Q526 674 515 674.5 Q504 675 497 675 L471 675 Q448 675 448 686 Q448 691 451.5 692 Q455 693 460 693 L661 692 L681 692 Q689 692 698 692.5 Q707 693 715 693 L727 693 Q734 693 739 691.5 Q744 690 744 685 Q744 682 741 679 Q738 676 730 676 Q727 676 723.5 676.5 Q720 677 717 677 L714 677 L692 677 Q681 677 669.5 675.5 Q658 674 650 669 Q639 661 630 641.5 Q621 622 608 587 L412 61 Q410 55 407.5 47 Q405 39 406.5 32 Q408 25 416 20 Q424 15 444 15 L470 15 L472 15 Q477 15 480.5 15.5 Q484 16 489 16 Q498 16 501 12.5 Q504 9 504 7 Q504 -2 490 -2 Q476 -2 463 -2 Q449 -2 435.5 -1.5 Q422 -1 408 0 Q392 1 376 1 Q360 1 344 1 Q324 1 303 1 Q283 1 263 0 Q252 0 242 -0.5 Q232 -1 221 -1 Q198 -1 198 9 Q198 11 200.5 14.5 Q203 18 214 18 Q224 18 232.5 17.5 Q241 17 250 17 Q270 17 278.5 19.5 Q287 22 291 24 Q299 29 307.5 44 Q316 59 319 67 L423 340 Q400 333 364.5 327 Q329 321 285 321 Q262 321 233 327 Q204 333 181 356 Q154 385 154 423 Q154 434 157 450 Q160 466 164 476 L218 612 Q226 634 230 644.5 Q234 655 234 660 Q234 668 228.5 671 Q223 674 218 675 Q213 676 201.5 677 Q190 678 185 678 L162 678 Q158 678 149 679 Q140 680 140 687 Q140 695 151 695 L377 693 Q382 693 384 693 Q387 693 389.5 693.5 Q392 694 397 694 Q402 694 411 694 Q416 694 420.5 693 Q425 692 425 685 Q425 677 418.5 675 Q412 673 407 673 Q394 673 391.5 673.5 Q389 674 387 674 Q386 674 381.5 674.5 Q377 675 359 675 Q354 675 348 674 Q342 673 336 667 Q333 664 329.5 656 Q326 648 322 638.5 Q318 629 314 619.5 Q310 610 308 604 L244 429 Z " />
<glyph glyph-name="uni0428" unicode="&#x428;" horiz-adv-x="948" d="M672 23 L895 603 Q907 634 910 644.5 Q913 655 913 660 Q913 667 910.5 669 Q908 671 903 672 Q896 674 886 674.5 Q876 675 869 675 L843 675 Q820 675 820 686 Q820 691 823.5 692 Q827 693 832 693 L1033 692 L1055 692 Q1063 692 1071 692.5 Q1079 693 1087 693 L1099 693 Q1106 693 1111 691.5 Q1116 690 1116 685 Q1116 682 1113 679 Q1110 676 1102 676 Q1099 676 1095.5 676.5 Q1092 677 1089 677 L1086 677 L1064 677 Q1053 677 1041.5 675.5 Q1030 674 1022 669 Q1008 660 999.5 637 Q991 614 980 585 L792 92 Q785 75 781 64.5 Q777 54 775 48 Q773 42 772.5 39 Q772 36 772 34 Q772 25 779 22 Q786 19 796 17 Q800 16 809 15.5 Q818 15 827 14.5 Q836 14 844 14 Q853 14 857 14 Q867 14 870 11.5 Q873 9 873 7 Q873 0 865.5 -1 Q858 -2 850 -2 Q830 -2 798.5 -1.5 Q767 -1 734 -1 Q702 -1 674 -0.5 Q646 0 633 0 L188 0 Q168 0 147 0 Q127 0 107 1 Q96 1 84.5 1.5 Q73 2 62 2 Q48 2 33.5 1.5 Q19 1 5 0 Q-6 -1 -16.5 -1.5 Q-27 -2 -35 -2 Q-43 -2 -50 -0.5 Q-57 1 -57 8 Q-57 12 -54.5 15.5 Q-52 19 -44 19 Q-41 19 -38.5 18.5 Q-36 18 -33 18 L-31 18 L-10 18 Q15 18 24.5 20.5 Q34 23 40 28 Q56 42 66 64 Q76 86 83 104 L279 610 Q290 639 292.5 648.5 Q295 658 295 660 Q295 668 289.5 671 Q284 674 279 675 Q274 676 262.5 677 Q251 678 246 678 L223 678 Q219 678 210 679 Q201 680 201 687 Q201 695 212 695 L444 693 Q449 693 451 693 Q453 693 456 693.5 Q459 694 463 694 Q468 694 478 694 Q483 694 487.5 693 Q492 692 492 685 Q492 676 484.5 674.5 Q477 673 472 673 Q467 673 461 673.5 Q455 674 450 674 Q442 675 435 675 Q428 675 420 675 Q415 675 409 674 Q403 673 397 667 Q396 665 394 662.5 Q392 660 389 653.5 Q386 647 381 635.5 Q376 624 369 604 L146 23 L363 23 L586 603 Q599 637 601 648 Q603 659 603 660 Q603 667 600.5 669 Q598 671 593 672 Q586 674 576 674.5 Q566 675 559 675 L533 675 Q510 675 510 686 Q510 691 513.5 692 Q517 693 522 693 L723 692 L745 692 Q753 692 761 692.5 Q769 693 777 693 L789 693 Q796 693 801 691.5 Q806 690 806 685 Q806 682 803 679 Q800 676 792 676 Q789 676 785.5 676.5 Q782 677 779 677 L776 677 L754 677 Q743 677 731.5 675.5 Q720 674 712 669 Q698 660 689.5 637 Q681 614 670 585 L455 23 L672 23 Z " />
<glyph glyph-name="uni0429" unicode="&#x429;" horiz-adv-x="948" d="M672 23 L895 603 Q907 634 910 644.5 Q913 655 913 660 Q913 667 910.5 669 Q908 671 903 672 Q896 674 886 674.5 Q876 675 869 675 L843 675 Q820 675 820 686 Q820 691 823.5 692 Q827 693 832 693 L1033 692 L1055 692 Q1063 692 1071 692.5 Q1079 693 1087 693 L1099 693 Q1106 693 1111 691.5 Q1116 690 1116 685 Q1116 682 1113 679 Q1110 676 1102 676 Q1099 676 1095.5 676.5 Q1092 677 1089 677 L1086 677 L1064 677 Q1053 677 1041.5 675.5 Q1030 674 1022 669 Q1008 660 999.5 637 Q991 614 980 585 L774 48 Q773 46 772 43.5 Q771 41 771 37 Q771 25 778.5 22.5 Q786 20 794 19 Q820 16 834 8 Q851 -1 857.5 -13 Q864 -25 864 -42 Q864 -68 852 -88.5 Q840 -109 825 -123 Q808 -139 788.5 -150.5 Q769 -162 749 -169.5 Q729 -177 709.5 -180.5 Q690 -184 674 -184 Q653 -184 636 -180 Q619 -176 605 -171 L473 -123 Q443 -112 428 -110.5 Q413 -109 408 -109 Q399 -109 390 -111.5 Q381 -114 374 -118 Q358 -126 352 -138 Q346 -150 346 -160 Q346 -173 353 -173 Q360 -173 361.5 -170.5 Q363 -168 364.5 -165.5 Q366 -163 369.5 -160.5 Q373 -158 383 -158 Q397 -158 403.5 -166 Q410 -174 410 -185 Q410 -197 400.5 -207.5 Q391 -218 374 -218 Q353 -218 339 -204.5 Q325 -191 325 -169 Q325 -145 343.5 -119 Q362 -93 408 -78 Q416 -75 427.5 -73 Q439 -71 452 -69 Q465 -67 477.5 -66 Q490 -65 500 -65 Q521 -65 538 -68.5 Q555 -72 569 -77 L676 -112 Q708 -123 724 -125.5 Q740 -128 748 -128 Q771 -128 788.5 -117.5 Q806 -107 817 -96 Q828 -86 835.5 -74 Q843 -62 843 -42 Q843 -15 818 -7 Q814 -6 808 -4.5 Q802 -3 790 -2 Q778 -1 759.5 -0.5 Q741 0 713 0 L188 0 Q168 0 147 0 Q127 0 107 1 Q96 1 84.5 1.5 Q73 2 62 2 Q48 2 33.5 1.5 Q19 1 5 0 Q-6 -1 -16.5 -1.5 Q-27 -2 -35 -2 Q-43 -2 -50 -0.5 Q-57 1 -57 8 Q-57 12 -54.5 15.5 Q-52 19 -44 19 Q-41 19 -38.5 18.5 Q-36 18 -33 18 L-31 18 L-10 18 Q15 18 24.5 20.5 Q34 23 40 28 Q56 42 66 64 Q76 86 83 104 L279 610 Q290 639 292.5 648.5 Q295 658 295 660 Q295 668 289.5 671 Q284 674 279 675 Q274 676 262.5 677 Q251 678 246 678 L223 678 Q219 678 210 679 Q201 680 201 687 Q201 695 212 695 L444 693 Q449 693 451 693 Q453 693 456 693.5 Q459 694 463 694 Q468 694 478 694 Q483 694 487.5 693 Q492 692 492 685 Q492 676 484.5 674.5 Q477 673 472 673 Q467 673 461 673.5 Q455 674 450 674 Q442 675 435 675 Q428 675 420 675 Q415 675 409 674 Q403 673 397 667 Q396 665 394 662.5 Q392 660 389 653.5 Q386 647 381 635.5 Q376 624 369 604 L146 23 L363 23 L586 603 Q599 637 601 648 Q603 659 603 660 Q603 667 600.5 669 Q598 671 593 672 Q586 674 576 674.5 Q566 675 559 675 L533 675 Q510 675 510 686 Q510 691 513.5 692 Q517 693 522 693 L723 692 L745 692 Q753 692 761 692.5 Q769 693 777 693 L789 693 Q796 693 801 691.5 Q806 690 806 685 Q806 682 803 679 Q800 676 792 676 Q789 676 785.5 676.5 Q782 677 779 677 L776 677 L754 677 Q743 677 731.5 675.5 Q720 674 712 669 Q698 660 689.5 637 Q681 614 670 585 L455 23 L672 23 Z " />
<glyph glyph-name="uni042A" unicode="&#x42a;" horiz-adv-x="663" d="M233 46 Q231 42 231 37 Q231 33 236 27 Q244 18 262 17 Q280 16 294 16 Q309 16 328.5 17.5 Q348 19 370 24.5 Q392 30 414.5 40.5 Q437 51 458 70 Q479 88 494 112 Q509 136 518.5 161 Q528 186 533 210.5 Q538 235 538 256 Q538 275 532 297 Q526 319 503 341 Q483 360 450.5 371 Q418 382 365 375 L233 46 Z M390 673 L342 673 Q316 673 286 669 Q256 665 228 649 Q197 632 176 603 Q155 574 139 542 Q123 509 114 509 Q108 509 108 516 Q108 520 112 529 Q116 538 131 570 Q143 596 158.5 631 Q174 666 186 695 Q230 693 279 692 Q328 691 394 691 L503 691 Q508 691 514 691.5 Q520 692 525 692 Q533 693 541 693 Q549 693 557 693 L569 693 Q574 693 580 692 Q586 691 586 685 Q586 682 583 679 Q580 676 572 676 Q569 676 565.5 676.5 Q562 677 559 677 L556 677 L534 677 Q515 677 506 674.5 Q497 672 492 669 Q481 662 473 643 Q465 624 450 587 L373 395 Q425 399 474.5 388 Q524 377 562 352 Q601 326 618 294 Q635 262 635 221 Q635 175 616 134.5 Q597 94 569 68 Q543 43 511.5 29 Q480 15 449.5 8 Q419 1 391 -0.5 Q363 -2 343 -2 Q324 -2 306 -1.5 Q288 -1 269 0 Q243 1 216.5 1.5 Q190 2 163 2 Q135 2 123 1.5 Q111 1 103 0 Q95 -1 85 -1.5 Q75 -2 57 -2 Q48 -2 42.5 -1 Q37 0 37 5 Q37 10 44.5 13 Q52 16 58 16 Q65 16 64 15.5 Q63 15 71 15 L88 15 Q94 15 104.5 17 Q115 19 123 24 Q130 29 137 41 Q144 53 148 62 L390 673 Z " />
<glyph glyph-name="uni042B" unicode="&#x42b;" horiz-adv-x="861" d="M144 46 Q142 42 142 37 Q142 33 147 27 Q155 18 173 17 Q191 16 205 16 Q220 16 239.5 17.5 Q259 19 281 24.5 Q303 30 325.5 40.5 Q348 51 369 70 Q390 88 405 112 Q420 136 429.5 161 Q439 186 444 210.5 Q449 235 449 256 Q449 275 443 297 Q437 319 414 341 Q394 360 361.5 371 Q329 382 276 375 L144 46 Z M284 395 Q336 399 385.5 388 Q435 377 473 352 Q512 326 529 294 Q546 262 546 221 Q546 175 527 134.5 Q508 94 480 68 Q454 43 422.5 29 Q391 15 360.5 8 Q330 1 302 -0.5 Q274 -2 254 -2 Q235 -2 217 -1.5 Q199 -1 180 0 Q154 1 127.5 1.5 Q101 2 74 2 Q46 2 34 1.5 Q22 1 14 0 Q6 -1 -4 -1.5 Q-14 -2 -33 -2 Q-41 -2 -46.5 -1 Q-52 0 -52 5 Q-52 10 -44.5 13 Q-37 16 -31 16 Q-24 16 -25 15.5 Q-26 15 -18 15 L-1 15 Q5 15 15.5 17 Q26 19 34 24 Q41 29 48 41 Q55 53 59 62 L277 612 Q285 634 289 644.5 Q293 655 293 660 Q293 668 287.5 671 Q282 674 277 675 Q272 676 260.5 677 Q249 678 244 678 L221 678 Q217 678 208 679 Q199 680 199 687 Q199 690 201.5 692.5 Q204 695 213 695 Q226 695 237.5 694.5 Q249 694 263.5 693.5 Q278 693 298.5 692.5 Q319 692 350 692 L414 692 L436 692 Q444 692 452 692.5 Q460 693 468 693 L480 693 Q485 693 491 692 Q497 691 497 685 Q497 682 494 679 Q491 676 483 676 Q480 676 476.5 676.5 Q473 677 470 677 L467 677 L445 677 Q426 677 417 674.5 Q408 672 403 669 Q392 662 384 643 Q376 624 361 587 L284 395 Z M969 678 Q956 678 946.5 674.5 Q937 671 928 657 Q926 654 922.5 647 Q919 640 915 631.5 Q911 623 907 614.5 Q903 606 901 601 L686 52 Q685 50 683 44 Q681 38 681 35 Q681 31 685 25.5 Q689 20 701 17 Q711 14 717 13.5 Q723 13 729 13 Q735 13 741 13 Q748 13 758 11 Q760 11 762.5 9.5 Q765 8 765 5 Q765 -2 751 -2 L510 -1 Q493 -1 487.5 0 Q482 1 482 6 Q482 9 484 11 Q486 13 495 13 L509 13 Q527 13 542 14 Q557 15 572 25 Q581 31 583.5 35.5 Q586 40 589 47 L820 627 Q823 635 827 646.5 Q831 658 831 662 Q831 667 825.5 673 Q820 679 800 679 L760 679 Q756 679 754 680 Q749 682 749 687 Q749 692 754.5 693 Q760 694 762 694 Q771 694 779.5 693.5 Q788 693 797 693 L802 693 L974 693 Q989 693 993.5 693.5 Q998 694 1007 694 Q1022 694 1022 686 Q1022 684 1019.5 680.5 Q1017 677 1009 677 Q1006 677 1003.5 677.5 Q1001 678 998 678 L995 678 L969 678 Z " />
<glyph glyph-name="uni042C" unicode="&#x42c;" horiz-adv-x="569" d="M139 46 Q137 42 137 37 Q137 33 142 27 Q150 18 168 17 Q186 16 200 16 Q215 16 234.5 17.5 Q254 19 276 24.5 Q298 30 320.5 40.5 Q343 51 364 70 Q385 88 400 112 Q415 136 424.5 161 Q434 186 439 210.5 Q444 235 444 256 Q444 275 438 297 Q432 319 409 341 Q389 360 356.5 371 Q324 382 271 375 L139 46 Z M279 395 Q331 399 380.5 388 Q430 377 468 352 Q507 326 524 294 Q541 262 541 221 Q541 175 522 134.5 Q503 94 475 68 Q449 43 417.5 29 Q386 15 355.5 8 Q325 1 297 -0.5 Q269 -2 249 -2 Q230 -2 212 -1.5 Q194 -1 175 0 Q149 1 122.5 1.5 Q96 2 69 2 Q41 2 29 1.5 Q17 1 9 0 Q1 -1 -9 -1.5 Q-19 -2 -37 -2 Q-46 -2 -51.5 -1 Q-57 0 -57 5 Q-57 10 -49.5 13 Q-42 16 -36 16 Q-29 16 -30 15.5 Q-31 15 -23 15 L-6 15 Q0 15 10.5 17 Q21 19 29 24 Q36 29 43 41 Q50 53 54 62 L272 612 Q280 634 284 644.5 Q288 655 288 660 Q288 668 282.5 671 Q277 674 272 675 Q267 676 255.5 677 Q244 678 239 678 L216 678 Q212 678 203 679 Q194 680 194 687 Q194 690 196.5 692.5 Q199 695 208 695 Q221 695 232.5 694.5 Q244 694 258.5 693.5 Q273 693 293.5 692.5 Q314 692 345 692 L409 692 L431 692 Q439 692 447 692.5 Q455 693 463 693 L475 693 Q480 693 486 692 Q492 691 492 685 Q492 682 489 679 Q486 676 478 676 Q475 676 471.5 676.5 Q468 677 465 677 L462 677 L440 677 Q421 677 412 674.5 Q403 672 398 669 Q387 662 379 643 Q371 624 356 587 L279 395 Z " />
<glyph glyph-name="uni042D" unicode="&#x42d;" horiz-adv-x="623" d="M317 397 Q343 417 367 432 Q391 447 426 447 Q444 447 469 440 Q494 433 535 410 Q542 435 546.5 465 Q551 495 551 522 Q551 554 545 585 Q539 616 526 637 Q509 665 484 677 Q459 689 424 689 Q397 689 374.5 682 Q352 675 333.5 664.5 Q315 654 301 642.5 Q287 631 277 621 Q256 599 238.5 576.5 Q221 554 195 515 Q188 502 181 501 Q174 502 175 510 Q179 520 183 531 Q187 542 194 561.5 Q201 581 212 614 Q218 633 224 651 Q230 669 236 692 Q238 706 247 706 Q255 706 254 694 Q254 674 276 674 Q283 674 292 676 Q301 678 320 685 Q340 693 364.5 699.5 Q389 706 429 706 Q471 706 507 694.5 Q543 683 575 651 Q596 630 609.5 606.5 Q623 583 630.5 559 Q638 535 641 511.5 Q644 488 644 467 Q644 386 613.5 308.5 Q583 231 529 164 Q498 126 460.5 92.5 Q423 59 374 32 Q340 13 296 -2.5 Q252 -18 201 -18 Q157 -18 128 -8 Q99 2 80 18 Q56 38 43 67 Q30 96 30 121 Q30 140 36.5 153.5 Q43 167 53 176 Q63 185 76 189 Q89 193 101 193 Q120 193 139 180.5 Q158 168 158 137 Q158 112 145 98.5 Q132 85 114 85 Q106 85 100.5 88 Q95 91 91 91 Q80 90 80 78 Q80 61 95 44 Q110 27 123 20 Q139 11 160.5 6 Q182 1 199 1 Q206 1 223 2.5 Q240 4 264 13 Q288 22 317.5 40 Q347 58 378 91 Q406 121 430 158 Q454 195 473 234.5 Q492 274 506.5 313.5 Q521 353 530 388 Q519 396 508.5 399 Q498 402 486 402 Q463 402 441.5 393.5 Q420 385 393 362 L350 326 Q327 306 304.5 296 Q282 286 256 286 Q238 286 226.5 291 Q215 296 204 301 L164 320 Q152 325 144.5 332 Q137 339 137 345 Q137 353 146 353 Q154 353 160 346.5 Q166 340 168 338 Q176 330 196 330 Q224 330 245.5 343.5 Q267 357 283 370 L317 397 Z " />
<glyph glyph-name="uni042E" unicode="&#x42e;" horiz-adv-x="965" d="M790 691 Q758 691 727 677 Q696 663 673 646 Q656 633 628 602.5 Q600 572 562 509 Q536 467 515 420.5 Q494 374 478.5 326.5 Q463 279 454.5 231.5 Q446 184 446 139 Q446 119 450 95 Q454 71 467 50 Q480 29 504 15 Q528 1 568 1 Q599 1 632.5 13.5 Q666 26 708 64 Q762 112 796.5 173.5 Q831 235 854 299 Q862 321 871 350.5 Q880 380 887.5 411.5 Q895 443 899.5 474 Q904 505 904 532 Q904 574 897 597.5 Q890 621 883 634 Q878 643 871 653 Q864 663 853 671.5 Q842 680 826.5 685.5 Q811 691 790 691 Z M397 384 Q420 436 456 490 Q492 544 540 589 Q603 649 671 677 Q739 705 796 705 Q851 705 886.5 683.5 Q922 662 944 633 Q961 610 977.5 569.5 Q994 529 994 469 Q994 428 985.5 385.5 Q977 343 961 301.5 Q945 260 922.5 222 Q900 184 873 153 Q858 136 840 118.5 Q822 101 802 85 Q782 69 761.5 55 Q741 41 723 31 Q688 12 646 -0.5 Q604 -13 556 -13 Q462 -13 410 42 Q358 97 358 197 Q358 245 367.5 287.5 Q377 330 389 362 L289 362 Q281 362 278 359.5 Q275 357 270 343 L167 81 Q159 61 155 51 Q151 41 151 33 Q151 22 163.5 18 Q176 14 189 15 L243 17 Q247 17 248.5 15.5 Q250 14 250 8 Q250 3 247 1 Q244 -1 233 -1 Q188 -1 160.5 -0.5 Q133 0 115 0.5 Q97 1 85.5 1.5 Q74 2 62 2 Q48 2 33.5 1.5 Q19 1 5 0 Q-6 -1 -16.5 -1.5 Q-27 -2 -35 -2 Q-43 -2 -50 -0.5 Q-57 1 -57 8 Q-57 12 -54.5 15.5 Q-52 19 -44 19 Q-41 19 -38.5 18.5 Q-36 18 -33 18 L-31 18 L-10 18 Q-2 18 5 18.5 Q12 19 20 20 Q25 21 30 22 Q35 23 40 28 Q45 33 49 43 Q57 59 64 74 Q71 89 78 106 L281 612 Q289 632 291.5 640 Q294 648 296 653 Q297 655 297 660 Q297 666 294 669 Q291 673 281 675 Q276 676 264.5 677 Q253 678 248 678 L225 678 Q221 678 212 679 Q203 680 203 687 Q203 691 208 694 Q210 695 217 695 L446 693 L448 693 Q456 693 463.5 693.5 Q471 694 480 694 Q485 694 489.5 693 Q494 692 494 685 Q494 682 492 678 Q489 674 483 673.5 Q477 673 475 673 Q467 673 463 673.5 Q459 674 454 674 Q450 674 443 674.5 Q436 675 422 675 Q417 675 411 674 Q405 673 399 667 Q396 663 390.5 652 Q385 641 371 604 L303 429 Q295 407 292.5 401.5 Q290 396 290 394 Q290 386 301 385 Q312 384 322 384 L397 384 Z " />
<glyph glyph-name="uni042F" unicode="&#x42f;" horiz-adv-x="632" d="M594 651 Q596 656 597 661.5 Q598 667 588 673 Q583 676 574 677.5 Q565 679 543 679 Q526 679 504 677.5 Q482 676 458 669.5 Q434 663 410.5 650.5 Q387 638 366 617 Q358 608 348.5 595.5 Q339 583 331 566 Q323 549 317.5 527.5 Q312 506 312 480 Q312 463 316 438.5 Q320 414 343 394 Q350 388 360.5 383 Q371 378 387 374 Q403 370 426.5 367.5 Q450 365 482 365 L594 651 Z M384 357 Q359 357 329.5 363.5 Q300 370 278 383 Q220 419 220 493 Q220 526 229.5 552.5 Q239 579 253 599 Q267 619 284 632.5 Q301 646 315 654 Q349 673 399 684 Q449 695 507 695 Q524 695 540.5 694.5 Q557 694 574 693 Q590 692 605 692 Q620 692 636 692 L717 692 L725 692 Q736 692 748 692.5 Q760 693 771 693 L783 693 Q790 693 795 691.5 Q800 690 800 685 Q800 682 797 679 Q794 676 786 676 Q783 676 779.5 676.5 Q776 677 773 677 L770 677 L748 677 Q739 677 727 676 Q715 675 706 669 Q694 661 685 641.5 Q676 622 662 587 L469 81 Q461 61 457 51 Q453 41 453 33 Q453 22 465.5 18 Q478 14 491 15 L539 17 Q543 17 544.5 15.5 Q546 14 546 8 Q546 3 543 1 Q540 -1 529 -1 Q487 -1 458.5 -0.5 Q430 0 411.5 0.5 Q393 1 381.5 1.5 Q370 2 362 2 Q348 2 334.5 1.5 Q321 1 307 0 Q296 -1 285.5 -1.5 Q275 -2 267 -2 Q259 -2 252 -0.5 Q245 1 245 8 Q245 12 247.5 15.5 Q250 19 258 19 Q261 19 263.5 18.5 Q266 18 269 18 L271 18 L292 18 Q316 18 326.5 20.5 Q337 23 342 28 Q343 29 345.5 32 Q348 35 352.5 43.5 Q357 52 363.5 67 Q370 82 380 106 L475 344 Q441 349 411 341 Q381 333 354 315 Q343 308 316.5 285 Q290 262 262 220 L167 76 Q153 54 137 39 Q121 24 98 11 Q80 1 61 -4.5 Q42 -10 18 -10 Q-5 -10 -19.5 -5.5 Q-34 -1 -42 5.5 Q-50 12 -53 19 Q-56 26 -56 32 Q-56 41 -49.5 48.5 Q-43 56 -32 56 Q-27 56 -19.5 53.5 Q-12 51 -12 39 Q-12 34 -13 30.5 Q-14 27 -19 25 Q-23 23 -27 22.5 Q-31 22 -31 20 Q-31 18 -26.5 13.5 Q-22 9 -11 9 Q1 9 12.5 16.5 Q24 24 33.5 34.5 Q43 45 50 55 Q57 65 61 71 L148 203 Q171 238 199.5 266.5 Q228 295 260 314 Q288 330 320.5 340 Q353 350 384 355 L384 357 Z " />
<glyph glyph-name="uni0430" unicode="&#x430;" horiz-adv-x="487" d="M362 302 Q371 322 373 331 Q375 340 375 345 Q375 353 372.5 361.5 Q370 370 366 378 Q360 389 346 399.5 Q332 410 307 410 Q281 410 264.5 400 Q248 390 235.5 377.5 Q223 365 210.5 349 Q198 333 185 313 Q172 293 162.5 276 Q153 259 138 230 Q112 177 104 140.5 Q96 104 96 79 Q96 69 97 59 Q98 49 103 40 Q108 30 119 20.5 Q130 11 151 11 Q160 11 169 13.5 Q178 16 186 20 Q201 27 213 38 Q230 52 248.5 75.5 Q267 99 284 134 L362 302 Z M414 412 Q418 420 419 424 Q420 428 428 428 Q434 428 437.5 426.5 Q441 425 446 424.5 Q451 424 456 424 Q464 424 473.5 425.5 Q483 427 488 430 Q490 431 495.5 432.5 Q501 434 501 426 Q501 424 493 405 L361 105 Q358 98 355 91.5 Q352 85 349.5 77 Q347 69 344.5 58.5 Q342 48 342 40 Q342 21 352 17 Q362 13 368 13 Q378 13 391 17 Q404 21 419 35 Q427 42 433.5 50 Q440 58 446 66 Q449 70 451.5 73.5 Q454 77 458 77 Q462 77 462 73 Q462 68 454.5 57 Q447 46 440 38 Q425 21 400 6 Q375 -9 337 -9 Q299 -9 282 8.5 Q265 26 265 46 Q265 53 267 61.5 Q269 70 272 80 Q261 63 247 47 Q233 31 218 19 Q198 3 176 -5 Q154 -13 125 -13 Q110 -13 91 -8.5 Q72 -4 52 11 Q26 31 17 57.5 Q8 84 8 107 Q8 144 25 187.5 Q42 231 71 271 Q88 294 107 315 Q126 336 147 355 Q189 393 227 412 Q265 431 305 431 Q313 431 327 429.5 Q341 428 355 420 Q372 410 379.5 393 Q387 376 389 359 L414 412 Z " />
<glyph glyph-name="uni0431" unicode="&#x431;" horiz-adv-x="472" d="M305 410 Q290 410 272.5 405.5 Q255 401 236 388 Q217 375 197 351.5 Q177 328 158 291 Q146 269 135.5 242.5 Q125 216 117 187.5 Q109 159 104.5 131 Q100 103 100 78 Q100 71 101.5 58 Q103 45 109.5 32.5 Q116 20 129.5 11 Q143 2 167 2 Q192 2 213.5 11.5 Q235 21 252 36.5 Q269 52 282.5 71 Q296 90 307 110 Q320 135 331.5 164 Q343 193 351.5 222.5 Q360 252 365 280.5 Q370 309 370 333 Q370 344 368 357.5 Q366 371 359 382.5 Q352 394 339 402 Q326 410 305 410 Z M92 309 Q114 336 140.5 358 Q167 380 195.5 395.5 Q224 411 252.5 419.5 Q281 428 307 428 Q341 428 367 415.5 Q393 403 411 381.5 Q429 360 438 331 Q447 302 447 269 Q447 199 415.5 147.5 Q384 96 340 58 Q313 35 288 20.5 Q263 6 241 -2 Q219 -10 200.5 -13 Q182 -16 169 -16 Q126 -16 99.5 -1 Q73 14 58 34 Q38 60 32 87.5 Q26 115 26 141 Q26 181 36.5 222.5 Q47 264 69 316 Q90 366 114.5 410.5 Q139 455 165 490 Q194 529 217.5 551.5 Q241 574 253 584 Q276 602 296 611.5 Q316 621 340 628 Q359 633 375.5 636 Q392 639 409 640.5 Q426 642 444.5 643 Q463 644 487 645 Q507 646 521.5 648.5 Q536 651 546 657 Q553 662 561 670 Q569 678 573 686 Q578 694 580 706 Q582 713 589 713 Q598 713 598 704 Q598 700 594.5 691 Q591 682 577 661 Q565 643 544 620.5 Q523 598 496 583 Q471 569 448 565 Q425 561 400 559 Q362 556 335 554 Q308 552 286.5 547.5 Q265 543 247.5 534.5 Q230 526 212 510 Q184 485 163.5 453 Q143 421 133 403 Q122 382 110.5 357 Q99 332 91 309 L92 309 Z " />
<glyph glyph-name="uni0432" unicode="&#x432;" horiz-adv-x="416" d="M130 203 Q120 175 113 154 Q106 133 101 116.5 Q96 100 93.5 86.5 Q91 73 91 61 Q91 44 96.5 33 Q102 22 111 16 Q120 10 130.5 7.5 Q141 5 150 5 Q170 5 193 13 Q216 21 234 35 Q261 56 272 84.5 Q283 113 283 135 Q283 174 257 194 Q244 204 226 208 Q208 212 191 212 Q177 212 161 209.5 Q145 207 130 203 Z M137 222 Q166 225 201.5 233.5 Q237 242 266 256 Q285 266 301.5 280 Q318 294 328 311 Q335 324 339 341 Q343 358 343 372 Q343 387 338 395 Q333 403 325 408.5 Q317 414 302 414 Q270 414 246 395.5 Q222 377 202 348 Q193 335 184 319.5 Q175 304 166.5 287 Q158 270 150.5 253.5 Q143 237 137 222 Z M220 223 Q240 223 261.5 219.5 Q283 216 300 210 Q338 196 352.5 173 Q367 150 367 126 Q367 111 362 94.5 Q357 78 345 62 Q333 46 312.5 31 Q292 16 262 5 Q224 -9 193.5 -11.5 Q163 -14 155 -14 Q126 -14 99 -7.5 Q72 -1 52 14 Q38 25 26 45 Q14 65 14 97 Q14 109 20.5 140.5 Q27 172 55 231 Q62 247 73.5 268 Q85 289 101.5 311.5 Q118 334 139.5 356 Q161 378 189 397 Q223 420 254 426 Q285 432 306 432 Q327 432 348.5 426.5 Q370 421 384 411 Q398 401 406.5 386 Q415 371 415 348 Q415 328 408 312.5 Q401 297 391 286 Q381 275 369.5 268 Q358 261 350 257 Q318 240 286.5 234.5 Q255 229 220 224 L220 223 Z " />
<glyph glyph-name="uni0433" unicode="&#x433;" horiz-adv-x="370" d="M236 223 Q199 207 175.5 194 Q152 181 136 167 Q113 147 104 123.5 Q95 100 95 78 Q95 49 110 32 Q122 17 137.5 13.5 Q153 10 166 10 Q193 10 213 17.5 Q233 25 247 35.5 Q261 46 269.5 56 Q278 66 282 72 Q287 80 293.5 89.5 Q300 99 309 99 Q317 99 317 91 Q317 84 311 74 Q305 64 296.5 53.5 Q288 43 278.5 34 Q269 25 261 19 Q242 5 223 -3.5 Q204 -12 186 -16 Q168 -20 151.5 -21 Q135 -22 120 -22 Q100 -22 81.5 -19.5 Q63 -17 45 -6 Q5 18 5 68 Q5 89 11.5 107 Q18 125 27.5 138.5 Q37 152 48.5 162.5 Q60 173 69 179 Q77 184 87 190 Q97 196 112 203 Q127 210 148 218.5 Q169 227 199 239 Q214 245 234.5 254.5 Q255 264 270 282 Q278 292 284 306.5 Q290 321 290 341 Q290 359 282.5 373 Q275 387 262.5 395 Q250 403 227 403 Q193 403 165 386 Q143 372 127.5 354 Q112 336 103 322 Q100 318 96.5 314 Q93 310 86 310 Q78 310 77 319 Q77 324 81 331 Q85 338 90.5 345.5 Q96 353 102 359.5 Q108 366 112 370 Q125 383 140.5 395 Q156 407 173 415 Q194 425 214 428 Q234 431 250 431 Q276 430 289.5 428 Q303 426 317 421 Q331 416 343 407 Q374 384 374 341 Q374 318 365 303.5 Q356 289 339 275 Q319 259 293.5 248 Q268 237 236 223 Z " />
<glyph glyph-name="uni0434" unicode="&#x434;" horiz-adv-x="455" d="M375 351 Q366 372 353.5 384 Q341 396 329.5 402 Q318 408 309 409 Q300 410 299 410 Q265 410 227 383.5 Q189 357 157 299 Q146 280 135 254 Q124 228 115 199 Q106 170 100.5 138.5 Q95 107 95 77 Q95 50 103.5 35 Q112 20 128 11 Q144 2 159 2 Q180 2 200.5 12 Q221 22 237 35.5 Q253 49 269 72 Q287 97 303 131 Q319 165 332.5 202.5 Q346 240 357 278.5 Q368 317 375 351 Z M382 376 Q393 419 400.5 468 Q408 517 408 558 Q408 566 407.5 579 Q407 592 404.5 606.5 Q402 621 396.5 635 Q391 649 382 660 Q371 673 352 681 Q333 689 307 689 Q270 689 239 673 Q224 665 216.5 656.5 Q209 648 209 639 Q209 629 218 629 Q233 622 233 608 Q233 599 224.5 587 Q216 575 198 575 Q186 575 175.5 582.5 Q165 590 165 607 Q165 630 183 651 Q201 672 229 686 Q269 705 310 705 Q326 705 343.5 702.5 Q361 700 378 693 Q395 686 411.5 673.5 Q428 661 441 642 Q452 625 459.5 605 Q467 585 471.5 563.5 Q476 542 478 521 Q480 500 480 481 Q480 451 475.5 415 Q471 379 462.5 341.5 Q454 304 442 266.5 Q430 229 415 196 Q401 165 375.5 123.5 Q350 82 308 47 Q275 20 234 2 Q193 -16 156 -16 Q127 -16 104.5 -6 Q82 4 62 24 Q38 49 28 76.5 Q18 104 18 135 Q18 160 23 183 Q28 206 35.5 224.5 Q43 243 51 257.5 Q59 272 65 281 Q87 314 113 339 Q139 364 168 382 Q177 388 191.5 396 Q206 404 223.5 411 Q241 418 259.5 423 Q278 428 296 428 Q332 428 352 410.5 Q372 393 382 376 Z " />
<glyph glyph-name="uni0435" unicode="&#x435;" horiz-adv-x="380" d="M147 255 Q200 250 241.5 264.5 Q283 279 314 315 Q335 339 339.5 354.5 Q344 370 344 379 Q344 388 338.5 399 Q333 410 313 410 Q290 410 272 399.5 Q254 389 250 386 Q221 364 193.5 326.5 Q166 289 147 255 Z M139 242 Q133 231 127 218 Q121 205 116 188 Q108 165 105 144 Q102 123 102 100 Q102 92 103.5 77 Q105 62 112.5 47 Q120 32 136 21 Q152 10 180 10 Q205 10 221.5 17 Q238 24 252 32 Q259 36 264.5 39.5 Q270 43 275 47.5 Q280 52 286 58 Q292 64 300 74 Q303 78 307.5 83 Q312 88 317 88 Q322 88 322 82 Q322 76 316.5 68.5 Q311 61 303.5 52.5 Q296 44 288 37 Q280 30 275 26 Q258 13 232 0 Q206 -13 164 -13 Q132 -13 105 -3.5 Q78 6 57.5 23.5 Q37 41 25.5 66 Q14 91 14 122 Q14 140 19 164 Q24 188 37.5 215.5 Q51 243 74.5 274 Q98 305 136 338 Q191 386 239.5 408 Q288 430 332 430 Q377 430 396 409 Q415 388 415 362 Q415 351 408 328 Q401 305 372 283 Q349 266 320 255 Q285 242 250 239 Q220 237 210 237 Q189 237 171 238.5 Q153 240 139 242 Z " />
</font>
</svg>
