<?xml version="1.0" encoding="UTF-8"?>
<svg xmlns="http://www.w3.org/2000/svg" xmlns:xlink="http://www.w3.org/1999/xlink" version="1.2" >
<font id="ITC Bodoni Seventytwo W10 Bd">
<font-face  font-family="ITCBodoniSeventytwoW10-Bd" units-per-em="1000" ascent="705" descent="-260" font-style="normal" font-weight="400" font-stretch="normal" cap-height="698" x-height="436" underline-position="-150" underline-thickness="50" />
<missing-glyph  horiz-adv-x="233" d="" />
<glyph glyph-name="space" unicode="&#x20;" horiz-adv-x="233" d="" />
<glyph glyph-name="exclam" unicode="&#x21;" horiz-adv-x="304" d="M153 135 Q183 135 203.5 114 Q224 93 224 62 Q224 31 204 11 Q184 -9 153 -9 Q122 -9 101 11.5 Q80 32 80 63 Q80 93 101 114 Q122 135 153 135 Z M75 592 Q73 600 72 607.5 Q71 615 69 623 Q74 628 78 634 Q82 640 87 645 Q106 667 116 679.5 Q126 692 137 699 Q143 704 152 704 Q162 704 168 699 Q176 693 185.5 683.5 Q195 674 204 663 Q213 652 221.5 641 Q230 630 236 622 Q230 593 222.5 560 Q215 527 208.5 493.5 Q202 460 195.5 427.5 Q189 395 185 368 Q174 301 170 259 Q166 217 161 186 Q160 179 158 177 Q156 175 154 174 L151 174 Q148 174 145 177 Q142 180 141 194 Q141 200 138 222 Q135 244 131.5 269 Q128 294 125 316.5 Q122 339 121 346 Q115 385 109.5 416.5 Q104 448 98.5 476.5 Q93 505 87 533 Q81 561 75 592 Z " />
<glyph glyph-name="quotedbl" unicode="&#x22;" horiz-adv-x="562" d="M431 670 Q453 670 467.5 655 Q482 640 482 618 Q482 602 475 588.5 Q468 575 461 565 Q457 560 454 555.5 Q451 551 447 546 Q430 524 413.5 503.5 Q397 483 375 452 Q369 444 360.5 432 Q352 420 344 408 Q336 396 328.5 384.5 Q321 373 317 366 Q315 362 310.5 355.5 Q306 349 301 349 Q294 349 294 353 Q294 364 297 372 Q320 428 332 466.5 Q344 505 351 532 Q358 560 363 581 Q368 602 375 620 Q378 628 382.5 637 Q387 646 393.5 653.5 Q400 661 409 665.5 Q418 670 431 670 Z M236 670 Q258 670 272.5 655 Q287 640 287 618 Q287 606 282 593 Q278 584 271.5 573.5 Q265 563 252 546 Q235 524 218.5 503.5 Q202 483 180 452 Q174 444 165.5 432 Q157 420 149 408 Q141 396 133.5 384.5 Q126 373 122 366 Q120 362 115.5 355.5 Q111 349 106 349 Q104 349 101 351 Q98 353 98 358 Q98 362 99 365 Q100 368 102 372 Q125 428 137 466.5 Q149 505 156 532 Q163 560 168 581 Q173 602 180 620 Q183 628 187.5 637 Q192 646 198.5 653.5 Q205 661 214 665.5 Q223 670 236 670 Z " />
<glyph glyph-name="numbersign" unicode="&#x23;" horiz-adv-x="562" d="M333 323 L363 426 L235 426 L205 323 L333 323 Z M134 77 L92 77 L141 247 L52 247 L52 323 L163 323 L192 426 L88 426 L86 502 L214 502 L263 672 L306 672 L257 502 L385 502 L434 672 L476 672 L427 502 L508 502 L510 426 L405 426 L376 323 L473 323 L475 247 L354 247 L305 77 L263 77 L312 247 L183 247 L134 77 Z " />
<glyph glyph-name="dollar" unicode="&#x24;" horiz-adv-x="562" d="M296 17 Q343 19 371 50 Q399 81 399 129 Q399 153 391 173.5 Q383 194 363 211 Q351 221 332 231 Q313 241 296 247 L296 17 Z M275 638 Q261 636 243.5 632.5 Q226 629 213 622 Q193 611 180.5 592 Q168 573 168 541 Q168 518 176 499 Q184 480 204 463 Q218 452 237.5 442 Q257 432 275 427 L275 638 Z M296 659 Q331 659 355.5 653 Q380 647 400 634 Q429 614 443.5 588.5 Q458 563 458 538 Q458 519 452 506.5 Q446 494 437 486.5 Q428 479 417 476 Q406 473 396 473 Q373 473 355 487 Q337 501 337 526 Q337 548 353 563.5 Q369 579 395 577 Q400 577 405 577 Q410 577 410 584 Q410 589 405 597.5 Q400 606 395 611 Q379 628 350 633.5 Q321 639 296 637 L296 418 Q304 415 312 411.5 Q320 408 328 404 Q361 390 389 373 Q436 346 462 309.5 Q488 273 488 207 Q488 175 482.5 149.5 Q477 124 467.5 104.5 Q458 85 446.5 71 Q435 57 423 47 Q400 28 365 15 Q330 2 296 -3 L296 -93 Q296 -101 291.5 -102.5 Q287 -104 285 -104 Q281 -104 280 -103 Q275 -101 275 -94 L275 -5 Q261 -5 242.5 -4 Q224 -3 204.5 1.5 Q185 6 165 14 Q145 22 127 35 Q119 41 109.5 49.5 Q100 58 92 70 Q84 82 78 97 Q72 112 72 130 Q72 164 90.5 188 Q109 212 143 212 Q170 212 186.5 196 Q203 180 203 152 Q203 136 197.5 125 Q192 114 183.5 107.5 Q175 101 165 98 Q155 95 146 95 Q137 95 134.5 96.5 Q132 98 120 98 Q116 98 114 97 Q110 95 110 89 Q110 72 130 56 Q150 40 180 29 Q205 20 230.5 17 Q256 14 275 15 L275 257 L261 264 Q213 288 180.5 308.5 Q148 329 125 358 Q111 376 99 402.5 Q87 429 87 471 Q87 515 105 554 Q120 586 146 609 Q169 630 203 643.5 Q237 657 275 659 L275 735 Q275 738 276 744.5 Q277 751 285 751 Q294 751 295 744 Q296 737 296 733 L296 659 Z " />
<glyph glyph-name="percent" unicode="&#x25;" horiz-adv-x="752" d="M553 312 Q531 312 518 298 Q505 284 498 263 Q491 242 489 216.5 Q487 191 487 167 Q487 142 489 117 Q491 92 498 67 Q500 59 504 49 Q508 39 515 30.5 Q522 22 531.5 16 Q541 10 555 10 Q579 10 588.5 26.5 Q598 43 601 55 Q607 77 610 100 Q612 116 613 131.5 Q614 147 614 163 Q614 200 609.5 228 Q605 256 597 279 Q592 291 583 301.5 Q574 312 553 312 Z M559 329 Q602 329 636 312 Q653 304 671 288 Q700 262 714 226 Q728 190 728 155 Q728 106 705 70 Q682 34 650 15 Q632 4 608.5 -2.5 Q585 -9 559 -9 Q520 -9 486 3.5 Q452 16 427 38.5 Q402 61 387.5 92.5 Q373 124 373 162 Q373 195 382.5 219.5 Q392 244 405 261 Q418 278 432.5 289 Q447 300 456 305 Q479 318 505.5 323.5 Q532 329 559 329 Z M203 688 Q177 688 165 670.5 Q153 653 148 636 Q141 613 139.5 589 Q138 565 138 541 Q138 506 141 481.5 Q144 457 149 440.5 Q154 424 160 414.5 Q166 405 172 400 Q179 394 188 390 Q197 386 207 386 Q230 386 238.5 400.5 Q247 415 252 431 Q260 463 262.5 495 Q265 527 265 547 Q265 589 260.5 612.5 Q256 636 248 655 Q246 659 243.5 664.5 Q241 670 236 675.5 Q231 681 223 684.5 Q215 688 203 688 Z M596 705 L214 0 L157 0 L523 671 Q496 651 468.5 644 Q441 637 414 637 Q358 637 316 658 Q339 638 351.5 618 Q364 598 370 580.5 Q376 563 377.5 549.5 Q379 536 379 528 Q379 504 372.5 483 Q366 462 355 444.5 Q344 427 330 413.5 Q316 400 301 391 Q284 380 260 373.5 Q236 367 206 367 Q180 367 155.5 373 Q131 379 108 392 Q98 398 83.5 409 Q69 420 56 437.5 Q43 455 33.5 480 Q24 505 24 538 Q24 581 43 616 Q57 643 84 665 Q110 686 140 695.5 Q170 705 206 705 Q238 705 262 696.5 Q286 688 312 679 Q329 674 356 667 Q383 660 412 660 Q429 660 462.5 666.5 Q496 673 544 705 L596 705 Z " />
<glyph glyph-name="ampersand" unicode="&#x26;" horiz-adv-x="797" d="M251 376 Q226 356 213.5 325.5 Q201 295 201 242 Q201 211 208.5 173.5 Q216 136 245 98 Q267 69 296 51 Q336 28 383 28 Q400 28 420 32.5 Q440 37 457 45 Q477 55 491 69 Q467 102 438 141 Q409 180 377.5 220.5 Q346 261 313.5 301 Q281 341 251 376 Z M357 449 Q370 458 379.5 470.5 Q389 483 394 501 Q399 515 399.5 530.5 Q400 546 400 561 Q400 574 399 590 Q398 606 395 622 Q392 638 385.5 651.5 Q379 665 369 674 Q354 686 338 686 Q326 686 311.5 679 Q297 672 287 649 Q282 638 280.5 626 Q279 614 279 602 Q279 575 289 546.5 Q299 518 320 489 Q336 467 357 449 Z M646 75 Q653 64 661 53 Q669 42 684 34 Q694 29 713.5 24.5 Q733 20 774 18 Q778 18 787.5 16.5 Q797 15 797 7 Q797 1 790.5 0.5 Q784 0 782 0 Q752 0 725.5 1 Q699 2 672 2 Q659 2 646.5 1.5 Q634 1 618 0.5 Q602 0 581.5 -0.5 Q561 -1 533 -1 Q531 2 529.5 5.5 Q528 9 526 12 Q524 16 522 19.5 Q520 23 518 27 Q513 34 511.5 37.5 Q510 41 504 52 Q462 16 414.5 1 Q367 -14 308 -14 Q282 -14 257 -11 Q232 -8 208 -1 Q165 11 135.5 31.5 Q106 52 88 77 Q70 102 62.5 129.5 Q55 157 55 183 Q55 224 69.5 260 Q84 296 118 325 Q133 338 150 348.5 Q167 359 185 368 Q199 375 212 381.5 Q225 388 239 393 Q213 418 202 431 Q191 444 187 449 Q167 476 160 502.5 Q153 529 153 550 Q153 580 164 607.5 Q175 635 197.5 656 Q220 677 254.5 690 Q289 703 335 703 Q377 703 409 692.5 Q441 682 463 664.5 Q485 647 496.5 623 Q508 599 508 572 Q508 538 491 509 Q483 496 472.5 486 Q462 476 450 468 Q435 458 414 449 Q393 440 372 434 Q390 414 405 397.5 Q420 381 432.5 366 Q445 351 457.5 335.5 Q470 320 484 303 Q498 285 512.5 267 Q527 249 541 230 Q552 216 561.5 201 Q571 186 581 171 Q606 201 621 232.5 Q636 264 643 292 Q650 320 652 342.5 Q654 365 654 376 Q654 393 650 397.5 Q646 402 628 404 Q607 406 587.5 405 Q568 404 554 408 Q549 409 549 414 Q549 416 554 419 Q559 422 584 422 Q608 422 632.5 421.5 Q657 421 680 421 Q706 421 731 421.5 Q756 422 785 422 Q790 422 799.5 421.5 Q809 421 809 413 Q809 411 807 409 Q802 405 789.5 405.5 Q777 406 746 404 Q727 402 716.5 400.5 Q706 399 700.5 395 Q695 391 693 383.5 Q691 376 689 364 Q673 284 650 236 Q627 188 596 153 L646 75 Z " />
<glyph glyph-name="quotesingle" unicode="&#x27;" horiz-adv-x="304" d="M204 670 Q230 670 243 652 Q256 634 256 615 Q256 596 246 581 Q236 566 221 546 Q211 533 203 523 Q195 513 187 502.5 Q179 492 170 480 Q161 468 149 452 Q143 444 134.5 432 Q126 420 118 408 Q110 396 102.5 384.5 Q95 373 91 366 Q89 362 84.5 355.5 Q80 349 75 349 Q67 349 67 359 Q67 364 69 369 Q71 374 75 382 Q78 388 82 398.5 Q86 409 90 420.5 Q94 432 97.5 442 Q101 452 103 458 Q108 474 113.5 492.5 Q119 511 123.5 528.5 Q128 546 132 561.5 Q136 577 139 588 Q144 605 150 624 Q156 643 171 657 Q185 670 204 670 Z " />
<glyph glyph-name="parenleft" unicode="&#x28;" horiz-adv-x="389" d="M312 708 Q313 708 315 707 Q317 706 317 701 Q317 695 312 685.5 Q307 676 297 655 Q284 627 275.5 599.5 Q267 572 259 542 Q243 480 233 417 Q223 354 223 282 Q223 255 225.5 222 Q228 189 232 153.5 Q236 118 242 82.5 Q248 47 256 15 Q269 -41 280 -73.5 Q291 -106 299.5 -124 Q308 -142 312 -148.5 Q316 -155 316 -159 Q316 -164 312 -164 Q309 -164 303 -158 Q279 -135 257 -113 Q235 -91 205 -52 Q146 25 114.5 103 Q83 181 83 267 Q83 331 100 394 Q117 456 147.5 511 Q178 566 219 614 Q227 623 238 635 Q249 647 261 659 Q273 671 284 682.5 Q295 694 303 702 Q309 708 312 708 Z " />
<glyph glyph-name="parenright" unicode="&#x29;" horiz-adv-x="389" d="M77 -164 Q76 -164 74 -163 Q72 -162 72 -157 Q72 -152 76 -144 Q81 -136 84.5 -127.5 Q88 -119 92 -111 Q105 -83 113.5 -55.5 Q122 -28 130 2 Q146 64 156 127 Q166 190 166 262 Q166 289 163.5 322 Q161 355 157 390.5 Q153 426 146.5 461.5 Q140 497 133 529 Q120 584 109 617 Q98 650 89.5 668 Q81 686 77 692.5 Q73 699 73 703 Q73 708 77 708 Q80 708 86 702 Q110 679 132 657 Q154 635 184 596 Q198 577 211.5 557.5 Q225 538 237 517 Q268 463 287 404.5 Q306 346 306 277 Q306 186 271 96.5 Q236 7 170 -70 Q162 -79 151 -91 Q140 -103 128 -115 Q116 -127 105 -138.5 Q94 -150 86 -158 Q80 -164 77 -164 Z " />
<glyph glyph-name="asterisk" unicode="&#x2a;" horiz-adv-x="592" d="M174 600 Q174 605 174.5 610 Q175 615 175 620 Q175 629 173 633.5 Q171 638 166 646 Q164 649 162.5 651.5 Q161 654 159 657 Q155 663 155 667 Q155 670 156 671 Q157 674 161 674 Q166 674 176 669.5 Q186 665 191 663 Q197 659 201.5 657 Q206 655 214 655 Q222 655 226 656 Q228 656 230.5 656.5 Q233 657 235 657 Q242 657 246 652 Q250 646 251 642 Q253 633 252.5 627.5 Q252 622 257 608 Q261 597 268.5 583.5 Q276 570 284 559 Q286 564 287.5 569.5 Q289 575 291 580 Q293 589 293.5 595.5 Q294 602 294 611 Q294 619 294 626 Q294 633 292 640 Q291 645 290.5 648.5 Q290 652 290 657 Q290 666 294.5 667 Q299 668 304 669 Q314 670 324 677 Q338 687 346.5 698 Q355 709 362 709 Q370 709 370 697 Q370 693 368 685 Q366 677 366 672 Q366 661 369 652 Q372 643 374 638 Q376 633 377 630.5 Q378 628 378 626 Q378 620 373.5 617 Q369 614 364 612 Q353 607 340 597 Q327 587 317 579 Q310 573 305 567 Q300 561 296 551 Q313 549 337.5 554.5 Q362 560 380 571 Q387 575 390.5 576 Q394 577 397 577 Q402 577 404.5 573.5 Q407 570 409 567 Q412 562 415.5 556 Q419 550 426 545 Q431 540 440 536 Q449 532 457 529 Q459 528 461.5 526.5 Q464 525 464 521 Q464 519 461.5 516 Q459 513 447 512 Q437 511 432.5 510 Q428 509 421 506 Q410 501 406 497.5 Q402 494 397 489 Q395 487 391.5 485 Q388 483 385 483 Q379 483 371 490.5 Q363 498 355 506 Q345 515 333 524 Q321 533 293 539 Q296 529 301 518.5 Q306 508 315 494 Q323 481 330 473 Q337 465 344 458 Q346 456 348.5 453 Q351 450 351 446 Q351 442 348 438.5 Q345 435 342 432 Q333 422 330 411.5 Q327 401 326 391 Q325 384 323.5 377.5 Q322 371 316 371 Q308 371 303.5 379 Q299 387 297 392 Q292 401 290 405 Q288 409 286 411.5 Q284 414 280.5 416 Q277 418 270 423 Q265 426 260 430 Q255 434 255 439 Q255 441 259 447 Q262 452 263.5 456 Q265 460 267 465 Q277 495 279 510 Q281 525 279 536 Q259 523 246 506 Q238 495 233 486.5 Q228 478 224 469 Q222 464 219 459 Q216 454 209 454 Q206 454 202.5 456 Q199 458 192 460 Q178 465 172 465 Q168 465 165 464.5 Q162 464 156 462 Q150 461 146.5 460.5 Q143 460 139 460 Q132 460 129.5 463 Q127 466 127 468 Q127 472 133.5 476.5 Q140 481 149 493 Q157 504 158.5 512 Q160 520 165 529 Q167 533 169 535 Q173 539 176 540 Q179 541 181 541 Q183 541 184.5 540.5 Q186 540 188 540 Q196 538 202.5 538.5 Q209 539 217 539 Q233 539 245 539 Q258 539 275 548 Q262 559 241.5 569.5 Q221 580 203 582 Q182 584 178 587.5 Q174 591 174 600 Z " />
<glyph glyph-name="plus" unicode="&#x2b;" horiz-adv-x="562" d="M497 309 L303 309 L303 104 L259 104 L259 309 L65 309 L65 353 L259 353 L259 558 L303 558 L303 353 L497 353 L497 309 Z " />
<glyph glyph-name="comma" unicode="&#x2c;" horiz-adv-x="318" d="M181 48 Q181 40 179.5 31 Q178 22 175 15 Q164 -9 132 -9 Q104 -9 87 8 Q78 17 73 31 Q68 45 68 60 Q68 78 76 96 Q82 110 94 119 Q108 130 123 133.5 Q138 137 150 137 Q172 137 191 129 Q210 121 225 103 Q233 94 244 71 Q255 48 255 6 Q255 -26 246.5 -50.5 Q238 -75 224 -94 Q216 -105 206 -114 Q196 -123 184 -129 Q176 -133 159 -140 Q142 -147 134 -149 Q114 -154 107.5 -155 Q101 -156 99 -156 Q94 -156 93 -153.5 Q92 -151 92 -150 Q92 -146 96 -145 Q100 -144 103 -143.5 Q106 -143 109.5 -142 Q113 -141 118.5 -139.5 Q124 -138 133 -134 Q147 -128 161.5 -120 Q176 -112 187.5 -99 Q199 -86 206.5 -68.5 Q214 -51 214 -26 Q214 -11 208.5 9.5 Q203 30 181 48 Z " />
<glyph glyph-name="hyphen" unicode="&#x2d;" horiz-adv-x="296" d="M269 176 L235 176 Q151 180 75 176 L27 176 L27 279 L75 279 Q151 276 231 279 L269 279 L269 176 Z " />
<glyph glyph-name="period" unicode="&#x2e;" horiz-adv-x="278" d="M141 135 Q171 135 191.5 114 Q212 93 212 62 Q212 31 192 11 Q172 -9 141 -9 Q110 -9 89 11.5 Q68 32 68 62 Q68 93 89 114 Q110 135 141 135 Z " />
<glyph glyph-name="slash" unicode="&#x2f;" horiz-adv-x="536" d="M110 0 L43 0 L419 689 L487 689 L110 0 Z " />
<glyph glyph-name="zero" unicode="0" horiz-adv-x="562" d="M283 649 Q266 649 254 642.5 Q242 636 234 626 Q226 616 220.5 603.5 Q215 591 212 579 Q205 553 200.5 523 Q196 493 193.5 462.5 Q191 432 190 403.5 Q189 375 189 352 Q189 281 195 211 Q200 151 207 118.5 Q214 86 221 69 Q233 39 247.5 22.5 Q262 6 289 6 Q308 6 320 14 Q337 24 344 41 Q351 58 355 77 Q357 85 360 102 Q363 119 366 149.5 Q369 180 371 226 Q373 272 373 339 Q373 368 372 397 Q371 426 369 455 Q365 507 360.5 539 Q356 571 349 592 Q346 601 341.5 611.5 Q337 622 329.5 630 Q322 638 310.5 643.5 Q299 649 283 649 Z M286 667 Q299 667 311.5 666 Q324 665 336 662 Q379 653 415 626 Q445 603 468 569.5 Q491 536 506.5 495.5 Q522 455 530 410 Q538 365 538 320 Q538 263 525.5 209 Q513 155 484 107 Q460 67 432 43.5 Q404 20 377 7.5 Q350 -5 326.5 -8.5 Q303 -12 287 -12 Q255 -12 224 -1.5 Q193 9 166 26 Q142 42 122 63 Q102 84 86 108 Q53 159 38.5 213.5 Q24 268 24 326 Q24 425 58.5 498.5 Q93 572 141 614 Q178 646 214.5 656.5 Q251 667 286 667 Z " />
<glyph glyph-name="one" unicode="1" horiz-adv-x="562" d="M364 106 Q364 90 365 68 Q366 46 368 39 Q370 29 375 24 Q380 19 390 17 Q399 15 408 15.5 Q417 16 426 16 Q433 16 443.5 15.5 Q454 15 462 12 Q466 12 466 7 Q466 5 462.5 2 Q459 -1 447 -1 Q426 -1 406.5 -0.5 Q387 0 367 0 Q317 0 281 -0.5 Q245 -1 218 -1 Q191 -1 170.5 -1.5 Q150 -2 132 -2 Q128 -2 120 -1 Q112 0 112 8 Q112 16 117 15.5 Q122 15 130 15 L156 15 Q161 15 166 15.5 Q171 16 176 16 Q183 16 193.5 17 Q204 18 210 26 Q214 31 215 39.5 Q216 48 216 53 L216 490 Q216 530 214.5 543 Q213 556 210 561 Q205 568 197 569 Q189 570 181 570 Q167 570 154 569.5 Q141 569 126 569 Q121 569 115 570 Q109 571 109 578 Q109 583 116 584 Q123 585 128 585 Q139 585 161 588 Q183 591 199 594 Q225 599 244.5 607 Q264 615 287 628 Q294 632 315 644.5 Q336 657 361 674 Q363 663 363.5 655.5 Q364 648 364 643 L364 106 Z " />
<glyph glyph-name="two" unicode="2" horiz-adv-x="562" d="M192 121 Q215 122 237 122 Q260 122 283 122 Q335 122 369 122.5 Q403 123 423.5 125 Q444 127 455 130.5 Q466 134 474 140 Q490 152 494 169 Q498 186 501 200 Q503 210 506.5 222.5 Q510 235 517 235 Q519 235 522.5 232 Q526 229 526 221 Q526 213 524 202 Q522 191 518 165 Q514 142 509.5 101 Q505 60 501 -3 Q486 -2 455 -1 Q424 0 390 0.5 Q356 1 326 1.5 Q296 2 282 2 Q256 2 220 1 Q184 0 149 -1 Q114 -2 84.5 -3 Q55 -4 43 -4 Q35 -4 28 -4 Q21 -4 15 1 Q13 3 12 4 Q11 5 11 8 Q11 14 16 18.5 Q21 23 26 28 Q52 49 72.5 66.5 Q93 84 111 100 Q129 116 145 131 Q161 146 178 163 Q207 190 234 220 Q261 250 281 290 Q299 327 308 369.5 Q317 412 317 457 Q317 483 313 509.5 Q309 536 295 563 Q285 582 272 597 Q251 620 230 626 Q209 632 186 632 Q173 632 160.5 630.5 Q148 629 134 622 Q123 617 112 607 Q92 590 87 575.5 Q82 561 82 552 Q82 548 83 544 Q84 540 90 536 Q95 533 103 532.5 Q111 532 125 530 Q147 527 160.5 519 Q174 511 181.5 500.5 Q189 490 191.5 478 Q194 466 194 456 Q194 425 176 405.5 Q158 386 129 386 Q96 386 70 412 Q44 438 44 492 Q44 518 51 543.5 Q58 569 72 590 Q81 603 95.5 616.5 Q110 630 132 641.5 Q154 653 183 660 Q212 667 250 667 Q273 667 296.5 664 Q320 661 342 653 Q384 639 415 611 Q426 601 437.5 587.5 Q449 574 458 556 Q467 538 472.5 516.5 Q478 495 478 468 Q478 432 467.5 401 Q457 370 441 345 Q425 320 406 300 Q387 280 370 265 Q334 233 278 193.5 Q222 154 159 120 Q167 120 175.5 120.5 Q184 121 192 121 Z " />
<glyph glyph-name="three" unicode="3" horiz-adv-x="562" d="M303 358 Q349 357 380.5 346 Q412 335 433 322 Q463 304 485.5 274.5 Q508 245 508 195 Q508 156 490 119 Q472 82 436.5 52.5 Q401 23 348.5 5 Q296 -13 227 -13 Q136 -13 92 21 Q48 55 48 107 Q48 143 70 166 Q92 189 130 189 Q166 189 181.5 169.5 Q197 150 197 127 Q197 110 190.5 98.5 Q184 87 174 79.5 Q164 72 152.5 67.5 Q141 63 132 60 Q125 58 117 54.5 Q109 51 109 44 Q109 33 130.5 23 Q152 13 166.5 11 Q181 9 204 9 Q239 9 273.5 28 Q308 47 328 91 Q340 116 344.5 143 Q349 170 349 198 Q349 218 346 241 Q343 264 329 285 Q316 304 300 316 Q279 331 258 335.5 Q237 340 217 340 Q209 340 201 339.5 Q193 339 185 339 Q177 339 175 341 Q173 343 173 347 Q173 353 175.5 355.5 Q178 358 183 359 Q188 360 195.5 360.5 Q203 361 212 363 Q239 370 257 385.5 Q275 401 286.5 421.5 Q298 442 303 464.5 Q308 487 308 507 Q308 547 292.5 573.5 Q277 600 254 614 Q240 623 223 627 Q206 631 189 631 Q165 631 143.5 623 Q122 615 110 600 Q103 589 103 581 Q103 575 107.5 573 Q112 571 116 570 Q127 567 140.5 564 Q154 561 165.5 554 Q177 547 184.5 536 Q192 525 192 506 Q192 476 175 460.5 Q158 445 134 445 Q105 445 82 463.5 Q59 482 59 523 Q59 551 71 577 Q83 603 107 622.5 Q131 642 167.5 654 Q204 666 252 666 Q282 666 311.5 661 Q341 656 369 645 Q402 631 421.5 613 Q441 595 451.5 577 Q462 559 465 543 Q468 527 468 516 Q468 500 463.5 485 Q459 470 451 456 Q436 430 413 412 Q393 395 363.5 382.5 Q334 370 303 363 L303 358 Z " />
<glyph glyph-name="four" unicode="4" horiz-adv-x="562" d="M277 183 L284 480 L55 187 Q84 185 112 184 Q140 183 160 183 L277 183 Z M424 59 Q424 51 424 41 Q424 31 432 24 Q433 22 436.5 20.5 Q440 19 448.5 17.5 Q457 16 471.5 15.5 Q486 15 510 16 Q518 16 520 15 Q522 14 524 11 Q525 10 525 7 Q525 -1 510.5 -0.5 Q496 0 483 0 L313 0 Q301 0 283.5 -0.5 Q266 -1 248 -1.5 Q230 -2 213 -2.5 Q196 -3 183 -3 Q177 -3 172.5 -2.5 Q168 -2 168 5 Q168 9 169 10 Q172 16 184 16 Q196 16 218 16 Q228 16 244.5 16.5 Q261 17 268 25 Q274 32 275 39 Q276 46 276 57 L276 156 L41 156 Q28 156 18 157.5 Q8 159 8 167 Q8 169 10 174.5 Q12 180 23 194 L385 645 Q391 653 399 661 Q407 669 415 669 Q421 669 422.5 661 Q424 653 424 645 L424 184 Q448 184 462 185 Q476 186 484.5 186.5 Q493 187 496 188 Q499 189 501 190 Q514 197 514 216 Q514 236 515 256 Q516 267 517.5 274 Q519 281 524 281 Q530 281 531.5 273.5 Q533 266 533 261 Q533 238 533.5 217.5 Q534 197 534 176 L534 142 Q534 122 534.5 115 Q535 108 536 105 Q537 102 537.5 97 Q538 92 537 77 Q537 74 536 70 Q535 66 530 66 Q524 66 521.5 71 Q519 76 518 83.5 Q517 91 516.5 99.5 Q516 108 516 115 Q516 122 515.5 131 Q515 140 509 147 Q502 155 491.5 156.5 Q481 158 473 158 L424 159 L424 59 Z " />
<glyph glyph-name="five" unicode="5" horiz-adv-x="562" d="M132 534 L127 379 Q172 400 203.5 405 Q235 410 258 410 Q293 410 328.5 404.5 Q364 399 396 383 Q426 368 446 347 Q466 326 478 303.5 Q490 281 495 257 Q500 233 500 212 Q500 184 493 157 Q486 130 472 106 Q459 84 438.5 63 Q418 42 388 25.5 Q358 9 319.5 -1.5 Q281 -12 232 -12 Q206 -12 180.5 -8.5 Q155 -5 131 5 Q82 25 66 55 Q50 85 50 114 Q50 135 57 150.5 Q64 166 76 175.5 Q88 185 102.5 189.5 Q117 194 132 194 Q161 194 178 178 Q195 162 195 133 Q195 116 188 104.5 Q181 93 171 85.5 Q161 78 150.5 74 Q140 70 134 68 Q129 66 119 63 Q109 60 109 53 Q109 47 117.5 37.5 Q126 28 147 20 Q168 12 188 9 Q193 8 197 7.5 Q201 7 206 7 Q216 7 231 9.5 Q246 12 262 21.5 Q278 31 293 48.5 Q308 66 320 96 Q330 122 334 149.5 Q338 177 338 205 Q338 243 331.5 270 Q325 297 316 315.5 Q307 334 296 344.5 Q285 355 276 361 Q262 370 244 374 Q226 378 209 378 Q176 378 148.5 365 Q121 352 104 338 Q106 377 106.5 398.5 Q107 420 107.5 431.5 Q108 443 108 449 Q108 455 108 465 Q108 475 108.5 492 Q109 509 111 543 Q112 577 113.5 596.5 Q115 616 116 626 Q117 636 118 639 Q119 642 119 643 Q120 645 123 647.5 Q126 650 134 651.5 Q142 653 157.5 654 Q173 655 199 655 L408 654 Q427 654 429 661 Q431 668 433 680 Q434 684 435.5 689 Q437 694 442 694 Q447 694 448 688.5 Q449 683 449 678 Q449 669 448 653.5 Q447 638 445.5 622 Q444 606 442 592 Q440 578 438 571 Q436 563 432 556 Q422 540 404 536.5 Q386 533 360 533 Q352 533 343.5 533.5 Q335 534 327 534 L311 534 L132 534 Z " />
<glyph glyph-name="six" unicode="6" horiz-adv-x="562" d="M276 392 Q265 392 253 388 Q241 384 228 367 Q217 352 209.5 320.5 Q202 289 202 225 Q202 206 203.5 182.5 Q205 159 209 134.5 Q213 110 220 86 Q227 62 238 41 Q245 27 256.5 15.5 Q268 4 294 4 Q308 4 319.5 9 Q331 14 342 30 Q354 47 358 68 Q362 89 364 110 Q367 143 367 174 Q367 188 366.5 205.5 Q366 223 365 241.5 Q364 260 361.5 278 Q359 296 356 311 Q353 324 348.5 336.5 Q344 349 336 360 Q321 382 305.5 387 Q290 392 276 392 Z M204 376 Q236 410 268 418 Q300 426 322 426 Q364 426 402 411.5 Q440 397 468.5 370 Q497 343 513.5 305 Q530 267 530 220 Q530 166 508 118 Q486 70 445 36 Q409 5 375.5 -4 Q342 -13 313 -13 Q249 -13 199 8.5 Q149 30 114.5 68 Q80 106 61.5 159 Q43 212 43 275 Q43 328 56 378.5 Q69 429 93 473.5 Q117 518 152.5 555 Q188 592 233 618 Q269 639 305 650 Q341 661 373 666 Q389 669 401 670 Q413 671 423.5 672 Q434 673 445 673 Q456 673 471 673 Q475 673 481.5 672.5 Q488 672 488 666 Q488 661 483.5 660.5 Q479 660 477 660 Q442 658 413.5 649.5 Q385 641 362.5 629 Q340 617 323 603.5 Q306 590 296 580 Q258 542 234.5 487.5 Q211 433 204 376 Z " />
<glyph glyph-name="seven" unicode="7" horiz-adv-x="562" d="M171 532 Q156 532 139.5 531.5 Q123 531 111 520 Q103 512 96.5 496 Q90 480 85 446 Q84 442 82.5 437.5 Q81 433 77 433 Q75 433 71.5 436 Q68 439 68 448 Q68 464 74.5 496.5 Q81 529 86 578 Q89 607 91 623 Q93 639 95.5 647 Q98 655 101.5 657 Q105 659 113 659 Q124 659 137 657 Q150 655 175 654 Q182 654 197 654 Q213 654 229.5 653.5 Q246 653 261 653 Q277 653 284 653 Q306 653 342.5 653.5 Q379 654 416.5 654.5 Q454 655 485 655.5 Q516 656 526 656 Q533 656 540.5 655.5 Q548 655 548 646 Q548 643 543.5 636 Q539 629 533 621 Q527 613 521.5 605.5 Q516 598 514 595 Q497 571 477 542 Q457 513 438.5 484.5 Q420 456 403.5 431 Q387 406 378 391 Q349 343 336 301 Q323 259 323 213 Q323 179 328 157.5 Q333 136 338 108 Q343 85 343.5 74.5 Q344 64 344 61 Q344 32 327 9.5 Q310 -13 283 -13 Q253 -13 230 15 Q207 43 207 94 Q207 145 231.5 198.5 Q256 252 297 315 Q306 329 324 356 Q342 383 363 414.5 Q384 446 405.5 477.5 Q427 509 442 532 L171 532 Z " />
<glyph glyph-name="eight" unicode="8" horiz-adv-x="562" d="M280 340 Q263 340 249.5 335 Q236 330 223 315 Q209 298 201 265.5 Q193 233 193 170 Q193 109 202 79 Q211 49 222 35 Q237 16 255 9.5 Q273 3 292 3 Q306 3 322 8.5 Q338 14 350 34 Q353 40 356.5 48 Q360 56 362.5 69 Q365 82 366.5 101.5 Q368 121 368 148 Q368 187 366 214.5 Q364 242 360 261 Q356 280 350.5 292.5 Q345 305 339 313 Q328 327 314 334 Q306 338 297.5 339 Q289 340 280 340 Z M276 650 Q266 650 257 647 Q243 642 233 626 Q222 609 216 581 Q210 553 210 502 Q210 495 210.5 477.5 Q211 460 214.5 439 Q218 418 225.5 398 Q233 378 246 368 Q262 355 283 355 Q297 355 306 359 Q316 364 322 373 Q333 387 337 411 Q341 435 341 482 Q341 490 340.5 507 Q340 524 338 544.5 Q336 565 331.5 586 Q327 607 319 624 Q314 635 305 642.5 Q296 650 276 650 Z M362 347 Q385 342 411.5 332.5 Q438 323 458 310 Q471 302 484 290 Q497 278 507.5 262 Q518 246 524.5 225 Q531 204 531 178 Q531 166 529.5 153.5 Q528 141 524 130 Q517 107 504 88.5 Q491 70 473 53 Q450 32 423 17 Q396 2 361 -6 Q342 -11 323.5 -12.5 Q305 -14 286 -14 Q241 -14 193.5 -2.5 Q146 9 108 35 Q63 66 47.5 103.5 Q32 141 32 170 Q32 201 42 228 Q60 279 106 309 Q110 312 118 316 Q126 320 137.5 325 Q149 330 161 334 Q173 338 184.5 341.5 Q196 345 205 347 L205 352 Q185 357 162.5 365.5 Q140 374 122 387 Q86 412 74 442 Q62 472 62 500 Q62 525 72 555 Q82 585 112 612 Q123 621 134 629 Q145 637 158 643 Q184 656 213.5 661.5 Q243 667 273 667 Q333 667 371.5 652 Q410 637 432 620 Q467 592 479 560 Q491 528 491 500 Q491 465 476 435 Q463 410 437 390 Q421 378 400 367.5 Q379 357 362 351 L362 347 Z " />
<glyph glyph-name="nine" unicode="9" horiz-adv-x="562" d="M266 648 Q255 648 243 644 Q231 640 219 623 Q206 605 200.5 572 Q195 539 195 471 Q195 432 197 403.5 Q199 375 203 354 Q207 333 213 318.5 Q219 304 227 293 Q234 284 242 276.5 Q250 269 260 265 Q271 261 286 261 Q314 261 326 275 Q338 289 344 303 Q349 314 353.5 330 Q358 346 360 366 Q362 377 362 388 Q362 399 362 410 Q362 466 356.5 501 Q351 536 344 563 Q342 569 339 579.5 Q336 590 331 601 Q326 612 318.5 622.5 Q311 633 302 639 Q294 644 285 646 Q276 648 266 648 Z M359 276 Q339 256 319 246.5 Q299 237 284 233 Q273 230 262 229 Q251 228 240 228 Q174 228 130 255.5 Q86 283 63 322 Q48 347 40.5 375.5 Q33 404 33 433 Q33 504 66 558 Q99 612 155 641 Q204 666 262 666 Q304 666 341 653 Q378 640 404 623 Q452 591 485.5 529.5 Q519 468 519 374 Q519 289 491.5 223.5 Q464 158 422 110 Q385 68 339.5 40 Q294 12 246 -2 Q211 -12 168 -16.5 Q125 -21 94 -21 Q86 -21 79.5 -20 Q73 -19 73 -14 Q73 -9 79 -8 Q85 -7 91 -7 Q96 -7 114 -4.5 Q132 -2 164 9 Q186 17 211.5 30 Q237 43 267 75 Q281 90 295.5 109.5 Q310 129 322.5 154 Q335 179 345 209.5 Q355 240 359 276 Z " />
<glyph glyph-name="colon" unicode="&#x3a;" horiz-adv-x="279" d="M142 135 Q172 135 192.5 114 Q213 93 213 62 Q213 31 193 11 Q173 -9 142 -9 Q111 -9 90 12 Q69 33 69 63 Q69 93 90 114 Q111 135 142 135 Z M141 440 Q171 440 191.5 419 Q212 398 212 367 Q212 336 192 316 Q172 296 141 296 Q110 296 89 316.5 Q68 337 68 367 Q68 398 89 419 Q110 440 141 440 Z " />
<glyph glyph-name="semicolon" unicode="&#x3b;" horiz-adv-x="318" d="M181 48 Q181 40 179.5 31 Q178 22 175 15 Q164 -9 132 -9 Q104 -9 87 8 Q78 17 73 31 Q68 45 68 60 Q68 83 77 97.5 Q86 112 94 119 Q108 130 123 133.5 Q138 137 150 137 Q172 137 191 129 Q210 121 225 103 Q239 86 247 62 Q252 48 253.5 34 Q255 20 255 6 Q255 -26 246.5 -50.5 Q238 -75 224 -94 Q216 -105 206 -114 Q196 -123 184 -129 Q176 -133 159 -140 Q142 -147 134 -149 Q127 -151 117 -153 Q112 -154 108 -155 Q104 -156 99 -156 Q94 -156 93 -153.5 Q92 -151 92 -150 Q92 -146 96 -145 Q100 -144 103 -143.5 Q106 -143 109.5 -142 Q113 -141 118.5 -139.5 Q124 -138 133 -134 Q142 -130 150 -126 Q158 -122 166 -117 Q192 -100 203 -77.5 Q214 -55 214 -26 Q214 -11 208.5 9.5 Q203 30 181 48 Z M143 440 Q173 440 193.5 419 Q214 398 214 367 Q214 336 194 316 Q174 296 143 296 Q112 296 91 316.5 Q70 337 70 367 Q70 398 91 419 Q112 440 143 440 Z " />
<glyph glyph-name="less" unicode="&#x3c;" horiz-adv-x="640" d="M536 598 L176 369 L536 123 L536 73 L103 366 L103 374 L536 648 L536 598 Z " />
<glyph glyph-name="equal" unicode="&#x3d;" horiz-adv-x="562" d="M497 254 L65 254 L65 298 L497 298 L497 254 Z M497 364 L65 364 L65 408 L497 408 L497 364 Z " />
<glyph glyph-name="greater" unicode="&#x3e;" horiz-adv-x="640" d="M536 374 L536 366 L103 73 L103 123 L463 369 L103 598 L103 648 L536 374 Z " />
<glyph glyph-name="question" unicode="&#x3f;" horiz-adv-x="450" d="M202 135 Q232 135 252.5 114 Q273 93 273 62 Q273 31 253 11 Q233 -9 202 -9 Q171 -9 150 11.5 Q129 32 129 63 Q129 80 137 96 Q145 111 161.5 123 Q178 135 202 135 Z M214 704 Q282 704 320 684 Q358 664 376 637.5 Q394 611 398 584.5 Q402 558 402 545 Q402 528 397.5 504.5 Q393 481 377 454 Q361 426 339.5 405.5 Q318 385 299 369 Q267 342 244.5 322.5 Q222 303 209 285 Q190 258 190 233 Q190 222 193 212 Q196 202 198 194 Q200 188 201 184 Q201 175 195 175 Q187 175 173.5 198.5 Q160 222 154 257 Q153 262 152.5 267 Q152 272 152 277 Q152 295 157 312.5 Q162 330 169 345.5 Q176 361 184 374.5 Q192 388 198 398 Q222 436 236.5 459.5 Q251 483 258 505 Q265 529 265 558 Q265 568 264 581.5 Q263 595 258.5 609 Q254 623 245 637 Q236 651 221 661 Q209 669 194 672.5 Q179 676 164 676 Q129 676 106.5 660 Q84 644 74 626 Q63 607 63 579 Q63 573 68 573 Q73 573 74.5 577 Q76 581 81 587 Q89 597 96.5 601.5 Q104 606 118 606 Q145 606 160 591.5 Q175 577 175 549 Q175 516 154.5 501.5 Q134 487 111 487 Q78 487 58 509 Q38 531 38 566 Q38 598 54 625.5 Q70 653 89 668 Q104 680 121 687 Q138 694 154.5 698 Q171 702 186.5 703 Q202 704 214 704 Z " />
<glyph glyph-name="at" unicode="&#x40;" horiz-adv-x="955" d="M612 448 Q610 469 596.5 483 Q583 497 568 497 Q556 497 542 488.5 Q528 480 514.5 467 Q501 454 489 438 Q477 422 468 407 Q454 383 438.5 352 Q423 321 410.5 289 Q398 257 390 225.5 Q382 194 382 169 Q382 134 393.5 123.5 Q405 113 413 113 Q425 113 437 121.5 Q449 130 459.5 141.5 Q470 153 477.5 165.5 Q485 178 490 186 Q502 207 518 240 Q534 273 551 309.5 Q568 346 584 382.5 Q600 419 612 448 Z M658 230 Q641 191 634 173 Q627 155 627 139 Q627 131 630.5 121.5 Q634 112 651 112 Q659 112 676.5 115 Q694 118 727 134 Q772 154 801.5 185 Q831 216 850 261 Q864 293 870.5 327 Q877 361 877 392 Q877 435 865.5 477 Q854 519 831 555 Q813 583 786 607.5 Q759 632 724 650.5 Q689 669 647 679.5 Q605 690 557 690 Q481 690 407.5 663 Q334 636 277 584 Q215 527 176.5 441.5 Q138 356 138 244 Q138 159 162.5 90 Q187 21 231.5 -28.5 Q276 -78 338.5 -105 Q401 -132 478 -132 Q562 -132 637 -103 Q712 -74 769 -28 Q813 8 844 48 Q854 60 862.5 73 Q871 86 881 101 Q883 105 886.5 107 Q890 109 898 109 Q903 109 903 101 Q903 97 902 95 Q899 84 888.5 69 Q878 54 865.5 38 Q853 22 840.5 8.5 Q828 -5 820 -13 Q771 -61 708 -93 Q648 -125 585.5 -140 Q523 -155 461 -155 Q375 -155 299 -127.5 Q223 -100 166 -49.5 Q109 1 75.5 73 Q42 145 42 234 Q42 280 53 329 Q64 378 87 426.5 Q110 475 145.5 520.5 Q181 566 231 604 Q299 656 380 682.5 Q461 709 551 709 Q644 709 713.5 683 Q783 657 829.5 613.5 Q876 570 899.5 514.5 Q923 459 923 399 Q923 356 911 316 Q899 277 877.5 241.5 Q856 206 829 180 Q799 151 760 128 Q712 100 660 86 Q608 72 562 72 Q551 72 540 74 Q529 76 519 82 Q509 88 503 100 Q497 112 497 132 Q497 137 497 142 Q497 147 498 152 Q498 154 498.5 157 Q499 160 499 162 Q483 133 460 113.5 Q437 94 413 83 Q386 72 359 72 Q331 72 310 82.5 Q289 93 275 110 Q261 127 254 150 Q247 173 247 198 Q247 252 275.5 309 Q304 366 352 417 Q381 448 408.5 467.5 Q436 487 461.5 498.5 Q487 510 510.5 514 Q534 518 555 518 Q564 518 575.5 516.5 Q587 515 598 509 Q609 503 617.5 492.5 Q626 482 629 464 Q637 499 644 507.5 Q651 516 660 516 Q665 516 670 516 Q675 516 680 515 Q691 514 703 513.5 Q715 513 726 513 Q731 513 742 513.5 Q753 514 758 515 Q770 517 770 518 Q770 520 776 520 Q781 520 781 512 Q781 505 777.5 498.5 Q774 492 770 484 L658 230 Z " />
<glyph glyph-name="A" unicode="A" horiz-adv-x="678" d="M196 244 L367 244 L282 482 L196 244 Z M188 222 L133 67 Q130 58 129 53.5 Q128 49 128 43 Q128 38 131.5 31.5 Q135 25 150 21 Q157 19 164.5 18.5 Q172 18 176 18 L202 17 Q205 17 209 15.5 Q213 14 213 8 Q213 -1 200 -1 L177 -1 Q132 -1 102 -1 Q72 -1 40 0 Q33 0 30 0 Q27 0 25 0 Q24 0 22 -0.5 Q20 -1 16 -1 Q9 -1 6 2.5 Q3 6 3 10 Q3 15 6.5 16 Q10 17 12 17 Q14 17 15.5 16.5 Q17 16 19 16 L21 16 Q26 16 29.5 16.5 Q33 17 38 17 Q49 18 61 20 Q73 22 82 30 Q92 38 97 49.5 Q102 61 105 70 L255 482 L316 651 Q327 680 331.5 690 Q336 700 340 700 Q345 700 350 685.5 Q355 671 362 651 L426 482 L577 82 Q588 54 595 43 Q602 32 608 28 Q618 21 633 19.5 Q648 18 653 18 Q658 18 663.5 18.5 Q669 19 675 19 Q682 19 684 15 Q685 13 685 10 Q685 2 680 0 Q675 -2 670 -2 Q666 -2 662.5 -1.5 Q659 -1 655 -1 Q646 0 637 0 Q628 0 619 0 Q585 0 552 1 Q519 2 486 2 Q461 2 443 1.5 Q425 1 410 0 Q401 -1 392 -1 Q383 -1 374 -1 Q353 -1 347.5 1 Q342 3 341 4 Q339 6 339 9 Q339 11 342 15.5 Q345 20 356 20 L394 20 Q408 20 420.5 21.5 Q433 23 433 34 Q433 38 431 44.5 Q429 51 421 76 L374 222 L188 222 Z " />
<glyph glyph-name="B" unicode="B" horiz-adv-x="616" d="M241 79 Q241 66 242.5 51 Q244 36 247 30 Q253 17 284 17 Q304 17 324.5 21.5 Q345 26 362 38 Q373 46 380.5 56.5 Q388 67 394 78 Q408 104 411 131.5 Q414 159 414 185 Q414 221 408.5 247.5 Q403 274 394 292.5 Q385 311 373 323 Q361 335 348 342 Q332 350 308.5 354.5 Q285 359 241 358 L241 79 Z M241 374 Q271 372 292 375 Q313 378 326.5 382.5 Q340 387 347.5 392 Q355 397 358 400 Q372 412 379 427 Q386 442 389 456 Q394 474 395 492.5 Q396 511 396 530 Q396 542 395 558 Q394 574 390.5 590.5 Q387 607 380 623 Q373 639 360 651 Q344 665 325 668.5 Q306 672 294 672 Q271 672 261.5 668 Q252 664 250 662 Q244 657 242.5 650 Q241 643 241 638 L241 374 Z M370 366 Q425 356 455.5 344 Q486 332 510 312 Q520 304 531 292 Q542 280 551.5 264 Q561 248 567.5 227 Q574 206 574 180 Q574 158 568 135 Q562 112 548.5 90.5 Q535 69 512.5 51 Q490 33 456 21 Q426 11 394 6 Q362 1 335 -0.5 Q308 -2 270 -2 L37 -2 L33 -2 Q30 -2 27.5 -2.5 Q25 -3 22 -3 Q16 -3 13 0 Q11 4 11 6 Q11 13 17.5 14 Q24 15 26 15 L42 15 Q53 15 66 17 Q79 19 84 25 Q87 28 89 37 Q91 46 91 71 L91 643 Q91 656 83 664 Q78 669 65 671 Q52 673 45 673 L30 673 Q24 673 17 674 Q10 675 10 682 Q10 687 14 689 Q18 691 29 691 Q41 691 53 690 Q65 689 77 689 L82 689 L313 689 Q326 689 348 688 Q370 687 396 682.5 Q422 678 448 668.5 Q474 659 495.5 641.5 Q517 624 530.5 597.5 Q544 571 544 533 Q544 496 529.5 467 Q515 438 491 417.5 Q467 397 435.5 384.5 Q404 372 370 369 L370 366 Z " />
<glyph glyph-name="C" unicode="C" horiz-adv-x="636" d="M580 529 Q580 516 580.5 504.5 Q581 493 581 482 Q581 474 579.5 468 Q578 462 572 462 Q564 462 562 470.5 Q560 479 559 484 L553 517 Q546 547 535 574.5 Q524 602 501 628 Q483 648 456.5 664.5 Q430 681 391 681 Q371 681 348.5 674.5 Q326 668 309 655 Q300 648 292.5 639.5 Q285 631 278 622 Q262 599 246 559.5 Q230 520 219 452 Q210 393 210 333 Q210 293 214.5 253 Q219 213 228.5 177 Q238 141 252 110.5 Q266 80 286 59 Q298 45 313.5 35 Q329 25 349 19 Q370 13 392 13 Q424 13 449.5 23.5 Q475 34 497 53 Q523 76 536.5 98.5 Q550 121 553 128 Q558 137 561 146.5 Q564 156 567 166 Q573 186 575 196 Q577 206 579 214 Q581 224 586 229 Q589 232 593 232 Q595 232 598 229.5 Q601 227 601 218 Q601 208 599.5 197.5 Q598 187 596 166 Q592 130 591.5 103 Q591 76 591 71 L591 51 L591 48 Q591 37 592 26.5 Q593 16 593 5 Q593 3 592.5 -2 Q592 -7 587 -7 Q584 -7 581.5 -3.5 Q579 0 577 3 Q569 17 559 30 Q549 43 530 50 Q520 40 505.5 29 Q491 18 471.5 8.5 Q452 -1 427 -7.5 Q402 -14 371 -14 Q305 -14 244 13.5 Q183 41 138 84 Q108 113 87.5 146 Q67 179 55 213.5 Q43 248 37.5 282 Q32 316 32 346 Q32 413 54 475.5 Q76 538 116 586 Q133 607 156.5 628 Q180 649 211.5 666 Q243 683 282.5 693.5 Q322 704 371 704 Q397 704 424.5 698.5 Q452 693 484 674 Q492 669 503.5 663 Q515 657 529 657 Q542 657 551.5 663.5 Q561 670 567 676 Q574 684 577 687 Q580 690 582 690 Q583 690 585 689.5 Q587 689 587 684 Q587 679 586 674 Q585 669 583 650 Q581 634 580.5 613.5 Q580 593 580 576 L580 529 Z " />
<glyph glyph-name="D" unicode="D" horiz-adv-x="716" d="M243 101 Q243 81 242.5 58.5 Q242 36 251 28 Q254 25 262 22.5 Q270 20 276 19 Q281 18 287 17.5 Q293 17 299 17 Q365 17 408.5 48 Q452 79 478 139 Q487 161 499.5 211 Q512 261 512 350 Q512 384 509.5 423.5 Q507 463 498.5 501.5 Q490 540 473 574 Q456 608 428 631 Q404 650 372 660 Q355 665 337 666.5 Q319 668 302 668 Q272 668 257.5 659 Q243 650 243 613 L243 101 Z M92 601 Q92 621 90.5 638 Q89 655 80 663 Q74 668 65.5 670 Q57 672 48 672 Q40 672 32 672 Q25 672 21 673 Q13 676 13 682 Q13 690 18.5 690.5 Q24 691 27 691 Q74 691 126.5 692 Q179 693 231 692 Q283 691 331.5 688 Q380 685 420 677 Q460 669 495 654.5 Q530 640 564 614 Q604 583 627.5 548 Q651 513 664 478 Q677 443 681 410 Q685 377 685 350 Q685 285 669.5 234.5 Q654 184 628.5 145.5 Q603 107 569.5 80 Q536 53 500 36 Q472 22 444.5 15 Q417 8 387.5 4 Q358 0 326.5 -0.5 Q295 -1 259 -1 Q234 -1 222 -0.5 Q210 0 203 0 Q197 0 191 0.5 Q185 1 173 1 Q161 1 138.5 0.5 Q116 0 92 0 Q69 0 49.5 -0.5 Q30 -1 23 -1 Q16 -1 13 0 Q8 2 8 7 Q8 11 11 13 Q18 18 28 18 Q38 18 48 18 Q59 18 69.5 20 Q80 22 88 31 Q89 32 90 34 Q91 36 91.5 42 Q92 48 92 59 Q92 71 92 92 L92 601 Z " />
<glyph glyph-name="E" unicode="E" horiz-adv-x="602" d="M249 375 L299 375 Q369 375 394 396 Q411 410 417 432 Q423 454 426 476 Q426 480 426.5 486 Q427 492 428.5 498 Q430 504 432 508 Q434 512 438 513 L441 513 Q444 513 447 510 Q450 507 450 492 Q450 482 449.5 472.5 Q449 463 448 453 Q447 445 447 437 Q447 429 447 421 Q446 373 446 340 Q446 307 447 284.5 Q448 262 448.5 248 Q449 234 449 224 Q449 222 448 217.5 Q447 213 441 213 Q431 213 429 225 Q427 237 425 250 Q419 286 414 307 Q409 328 398 339 Q386 350 364 353 Q342 356 317 356 L249 356 L249 19 L383 20 Q408 20 442.5 23 Q477 26 505 47 Q520 58 528 70.5 Q536 83 537 85 Q544 99 551 127 Q558 155 560 175 Q560 177 562 183.5 Q564 190 569 190 Q572 190 574 188 Q577 185 577.5 180.5 Q578 176 578 171 Q578 157 577.5 144.5 Q577 132 577 119 Q577 110 577 100 Q577 91 576.5 77.5 Q576 64 575.5 43.5 Q575 23 575 -7 Q538 -7 513 -6 Q488 -5 467 -4.5 Q446 -4 423.5 -3 Q401 -2 368.5 -1.5 Q336 -1 289 -0.5 Q242 0 171 0 Q149 0 125 -0.5 Q101 -1 79 -1 Q58 -1 41 -1.5 Q24 -2 15 -2 Q4 -2 4 6 Q4 13 12 13 L45 16 Q53 17 59.5 18 Q66 19 73 21 Q86 25 91 31 Q98 39 98.5 50.5 Q99 62 99 72 L99 629 Q99 639 98 649.5 Q97 660 90 666 Q87 669 79 671 Q71 673 51 673 L30 673 Q27 673 23.5 674.5 Q20 676 20 682 Q20 690 24.5 691 Q29 692 36 692 L73 692 Q90 692 119 692 Q149 692 194 693 Q236 694 276.5 694.5 Q317 695 359 695 Q386 695 412.5 694.5 Q439 694 466 694 Q480 694 493 694 Q506 694 520 695 Q527 695 533 695.5 Q539 696 547 698 Q549 667 550.5 647.5 Q552 628 553 616 Q554 604 555 598.5 Q556 593 556 589 Q558 574 559.5 559 Q561 544 561 528 Q561 525 560 520 Q559 515 553 515 Q544 515 542 522 Q540 529 538 540 Q531 569 521.5 594 Q512 619 485 639 Q464 655 429.5 664 Q395 673 342 673 Q325 673 305.5 672.5 Q286 672 249 670 L249 375 Z " />
<glyph glyph-name="F" unicode="F" horiz-adv-x="562" d="M242 364 L286 364 Q315 364 336.5 366 Q358 368 373.5 375 Q389 382 398.5 396.5 Q408 411 414 435 Q422 466 422 480 Q422 494 426 502 Q428 506 430 507 Q432 508 434 508 Q440 508 441 501.5 Q442 495 442 490 Q442 467 441 443 Q440 419 440 376 Q440 361 440.5 341.5 Q441 322 441 301 Q441 281 441.5 261 Q442 241 442 226 Q442 215 440 211 Q438 207 433 207 Q423 207 421 218 Q419 229 418 239 Q417 250 415 263.5 Q413 277 409 290 Q405 303 399 314.5 Q393 326 384 333 Q373 341 359 343 Q345 345 331 345 Q310 345 289 344.5 Q268 344 247 344 L242 344 L242 102 Q242 89 241.5 78 Q241 67 243 54 Q244 46 245.5 39 Q247 32 252 27 Q261 17 282 16.5 Q303 16 323 16 Q327 16 333 15 Q339 14 339 7 Q339 4 337 2 Q334 -1 324 -1 Q284 -1 260 -0.5 Q236 0 218 0.5 Q200 1 182 1.5 Q164 2 136 2 Q116 2 90 2 Q65 2 45 0 Q34 -1 27.5 -1.5 Q21 -2 16 -2 Q8 -2 6 1.5 Q4 5 4 7 Q4 17 14 16 Q24 15 36 17 Q42 18 48.5 18.5 Q55 19 62 21 Q67 23 75.5 26.5 Q84 30 88 38 Q92 46 92 54 Q92 62 92 67 L92 641 Q92 645 90.5 651.5 Q89 658 83 663 Q76 669 64.5 670.5 Q53 672 41 673 Q30 674 21 674 Q13 674 13 682 Q13 686 16 689 Q18 691 24 691.5 Q30 692 47.5 692.5 Q65 693 96 693 Q128 693 181 694 Q212 694 242.5 694.5 Q273 695 304 695 Q356 695 388 695 Q420 695 443 695 Q467 695 488.5 695.5 Q510 696 540 697 Q542 669 543.5 653 Q545 637 546 625 Q547 613 548 601 Q549 589 551 571 Q553 548 555 539.5 Q557 531 557 521 Q557 513 554 512 Q551 511 549 511 Q541 511 538 525.5 Q535 540 532 550 Q529 561 524 576 Q519 591 510 606 Q501 621 487.5 634.5 Q474 648 455 657 Q442 663 426.5 666 Q411 669 396 670.5 Q381 672 367.5 672.5 Q354 673 345 673 Q307 673 284 672.5 Q261 672 242 670 L242 364 Z " />
<glyph glyph-name="G" unicode="G" horiz-adv-x="664" d="M392 206 Q386 206 378.5 207 Q371 208 371 215 Q371 223 378 223.5 Q385 224 388 224 Q398 224 419.5 223.5 Q441 223 464 223 Q487 223 507.5 222.5 Q528 222 536 222 Q560 222 583.5 222.5 Q607 223 630 224 Q638 224 646.5 224.5 Q655 225 663 225 Q667 225 670 225 Q674 225 677 221 Q679 219 679 216 Q679 214 678 213 Q677 212 676 210 Q673 207 664 207 L641 207 Q625 207 613 205.5 Q601 204 596 195 Q594 192 593 183.5 Q592 175 591.5 165.5 Q591 156 591 147 Q591 139 591 136 Q591 121 591.5 106.5 Q592 92 592 77 L592 67 Q575 55 551.5 41 Q528 27 499 14.5 Q470 2 436.5 -6 Q403 -14 367 -14 Q344 -14 316.5 -10.5 Q289 -7 259 3 Q229 13 198 30.5 Q167 48 137 77 Q106 107 86 139.5 Q66 172 54 205 Q42 238 37 271 Q32 304 32 334 Q32 410 57 478 Q82 546 131 599 Q160 630 192 650 Q224 670 256.5 682 Q289 694 321 698.5 Q353 703 382 703 Q413 703 432.5 698 Q452 693 474 685 Q499 675 512 668.5 Q525 662 535 662 Q540 662 545 664.5 Q550 667 553 670 Q556 673 558 677 Q560 681 562 686 Q563 690 567 694 Q568 695 570 696.5 Q572 698 573 698 Q575 698 577.5 696.5 Q580 695 580 687 Q580 679 579.5 676.5 Q579 674 578.5 672 Q578 670 577.5 665.5 Q577 661 577 648 Q576 634 576 619 Q576 605 576 591 Q576 585 576 573 Q576 562 576.5 549 Q577 536 577.5 523.5 Q578 511 579 504 Q579 499 579.5 495.5 Q580 492 580 487 Q580 474 576 471 Q572 468 570 468 Q564 468 560 474 Q556 479 555 486.5 Q554 494 551 508 Q548 522 545.5 536 Q543 550 538 564 Q531 586 519.5 608.5 Q508 631 493 647 Q482 658 460.5 671 Q439 684 400 684 Q367 684 343 674 Q319 664 301.5 650.5 Q284 637 273.5 622.5 Q263 608 258 599 Q232 552 220.5 489.5 Q209 427 209 348 Q209 313 211.5 271.5 Q214 230 221 190.5 Q228 151 240 115.5 Q252 80 271 57 Q291 33 318.5 19 Q346 5 375 5 Q404 5 420.5 17 Q437 29 445 46.5 Q453 64 455 84 Q457 104 457 119 Q457 163 455 178 Q453 193 450 197 Q445 204 434 205 Q423 206 417 206 L392 206 Z " />
<glyph glyph-name="H" unicode="H" horiz-adv-x="727" d="M243 357 L243 102 Q243 74 244 57 Q245 40 250 32 Q255 24 265.5 21 Q276 18 281 17 Q287 16 293.5 15.5 Q300 15 307 15 Q311 15 318.5 13.5 Q326 12 326 5 Q326 0 322.5 -0.5 Q319 -1 317 -1 Q309 -1 302.5 -0.5 Q296 0 288 0 L283 0 L200 3 Q194 3 179 3 Q165 3 133 1 Q95 -1 72 -1.5 Q49 -2 20 -2 Q17 -2 11 -1 Q5 0 5 7 Q5 13 10 14 Q15 15 19 15 Q25 15 30.5 15.5 Q36 16 42 17 Q45 17 51.5 18.5 Q58 20 65.5 21.5 Q73 23 79.5 25 Q86 27 88 30 Q92 35 92 46 Q92 57 92 80 L92 641 Q92 646 91 653.5 Q90 661 82 667 Q74 673 54 675 Q34 677 20 677 Q16 677 11.5 678 Q7 679 7 686 Q7 691 14 693 Q21 695 26 695 Q33 695 39 694 Q45 693 52 691 Q57 690 60 690 Q63 690 66 690 L208 689 Q218 689 231.5 689.5 Q245 690 259 690.5 Q273 691 286 691.5 Q299 692 307 692 Q313 692 320 691 Q327 690 327 682 Q327 679 325 675 Q322 672 317 672 L281 671 Q262 671 253 662 Q246 655 244.5 642.5 Q243 630 243 617 L243 381 L484 381 L484 605 Q484 619 481 635.5 Q478 652 470 661 Q462 670 451.5 671.5 Q441 673 433 673 L414 673 Q410 673 404.5 674 Q399 675 399 683 Q399 684 401 688 Q404 692 411 692 Q420 692 428 692 Q437 692 445 691 Q454 690 459 689.5 Q464 689 478 689 L634 689 L638 689 Q658 689 677.5 690.5 Q697 692 718 692 Q720 692 723.5 691.5 Q727 691 727 686 Q727 681 724 680 Q721 679 719 679 Q710 677 701 677 Q693 677 685 676 Q672 675 662.5 672.5 Q653 670 647 664 Q637 654 636 634.5 Q635 615 635 598 L635 106 Q635 83 636 61 Q637 39 651 28 Q658 23 667.5 20 Q677 17 685 15 Q691 14 696.5 13.5 Q702 13 708 12 Q713 11 717.5 10 Q722 9 725 5 Q727 3 727 0 Q727 -5 723.5 -5.5 Q720 -6 718 -6 Q710 -6 703.5 -5 Q697 -4 691 -3 Q683 -2 676 -2 Q670 -2 662 -2 Q632 -2 602 -0.5 Q572 1 542 1 Q530 1 511.5 0.5 Q493 0 474 0 Q456 0 440 -0.5 Q424 -1 417 -1 Q412 -1 406.5 0 Q401 1 401 7 Q401 13 406 14 Q411 15 415 15 Q424 15 441 18 Q458 21 468 26 Q480 32 482 42 Q484 52 484 64 L484 357 L243 357 Z " />
<glyph glyph-name="I" unicode="I" horiz-adv-x="336" d="M92 596 Q92 631 92 645 Q92 660 84 667 Q80 671 71 673 Q62 675 41 675 L29 675 Q18 675 15.5 677.5 Q13 680 13 682 Q13 686 16.5 688.5 Q20 691 35 691 Q76 691 115 690 Q154 689 194 689 Q228 689 244.5 689.5 Q261 690 269.5 690.5 Q278 691 283.5 691.5 Q289 692 302 692 Q307 692 313 691 Q319 690 319 684 Q319 675 308 675 Q298 675 284 674 Q276 673 268.5 672.5 Q261 672 255 669 Q250 667 246.5 661.5 Q243 656 243 642 L243 77 Q243 62 244 49 Q245 36 250 29 Q257 21 272.5 19 Q288 17 317 15 Q326 15 326 8 Q326 1 321 0 Q318 -1 312 -1 Q298 -1 270.5 1 Q243 3 195 3 Q172 3 148 2.5 Q124 2 101 1 Q81 0 61.5 -0.5 Q42 -1 22 -1 Q18 -1 14 -0.5 Q10 0 8 3 Q7 4 7 8 Q7 13 10 14 Q16 16 23.5 15 Q31 14 47 16 Q58 17 69 19.5 Q80 22 86 32 Q88 36 90 44.5 Q92 53 92 71 L92 596 Z " />
<glyph glyph-name="J" unicode="J" horiz-adv-x="419" d="M179 597 Q179 626 178 641 Q177 656 169 664 Q159 672 145 672 Q132 672 116 674 Q112 674 109 674.5 Q106 675 101 675 Q97 675 93 675 Q89 675 87 677 Q85 679 85 683 Q85 691 92 691.5 Q99 692 102 692 Q122 692 141 691.5 Q160 691 179 691 Q230 691 280.5 692 Q331 693 390 693 Q396 693 401 692 Q406 691 406 683 Q406 679 405 678 Q403 675 399 674.5 Q395 674 393 674 Q388 674 382 674.5 Q376 675 371 675 Q346 675 338.5 670.5 Q331 666 329 663 Q327 659 327 655 Q326 649 326 643 Q326 637 326 630 L326 155 Q326 116 325 90.5 Q324 65 323 49 Q322 33 320 24 Q318 15 317 9 Q312 -9 301.5 -25 Q291 -41 278.5 -53.5 Q266 -66 253 -76 Q240 -86 229 -93 Q209 -107 187 -117 Q152 -133 112 -133 Q59 -133 33 -106.5 Q7 -80 7 -46 Q7 -17 26.5 3 Q46 23 76 23 Q103 23 120 6.5 Q137 -10 137 -39 Q137 -54 131.5 -65 Q126 -76 116 -91 Q110 -99 110 -105 Q110 -108 112 -110 Q114 -113 119 -114.5 Q124 -116 128 -116 Q145 -116 154 -106 Q163 -96 167 -87 Q172 -76 175.5 -60.5 Q179 -45 179 -21 L179 597 Z " />
<glyph glyph-name="K" unicode="K" horiz-adv-x="690" d="M613 689 Q623 689 625 686 Q627 683 627 680 Q627 675 625 674 Q623 673 621 672 Q612 669 603 670 Q594 671 578 669 Q565 667 557.5 664 Q550 661 542 654 Q538 651 535 647.5 Q532 644 528 641 Q521 634 510.5 623 Q500 612 488.5 599.5 Q477 587 465.5 575 Q454 563 446 554 Q434 540 418 522.5 Q402 505 386.5 487 Q371 469 357 452.5 Q343 436 334 426 Q341 417 349.5 405.5 Q358 394 366 383.5 Q374 373 380.5 364.5 Q387 356 390 352 L587 100 Q607 74 617.5 60 Q628 46 637 37 Q652 22 663 19.5 Q674 17 687 17 Q710 18 714.5 14.5 Q719 11 719 9 Q719 5 715.5 2 Q712 -1 698 -1 Q665 -1 634.5 -0.5 Q604 0 573 0 Q543 0 523 -0.5 Q503 -1 487.5 -1.5 Q472 -2 458 -2.5 Q444 -3 426 -3 Q412 -3 408 -0.5 Q404 2 404 6 Q404 12 407.5 13 Q411 14 416 15 Q437 17 443 16 Q449 15 454 17 Q461 20 461 26 Q461 31 456 38.5 Q451 46 446 52 L259 313 Q250 325 240 334 L240 80 Q240 55 241.5 43 Q243 31 248 26 Q252 21 258 20 Q264 19 271 18 Q279 17 285 17 Q291 17 298 16 Q301 16 303.5 15.5 Q306 15 309 15 Q314 15 318.5 14.5 Q323 14 323 6 Q323 -2 316.5 -2.5 Q310 -3 305 -3 Q297 -3 276 -2.5 Q255 -2 229 -2 Q204 -2 178.5 -1.5 Q153 -1 137 -1 Q126 -1 109.5 -1.5 Q93 -2 76 -2 Q60 -2 45.5 -2.5 Q31 -3 24 -3 Q13 -3 11 2 Q10 3 10 6 Q10 10 13.5 12 Q17 14 22.5 14.5 Q28 15 33.5 15.5 Q39 16 43 16 Q49 16 54 16 Q60 16 66 17 Q86 20 89 32.5 Q92 45 92 69 L92 646 Q92 650 90.5 655 Q89 660 86 663 Q81 668 71.5 669 Q62 670 42 671 Q32 671 22.5 671.5 Q13 672 13 680 Q13 686 18.5 687 Q24 688 27 688 Q50 688 70 687 Q90 686 110 686 Q125 686 140.5 686.5 Q156 687 171 687 Q205 688 238 688.5 Q271 689 307 689 Q309 689 314 688 Q319 687 319 679 Q319 672 311 672 Q303 672 295 672 Q290 672 283 672 Q276 672 268.5 671 Q261 670 255 668 Q249 666 246 663 Q242 658 241 649 Q240 640 240 629 L240 365 Q253 375 261.5 383.5 Q270 392 279.5 402 Q289 412 301.5 426.5 Q314 441 335 464 L422 562 Q432 573 441 584.5 Q450 596 459 607 Q479 633 485 644.5 Q491 656 491 661 Q491 666 485.5 668.5 Q480 671 458 671 L431 671 Q423 671 420 674.5 Q417 678 417 680 Q417 683 420 686 Q423 689 432 689 L613 689 Z " />
<glyph glyph-name="L" unicode="L" horiz-adv-x="564" d="M241 21 Q257 20 283 20 Q310 20 338 20.5 Q366 21 392 23 Q418 25 433 28 Q465 34 485 49.5 Q505 65 519 92 Q523 100 526.5 112.5 Q530 125 533 138 Q536 151 538 161 Q540 171 541 175 Q543 184 546 188 L548 190 Q549 191 550 191 Q551 191 554 188 Q557 184 557 179 Q557 174 557 169 Q557 148 556.5 137 Q556 126 555 117 Q554 108 553.5 97 Q553 86 553 66 Q553 53 553.5 40.5 Q554 28 554 15 L554 -5 Q534 -4 519 -3.5 Q504 -3 489.5 -2.5 Q475 -2 459 -2 Q444 -2 425 -2 Q374 -2 324.5 -1 Q275 0 224 0 L203 0 L49 0 Q35 0 25 0 Q16 0 8 3 Q5 4 5 8 Q5 11 7.5 13.5 Q10 16 19 16 Q25 16 34 17 Q43 18 52.5 19.5 Q62 21 70 23.5 Q78 26 83 30 Q88 34 90 43 Q92 52 92 78 L92 620 Q92 640 90.5 648.5 Q89 657 85 662 Q81 667 75 669.5 Q69 672 64 674 Q54 676 48 676 Q42 676 36 675.5 Q30 675 24 675 Q16 675 14 677.5 Q12 680 12 683 Q12 689 17 690 Q22 691 26 691 Q31 691 35 690.5 Q39 690 44 690 Q63 689 82 689 Q101 689 121 689 Q167 689 211 690 Q255 691 302 691 Q305 691 311 690 Q317 689 317 683 Q317 681 314 677.5 Q311 674 299 674 Q286 674 270 674 Q255 674 247 664 Q245 660 243 651 Q241 642 241 619 L241 21 Z " />
<glyph glyph-name="M" unicode="M" horiz-adv-x="786" d="M240 690 L384 230 L519 691 L762 691 Q767 691 774.5 690 Q782 689 782 682 Q782 680 780 676.5 Q778 673 768 673 Q761 673 754 673.5 Q747 674 740 674 Q713 674 702 670.5 Q691 667 687 663 Q679 655 678 645 Q677 641 677 632 L677 62 Q677 52 678 47 Q679 42 679.5 37.5 Q680 33 683 29 Q688 22 697.5 20.5 Q707 19 714 18 Q722 17 730.5 16.5 Q739 16 747 16 L770 16 Q775 16 781.5 15 Q788 14 788 7 Q788 -1 778 -2 Q768 -3 762 -3 Q704 -3 670 -2 Q636 -1 610 -1 Q584 -1 559 -1.5 Q534 -2 508 -2 L504 -2 L438 -2 Q435 -2 431 -1.5 Q427 -1 425 2 Q424 3 424 7 Q424 10 426 13 Q428 16 438 16 Q449 16 458.5 15.5 Q468 15 479 15 Q494 15 508 17.5 Q522 20 527 31 Q528 33 529 39.5 Q530 46 530 64 L530 643 L352 40 Q350 32 345.5 19.5 Q341 7 334 7 Q328 7 321.5 16.5 Q315 26 311 37 L124 615 L124 66 Q124 61 124.5 53.5 Q125 46 128 38 Q130 32 134 29 Q146 17 180 17 L200 17 Q206 17 210 16.5 Q214 16 218 13 Q221 10 221 6 Q221 3 220 2 Q218 0 212 -0.5 Q206 -1 204 -1 Q183 -1 161 0 Q139 1 117 1 Q103 1 90.5 0.5 Q78 0 64 0 Q57 0 50 0 Q43 0 36 -1 Q31 -1 26.5 -1.5 Q22 -2 17 -2 Q12 -2 7 -1.5 Q2 -1 -3 0 Q-11 2 -11 7 Q-11 9 -10 10 Q-8 12 -4 13.5 Q0 15 4 15 L47 16 Q57 16 69.5 18 Q82 20 88 33 Q90 38 91.5 46 Q93 54 93 72 L93 611 Q93 625 91.5 640 Q90 655 81 663 Q75 668 67.5 669.5 Q60 671 53 672 Q49 673 45 673 Q41 673 37 673 L12 673 Q1 673 -1.5 677 Q-4 681 -4 683 Q-4 685 -0.5 688 Q3 691 14 691 Q20 691 26 690.5 Q32 690 38 690 L44 690 L240 690 Z " />
<glyph glyph-name="N" unicode="N" horiz-adv-x="660" d="M99 516 Q99 563 97 586.5 Q95 610 89 625 Q80 645 62 657 Q57 660 51.5 662.5 Q46 665 40 667 Q32 669 23 670 Q14 671 6 672 Q-17 674 -26 674 Q-36 674 -36 682 Q-36 691 -22 691 Q-9 691 -2.5 690.5 Q4 690 13 689.5 Q22 689 38.5 688.5 Q55 688 89 688 Q108 688 121 688 Q135 688 147 688 Q159 688 170 688.5 Q181 689 195 690 L546 239 L546 635 Q546 658 539 664.5 Q532 671 518 673 Q510 674 503 674 Q497 674 489 674 Q482 674 475 674 Q468 674 461 675 Q458 675 453.5 676 Q449 677 449 682 Q449 687 457.5 689 Q466 691 478.5 691.5 Q491 692 505.5 691.5 Q520 691 532 691 L598 691 Q609 691 622 691 Q635 691 649 690 Q664 689 666 686 Q667 685 667 678 Q667 675 660 675 Q652 674 646.5 673.5 Q641 673 636 673 Q631 673 624 673 Q617 673 606 672 Q598 671 589.5 670 Q581 669 577 664 Q575 661 574 652.5 Q573 644 573 622 L573 7 Q573 2 572.5 -3.5 Q572 -9 567 -9 Q564 -9 557 -2 Q550 5 548 8 L126 535 Q126 501 126 487 Q126 473 126 468 Q126 463 126 462 Q126 461 126.5 453 Q127 445 127 424 Q127 404 127 361 L127 50 Q127 42 128 35.5 Q129 29 140 24 Q155 18 173.5 17 Q192 16 206 16 Q211 16 217 15.5 Q223 15 226 11 Q227 10 227 7 Q227 5 223.5 2 Q220 -1 212 -1 Q209 -1 206 -0.5 Q203 0 200 0 Q192 1 183 1 Q174 1 166 1 Q154 1 142.5 1.5 Q131 2 119 2 Q114 2 102 2 Q91 2 77.5 1.5 Q64 1 51 0.5 Q38 0 30 0 Q25 0 20 -0.5 Q15 -1 10 -1 Q-2 -1 -5.5 2 Q-9 5 -9 7 Q-9 15 0 15 Q8 15 15 15 Q22 15 30 16 Q38 17 56 19 Q66 20 77 22.5 Q88 25 94 33 Q99 40 99 52 Q99 65 99 73 L99 516 Z " />
<glyph glyph-name="O" unicode="O" horiz-adv-x="710" d="M360 685 Q349 685 336 682 Q323 679 308.5 671 Q294 663 280.5 649.5 Q267 636 255 614 Q235 577 221.5 516.5 Q208 456 208 367 Q208 343 210 304 Q212 265 219 220 Q226 175 240.5 130 Q255 85 280 50 Q291 34 305 23 Q319 12 334.5 8 Q350 4 368 4 Q397 4 420 16.5 Q443 29 460 68 Q474 100 481 132 Q492 178 497 233 Q502 288 502 339 Q502 376 499.5 415.5 Q497 455 491 492.5 Q485 530 476 563.5 Q467 597 455 621 Q450 631 444 640 Q438 649 430 657 Q417 669 399 677 Q381 685 360 685 Z M361 702 Q384 702 409.5 698 Q435 694 462 684.5 Q489 675 516 658.5 Q543 642 569 618 Q595 594 614.5 564 Q634 534 648 502 Q664 465 671 425.5 Q678 386 678 345 Q678 267 652 202 Q626 137 585 92 Q550 53 505 27 Q471 8 433 -2 Q395 -12 356 -12 Q290 -12 231 15.5 Q172 43 128 91 Q80 143 56 209.5 Q32 276 32 346 Q32 391 42 435.5 Q52 480 72 521 Q94 564 128 601 Q157 632 188 651.5 Q219 671 249 682 Q279 693 308 697.5 Q337 702 361 702 Z " />
<glyph glyph-name="P" unicode="P" horiz-adv-x="565" d="M241 363 Q277 362 301 366.5 Q325 371 344 386 Q360 399 369.5 416 Q379 433 383.5 451.5 Q388 470 389 489 Q390 508 390 526 Q390 543 389 561 Q388 579 384.5 596.5 Q381 614 373.5 629 Q366 644 354 655 Q341 666 326 670 Q311 674 292 674 Q287 674 282 674 Q277 674 272 672 Q262 669 256 664 Q245 655 243 644.5 Q241 634 241 625 L241 363 Z M241 84 Q241 67 241 51 Q241 36 248 28 Q251 24 258 21.5 Q265 19 272 18 Q279 17 285.5 16.5 Q292 16 295 16 L314 16 Q325 16 328 12.5 Q331 9 331 7 Q331 5 329.5 1.5 Q328 -2 317 -2 Q309 -2 302 -2 Q296 -2 289 -1 Q282 -1 276 -0.5 Q270 0 263 0 L33 -1 L32 -1 Q29 -1 26 -1.5 Q23 -2 19 -2 Q11 -2 9 1 Q7 3 7 6 Q7 13 13.5 14 Q20 15 22 15 Q27 15 36 15 Q45 15 54.5 16 Q64 17 72.5 19.5 Q81 22 84 26 Q91 34 91 70 L91 597 L91 612 Q91 639 89.5 648.5 Q88 658 86 661 Q83 666 74.5 670 Q66 674 44 674 L26 674 Q21 674 14.5 675 Q8 676 8 683 Q8 690 14 690.5 Q20 691 28 691 L315 692 Q378 692 415 683.5 Q452 675 478 660 Q514 638 532.5 605.5 Q551 573 551 532 Q551 487 531.5 449.5 Q512 412 479 387 Q447 363 404 352 Q361 341 319 341 Q295 341 274.5 344 Q254 347 241 349 L241 84 Z " />
<glyph glyph-name="Q" unicode="Q" horiz-adv-x="709" d="M356 685 Q332 685 314.5 676.5 Q297 668 284 655.5 Q271 643 262 628.5 Q253 614 248 602 Q237 579 231 555 Q225 531 220 506 Q213 467 210.5 427 Q208 387 208 347 Q208 311 211 269.5 Q214 228 221 187.5 Q228 147 240 110.5 Q252 74 270 49 Q281 34 303 19 Q325 4 364 4 Q383 4 397 8 Q411 12 421 18 Q431 24 437 30.5 Q443 37 446 42 Q456 56 464 75 Q472 94 478 115 Q484 136 488.5 156.5 Q493 177 495 195 Q500 226 501 257 Q502 288 502 320 Q502 358 499.5 401 Q497 444 491 485 Q485 526 476 562.5 Q467 599 454 624 Q444 644 431 656.5 Q418 669 398 677 Q377 685 356 685 Z M436 0 Q435 -56 440 -91 Q445 -126 471 -149 Q483 -160 495.5 -165 Q508 -170 522 -173 Q530 -175 538.5 -176 Q547 -177 555 -177 Q563 -177 573 -175.5 Q583 -174 587 -173 Q592 -172 595 -170.5 Q598 -169 601 -169 Q609 -169 609 -178 Q609 -186 598.5 -191.5 Q588 -197 571.5 -201 Q555 -205 536 -207 Q517 -209 500 -209 Q487 -209 474.5 -208 Q462 -207 449 -205 Q430 -202 409 -197 Q388 -192 367 -181 Q314 -154 297.5 -110 Q281 -66 286 0 Q232 17 190.5 44 Q149 71 120 102 Q72 154 52 214 Q32 274 32 344 Q32 420 49.5 471 Q67 522 87 552 Q118 600 163 633 Q207 666 257.5 684 Q308 702 360 702 Q427 702 482.5 676 Q538 650 577 609 Q624 560 650.5 489.5 Q677 419 677 338 Q677 297 670 258 Q663 219 646 182 Q629 144 604 113 Q580 83 538.5 51.5 Q497 20 436 0 Z " />
<glyph glyph-name="R" unicode="R" horiz-adv-x="637" d="M245 376 Q264 375 288.5 379 Q313 383 332 394 Q357 408 371 433 Q384 456 388.5 487 Q393 518 393 542 Q393 561 390.5 583.5 Q388 606 377 626 Q360 657 335 665 Q310 673 291 673 Q280 673 267.5 670 Q255 667 250 651 Q250 650 249 645.5 Q248 641 247 629 Q246 617 245.5 596.5 Q245 576 245 542 L245 376 Z M245 75 Q245 52 245.5 44.5 Q246 37 248 34 Q255 20 276 18 Q297 16 313 16 Q316 16 324.5 15.5 Q333 15 336 11 Q337 10 337 7 Q337 1 333 0 Q330 -1 325 -1 Q302 -1 279.5 -0.5 Q257 0 234 0 Q216 0 197.5 -0.5 Q179 -1 161 -1 Q140 -1 118.5 -0.5 Q97 0 76 0 Q62 0 49.5 -0.5 Q37 -1 23 -1 Q17 -1 14 0 Q9 2 9 7 Q9 15 20.5 15.5 Q32 16 50 18 Q64 19 74.5 21 Q85 23 90 34 Q93 41 93 50 Q93 59 93 76 L93 591 Q93 615 93 629 Q93 643 91.5 650.5 Q90 658 87 661.5 Q84 665 78 667 Q77 667 71 669 Q65 671 56 672 Q48 673 39.5 672.5 Q31 672 23 673 Q20 673 15.5 674.5 Q11 676 11 682 Q11 692 27 692 Q43 692 58 692 Q83 692 108 691.5 Q133 691 158 691 Q186 691 213.5 691.5 Q241 692 269 692 Q349 692 393 686 Q437 680 460 670 Q489 657 509 637 Q523 623 535.5 599.5 Q548 576 548 541 Q548 522 543 502 Q538 482 526.5 463.5 Q515 445 495.5 428.5 Q476 412 448 399 Q432 392 419 388 Q399 382 370 376.5 Q341 371 318 369 L317 363 Q349 361 388 352 Q427 343 454 324 Q477 308 491.5 287 Q506 266 514.5 242 Q523 218 527 192.5 Q531 167 534 142 Q538 110 540.5 90.5 Q543 71 546 59 Q549 47 552 40.5 Q555 34 560 28 Q564 23 572.5 15 Q581 7 594 7 Q600 7 605 10 Q609 12 609 15 Q609 17 608 18 Q606 21 602.5 23 Q599 25 596 27 Q589 32 587.5 37 Q586 42 586 46 Q586 60 595.5 66.5 Q605 73 616 73 Q627 73 636.5 64.5 Q646 56 646 39 Q646 20 636 7 Q623 -10 604 -13.5 Q585 -17 573 -17 Q541 -17 513 -10 Q485 -3 464 9.5 Q443 22 426 41 Q410 58 395 85 Q380 112 377 137 L367 219 Q363 251 355 283.5 Q347 316 325 335 Q309 349 286.5 354.5 Q264 360 245 358 L245 75 Z " />
<glyph glyph-name="S" unicode="S" horiz-adv-x="496" d="M411 706 Q414 706 417.5 704 Q421 702 421 693 Q421 688 420.5 684 Q420 680 419 672 Q419 664 418 645.5 Q417 627 417 608 Q417 587 418 577 Q419 567 419.5 560.5 Q420 554 421 548 Q422 542 422 531 Q422 525 419 523.5 Q416 522 414 522 Q406 522 402.5 533 Q399 544 397 552 Q395 563 390 573 Q385 583 380 593 Q369 612 353.5 632 Q338 652 319 663 Q309 669 292 675 Q275 681 249 681 Q226 681 204 675.5 Q182 670 165 658 Q148 646 137.5 626.5 Q127 607 127 580 Q127 566 130.5 552.5 Q134 539 146 522 Q161 501 190 480 Q219 459 277 427 Q293 418 312.5 407 Q332 396 351.5 383.5 Q371 371 389 357.5 Q407 344 420 331 Q445 305 458 269.5 Q471 234 471 196 Q471 158 457 120.5 Q443 83 414 53.5 Q385 24 341 5.5 Q297 -13 238 -13 Q219 -13 204 -11.5 Q189 -10 175.5 -7 Q162 -4 149 0 Q136 4 121 10 Q104 16 93.5 20.5 Q83 25 76.5 27 Q70 29 66.5 30 Q63 31 60 31 Q54 31 50 28 Q46 26 42 18 Q35 4 34 -4 Q33 -12 29 -15 Q28 -16 26 -16 Q24 -16 21 -13 Q18 -10 18 -2 Q18 9 22.5 37.5 Q27 66 27 115 Q27 126 26.5 133.5 Q26 141 25.5 149 Q25 157 24.5 166.5 Q24 176 24 192 Q24 195 25 202 Q26 209 34 209 Q43 209 45.5 196 Q48 183 52 166 Q59 137 72.5 106.5 Q86 76 115 51 Q134 34 164 20.5 Q194 7 229 7 Q259 7 282.5 17 Q306 27 322.5 44 Q339 61 348 82.5 Q357 104 357 128 Q357 150 349.5 165.5 Q342 181 333 191 Q316 209 282.5 227 Q249 245 217 262 Q154 295 121 322 Q88 349 69 378 Q57 396 50 414.5 Q43 433 39 450 Q35 467 34 481 Q33 495 33 504 Q33 549 50 585.5 Q67 622 96.5 648.5 Q126 675 166.5 689 Q207 703 254 703 Q275 703 298.5 698.5 Q322 694 355 679 Q368 673 372 672.5 Q376 672 382 671 Q384 671 385.5 670.5 Q387 670 389 671 Q397 673 398.5 681.5 Q400 690 402 697 Q404 704 405.5 705 Q407 706 411 706 Z " />
<glyph glyph-name="T" unicode="T" horiz-adv-x="586" d="M366 103 Q366 74 367 57 Q368 40 374 32 Q377 28 387 24 Q394 22 400 21.5 Q406 21 414 20 L451 16 Q454 16 458 14 Q462 13 462 8 Q462 2 458 -0.5 Q454 -3 441 -3 Q432 -3 421.5 -2 Q411 -1 395 -0.5 Q379 0 354.5 1 Q330 2 292 2 Q280 2 267.5 1.5 Q255 1 243 1 Q215 0 188 -0.5 Q161 -1 133 -1 Q124 -1 121.5 1.5 Q119 4 119 7 Q119 13 121.5 14.5 Q124 16 128 16 L156 16 Q167 16 176 16.5 Q185 17 195 21 Q201 23 207 28 Q213 33 215 42 Q215 43 216 53.5 Q217 64 217 104 L217 668 Q203 669 189 669 Q148 669 114 661 Q80 653 60 625 Q47 608 40 580 Q33 552 23 508 Q21 502 19 496.5 Q17 491 9 491 Q0 491 0 501 Q0 506 0 510 Q1 524 3 544 Q6 582 8 605.5 Q10 629 11 644 Q12 659 13 669.5 Q14 680 14 692 Q67 692 97 692 Q125 692 146 691 Q167 690 184.5 689.5 Q202 689 228 689 L354 689 Q388 689 425.5 689.5 Q463 690 496.5 690.5 Q530 691 546 691 Q567 692 575 693 Q576 667 577.5 642.5 Q579 618 583 589 L591 525 Q593 510 591.5 504 Q590 498 585 498 Q577 498 574 506.5 Q571 515 569 520 Q555 570 544.5 598 Q534 626 516 642 Q504 652 489.5 658 Q475 664 460 666.5 Q445 669 431.5 669.5 Q418 670 408 670 Q394 670 384.5 669.5 Q375 669 366 668 L366 103 Z " />
<glyph glyph-name="U" unicode="U" horiz-adv-x="624" d="M542 219 Q542 200 540 178 Q538 156 532.5 133.5 Q527 111 516.5 88.5 Q506 66 489 47 Q470 26 447.5 13.5 Q425 1 402.5 -6 Q380 -13 359 -15 Q338 -17 322 -17 Q283 -17 253 -10.5 Q223 -4 200.5 6.5 Q178 17 162 29.5 Q146 42 136 54 Q111 83 99.5 126.5 Q88 170 88 242 L88 626 Q88 631 88 636 Q88 642 87 647 Q85 658 80 663 Q75 668 65.5 670 Q56 672 47 673 Q39 674 31 674.5 Q23 675 15 676 Q12 676 8 677.5 Q4 679 4 684 Q4 691 10 692 Q16 693 21 693 Q31 693 36.5 692.5 Q42 692 52 692 Q62 692 81 691.5 Q100 691 137 691 Q177 691 216 691.5 Q255 692 298 692 Q312 692 315.5 689 Q319 686 319 682 Q319 679 315 676 Q312 674 308 673.5 Q304 673 300 673 Q274 672 264 671.5 Q254 671 248 667 Q239 661 239 636 L239 262 Q239 220 240 189 Q241 158 245 135 Q249 112 257 95 Q265 78 279 65 Q293 52 307.5 44.5 Q322 37 337 33 Q346 31 355.5 30 Q365 29 374 29 Q418 29 440.5 42.5 Q463 56 476 73 Q485 84 492 99 Q499 114 504 135.5 Q509 157 512 188 Q515 219 515 263 L515 633 Q515 638 514.5 646.5 Q514 655 507 662 Q500 669 487 671 Q478 673 469 673 Q461 673 453 673 Q433 674 429 678 Q426 681 426 685 Q426 691 431 692 Q436 693 439 693 Q458 693 467.5 692.5 Q477 692 485 691.5 Q493 691 502.5 690.5 Q512 690 531 690 Q549 690 567 690.5 Q585 691 604 691 Q610 691 618.5 690.5 Q627 690 630 685 Q631 684 631 682 Q631 679 629 677 Q625 674 618 674 Q612 674 597 673 Q582 672 567.5 670.5 Q553 669 546 659 Q543 655 542.5 650.5 Q542 646 542 642 L542 219 Z " />
<glyph glyph-name="V" unicode="V" horiz-adv-x="567" d="M272 692 Q277 692 282.5 691.5 Q288 691 290 687 Q291 686 291 683 Q291 680 289 678 Q287 676 280 675 Q273 674 256 674 Q247 674 236 674 Q225 674 216.5 672.5 Q208 671 202.5 667 Q197 663 199 656 L202 642 L350 228 Q355 242 360 255.5 Q365 269 370 283 Q374 294 378 306 Q382 318 386 329 Q389 337 392 346 Q395 355 398 363 L440 485 Q448 508 455.5 532 Q463 556 471 579 Q474 589 477 598.5 Q480 608 482 619 Q485 633 486 640 Q487 647 487 652 Q487 656 485 662 Q484 666 479 669 Q473 674 460 674.5 Q447 675 422 675 Q416 675 411 676 Q406 677 406 685 Q406 690 410 692 Q414 694 425 694 Q448 694 470 693.5 Q492 693 515 693 Q535 693 555 693.5 Q575 694 598 694 Q603 694 609.5 692.5 Q616 691 616 683 Q616 678 613 677 Q610 675 604 675 Q583 674 566.5 672.5 Q550 671 539 663 Q533 658 528 649.5 Q523 641 515.5 623 Q508 605 497.5 575 Q487 545 471 497 L306 18 Q303 10 301 1.5 Q299 -7 292 -7 Q285 -7 282 -0.5 Q279 6 277 11 L45 634 Q43 640 39.5 647.5 Q36 655 30 661.5 Q24 668 14.5 672 Q5 676 -9 675 L-42 674 Q-46 674 -48 675 Q-50 676 -52 678 Q-54 680 -54 683 Q-54 687 -52 689 Q-50 691 -44 692.5 Q-38 694 -18 692 L151 691 L164 691 L175 691 Q187 691 192.5 692 Q198 693 216 692 L272 692 Z " />
<glyph glyph-name="W" unicode="W" horiz-adv-x="899" d="M582 612 Q592 632 592 646 Q592 658 582.5 666.5 Q573 675 544 675 Q511 675 503 670.5 Q495 666 495 658 Q495 652 496.5 645 Q498 638 500 633 L543 528 L582 612 Z M630 37 Q622 13 618 2 Q614 -9 609 -9 Q604 -9 599 6.5 Q594 22 578 63 L470 347 L326 7 Q324 1 322 -3.5 Q320 -8 315 -8 Q307 -8 305 1.5 Q303 11 300 19 L64 631 Q61 640 58 647 Q55 654 50.5 659.5 Q46 665 38.5 668.5 Q31 672 18 673 Q13 673 5 673 Q-3 673 -10.5 673.5 Q-18 674 -23.5 676 Q-29 678 -29 683 Q-29 690 -22.5 690.5 Q-16 691 -14 691 Q6 691 26 690.5 Q46 690 66 690 Q97 690 120.5 690.5 Q144 691 164.5 691.5 Q185 692 204 692.5 Q223 693 246 693 Q256 693 258.5 689.5 Q261 686 261 683 Q261 677 256 676.5 Q251 676 244 676.5 Q237 677 229 676.5 Q221 676 215 672 L213 670 Q212 669 212 667 Q212 665 212.5 662 Q213 659 214 657 L384 208 L454 369 L364 610 Q356 630 350 645.5 Q344 661 333 668 Q323 674 310 674 Q298 674 290 675 Q280 675 280 684 Q280 691 284 692 Q288 693 293 693 Q304 693 312 693 Q320 693 329 692 Q335 692 341.5 691.5 Q348 691 354 691 L667 691 Q672 691 681.5 692 Q691 693 700 693 Q709 693 715.5 691 Q722 689 722 683 Q722 676 716 675.5 Q710 675 707 675 Q687 676 674 675.5 Q661 675 652 672.5 Q643 670 637 665 Q631 660 625 651 Q622 647 618.5 641 Q615 635 609.5 623.5 Q604 612 595.5 592.5 Q587 573 573 542 Q568 531 563.5 520 Q559 509 554 498 L666 213 L802 586 Q808 603 813 615 Q818 627 818 647 Q818 655 817 660 Q816 665 811.5 668 Q807 671 798 672.5 Q789 674 773 675 Q764 675 755 675 Q746 675 746 683 Q746 690 752.5 690.5 Q759 691 761 691 Q784 691 806.5 690 Q829 689 852 689 Q871 689 879 689.5 Q887 690 891 690 Q896 690 901.5 690.5 Q907 691 922 691 Q925 691 930 690 Q935 689 935 683 Q935 679 932 677 Q929 675 920 674 Q907 673 896 673 Q885 673 876 670.5 Q867 668 859.5 661 Q852 654 846 640 Q844 635 838.5 621.5 Q833 608 827.5 592.5 Q822 577 816.5 563 Q811 549 809 543 L630 37 Z " />
<glyph glyph-name="X" unicode="X" horiz-adv-x="699" d="M566 106 Q578 85 586 71 Q594 57 600 48.5 Q606 40 610.5 35.5 Q615 31 619 28 Q629 22 644 20.5 Q659 19 668 19 Q675 19 681 19.5 Q687 20 695 20 Q699 20 704.5 18.5 Q710 17 710 10 Q710 2 702.5 1 Q695 0 690 0 Q655 0 625 0.5 Q595 1 563 1 Q537 1 511.5 0.5 Q486 0 460 0 Q435 0 411 -0.5 Q387 -1 360 -1 Q356 -1 352 -1 Q348 -1 345 4 Q343 8 343 9 Q343 13 347 18 Q351 23 362 23 Q367 23 373 22 Q379 21 384 20 Q389 19 392 19 Q396 19 401 19 Q406 19 412 19.5 Q418 20 423 20 Q428 20 438 22 Q449 25 449 35 Q449 39 446 47 Q443 55 439 63.5 Q435 72 431 79 Q427 86 426 88 L304 306 L164 84 Q150 61 147 51.5 Q144 42 144 38 Q144 27 153 23 Q155 21 164.5 20 Q174 19 206 19 L232 19 Q239 19 240.5 15.5 Q242 12 242 10 Q242 1 233.5 -0.5 Q225 -2 220 -2 Q206 -2 197 -1.5 Q188 -1 176 -1 Q164 -1 144 -0.5 Q124 0 89 0 Q75 0 62 0 Q49 0 35 -1 Q30 -1 24.5 -1.5 Q19 -2 13 -2 Q10 -2 3 -1 Q-4 0 -4 7 Q-4 13 1.5 14.5 Q7 16 12 16 Q30 17 51.5 21.5 Q73 26 88 35 Q99 42 111.5 55.5 Q124 69 131 80 L289 331 L138 612 Q134 619 130.5 625.5 Q127 632 123 638 Q120 643 117.5 646.5 Q115 650 111 654 Q106 659 100 663.5 Q94 668 87 670 Q80 672 68.5 672.5 Q57 673 28 674 Q24 674 18 675.5 Q12 677 12 682 Q12 686 17.5 689 Q23 692 40 692 Q49 692 51.5 691.5 Q54 691 56 691 Q59 691 63 690.5 Q67 690 78 690 L231 688 Q251 688 261 688 Q272 688 283.5 689 Q295 690 311 690.5 Q327 691 358 691 Q363 691 367.5 690 Q372 689 372 682 Q372 678 369.5 674.5 Q367 671 363 671 L329 671 Q312 671 303 669.5 Q294 668 289 664 Q283 659 282 655 Q281 651 281 647 Q281 634 287 624 L385 441 L497 608 Q511 629 513.5 640 Q516 651 516 653 Q516 661 512 665.5 Q508 670 502 672 Q496 674 489 674 Q483 674 479 674 L454 674 Q452 674 448 674.5 Q444 675 442 678 Q441 679 441 682 Q441 689 446 690.5 Q451 692 455 692 Q463 692 469 691.5 Q475 691 482 691 L487 691 L555 689 Q560 689 570 689.5 Q580 690 585 690 Q598 691 610 691.5 Q622 692 635 692 Q640 692 649.5 691 Q659 690 659 682 Q659 680 657.5 677 Q656 674 648 674 L620 674 Q611 674 596 672 Q581 670 571 664 Q561 658 550 642 Q539 626 514 589 L400 415 L566 106 Z " />
<glyph glyph-name="Y" unicode="Y" horiz-adv-x="548" d="M41 645 Q32 663 19 669 Q6 675 -15 675 Q-21 675 -26.5 674.5 Q-32 674 -38 674 Q-43 674 -48 674.5 Q-53 675 -56 680 Q-58 682 -58 685 Q-58 693 -52 693.5 Q-46 694 -42 694 Q-32 694 -16.5 693.5 Q-1 693 17.5 692.5 Q36 692 55.5 691.5 Q75 691 93 691 Q109 691 136.5 691.5 Q164 692 193 692 Q222 692 247 692.5 Q272 693 284 693 Q289 693 296.5 692 Q304 691 304 685 Q304 679 300.5 678 Q297 677 294 677 Q286 677 279 677 Q272 677 264 676 Q244 674 232 672.5 Q220 671 214 665 Q210 661 209.5 658 Q209 655 209 652 Q209 647 210 638.5 Q211 630 213 625 L346 354 L457 586 Q462 597 470 617 Q478 637 478 652 Q478 668 468.5 671 Q459 674 449 674 L429 674 Q424 674 414.5 674.5 Q405 675 405 683 Q405 691 415 692 Q425 693 431 693 Q453 693 467 692.5 Q481 692 490 692 Q500 692 507.5 691.5 Q515 691 524 691 Q573 691 590.5 690 Q608 689 608 681 Q608 676 603.5 674.5 Q599 673 595 673 Q575 671 562.5 670 Q550 669 542.5 667.5 Q535 666 531 664 Q527 662 524 659 Q519 654 510.5 639 Q502 624 498 617 L383 370 Q372 347 367 333.5 Q362 320 360.5 310 Q359 300 359 291 Q359 282 359 267 L359 92 Q359 59 359 46 Q359 33 370 27 Q377 22 391 19.5 Q405 17 437 18 Q442 18 448 17 Q454 16 454 9 Q454 1 445.5 0.5 Q437 0 432 0 Q422 0 402 0.5 Q382 1 360 1.5 Q338 2 317.5 2.5 Q297 3 287 3 Q276 3 254.5 2.5 Q233 2 209.5 1.5 Q186 1 163.5 0.5 Q141 0 129 0 Q127 0 120 0.5 Q113 1 113 8 Q113 14 118.5 15 Q124 16 127 16 Q137 16 149 16.5 Q161 17 172 18.5 Q183 20 192 22.5 Q201 25 205 29 Q209 33 210.5 39.5 Q212 46 212 61 L212 307 L41 645 Z " />
<glyph glyph-name="Z" unicode="Z" horiz-adv-x="549" d="M119 0 Q111 0 104 0.5 Q97 1 88 0 Q80 -1 69 -1.5 Q58 -2 34 -4 Q29 -4 24.5 -4.5 Q20 -5 15 -5 Q12 -5 6.5 -4 Q1 -3 1 4 Q1 9 6 14.5 Q11 20 16 31 L358 664 Q342 666 330 666 Q318 666 292 666 Q268 666 246 666 Q224 666 204 663 Q184 660 165.5 651.5 Q147 643 128 627 Q116 616 104.5 602 Q93 588 83 572.5 Q73 557 65 541 Q57 525 53 512 Q51 507 48 500.5 Q45 494 39 494 Q37 494 34 496.5 Q31 499 31 505 Q31 508 32 510.5 Q33 513 34 516 Q36 521 37 526.5 Q38 532 39 537 Q41 543 43.5 556 Q46 569 51 596 Q54 609 56 619.5 Q58 630 60.5 641.5 Q63 653 65.5 665.5 Q68 678 71 695 Q90 693 123 692 Q156 691 192 690 Q228 689 262 688.5 Q296 688 318 688 Q366 688 396.5 689.5 Q427 691 448.5 692 Q470 693 487 693.5 Q504 694 524 693 Q523 688 518.5 675 Q514 662 499 635 L164 22 Q222 22 265 22.5 Q308 23 339 25.5 Q370 28 390.5 32.5 Q411 37 426 44 Q451 55 467 73 Q483 91 495 114 Q506 136 514.5 162.5 Q523 189 527 209 Q528 214 530 219 Q532 224 539 224 Q542 224 544.5 222 Q547 220 547 212 Q547 198 543.5 183 Q540 168 536 142 Q533 119 530 101 Q527 83 524.5 66.5 Q522 50 520 33.5 Q518 17 516 -2 Q512 -2 504 -1 Q496 0 491 0 L476 0 L463 0 L119 0 Z " />
<glyph glyph-name="bracketleft" unicode="&#x5b;" horiz-adv-x="393" d="M314 692 Q330 692 334 690 Q338 688 338 680 Q338 671 332 670.5 Q326 670 321 670 L266 670 Q261 670 252 669 Q243 668 238 663 Q233 658 232.5 644.5 Q232 631 232 599 L232 -72 Q232 -87 232 -96 Q232 -106 236 -112 Q243 -123 256.5 -124.5 Q270 -126 277 -126 Q291 -126 303.5 -125 Q316 -124 330 -124 Q339 -124 341.5 -128.5 Q344 -133 344 -135 Q344 -143 340 -144.5 Q336 -146 333 -146 L327 -146 L111 -146 L111 692 L314 692 Z " />
<glyph glyph-name="backslash" unicode="&#x5c;" horiz-adv-x="536" d="M111 689 L487 0 L420 0 L43 689 L111 689 Z " />
<glyph glyph-name="bracketright" unicode="&#x5d;" horiz-adv-x="393" d="M79 -146 Q63 -146 59 -144 Q55 -142 55 -134 Q55 -131 56.5 -128 Q58 -125 63 -124 Q65 -123 67.5 -123.5 Q70 -124 72 -124 L127 -124 Q142 -124 149 -121 Q156 -118 158.5 -110.5 Q161 -103 161 -89 Q161 -75 161 -53 L161 618 Q161 633 161 642 Q161 652 157 658 Q153 664 146 667 Q139 671 131.5 671.5 Q124 672 116 672 Q102 672 89.5 671 Q77 670 63 670 Q58 670 56 671 Q54 672 51.5 675.5 Q49 679 49 681 Q49 690 53.5 691 Q58 692 66 692 L282 692 L282 -146 L79 -146 Z " />
<glyph glyph-name="asciicircum" unicode="&#x5e;" horiz-adv-x="562" d="M345 317 Q290 391 261.5 446.5 Q233 502 222 530 Q206 499 195 478.5 Q184 458 177 445 Q170 432 165.5 425 Q161 418 159 414 Q151 402 143.5 391.5 Q136 381 128 370 Q114 351 104.5 339.5 Q95 328 88.5 322 Q82 316 77.5 314 Q73 312 70 312 Q59 312 59 322 Q59 328 63.5 333 Q68 338 71 341 Q77 347 86 358.5 Q95 370 105.5 384.5 Q116 399 127 415.5 Q138 432 148 450 Q161 474 176 503 Q191 532 204 560.5 Q217 589 227.5 613 Q238 637 244 651 Q255 676 262 691.5 Q269 707 277 707 Q282 707 286.5 700.5 Q291 694 301 671 Q309 653 326.5 619 Q344 585 363.5 548 Q383 511 402 477 Q421 443 432 425 Q446 401 465 373 Q484 345 504 317 L345 317 Z " />
<glyph glyph-name="underscore" unicode="&#x5f;" horiz-adv-x="510" d="M500 -94 L500 -160 L9 -160 L9 -94 L500 -94 Z " />
<glyph glyph-name="grave" unicode="&#x60;" horiz-adv-x="500" d="M257 659 L314 510 Q316 505 316 504 Q316 500 312 500 Q308 500 304 503.5 Q300 507 295 512 L130 659 L257 659 Z " />
<glyph glyph-name="a" unicode="a" horiz-adv-x="444" d="M255 221 Q235 219 221 212.5 Q207 206 198 199 Q175 182 166.5 162 Q158 142 158 116 Q158 104 160.5 89.5 Q163 75 169 64 Q177 49 188 45 Q199 41 206 41 Q220 41 231.5 50.5 Q243 60 249 81 Q251 91 253 108.5 Q255 126 255 167 L255 221 Z M255 255 Q255 268 254.5 281 Q254 294 254 307 Q253 328 252.5 347.5 Q252 367 247 383 Q245 390 240.5 399 Q236 408 228 415.5 Q220 423 207.5 428 Q195 433 176 433 Q158 433 146 428.5 Q134 424 124 415 Q116 408 109.5 398 Q103 388 103 380 Q103 371 107.5 369 Q112 367 117 366 Q123 365 131 363.5 Q139 362 147 357 Q158 349 160.5 338.5 Q163 328 163 322 Q163 296 148 283 Q133 270 111 270 Q82 270 63.5 288.5 Q45 307 45 334 Q45 352 55 371.5 Q65 391 88 410 Q114 432 142 438.5 Q170 445 206 445 Q248 445 280 439 Q312 433 336 416 Q357 401 368 378 Q376 359 377.5 339.5 Q379 320 379 300 L379 125 Q379 96 379 81 Q379 66 382 55 Q389 29 409 29 Q417 29 423.5 32.5 Q430 36 435 40 Q444 46 451 53 L454 56 Q457 59 459 59 Q464 59 464 53 Q464 48 459 42.5 Q454 37 448 31 Q443 27 433 19.5 Q423 12 409 5 Q390 -4 374 -6 Q358 -8 339 -8 Q328 -8 311.5 -5.5 Q295 -3 282 9 Q271 20 265.5 38 Q260 56 258 70 Q250 54 238 39 Q226 24 207 10 Q192 -1 175 -6.5 Q158 -12 137 -12 Q115 -12 98 -5 Q81 1 68 13 Q52 27 45.5 44 Q39 61 39 83 Q39 127 61.5 153 Q84 179 109 193 Q138 210 175.5 221.5 Q213 233 255 234 L255 255 Z " />
<glyph glyph-name="b" unicode="b" horiz-adv-x="522" d="M188 156 Q188 118 189.5 93.5 Q191 69 194 54 Q197 39 200.5 31 Q204 23 207 19 Q215 9 225 5 Q236 1 251 1 Q265 1 282 6 Q299 11 314 33 Q322 44 326 55.5 Q330 67 333 79 Q342 114 344 150.5 Q346 187 346 222 Q346 257 343.5 288 Q341 319 333 349 Q330 361 325 373 Q320 385 312 395.5 Q304 406 292 412.5 Q280 419 263 419 Q245 419 227 408.5 Q209 398 199 378 Q196 372 194.5 365.5 Q193 359 191 352 Q189 340 188.5 328 Q188 316 188 303 L188 156 Z M188 390 Q211 425 241 435 Q271 445 297 445 Q343 445 379.5 428 Q416 411 442 382 Q468 353 482 313.5 Q496 274 496 229 Q496 205 491 178.5 Q486 152 474.5 126.5 Q463 101 443.5 77 Q424 53 396 34 Q367 14 327 0.5 Q287 -13 252 -13 Q231 -13 213 -8 Q195 -3 181 2 Q170 6 156 10.5 Q142 15 128 15 Q121 15 112.5 13.5 Q104 12 96 9 Q83 4 76 -2.5 Q69 -9 63 -9 Q55 -9 55 0 Q55 10 55 19 L55 620 Q55 628 55 636 Q55 645 48 652 Q39 661 27 662 Q15 663 4 662.5 Q-7 662 -14 662 Q-22 662 -22 669 Q-22 679 -10 679 Q2 679 27.5 678.5 Q53 678 92 681 Q131 684 185 701 Q186 689 187 673.5 Q188 658 188 647 L188 390 Z " />
<glyph glyph-name="c" unicode="c" horiz-adv-x="408" d="M397 95 Q398 95 400 94.5 Q402 94 402 89 Q402 78 387.5 60 Q373 42 357 28 Q349 21 335.5 12.5 Q322 4 311 -1 Q291 -9 271.5 -11 Q252 -13 245 -13 Q197 -13 157 4 Q117 21 88 50 Q58 80 41 121 Q24 162 24 208 Q24 258 44 304 Q60 344 91 376 Q123 409 164 427 Q205 445 259 445 Q282 445 309.5 439.5 Q337 434 363 416 Q386 399 396 379.5 Q406 360 406 342 Q406 325 399.5 312.5 Q393 300 382 294 Q370 288 356 288 Q330 288 316.5 301.5 Q303 315 303 334 Q303 342 305.5 349 Q308 356 310 364 Q312 370 314 376 Q316 382 316 387 Q316 402 302.5 417.5 Q289 433 266 433 Q243 433 222 414.5 Q201 396 190 358 Q182 331 178.5 294 Q175 257 175 224 Q175 179 180.5 149.5 Q186 120 194 100 Q201 80 215 64 Q233 43 255 34.5 Q277 26 294 26 Q314 26 332 36 Q336 38 339.5 40.5 Q343 43 347 46 Q353 51 361 58.5 Q369 66 380 78 Q387 86 390.5 90.5 Q394 95 397 95 Z " />
<glyph glyph-name="d" unicode="d" horiz-adv-x="523" d="M335 327 Q335 344 332.5 362 Q330 380 320 394 Q312 405 299 413.5 Q286 422 267 422 Q238 422 221 404 Q204 386 195 366 Q188 351 184 336 Q180 321 178 305 Q174 282 172.5 259.5 Q171 237 171 214 Q171 154 178.5 118.5 Q186 83 195 63 Q209 31 228.5 20.5 Q248 10 264 10 Q275 10 286 14.5 Q297 19 311 32 Q319 39 323.5 46.5 Q328 54 330.5 62.5 Q333 71 334 82 Q335 93 335 109 L335 327 Z M336 576 Q336 597 335 610 Q334 623 332.5 631 Q331 639 329 643 Q327 647 325 649 Q317 658 298.5 659.5 Q280 661 263 660 Q261 660 255 660.5 Q249 661 249 667 Q249 671 255 673 Q261 675 269 675 Q277 675 286 675 Q296 675 302 675 Q320 676 332 677 Q344 678 354.5 679.5 Q365 681 375 683.5 Q385 686 399 690 Q422 696 433 700.5 Q444 705 451 705 Q462 705 463.5 690 Q465 675 465 631 L465 58 Q465 48 469 37 Q473 26 493 26 Q497 26 500 26.5 Q503 27 507 27 Q515 27 517.5 24 Q520 21 520 19 Q520 14 515 13 Q510 12 506 12 Q495 12 486 12.5 Q477 13 467 13 Q442 13 422.5 9.5 Q403 6 380 -1 Q359 -8 354 -10.5 Q349 -13 345 -13 Q337 -13 336 -2 Q335 9 333 20 Q333 22 332.5 25 Q332 28 332 30 Q319 16 305 7.5 Q291 -1 277 -5.5 Q263 -10 250.5 -11.5 Q238 -13 228 -13 Q193 -13 159.5 -1.5 Q126 10 97 36 Q67 63 45.5 108.5 Q24 154 24 218 Q24 245 28.5 271 Q33 297 44 322 Q70 384 121.5 414 Q173 444 235 444 Q244 444 256.5 443 Q269 442 282.5 437.5 Q296 433 310 423.5 Q324 414 336 398 L336 576 Z " />
<glyph glyph-name="e" unicode="e" horiz-adv-x="442" d="M301 296 Q303 322 300 351.5 Q297 381 291 400 Q286 414 278 423.5 Q270 433 251 433 Q227 433 214.5 418.5 Q202 404 196 391 Q188 372 183 348 Q181 335 179.5 322.5 Q178 310 178 296 L301 296 Z M288 280 Q262 280 246 279.5 Q230 279 219 279 Q208 279 198 279 Q189 279 176 279 Q173 253 173 225 Q173 184 177 150.5 Q181 117 196 88 Q201 78 207.5 69 Q214 60 222 52 Q243 32 264.5 27.5 Q286 23 293 23 Q309 23 331.5 30.5 Q354 38 378 62 Q391 75 399 88 Q405 99 410.5 112.5 Q416 126 421 128 Q425 130 427 128 Q428 127 428 124 Q428 113 421.5 98 Q415 83 407 72 Q380 32 341 10 Q301 -13 248 -13 Q182 -13 132.5 17 Q83 47 57 92 Q40 120 32 151.5 Q24 183 24 215 Q24 284 56 338 Q88 392 140 419 Q165 432 192.5 438 Q220 444 249 444 Q297 444 328.5 429.5 Q360 415 378 396 Q393 380 408 352 Q423 324 424 284 Q410 283 398.5 282.5 Q387 282 372 281.5 Q357 281 337.5 280.5 Q318 280 288 280 Z " />
<glyph glyph-name="f" unicode="f" horiz-adv-x="294" d="M287 433 Q290 433 294.5 432 Q299 431 299 425 Q299 417 290 416.5 Q281 416 273 416 L216 416 L216 58 Q216 46 216.5 35.5 Q217 25 222 20 Q226 17 233.5 16 Q241 15 249 15 Q256 15 263 15.5 Q270 16 277 16 Q282 16 285 15 Q291 13 291 7 Q291 4 290 3 Q288 0 284 -0.5 Q280 -1 278 -1 Q270 -1 265.5 -0.5 Q261 0 252 1 Q243 2 227 2.5 Q211 3 181 3 Q143 3 105 1.5 Q67 0 28 0 Q10 0 10 7 Q10 14 20 14.5 Q30 15 44 16 Q53 16 59 16 Q66 16 70.5 18.5 Q75 21 77.5 28.5 Q80 36 80 52 L80 415 L27 415 Q16 415 14 418 Q12 421 12 424 Q12 431 17.5 432 Q23 433 40 433 L80 433 L80 454 Q80 482 85.5 511.5 Q91 541 100.5 568.5 Q110 596 124 619 Q138 642 156 659 Q172 674 189 683 Q206 692 222.5 696.5 Q239 701 253 702.5 Q267 704 278 704 Q296 704 313 701.5 Q330 699 347 691 Q383 675 394.5 651.5 Q406 628 406 608 Q406 582 389.5 565 Q373 548 347 548 Q323 548 305.5 563 Q288 578 288 604 Q288 615 290.5 622.5 Q293 630 299 639 Q303 646 307.5 653 Q312 660 312 668 Q312 677 304.5 684 Q297 691 283 691 Q271 691 257.5 682 Q244 673 233 650 Q221 625 218.5 597 Q216 569 216 524 L216 433 L287 433 Z " />
<glyph glyph-name="g" unicode="g" horiz-adv-x="497" d="M122 -49 Q111 -62 105 -75 Q94 -99 94 -131 Q94 -148 98 -164 Q102 -180 112 -193 Q124 -210 151 -224.5 Q178 -239 229 -239 Q243 -239 256 -238 Q269 -237 283 -234 Q316 -227 348 -206 Q386 -180 396.5 -152 Q407 -124 407 -104 Q407 -77 396 -62 Q385 -47 370 -40 Q355 -33 340 -31.5 Q325 -30 317 -30 Q292 -30 267 -33 Q242 -36 210 -41 Q203 -42 196 -43 Q189 -44 182 -45 Q171 -47 159.5 -48 Q148 -49 137 -49 L122 -49 Z M237 433 Q192 433 175 384 Q170 372 167 351 Q164 330 164 295 Q164 266 167 236 Q169 216 173.5 197 Q178 178 190 163 Q202 148 215 144 Q228 140 242 140 Q256 140 267 143 Q278 146 289 160 Q300 175 305 202 Q310 229 310 281 Q310 333 304 363 Q298 393 284 410 Q272 425 260 429 Q248 433 237 433 Z M388 393 Q401 411 416 422 Q431 434 445 438 Q459 442 478 442 Q513 442 529.5 424.5 Q546 407 546 380 Q546 356 532 341.5 Q518 327 495 327 Q471 327 459.5 341 Q448 355 448 372 Q448 377 449 380 Q450 382 450.5 384 Q451 386 452 388 Q453 390 454 392.5 Q455 395 455 398 Q455 404 450.5 410 Q446 416 437 416 Q425 416 414.5 405.5 Q404 395 404 383 Q404 372 410.5 362.5 Q417 353 425 331 Q427 327 427.5 323 Q428 319 429 315 Q430 309 430.5 303 Q431 297 431 291 Q431 266 424 246 Q417 226 406.5 210.5 Q396 195 384 184 Q372 173 362 166 Q333 144 302.5 136 Q272 128 227 128 Q206 128 197.5 130 Q189 132 178 135 Q157 141 149 142 Q141 143 139 143 Q121 143 107 131.5 Q93 120 93 103 Q93 98 94 93.5 Q95 89 98 85 Q102 78 110 74.5 Q118 71 126.5 69.5 Q135 68 143 67.5 Q151 67 156 67 Q164 67 171 67 Q179 67 187 68 Q200 69 212.5 70.5 Q225 72 238 74 Q273 79 290 80.5 Q307 82 318 82 Q346 82 371.5 75 Q397 68 416.5 53 Q436 38 447.5 13.5 Q459 -11 459 -46 Q459 -90 441 -129 Q423 -168 388 -197 Q353 -226 301.5 -243 Q250 -260 182 -260 Q124 -260 86 -249 Q48 -238 25.5 -221 Q3 -204 -6 -183 Q-15 -162 -15 -142 Q-15 -120 -7.5 -104 Q0 -88 11.5 -77.5 Q23 -67 37.5 -60.5 Q52 -54 67 -50 Q77 -47 86.5 -45.5 Q96 -44 107 -42 Q82 -34 65 -20 Q48 -6 41 7 Q33 23 33 46 Q33 72 41.5 91.5 Q50 111 72 128 Q96 147 128 155 Q113 162 100 171.5 Q87 181 76 192 Q55 215 45.5 239 Q36 263 36 287 Q36 325 58 360 Q83 399 129.5 422.5 Q176 446 239 446 Q294 446 329.5 431 Q365 416 388 393 Z " />
<glyph glyph-name="h" unicode="h" horiz-adv-x="536" d="M208 374 Q218 390 231 403 Q239 411 247 418 Q255 425 265 430 Q282 439 300.5 442 Q319 445 336 445 Q361 445 379 441.5 Q397 438 410 432 Q423 426 431.5 417.5 Q440 409 447 399 Q464 375 468 349 Q472 323 472 281 L472 48 Q472 38 473 30 Q474 22 478 18 Q484 13 497.5 11.5 Q511 10 524 10 Q526 10 529.5 9 Q533 8 533 3 Q533 -2 529.5 -2.5 Q526 -3 524 -3 Q503 -3 483.5 -2.5 Q464 -2 444 -2 L407 -2 Q385 -2 377 -1.5 Q369 -1 364.5 -0.5 Q360 0 355 0 Q350 0 334 0 Q326 0 317 -0.5 Q308 -1 299 -1 Q289 -1 287 1.5 Q285 4 285 6 Q285 11 287.5 11.5 Q290 12 292 12 Q298 12 303 11.5 Q308 11 313 11 Q324 11 329.5 14 Q335 17 337 20 Q339 24 339.5 33 Q340 42 340 44 L340 272 Q340 301 339.5 320 Q339 339 338 351.5 Q337 364 335 371 Q333 378 331 382 Q326 392 314 400 Q302 408 281 408 Q270 408 252.5 402.5 Q235 397 221 373 Q212 358 211.5 342.5 Q211 327 211 300 L211 27 Q211 22 212 20 Q213 17 216 16 Q220 13 226 13 Q233 12 239 12 Q246 12 253 12 Q259 12 260.5 10 Q262 8 262 6 Q262 1 258.5 0 Q255 -1 252 -1 Q233 -1 218 -0.5 Q203 0 188 0 Q153 0 115.5 -1.5 Q78 -3 24 -3 Q21 -3 17 -2.5 Q13 -2 13 3 Q13 7 15.5 7.5 Q18 8 20 8 Q47 8 59 9.5 Q71 11 74 14 Q77 17 77 22 Q77 25 77.5 30.5 Q78 36 78.5 46.5 Q79 57 79 73 Q79 89 79 115 L79 521 Q79 555 79 577 Q79 600 78.5 613.5 Q78 627 77 634 Q76 641 75 644 Q72 655 62 658.5 Q52 662 32 662 Q12 662 7.5 662.5 Q3 663 3 668 Q3 673 9 674 Q15 675 36 676 Q53 677 78 680 Q103 683 117 685 Q154 692 172.5 699 Q191 706 200 706 Q206 706 207 697.5 Q208 689 208 650 L208 374 Z " />
<glyph glyph-name="i" unicode="i" horiz-adv-x="292" d="M88 638 Q88 665 107.5 684.5 Q127 704 154 704 Q181 704 200.5 684.5 Q220 665 220 638 Q220 620 211 605 Q202 590 187 581 Q172 572 154 572 Q136 572 121 581 Q106 590 97 605 Q88 620 88 638 Z M86 347 Q86 369 84.5 378.5 Q83 388 79 393 Q75 397 65 399 Q60 400 56 400 Q52 400 47 400 L26 400 Q21 400 16.5 400.5 Q12 401 12 407 Q12 412 16 413.5 Q20 415 24 415 Q46 416 62 416 Q79 416 110 420 Q139 424 164 430 Q189 436 215 449 Q218 434 219.5 411.5 Q221 389 221 369 L221 68 Q221 52 221.5 39 Q222 26 228 20 Q233 15 246 14.5 Q259 14 281 13 Q284 13 287.5 12 Q291 11 291 6 Q291 1 287 0 Q283 -1 281 -1 Q264 -1 249 -0.5 Q234 0 218 0 Q199 0 180.5 0.5 Q162 1 142 1 Q119 1 104.5 0.5 Q90 0 78.5 -0.5 Q67 -1 55.5 -1.5 Q44 -2 28 -2 Q24 -2 20.5 -1 Q17 0 17 6 Q17 11 22.5 11.5 Q28 12 42 13 Q56 14 65.5 15 Q75 16 80 21 Q86 27 86 60 L86 347 Z " />
<glyph glyph-name="j" unicode="j" horiz-adv-x="278" d="M81 638 Q81 656 90 671 Q99 686 114 695 Q129 704 147 704 Q174 704 193.5 684.5 Q213 665 213 638 Q213 611 193.5 591.5 Q174 572 147 572 Q120 572 100.5 591.5 Q81 611 81 638 Z M215 48 Q215 -9 211.5 -55.5 Q208 -102 186 -145 Q171 -174 151 -196 Q131 -218 108.5 -232 Q86 -246 62 -253 Q38 -260 17 -260 Q-28 -260 -51 -235.5 Q-74 -211 -74 -182 Q-74 -155 -56.5 -139 Q-39 -123 -13 -123 Q7 -123 20 -131 Q31 -137 38.5 -148.5 Q46 -160 46 -179 Q46 -191 43 -203 Q41 -212 38.5 -217 Q36 -222 36 -230 Q36 -233 38 -236.5 Q40 -240 48 -240 Q56 -240 62.5 -236 Q69 -232 74 -215 Q79 -195 79.5 -175 Q80 -155 80 -129 L80 332 Q80 364 79.5 374.5 Q79 385 77 388 Q73 393 66.5 394 Q60 395 54 395 Q43 395 32 394.5 Q21 394 9 394 Q4 394 -0.5 395 Q-5 396 -5 404 Q-5 409 1 409 Q8 409 22 410 Q44 412 67.5 413.5 Q91 415 122 422 Q158 430 175.5 437.5 Q193 445 203 445 Q208 445 209 442 Q210 439 211 427 Q212 418 212.5 402.5 Q213 387 213.5 370 Q214 353 214.5 337 Q215 321 215 312 L215 48 Z " />
<glyph glyph-name="k" unicode="k" horiz-adv-x="517" d="M308 349 Q323 366 332.5 376.5 Q342 387 347.5 393.5 Q353 400 354.5 403.5 Q356 407 356 409 Q356 415 345.5 415.5 Q335 416 324 416 Q313 415 300 415.5 Q287 416 287 424 Q287 427 288 429 Q290 433 293 433 Q296 433 299 433 Q305 433 316 432.5 Q327 432 338 432 Q350 432 360 431.5 Q370 431 375 431 Q395 431 415.5 432 Q436 433 459 433 Q462 433 466.5 432.5 Q471 432 471 427 Q471 421 464.5 420.5 Q458 420 453 420 Q445 420 434 419.5 Q423 419 418 418 Q408 416 402 413 Q396 410 386 401 Q375 391 367.5 383 Q360 375 351.5 366 Q343 357 333 345.5 Q323 334 307 317 L491 40 Q495 34 498.5 28 Q502 22 508 19 Q513 16 521.5 15 Q530 14 535 14 Q539 14 547 13.5 Q555 13 555 6 Q555 1 549.5 0 Q544 -1 540 -1 Q535 -1 517.5 -0.5 Q500 0 479 0 Q458 0 438 0.5 Q418 1 409 1 Q403 1 388.5 0.5 Q374 0 357 0 Q341 0 326 -0.5 Q311 -1 304 -1 Q301 -1 295.5 -0.5 Q290 0 290 6 Q290 11 294 12 Q298 13 304 13 Q310 13 316.5 13.5 Q323 14 328 17 Q331 18 332 21 Q334 25 334 27 Q334 29 332 33 Q326 44 320.5 54.5 Q315 65 308 76 L238 190 Q233 198 228.5 206.5 Q224 215 211 232 L211 49 Q211 39 212 31 Q213 23 217 18 Q221 13 224 13 Q228 13 232 13 Q238 13 243 13.5 Q248 14 254 14 Q256 14 260.5 13 Q265 12 265 6 Q265 0 261.5 -1 Q258 -2 253 -2 Q231 -2 208 -1 Q185 0 147 0 Q116 0 86 -0.5 Q56 -1 24 -1 Q10 -1 10 6 Q10 13 17 13.5 Q24 14 36 14 Q42 14 55.5 15 Q69 16 74 21 Q79 26 78.5 32.5 Q78 39 78 48 L78 597 Q78 614 76.5 626.5 Q75 639 69 645 Q65 649 55 651 Q45 653 23 653 Q16 653 10 653.5 Q4 654 4 661 Q4 667 9.5 668 Q15 669 19 669 Q42 669 66 671 Q90 673 101 675 Q130 679 148.5 684 Q167 689 179 695 Q190 700 193.5 702 Q197 704 199 704 Q203 704 205 697.5 Q207 691 207.5 682 Q208 673 208 664 Q208 655 208 650 Q207 599 209 564 Q211 529 211 509 L211 246 Q229 260 241 274 Q253 288 263 299 L308 349 Z " />
<glyph glyph-name="l" unicode="l" horiz-adv-x="282" d="M78 607 Q78 640 72 647 Q67 652 55.5 653 Q44 654 16 654 Q11 654 8 655 Q5 656 5 661 Q5 665 6 666 Q8 668 31 670 Q45 671 59 672 Q73 673 87 675 Q100 677 112 679 Q124 681 136 683 Q157 687 174 691.5 Q191 696 213 704 L213 60 Q213 39 214.5 31.5 Q216 24 218 22 Q222 16 227 15 Q232 14 237 14 Q246 14 254 14.5 Q262 15 271 15 Q278 15 281 13 Q284 11 284 7 Q284 -1 273 -1 Q263 -1 250 -1 Q239 -1 229 -0.5 Q219 0 195 1 Q182 2 169 2 Q156 2 143 2 Q131 2 120.5 1.5 Q110 1 96.5 0.5 Q83 0 65.5 -0.5 Q48 -1 23 -1 Q19 -1 14 0 Q9 1 9 6 Q9 11 13 12 Q17 13 19 13 Q45 14 56 14 Q67 14 73 21 Q74 22 76 28 Q78 34 78 57 L78 607 Z " />
<glyph glyph-name="m" unicode="m" horiz-adv-x="801" d="M213 372 Q229 398 248.5 413 Q268 428 287.5 435.5 Q307 443 324 444.5 Q341 446 353 446 Q370 446 390.5 442 Q411 438 430 425 Q450 411 458 395 Q466 379 468 365 Q481 392 499.5 408 Q518 424 537.5 432.5 Q557 441 576.5 443 Q596 445 611 445 Q642 445 670 436 Q698 427 718 396 Q732 373 734.5 351 Q737 329 737 305 L737 38 Q737 35 738 27 Q739 19 744 15 Q748 12 756 12 Q766 11 774 10.5 Q782 10 792 10 Q794 10 798 9.5 Q802 9 802 4 Q802 -2 795.5 -2.5 Q789 -3 781 -3 Q769 -3 748 -2.5 Q727 -2 705 -2 Q683 -2 663.5 -1.5 Q644 -1 635 -1 Q617 -1 600 -1.5 Q583 -2 560 -2 Q555 -2 552.5 -1.5 Q550 -1 550 4 Q550 8 552.5 8.5 Q555 9 566 10 Q577 11 584 11.5 Q591 12 596 15 Q601 18 601.5 21.5 Q602 25 602 28 L602 302 Q602 313 602 323 Q602 334 601 345 Q600 361 595 375 Q592 383 582.5 393.5 Q573 404 545 404 Q519 404 508 395 Q497 386 492 379 Q487 372 482 363 Q478 354 476.5 339.5 Q475 325 475 296 L475 39 L475 30 Q476 13 486 11.5 Q496 10 518 10 Q520 10 523.5 9.5 Q527 9 527 4 Q527 2 525 -0.5 Q523 -3 514 -3 Q507 -3 501 -2.5 Q495 -2 488 -2 Q454 0 419.5 -1 Q385 -2 351 -1 Q344 -1 335 -1.5 Q326 -2 317 -2 Q309 -2 303 -0.5 Q297 1 297 6 Q297 11 302 11.5 Q307 12 310 12 Q315 12 324 12 Q333 12 338 14 Q339 14 341.5 16.5 Q344 19 344 27 L344 313 Q344 346 341.5 361 Q339 376 334 384 Q325 398 309 402 Q298 405 288 405 Q261 405 244 391 Q240 388 237 384.5 Q234 381 231 377 Q223 366 221 357 Q219 348 218 335 Q217 324 217 313 Q217 302 217 291 L217 47 Q217 40 217 30 Q217 21 222 17 Q224 15 230.5 14 Q237 13 242 13 L250 13 L265 13 Q270 13 272 12 Q275 9 275 7 Q275 2 272 1 Q270 0 264 0 Q255 0 247 0.5 Q239 1 231 1 Q202 1 172 0 Q142 -1 113 -2 Q105 -2 97 -2.5 Q89 -3 81 -3 Q69 -3 57 -3.5 Q45 -4 32 -4 Q28 -4 22.5 -3.5 Q17 -3 17 4 Q17 7 18.5 9 Q20 11 28 11 Q33 11 38.5 10.5 Q44 10 49 10 Q59 10 71 15 Q73 16 73.5 16.5 Q74 17 76 18 Q80 21 82.5 28 Q85 35 85 53 L85 60 L85 225 Q85 230 85 253 Q85 276 84.5 302.5 Q84 329 83 350.5 Q82 372 81 374 Q77 381 60.5 382 Q44 383 35 383 L19 383 Q15 383 10 383.5 Q5 384 5 390 Q5 396 10 397 Q15 398 18 398 Q59 398 101 407 Q143 416 178 433 Q191 439 197 443 Q203 447 208 447 Q210 447 212 445 Q214 443 214 435 Q214 427 213.5 425.5 Q213 424 213 414 L213 372 Z " />
<glyph glyph-name="n" unicode="n" horiz-adv-x="543" d="M85 337 Q85 344 85 353 Q85 362 83 369 Q81 375 79 377 Q74 382 67 383 Q60 384 54 384 Q46 384 37.5 383.5 Q29 383 21 383 Q6 383 6 388 L6 390 Q6 393 7.5 395.5 Q9 398 18 398 Q47 398 82.5 404 Q118 410 143 419 Q160 425 170 430 Q180 435 186.5 439.5 Q193 444 197.5 446.5 Q202 449 208 449 Q213 449 215 443 Q216 440 216 433 L215 375 Q232 401 256 418 Q279 434 300.5 439.5 Q322 445 349 445 Q387 445 417 433 Q447 421 463 385 Q474 360 476.5 329 Q479 298 479 266 L479 48 Q479 40 479 32 Q479 25 484 20 Q487 17 495 15 Q500 14 508 14 Q517 14 525 14 Q533 14 538.5 12.5 Q544 11 544 6 Q544 0 537.5 -1 Q531 -2 527 -2 Q501 -2 461.5 -1 Q422 0 391 0 Q370 0 350 -0.5 Q330 -1 306 -1 Q302 -1 296.5 0 Q291 1 291 7 Q291 12 294.5 13 Q298 14 302 14 L318 14 Q329 14 337.5 17 Q346 20 346 40 L346 286 Q346 301 346 315 Q346 330 344 345 Q343 355 341 366 Q339 377 332 386 Q323 398 307 402 Q297 404 291 404 Q259 404 238.5 385 Q218 366 218 337 L218 75 Q218 66 218 56 Q218 47 219 38 Q219 30 221 26 Q224 18 231.5 17 Q239 16 247 15 Q251 15 254 14.5 Q257 14 260 14 Q264 14 266 13 Q268 11 268 8 Q268 0 257 0 Q246 0 234 0 L185 0 Q174 0 168 0 Q162 0 158 0 Q154 0 150.5 -0.5 Q147 -1 141 -1 Q124 -2 106 -2 Q89 -2 72 -2 Q62 -2 52.5 -2.5 Q43 -3 34 -3 Q29 -3 24 -2.5 Q19 -2 17 0 Q16 1 16 4 Q16 14 27.5 11.5 Q39 9 64 14 Q67 15 71.5 16 Q76 17 78 19 Q85 24 85 38 L85 337 Z " />
<glyph glyph-name="o" unicode="o" horiz-adv-x="508" d="M258 432 Q241 432 229 424.5 Q217 417 208.5 406 Q200 395 194.5 381.5 Q189 368 186 356 Q178 327 175 299 Q172 271 172 237 Q172 203 174.5 171 Q177 139 181 110 Q186 75 194.5 54 Q203 33 213.5 21 Q224 9 236 5 Q248 1 259 1 Q278 1 290 9 Q302 17 309 29.5 Q316 42 319.5 57.5 Q323 73 325 88 Q328 114 330.5 142.5 Q333 171 333 203 Q333 220 332.5 241.5 Q332 263 330.5 284 Q329 305 327 324 Q325 343 322 356 Q317 380 309.5 395 Q302 410 293 418.5 Q284 427 274.5 429.5 Q265 432 258 432 Z M256 445 Q301 445 342.5 428 Q384 411 416 379 Q446 349 465 306 Q484 263 484 209 Q484 166 470 130 Q456 94 423 60 Q381 17 336.5 2 Q292 -13 255 -13 Q208 -13 165 5.5 Q122 24 88 59 Q49 99 36.5 140.5 Q24 182 24 214 Q24 265 46 312 Q65 351 94 379 Q129 413 171 429 Q213 445 256 445 Z " />
<glyph glyph-name="p" unicode="p" horiz-adv-x="534" d="M201 130 Q201 110 201.5 96.5 Q202 83 203.5 73.5 Q205 64 208 57 Q211 50 217 43 Q233 22 249 15.5 Q265 9 279 9 Q294 9 308.5 15.5 Q323 22 334 41 Q344 59 350 90.5 Q356 122 359 148 Q361 169 362 190 Q363 211 363 232 Q363 261 360.5 291.5 Q358 322 349 351 Q341 374 331.5 387.5 Q322 401 311.5 408.5 Q301 416 291.5 418 Q282 420 275 420 Q255 420 238 407.5 Q221 395 213 384 Q203 370 202 358 Q201 346 201 327 L201 130 Z M201 -186 Q201 -198 201 -208 Q201 -218 206 -225 Q208 -229 210.5 -229.5 Q213 -230 218 -231 Q226 -232 241.5 -233 Q257 -234 262 -234 L274 -234 Q276 -234 279.5 -235.5 Q283 -237 283 -242 Q283 -250 274 -250 L263 -250 Q259 -250 255.5 -249.5 Q252 -249 248 -249 L246 -249 L141 -249 Q130 -249 124.5 -248.5 Q119 -248 102 -250 L83 -250 L17 -250 Q8 -250 1 -249.5 Q-6 -249 -6 -242 Q-6 -237 -1 -236 Q4 -235 7 -235 L36 -235 Q41 -235 51 -234 Q61 -233 65 -228 Q68 -223 68 -213 Q68 -203 68 -198 L68 361 Q68 366 67 373 Q66 380 60 385 Q52 392 18 392 L-1 392 Q-3 392 -6 392.5 Q-9 393 -9 398 Q-9 405 -1 405 Q1 405 2.5 404.5 Q4 404 7 404 L31 405 Q59 407 100.5 415 Q142 423 189 444 Q191 442 192 439 Q193 436 194 428 L197 386 Q203 394 209.5 401 Q216 408 224 415 Q234 424 249 432 Q267 441 284.5 443 Q302 445 313 445 Q353 445 387.5 430.5 Q422 416 446 392 Q478 360 494 314 Q510 268 510 224 Q510 172 490 121 Q482 102 472.5 84.5 Q463 67 449 52 Q422 21 385.5 4 Q349 -13 308 -13 Q283 -13 265 -8 Q247 -3 234 5 Q221 13 213 22 Q205 31 201 39 L201 -186 Z " />
<glyph glyph-name="q" unicode="q" horiz-adv-x="516" d="M333 299 L333 340 Q333 360 331 380 Q329 400 320 413 Q315 421 304 427 Q293 433 273 433 Q230 433 206 402 Q198 392 192 378 Q186 364 181.5 343 Q177 322 174.5 291.5 Q172 261 172 219 Q172 166 177.5 131.5 Q183 97 190 75.5 Q197 54 204 44 Q211 34 215 31 Q224 23 236 17.5 Q248 12 260 12 Q271 12 289.5 19.5 Q308 27 322 51 Q325 56 327 63 Q329 70 330.5 87 Q332 104 332.5 134.5 Q333 165 333 218 L333 299 Z M333 35 Q303 3 275.5 -4.5 Q248 -12 229 -12 Q179 -12 145 5.5 Q111 23 88 46 Q55 80 39.5 123 Q24 166 24 210 Q24 263 43 306 Q62 349 89 377 Q119 407 165.5 426 Q212 445 269 445 Q290 445 305 442.5 Q320 440 336 435 Q349 431 357 428.5 Q365 426 370.5 424.5 Q376 423 381.5 422.5 Q387 422 395 422 Q401 422 407 422.5 Q413 423 419 424 Q436 426 442 430.5 Q448 435 455 440 Q459 443 461 443 Q465 443 465 431 Q465 419 465 411 L465 -192 Q465 -200 466 -211.5 Q467 -223 472 -228 Q477 -233 487 -233.5 Q497 -234 511 -235 Q521 -236 531 -235.5 Q541 -235 541 -243 Q541 -248 537 -249 Q533 -250 528 -250 Q516 -250 488 -249.5 Q460 -249 427.5 -248.5 Q395 -248 364.5 -247.5 Q334 -247 317 -247 Q301 -247 292.5 -247.5 Q284 -248 278 -248 Q273 -248 268 -248.5 Q263 -249 256 -249 Q254 -249 250.5 -248.5 Q247 -248 247 -243 Q247 -237 251.5 -235.5 Q256 -234 259 -234 Q288 -232 304 -232 Q321 -232 326 -227 Q331 -222 332 -207.5 Q333 -193 333 -176 L333 35 Z " />
<glyph glyph-name="r" unicode="r" horiz-adv-x="399" d="M216 356 Q221 371 229 386.5 Q237 402 248 415 Q260 429 276 437 Q292 445 316 445 Q350 445 371.5 424 Q393 403 393 371 Q393 341 375.5 323 Q358 305 332 305 Q324 305 314.5 307.5 Q305 310 297 316 Q289 322 283.5 332 Q278 342 278 358 Q278 368 280 372 Q281 375 285 381 Q294 392 294 396 Q294 399 291.5 402 Q289 405 281 405 Q268 405 259.5 397.5 Q251 390 244 381 Q227 357 223 329 Q219 301 219 259 L219 54 Q219 46 220.5 36.5 Q222 27 227 22 Q232 17 237.5 16 Q243 15 247 15 Q255 15 262.5 14.5 Q270 14 278 14 Q290 13 293 12.5 Q296 12 296 7 Q296 3 295 2 Q293 -1 287 -1 Q263 -1 240.5 -0.5 Q218 0 195 0 Q178 0 160.5 -0.5 Q143 -1 126 -1 Q106 -1 87 -0.5 Q68 0 48 -2 Q42 -3 36 -3 Q31 -3 25 -3 Q23 -3 18.5 -2 Q14 -1 14 4 Q14 9 18.5 10 Q23 11 28 11 Q44 12 58 12.5 Q72 13 79 20 Q84 25 85 32 Q86 39 86 47 L86 64 L86 334 Q86 362 79.5 375.5 Q73 389 53 394 Q46 396 35.5 397 Q25 398 17 398 Q12 398 6 399 Q0 400 0 406 Q0 410 4 412 Q6 413 11 413 Q21 413 25.5 412.5 Q30 412 45 412 Q62 412 80.5 413 Q99 414 118 417 Q138 420 164 428 Q190 436 211 444 Q212 441 213 435 Q214 429 215 425 Q216 419 216 412 Q216 406 216 398 L216 356 Z " />
<glyph glyph-name="s" unicode="s" horiz-adv-x="354" d="M306 329 Q306 326 305 322.5 Q304 319 300 319 Q296 319 294.5 322.5 Q293 326 292 329 Q284 353 277 366.5 Q270 380 265 387 Q249 407 228 418 Q202 430 174 430 Q142 430 127 418 Q112 406 106 396 Q98 382 98 365 Q98 354 101.5 345.5 Q105 337 109 332 Q118 320 135.5 312 Q153 304 186 291 Q228 275 260.5 260.5 Q293 246 315 220 Q331 201 336 182 Q341 163 341 142 Q341 114 331.5 81 Q322 48 291 21 Q269 2 244 -5 Q222 -12 194 -12 Q171 -12 153.5 -7 Q136 -2 118 4 Q101 10 91.5 13.5 Q82 17 72 17 Q59 17 53.5 12 Q48 7 46 2 Q43 -3 42 -7 Q41 -11 37 -11 Q34 -11 32.5 -8.5 Q31 -6 31 -4 Q31 2 32 8 Q33 14 34 21 Q35 24 35.5 33 Q36 42 36 74 Q36 88 35.5 100.5 Q35 113 35 127 Q35 136 37 138.5 Q39 141 40 141 Q45 141 46.5 135 Q48 129 49 124 Q55 96 72 69 Q93 38 126 20 Q159 2 194 2 Q232 2 250 25.5 Q268 49 268 76 Q268 92 262.5 102.5 Q257 113 249 120 Q239 129 226.5 134 Q214 139 201 144 L174 153 Q145 163 122 174 Q99 185 81 199 Q58 218 45 243 Q32 268 32 303 Q32 331 41.5 356.5 Q51 382 70 402 Q91 425 118.5 435 Q146 445 172 445 Q186 445 198.5 442.5 Q211 440 222 437 Q238 433 246 431 Q254 429 259 429 Q264 429 268.5 430 Q273 431 277 434 Q282 438 285.5 444.5 Q289 451 291 455 Q292 457 293 459 Q294 461 296 461 Q301 461 302 455 Q303 452 303 447 Q303 438 302.5 434 Q302 430 302 427 Q302 425 301.5 421 Q301 417 301 408 Q301 385 302 376 Q303 367 303.5 361.5 Q304 356 305 350 Q306 344 306 329 Z " />
<glyph glyph-name="t" unicode="t" horiz-adv-x="316" d="M206 397 Q206 382 206 355 Q206 329 206.5 297.5 Q207 266 207.5 232 Q208 198 208.5 168.5 Q209 139 210 116 Q211 93 213 83 Q218 53 234 39 Q250 25 268 25 Q286 25 300 36 Q314 47 323 55 Q331 62 335 65.5 Q339 69 342 69 Q346 69 346 63 Q346 57 341.5 51 Q337 45 327 35 Q307 16 274 2 Q241 -12 192 -12 Q149 -12 124.5 -1 Q100 10 88 27 Q78 42 76 57 Q74 72 74 86 L74 393 Q74 396 73 403 Q72 410 69 413 Q65 417 52 417 Q40 417 20 417 Q17 417 12.5 418.5 Q8 420 8 425 Q8 430 14 431.5 Q20 433 25 433 Q52 435 79 446.5 Q106 458 129 477 Q149 494 162 510.5 Q175 527 183 538 Q185 540 188.5 544.5 Q192 549 195 549 Q200 549 200 542 Q202 517 201 499 Q200 481 203 455 Q204 451 204.5 447.5 Q205 444 207 442 Q210 439 217 437 Q224 435 232 434.5 Q240 434 248 433.5 Q256 433 261 433 Q275 433 285 433.5 Q295 434 304 435 Q307 435 309.5 435.5 Q312 436 315 437 Q316 437 317 437.5 Q318 438 319 438 Q323 438 323.5 436 Q324 434 324 432 Q324 419 314.5 418 Q305 417 289 417 L220 417 L218 417 Q216 417 213 417.5 Q210 418 208 418 L206 418 L206 397 Z " />
<glyph glyph-name="u" unicode="u" horiz-adv-x="543" d="M472 109 L472 78 Q472 53 477.5 48 Q483 43 489 42 Q493 41 497.5 40.5 Q502 40 508 40 L545 40 Q549 40 552.5 39 Q556 38 556 32 Q556 28 554 26 Q551 23 542 23 Q525 23 505 22 Q485 21 465.5 19.5 Q446 18 428.5 15.5 Q411 13 398 10 Q389 8 383 6 Q377 4 372 1.5 Q367 -1 362 -4.5 Q357 -8 349 -12 Q345 -14 344 -14 Q338 -14 338 -6 L340 37 L339 53 Q316 27 286 9 Q268 -2 249 -7.5 Q230 -13 202 -13 Q191 -13 181 -12 Q171 -11 161 -8 Q144 -3 126.5 6.5 Q109 16 98 29 Q80 49 77 75 Q74 101 74 125 L74 385 Q74 399 72 403.5 Q70 408 69 410 Q64 416 53 416.5 Q42 417 32 418 Q9 420 7 423 Q6 424 6 426 Q6 433 13 433.5 Q20 434 22 434 Q31 434 40 433.5 Q49 433 58 432 Q71 431 84 431 Q97 431 110 431 Q128 431 138 431 Q148 431 156 431.5 Q164 432 171.5 432.5 Q179 433 193 433 L212 433 L212 325 Q212 312 211.5 299.5 Q211 287 211 274 Q210 245 209.5 217 Q209 189 209 160 Q209 109 213 85.5 Q217 62 222 51 Q229 37 240 30.5 Q251 24 265 24 Q283 24 301 37 Q319 50 327 61 Q330 65 332 69.5 Q334 74 336 79 Q339 89 339 102 Q339 116 339 140 L339 337 Q339 352 339 371 Q339 390 337 400 Q335 413 330.5 416 Q326 419 312 419 L284 419 Q280 419 275 420 Q270 421 270 426 Q270 433 274 433 Q278 433 285 433 L473 434 Q473 422 473 416 Q473 410 473 406 Q473 403 472.5 399.5 Q472 396 472 387 L472 109 Z " />
<glyph glyph-name="v" unicode="v" horiz-adv-x="412" d="M44 369 Q44 370 41.5 375 Q39 380 36.5 386 Q34 392 31.5 397.5 Q29 403 28 405 Q23 412 16 414.5 Q9 417 1 417.5 Q-7 418 -14.5 417.5 Q-22 417 -27 419 Q-29 420 -31 421 Q-33 422 -33 426 Q-33 433 -27.5 433.5 Q-22 434 -20 434 Q-13 434 -7 433.5 Q-1 433 11 432.5 Q23 432 44 431.5 Q65 431 103 431 Q136 431 154.5 431.5 Q173 432 184 432.5 Q195 433 201.5 433.5 Q208 434 217 434 Q228 434 230 431 Q232 428 232 427 Q232 423 226.5 422 Q221 421 217 421 Q200 420 194.5 419.5 Q189 419 188 419 Q184 418 180 416 Q176 414 176 407 Q176 404 178 398 Q180 392 185 373 Q191 354 201 326 Q211 298 223 267 Q235 236 247 205.5 Q259 175 268 153 Q275 171 283.5 195 Q292 219 301 243.5 Q310 268 318 291 Q326 314 331 330 Q338 353 342.5 367 Q347 381 349.5 388.5 Q352 396 352.5 399.5 Q353 403 353 405 Q353 411 345.5 415.5 Q338 420 302 420 Q299 420 294 421 Q289 422 289 427 Q289 430 293 432 Q296 433 303 433 Q323 433 341.5 432.5 Q360 432 380 432 Q396 432 405.5 432.5 Q415 433 420 433 Q425 433 428 433.5 Q431 434 435 434 Q437 434 440.5 433 Q444 432 444 427 Q444 421 435.5 420.5 Q427 420 421 420 Q413 419 403.5 418.5 Q394 418 386 411 Q381 406 375 396.5 Q369 387 360 362 L232 9 Q230 3 225.5 -5.5 Q221 -14 213 -14 Q208 -14 202.5 -7 Q197 0 192.5 9 Q188 18 184.5 27 Q181 36 179 41 L44 369 Z " />
<glyph glyph-name="w" unicode="w" horiz-adv-x="595" d="M473 173 Q480 191 489 214.5 Q498 238 507 262 Q516 286 523.5 308.5 Q531 331 536 348 Q539 357 541.5 365.5 Q544 374 546 383 Q548 388 549 393.5 Q550 399 550 404 Q550 410 546 413 Q540 417 530 417.5 Q520 418 510 418 Q500 418 492.5 419 Q485 420 485 426 Q485 431 489.5 432 Q494 433 496 433 Q508 433 520 432.5 Q532 432 544 432 Q564 432 584.5 432.5 Q605 433 627 433 Q629 433 632.5 432 Q636 431 636 426 Q636 419 631 418.5 Q626 418 618 418 Q595 417 588 413 Q581 409 576 398 Q574 394 573 391 Q572 388 570 384 Q565 371 559.5 358.5 Q554 346 549 332 L434 1 Q432 -5 430 -11.5 Q428 -18 422 -18 Q420 -18 416 -15 Q412 -12 409 -4 L305 265 L211 5 Q209 0 206 -8.5 Q203 -17 196 -17 Q190 -17 183.5 -3.5 Q177 10 171 29 Q165 48 159 68 Q153 88 148 100 L36 382 Q34 389 28.5 398.5 Q23 408 20 411 Q15 417 9.5 418 Q4 419 -1 419 L-18 419 Q-36 419 -36 426 Q-36 428 -34.5 431 Q-33 434 -19 434 Q-4 434 3 433.5 Q10 433 16 432.5 Q22 432 31.5 431.5 Q41 431 61 431 Q100 431 123.5 431.5 Q147 432 162.5 432.5 Q178 433 189 433.5 Q200 434 214 434 Q223 434 225.5 432 Q228 430 228 428 Q228 422 218 421.5 Q208 421 203 421 Q187 421 178 419 Q169 417 169 405 Q169 403 169.5 398.5 Q170 394 171 392 L250 167 L327 376 Q335 399 342.5 417.5 Q350 436 358 436 Q365 436 371 421 Q377 406 390 375 L473 173 Z " />
<glyph glyph-name="x" unicode="x" horiz-adv-x="462" d="M384 71 Q391 60 398 49 Q405 38 416 29 Q427 21 437.5 17 Q448 13 457 13 Q461 13 464.5 13.5 Q468 14 472 14 Q482 14 482 7 Q482 1 477 0.5 Q472 0 469 0 L462 0 Q445 0 427 0.5 Q409 1 392 1 Q378 1 364 0.5 Q350 0 336 0 L298 0 Q287 0 274 0 Q261 0 248.5 -0.5 Q236 -1 226 -1 Q216 -1 213 -1 Q204 -1 201 2 Q198 5 198 7 Q198 13 202.5 13.5 Q207 14 212 14 L239 14 Q255 14 258.5 17.5 Q262 21 262 24 Q262 29 260 34.5 Q258 40 256 42 L182 180 L83 40 Q75 28 75 24 Q75 18 80 16 Q83 14 90 14 L107 14 L110 14 Q116 14 122.5 14.5 Q129 15 135 15 Q143 15 145 12.5 Q147 10 147 7 Q147 3 145 1 Q143 -1 135 -1 Q114 -1 101 -1 Q88 -1 76.5 -0.5 Q65 0 52 0 Q39 0 18 0 L-10 0 Q-16 0 -18 2.5 Q-20 5 -20 7 Q-20 11 -17 13 Q-14 15 -11 15 Q-9 15 -8 14.5 Q-7 14 -5 14 L-3 14 L7 14 Q23 14 37 22 Q45 27 54.5 36.5 Q64 46 71 56 L173 198 L61 392 Q58 397 54 402 Q50 407 43 411 Q37 415 30 416 Q23 417 17 417 Q11 418 0 418 Q-12 418 -12 425 Q-12 427 -10 430 Q-8 433 3 433 Q8 433 14 432.5 Q20 432 25 432 L30 432 L33 432 Q54 432 74.5 431.5 Q95 431 116 431 Q126 431 144 431.5 Q162 432 180 432 Q199 432 216 432.5 Q233 433 241 433 Q246 433 250 432.5 Q254 432 254 426 Q254 421 250.5 420 Q247 419 242 419 Q226 419 218.5 418.5 Q211 418 207 416 Q200 413 200 404 Q200 400 202 395 Q204 390 206 386 L268 278 L341 383 Q344 387 348.5 395.5 Q353 404 353 408 Q353 416 343.5 417 Q334 418 323 419 Q313 420 312 419 Q311 418 303 418 Q294 418 294 426 Q294 431 297.5 432 Q301 433 305 433 Q328 433 337.5 432.5 Q347 432 355 431 L374 431 Q379 431 386 431 Q393 431 405 432 Q419 433 420 433 Q422 433 427 433 L439 433 Q450 433 450 426 Q450 418 439 418 Q436 418 433 418.5 Q430 419 427 419 L425 419 L416 419 Q409 419 402.5 418.5 Q396 418 388 413 Q380 408 375.5 401.5 Q371 395 366 388 L278 260 L384 71 Z " />
<glyph glyph-name="y" unicode="y" horiz-adv-x="432" d="M116 431 Q148 431 164.5 431.5 Q181 432 190 432 Q200 432 207.5 432.5 Q215 433 229 433 Q231 433 236.5 432.5 Q242 432 242 427 Q242 424 239 421 Q236 418 226 418 L201 418 Q193 418 187.5 414.5 Q182 411 182 404 Q182 398 183.5 393 Q185 388 187 383 L282 134 L373 391 Q378 405 373 410 Q368 415 352 415 L320 415 Q309 415 306.5 419 Q304 423 304 425 Q304 426 306 429.5 Q308 433 317 433 Q322 433 327.5 432.5 Q333 432 340 431 Q348 431 359.5 430.5 Q371 430 381 430 Q404 430 422.5 431.5 Q441 433 455 433 Q457 433 461.5 432 Q466 431 466 425 Q466 417 456.5 416.5 Q447 416 436 416 L416 416 Q410 416 407 415 Q404 415 402 413 Q400 411 396 402 L239 -32 L205 -125 Q201 -137 194.5 -151.5 Q188 -166 180.5 -180.5 Q173 -195 164.5 -208 Q156 -221 148 -230 Q120 -260 83 -260 Q51 -260 32 -241.5 Q13 -223 13 -192 Q13 -173 20.5 -162.5 Q28 -152 38 -147.5 Q48 -143 56 -142.5 Q64 -142 66 -142 Q81 -142 89 -148 Q97 -154 103 -165 Q108 -173 114 -182.5 Q120 -192 133 -192 Q147 -192 161 -175 Q171 -164 177.5 -149.5 Q184 -135 189 -121 L221 -32 L56 369 Q50 384 45 394.5 Q40 405 32 410 Q24 415 12 416 Q0 417 -5 417 L-17 417 Q-26 417 -26 425 Q-26 430 -23 431.5 Q-20 433 -18 433 L0 433 Q9 433 18 433 Q27 433 36 432 Q44 432 51 431.5 Q58 431 66 431 L116 431 Z " />
<glyph glyph-name="z" unicode="z" horiz-adv-x="391" d="M230 417 Q223 419 217 419 Q211 419 201 419 Q181 419 152.5 416 Q124 413 101 396 Q78 380 67 355 Q56 330 48 309 Q45 300 42 297 Q39 294 37 294 Q36 294 34 295.5 Q32 297 32 302 Q32 308 34 314 Q36 320 38 332 Q40 348 43.5 363 Q47 378 50 393 Q52 404 53.5 415 Q55 426 57 437 L74 437 Q88 437 103 436.5 Q118 436 132 435 Q152 434 172 434 Q193 434 213 434 Q224 434 244.5 434.5 Q265 435 288 435 Q312 435 333.5 435.5 Q355 436 367 436 Q369 436 372 435 Q375 434 375 428 Q375 423 368.5 410.5 Q362 398 353 382.5 Q344 367 333.5 349.5 Q323 332 316 319 L147 17 Q189 14 215 14 Q250 14 269.5 17.5 Q289 21 307 34 Q316 40 323 47 Q345 67 357.5 94.5 Q370 122 375 137 Q377 145 380 147.5 Q383 150 385 150 Q387 150 389 148.5 Q391 147 391 140 Q391 133 388.5 124.5 Q386 116 381 96 Q379 90 378.5 86.5 Q378 83 377 79 Q376 75 374.5 67.5 Q373 60 370 47 Q369 41 368.5 39 Q368 37 367.5 33.5 Q367 30 365.5 23 Q364 16 361 0 Q329 0 296.5 -0.5 Q264 -1 232 -1 Q188 -1 144 -1 Q101 -1 57 -2 Q49 -2 42 -2 Q35 -2 27 -3 Q23 -3 19.5 -3.5 Q16 -4 12 -4 Q0 -4 0 2 Q0 6 4 12 Q8 18 17 35 L230 417 Z " />
<glyph glyph-name="braceleft" unicode="&#x7b;" horiz-adv-x="423" d="M147 68 Q145 36 144 9 Q144 -26 160.5 -63 Q177 -100 220 -123 Q254 -142 288.5 -144.5 Q323 -147 365 -147 Q377 -147 377 -138 Q377 -130 369 -129.5 Q361 -129 347 -129 Q326 -128 314.5 -124 Q303 -120 294.5 -110 Q286 -100 281.5 -81.5 Q277 -63 277 -34 Q278 20 281 82 Q282 111 275 139 Q262 188 231 216 Q211 233 179.5 247.5 Q148 262 108 268 L108 276 Q148 282 179.5 296.5 Q211 311 231 328 Q262 356 275 405 Q282 433 281 462 Q278 524 277 578 Q277 607 281.5 625.5 Q286 644 294.5 654 Q303 664 314.5 668 Q326 672 347 673 Q361 673 369 673.5 Q377 674 377 682 Q377 691 365 691 Q323 691 288.5 688.5 Q254 686 220 667 Q177 644 160.5 607 Q144 570 144 535 Q145 508 147 476 Q148 453 151 426 Q154 399 155 372 Q155 349 148.5 332 Q142 315 122 301 Q104 289 83 286 Q75 285 69 283.5 Q63 282 63 272 Q63 262 69 260.5 Q75 259 83 258 Q104 255 122 243 Q142 229 148.5 212 Q155 195 155 172 Q154 145 151 118 Q148 91 147 68 Z " />
<glyph glyph-name="bar" unicode="&#x7c;" horiz-adv-x="459" d="M273 692 L273 -173 L186 -173 L186 692 L273 692 Z " />
<glyph glyph-name="braceright" unicode="&#x7d;" horiz-adv-x="423" d="M276 68 Q278 36 279 9 Q279 -26 262.5 -63 Q246 -100 203 -123 Q169 -142 134.5 -144.5 Q100 -147 58 -147 Q46 -147 46 -138 Q46 -130 54 -129.5 Q62 -129 76 -129 Q97 -128 108.5 -124 Q120 -120 128.5 -110 Q137 -100 141.5 -81.5 Q146 -63 146 -34 Q145 20 142 82 Q141 111 148 139 Q161 188 192 216 Q212 233 243.5 247.5 Q275 262 315 268 L315 276 Q275 282 243.5 296.5 Q212 311 192 328 Q161 356 148 405 Q141 433 142 462 Q145 524 146 578 Q146 607 141.5 625.5 Q137 644 128.5 654 Q120 664 108.5 668 Q97 672 76 673 Q62 673 54 673.5 Q46 674 46 682 Q46 691 58 691 Q100 691 134.5 688.5 Q169 686 203 667 Q246 644 262.5 607 Q279 570 279 535 Q278 508 276 476 Q275 453 272 426 Q269 399 268 372 Q268 349 274.5 332 Q281 315 301 301 Q319 289 340 286 Q348 285 354 283.5 Q360 282 360 272 Q360 262 354 260.5 Q348 259 340 258 Q319 255 301 243 Q281 229 274.5 212 Q268 195 268 172 Q269 145 272 118 Q275 91 276 68 Z " />
<glyph glyph-name="asciitilde" unicode="&#x7e;" horiz-adv-x="665" d="M531 761 Q532 762 535 762 Q537 762 539.5 761 Q542 760 542 755 Q542 750 537 740.5 Q532 731 525.5 720.5 Q519 710 511.5 700.5 Q504 691 499 686 Q473 658 447.5 648.5 Q422 639 400 639 Q380 639 361.5 645 Q343 651 317 660 Q285 671 267 676 Q249 681 225 681 Q190 681 173 671 Q164 666 154 656 Q150 652 147.5 648.5 Q145 645 142 640 Q140 637 137.5 633.5 Q135 630 132 630 Q130 630 127 632 Q124 634 124 637 Q124 641 128.5 650 Q133 659 140.5 670.5 Q148 682 157.5 693 Q167 704 176 713 Q195 731 215.5 741.5 Q236 752 264 752 Q270 752 275.5 751.5 Q281 751 287 750 Q300 748 314 743.5 Q328 739 351 731 Q357 729 363 727 Q369 725 375 723 Q389 718 402.5 714.5 Q416 711 433 711 Q455 711 476 717 Q492 721 506 732 Q519 743 521 750 Q523 757 531 761 Z " />
<glyph glyph-name="uni00A0" unicode="&#xa0;" horiz-adv-x="233" d="" />
<glyph glyph-name="currency" unicode="&#xa4;" horiz-adv-x="724" d="M363 147 Q413 147 453 167 Q493 187 521 218.5 Q549 250 564 290 Q579 330 579 371 Q579 410 563.5 449 Q548 488 519.5 518.5 Q491 549 451.5 568 Q412 587 363 587 Q318 587 278.5 570.5 Q239 554 209 525.5 Q179 497 161.5 457.5 Q144 418 144 372 Q144 317 163.5 275 Q183 233 214.5 204.5 Q246 176 285 161.5 Q324 147 363 147 Z M110 666 L201 573 Q244 605 287 616 Q330 627 366 627 Q421 627 458.5 608.5 Q496 590 521 570 L616 666 L651 630 L559 537 Q591 499 606.5 455.5 Q622 412 622 371 Q622 336 609.5 292.5 Q597 249 564 206 L658 112 L623 77 L530 171 Q489 137 444.5 122 Q400 107 358 107 Q320 107 277.5 121 Q235 135 194 167 L102 76 L67 111 L160 201 Q133 238 117 282.5 Q101 327 101 371 Q101 377 102.5 393.5 Q104 410 110.5 433 Q117 456 130 483 Q143 510 166 538 L75 630 L110 666 Z " />
<glyph glyph-name="brokenbar" unicode="&#xa6;" horiz-adv-x="459" d="M273 159 L273 -173 L186 -173 L186 159 L273 159 Z M273 692 L273 332 L186 332 L186 692 L273 692 Z " />
<glyph glyph-name="section" unicode="&#xa7;" horiz-adv-x="562" d="M328 205 Q355 184 392 156 Q400 166 407.5 179 Q415 192 416 210 Q416 221 410.5 235.5 Q405 250 395.5 261 Q386 272 370 286 L262 369 Q213 412 178 440 Q167 423 163 415.5 Q159 408 156.5 401.5 Q154 395 154 385 Q154 359 172 336 Q190 313 231 281 L328 205 Z M402 142 Q414 128 428 100 Q442 72 442 27 Q442 -12 429 -44 Q416 -76 392.5 -99.5 Q369 -123 336.5 -136 Q304 -149 265 -149 Q229 -149 202 -138.5 Q175 -128 157 -111 Q139 -94 129.5 -72.5 Q120 -51 120 -28 Q120 -9 126.5 5.5 Q133 20 143.5 29 Q154 38 166.5 42.5 Q179 47 192 47 Q220 47 236 29 Q252 11 252 -11 Q252 -21 248.5 -28 Q245 -35 241 -40 Q226 -56 176 -66 Q165 -68 162.5 -70 Q160 -72 160 -77 Q160 -87 169.5 -96.5 Q179 -106 193 -114 Q227 -131 261 -131 Q288 -131 309 -120 Q330 -109 344 -85.5 Q358 -62 358 -31 Q358 -6 349 12.5 Q340 31 332 41 Q321 54 310.5 64.5 Q300 75 287 85 Q274 95 258.5 106 Q243 117 223 132 Q193 155 171 174.5 Q149 194 135 214 Q121 234 114.5 256.5 Q108 279 108 309 Q108 337 114 364 Q116 373 125 392.5 Q134 412 144.5 426.5 Q155 441 167 454 Q156 468 147 490 Q138 512 138 546 Q138 582 150 611 Q162 640 184.5 661 Q207 682 238.5 693 Q270 704 309 704 Q342 704 367.5 695 Q393 686 410.5 671 Q428 656 436.5 636 Q445 616 445 594 Q445 562 427 548.5 Q409 535 388 535 Q364 535 346 550 Q328 565 328 588 Q328 601 333.5 609.5 Q339 618 347.5 623 Q356 628 366.5 631 Q377 634 387 636 Q402 639 402 646 Q402 654 391 665 Q380 676 354 683 Q336 688 320 688 Q289 688 264.5 675.5 Q240 663 229.5 644.5 Q219 626 219 603 Q219 586 227.5 565.5 Q236 545 256 526 Q266 517 277 509 Q288 501 307.5 486.5 Q327 472 359 449 Q380 434 401 417 Q422 400 438 372 Q447 356 454 333.5 Q461 311 461 281 Q461 231 441.5 196.5 Q422 162 402 142 Z " />
<glyph glyph-name="dieresis" unicode="&#xa8;" horiz-adv-x="500" d="M340 636 Q364 636 382 618.5 Q400 601 400 575 Q400 549 382.5 531.5 Q365 514 339 514 Q314 514 296 532 Q278 550 278 576 Q278 601 296 618.5 Q314 636 340 636 Z M165 636 Q189 636 206.5 618 Q224 600 224 575 Q224 549 206.5 531.5 Q189 514 163 514 Q138 514 120 532 Q102 550 102 576 Q102 600 120.5 618 Q139 636 165 636 Z " />
<glyph glyph-name="copyright" unicode="&#xa9;" horiz-adv-x="851" d="M576 448 Q576 442 577 432 Q578 422 570 422 Q562 422 560 428.5 Q558 435 557 441 Q554 456 548 470 Q545 478 542 485.5 Q539 493 534 500 Q525 515 506.5 529 Q488 543 456 543 Q429 543 413.5 533 Q398 523 390 510 Q381 497 374 477.5 Q367 458 362.5 435.5 Q358 413 355.5 389.5 Q353 366 353 345 Q353 297 359.5 269.5 Q366 242 371 231 Q382 204 402.5 183 Q423 162 460 162 Q479 162 501 171 Q523 180 542 206 Q554 223 560.5 242 Q567 261 571 275 Q572 277 573.5 281 Q575 285 580 285 Q582 285 585 283.5 Q588 282 588 276 Q588 266 585.5 247 Q583 228 583 202 Q583 185 583.5 176.5 Q584 168 585 163.5 Q586 159 586.5 156.5 Q587 154 587 148 Q587 143 585 142 Q583 141 581 141 Q579 141 577 143 Q575 145 574 147 Q568 156 562.5 163.5 Q557 171 546 175 Q529 161 511 152 Q494 144 479 140.5 Q464 137 444 137 Q391 137 345 161 Q322 173 301.5 191 Q281 209 264.5 233.5 Q248 258 238.5 288 Q229 318 229 353 Q229 398 245.5 437.5 Q262 477 290.5 505.5 Q319 534 358 550.5 Q397 567 442 567 Q472 567 487.5 562 Q503 557 517 549 Q525 545 531.5 542 Q538 539 544 539 Q554 539 557.5 543 Q561 547 565 551 Q570 556 571.5 557.5 Q573 559 574 559 Q578 559 578.5 556.5 Q579 554 579 552 Q579 542 577.5 534.5 Q576 527 576 509 L576 448 Z M424 672 Q381 672 346 662.5 Q311 653 283.5 638.5 Q256 624 236 608.5 Q216 593 204 581 Q173 551 152.5 519 Q132 487 120 455.5 Q108 424 103.5 394.5 Q99 365 99 339 Q99 282 122 223 Q145 164 192 119 Q233 80 293.5 54 Q354 28 426 28 Q504 28 575 62 Q622 86 657 119 Q685 146 703.5 174.5 Q722 203 732.5 231.5 Q743 260 747.5 287 Q752 314 752 338 Q752 379 741 421.5 Q730 464 708 503.5 Q686 543 652.5 577 Q619 611 574 635 Q503 672 424 672 Z M430 705 Q473 705 514.5 694.5 Q556 684 594 664 Q640 640 679 603 Q727 556 757 488.5 Q787 421 787 343 Q787 316 783 289 Q779 262 771 236 Q754 184 725 144 Q696 104 662 77 Q648 66 625.5 52 Q603 38 573 25.5 Q543 13 505.5 4.5 Q468 -4 425 -4 Q385 -4 351 3 Q311 11 268.5 29.5 Q226 48 189 77 Q137 119 100.5 185.5 Q64 252 64 342 Q64 386 74 429 Q84 472 104 511 Q117 537 134.5 559.5 Q152 582 172 602 Q225 653 292 679 Q359 705 430 705 Z " />
<glyph glyph-name="guillemotleft" unicode="&#xab;" horiz-adv-x="416" d="M368 72 Q354 89 327 111.5 Q300 134 257 169 Q230 192 221 198.5 Q212 205 208 209 Q201 215 197.5 218 Q194 221 194 225 Q194 230 197.5 233 Q201 236 204 238 Q217 248 239 267 Q261 286 284 308 Q307 330 327.5 350 Q348 370 359 382 Q368 393 375 393 Q383 393 383 385 Q383 383 379.5 374.5 Q376 366 371.5 356 Q367 346 362 336 Q357 326 354 320 Q349 310 342 297 Q335 284 327.5 270.5 Q320 257 313.5 245 Q307 233 303 226 Q308 217 315 205 Q322 193 328.5 181 Q335 169 341 159 Q347 149 350 143 Q354 135 356.5 130.5 Q359 126 361 122.5 Q363 119 365 115 Q367 111 370 104 Q378 89 381 83.5 Q384 78 384 73 Q384 66 377 66 Q374 66 372 68 Q370 70 368 72 Z M219 405 Q215 396 214 393 Q213 390 212.5 388.5 Q212 387 210.5 383 Q209 379 205 369 Q196 348 181.5 317.5 Q167 287 141 234 Q153 211 167 183.5 Q181 156 192 133 Q202 110 208 97 Q214 84 217 76.5 Q220 69 221 66.5 Q222 64 222 63 Q222 54 215 54 Q214 54 211 55 Q208 56 205 60 Q200 66 193.5 72.5 Q187 79 176.5 90 Q166 101 149.5 117.5 Q133 134 108 158 Q91 175 82 183.5 Q73 192 67.5 196.5 Q62 201 57.5 204.5 Q53 208 46 215 Q41 220 36.5 224.5 Q32 229 32 234 Q32 239 35.5 242 Q39 245 42 247 Q47 250 52 254.5 Q57 259 64.5 266 Q72 273 82.5 284 Q93 295 110 311 Q115 316 126.5 327.5 Q138 339 151 352.5 Q164 366 176.5 379.5 Q189 393 196 402 Q199 406 203 410 Q207 414 213 414 Q220 414 220 409 Q220 406 219 405 Z " />
<glyph glyph-name="logicalnot" unicode="&#xac;" horiz-adv-x="562" d="M497 0 L391 0 L391 205 L58 205 L58 249 L497 249 L497 0 Z " />
<glyph glyph-name="uni00AD" unicode="&#xad;" horiz-adv-x="296" d="M269 176 L235 176 Q151 180 75 176 L27 176 L27 279 L75 279 Q151 276 231 279 L269 279 L269 176 Z " />
<glyph glyph-name="registered" unicode="&#xae;" horiz-adv-x="851" d="M387 378 Q399 377 414.5 380 Q430 383 441 389 Q466 403 472.5 427.5 Q479 452 479 478 Q479 489 477 502.5 Q475 516 468.5 528 Q462 540 448.5 548 Q435 556 411 556 Q403 556 398.5 554 Q394 552 391.5 545 Q389 538 388 523.5 Q387 509 387 484 L387 378 Z M387 184 Q387 179 387.5 175.5 Q388 172 393 168 Q400 162 409 161.5 Q418 161 425.5 161.5 Q433 162 438.5 161.5 Q444 161 444 157 Q444 156 443 154 Q442 152 437 152 Q423 152 410 152.5 Q397 153 384 153 Q373 153 362 152.5 Q351 152 340 152 Q329 152 317 152.5 Q305 153 294 153 Q283 153 272.5 152.5 Q262 152 251 152 Q243 152 242 154 Q241 156 241 158 Q241 161 247 162 Q253 163 261 163 Q270 163 278 164 Q286 165 289 169 Q292 173 292.5 180.5 Q293 188 293 198 L293 507 Q293 521 294 533 Q295 545 287 551 Q278 558 270 558.5 Q262 559 256 558 Q250 557 246 556.5 Q242 556 242 561 Q242 567 253 567.5 Q264 568 300 568 Q336 568 357 568 Q379 568 395 568 Q412 568 427.5 567.5 Q443 567 468 565 Q489 563 508.5 559 Q528 555 548 537 Q558 529 566.5 515 Q575 501 575 478 Q575 471 573 460 Q571 449 565 436.5 Q559 424 546.5 412.5 Q534 401 513 392 Q496 384 472.5 380 Q449 376 432 374 L432 371 Q452 370 475.5 364.5 Q499 359 516 348 Q533 337 541 323 Q549 309 554 297 Q562 274 564.5 250.5 Q567 227 570 207 Q575 175 584.5 166 Q594 157 603 157 Q608 157 613 160 Q615 162 615 163 Q615 165 612.5 165.5 Q610 166 608 168 Q602 174 602 178 Q602 185 607 189 Q612 193 619 193 Q625 193 630 188.5 Q635 184 635 174 Q635 163 629.5 157 Q624 151 617 148 Q610 145 602 144.5 Q594 144 590 144 Q556 144 534.5 154.5 Q513 165 499 179 Q487 191 480.5 202.5 Q474 214 471 226.5 Q468 239 466.5 253 Q465 267 463 285 Q461 305 455.5 324 Q450 343 437 354 Q427 362 412.5 365 Q398 368 387 367 L387 184 Z M422 672 Q357 672 298 645.5 Q239 619 195 573.5 Q151 528 125 467.5 Q99 407 99 339 Q99 274 124.5 217 Q150 160 194 118 Q238 76 298 52 Q358 28 426 28 Q494 28 553.5 52 Q613 76 657 118 Q701 160 726.5 216.5 Q752 273 752 338 Q752 406 726 467 Q700 528 655 573.5 Q610 619 550 645.5 Q490 672 422 672 Z M430 705 Q504 705 569 676.5 Q634 648 682.5 599 Q731 550 759 484 Q787 418 787 343 Q787 298 777 258.5 Q767 219 750 185 Q733 151 710 124 Q687 97 662 77 Q643 62 617.5 47.5 Q592 33 561 21.5 Q530 10 495.5 2.5 Q461 -5 425 -5 Q362 -5 299.5 17 Q237 39 189 77 Q137 119 100.5 185.5 Q64 252 64 342 Q64 418 92.5 484 Q121 550 170.5 599 Q220 648 286.5 676.5 Q353 705 430 705 Z " />
<glyph glyph-name="degree" unicode="&#xb0;" horiz-adv-x="562" d="M284 653 Q249 653 225 629 Q201 605 201 568 Q201 533 223.5 508 Q246 483 282 483 Q318 483 339 507.5 Q360 532 360 571 Q360 593 353.5 609 Q347 625 336 634.5 Q325 644 311.5 648.5 Q298 653 284 653 Z M286 694 Q342 694 377 662 Q412 630 412 574 Q412 540 399.5 515 Q387 490 367.5 474 Q348 458 323.5 450 Q299 442 276 442 Q248 442 225 451.5 Q202 461 185 477.5 Q168 494 158.5 517 Q149 540 149 567 Q149 624 186.5 659 Q224 694 286 694 Z " />
<glyph glyph-name="plusminus" unicode="&#xb1;" horiz-adv-x="562" d="M497 22 L65 22 L65 66 L497 66 L497 22 Z M497 309 L303 309 L303 119 L259 119 L259 309 L65 309 L65 353 L259 353 L259 558 L303 558 L303 353 L497 353 L497 309 Z " />
<glyph glyph-name="acute" unicode="&#xb4;" horiz-adv-x="500" d="M239 512 Q234 507 230 503.5 Q226 500 222 500 Q218 500 218 504 Q218 505 220 510 L277 659 L404 659 L239 512 Z " />
<glyph glyph-name="mu" unicode="&#xb5;" horiz-adv-x="543" d="M472 78 Q472 62 473.5 56.5 Q475 51 476 49 Q479 42 496 42 Q508 41 516.5 40.5 Q525 40 533 40 Q541 40 545 40 Q549 40 552.5 39 Q556 38 556 32 Q556 23 545 22.5 Q534 22 516 22 Q506 22 496 21.5 Q486 21 476 20 Q436 17 410 12.5 Q384 8 368 -1 L353 -10 Q346 -14 344 -14 Q339 -14 338.5 -10 Q338 -6 338 -4 Q338 13 339.5 23 Q341 33 339 53 Q324 31 310 18 Q296 5 283.5 -2 Q271 -9 259 -11 Q247 -13 236 -13 Q222 -13 202.5 -8.5 Q183 -4 160 20 Q164 3 166 -6 Q168 -15 169 -21 Q170 -27 171 -31 Q172 -35 173 -42 Q177 -60 179.5 -70 Q182 -80 187 -97 Q192 -116 194.5 -128.5 Q197 -141 197 -151 Q197 -172 190 -191 Q183 -210 172.5 -223.5 Q162 -237 149 -245 Q136 -253 124 -253 Q107 -253 87 -238.5 Q67 -224 54 -192 Q44 -167 44 -144 Q44 -130 46.5 -115 Q49 -100 54 -73 Q60 -37 67 14.5 Q74 66 74 125 L74 385 Q74 392 74 398.5 Q74 405 68.5 411 Q63 417 52 417 L32 418 Q22 418 14 418.5 Q6 419 6 426 Q6 429 7.5 431 Q9 433 13 433.5 Q17 434 20 434 Q40 434 62.5 432.5 Q85 431 103 431 L140 431 Q152 431 165 432 Q178 433 187 433 Q196 433 211 433 L211 182 Q211 127 212 97.5 Q213 68 222 51 Q227 40 238 32.5 Q249 25 265 25 Q280 25 297.5 35 Q315 45 327 62 Q337 75 338 90 Q339 105 339 140 L339 312 Q339 343 338.5 357 Q338 371 337.5 383 Q337 395 336 403 Q335 411 330.5 415 Q326 419 312 419 L284 419 Q274 419 272 422 Q270 425 270 427 Q270 432 276 432.5 Q282 433 287 433 L350 433 Q381 433 405.5 433.5 Q430 434 455 434 L473 434 Q473 415 472.5 406 Q472 397 472 387 L472 78 Z " />
<glyph glyph-name="paragraph" unicode="&#xb6;" horiz-adv-x="564" d="M316 -117 Q348 -94 372 -63.5 Q396 -33 407 0 Q415 25 418.5 71.5 Q422 118 422 168 L422 669 L356 669 L356 64 Q356 36 351 -8 Q346 -51 342 -62 Q338 -73 334.5 -80.5 Q331 -88 326 -95.5 Q321 -103 311 -111 L316 -117 Z M329 319 Q308 318 281.5 319.5 Q255 321 227 325.5 Q199 330 171 339.5 Q143 349 118 364 Q68 395 42 437.5 Q16 480 16 530 Q16 568 27.5 594 Q39 620 56.5 637 Q74 654 94 663 Q114 672 131 677 Q183 693 230.5 694 Q278 695 329 695 L523 695 Q529 695 535.5 695 Q542 695 544 692.5 Q546 690 546 686 Q546 682 544 679.5 Q542 677 534 677 Q495 676 484.5 675.5 Q474 675 464 672 Q451 666 450.5 653 Q450 640 450 625 L450 175 Q450 132 448.5 86 Q447 40 436 3 Q430 -18 422 -33 Q414 -48 400 -65 Q371 -101 329 -127.5 Q287 -154 224 -154 Q206 -154 187.5 -151 Q169 -148 152 -141 Q114 -126 102 -103.5 Q90 -81 90 -60 Q90 -33 107 -12 Q124 9 159 9 Q192 9 207.5 -9 Q223 -27 223 -50 Q223 -65 214 -76 Q205 -87 179 -96 Q167 -102 167 -107 Q167 -115 183.5 -125.5 Q200 -136 225 -136 Q251 -136 273.5 -123 Q296 -110 308 -88 Q315 -74 319.5 -55.5 Q324 -37 326 -17 Q328 3 328.5 23.5 Q329 44 329 61 L329 319 Z " />
<glyph glyph-name="middot" unicode="&#xb7;" horiz-adv-x="278" d="M141 135 Q171 135 191.5 114 Q212 93 212 62 Q212 31 192 11 Q172 -9 141 -9 Q110 -9 89 11.5 Q68 32 68 62 Q68 93 89 114 Q110 135 141 135 Z " />
<glyph glyph-name="guillemotright" unicode="&#xbb;" horiz-adv-x="416" d="M197 405 Q196 406 196 409 Q196 414 203 414 Q209 414 213 410 Q217 406 220 402 Q227 393 239.5 379.5 Q252 366 265 352.5 Q278 339 289.5 327.5 Q301 316 306 311 Q323 295 333.5 284 Q344 273 351.5 266 Q359 259 364 254.5 Q369 250 374 247 Q377 245 380.5 242 Q384 239 384 234 Q384 229 379.5 224.5 Q375 220 370 215 Q363 208 358.5 204.5 Q354 201 348.5 196.5 Q343 192 334 183.5 Q325 175 308 158 Q283 134 266.5 117.5 Q250 101 239.5 90 Q229 79 222.5 72.5 Q216 66 211 60 Q208 56 205 55 Q202 54 201 54 Q194 54 194 63 Q194 64 195 66.5 Q196 69 199 76.5 Q202 84 208 97 Q214 110 224 133 Q235 156 249 183.5 Q263 211 275 234 Q249 287 234.5 317.5 Q220 348 211 369 Q207 379 205.5 383 Q204 387 203.5 388.5 Q203 390 202 393 Q201 396 197 405 Z M48 72 Q46 70 44 68 Q42 66 39 66 Q32 66 32 73 Q32 78 35 83.5 Q38 89 46 104 Q49 111 51 115 Q53 119 55 122.5 Q57 126 59.5 130.5 Q62 135 66 143 Q69 149 75 159 Q81 169 87.5 181 Q94 193 101 205 Q108 217 113 226 Q109 233 102.5 245 Q96 257 88.5 270.5 Q81 284 74 297 Q67 310 62 320 Q59 326 54 336 Q49 346 44.5 356 Q40 366 36.5 374.5 Q33 383 33 385 Q33 393 41 393 Q48 393 57 382 Q68 370 88.5 350 Q109 330 132 308 Q155 286 177 267 Q199 248 212 238 Q215 236 218.5 233 Q222 230 222 225 Q222 221 218.5 218 Q215 215 208 209 Q204 205 195 198.5 Q186 192 159 169 Q116 134 89 111.5 Q62 89 48 72 Z " />
<glyph glyph-name="dotlessi" unicode="&#x131;" horiz-adv-x="292" d="M86 347 Q86 369 84.5 378.5 Q83 388 79 393 Q75 397 65 399 Q60 400 56 400 Q52 400 47 400 L26 400 Q21 400 16.5 400.5 Q12 401 12 407 Q12 412 16 413.5 Q20 415 24 415 Q46 416 62 416 Q79 416 110 420 Q139 424 164 430 Q189 436 215 449 Q218 434 219.5 411.5 Q221 389 221 369 L221 68 Q221 52 221.5 39 Q222 26 228 20 Q233 15 246 14.5 Q259 14 281 13 Q284 13 287.5 12 Q291 11 291 6 Q291 1 287 0 Q283 -1 281 -1 Q264 -1 249 -0.5 Q234 0 218 0 Q199 0 180.5 0.5 Q162 1 142 1 Q119 1 104.5 0.5 Q90 0 78.5 -0.5 Q67 -1 55.5 -1.5 Q44 -2 28 -2 Q24 -2 20.5 -1 Q17 0 17 6 Q17 11 22.5 11.5 Q28 12 42 13 Q56 14 65.5 15 Q75 16 80 21 Q86 27 86 60 L86 347 Z " />
<glyph glyph-name="uni0401" unicode="&#x401;" horiz-adv-x="602" d="M249 375 L299 375 Q369 375 394 396 Q411 410 417 432 Q423 454 426 476 Q426 480 426.5 486 Q427 492 428.5 498 Q430 504 432 508 Q434 512 438 513 L441 513 Q444 513 447 510 Q450 507 450 492 Q450 482 449.5 472.5 Q449 463 448 453 Q447 445 447 437 Q447 429 447 421 Q446 373 446 340 Q446 307 447 284.5 Q448 262 448.5 248 Q449 234 449 224 Q449 222 448 217.5 Q447 213 441 213 Q431 213 429 225 Q427 237 425 250 Q419 286 414 307 Q409 328 398 339 Q386 350 364 353 Q342 356 317 356 L249 356 L249 19 L383 20 Q408 20 442.5 23 Q477 26 505 47 Q520 58 528 70.5 Q536 83 537 85 Q544 99 551 127 Q558 155 560 175 Q560 177 562 183.5 Q564 190 569 190 Q572 190 574 188 Q577 185 577.5 180.5 Q578 176 578 171 Q578 157 577.5 144.5 Q577 132 577 119 Q577 110 577 100 Q577 91 576.5 77.5 Q576 64 575.5 43.5 Q575 23 575 -7 Q538 -7 513 -6 Q488 -5 467 -4.5 Q446 -4 423.5 -3 Q401 -2 368.5 -1.5 Q336 -1 289 -0.5 Q242 0 171 0 Q149 0 125 -0.5 Q101 -1 79 -1 Q58 -1 41 -1.5 Q24 -2 15 -2 Q4 -2 4 6 Q4 13 12 13 L45 16 Q53 17 59.5 18 Q66 19 73 21 Q86 25 91 31 Q98 39 98.5 50.5 Q99 62 99 72 L99 629 Q99 639 98 649.5 Q97 660 90 666 Q87 669 79 671 Q71 673 51 673 L30 673 Q27 673 23.5 674.5 Q20 676 20 682 Q20 690 24.5 691 Q29 692 36 692 L73 692 Q90 692 119 692 Q149 692 194 693 Q236 694 276.5 694.5 Q317 695 359 695 Q386 695 412.5 694.5 Q439 694 466 694 Q480 694 493 694 Q506 694 520 695 Q527 695 533 695.5 Q539 696 547 698 Q549 667 550.5 647.5 Q552 628 553 616 Q554 604 555 598.5 Q556 593 556 589 Q558 574 559.5 559 Q561 544 561 528 Q561 525 560 520 Q559 515 553 515 Q544 515 542 522 Q540 529 538 540 Q531 569 521.5 594 Q512 619 485 639 Q464 655 429.5 664 Q395 673 342 673 Q325 673 305.5 672.5 Q286 672 249 670 L249 375 Z M413 871 Q437 871 455 853.5 Q473 836 473 810 Q473 784 455.5 766.5 Q438 749 412 749 Q387 749 369 767 Q351 785 351 811 Q351 836 369 853.5 Q387 871 413 871 Z M215 871 Q239 871 256.5 853 Q274 835 274 810 Q274 784 256.5 766.5 Q239 749 213 749 Q188 749 170 767 Q152 785 152 811 Q152 835 170.5 853 Q189 871 215 871 Z " />
<glyph glyph-name="uni0402" unicode="&#x402;" horiz-adv-x="765" d="M351 80 Q351 57 352 39 Q353 21 357 0 Q292 0 253 0 Q214 0 191 -0.5 Q168 -1 155.5 -1.5 Q143 -2 130 -2 Q121 -2 117.5 1 Q114 4 114 6 Q114 8 115 11 Q116 14 124 15 L160 17 Q165 17 177.5 19 Q190 21 196 29 Q198 31 199.5 38 Q201 45 201 62 L201 668 Q186 670 166 669.5 Q146 669 126.5 664.5 Q107 660 89.5 650.5 Q72 641 60 625 Q47 608 40 580 Q33 552 23 508 Q21 502 19 496.5 Q17 491 9 491 Q2 491 1 494.5 Q0 498 0 501 Q0 508 0.5 517 Q1 526 3 544 Q6 582 8 605.5 Q10 629 11 644 Q12 659 13 669.5 Q14 680 14 692 Q76 692 114 692 Q153 692 188 691 Q216 690 242 689.5 Q268 689 310 689 Q335 689 369 689 Q403 689 436 689.5 Q469 690 496.5 690.5 Q524 691 536 691 Q544 691 550.5 691.5 Q557 692 565 693 Q566 667 567.5 642.5 Q569 618 573 589 L581 525 Q583 510 581.5 504 Q580 498 575 498 Q567 498 564 506.5 Q561 515 559 520 Q545 570 534.5 598 Q524 626 506 642 Q484 661 455.5 665.5 Q427 670 398 670 Q382 670 372 670 Q362 670 351 668 L351 378 Q384 395 414 400.5 Q444 406 478 406 Q549 406 592 387.5 Q635 369 658 349 Q687 324 705 287 Q723 250 723 198 Q723 116 669 55 Q640 23 603 5 Q566 -13 514 -13 Q491 -13 470 -7 Q449 -1 430 16 Q417 28 408.5 44.5 Q400 61 400 79 Q400 105 415 119 Q430 133 450 133 Q473 133 483.5 118 Q494 103 494 88 Q494 77 490 70.5 Q486 64 482 61 Q476 56 473 55 Q470 54 465 49 Q458 42 458 35 Q458 24 469.5 14 Q481 4 498 4 Q522 4 533 19 Q544 34 549 50 Q551 58 553.5 69 Q556 80 558 96.5 Q560 113 561 136 Q562 159 562 191 Q562 210 560.5 231.5 Q559 253 554 274.5 Q549 296 539 316 Q529 336 511 351 Q500 361 481.5 369.5 Q463 378 437 378 Q414 378 391.5 372 Q369 366 351 356 L351 80 Z " />
<glyph glyph-name="uni0403" unicode="&#x403;" horiz-adv-x="543" d="M322 16 Q325 16 332 15 Q339 14 339 8 Q339 6 337 2 Q334 -1 324 -1 Q283 -1 266 0 Q249 1 239 1 Q211 2 184 2 Q157 2 130 2 Q85 2 63 1.5 Q41 1 30 -1 Q26 -1 23 -1.5 Q20 -2 16 -2 Q9 -2 6 2 Q4 6 4 8 Q4 13 7.5 14.5 Q11 16 16 16 L38 17 Q52 18 67.5 22.5 Q83 27 88 38 Q91 44 91 51 Q91 59 91 67 L91 652 Q91 657 88.5 661 Q86 665 83 668 Q78 672 69.5 674.5 Q61 677 42 678 Q31 679 22 679 Q13 679 13 686 Q13 695 20.5 696 Q28 697 33 697 L52 697 Q58 697 65 697 Q73 697 95 696 Q119 694 126 694 Q134 694 142 694 L325 694 Q367 694 401 694 Q436 694 468 695 Q475 695 481.5 695.5 Q488 696 495 696 Q503 697 510 697 Q517 697 526 699 Q527 684 528 668.5 Q529 653 530 638 Q531 623 532 607.5 Q533 592 535 577 L542 507 Q543 494 532 494 Q525 494 522.5 501 Q520 508 516 520 Q502 561 486 596.5 Q470 632 443 649 Q420 663 379 666 Q338 669 285 669 L242 669 L242 75 Q242 47 246 38 Q250 29 252 27 Q255 24 265 20 Q275 16 301 16 L322 16 Z M260 747 Q255 742 251 738.5 Q247 735 243 735 Q239 735 239 739 Q240 742 241 745 L298 894 L425 894 L260 747 Z " />
<glyph glyph-name="uni0404" unicode="&#x404;" horiz-adv-x="645" d="M316 339 Q286 355 268 362 Q250 369 237 369 Q230 369 220.5 366.5 Q211 364 204 360 Q202 331 203.5 295 Q205 259 212 222 Q219 185 231 150 Q243 115 261 88 Q278 62 299 46.5 Q320 31 341 22.5 Q362 14 381 11 Q400 8 413 8 Q439 8 461 17 Q483 26 500.5 40 Q518 54 531.5 70.5 Q545 87 553 102 Q567 129 576 157 Q585 185 590 214 Q592 225 594.5 231.5 Q597 238 603 238 Q610 238 611.5 233 Q613 228 613 223 Q613 218 612.5 212 Q612 206 611 196 Q611 188 610 172 Q609 156 608.5 139 Q608 122 607.5 106.5 Q607 91 607 85 Q607 58 609 42.5 Q611 27 611 10 Q611 4 609.5 -1.5 Q608 -7 603 -7 Q598 -7 594.5 -2 Q591 3 589 8 Q581 26 576 36 Q571 46 561 51 Q550 43 534.5 32 Q519 21 499 10 Q476 -2 457.5 -7 Q439 -12 410 -12 Q388 -12 355.5 -9 Q323 -6 285 5 Q247 16 207.5 36.5 Q168 57 132 92 Q115 108 97.5 131 Q80 154 65.5 185 Q51 216 41.5 256 Q32 296 32 346 Q32 429 56 495 Q80 561 125 606 Q152 633 184 652 Q216 671 251 682.5 Q286 694 322 699.5 Q358 705 391 705 Q440 705 468.5 691 Q497 677 522 662 Q544 649 555 649 Q562 649 564.5 652.5 Q567 656 572 665 Q581 683 584.5 688 Q588 693 593 693 Q601 693 601 686 Q601 684 600.5 681 Q600 678 599 672 Q598 665 596 654 Q594 643 592.5 624.5 Q591 606 589.5 577.5 Q588 549 588 507 Q588 481 587 474 Q586 467 577 467 Q570 467 568 471 Q566 475 564 486 Q560 512 556 540.5 Q552 569 531 607 Q523 621 514 631 Q505 641 490 652 Q467 669 442 677 Q417 685 388 685 Q366 685 335.5 675.5 Q305 666 276 631 Q259 611 246.5 585.5 Q234 560 226 534 Q215 499 210 458 Q205 417 205 382 Q228 396 260 409 Q292 422 326 422 Q343 422 366.5 417 Q390 412 404 404 L475 367 Q494 357 505 351 Q516 345 529 345 Q540 345 547.5 348.5 Q555 352 560 356 Q566 361 570.5 364 Q575 367 579 367 Q583 367 586 363.5 Q589 360 589 355 Q589 347 580 342 Q571 337 563 334 L515 313 Q499 306 476 300 Q453 294 432 294 Q419 294 403.5 297.5 Q388 301 379 306 L316 339 Z " />
<glyph glyph-name="uni0405" unicode="&#x405;" horiz-adv-x="496" d="M411 706 Q414 706 417.5 704 Q421 702 421 693 Q421 688 420.5 684 Q420 680 419 672 Q419 664 418 645.5 Q417 627 417 608 Q417 587 418 577 Q419 567 419.5 560.5 Q420 554 421 548 Q422 542 422 531 Q422 525 419 523.5 Q416 522 414 522 Q406 522 402.5 533 Q399 544 397 552 Q395 563 390 573 Q385 583 380 593 Q369 612 353.5 632 Q338 652 319 663 Q309 669 292 675 Q275 681 249 681 Q226 681 204 675.5 Q182 670 165 658 Q148 646 137.5 626.5 Q127 607 127 580 Q127 566 130.5 552.5 Q134 539 146 522 Q161 501 190 480 Q219 459 277 427 Q293 418 312.5 407 Q332 396 351.5 383.5 Q371 371 389 357.5 Q407 344 420 331 Q445 305 458 269.5 Q471 234 471 196 Q471 158 457 120.5 Q443 83 414 53.5 Q385 24 341 5.5 Q297 -13 238 -13 Q219 -13 204 -11.5 Q189 -10 175.5 -7 Q162 -4 149 0 Q136 4 121 10 Q104 16 93.5 20.5 Q83 25 76.5 27 Q70 29 66.5 30 Q63 31 60 31 Q54 31 50 28 Q46 26 42 18 Q35 4 34 -4 Q33 -12 29 -15 Q28 -16 26 -16 Q24 -16 21 -13 Q18 -10 18 -2 Q18 9 22.5 37.5 Q27 66 27 115 Q27 126 26.5 133.5 Q26 141 25.5 149 Q25 157 24.5 166.5 Q24 176 24 192 Q24 195 25 202 Q26 209 34 209 Q43 209 45.5 196 Q48 183 52 166 Q59 137 72.5 106.5 Q86 76 115 51 Q134 34 164 20.5 Q194 7 229 7 Q259 7 282.5 17 Q306 27 322.5 44 Q339 61 348 82.5 Q357 104 357 128 Q357 150 349.5 165.5 Q342 181 333 191 Q316 209 282.5 227 Q249 245 217 262 Q154 295 121 322 Q88 349 69 378 Q57 396 50 414.5 Q43 433 39 450 Q35 467 34 481 Q33 495 33 504 Q33 549 50 585.5 Q67 622 96.5 648.5 Q126 675 166.5 689 Q207 703 254 703 Q275 703 298.5 698.5 Q322 694 355 679 Q368 673 372 672.5 Q376 672 382 671 Q384 671 385.5 670.5 Q387 670 389 671 Q397 673 398.5 681.5 Q400 690 402 697 Q404 704 405.5 705 Q407 706 411 706 Z " />
<glyph glyph-name="uni0406" unicode="&#x406;" horiz-adv-x="336" d="M92 596 Q92 631 92 645 Q92 660 84 667 Q80 671 71 673 Q62 675 41 675 L29 675 Q18 675 15.5 677.5 Q13 680 13 682 Q13 686 16.5 688.5 Q20 691 35 691 Q76 691 115 690 Q154 689 194 689 Q228 689 244.5 689.5 Q261 690 269.5 690.5 Q278 691 283.5 691.5 Q289 692 302 692 Q307 692 313 691 Q319 690 319 684 Q319 675 308 675 Q298 675 284 674 Q276 673 268.5 672.5 Q261 672 255 669 Q250 667 246.5 661.5 Q243 656 243 642 L243 77 Q243 62 244 49 Q245 36 250 29 Q257 21 272.5 19 Q288 17 317 15 Q326 15 326 8 Q326 1 321 0 Q318 -1 312 -1 Q298 -1 270.5 1 Q243 3 195 3 Q172 3 148 2.5 Q124 2 101 1 Q81 0 61.5 -0.5 Q42 -1 22 -1 Q18 -1 14 -0.5 Q10 0 8 3 Q7 4 7 8 Q7 13 10 14 Q16 16 23.5 15 Q31 14 47 16 Q58 17 69 19.5 Q80 22 86 32 Q88 36 90 44.5 Q92 53 92 71 L92 596 Z " />
<glyph glyph-name="uni0407" unicode="&#x407;" horiz-adv-x="336" d="M92 596 Q92 631 92 645 Q92 660 84 667 Q80 671 71 673 Q62 675 41 675 L29 675 Q18 675 15.5 677.5 Q13 680 13 682 Q13 686 16.5 688.5 Q20 691 35 691 Q76 691 115 690 Q154 689 194 689 Q228 689 244.5 689.5 Q261 690 269.5 690.5 Q278 691 283.5 691.5 Q289 692 302 692 Q307 692 313 691 Q319 690 319 684 Q319 675 308 675 Q298 675 284 674 Q276 673 268.5 672.5 Q261 672 255 669 Q250 667 246.5 661.5 Q243 656 243 642 L243 77 Q243 62 244 49 Q245 36 250 29 Q257 21 272.5 19 Q288 17 317 15 Q326 15 326 8 Q326 1 321 0 Q318 -1 312 -1 Q298 -1 270.5 1 Q243 3 195 3 Q172 3 148 2.5 Q124 2 101 1 Q81 0 61.5 -0.5 Q42 -1 22 -1 Q18 -1 14 -0.5 Q10 0 8 3 Q7 4 7 8 Q7 13 10 14 Q16 16 23.5 15 Q31 14 47 16 Q58 17 69 19.5 Q80 22 86 32 Q88 36 90 44.5 Q92 53 92 71 L92 596 Z M253 871 Q277 871 295 853.5 Q313 836 313 810 Q313 784 295.5 766.5 Q278 749 252 749 Q227 749 209 767 Q191 785 191 811 Q191 836 209 853.5 Q227 871 253 871 Z M78 871 Q102 871 119.5 853 Q137 835 137 810 Q137 784 119.5 766.5 Q102 749 76 749 Q51 749 33 767 Q15 785 15 811 Q15 835 33.5 853 Q52 871 78 871 Z " />
<glyph glyph-name="uni0408" unicode="&#x408;" horiz-adv-x="419" d="M179 597 Q179 626 178 641 Q177 656 169 664 Q159 672 145 672 Q132 672 116 674 Q112 674 109 674.5 Q106 675 101 675 Q97 675 93 675 Q89 675 87 677 Q85 679 85 683 Q85 691 92 691.5 Q99 692 102 692 Q122 692 141 691.5 Q160 691 179 691 Q230 691 280.5 692 Q331 693 390 693 Q396 693 401 692 Q406 691 406 683 Q406 679 405 678 Q403 675 399 674.5 Q395 674 393 674 Q388 674 382 674.5 Q376 675 371 675 Q346 675 338.5 670.5 Q331 666 329 663 Q327 659 327 655 Q326 649 326 643 Q326 637 326 630 L326 155 Q326 116 325 90.5 Q324 65 323 49 Q322 33 320 24 Q318 15 317 9 Q312 -9 301.5 -25 Q291 -41 278.5 -53.5 Q266 -66 253 -76 Q240 -86 229 -93 Q209 -107 187 -117 Q152 -133 112 -133 Q59 -133 33 -106.5 Q7 -80 7 -46 Q7 -17 26.5 3 Q46 23 76 23 Q103 23 120 6.5 Q137 -10 137 -39 Q137 -54 131.5 -65 Q126 -76 116 -91 Q110 -99 110 -105 Q110 -108 112 -110 Q114 -113 119 -114.5 Q124 -116 128 -116 Q145 -116 154 -106 Q163 -96 167 -87 Q172 -76 175.5 -60.5 Q179 -45 179 -21 L179 597 Z " />
<glyph glyph-name="uni0409" unicode="&#x409;" horiz-adv-x="949" d="M561 44 Q561 36 568.5 28.5 Q576 21 608 21 Q664 21 692.5 41.5 Q721 62 736 94 Q750 124 753.5 153 Q757 182 757 205 Q757 240 749.5 279 Q742 318 710 350 Q679 380 641.5 384 Q604 388 561 383 L561 44 Z M396 667 Q389 642 382 618.5 Q375 595 368 570.5 Q361 546 353.5 518.5 Q346 491 337 458 Q326 419 317 386 Q308 353 298.5 322 Q289 291 278 258.5 Q267 226 253 188 Q230 125 209 87 Q188 49 162 26 Q142 9 118 -1 Q94 -11 70 -11 Q40 -11 20 3 Q8 11 -2 26 Q-12 41 -12 64 Q-12 94 7 116 Q18 127 31 133 Q44 139 58 139 Q85 139 99.5 120 Q114 101 114 81 Q114 64 104 52 Q98 44 92 40.5 Q86 37 86 32 Q86 30 87.5 26.5 Q89 23 97 23 Q113 23 131 36.5 Q149 50 160 64 Q164 69 173.5 83 Q183 97 197 126.5 Q211 156 230 204.5 Q249 253 272 328 Q277 346 288 383 Q299 420 311.5 463.5 Q324 507 335.5 550 Q347 593 353 623 Q355 637 356 641 Q357 645 357 647 Q357 667 345.5 671 Q334 675 323 675 Q315 675 309 674.5 Q303 674 296 674 Q287 673 278 673 Q269 673 258 673 Q252 673 246 674.5 Q240 676 240 684 Q240 694 245.5 695 Q251 696 258 696 Q270 696 276 696 Q282 696 290 696 Q298 696 311.5 695 Q325 694 351 693 Q368 692 376 692 Q384 692 389 692 L495 692 Q497 692 501 692 Q505 692 511 693 Q525 695 529.5 696.5 Q534 698 542 698 Q563 698 563 678 Q563 673 562.5 668.5 Q562 664 561 652 L561 632 L561 407 Q598 409 635.5 410 Q673 411 709 406.5 Q745 402 778.5 391 Q812 380 841 359 Q854 349 868 335 Q882 321 892.5 302.5 Q903 284 910 259.5 Q917 235 917 205 Q917 148 894 109.5 Q871 71 829 45 Q803 29 777 20 Q751 11 724.5 6.5 Q698 2 671 1 Q644 0 617 0 Q581 0 545.5 1 Q510 2 474 2 Q442 2 426.5 1.5 Q411 1 400 0.5 Q389 0 377 -0.5 Q365 -1 341 -1 Q338 -1 332.5 0 Q327 1 327 7 Q327 12 331 13 Q335 14 338 15 Q343 16 349 16.5 Q355 17 360 17 Q368 17 374 17 Q381 17 389 19 Q401 21 406 27.5 Q411 34 411 55 L411 667 L396 667 Z " />
<glyph glyph-name="uni040A" unicode="&#x40a;" horiz-adv-x="1019" d="M635 44 Q635 36 642.5 28.5 Q650 21 682 21 Q738 21 766.5 41.5 Q795 62 810 94 Q823 120 827 147.5 Q831 175 831 200 Q831 215 829.5 233 Q828 251 823 269 Q818 287 808.5 304.5 Q799 322 784 337 Q753 367 715.5 371 Q678 375 635 370 L635 44 Z M243 370 L243 102 Q243 74 244 57 Q245 40 250 32 Q258 21 275 18.5 Q292 16 307 15 Q312 15 316.5 14.5 Q321 14 324 10 Q326 8 326 5 Q326 0 322.5 -0.5 Q319 -1 317 -1 Q309 -1 302.5 -0.5 Q296 0 288 0 L283 0 L200 3 Q194 3 179 3 Q165 3 133 1 Q95 -1 72 -1.5 Q49 -2 20 -2 Q10 -2 7 2 Q5 4 5 7 Q5 13 10 14 Q15 15 19 15 Q25 15 35 16 Q45 17 56 19 Q67 21 76 24 Q85 27 88 30 Q92 35 92 46 Q92 57 92 80 L92 641 Q92 646 91 653.5 Q90 661 82 667 Q74 673 54 675 Q34 677 20 677 Q13 677 10 679 Q7 682 7 686 Q7 688 9 690 Q15 695 26 695 Q33 695 39 694 Q45 693 52 691 Q55 690 61 690 L66 690 L208 689 L213 689 Q222 689 231.5 689.5 Q241 690 250 690 Q264 691 278.5 691.5 Q293 692 307 692 Q313 692 320 691 Q327 690 327 682 Q327 672 317 672 L281 671 Q277 671 274 670.5 Q271 670 267 669 Q258 667 253 662 Q246 655 244.5 642.5 Q243 630 243 617 L243 394 L484 394 L484 605 Q484 619 481 635.5 Q478 652 470 661 Q462 670 451.5 671.5 Q441 673 433 673 L414 673 Q405 673 402 676 Q401 677 401 677 Q401 678 400 679 Q399 680 399 683 Q399 690 404 691 Q409 692 411 692 Q420 692 428 692 Q437 692 445 691 Q448 691 451.5 690.5 Q455 690 458 690 Q466 689 469 689 Q473 689 478 689 L634 689 L638 689 Q658 689 677.5 690.5 Q697 692 718 692 Q720 692 723.5 691.5 Q727 691 727 686 Q727 678 712.5 677.5 Q698 677 685 676 Q672 675 662.5 672.5 Q653 670 647 664 Q637 654 636 634.5 Q635 615 635 598 L635 394 Q677 397 710 397 Q743 397 769.5 394.5 Q796 392 817.5 387.5 Q839 383 858 376 Q873 371 887.5 363.5 Q902 356 915 346 Q956 317 973.5 277.5 Q991 238 991 198 Q991 181 987.5 161.5 Q984 142 974.5 122 Q965 102 948 82 Q931 62 903 45 Q866 22 820 11 Q788 3 755 1.5 Q722 0 689 0 Q659 0 629 0.5 Q599 1 568 1 Q551 1 529 0.5 Q507 0 485 0 Q463 0 445 -0.5 Q427 -1 417 -1 Q412 -1 406.5 0 Q401 1 401 7 Q401 13 406 14 Q411 15 415 15 Q424 15 441 18 Q458 21 468 26 Q480 32 482 42 Q484 52 484 64 L484 370 L243 370 Z " />
<glyph glyph-name="uni040B" unicode="&#x40b;" horiz-adv-x="796" d="M562 254 Q562 288 552.5 310.5 Q543 333 531 345 Q520 356 500 364.5 Q480 373 447 373 Q424 373 399 368 Q374 363 351 355 L351 63 Q351 44 353 36.5 Q355 29 357 27 Q363 19 382 19 L411 19 Q419 19 427 18 Q435 17 435 10 Q435 3 429 1.5 Q423 0 417 0 Q412 0 407.5 0.5 Q403 1 398 1 Q383 2 368 2 Q354 2 339 2 Q319 2 292 2 Q266 2 239 2 Q212 2 189.5 1.5 Q167 1 157 1 Q144 0 138.5 -0.5 Q133 -1 127 -1 Q117 -1 115 2 Q113 5 113 8 Q113 12 114.5 13.5 Q116 15 122 16 Q130 17 140 17.5 Q150 18 157 18 Q168 18 179 19 Q190 20 195 25 Q200 30 200.5 40.5 Q201 51 201 60 L201 668 Q186 670 166 669.5 Q146 669 126.5 664.5 Q107 660 89.5 650.5 Q72 641 60 625 Q47 608 40 580 Q33 552 23 508 Q21 502 19 496.5 Q17 491 9 491 Q2 491 1 494.5 Q0 498 0 501 Q0 508 0.5 517 Q1 526 3 544 Q6 582 8 605.5 Q10 629 11 644 Q12 659 13 669.5 Q14 680 14 692 Q76 692 114 692 Q153 692 188 691 Q216 690 242 689.5 Q268 689 310 689 Q335 689 369 689 Q403 689 436 689.5 Q469 690 496.5 690.5 Q524 691 536 691 Q544 691 550.5 691.5 Q557 692 565 693 Q566 667 567.5 642.5 Q569 618 573 589 L581 525 Q583 510 581.5 504 Q580 498 575 498 Q567 498 564 506.5 Q561 515 559 520 Q545 570 534.5 598 Q524 626 506 642 Q484 661 455.5 665.5 Q427 670 398 670 Q382 670 372 670 Q362 670 351 668 L351 377 Q383 386 419 392 Q455 398 493 398 Q512 398 535 395.5 Q558 393 581.5 387 Q605 381 627 371 Q649 361 666 346 Q679 334 695.5 307.5 Q712 281 712 238 L712 60 Q712 51 712.5 40.5 Q713 30 718 25 Q723 20 733.5 19 Q744 18 755 18 Q766 18 772 17.5 Q778 17 786 16 Q793 15 794.5 14 Q796 13 796 8 Q796 5 794 2 Q792 -1 782 -1 Q776 -1 770.5 -0.5 Q765 0 752 1 Q731 2 681 2 Q632 2 574 2 Q559 2 544 2 Q530 2 515 1 Q510 1 505.5 0.5 Q501 0 496 0 Q490 0 484 1.5 Q478 3 478 10 Q478 17 486 18 Q494 19 502 19 L531 19 Q550 19 556 27 Q558 29 560 36.5 Q562 44 562 63 L562 254 Z " />
<glyph glyph-name="uni040C" unicode="&#x40c;" horiz-adv-x="643" d="M240 37 Q240 29 253 21.5 Q266 14 309 15 Q311 15 316.5 14 Q322 13 322 7 Q322 1 313.5 -0.5 Q305 -2 300 -2 Q280 -2 260 -1 Q240 0 220 1 Q203 2 186 2 Q170 2 153 2 Q115 2 101 1.5 Q87 1 79.5 0 Q72 -1 63.5 -1.5 Q55 -2 28 -2 Q17 -2 13.5 1 Q10 4 10 8 Q10 13 14 14.5 Q18 16 23 16 Q50 17 62 18 Q74 19 79 22 Q82 24 86 29.5 Q90 35 90 46 L90 649 Q90 654 87.5 660 Q85 666 82 669 Q79 671 72 672.5 Q65 674 56 675 Q47 676 38.5 676.5 Q30 677 25 677 Q21 677 16 678 Q11 679 11 685 Q11 692 15.5 693 Q20 694 24 694 Q81 694 110.5 693 Q140 692 164 692 Q172 692 192.5 692.5 Q213 693 235 693 Q258 693 278.5 693.5 Q299 694 307 694 Q315 694 318 691 Q321 688 321 685 Q321 680 315.5 678.5 Q310 677 308 677 Q294 676 285 675.5 Q276 675 270 674.5 Q264 674 261 673.5 Q258 673 255 672 Q245 668 242.5 661 Q240 654 240 649 L240 380 L292 380 Q309 380 324 385.5 Q339 391 358 409 Q382 432 394 458.5 Q406 485 414 511 Q420 530 423.5 541.5 Q427 553 430 563.5 Q433 574 436.5 586.5 Q440 599 446 620 Q450 633 455.5 646 Q461 659 469 671 Q485 693 504.5 699.5 Q524 706 544 706 Q569 706 586.5 698 Q604 690 615.5 678 Q627 666 632 651.5 Q637 637 637 623 Q637 591 619 574 Q601 557 578 557 Q558 557 539.5 569 Q521 581 521 605 Q521 620 527 626.5 Q533 633 539 636 Q544 639 550.5 644 Q557 649 557 657 Q557 664 550 670.5 Q543 677 527 677 Q507 677 496 663 Q485 649 475 620 Q465 590 461 575 Q457 560 454.5 549.5 Q452 539 448 526 Q444 513 435 486 Q427 466 419 448 Q411 430 392 408 Q380 394 367.5 384.5 Q355 375 336 370 L336 369 Q368 362 394 349.5 Q420 337 442 321 Q465 304 481 286 Q497 268 510 245 Q519 228 527 210 Q535 192 544 169 Q553 146 563.5 117 Q574 88 588 49 Q591 41 594.5 34.5 Q598 28 604 23 Q612 18 624.5 16.5 Q637 15 654 16 Q665 16 668.5 13.5 Q672 11 672 8 Q672 6 669.5 2 Q667 -2 656 -2 Q617 -2 592 -1.5 Q567 -1 550 -1 Q534 -1 523.5 -0.5 Q513 0 502 0 Q484 0 470 -0.5 Q456 -1 443 -2 Q441 17 438.5 33 Q436 49 433 66 Q430 84 425.5 106.5 Q421 129 416 152.5 Q411 176 406 197.5 Q401 219 397 234 Q389 263 378.5 289 Q368 315 349 333 Q332 350 317.5 353 Q303 356 291 356 L240 356 L240 37 Z M310 747 Q305 742 301 738.5 Q297 735 293 735 Q289 735 289 739 Q290 742 291 745 L348 894 L475 894 L310 747 Z " />
<glyph glyph-name="uni040E" unicode="&#x40e;" horiz-adv-x="587" d="M71 609 Q61 632 48 652.5 Q35 673 12 674 L-17 675 Q-22 675 -27 674.5 Q-32 674 -36 674 Q-41 674 -44.5 675 Q-48 676 -48 683 Q-48 692 -41 693 Q-34 694 -26 694 Q-4 694 22 692.5 Q48 691 77 691 L184 691 Q198 691 211 691.5 Q224 692 238 693 Q252 694 266 694 Q281 694 296 694 Q301 694 310.5 693 Q320 692 320 682 Q320 674 312.5 673.5 Q305 673 300 673 L227 671 Q216 671 211 664.5 Q206 658 206 651 Q206 648 207 644 Q208 640 209 638 L404 190 Q422 243 436 292 Q450 341 464 398 Q476 448 482.5 479.5 Q489 511 495 539 Q500 562 503 579 Q506 596 506 612 Q506 627 503 636.5 Q500 646 489 655 Q470 670 449 672 L424 673 Q422 673 416 674 Q410 675 410 682 Q410 685 412.5 689.5 Q415 694 429 694 Q452 694 473.5 693 Q495 692 516 692 Q545 692 572.5 693 Q600 694 635 694 Q641 694 644 692.5 Q647 691 647 683 Q647 677 644 675 Q641 673 627 673 Q612 673 593 670.5 Q574 668 559 651 Q549 640 543.5 622.5 Q538 605 533 582 Q528 561 524 539 Q520 517 514 491 Q508 465 500.5 431.5 Q493 398 481 353 Q470 312 459 272 Q448 232 434.5 190.5 Q421 149 403.5 106 Q386 63 363 15 Q350 -11 335 -36 Q320 -61 292 -84 Q274 -99 249.5 -110.5 Q225 -122 193 -122 Q163 -122 139.5 -111.5 Q116 -101 102 -85 Q89 -71 83 -52 Q77 -33 77 -16 Q77 17 97 40 Q117 63 152 63 Q187 63 204 41.5 Q221 20 221 -3 Q221 -26 210 -38.5 Q199 -51 182 -51 Q178 -51 170 -49 Q164 -47 160 -47 Q147 -47 147 -61 Q147 -72 156.5 -83 Q166 -94 194 -94 Q227 -94 259 -74 Q270 -66 281 -57 Q292 -48 300 -37 Q309 -26 318 -10.5 Q327 5 334 17 L71 609 Z M340 732 Q311 732 284.5 738 Q258 744 235 760 Q216 773 205 790 Q194 807 194 823 Q194 833 198.5 844 Q203 855 211.5 864 Q220 873 232 878.5 Q244 884 259 884 Q282 884 296 870 Q310 856 310 834 Q310 826 306.5 818 Q303 810 289 805 Q271 803 266 801 Q256 797 256 787 Q256 780 263 771.5 Q270 763 282 758 Q293 754 311 751 Q329 748 340 748 Q354 748 372.5 751.5 Q391 755 398 758 Q410 763 417 771.5 Q424 780 424 787 Q424 795 416 800 Q411 803 391 805 Q377 809 373.5 818 Q370 827 370 833 Q370 851 382.5 867.5 Q395 884 421 884 Q450 884 468 864 Q486 844 486 822 Q486 807 475.5 790.5 Q465 774 445 760 Q422 744 395.5 738 Q369 732 340 732 Z " />
<glyph glyph-name="uni040F" unicode="&#x40f;" horiz-adv-x="718" d="M431 0 Q424 0 414 -0.5 Q404 -1 395 -5 Q386 -9 380 -19 Q374 -29 374 -48 Q374 -66 377.5 -80 Q381 -94 385 -106 Q396 -140 401 -158.5 Q406 -177 406 -192 Q406 -216 391 -235.5 Q376 -255 359 -255 Q342 -255 327 -235.5 Q312 -216 312 -192 Q312 -177 317 -158.5 Q322 -140 333 -106 Q337 -94 340.5 -80 Q344 -66 344 -48 Q344 -29 338 -19 Q332 -9 323 -5 Q314 -1 304 -0.5 Q294 0 287 0 L135 0 Q112 0 90 0.5 Q68 1 45 0 Q38 0 31.5 -0.5 Q25 -1 18 -1 Q12 -1 6 0.5 Q0 2 0 9 Q0 16 8 17 Q16 18 24 18 L54 18 Q60 18 67 19.5 Q74 21 79 26 Q86 33 86.5 42 Q87 51 87 62 L87 631 Q87 639 86.5 649 Q86 659 79 666 Q74 671 66 672 Q58 673 50 673 Q28 674 15 674.5 Q2 675 2 684 Q2 688 5 690 Q8 692 18 692 Q23 692 28.5 691.5 Q34 691 51 690.5 Q68 690 101.5 689.5 Q135 689 197 689 Q230 689 244.5 689.5 Q259 690 267 690 Q275 690 281 690.5 Q287 691 302 691 Q309 691 315.5 690 Q322 689 322 681 Q322 674 314 673 Q306 672 298 672 L268 672 Q255 672 247 664 Q243 660 240 652 Q237 644 237 628 L237 24 L480 24 L480 628 Q480 644 477 652 Q474 660 470 664 Q462 672 449 672 L419 672 Q411 672 403 673 Q395 674 395 681 Q395 689 401.5 690 Q408 691 415 691 Q426 691 431.5 690.5 Q437 690 444 690 Q451 690 464 689.5 Q477 689 504 689 Q561 689 604 689.5 Q647 690 663 690 Q676 691 684 691.5 Q692 692 700 692 Q710 692 712.5 689.5 Q715 687 715 683 Q715 676 707 676 Q700 676 672 674 Q655 673 648.5 671 Q642 669 640 666 L634 657 L630 620 L630 58 Q630 50 630.5 39.5 Q631 29 636 24 Q639 20 646.5 19 Q654 18 667 17 L696 16 Q712 15 715 13.5 Q718 12 718 6 Q718 3 716 0 Q714 -3 704 -3 Q698 -3 692 -2.5 Q686 -2 671 -1 Q670 -1 660 -1 Q651 -1 638 -0.5 Q625 0 612 0 Q599 0 592 0 L431 0 Z " />
<glyph glyph-name="uni0410" unicode="&#x410;" horiz-adv-x="678" d="M196 244 L367 244 L282 482 L196 244 Z M188 222 L133 67 Q130 58 129 53.5 Q128 49 128 43 Q128 38 131.5 31.5 Q135 25 150 21 Q157 19 164.5 18.5 Q172 18 176 18 L202 17 Q205 17 209 15.5 Q213 14 213 8 Q213 -1 200 -1 L177 -1 Q132 -1 102 -1 Q72 -1 40 0 Q33 0 30 0 Q27 0 25 0 Q24 0 22 -0.5 Q20 -1 16 -1 Q9 -1 6 2.5 Q3 6 3 10 Q3 15 6.5 16 Q10 17 12 17 Q14 17 15.5 16.5 Q17 16 19 16 L21 16 Q26 16 29.5 16.5 Q33 17 38 17 Q49 18 61 20 Q73 22 82 30 Q92 38 97 49.5 Q102 61 105 70 L255 482 L316 651 Q327 680 331.5 690 Q336 700 340 700 Q345 700 350 685.5 Q355 671 362 651 L426 482 L577 82 Q588 54 595 43 Q602 32 608 28 Q618 21 633 19.5 Q648 18 653 18 Q658 18 663.5 18.5 Q669 19 675 19 Q682 19 684 15 Q685 13 685 10 Q685 2 680 0 Q675 -2 670 -2 Q666 -2 662.5 -1.5 Q659 -1 655 -1 Q646 0 637 0 Q628 0 619 0 Q585 0 552 1 Q519 2 486 2 Q461 2 443 1.5 Q425 1 410 0 Q401 -1 392 -1 Q383 -1 374 -1 Q353 -1 347.5 1 Q342 3 341 4 Q339 6 339 9 Q339 11 342 15.5 Q345 20 356 20 L394 20 Q408 20 420.5 21.5 Q433 23 433 34 Q433 38 431 44.5 Q429 51 421 76 L374 222 L188 222 Z " />
<glyph glyph-name="uni0411" unicode="&#x411;" horiz-adv-x="612" d="M241 38 Q241 30 249 24.5 Q257 19 276 19 Q314 19 340 34 Q366 49 380 67 Q397 90 404.5 129 Q412 168 412 205 Q412 246 401.5 286 Q391 326 365 350 Q342 371 309 379 Q276 387 241 382 L241 38 Z M241 402 Q252 403 267.5 403.5 Q283 404 301 404 Q318 404 343.5 403 Q369 402 398 396 Q427 390 456 377.5 Q485 365 509 343 Q535 319 552.5 280.5 Q570 242 570 198 Q570 170 561 138 Q552 106 535 83 Q518 60 496 45 Q474 30 450.5 21.5 Q427 13 404.5 9 Q382 5 366 4 Q343 2 316 1.5 Q289 1 254 1 Q220 1 177 0.5 Q134 0 80 -1 Q66 -2 52 -2 Q39 -2 28 -2 Q20 -2 15 -0.5 Q10 1 10 7 Q10 12 15 14 Q20 16 28 15.5 Q36 15 53 17 Q58 17 69 19 Q80 21 85 28 Q89 33 90 44 Q91 55 91 75 L91 635 Q91 645 91 653 Q91 661 87 666 Q84 671 78 672 Q72 673 67 674 Q56 676 48 675.5 Q40 675 29 675 Q18 676 15 679 Q12 682 12 684 Q12 688 16 690 Q20 692 25.5 693 Q31 694 41 694 L468 694 Q477 694 488 694.5 Q499 695 516 697 Q518 664 520 639.5 Q522 615 525 589 L532 526 Q533 514 522 514 Q514 514 512 519 Q510 524 505 539 Q496 571 484 600.5 Q472 630 452 646 Q430 663 401 667 Q372 671 350 671 L255 671 Q245 671 243 665.5 Q241 660 241 655 L241 402 Z " />
<glyph glyph-name="uni0412" unicode="&#x412;" horiz-adv-x="616" d="M241 79 Q241 66 242.5 51 Q244 36 247 30 Q253 17 284 17 Q304 17 324.5 21.5 Q345 26 362 38 Q373 46 380.5 56.5 Q388 67 394 78 Q408 104 411 131.5 Q414 159 414 185 Q414 221 408.5 247.5 Q403 274 394 292.5 Q385 311 373 323 Q361 335 348 342 Q332 350 308.5 354.5 Q285 359 241 358 L241 79 Z M241 374 Q271 372 292 375 Q313 378 326.5 382.5 Q340 387 347.5 392 Q355 397 358 400 Q372 412 379 427 Q386 442 389 456 Q394 474 395 492.5 Q396 511 396 530 Q396 542 395 558 Q394 574 390.5 590.5 Q387 607 380 623 Q373 639 360 651 Q344 665 325 668.5 Q306 672 294 672 Q271 672 261.5 668 Q252 664 250 662 Q244 657 242.5 650 Q241 643 241 638 L241 374 Z M370 366 Q425 356 455.5 344 Q486 332 510 312 Q520 304 531 292 Q542 280 551.5 264 Q561 248 567.5 227 Q574 206 574 180 Q574 158 568 135 Q562 112 548.5 90.5 Q535 69 512.5 51 Q490 33 456 21 Q426 11 394 6 Q362 1 335 -0.5 Q308 -2 270 -2 L37 -2 L33 -2 Q30 -2 27.5 -2.5 Q25 -3 22 -3 Q16 -3 13 0 Q11 4 11 6 Q11 13 17.5 14 Q24 15 26 15 L42 15 Q53 15 66 17 Q79 19 84 25 Q87 28 89 37 Q91 46 91 71 L91 643 Q91 656 83 664 Q78 669 65 671 Q52 673 45 673 L30 673 Q24 673 17 674 Q10 675 10 682 Q10 687 14 689 Q18 691 29 691 Q41 691 53 690 Q65 689 77 689 L82 689 L313 689 Q326 689 348 688 Q370 687 396 682.5 Q422 678 448 668.5 Q474 659 495.5 641.5 Q517 624 530.5 597.5 Q544 571 544 533 Q544 496 529.5 467 Q515 438 491 417.5 Q467 397 435.5 384.5 Q404 372 370 369 L370 366 Z " />
<glyph glyph-name="uni0413" unicode="&#x413;" horiz-adv-x="543" d="M322 16 Q325 16 332 15 Q339 14 339 8 Q339 6 337 2 Q334 -1 324 -1 Q283 -1 266 0 Q249 1 239 1 Q211 2 184 2 Q157 2 130 2 Q85 2 63 1.5 Q41 1 30 -1 Q26 -1 23 -1.5 Q20 -2 16 -2 Q9 -2 6 2 Q4 6 4 8 Q4 13 7.5 14.5 Q11 16 16 16 L38 17 Q52 18 67.5 22.5 Q83 27 88 38 Q91 44 91 51 Q91 59 91 67 L91 652 Q91 657 88.5 661 Q86 665 83 668 Q78 672 69.5 674.5 Q61 677 42 678 Q31 679 22 679 Q13 679 13 686 Q13 695 20.5 696 Q28 697 33 697 L52 697 Q58 697 65 697 Q73 697 95 696 Q119 694 126 694 Q134 694 142 694 L325 694 Q367 694 401 694 Q436 694 468 695 Q475 695 481.5 695.5 Q488 696 495 696 Q503 697 510 697 Q517 697 526 699 Q527 684 528 668.5 Q529 653 530 638 Q531 623 532 607.5 Q533 592 535 577 L542 507 Q543 494 532 494 Q525 494 522.5 501 Q520 508 516 520 Q502 561 486 596.5 Q470 632 443 649 Q420 663 379 666 Q338 669 285 669 L242 669 L242 75 Q242 47 246 38 Q250 29 252 27 Q255 24 265 20 Q275 16 301 16 L322 16 Z " />
<glyph glyph-name="uni0414" unicode="&#x414;" horiz-adv-x="670" d="M406 667 L131 25 L429 25 L429 667 L406 667 Z M400 692 L517 692 Q535 692 542.5 693.5 Q550 695 554.5 696.5 Q559 698 564 698 Q569 698 575.5 695 Q582 692 582 681 Q580 659 580 645 L580 73 Q580 56 584 44 Q588 32 597.5 30 Q607 28 622 28 L672 28 Q671 24 664 4 Q657 -16 648 -41.5 Q639 -67 629.5 -93 Q620 -119 615 -134 Q608 -154 603.5 -167 Q599 -180 594.5 -189.5 Q590 -199 584 -199 Q577 -199 573.5 -190 Q570 -181 568.5 -168 Q567 -155 566.5 -141.5 Q566 -128 566 -119 Q565 -86 564 -65.5 Q563 -45 562 -31.5 Q561 -18 556 -9.5 Q551 -1 528 -0.5 Q505 0 452 0 L175 0 Q134 0 120 -1.5 Q106 -3 104 -10 Q102 -17 101.5 -29 Q101 -41 100 -63 Q99 -85 99 -123 Q99 -131 99 -144 Q99 -158 97.5 -170.5 Q96 -183 92.5 -192.5 Q89 -202 81 -202 Q75 -202 70 -194 Q65 -186 60.5 -174.5 Q56 -163 52.5 -150.5 Q49 -138 46 -129 Q32 -87 16 -45.5 Q0 -4 -12 28 L56 28 Q67 28 85 30.5 Q103 33 108 45 L364 645 Q367 651 367 659 Q367 667 359.5 671 Q352 675 326 675 Q308 675 296 674 Q284 673 272 673 Q265 673 257 675 Q249 677 249 685 Q249 694 257 695 Q265 696 271 696 L301 696 Q309 696 322.5 695 Q336 694 355.5 693 Q375 692 400 692 Z " />
<glyph glyph-name="uni0415" unicode="&#x415;" horiz-adv-x="602" d="M249 375 L299 375 Q369 375 394 396 Q411 410 417 432 Q423 454 426 476 Q426 480 426.5 486 Q427 492 428.5 498 Q430 504 432 508 Q434 512 438 513 L441 513 Q444 513 447 510 Q450 507 450 492 Q450 482 449.5 472.5 Q449 463 448 453 Q447 445 447 437 Q447 429 447 421 Q446 373 446 340 Q446 307 447 284.5 Q448 262 448.5 248 Q449 234 449 224 Q449 222 448 217.5 Q447 213 441 213 Q431 213 429 225 Q427 237 425 250 Q419 286 414 307 Q409 328 398 339 Q386 350 364 353 Q342 356 317 356 L249 356 L249 19 L383 20 Q408 20 442.5 23 Q477 26 505 47 Q520 58 528 70.5 Q536 83 537 85 Q544 99 551 127 Q558 155 560 175 Q560 177 562 183.5 Q564 190 569 190 Q572 190 574 188 Q577 185 577.5 180.5 Q578 176 578 171 Q578 157 577.5 144.5 Q577 132 577 119 Q577 110 577 100 Q577 91 576.5 77.5 Q576 64 575.5 43.5 Q575 23 575 -7 Q538 -7 513 -6 Q488 -5 467 -4.5 Q446 -4 423.5 -3 Q401 -2 368.5 -1.5 Q336 -1 289 -0.5 Q242 0 171 0 Q149 0 125 -0.5 Q101 -1 79 -1 Q58 -1 41 -1.5 Q24 -2 15 -2 Q4 -2 4 6 Q4 13 12 13 L45 16 Q53 17 59.5 18 Q66 19 73 21 Q86 25 91 31 Q98 39 98.5 50.5 Q99 62 99 72 L99 629 Q99 639 98 649.5 Q97 660 90 666 Q87 669 79 671 Q71 673 51 673 L30 673 Q27 673 23.5 674.5 Q20 676 20 682 Q20 690 24.5 691 Q29 692 36 692 L73 692 Q90 692 119 692 Q149 692 194 693 Q236 694 276.5 694.5 Q317 695 359 695 Q386 695 412.5 694.5 Q439 694 466 694 Q480 694 493 694 Q506 694 520 695 Q527 695 533 695.5 Q539 696 547 698 Q549 667 550.5 647.5 Q552 628 553 616 Q554 604 555 598.5 Q556 593 556 589 Q558 574 559.5 559 Q561 544 561 528 Q561 525 560 520 Q559 515 553 515 Q544 515 542 522 Q540 529 538 540 Q531 569 521.5 594 Q512 619 485 639 Q464 655 429.5 664 Q395 673 342 673 Q325 673 305.5 672.5 Q286 672 249 670 L249 375 Z " />
<glyph glyph-name="uni0416" unicode="&#x416;" horiz-adv-x="962" d="M557 37 Q557 29 570 21.5 Q583 14 626 15 Q628 15 633.5 14 Q639 13 639 7 Q639 1 630.5 -0.5 Q622 -2 617 -2 Q597 -2 577 -1 Q557 0 537 1 Q520 2 503 2 Q487 2 470 2 Q432 2 418 1.5 Q404 1 396.5 0 Q389 -1 380.5 -1.5 Q372 -2 345 -2 Q334 -2 330.5 1 Q327 4 327 8 Q327 13 331 14.5 Q335 16 340 16 Q367 17 379 18 Q391 19 396 22 Q399 24 403 29.5 Q407 35 407 46 L407 356 L373 356 Q365 356 349 353 Q333 350 314 333 Q294 316 284 288 Q274 260 267 236 Q255 192 246 151 Q237 110 229 65 Q226 46 223.5 31.5 Q221 17 219 -2 Q206 -1 192.5 -0.5 Q179 0 162 0 Q151 0 140.5 -0.5 Q130 -1 113 -1 Q97 -1 72 -1.5 Q47 -2 8 -2 Q-3 -2 -5.5 2 Q-8 6 -8 8 Q-8 11 -4.5 13.5 Q-1 16 10 16 Q27 15 39.5 16.5 Q52 18 60 23 Q66 28 69.5 34.5 Q73 41 76 49 Q90 88 100.5 117 Q111 146 120 169 Q129 192 137 210 Q145 228 154 245 Q167 268 183 286 Q199 304 222 321 Q244 337 270 349.5 Q296 362 328 369 L328 370 Q296 380 273 407 Q253 430 243.5 451 Q234 472 227 492 Q213 534 203.5 568.5 Q194 603 189 620 Q179 649 168 663 Q157 677 137 677 Q121 677 114 670.5 Q107 664 107 657 Q107 649 113.5 644 Q120 639 125 636 Q131 633 137 626.5 Q143 620 143 604 Q143 581 125 569 Q107 557 86 557 Q63 557 45 574 Q27 591 27 623 Q27 637 32 651.5 Q37 666 48.5 678 Q60 690 77.5 698 Q95 706 120 706 Q140 706 159.5 699.5 Q179 693 195 671 Q203 660 208.5 646.5 Q214 633 218 620 Q222 607 224.5 598 Q227 589 229.5 579 Q232 569 236 555 Q240 541 248 518 Q256 493 269 462 Q282 431 308 407 Q325 391 340.5 385.5 Q356 380 372 380 L407 380 L407 649 Q407 655 405.5 660 Q404 665 399 669 Q393 674 373.5 675.5 Q354 677 342 677 Q338 677 333 678 Q328 679 328 685 Q328 692 332.5 693 Q337 694 341 694 Q397 694 427 693 Q457 692 481 692 Q489 692 509.5 692.5 Q530 693 552 693 Q575 693 595.5 693.5 Q616 694 624 694 Q632 694 635 691 Q638 688 638 685 Q638 680 632.5 678.5 Q627 677 625 677 Q611 676 602 675.5 Q593 675 587 674.5 Q581 674 578 673.5 Q575 673 572 672 Q562 668 559.5 661 Q557 654 557 649 L557 380 L592 380 Q608 380 623.5 385.5 Q639 391 656 407 Q682 431 695 462 Q708 493 716 518 Q723 541 727.5 555 Q732 569 734.5 579 Q737 589 739.5 598 Q742 607 746 620 Q750 633 755.5 646.5 Q761 660 769 671 Q785 693 804.5 699.5 Q824 706 844 706 Q869 706 886.5 698 Q904 690 915.5 678 Q927 666 932 651.5 Q937 637 937 623 Q937 591 919 574 Q901 557 878 557 Q857 557 839 569 Q821 581 821 604 Q821 620 827 626.5 Q833 633 839 636 Q844 639 850.5 644 Q857 649 857 657 Q857 664 850 670.5 Q843 677 827 677 Q807 677 796 663 Q785 649 775 620 Q770 603 760.5 568.5 Q751 534 737 492 Q730 472 720.5 451 Q711 430 691 407 Q668 380 636 370 L636 369 Q668 362 694 349.5 Q720 337 742 321 Q765 304 781 286 Q797 268 810 245 Q819 228 827 210 Q835 192 844 169 Q853 146 863.5 117 Q874 88 888 49 Q891 41 894.5 34.5 Q898 28 904 23 Q912 18 924.5 16.5 Q937 15 954 16 Q965 16 968.5 13.5 Q972 11 972 8 Q972 6 969.5 2 Q967 -2 956 -2 Q917 -2 892 -1.5 Q867 -1 850 -1 Q834 -1 823.5 -0.5 Q813 0 802 0 Q785 0 771.5 -0.5 Q758 -1 745 -2 Q743 17 740.5 31.5 Q738 46 735 65 Q727 110 718 151 Q709 192 697 236 Q690 260 680 288 Q670 316 650 333 Q631 350 615 353 Q599 356 591 356 L557 356 L557 37 Z " />
<glyph glyph-name="uni0417" unicode="&#x417;" horiz-adv-x="567" d="M221 394 Q200 394 193.5 385.5 Q187 377 187 371 Q187 363 193.5 354.5 Q200 346 217 346 Q232 346 251 353.5 Q270 361 286 371 Q261 388 243.5 391 Q226 394 221 394 Z M333 371 Q358 365 379 359.5 Q400 354 418 347 Q436 340 452 330.5 Q468 321 484 308 Q545 257 545 182 Q545 163 541 143 Q537 123 527 103 Q517 83 499.5 64 Q482 45 455 29 Q434 17 407.5 7.5 Q381 -2 353.5 -8.5 Q326 -15 298.5 -18.5 Q271 -22 248 -22 Q213 -22 188 -18.5 Q163 -15 146 -10.5 Q129 -6 119 -1 Q109 4 104 7 Q90 16 80 27 Q70 38 61 48 Q54 56 47 61.5 Q40 67 28 67 Q10 67 1 55.5 Q-8 44 -13 33 Q-15 28 -18 23.5 Q-21 19 -28 19 Q-31 19 -34.5 21.5 Q-38 24 -38 31 Q-38 34 -35.5 40.5 Q-33 47 -23 61 Q-9 82 2 94 Q13 106 28 117 Q39 125 55 133 Q71 141 91 141 Q111 141 125 133 Q139 125 150 112 Q160 101 168 88.5 Q176 76 186 61 Q192 52 200 42 Q208 32 219 23.5 Q230 15 245.5 9 Q261 3 281 3 Q304 3 320.5 12 Q337 21 348 36 Q360 52 367 75 Q374 98 377.5 121 Q381 144 382 162.5 Q383 181 383 187 Q383 229 377.5 254 Q372 279 366 293 Q356 316 342 332 Q328 348 306 359 Q273 336 250 329.5 Q227 323 208 323 Q187 323 173.5 328 Q160 333 153 340.5 Q146 348 143.5 356.5 Q141 365 141 371 Q141 378 144.5 386 Q148 394 156 401 Q164 408 178.5 412.5 Q193 417 214 417 Q231 417 252.5 411.5 Q274 406 306 382 Q330 396 341.5 413 Q353 430 358 453 Q362 470 364 494 Q366 518 366 535 Q366 560 362 585.5 Q358 611 350 628 Q346 635 339.5 644.5 Q333 654 323 662.5 Q313 671 298 676.5 Q283 682 263 682 Q237 682 217.5 674 Q198 666 184 656 Q146 630 127 595.5 Q108 561 102 529 Q101 525 100 519 Q99 513 97 507 Q95 501 92 497 Q89 493 84 493 Q72 493 71.5 507 Q71 521 71 538 Q71 543 71 556 Q71 569 70.5 585.5 Q70 602 69 618.5 Q68 635 67 646 Q65 663 63.5 669 Q62 675 62 681 Q62 694 72 694 Q80 694 83 686.5 Q86 679 88 674 Q92 663 98.5 659 Q105 655 112 655 Q120 655 131 660 Q142 665 159 674 Q187 688 214.5 696.5 Q242 705 284 705 Q320 705 363 697 Q406 689 441 669 Q486 643 502.5 609 Q519 575 519 542 Q519 509 505 479 Q491 449 469 429 Q443 405 404 390.5 Q365 376 333 372 L333 371 Z " />
<glyph glyph-name="uni0418" unicode="&#x418;" horiz-adv-x="736" d="M243 92 L243 72 Q243 63 243.5 51.5 Q244 40 250 32 Q258 21 274.5 18.5 Q291 16 307 15 Q311 15 318.5 13.5 Q326 12 326 5 Q326 3 325 2 Q323 -1 317 -1 Q309 -1 302.5 -0.5 Q296 0 288 0 L283 0 L200 3 Q194 3 179 3 Q165 3 133 1 Q95 -1 72 -1.5 Q49 -2 20 -2 Q17 -2 11 -1 Q5 0 5 7 Q5 13 10 14 Q15 15 19 15 Q25 15 35 16 Q45 17 56 19 Q67 21 76 24 Q85 27 88 30 Q91 33 91.5 38 Q92 43 92 48 L92 80 L92 641 Q92 646 91 653.5 Q90 661 82 667 Q74 673 54 675 Q34 677 20 677 Q16 677 11.5 678 Q7 679 7 686 Q7 691 14 693 Q21 695 26 695 Q34 695 41.5 693 Q49 691 56 690 L66 690 L208 689 L213 689 Q236 689 257.5 690.5 Q279 692 307 692 Q317 692 322 690 Q327 688 327 682 Q327 679 325 675 Q322 672 317 672 L281 671 Q277 671 274 670.5 Q271 670 267 669 Q258 667 253 662 Q246 655 244.5 642.5 Q243 630 243 617 L243 155 L242 135 L243 135 L493 618 L493 631 Q493 640 490 648 Q487 655 481 661 Q472 670 461 671.5 Q450 673 442 673 L423 673 Q419 673 413.5 674 Q408 675 408 683 Q408 690 413 691 Q418 692 420 692 Q429 692 437 692 Q446 692 454 691 Q461 690 467.5 689.5 Q474 689 481 689 L487 689 L643 689 L647 689 Q667 689 686.5 690.5 Q706 692 727 692 Q729 692 732.5 691.5 Q736 691 736 686 Q736 678 721.5 677.5 Q707 677 694 676 Q689 675 684 675 Q679 675 674 673 Q669 671 664.5 669.5 Q660 668 656 664 Q646 654 645 634.5 Q644 615 644 598 L644 106 Q644 83 645 61 Q646 39 660 28 Q671 19 687 16.5 Q703 14 717 12 Q720 11 723 11 Q726 11 729 9 Q736 5 736 0 Q736 -2 735 -3 Q733 -6 727 -6 Q719 -6 712.5 -5 Q706 -4 700 -3 Q694 -2 674 -1.5 Q654 -1 630 -0.5 Q606 0 583.5 0.5 Q561 1 551 1 Q533 1 515 0.5 Q497 0 480 0 Q467 0 454 -0.5 Q441 -1 426 -1 Q421 -1 415.5 0 Q410 1 410 7 Q410 13 415 14 Q420 15 424 15 Q433 15 450 18 Q467 21 477 26 Q489 32 491 42 Q493 52 493 64 L493 550 L495 571 L494 571 L243 92 Z " />
<glyph glyph-name="uni0419" unicode="&#x419;" horiz-adv-x="736" d="M243 92 L243 72 Q243 63 243.5 51.5 Q244 40 250 32 Q258 21 274.5 18.5 Q291 16 307 15 Q311 15 318.5 13.5 Q326 12 326 5 Q326 3 325 2 Q323 -1 317 -1 Q309 -1 302.5 -0.5 Q296 0 288 0 L283 0 L200 3 Q194 3 179 3 Q165 3 133 1 Q95 -1 72 -1.5 Q49 -2 20 -2 Q17 -2 11 -1 Q5 0 5 7 Q5 13 10 14 Q15 15 19 15 Q25 15 35 16 Q45 17 56 19 Q67 21 76 24 Q85 27 88 30 Q91 33 91.5 38 Q92 43 92 48 L92 80 L92 641 Q92 646 91 653.5 Q90 661 82 667 Q74 673 54 675 Q34 677 20 677 Q16 677 11.5 678 Q7 679 7 686 Q7 691 14 693 Q21 695 26 695 Q34 695 41.5 693 Q49 691 56 690 L66 690 L208 689 L213 689 Q236 689 257.5 690.5 Q279 692 307 692 Q317 692 322 690 Q327 688 327 682 Q327 679 325 675 Q322 672 317 672 L281 671 Q277 671 274 670.5 Q271 670 267 669 Q258 667 253 662 Q246 655 244.5 642.5 Q243 630 243 617 L243 155 L242 135 L243 135 L493 618 L493 631 Q493 640 490 648 Q487 655 481 661 Q472 670 461 671.5 Q450 673 442 673 L423 673 Q419 673 413.5 674 Q408 675 408 683 Q408 690 413 691 Q418 692 420 692 Q429 692 437 692 Q446 692 454 691 Q461 690 467.5 689.5 Q474 689 481 689 L487 689 L643 689 L647 689 Q667 689 686.5 690.5 Q706 692 727 692 Q729 692 732.5 691.5 Q736 691 736 686 Q736 678 721.5 677.5 Q707 677 694 676 Q689 675 684 675 Q679 675 674 673 Q669 671 664.5 669.5 Q660 668 656 664 Q646 654 645 634.5 Q644 615 644 598 L644 106 Q644 83 645 61 Q646 39 660 28 Q671 19 687 16.5 Q703 14 717 12 Q720 11 723 11 Q726 11 729 9 Q736 5 736 0 Q736 -2 735 -3 Q733 -6 727 -6 Q719 -6 712.5 -5 Q706 -4 700 -3 Q694 -2 674 -1.5 Q654 -1 630 -0.5 Q606 0 583.5 0.5 Q561 1 551 1 Q533 1 515 0.5 Q497 0 480 0 Q467 0 454 -0.5 Q441 -1 426 -1 Q421 -1 415.5 0 Q410 1 410 7 Q410 13 415 14 Q420 15 424 15 Q433 15 450 18 Q467 21 477 26 Q489 32 491 42 Q493 52 493 64 L493 550 L495 571 L494 571 L243 92 Z M369 731 Q340 731 313.5 737 Q287 743 264 759 Q245 772 234 789 Q223 806 223 822 Q223 832 227.5 843 Q232 854 240.5 863 Q249 872 261 877.5 Q273 883 288 883 Q311 883 325 869 Q339 855 339 833 Q339 825 335.5 817 Q332 809 318 804 Q300 802 295 800 Q285 796 285 786 Q285 779 292 770.5 Q299 762 311 757 Q322 753 340 750 Q358 747 369 747 Q383 747 401.5 750.5 Q420 754 427 757 Q439 762 446 770.5 Q453 779 453 786 Q453 794 445 799 Q440 802 420 804 Q406 808 402.5 817 Q399 826 399 832 Q399 850 411.5 866.5 Q424 883 450 883 Q479 883 497 863 Q515 843 515 821 Q515 806 504.5 789.5 Q494 773 474 759 Q451 743 424.5 737 Q398 731 369 731 Z " />
<glyph glyph-name="uni041A" unicode="&#x41a;" horiz-adv-x="643" d="M240 37 Q240 29 253 21.5 Q266 14 309 15 Q311 15 316.5 14 Q322 13 322 7 Q322 1 313.5 -0.5 Q305 -2 300 -2 Q280 -2 260 -1 Q240 0 220 1 Q203 2 186 2 Q170 2 153 2 Q115 2 101 1.5 Q87 1 79.5 0 Q72 -1 63.5 -1.5 Q55 -2 28 -2 Q17 -2 13.5 1 Q10 4 10 8 Q10 13 14 14.5 Q18 16 23 16 Q50 17 62 18 Q74 19 79 22 Q82 24 86 29.5 Q90 35 90 46 L90 649 Q90 654 87.5 660 Q85 666 82 669 Q79 671 72 672.5 Q65 674 56 675 Q47 676 38.5 676.5 Q30 677 25 677 Q21 677 16 678 Q11 679 11 685 Q11 692 15.5 693 Q20 694 24 694 Q81 694 110.5 693 Q140 692 164 692 Q172 692 192.5 692.5 Q213 693 235 693 Q258 693 278.5 693.5 Q299 694 307 694 Q315 694 318 691 Q321 688 321 685 Q321 680 315.5 678.5 Q310 677 308 677 Q294 676 285 675.5 Q276 675 270 674.5 Q264 674 261 673.5 Q258 673 255 672 Q245 668 242.5 661 Q240 654 240 649 L240 380 L292 380 Q309 380 324 385.5 Q339 391 358 409 Q382 432 394 458.5 Q406 485 414 511 Q420 530 423.5 541.5 Q427 553 430 563.5 Q433 574 436.5 586.5 Q440 599 446 620 Q450 633 455.5 646 Q461 659 469 671 Q485 693 504.5 699.5 Q524 706 544 706 Q569 706 586.5 698 Q604 690 615.5 678 Q627 666 632 651.5 Q637 637 637 623 Q637 591 619 574 Q601 557 578 557 Q558 557 539.5 569 Q521 581 521 605 Q521 620 527 626.5 Q533 633 539 636 Q544 639 550.5 644 Q557 649 557 657 Q557 664 550 670.5 Q543 677 527 677 Q507 677 496 663 Q485 649 475 620 Q465 590 461 575 Q457 560 454.5 549.5 Q452 539 448 526 Q444 513 435 486 Q427 466 419 448 Q411 430 392 408 Q380 394 367.5 384.5 Q355 375 336 370 L336 369 Q368 362 394 349.5 Q420 337 442 321 Q465 304 481 286 Q497 268 510 245 Q519 228 527 210 Q535 192 544 169 Q553 146 563.5 117 Q574 88 588 49 Q591 41 594.5 34.5 Q598 28 604 23 Q612 18 624.5 16.5 Q637 15 654 16 Q665 16 668.5 13.5 Q672 11 672 8 Q672 6 669.5 2 Q667 -2 656 -2 Q617 -2 592 -1.5 Q567 -1 550 -1 Q534 -1 523.5 -0.5 Q513 0 502 0 Q484 0 470 -0.5 Q456 -1 443 -2 Q441 17 438.5 33 Q436 49 433 66 Q430 84 425.5 106.5 Q421 129 416 152.5 Q411 176 406 197.5 Q401 219 397 234 Q389 263 378.5 289 Q368 315 349 333 Q332 350 317.5 353 Q303 356 291 356 L240 356 L240 37 Z " />
<glyph glyph-name="uni041B" unicode="&#x41b;" horiz-adv-x="683" d="M394 667 Q387 625 376.5 569 Q366 513 352 453 Q337 387 319 324.5 Q301 262 275 197 Q248 130 222.5 90 Q197 50 171 27 Q157 14 133 1.5 Q109 -11 77 -11 Q64 -11 50.5 -8 Q37 -5 26 1 Q15 7 1.5 22.5 Q-12 38 -12 67 Q-12 99 7 120 Q12 126 26 135.5 Q40 145 63 145 Q93 145 108.5 126.5 Q124 108 124 84 Q124 77 122.5 68.5 Q121 60 114 52 Q108 44 102 40.5 Q96 37 96 32 Q96 30 97.5 26.5 Q99 23 107 23 Q121 23 139.5 36.5 Q158 50 171 65 Q191 87 209.5 121 Q228 155 243.5 191.5 Q259 228 270.5 263 Q282 298 290 323 Q297 347 307.5 386.5 Q318 426 328 469 Q338 512 346 553 Q354 594 356 622 Q357 631 357.5 636 Q358 641 358 645 Q358 667 345.5 671 Q333 675 321 675 Q309 675 303 674.5 Q297 674 291 674 Q286 674 279 673.5 Q272 673 258 673 Q252 673 246 674.5 Q240 676 240 684 Q240 694 245.5 695 Q251 696 258 696 Q270 696 276 696 Q282 696 290 696 Q298 696 311.5 695 Q325 694 351 693 Q368 692 376 692 Q384 692 389 692 L517 692 Q519 692 523 692 Q527 692 533 693 Q547 695 551.5 696.5 Q556 698 564 698 Q585 698 585 678 Q585 673 584.5 668.5 Q584 664 583 652 L583 632 L583 54 Q583 46 584 37 Q585 28 597 22 Q603 19 618 17.5 Q633 16 673 17 Q681 17 683 14 Q685 11 685 9 Q685 6 682 2.5 Q679 -1 667 -1 Q653 -1 639.5 -0.5 Q626 0 612 0 Q586 1 558 1 Q531 1 504 1 Q458 1 438.5 0.5 Q419 0 409 0 Q400 0 392.5 -0.5 Q385 -1 363 -1 Q360 -1 354.5 0 Q349 1 349 7 Q349 12 353 13 Q357 14 360 15 Q365 16 371 16.5 Q377 17 382 17 Q390 17 396 17 Q403 17 411 19 Q423 21 428 27.5 Q433 34 433 55 L433 667 L394 667 Z " />
<glyph glyph-name="uni041C" unicode="&#x41c;" horiz-adv-x="786" d="M240 690 L384 230 L519 691 L762 691 Q767 691 774.5 690 Q782 689 782 682 Q782 680 780 676.5 Q778 673 768 673 Q761 673 754 673.5 Q747 674 740 674 Q713 674 702 670.5 Q691 667 687 663 Q679 655 678 645 Q677 641 677 632 L677 62 Q677 52 678 47 Q679 42 679.5 37.5 Q680 33 683 29 Q688 22 697.5 20.5 Q707 19 714 18 Q722 17 730.5 16.5 Q739 16 747 16 L770 16 Q775 16 781.5 15 Q788 14 788 7 Q788 -1 778 -2 Q768 -3 762 -3 Q704 -3 670 -2 Q636 -1 610 -1 Q584 -1 559 -1.5 Q534 -2 508 -2 L504 -2 L438 -2 Q435 -2 431 -1.5 Q427 -1 425 2 Q424 3 424 7 Q424 10 426 13 Q428 16 438 16 Q449 16 458.5 15.5 Q468 15 479 15 Q494 15 508 17.5 Q522 20 527 31 Q528 33 529 39.5 Q530 46 530 64 L530 643 L352 40 Q350 32 345.5 19.5 Q341 7 334 7 Q328 7 321.5 16.5 Q315 26 311 37 L124 615 L124 66 Q124 61 124.5 53.5 Q125 46 128 38 Q130 32 134 29 Q146 17 180 17 L200 17 Q206 17 210 16.5 Q214 16 218 13 Q221 10 221 6 Q221 3 220 2 Q218 0 212 -0.5 Q206 -1 204 -1 Q183 -1 161 0 Q139 1 117 1 Q103 1 90.5 0.5 Q78 0 64 0 Q57 0 50 0 Q43 0 36 -1 Q31 -1 26.5 -1.5 Q22 -2 17 -2 Q12 -2 7 -1.5 Q2 -1 -3 0 Q-11 2 -11 7 Q-11 9 -10 10 Q-8 12 -4 13.5 Q0 15 4 15 L47 16 Q57 16 69.5 18 Q82 20 88 33 Q90 38 91.5 46 Q93 54 93 72 L93 611 Q93 625 91.5 640 Q90 655 81 663 Q75 668 67.5 669.5 Q60 671 53 672 Q49 673 45 673 Q41 673 37 673 L12 673 Q1 673 -1.5 677 Q-4 681 -4 683 Q-4 685 -0.5 688 Q3 691 14 691 Q20 691 26 690.5 Q32 690 38 690 L44 690 L240 690 Z " />
<glyph glyph-name="uni041D" unicode="&#x41d;" horiz-adv-x="727" d="M243 357 L243 102 Q243 74 244 57 Q245 40 250 32 Q255 24 265.5 21 Q276 18 281 17 Q287 16 293.5 15.5 Q300 15 307 15 Q311 15 318.5 13.5 Q326 12 326 5 Q326 0 322.5 -0.5 Q319 -1 317 -1 Q309 -1 302.5 -0.5 Q296 0 288 0 L283 0 L200 3 Q194 3 179 3 Q165 3 133 1 Q95 -1 72 -1.5 Q49 -2 20 -2 Q17 -2 11 -1 Q5 0 5 7 Q5 13 10 14 Q15 15 19 15 Q25 15 30.5 15.5 Q36 16 42 17 Q45 17 51.5 18.5 Q58 20 65.5 21.5 Q73 23 79.5 25 Q86 27 88 30 Q92 35 92 46 Q92 57 92 80 L92 641 Q92 646 91 653.5 Q90 661 82 667 Q74 673 54 675 Q34 677 20 677 Q16 677 11.5 678 Q7 679 7 686 Q7 691 14 693 Q21 695 26 695 Q33 695 39 694 Q45 693 52 691 Q57 690 60 690 Q63 690 66 690 L208 689 Q218 689 231.5 689.5 Q245 690 259 690.5 Q273 691 286 691.5 Q299 692 307 692 Q313 692 320 691 Q327 690 327 682 Q327 679 325 675 Q322 672 317 672 L281 671 Q262 671 253 662 Q246 655 244.5 642.5 Q243 630 243 617 L243 381 L484 381 L484 605 Q484 619 481 635.5 Q478 652 470 661 Q462 670 451.5 671.5 Q441 673 433 673 L414 673 Q410 673 404.5 674 Q399 675 399 683 Q399 684 401 688 Q404 692 411 692 Q420 692 428 692 Q437 692 445 691 Q454 690 459 689.5 Q464 689 478 689 L634 689 L638 689 Q658 689 677.5 690.5 Q697 692 718 692 Q720 692 723.5 691.5 Q727 691 727 686 Q727 681 724 680 Q721 679 719 679 Q710 677 701 677 Q693 677 685 676 Q672 675 662.5 672.5 Q653 670 647 664 Q637 654 636 634.5 Q635 615 635 598 L635 106 Q635 83 636 61 Q637 39 651 28 Q658 23 667.5 20 Q677 17 685 15 Q691 14 696.5 13.5 Q702 13 708 12 Q713 11 717.5 10 Q722 9 725 5 Q727 3 727 0 Q727 -5 723.5 -5.5 Q720 -6 718 -6 Q710 -6 703.5 -5 Q697 -4 691 -3 Q683 -2 676 -2 Q670 -2 662 -2 Q632 -2 602 -0.5 Q572 1 542 1 Q530 1 511.5 0.5 Q493 0 474 0 Q456 0 440 -0.5 Q424 -1 417 -1 Q412 -1 406.5 0 Q401 1 401 7 Q401 13 406 14 Q411 15 415 15 Q424 15 441 18 Q458 21 468 26 Q480 32 482 42 Q484 52 484 64 L484 357 L243 357 Z " />
<glyph glyph-name="uni041E" unicode="&#x41e;" horiz-adv-x="710" d="M360 685 Q349 685 336 682 Q323 679 308.5 671 Q294 663 280.5 649.5 Q267 636 255 614 Q235 577 221.5 516.5 Q208 456 208 367 Q208 343 210 304 Q212 265 219 220 Q226 175 240.5 130 Q255 85 280 50 Q291 34 305 23 Q319 12 334.5 8 Q350 4 368 4 Q397 4 420 16.5 Q443 29 460 68 Q474 100 481 132 Q492 178 497 233 Q502 288 502 339 Q502 376 499.5 415.5 Q497 455 491 492.5 Q485 530 476 563.5 Q467 597 455 621 Q450 631 444 640 Q438 649 430 657 Q417 669 399 677 Q381 685 360 685 Z M361 702 Q384 702 409.5 698 Q435 694 462 684.5 Q489 675 516 658.5 Q543 642 569 618 Q595 594 614.5 564 Q634 534 648 502 Q664 465 671 425.5 Q678 386 678 345 Q678 267 652 202 Q626 137 585 92 Q550 53 505 27 Q471 8 433 -2 Q395 -12 356 -12 Q290 -12 231 15.5 Q172 43 128 91 Q80 143 56 209.5 Q32 276 32 346 Q32 391 42 435.5 Q52 480 72 521 Q94 564 128 601 Q157 632 188 651.5 Q219 671 249 682 Q279 693 308 697.5 Q337 702 361 702 Z " />
<glyph glyph-name="uni041F" unicode="&#x41f;" horiz-adv-x="716" d="M243 665 L243 102 Q243 74 244 57 Q245 40 250 32 Q258 21 275 18.5 Q292 16 307 15 Q311 15 318.5 13.5 Q326 12 326 5 Q326 0 322.5 -0.5 Q319 -1 317 -1 Q309 -1 302.5 -0.5 Q296 0 288 0 L283 0 L200 3 Q194 3 179 3 Q165 3 133 1 Q95 -1 72 -1.5 Q49 -2 20 -2 Q14 -2 11 -1 Q5 2 5 7 Q5 10 6 11 Q8 14 12 14.5 Q16 15 19 15 Q25 15 35 16 Q45 17 56 19 Q67 21 76 24 Q85 27 88 30 Q92 35 92 46 Q92 57 92 80 L92 641 Q92 646 91 653.5 Q90 661 82 667 Q74 673 54 675 Q34 677 20 677 Q16 677 11.5 678 Q7 679 7 686 Q7 688 8 689 Q9 690 13 692.5 Q17 695 26 695 Q33 695 39 694 Q45 693 52 691 Q57 690 60 690 Q63 690 66 690 L623 690 Q649 690 667.5 691 Q686 692 707 692 Q709 692 712.5 691.5 Q716 691 716 686 Q716 681 713 680 Q710 679 708 679 Q699 677 690 677 Q682 677 674 676 Q661 675 651.5 672.5 Q642 670 636 664 Q626 654 625 634.5 Q624 615 624 598 L624 106 Q624 83 625 61 Q626 39 640 28 Q647 23 656.5 20 Q666 17 674 15 Q680 14 685.5 13.5 Q691 13 697 12 Q702 11 706.5 10 Q711 9 714 5 Q716 3 716 0 Q716 -5 712.5 -5.5 Q709 -6 707 -6 Q699 -6 692.5 -5 Q686 -4 680 -3 Q672 -2 665 -2 Q659 -2 651 -2 Q621 -2 591 -0.5 Q561 1 531 1 Q519 1 500.5 0.5 Q482 0 463 0 Q445 0 429 -0.5 Q413 -1 406 -1 Q401 -1 395.5 0 Q390 1 390 7 Q390 13 395 14 Q400 15 404 15 Q413 15 430 18 Q447 21 457 26 Q469 32 471 42 Q473 52 473 64 L473 665 L243 665 Z " />
<glyph glyph-name="uni0420" unicode="&#x420;" horiz-adv-x="565" d="M241 363 Q277 362 301 366.5 Q325 371 344 386 Q360 399 369.5 416 Q379 433 383.5 451.5 Q388 470 389 489 Q390 508 390 526 Q390 543 389 561 Q388 579 384.5 596.5 Q381 614 373.5 629 Q366 644 354 655 Q341 666 326 670 Q311 674 292 674 Q287 674 282 674 Q277 674 272 672 Q262 669 256 664 Q245 655 243 644.5 Q241 634 241 625 L241 363 Z M241 84 Q241 67 241 51 Q241 36 248 28 Q251 24 258 21.5 Q265 19 272 18 Q279 17 285.5 16.5 Q292 16 295 16 L314 16 Q325 16 328 12.5 Q331 9 331 7 Q331 5 329.5 1.5 Q328 -2 317 -2 Q309 -2 302 -2 Q296 -2 289 -1 Q282 -1 276 -0.5 Q270 0 263 0 L33 -1 L32 -1 Q29 -1 26 -1.5 Q23 -2 19 -2 Q11 -2 9 1 Q7 3 7 6 Q7 13 13.5 14 Q20 15 22 15 Q27 15 36 15 Q45 15 54.5 16 Q64 17 72.5 19.5 Q81 22 84 26 Q91 34 91 70 L91 597 L91 612 Q91 639 89.5 648.5 Q88 658 86 661 Q83 666 74.5 670 Q66 674 44 674 L26 674 Q21 674 14.5 675 Q8 676 8 683 Q8 690 14 690.5 Q20 691 28 691 L315 692 Q378 692 415 683.5 Q452 675 478 660 Q514 638 532.5 605.5 Q551 573 551 532 Q551 487 531.5 449.5 Q512 412 479 387 Q447 363 404 352 Q361 341 319 341 Q295 341 274.5 344 Q254 347 241 349 L241 84 Z " />
<glyph glyph-name="uni0421" unicode="&#x421;" horiz-adv-x="636" d="M580 529 Q580 516 580.5 504.5 Q581 493 581 482 Q581 474 579.5 468 Q578 462 572 462 Q564 462 562 470.5 Q560 479 559 484 L553 517 Q546 547 535 574.5 Q524 602 501 628 Q483 648 456.5 664.5 Q430 681 391 681 Q371 681 348.5 674.5 Q326 668 309 655 Q300 648 292.5 639.5 Q285 631 278 622 Q262 599 246 559.5 Q230 520 219 452 Q210 393 210 333 Q210 293 214.5 253 Q219 213 228.5 177 Q238 141 252 110.5 Q266 80 286 59 Q298 45 313.5 35 Q329 25 349 19 Q370 13 392 13 Q424 13 449.5 23.5 Q475 34 497 53 Q523 76 536.5 98.5 Q550 121 553 128 Q558 137 561 146.5 Q564 156 567 166 Q573 186 575 196 Q577 206 579 214 Q581 224 586 229 Q589 232 593 232 Q595 232 598 229.5 Q601 227 601 218 Q601 208 599.5 197.5 Q598 187 596 166 Q592 130 591.5 103 Q591 76 591 71 L591 51 L591 48 Q591 37 592 26.5 Q593 16 593 5 Q593 3 592.5 -2 Q592 -7 587 -7 Q584 -7 581.5 -3.5 Q579 0 577 3 Q569 17 559 30 Q549 43 530 50 Q520 40 505.5 29 Q491 18 471.5 8.5 Q452 -1 427 -7.5 Q402 -14 371 -14 Q305 -14 244 13.5 Q183 41 138 84 Q108 113 87.5 146 Q67 179 55 213.5 Q43 248 37.5 282 Q32 316 32 346 Q32 413 54 475.5 Q76 538 116 586 Q133 607 156.5 628 Q180 649 211.5 666 Q243 683 282.5 693.5 Q322 704 371 704 Q397 704 424.5 698.5 Q452 693 484 674 Q492 669 503.5 663 Q515 657 529 657 Q542 657 551.5 663.5 Q561 670 567 676 Q574 684 577 687 Q580 690 582 690 Q583 690 585 689.5 Q587 689 587 684 Q587 679 586 674 Q585 669 583 650 Q581 634 580.5 613.5 Q580 593 580 576 L580 529 Z " />
<glyph glyph-name="uni0422" unicode="&#x422;" horiz-adv-x="586" d="M366 103 Q366 74 367 57 Q368 40 374 32 Q377 28 387 24 Q394 22 400 21.5 Q406 21 414 20 L451 16 Q454 16 458 14 Q462 13 462 8 Q462 2 458 -0.5 Q454 -3 441 -3 Q432 -3 421.5 -2 Q411 -1 395 -0.5 Q379 0 354.5 1 Q330 2 292 2 Q280 2 267.5 1.5 Q255 1 243 1 Q215 0 188 -0.5 Q161 -1 133 -1 Q124 -1 121.5 1.5 Q119 4 119 7 Q119 13 121.5 14.5 Q124 16 128 16 L156 16 Q167 16 176 16.5 Q185 17 195 21 Q201 23 207 28 Q213 33 215 42 Q215 43 216 53.5 Q217 64 217 104 L217 668 Q203 669 189 669 Q148 669 114 661 Q80 653 60 625 Q47 608 40 580 Q33 552 23 508 Q21 502 19 496.5 Q17 491 9 491 Q0 491 0 501 Q0 506 0 510 Q1 524 3 544 Q6 582 8 605.5 Q10 629 11 644 Q12 659 13 669.5 Q14 680 14 692 Q67 692 97 692 Q125 692 146 691 Q167 690 184.5 689.5 Q202 689 228 689 L354 689 Q388 689 425.5 689.5 Q463 690 496.5 690.5 Q530 691 546 691 Q567 692 575 693 Q576 667 577.5 642.5 Q579 618 583 589 L591 525 Q593 510 591.5 504 Q590 498 585 498 Q577 498 574 506.5 Q571 515 569 520 Q555 570 544.5 598 Q534 626 516 642 Q504 652 489.5 658 Q475 664 460 666.5 Q445 669 431.5 669.5 Q418 670 408 670 Q394 670 384.5 669.5 Q375 669 366 668 L366 103 Z " />
<glyph glyph-name="uni0423" unicode="&#x423;" horiz-adv-x="587" d="M71 609 Q61 632 48 652.5 Q35 673 12 674 L-17 675 Q-22 675 -27 674.5 Q-32 674 -36 674 Q-41 674 -44.5 675 Q-48 676 -48 683 Q-48 692 -41 693 Q-34 694 -26 694 Q-4 694 22 692.5 Q48 691 77 691 L184 691 Q198 691 211 691.5 Q224 692 238 693 Q252 694 266 694 Q281 694 296 694 Q301 694 310.5 693 Q320 692 320 682 Q320 674 312.5 673.5 Q305 673 300 673 L227 671 Q216 671 211 664.5 Q206 658 206 651 Q206 648 207 644 Q208 640 209 638 L404 190 Q422 243 436 292 Q450 341 464 398 Q476 448 482.5 479.5 Q489 511 495 539 Q500 562 503 579 Q506 596 506 612 Q506 627 503 636.5 Q500 646 489 655 Q470 670 449 672 L424 673 Q422 673 416 674 Q410 675 410 682 Q410 685 412.5 689.5 Q415 694 429 694 Q452 694 473.5 693 Q495 692 516 692 Q545 692 572.5 693 Q600 694 635 694 Q641 694 644 692.5 Q647 691 647 683 Q647 677 644 675 Q641 673 627 673 Q612 673 593 670.5 Q574 668 559 651 Q549 640 543.5 622.5 Q538 605 533 582 Q528 561 524 539 Q520 517 514 491 Q508 465 500.5 431.5 Q493 398 481 353 Q470 312 459 272 Q448 232 434.5 190.5 Q421 149 403.5 106 Q386 63 363 15 Q350 -11 335 -36 Q320 -61 292 -84 Q274 -99 249.5 -110.5 Q225 -122 193 -122 Q163 -122 139.5 -111.5 Q116 -101 102 -85 Q89 -71 83 -52 Q77 -33 77 -16 Q77 17 97 40 Q117 63 152 63 Q187 63 204 41.5 Q221 20 221 -3 Q221 -26 210 -38.5 Q199 -51 182 -51 Q178 -51 170 -49 Q164 -47 160 -47 Q147 -47 147 -61 Q147 -72 156.5 -83 Q166 -94 194 -94 Q227 -94 259 -74 Q270 -66 281 -57 Q292 -48 300 -37 Q309 -26 318 -10.5 Q327 5 334 17 L71 609 Z " />
<glyph glyph-name="uni0424" unicode="&#x424;" horiz-adv-x="860" d="M500 137 Q526 136 547.5 141.5 Q569 147 586.5 156.5 Q604 166 617 178 Q630 190 639 202 Q658 228 669 266.5 Q680 305 680 359 Q680 422 667 461.5 Q654 501 637 525 Q615 555 580 575 Q545 595 500 593 L500 137 L500 137 Z M360 593 Q315 595 280 575 Q245 555 223 525 Q206 501 193 461.5 Q180 422 180 359 Q180 305 191 266.5 Q202 228 221 202 Q230 190 243 178 Q256 166 273.5 156.5 Q291 147 312.5 141.5 Q334 136 360 137 L360 593 Z M358 118 Q333 118 304.5 119.5 Q276 121 246 127 Q216 133 186.5 144.5 Q157 156 130 174 Q116 183 99 198.5 Q82 214 67 237 Q52 260 42 292 Q32 324 32 366 Q32 442 67 499.5 Q102 557 168 583 Q188 591 212 596.5 Q236 602 261 605.5 Q286 609 311 610.5 Q336 612 358 612 L358 650 Q358 656 358 661.5 Q358 667 356 676 Q354 685 347 687.5 Q340 690 333.5 691 Q327 692 320 692.5 Q313 693 307.5 693.5 Q302 694 299 694 L290 694 Q279 694 279 702 Q279 709 283.5 710 Q288 711 301 711 Q316 711 356 710 Q396 709 446 709 Q471 709 488 709.5 Q505 710 518 710 Q531 710 542 710.5 Q553 711 564 711 Q572 711 578.5 710 Q585 709 585 702 Q585 694 574 693.5 Q563 693 541 692 Q533 692 525 691 Q517 690 512.5 685.5 Q508 681 506 674 Q504 667 503 660 Q502 653 502 647 L502 612 Q524 612 549 610.5 Q574 609 599 605.5 Q624 602 648 596.5 Q672 591 692 583 Q758 557 793 499.5 Q828 442 828 366 Q828 324 818 292 Q808 260 793 237 Q778 214 761 198.5 Q744 183 730 174 Q703 156 673.5 144.5 Q644 133 614 127 Q584 121 555.5 119.5 Q527 118 502 118 L502 64 Q502 52 504 39.5 Q506 27 512 24 Q518 21 535 19 Q557 16 576 16 Q579 16 583.5 14.5 Q588 13 588 8 Q588 2 582 1 Q576 0 561 0 Q548 0 538 0 Q529 0 523.5 0.5 Q518 1 513.5 1.5 Q509 2 497 2.5 Q485 3 461 3 Q438 3 395 3 Q353 3 330 1.5 Q307 0 297 0 Q283 0 277.5 1 Q272 2 272 9 Q272 13 276.5 15.5 Q281 18 298 18 Q316 18 332.5 19 Q349 20 352.5 30 Q356 40 357 57 Q358 74 358 85 L358 118 L358 118 Z " />
<glyph glyph-name="uni0425" unicode="&#x425;" horiz-adv-x="699" d="M566 106 Q578 85 586 71 Q594 57 600 48.5 Q606 40 610.5 35.5 Q615 31 619 28 Q629 22 644 20.5 Q659 19 668 19 Q675 19 681 19.5 Q687 20 695 20 Q699 20 704.5 18.5 Q710 17 710 10 Q710 2 702.5 1 Q695 0 690 0 Q655 0 625 0.5 Q595 1 563 1 Q537 1 511.5 0.5 Q486 0 460 0 Q435 0 411 -0.5 Q387 -1 360 -1 Q356 -1 352 -1 Q348 -1 345 4 Q343 8 343 9 Q343 13 347 18 Q351 23 362 23 Q367 23 373 22 Q379 21 384 20 Q389 19 392 19 Q396 19 401 19 Q406 19 412 19.5 Q418 20 423 20 Q428 20 438 22 Q449 25 449 35 Q449 39 446 47 Q443 55 439 63.5 Q435 72 431 79 Q427 86 426 88 L304 306 L164 84 Q150 61 147 51.5 Q144 42 144 38 Q144 27 153 23 Q155 21 164.5 20 Q174 19 206 19 L232 19 Q239 19 240.5 15.5 Q242 12 242 10 Q242 1 233.5 -0.5 Q225 -2 220 -2 Q206 -2 197 -1.5 Q188 -1 176 -1 Q164 -1 144 -0.5 Q124 0 89 0 Q75 0 62 0 Q49 0 35 -1 Q30 -1 24.5 -1.5 Q19 -2 13 -2 Q10 -2 3 -1 Q-4 0 -4 7 Q-4 13 1.5 14.5 Q7 16 12 16 Q30 17 51.5 21.5 Q73 26 88 35 Q99 42 111.5 55.5 Q124 69 131 80 L289 331 L138 612 Q134 619 130.5 625.5 Q127 632 123 638 Q120 643 117.5 646.5 Q115 650 111 654 Q106 659 100 663.5 Q94 668 87 670 Q80 672 68.5 672.5 Q57 673 28 674 Q24 674 18 675.5 Q12 677 12 682 Q12 686 17.5 689 Q23 692 40 692 Q49 692 51.5 691.5 Q54 691 56 691 Q59 691 63 690.5 Q67 690 78 690 L231 688 Q251 688 261 688 Q272 688 283.5 689 Q295 690 311 690.5 Q327 691 358 691 Q363 691 367.5 690 Q372 689 372 682 Q372 678 369.5 674.5 Q367 671 363 671 L329 671 Q312 671 303 669.5 Q294 668 289 664 Q283 659 282 655 Q281 651 281 647 Q281 634 287 624 L385 441 L497 608 Q511 629 513.5 640 Q516 651 516 653 Q516 661 512 665.5 Q508 670 502 672 Q496 674 489 674 Q483 674 479 674 L454 674 Q452 674 448 674.5 Q444 675 442 678 Q441 679 441 682 Q441 689 446 690.5 Q451 692 455 692 Q463 692 469 691.5 Q475 691 482 691 L487 691 L555 689 Q560 689 570 689.5 Q580 690 585 690 Q598 691 610 691.5 Q622 692 635 692 Q640 692 649.5 691 Q659 690 659 682 Q659 680 657.5 677 Q656 674 648 674 L620 674 Q611 674 596 672 Q581 670 571 664 Q561 658 550 642 Q539 626 514 589 L400 415 L566 106 Z " />
<glyph glyph-name="uni0426" unicode="&#x426;" horiz-adv-x="714" d="M475 628 Q475 644 472 652 Q469 660 465 664 Q457 672 444 672 L414 672 Q406 672 398 673 Q390 674 390 681 Q390 689 396.5 690 Q403 691 410 691 Q421 691 426.5 690.5 Q432 690 439 690 Q446 690 459 689.5 Q472 689 499 689 Q556 689 599 689.5 Q642 690 658 690 Q671 691 679 691.5 Q687 692 695 692 Q705 692 707.5 689.5 Q710 687 710 683 Q710 677 702.5 676 Q695 675 667 674 Q651 673 644.5 670.5 Q638 668 635 666 Q628 660 626.5 649.5 Q625 639 625 631 L625 51 Q625 46 625 40 Q625 35 628 31 Q631 26 636.5 24.5 Q642 23 648 21 Q658 19 666.5 17 Q675 15 686 8 Q700 0 709.5 -13 Q719 -26 719 -49 Q719 -74 705.5 -99.5 Q692 -125 673 -144 Q665 -152 651.5 -163 Q638 -174 620 -184.5 Q602 -195 579 -202.5 Q556 -210 530 -210 Q514 -210 502.5 -207.5 Q491 -205 480 -200 L342 -147 Q322 -139 304.5 -132.5 Q287 -126 270 -126 Q246 -126 232.5 -140.5 Q219 -155 219 -178 Q219 -186 221.5 -191 Q224 -196 227 -196 Q230 -196 233 -191.5 Q236 -187 239 -185 Q248 -177 262 -177 Q277 -177 284 -186 Q291 -195 291 -206 Q291 -223 276 -229 Q261 -235 252 -235 Q244 -235 234 -231.5 Q224 -228 215 -221 Q206 -214 200 -203 Q194 -192 194 -177 Q194 -157 207.5 -133 Q221 -109 260 -90 Q283 -79 306.5 -73.5 Q330 -68 351 -68 Q365 -68 384 -71 Q403 -74 414 -78 L523 -115 Q539 -120 563 -127 Q587 -134 603 -134 Q620 -134 636.5 -128 Q653 -122 669 -106 Q677 -98 686 -83.5 Q695 -69 695 -49 Q695 -31 687 -22 Q679 -13 670 -8 Q656 -1 637 -0.5 Q618 0 599 0 L119 0 Q102 0 84.5 0.5 Q67 1 50 0 Q43 0 36.5 -0.5 Q30 -1 23 -1 Q17 -1 11 0.5 Q5 2 5 9 Q5 16 13 17 Q21 18 29 18 L59 18 Q65 18 72 19.5 Q79 21 84 26 Q91 33 91.5 42 Q92 51 92 62 L92 631 Q92 639 91.5 649 Q91 659 84 666 Q79 671 71 672 Q63 673 55 673 Q33 674 20 674.5 Q7 675 7 684 Q7 688 10 690 Q13 692 23 692 Q28 692 33.5 691.5 Q39 691 56 690.5 Q73 690 106.5 689.5 Q140 689 202 689 Q235 689 249.5 689.5 Q264 690 272 690 Q280 690 286 690.5 Q292 691 307 691 Q314 691 320.5 690 Q327 689 327 681 Q327 674 319 673 Q311 672 303 672 L273 672 Q260 672 252 664 Q248 660 245 652 Q242 644 242 628 L242 24 L475 24 L475 628 Z " />
<glyph glyph-name="uni0427" unicode="&#x427;" horiz-adv-x="666" d="M428 343 Q397 334 364.5 329 Q332 324 294 324 Q277 324 256 325.5 Q235 327 213 332.5 Q191 338 169.5 348 Q148 358 131 376 Q111 397 100 426 Q89 455 89 484 L89 634 Q89 643 88.5 653.5 Q88 664 83 669 Q78 675 67.5 675.5 Q57 676 46 676 Q27 677 16 678 Q5 679 5 687 Q5 690 7.5 692.5 Q10 695 20 695 Q27 695 29 695 Q32 695 33.5 694.5 Q35 694 38 693.5 Q41 693 49 693 Q59 693 77.5 692.5 Q96 692 120 692 Q144 692 171 692 Q198 692 226 692 Q248 692 259 692.5 Q270 693 275 693 Q281 693 284.5 693.5 Q288 694 295 694 Q302 694 308 692.5 Q314 691 314 684 Q314 677 306 676 Q298 675 290 675 L270 675 Q251 675 245 667 Q243 665 241 657.5 Q239 650 239 631 L239 464 Q239 442 244 418.5 Q249 395 271 377 Q286 364 308 357.5 Q330 351 349 351 Q365 351 388 356 Q411 361 428 367 L428 629 Q428 648 426 655.5 Q424 663 422 665 Q416 673 397 673 L376 673 Q368 673 360 674 Q352 675 352 682 Q352 689 358 690.5 Q364 692 370 692 Q375 692 378.5 691.5 Q382 691 387 691 Q400 690 413 690 Q426 690 439 690 Q452 690 477 690 Q503 690 530 690 Q557 690 582 690.5 Q607 691 621 691 Q636 692 638.5 692.5 Q641 693 651 693 Q661 693 663.5 690.5 Q666 688 666 685 Q666 676 653.5 675.5 Q641 675 618 674 Q610 674 599.5 673 Q589 672 584 667 Q579 662 578.5 651.5 Q578 641 578 632 L578 73 Q578 51 579 41.5 Q580 32 583 28 Q589 19 608 18.5 Q627 18 649 17 Q653 17 659 15.5 Q665 14 665 9 Q665 6 662 3 Q659 0 646 0 L431 1 Q417 1 407.5 0.5 Q398 0 391 -0.5 Q384 -1 377 -1 Q371 -1 363 -1 Q356 -1 350.5 0 Q345 1 345 7 Q345 13 356.5 14.5 Q368 16 392 18 Q399 19 408.5 19.5 Q418 20 423 25 Q425 27 426.5 33 Q428 39 428 56 L428 343 Z " />
<glyph glyph-name="uni0428" unicode="&#x428;" horiz-adv-x="1009" d="M923 73 Q923 51 924 41.5 Q925 32 928 28 Q932 23 943.5 20 Q955 17 966 17 L993 17 Q998 17 1003.5 16 Q1009 15 1009 9 Q1009 1 1001.5 0 Q994 -1 984 -1 Q952 -1 919.5 0 Q887 1 855 1 Q833 1 811 0.5 Q789 0 767 0 L247 0 Q225 0 203 0.5 Q181 1 159 1 Q127 1 94.5 0 Q62 -1 30 -1 Q20 -1 12.5 0 Q5 1 5 9 Q5 15 10.5 16 Q16 17 21 17 L48 17 Q59 17 70.5 20 Q82 23 86 28 Q89 32 90 41.5 Q91 51 91 73 L91 634 Q91 643 90.5 653.5 Q90 664 85 669 Q80 674 70.5 674.5 Q61 675 47 676 Q28 677 17 677.5 Q6 678 6 687 Q6 690 8.5 692.5 Q11 695 21 695 Q27 695 29 695 Q32 695 34.5 694.5 Q37 694 41 693.5 Q45 693 53 693 Q63 693 83 692.5 Q103 692 126 692 Q150 692 173 692 Q197 692 214 692 Q235 692 247 692.5 Q259 693 265 693 Q272 693 276.5 693.5 Q281 694 287 694 Q295 694 299 693 Q301 692 304 690.5 Q307 689 307 684 Q307 677 299 676 Q291 675 283 675 L262 675 Q243 675 237 667 Q235 665 233 657.5 Q231 650 231 631 L231 25 L437 25 L437 631 Q437 650 435 657.5 Q433 665 431 667 Q425 675 406 675 L385 675 Q377 675 369 676 Q361 677 361 684 Q361 691 367 692.5 Q373 694 379 694 Q384 694 390 693.5 Q396 693 401 693 Q413 692 424 692 Q436 692 448 692 Q459 692 481 692 Q504 692 528 692 Q553 692 574.5 692.5 Q596 693 607 693 Q621 694 627 694.5 Q633 695 639 695 Q649 695 651 692 Q653 689 653 687 Q653 679 646 678.5 Q639 678 612 676 Q604 676 599 675 Q594 674 590 673 Q586 672 583 669 Q578 664 577.5 653.5 Q577 643 577 634 L577 25 L783 25 L783 631 Q783 650 781 657.5 Q779 665 777 667 Q774 671 767 673 Q762 675 752 675 L731 675 Q723 675 715 676 Q707 677 707 684 Q707 686 709 690 Q712 693 718 693.5 Q724 694 727 694 Q732 694 736 693.5 Q740 693 745 693 Q758 692 771 692 Q784 692 797 692 Q809 692 830 692 Q852 692 876 692 Q900 692 922.5 692.5 Q945 693 959 693 Q971 694 978.5 694.5 Q986 695 993 695 Q1004 695 1006 692 Q1008 689 1008 686 Q1008 682 1007 681 Q1005 678 999 678 Q998 678 991 677.5 Q984 677 967 676 Q962 676 957 676 Q952 676 947 675 Q942 674 937 673.5 Q932 673 929 669 Q924 664 923.5 653.5 Q923 643 923 634 L923 73 Z " />
<glyph glyph-name="uni0429" unicode="&#x429;" horiz-adv-x="1023" d="M795 631 Q795 650 793 657.5 Q791 665 789 667 Q783 675 764 675 L741 675 Q733 675 725 676 Q717 677 717 684 Q717 692 724 693 Q731 694 737 694 Q744 694 748 693.5 Q752 693 758 693 Q764 693 775.5 692.5 Q787 692 809 692 Q822 692 844 692 Q866 692 889 692 Q913 692 935 692.5 Q957 693 971 693 Q983 694 990.5 694.5 Q998 695 1005 695 Q1016 695 1018 692 Q1020 689 1020 686 Q1020 679 1013.5 678.5 Q1007 678 979 676 Q965 675 955.5 674.5 Q946 674 941 669 Q936 664 935.5 653.5 Q935 643 935 634 L935 51 Q935 47 936 40 Q937 33 940 29 Q944 24 950 23 Q956 22 961 21 Q964 20 975.5 17 Q987 14 998 7 Q1011 -1 1019.5 -13.5 Q1028 -26 1028 -48 Q1028 -73 1016 -98 Q1004 -123 982 -145 Q953 -174 912.5 -195.5 Q872 -217 825 -217 Q802 -217 782 -212.5 Q762 -208 745 -202 L581 -146 Q566 -141 549 -135 Q532 -129 509 -129 Q502 -129 491.5 -130.5 Q481 -132 471 -139 Q463 -145 457 -155 Q451 -165 451 -177 Q451 -186 454.5 -191.5 Q458 -197 461 -197 Q464 -197 466 -192 Q468 -187 474 -182 Q480 -176 489 -176 Q501 -176 512 -183.5 Q523 -191 523 -203 Q523 -214 513.5 -224.5 Q504 -235 484 -235 Q460 -235 443.5 -219.5 Q427 -204 427 -178 Q427 -163 433.5 -149.5 Q440 -136 449 -125 Q458 -114 469 -105.5 Q480 -97 489 -92 Q510 -80 540 -72.5 Q570 -65 596 -65 Q617 -65 636 -68.5 Q655 -72 669 -77 L796 -116 Q837 -129 860.5 -132 Q884 -135 895 -135 Q900 -135 923.5 -132 Q947 -129 970 -113 Q1005 -88 1005 -48 Q1005 -20 980 -9 Q966 -3 945.5 -1.5 Q925 0 895 0 L247 0 Q225 0 203 0.5 Q181 1 159 1 Q127 1 94.5 0 Q62 -1 30 -1 Q20 -1 12.5 0 Q5 1 5 9 Q5 15 10.5 16 Q16 17 21 17 L48 17 Q52 17 61 17.5 Q70 18 79 23 Q82 24 86 28 Q88 30 88 31 Q88 33 89 35 Q90 38 90.5 46 Q91 54 91 73 L91 634 Q91 643 90.5 653.5 Q90 664 85 669 Q80 674 70.5 674.5 Q61 675 47 676 Q28 677 17 677.5 Q6 678 6 687 Q6 690 8.5 692.5 Q11 695 21 695 Q26 695 29.5 694.5 Q33 694 38 694 Q46 693 53 693 Q60 693 68 693 Q105 692 141 692 Q177 692 214 692 Q236 692 248 692.5 Q260 693 266 693 Q273 693 277.5 693.5 Q282 694 289 694 Q295 694 302 693 Q309 692 309 684 Q309 677 301 676 Q293 675 285 675 L262 675 Q243 675 237 667 Q235 663 233 657 Q231 650 231 644 Q231 638 231 631 L231 25 L443 25 L443 631 Q443 638 443 644 Q443 650 441 657 Q439 663 437 667 Q431 675 412 675 L389 675 Q381 675 373 676 Q365 677 365 684 Q365 691 371 692.5 Q377 694 383 694 Q396 694 400 693.5 Q404 693 407 693 Q411 693 420.5 692.5 Q430 692 454 692 Q491 692 527 692 Q563 692 600 693 Q608 693 615 693 Q622 693 630 694 Q635 694 638.5 694.5 Q642 695 647 695 Q650 695 654 694 Q658 693 660 691 Q661 690 661 687 Q661 680 657 679 Q653 678 639 677 Q634 677 629.5 676.5 Q625 676 620 676 Q609 675 601 674.5 Q593 674 589 669 Q587 667 585 660 Q583 653 583 647 Q583 641 583 634 L583 25 L795 25 L795 631 Z " />
<glyph glyph-name="uni042A" unicode="&#x42a;" horiz-adv-x="766" d="M392 44 Q392 36 400 28.5 Q408 21 437 21 Q490 21 517 41 Q544 61 558 94 Q570 121 574 148 Q578 175 578 201 Q578 218 576.5 238 Q575 258 570.5 278 Q566 298 557 316.5 Q548 335 534 350 Q511 374 485.5 379.5 Q460 385 436 385 Q422 385 411.5 384.5 Q401 384 392 383 L392 44 Z M344 692 Q354 692 363 692 Q372 692 384 692.5 Q396 693 413 693 Q430 693 455 693 Q458 693 465.5 692 Q473 691 473 685 Q473 678 466 676.5 Q459 675 453 675 L423 674 Q417 674 410.5 672.5 Q404 671 400 667 Q395 662 393.5 649 Q392 636 392 623 L392 407 Q403 408 422.5 408.5 Q442 409 461 409 Q496 409 536.5 405 Q577 401 612 388 Q626 383 640 376 Q654 369 666 359 Q675 353 687 340.5 Q699 328 710.5 309 Q722 290 730 264 Q738 238 738 204 Q738 147 716.5 109 Q695 71 655 45 Q613 18 567.5 9.5 Q522 1 471 1 Q436 1 400.5 3 Q365 5 330 5 Q311 5 288.5 4 Q266 3 235 2 Q210 1 198.5 0.5 Q187 0 176 0 Q174 0 168 1 Q162 2 162 9 Q162 14 168 16 Q173 18 177 18 Q182 18 188 18 Q208 19 217 20 Q226 21 231 24 Q242 32 242 50 Q242 68 242 85 L242 671 Q178 672 148 668.5 Q118 665 102 659 Q76 649 63 631 Q50 613 42 592 Q38 581 35 566.5 Q32 552 27 529 Q25 521 22.5 509.5 Q20 498 12 498 Q8 498 4 502 Q0 506 0 519 Q0 527 0.5 536 Q1 545 3 564 Q5 591 6.5 608 Q8 625 9 638.5 Q10 652 11 664.5 Q12 677 14 695 Q65 695 95.5 694.5 Q126 694 150 693.5 Q174 693 199 692.5 Q224 692 263 692 L344 692 Z " />
<glyph glyph-name="uni042B" unicode="&#x42b;" horiz-adv-x="856" d="M223 44 Q223 37 229.5 29 Q236 21 266 21 Q294 21 313 27 Q332 33 345 43.5 Q358 54 366 67 Q374 80 380 94 Q394 128 396.5 154 Q399 180 399 205 Q399 223 398 242.5 Q397 262 392.5 281 Q388 300 380 317.5 Q372 335 358 350 Q331 378 295 383 Q259 388 223 383 L223 44 Z M177 691 Q211 691 224 691 Q238 691 245 691.5 Q252 692 259 692.5 Q266 693 286 693 Q297 693 299.5 690 Q302 687 302 685 Q302 680 297 678 Q292 676 285 675 Q278 674 270 674 Q263 674 258 674 Q250 674 242.5 673 Q235 672 230 667 Q227 664 226.5 659.5 Q226 655 225 650 Q224 643 223.5 636.5 Q223 630 223 623 L223 407 Q241 409 258 409 Q276 409 294 409 Q313 409 335.5 408 Q358 407 382 402.5 Q406 398 430.5 387.5 Q455 377 478 359 Q510 333 528.5 296 Q547 259 547 205 Q547 157 530 116.5 Q513 76 468 45 Q428 17 386 9 Q344 1 300 1 Q267 1 234.5 3 Q202 5 170 5 Q138 5 113 3.5 Q88 2 60 1 L19 0 Q14 0 10.5 2 Q7 4 7 9 Q7 13 11.5 15.5 Q16 18 32 18 Q45 18 57.5 19 Q70 20 75 24 Q84 31 84.5 48.5 Q85 66 85 85 L85 626 Q85 634 85 640 Q85 646 84 652 Q83 660 80 664 Q77 669 71 671 Q69 672 64 672.5 Q59 673 46 675 Q38 676 34 676 Q31 676 28 676 L18 676 Q8 676 8 684 Q8 686 9.5 689.5 Q11 693 19 693 L177 691 Z M628 588 Q628 624 628 639 Q628 655 626 660 Q623 666 611.5 670.5 Q600 675 586 675 Q581 675 575.5 674.5 Q570 674 564 674 Q561 674 558 674.5 Q555 675 553 677 Q551 679 551 682 Q551 689 554.5 690 Q558 691 562 691 Q575 691 581.5 690.5 Q588 690 598 690 Q609 690 629.5 689.5 Q650 689 691 689 L742 689 Q763 689 775 689.5 Q787 690 795 690.5 Q803 691 809 691.5 Q815 692 826 692 Q830 692 835 691 Q840 690 840 685 Q840 677 834.5 676 Q829 675 825 675 Q823 675 817 675 Q811 675 803.5 674.5 Q796 674 788.5 672.5 Q781 671 777 669 Q772 665 770 660 Q768 655 767 652 Q766 649 766 642 L766 77 Q766 54 767.5 44 Q769 34 773 29 Q781 19 801 17.5 Q821 16 836 15 Q838 15 842 13 Q846 11 846 3 Q846 -1 835 -1 Q816 -1 805.5 -0.5 Q795 0 784 1 Q773 2 756 2.5 Q739 3 708 3 Q691 3 671 2.5 Q651 2 621 1 Q605 1 590 0 Q575 -1 558 -1 Q556 -1 552 -1 Q549 -1 547 3 Q546 4 546 8 Q546 16 556 16 Q562 16 567.5 15.5 Q573 15 578 15 Q589 15 603.5 19 Q618 23 623 31 Q625 35 626.5 44.5 Q628 54 628 83 L628 588 Z " />
<glyph glyph-name="uni042C" unicode="&#x42c;" horiz-adv-x="612" d="M238 44 Q238 36 246 28.5 Q254 21 283 21 Q320 21 352.5 35.5 Q385 50 405 94 Q413 111 418.5 138 Q424 165 424 210 Q424 243 416.5 282 Q409 321 380 350 Q354 376 319 382 Q284 388 238 383 L238 44 Z M190 691 Q215 691 233 691 Q252 691 265 691.5 Q278 692 286.5 692.5 Q295 693 302 693 Q313 693 316 690.5 Q319 688 319 685 Q319 680 314 678 Q309 676 302 675 Q295 674 287 674 Q280 674 275 674 Q269 674 260 673 Q251 672 246 667 Q243 664 242 659.5 Q241 655 240 650 Q239 643 238.5 636.5 Q238 630 238 623 L238 407 Q257 409 275 409 Q294 409 313 409 Q335 409 360 408 Q385 407 411 402.5 Q437 398 462.5 387.5 Q488 377 512 359 Q525 349 537.5 335 Q550 321 560.5 302.5 Q571 284 577.5 259.5 Q584 235 584 205 Q584 148 562.5 109.5 Q541 71 501 45 Q459 17 413.5 9 Q368 1 323 1 Q285 1 248 3 Q211 5 173 5 Q140 5 116 3.5 Q92 2 61 1 L21 0 Q16 0 12 2 Q8 4 8 9 Q8 14 13.5 15.5 Q19 17 34 18 Q54 19 63 20 Q72 21 77 24 Q88 32 88 50 Q88 68 88 85 L88 626 Q88 634 88 640 Q88 646 87 652 Q86 660 83 664 Q79 669 73 671 Q71 672 65.5 672.5 Q60 673 47 675 Q38 676 34 676 Q31 676 28 676 L20 676 Q9 676 9 684 Q9 691 13.5 692 Q18 693 21 693 L190 691 Z " />
<glyph glyph-name="uni042D" unicode="&#x42d;" horiz-adv-x="638" d="M248 419 Q256 427 276 439.5 Q296 452 321 452 Q330 452 355.5 446 Q381 440 431 412 Q430 438 426 465.5 Q422 493 415.5 519 Q409 545 399.5 568.5 Q390 592 378 610 Q370 623 358 636.5 Q346 650 331 660.5 Q316 671 297 678 Q278 685 256 685 Q217 685 176.5 665.5 Q136 646 113 599 Q102 578 94.5 548.5 Q87 519 85 497 Q84 492 82 484.5 Q80 477 71 477 Q64 477 63 482 Q62 487 62 492 Q63 529 63.5 551.5 Q64 574 64 588 Q64 602 63.5 612.5 Q63 623 62 638 Q60 659 58 666 Q56 673 56 681 Q56 684 57 688 Q58 692 65 692 Q71 692 72.5 688.5 Q74 685 75 680 Q76 677 77 674 Q78 671 79 668 Q81 663 84.5 656 Q88 649 97 649 Q102 649 108.5 652.5 Q115 656 128 664 Q143 674 157 681.5 Q171 689 186 694 Q201 699 218.5 702 Q236 705 258 705 Q275 705 291 703.5 Q307 702 324 700 Q362 694 403 678.5 Q444 663 475 640 Q498 623 524 593 Q550 563 565 534 Q574 516 582 493 Q590 470 595 445 Q600 420 603 395.5 Q606 371 606 350 Q606 297 590.5 237.5 Q575 178 540 130 Q516 97 483.5 70.5 Q451 44 419 28 Q378 8 329 -2 Q280 -12 236 -12 Q227 -12 211.5 -11.5 Q196 -11 178 -8 Q160 -5 140.5 0.5 Q121 6 103 16 Q69 34 47.5 66 Q26 98 26 133 Q26 150 32.5 166.5 Q39 183 51 194 Q61 203 74 207.5 Q87 212 101 212 Q129 212 147.5 193 Q166 174 166 145 Q166 113 149.5 99.5 Q133 86 115 86 Q112 86 109.5 86.5 Q107 87 104 88 Q101 90 98.5 91 Q96 92 93 92 Q90 92 86 89.5 Q82 87 82 80 Q82 67 94.5 55 Q107 43 119 36 Q139 25 171 17 Q203 9 230 9 Q249 9 268 13 Q287 17 304 25 Q319 32 334.5 43.5 Q350 55 365 73 Q380 91 392.5 115.5 Q405 140 414 174 Q420 196 423.5 218 Q427 240 429 263 Q435 320 432 390 Q430 391 428.5 391.5 Q427 392 425 393 Q415 397 408 398 Q401 399 396 399 Q377 399 364 389.5 Q351 380 335 366 L275 311 Q240 279 199 279 Q180 279 167 283 Q162 285 156.5 286.5 Q151 288 146 290 L103 307 Q99 309 95.5 310.5 Q92 312 88 314 Q84 316 79 319.5 Q74 323 74 330 Q74 343 85 343 Q91 343 99 337 Q101 335 103 333.5 Q105 332 107 330 Q111 326 115.5 323.5 Q120 321 128 321 Q140 321 151.5 330.5 Q163 340 180 355 L248 419 Z " />
<glyph glyph-name="uni042E" unicode="&#x42e;" horiz-adv-x="976" d="M652 685 Q632 685 605 671 Q578 657 557 614 Q552 603 544.5 584 Q537 565 530 535.5 Q523 506 518.5 464 Q514 422 514 367 Q514 345 515.5 305.5 Q517 266 524 220.5 Q531 175 544 129.5 Q557 84 580 50 Q598 23 616.5 13.5 Q635 4 659 4 Q681 4 703 15 Q725 26 742 67 Q753 93 760 129 Q767 165 771.5 203.5 Q776 242 778 277.5 Q780 313 780 339 Q780 367 778 403.5 Q776 440 771 479 Q766 518 758 555 Q750 592 737 621 Q733 630 726.5 641 Q720 652 710 661.5 Q700 671 685.5 678 Q671 685 652 685 Z M206 689 Q216 689 229.5 689.5 Q243 690 257.5 690.5 Q272 691 284.5 691.5 Q297 692 305 692 Q311 692 318 691 Q325 690 325 682 Q325 672 315 672 Q260 671 252 663 Q244 655 242.5 642.5 Q241 630 241 617 L241 381 L356 381 Q358 420 366.5 453 Q375 486 387 513.5 Q399 541 412.5 563 Q426 585 440 601 Q485 655 541.5 678.5 Q598 702 653 702 Q695 702 744.5 684.5 Q794 667 842 618 Q888 570 916 502 Q944 434 944 348 Q944 267 919.5 202.5 Q895 138 857 92 Q831 61 803.5 41 Q776 21 748.5 9 Q721 -3 695.5 -7.5 Q670 -12 648 -12 Q591 -12 535 15.5 Q479 43 440 91 Q399 140 376 211 Q353 282 355 357 L241 357 L241 102 Q241 74 242 57 Q243 40 249.5 30.5 Q256 21 273 18.5 Q290 16 305 15 Q309 15 316.5 13.5 Q324 12 324 5 Q324 0 320.5 -0.5 Q317 -1 315 -1 Q307 -1 300.5 -0.5 Q294 0 281 0 L194 3 Q174 2 154 1.5 Q134 1 102 0 Q76 -1 58.5 -1.5 Q41 -2 31 -2 Q20 -2 14 -1 Q8 0 8 7 Q8 13 13 14 Q18 15 22 15 Q33 15 51.5 16.5 Q70 18 82.5 23 Q95 28 95 42.5 Q95 57 95 80 L95 618 Q95 637 93.5 648.5 Q92 660 86 665.5 Q80 671 70.5 672.5 Q61 674 51 675.5 Q41 677 35 677 L23 677 Q19 677 14.5 678 Q10 679 10 686 Q10 691 17 693 Q24 695 29 695 Q37 695 44.5 693 Q52 691 69 690 L206 689 Z " />
<glyph glyph-name="uni042F" unicode="&#x42f;" horiz-adv-x="646" d="M411 640 Q411 650 402 662 Q393 674 360 674 Q343 674 319 669.5 Q295 665 275 645 Q261 631 253.5 612.5 Q246 594 242.5 575 Q239 556 238 540 Q237 524 237 515 Q237 465 248.5 438.5 Q260 412 274 400 Q292 383 320 375.5 Q348 368 374 368 L411 368 L411 640 Z M561 60 Q561 49 561 41 Q561 34 564 29 Q567 25 575 22.5 Q583 20 593 18.5 Q603 17 613 16.5 Q623 16 631 16 Q634 16 639.5 15 Q645 14 645 8 Q645 5 640.5 2 Q636 -1 625 -1 Q596 -1 569.5 -0.5 Q543 0 529 0 L411 0 Q384 0 374 0 Q364 0 360 -0.5 Q356 -1 352 -1 Q349 -1 337 -1 Q326 -1 323 2 Q320 5 320 7 Q320 9 322.5 12 Q325 15 334 16 Q365 18 385.5 20.5 Q406 23 410 34 Q411 38 411 58 L411 344 L374 344 Q360 344 345.5 340.5 Q331 337 316 323 Q296 304 285.5 277 Q275 250 269 229 Q258 191 248.5 150.5 Q239 110 232 68 Q229 51 226.5 33 Q224 15 222 -2 Q209 -1 194.5 -0.5 Q180 0 163 0 Q149 0 127.5 -0.5 Q106 -1 83 -1 Q61 -1 40.5 -1.5 Q20 -2 9 -2 Q-5 -2 -7 2 Q-9 6 -9 8 Q-9 11 -5.5 13.5 Q-2 16 9 16 Q26 15 38.5 16.5 Q51 18 59 23 Q65 28 68.5 34.5 Q72 41 75 49 Q90 89 101 118.5 Q112 148 121 170 Q130 192 137.5 208 Q145 224 153 237 Q166 260 182 277 Q198 294 221 311 Q242 326 258 333 Q274 340 291 346 Q306 352 306 352 Q306 354 302 355.5 Q298 357 290 356 Q281 356 261.5 356.5 Q242 357 219 361.5 Q196 366 172 375.5 Q148 385 129 401 Q114 415 97 443 Q80 471 80 521 Q80 619 164 663 Q207 685 248.5 689 Q290 693 322 693 Q364 693 390 692.5 Q416 692 434.5 691.5 Q453 691 469 690.5 Q485 690 508 690 Q526 690 536.5 690.5 Q547 691 557.5 692 Q568 693 583.5 693.5 Q599 694 627 694 Q632 694 639 693 Q646 692 646 684 Q646 682 644.5 678.5 Q643 675 634 675 L617 675 Q594 675 582.5 672 Q571 669 567 664 Q563 659 562 649 Q561 639 561 621 L561 60 Z " />
</font>
</svg>
