<?xml version="1.0" encoding="UTF-8"?>
<svg xmlns="http://www.w3.org/2000/svg" xmlns:xlink="http://www.w3.org/1999/xlink" version="1.2" >
<font id="ITC Bodoni Seventytwo W10">
<font-face  font-family="ITCBodoniSeventytwoW10" units-per-em="1000" ascent="708" descent="-258" font-style="normal" font-weight="400" font-stretch="normal" cap-height="702" x-height="439" underline-position="-150" underline-thickness="50" />
<missing-glyph  horiz-adv-x="233" d="" />
<glyph glyph-name="space" unicode="&#x20;" horiz-adv-x="233" d="" />
<glyph glyph-name="exclam" unicode="&#x21;" horiz-adv-x="356" d="M178 102 Q200 102 215.5 86.5 Q231 71 231 48 Q231 35 225 23 Q219 12 207 3 Q195 -6 177 -6 Q164 -6 152 0 Q141 6 132 18 Q123 30 123 48 Q123 61 129 73 Q136 87 149 94.5 Q162 102 178 102 Z M121 637 Q133 662 141.5 676 Q150 690 156.5 697 Q163 704 168 705.5 Q173 707 177 707 Q183 707 188.5 705 Q194 703 200.5 695.5 Q207 688 215 674 Q223 660 234 637 Q219 556 210.5 488.5 Q202 421 197.5 366.5 Q193 312 192 268.5 Q191 225 191 191 Q191 182 190 175.5 Q189 169 178 169 Q169 169 167 175 Q165 181 165 189 Q165 250 158 360.5 Q151 471 121 637 Z " />
<glyph glyph-name="quotedbl" unicode="&#x22;" horiz-adv-x="533" d="M401 705 Q424 705 434 692 Q444 679 444 663 Q444 643 431 623.5 Q418 604 404 587 Q389 567 377.5 552.5 Q366 538 355 520 Q344 502 331 478 Q318 454 299 417 Q297 412 293.5 407.5 Q290 403 284 403 Q279 403 274 406 Q269 409 269 416 Q269 421 272 427 Q275 433 284 453 Q292 473 298.5 489 Q305 505 313 533 Q318 550 322.5 567 Q327 584 332 601 Q335 612 338 623 Q341 634 344 645 Q355 682 369.5 693.5 Q384 705 401 705 Z M220 705 Q243 705 253 692 Q263 679 263 663 Q263 643 250 623.5 Q237 604 223 587 Q208 567 196.5 552.5 Q185 538 174 520 Q163 502 150 478 Q137 454 118 417 Q116 412 112.5 407.5 Q109 403 103 403 Q98 403 93 406 Q88 409 88 416 Q88 421 91 427 Q94 433 103 453 Q111 473 117.5 489 Q124 505 132 533 Q137 550 141.5 567 Q146 584 151 601 Q154 612 157 623 Q160 634 163 645 Q174 682 188.5 693.5 Q203 705 220 705 Z " />
<glyph glyph-name="numbersign" unicode="&#x23;" horiz-adv-x="533" d="M308 314 L342 434 L224 434 L189 314 L308 314 Z M81 77 L133 256 L46 256 L46 314 L149 314 L184 434 L81 434 L81 492 L201 492 L252 671 L292 671 L241 492 L359 492 L411 671 L451 671 L399 492 L479 492 L479 434 L382 434 L347 314 L443 314 L443 256 L331 256 L279 77 L239 77 L291 256 L172 256 L121 77 L81 77 Z " />
<glyph glyph-name="dollar" unicode="&#x24;" horiz-adv-x="533" d="M282 17 Q317 23 336.5 41 Q356 59 365.5 79.5 Q375 100 377 119 Q379 138 379 146 Q379 164 376 184 Q374 196 368.5 210 Q363 224 352.5 237.5 Q342 251 325 264.5 Q308 278 282 289 L282 17 Z M256 640 Q225 635 208 621 Q191 607 182.5 590.5 Q174 574 172 558 Q170 542 170 533 Q170 516 173 498.5 Q176 481 185 464 Q194 447 211 432 Q228 417 256 406 L256 640 Z M282 394 Q336 368 366 349.5 Q396 331 415 309 Q442 278 450.5 246.5 Q459 215 459 192 Q459 160 448 128 Q437 96 414.5 69 Q392 42 359 22.5 Q326 3 282 -3 L282 -86 Q282 -95 281 -101.5 Q280 -108 269 -108 Q258 -108 257 -101.5 Q256 -95 256 -86 L256 -5 Q239 -5 215.5 -2 Q192 1 177 6 Q168 9 160 13 Q152 17 144 22 Q133 28 121 37 Q109 46 98.5 59 Q88 72 81.5 89 Q75 106 75 128 Q75 166 94.5 184.5 Q114 203 139 203 Q159 203 176.5 189.5 Q194 176 194 150 Q194 134 187.5 122.5 Q181 111 170 105 Q159 98 142 98 Q133 98 131 99 Q129 100 120 100 Q115 100 114 97.5 Q113 95 113 93 Q113 74 128 59.5 Q143 45 164.5 35 Q186 25 211 19.5 Q236 14 256 14 L256 303 Q212 324 176 349 Q168 354 161.5 359 Q155 364 148 370 Q123 390 106.5 419 Q90 448 90 492 Q90 523 101 552 Q112 581 133 604.5 Q154 628 185 643.5 Q216 659 256 662 L256 731 Q256 743 260 746 Q264 749 269 749 Q280 749 281 743 Q282 737 282 729 L282 663 Q308 664 335.5 655.5 Q363 647 384 630 Q404 613 419 587 Q434 561 434 535 Q434 509 419.5 491 Q405 473 380 473 Q359 473 344 485.5 Q329 498 329 521 Q329 539 337 549 Q345 559 353 564 Q360 568 367.5 569.5 Q375 571 383 572 Q386 572 388.5 573 Q391 574 391 580 Q391 585 386.5 592 Q382 599 376 606 Q370 613 363 618.5 Q356 624 352 627 Q339 635 320 639.5 Q301 644 282 643 L282 394 Z " />
<glyph glyph-name="percent" unicode="&#x25;" horiz-adv-x="715" d="M533 314 Q511 314 493 301 Q487 296 480 287 Q473 278 467.5 262 Q462 246 458.5 222.5 Q455 199 455 166 Q455 152 456.5 125.5 Q458 99 466 73 Q474 47 490 27.5 Q506 8 536 8 Q558 8 574 22 Q581 29 585 37.5 Q589 46 592 56 Q602 88 604.5 121.5 Q607 155 607 173 Q607 218 600.5 243 Q594 268 587 281 Q579 295 567.5 304.5 Q556 314 533 314 Z M534 329 Q569 329 594.5 318.5 Q620 308 640 288 Q666 261 678.5 225.5 Q691 190 691 155 Q691 129 685 108 Q679 87 670.5 71.5 Q662 56 652 45 Q642 34 635 27 Q615 9 592.5 0 Q570 -9 537 -9 Q507 -9 484 -1.5 Q461 6 444 17.5 Q427 29 415 42.5 Q403 56 396 69 Q372 111 372 162 Q372 198 384 229 Q396 260 417.5 282 Q439 304 468.5 316.5 Q498 329 534 329 Z M185 690 Q169 690 158 685 Q147 680 139.5 672 Q132 664 127 655 Q122 646 119 637 Q111 614 109 589.5 Q107 565 107 540 Q107 524 109 498 Q111 472 118.5 446.5 Q126 421 142 402.5 Q158 384 187 384 Q214 384 226 399 Q238 414 243 429 Q250 451 254 482.5 Q258 514 258 543 Q258 593 250.5 619.5 Q243 646 238 657 Q236 662 233 667.5 Q230 673 225 677 Q217 684 206.5 687 Q196 690 185 690 Z M573 705 L189 0 L142 0 L502 663 Q494 658 485 653 Q476 648 466 645 Q449 639 429 636 Q409 633 390 633 Q373 633 352.5 636 Q332 639 304 649 Q316 633 326 610 Q334 591 338 569.5 Q342 548 342 531 Q342 498 330.5 467 Q319 436 295 411 Q271 386 245.5 376.5 Q220 367 191 367 Q153 367 122 380.5 Q91 394 69 417 Q47 440 35.5 471 Q24 502 24 537 Q24 569 34.5 599 Q45 629 66 652.5 Q87 676 117.5 690.5 Q148 705 189 705 Q212 705 226.5 700 Q241 695 257 690 Q288 679 310 672.5 Q332 666 348 663 Q364 660 375 659 Q386 658 394 658 Q417 658 450 666 Q483 674 526 705 L573 705 Z " />
<glyph glyph-name="ampersand" unicode="&#x26;" horiz-adv-x="729" d="M220 390 Q191 370 170.5 343.5 Q150 317 140 291 Q130 261 130 225 Q130 188 138 158.5 Q146 129 158.5 106 Q171 83 186.5 67 Q202 51 218 42 Q254 21 297 21 Q328 21 355 29.5 Q382 38 403 51 Q430 68 453 92 Q433 124 402 170 Q371 216 326 267 L220 390 Z M296 436 Q320 448 334.5 464.5 Q349 481 356.5 498 Q364 515 366 532 Q368 549 368 562 Q368 595 360.5 619 Q353 643 341 658.5 Q329 674 313 682 Q297 690 280 690 Q265 690 248.5 684 Q232 678 218.5 666.5 Q205 655 196.5 638 Q188 621 188 598 Q188 575 198 552.5 Q208 530 223.5 508.5 Q239 487 258.5 468.5 Q278 450 296 436 Z M658 426 Q665 426 675 426.5 Q685 427 695 426.5 Q705 426 712 424 Q719 422 719 417 Q719 412 713.5 410.5 Q708 409 700.5 408 Q693 407 683 407 Q674 407 667 407 Q650 406 640.5 404.5 Q631 403 625.5 398.5 Q620 394 618 386.5 Q616 379 613 366 Q602 311 583 256 Q564 201 526 144 Q529 139 537.5 125 Q546 111 555 94 Q564 77 574 61 Q584 45 602 34 Q620 23 643 22 Q666 21 692 19 Q701 18 707 15 Q713 12 713 8 Q713 3 707 1.5 Q701 0 699 0 Q691 0 685 0 Q679 0 672 1 Q646 3 620 3.5 Q594 4 568 4 Q553 4 538 3 Q523 2 504 0 L465 72 Q439 44 410 27.5 Q381 11 352.5 2 Q324 -7 299 -10 Q274 -13 255 -13 Q211 -13 171 -0.5 Q131 12 100 36.5 Q69 61 51 97 Q33 133 33 180 Q33 223 50 262.5 Q67 302 106 337 Q117 348 129.5 356.5 Q142 365 155 373 Q168 381 181.5 388.5 Q195 396 209 402 L162 453 Q151 465 141.5 476 Q132 487 127 501 Q120 519 120 544 Q120 574 127 597 Q134 620 145.5 637 Q157 654 170.5 665.5 Q184 677 196 684 Q216 695 239.5 700.5 Q263 706 287 706 Q324 706 349.5 697 Q375 688 391.5 676.5 Q408 665 417 653.5 Q426 642 429 637 Q445 609 445 574 Q445 517 396 474 Q382 462 367.5 453 Q353 444 340 437.5 Q327 431 317.5 427.5 Q308 424 306 423 L415 295 Q424 284 436.5 267.5 Q449 251 462.5 233.5 Q476 216 488.5 198.5 Q501 181 511 167 Q540 215 561 272 Q582 329 582 382 Q582 394 578.5 400.5 Q575 407 558 407 L509 408 Q503 408 491 409.5 Q479 411 479 418 Q479 420 482 423 Q485 426 496 426 L658 426 Z " />
<glyph glyph-name="quotesingle" unicode="&#x27;" horiz-adv-x="356" d="M222 705 Q235 705 243 700.5 Q251 696 256 689.5 Q261 683 263 676 Q265 669 265 663 Q265 643 252 624 Q239 605 225 587 Q210 567 199 552.5 Q188 538 176.5 520 Q165 502 152 478 Q139 454 120 417 Q118 412 114.5 407.5 Q111 403 105 403 Q100 403 95 406 Q90 409 90 415 Q90 420 93 426.5 Q96 433 103 448 Q113 471 120 490.5 Q127 510 134 533 Q139 550 143.5 567 Q148 584 153 601 Q156 612 159 623 Q162 634 165 645 Q176 682 190.5 693.5 Q205 705 222 705 Z " />
<glyph glyph-name="parenleft" unicode="&#x28;" horiz-adv-x="305" d="M241 712 Q249 712 249 704 Q249 699 242 686 Q225 656 212.5 624.5 Q200 593 190 560 Q168 484 161.5 411 Q155 338 155 272 Q155 197 163.5 120 Q172 43 196 -33 Q208 -71 219 -93.5 Q230 -116 240 -136 Q244 -144 246 -147 Q248 -150 248 -154 Q248 -159 246 -161 Q244 -163 242 -163 Q240 -163 233.5 -159 Q227 -155 209 -131 Q177 -88 150.5 -38.5 Q124 11 105.5 63.5 Q87 116 76.5 168.5 Q66 221 66 271 Q66 312 73.5 360 Q81 408 97 459 Q113 510 138.5 562.5 Q164 615 199 664 Q219 691 227.5 701.5 Q236 712 241 712 Z " />
<glyph glyph-name="parenright" unicode="&#x29;" horiz-adv-x="305" d="M64 712 Q66 712 69.5 709.5 Q73 707 81 697 Q87 689 93.5 680.5 Q100 672 106 664 Q141 615 166.5 562.5 Q192 510 208 459 Q224 408 231.5 360 Q239 312 239 271 Q239 221 228.5 168.5 Q218 116 199.5 63.5 Q181 11 154.5 -38.5 Q128 -88 96 -131 Q78 -155 71.5 -159 Q65 -163 63 -163 Q61 -163 59 -161 Q57 -159 57 -154 Q57 -150 59 -147 Q61 -144 65 -136 Q75 -116 86 -93.5 Q97 -71 109 -33 Q133 43 141.5 120 Q150 197 150 272 Q150 308 147.5 358 Q145 408 136.5 463.5 Q128 519 110.5 576.5 Q93 634 63 686 Q56 699 56 704 Q56 712 64 712 Z " />
<glyph glyph-name="asterisk" unicode="&#x2a;" horiz-adv-x="533" d="M203 648 Q209 648 212 649 Q220 651 224 651 Q234 651 236.5 644.5 Q239 638 242 627 Q245 613 250 597 Q255 581 272 561 Q279 578 280.5 590.5 Q282 603 282 613 Q282 623 281.5 627.5 Q281 632 280 634.5 Q279 637 278.5 639 Q278 641 278 647 Q278 655 282.5 657.5 Q287 660 292 661 Q307 664 314 669 Q319 673 322 676.5 Q325 680 329 685 Q336 693 338.5 696 Q341 699 346 699 Q353 699 354 691 Q356 685 352.5 677.5 Q349 670 349 659 Q349 646 356 632 Q357 630 358 628 Q359 626 359 624 Q359 616 353 611.5 Q347 607 340 604 Q323 596 309.5 584.5 Q296 573 286 554 L288 554 Q293 554 297 553.5 Q301 553 306 553 Q323 553 339.5 560 Q356 567 364 571 Q372 575 376 575 Q382 575 386.5 569.5 Q391 564 393 561 Q399 552 406.5 546 Q414 540 428 535 Q432 533 437.5 531 Q443 529 443 525 Q443 519 436.5 518 Q430 517 422 516 Q410 515 403 513.5 Q396 512 388 505 Q382 500 377 495.5 Q372 491 367 491 Q362 491 358 495 Q354 499 352 501 Q347 506 338.5 512.5 Q330 519 325 523 Q318 528 308 532.5 Q298 537 284 539 Q289 518 298.5 503 Q308 488 316 480 Q325 470 330 465 Q335 460 335 456 Q335 452 330 447 Q325 442 320 434 Q315 426 314 420 Q313 414 312 401 Q312 396 310 389.5 Q308 383 300 383 Q295 383 292.5 389.5 Q290 396 286 405 Q283 412 280 416.5 Q277 421 266 428 Q259 433 253.5 436.5 Q248 440 248 447 Q248 451 249.5 454 Q251 457 253 461 Q255 463 255.5 466 Q256 469 257 471 Q260 479 262.5 486 Q265 493 267 504 Q268 509 268 518 Q268 522 267.5 526.5 Q267 531 267 536 Q250 526 237.5 511 Q225 496 214 473 Q208 462 202 462 Q200 462 196.5 464 Q193 466 185 469 Q180 471 176 472 Q172 473 168 473 Q163 473 159 471.5 Q155 470 147 468 Q141 466 138 466 Q135 466 133 466 Q128 466 126 468.5 Q124 471 124 473 Q124 478 127.5 481 Q131 484 134 486 Q138 489 144.5 495 Q151 501 153 505 Q155 510 156 515.5 Q157 521 159 528 Q159 530 161 534 Q163 538 165 539 Q169 542 176 542 Q179 542 182 541.5 Q185 541 190 540 Q195 539 200 538.5 Q205 538 211 538 Q226 538 239.5 541.5 Q253 545 262 549 Q243 566 225.5 572 Q208 578 197 580 Q177 584 173.5 586 Q170 588 170 593 Q171 604 171 610 Q171 617 170 622 Q169 627 166.5 632 Q164 637 158 645 Q151 654 151 661 Q151 667 158 667 Q160 667 164.5 665.5 Q169 664 182 656 Q187 653 191.5 650.5 Q196 648 203 648 Z " />
<glyph glyph-name="plus" unicode="&#x2b;" horiz-adv-x="533" d="M474 354 L474 318 L285 318 L285 132 L249 132 L249 318 L59 318 L59 354 L249 354 L249 539 L285 539 L285 354 L474 354 Z " />
<glyph glyph-name="comma" unicode="&#x2c;" horiz-adv-x="259" d="M158 31 Q158 15 149 4 Q144 -1 136.5 -3.5 Q129 -6 121 -6 Q102 -6 89 7 Q83 13 79 22 Q75 31 75 42 Q75 63 90 81.5 Q105 100 136 100 Q155 100 168.5 93.5 Q182 87 191 77 Q203 63 209.5 44.5 Q216 26 216 6 Q216 -14 210.5 -34.5 Q205 -55 192 -72 Q181 -86 167 -95.5 Q153 -105 139 -111 Q131 -114 117.5 -119 Q104 -124 96 -124 Q86 -124 86 -118 Q86 -114 90 -112.5 Q94 -111 96 -110 Q107 -106 120.5 -102 Q134 -98 148 -88 Q180 -65 180 -24 Q180 -10 176 3 Q172 16 158 31 Z " />
<glyph glyph-name="hyphen" unicode="&#x2d;" horiz-adv-x="305" d="M290 198 L15 198 L15 250 L290 250 L290 198 Z " />
<glyph glyph-name="period" unicode="&#x2e;" horiz-adv-x="259" d="M129 101 Q152 101 167 85.5 Q182 70 182 47 Q182 24 166.5 9 Q151 -6 128 -6 Q106 -6 90.5 9.5 Q75 25 75 48 Q75 71 90.5 86 Q106 101 129 101 Z " />
<glyph glyph-name="slash" unicode="&#x2f;" horiz-adv-x="489" d="M62 -30 L13 -30 L426 726 L475 726 L62 -30 Z " />
<glyph glyph-name="zero" unicode="0" horiz-adv-x="533" d="M272 691 Q237 691 216.5 673.5 Q196 656 182 627 Q169 600 162.5 571.5 Q156 543 152 514 Q147 475 145 435.5 Q143 396 143 356 Q143 278 149.5 215.5 Q156 153 176 98 Q180 87 187 71 Q194 55 206 40.5 Q218 26 235 15.5 Q252 5 276 5 Q297 5 311.5 13 Q326 21 336 35 Q346 49 352.5 67.5 Q359 86 365 107 Q372 136 377 169 Q385 220 387.5 270 Q390 320 390 371 Q390 449 381 511 Q372 573 357 617 Q350 636 339.5 654.5 Q329 673 309 683 Q294 691 272 691 Z M270 705 Q302 705 327 696.5 Q352 688 371 674.5 Q390 661 403.5 645.5 Q417 630 426 616 Q447 585 460.5 548 Q474 511 482.5 473.5 Q491 436 494.5 400.5 Q498 365 498 335 Q498 286 490 241.5 Q482 197 468.5 159 Q455 121 437 90.5 Q419 60 399 40 Q371 11 340.5 -0.5 Q310 -12 279 -12 Q247 -12 216.5 -2.5 Q186 7 161 26 Q143 40 128.5 57 Q114 74 102 93 Q35 200 35 351 Q35 451 62 522.5 Q89 594 130 641 Q138 650 149.5 661 Q161 672 178 682 Q195 692 217.5 698.5 Q240 705 270 705 Z " />
<glyph glyph-name="one" unicode="1" horiz-adv-x="533" d="M326 67 Q326 43 327 34.5 Q328 26 331 23 Q336 18 342 18 Q348 18 354 18 L389 17 Q399 17 411 16.5 Q423 16 423 7 Q423 1 416 0 Q409 -1 406 -1 Q374 -1 345 -0.5 Q316 0 286 0 Q250 0 229.5 -0.5 Q209 -1 196 -1 Q183 -1 174 -1.5 Q165 -2 152 -2 Q139 -2 135.5 1.5 Q132 5 132 7 Q132 10 136 13 Q140 16 146 16 L168 16 Q197 16 209.5 18 Q222 20 226 29 Q226 30 226.5 32.5 Q227 35 227.5 41.5 Q228 48 228.5 60 Q229 72 229 92 L229 565 Q229 596 227 602.5 Q225 609 214 609 Q207 609 200.5 608.5 Q194 608 188 607 L132 603 Q128 603 124 604.5 Q120 606 120 610 Q120 615 125 616.5 Q130 618 133 619 Q158 623 189.5 632 Q221 641 261 667 Q289 685 300 698.5 Q311 712 319 712 Q324 712 325 709 Q326 706 326 702 L326 67 Z " />
<glyph glyph-name="two" unicode="2" horiz-adv-x="533" d="M474 -3 Q430 -2 393.5 -1 Q357 0 311 1 Q289 1 267.5 1.5 Q246 2 224 2 Q186 2 161.5 1.5 Q137 1 118 0 Q99 -1 83 -1.5 Q67 -2 47 -2 Q33 -2 29 2 Q25 6 25 8 Q25 11 29 17 Q33 23 52 38 Q104 80 158.5 126.5 Q213 173 255 224 Q271 244 284.5 264 Q298 284 309 307 Q329 349 338 393.5 Q347 438 347 485 Q347 523 339.5 563 Q332 603 305 638 Q286 662 267 670 Q248 678 220 678 Q197 678 171 672 Q145 666 125 643 Q124 641 119.5 636 Q115 631 110.5 623.5 Q106 616 102.5 606.5 Q99 597 99 588 Q99 582 101.5 579.5 Q104 577 109 575 Q116 573 126 571 Q143 568 154 565 Q165 562 173 557 Q184 550 190 539 Q196 528 196 511 Q196 488 183 471.5 Q170 455 140 455 Q124 455 109 459.5 Q94 464 82.5 474.5 Q71 485 64 501.5 Q57 518 57 542 Q57 560 60 577 Q63 594 71 610 Q77 622 84.5 633 Q92 644 102 653 Q127 677 164 691 Q201 705 248 705 Q294 705 327 691.5 Q360 678 387 652 Q419 622 435.5 581.5 Q452 541 452 487 Q452 410 421 351 Q390 292 343 243 Q324 224 299 202.5 Q274 181 245.5 159 Q217 137 187 116.5 Q157 96 129 79 L156 79 Q163 79 169.5 79.5 Q176 80 185 80.5 Q194 81 207 81 Q221 81 243 81 L350 81 Q392 81 409.5 84.5 Q427 88 439 96 Q442 98 445 101 Q448 104 450.5 110.5 Q453 117 456 129.5 Q459 142 463 163 Q466 179 468.5 191 Q471 203 483 203 Q485 203 489 200 Q493 197 493 189 Q493 178 492 171.5 Q491 165 489 155.5 Q487 146 485 131.5 Q483 117 480 90 Q478 71 477.5 60.5 Q477 50 477 42 Q477 35 476.5 28 Q476 21 475 9 L474 -3 Z " />
<glyph glyph-name="three" unicode="3" horiz-adv-x="533" d="M265 377 Q299 376 336 367 Q373 358 399 340 Q434 317 454 278.5 Q474 240 474 195 Q474 182 471.5 165 Q469 148 461.5 129.5 Q454 111 441 91 Q428 71 406 52 Q366 16 319.5 2 Q273 -12 218 -12 Q203 -12 185 -11 Q167 -10 148.5 -5.5 Q130 -1 112 8 Q94 17 80 32 Q60 53 56 70 Q52 87 52 96 Q52 125 70.5 144.5 Q89 164 124 164 Q150 164 167 150 Q184 136 184 111 Q184 97 179 88 Q173 77 160.5 69 Q148 61 137 56 Q132 54 125 49.5 Q118 45 118 40 Q118 35 124.5 27.5 Q131 20 151 14 Q178 6 203 6 Q232 6 262 16.5 Q292 27 316.5 50 Q341 73 356.5 109.5 Q372 146 372 197 Q372 259 351 292.5 Q330 326 309 340 Q289 353 265 358.5 Q241 364 220 363 L191 362 Q188 362 183 363.5 Q178 365 178 371 Q178 374 180 376 Q185 381 198 381.5 Q211 382 231 388 Q245 392 258.5 398 Q272 404 284 412 Q318 435 333 467.5 Q348 500 348 540 Q348 560 344 580 Q340 600 331 618 Q317 645 291.5 663 Q266 681 224 681 Q205 681 187 676.5 Q169 672 155 664 Q141 656 132.5 645.5 Q124 635 124 623 Q124 615 129 613.5 Q134 612 145 609 Q153 607 165 602.5 Q177 598 185 593 Q204 580 204 556 Q204 537 192 521 Q180 505 151 505 Q123 505 99.5 522 Q76 539 76 576 Q76 599 86.5 624 Q97 649 123 669 Q154 693 188 699 Q222 705 249 705 Q291 705 328 696 Q365 687 398 655 Q425 629 436 599 Q447 569 447 543 Q447 501 424 464.5 Q401 428 362 409 Q353 404 340.5 400 Q328 396 314.5 393 Q301 390 288 387.5 Q275 385 265 384 L265 377 Z " />
<glyph glyph-name="four" unicode="4" horiz-adv-x="533" d="M296 285 L302 556 L56 216 Q59 216 62.5 215.5 Q66 215 69 215 Q84 214 107.5 213.5 Q131 213 144 213 L296 213 L296 285 Z M392 69 Q392 46 393.5 38 Q395 30 397 27 Q403 19 417 18 Q431 17 443 17 L470 17 Q479 17 484 16 Q487 15 490 13.5 Q493 12 493 7 Q493 4 490 2 Q487 0 476 0 Q407 0 359 0 Q311 0 279.5 -1 Q248 -2 231 -2.5 Q214 -3 206 -3 Q192 -3 189.5 1 Q187 5 187 7 Q187 14 193.5 15 Q200 16 205 16 L214 16 Q243 17 255 17.5 Q267 18 278 20 Q283 21 286.5 22 Q290 23 292 27.5 Q294 32 295 41.5 Q296 51 296 68 L296 190 L101 190 L71 190 Q65 190 59 190 Q54 190 48 191 Q44 191 40 191.5 Q36 192 32 192 Q27 192 22.5 193 Q18 194 18 200 Q18 205 20.5 208 Q23 211 25 214 L368 693 Q371 697 374 700 Q377 703 382 703 Q390 703 391 697.5 Q392 692 392 684 L392 214 L402 214 Q413 214 429.5 215 Q446 216 455 218 Q469 221 472 225 Q475 229 475 237 L475 292 Q475 303 476 310 Q477 317 486 317 Q496 317 497.5 308.5 Q499 300 499 289 L499 238 Q499 233 499 220 Q499 207 499.5 193 Q500 179 500 167 Q500 155 500 151 Q500 138 501 132.5 Q502 127 502.5 124.5 Q503 122 503 119 Q503 117 503 110 Q503 102 499 101 Q495 100 493 100 Q485 100 483.5 104.5 Q482 109 480 118 Q475 152 474.5 163.5 Q474 175 472 180 Q468 188 458.5 189.5 Q449 191 441 192 Q435 193 429 193 Q424 193 418 193 Q412 193 406 192.5 Q400 192 394 192 L392 192 L392 69 Z " />
<glyph glyph-name="five" unicode="5" horiz-adv-x="533" d="M137 608 Q135 588 135 579 Q135 571 134 563 Q132 538 132 513 Q132 489 131 464 Q131 449 130.5 433.5 Q130 418 130 403 Q166 420 205 426 Q227 429 249 429 Q351 429 410.5 375 Q470 321 470 224 Q470 174 455 137.5 Q440 101 420 75 Q400 49 372 29 Q337 4 297.5 -4 Q258 -12 219 -12 Q174 -12 139 -1 Q104 10 81 37 Q57 64 57 101 Q57 138 80 154.5 Q103 171 131 171 Q147 171 158.5 165.5 Q170 160 177 152.5 Q184 145 187 135.5 Q190 126 190 119 Q190 105 184.5 96 Q179 87 171.5 80.5 Q164 74 155.5 70 Q147 66 141 63 Q132 58 125.5 54 Q119 50 119 45 Q119 40 122 36 Q127 28 137 22 Q147 16 160 12 Q173 8 187 6 Q201 4 214 4 Q238 4 255.5 9 Q273 14 285.5 21.5 Q298 29 306 37.5 Q314 46 319 53 Q322 57 330 69.5 Q338 82 346 103.5 Q354 125 360.5 156 Q367 187 367 228 Q367 250 364.5 272 Q362 294 354 315 Q344 342 327 361 Q310 378 282.5 390 Q255 402 220 402 Q199 402 171 395 Q143 388 102 361 Q103 392 103.5 414 Q104 436 104.5 454 Q105 472 105.5 489 Q106 506 107 528 Q108 551 108 575 Q108 599 110 622 Q110 628 110.5 633.5 Q111 639 111 645 Q111 654 112.5 665.5 Q114 677 123 685 Q131 692 143 692.5 Q155 693 166 693 Q176 693 184.5 693.5 Q193 694 202 694 L314 693 Q340 693 356 693 Q373 693 383 694.5 Q393 696 397 699.5 Q401 703 403 709 Q405 717 405.5 726 Q406 735 416 735 Q429 735 427 724 L424 690 Q422 674 420.5 653.5 Q419 633 405 621 Q398 615 389.5 613 Q381 611 372 609 Q361 607 350 607 Q339 607 328 607 L137 608 Z " />
<glyph glyph-name="six" unicode="6" horiz-adv-x="533" d="M272 406 Q237 406 215 390 Q193 374 179 342 Q168 316 164.5 288.5 Q161 261 161 233 Q161 166 174.5 120.5 Q188 75 202 51 Q210 37 226 21.5 Q242 6 275 6 Q315 6 337 31.5 Q359 57 369.5 91.5 Q380 126 382 162 Q384 198 384 220 Q384 240 381.5 271.5 Q379 303 368 333 Q357 363 334.5 384.5 Q312 406 272 406 Z M164 378 Q183 396 201.5 406.5 Q220 417 236.5 422.5 Q253 428 266.5 429 Q280 430 289 430 Q320 430 351.5 419.5 Q383 409 413 386 Q422 379 435 366.5 Q448 354 459.5 334.5 Q471 315 479 287.5 Q487 260 487 223 Q487 191 479.5 160 Q472 129 457 100 Q440 67 418.5 45 Q397 23 374 10.5 Q351 -2 328.5 -7 Q306 -12 287 -12 Q226 -12 177 20 Q153 35 131.5 59 Q110 83 93 116 Q76 149 66 192 Q56 235 56 288 Q56 332 62.5 374.5 Q69 417 83 459 Q110 537 156.5 591.5 Q203 646 256 672 Q285 686 330 698.5 Q375 711 422 711 Q425 711 434 710 Q443 709 443 703 Q443 698 438 697 Q433 696 429 695 Q414 693 396 690 Q378 687 357.5 680 Q337 673 315 661 Q293 649 270 630 Q241 606 224 578.5 Q207 551 196 524 Q183 492 175 453 Q167 414 164 378 Z " />
<glyph glyph-name="seven" unicode="7" horiz-adv-x="533" d="M240 605 Q211 605 191 605 Q172 605 158.5 604.5 Q145 604 137 602 Q129 600 124 597 Q116 592 113.5 584.5 Q111 577 108 564 L96 511 Q95 508 93 503 Q91 498 84 498 Q74 498 74 511 Q74 520 75.5 528 Q77 536 79 550 Q80 558 82.5 572 Q85 586 87 601 Q89 616 90.5 630 Q92 644 93 653 Q94 662 95 672 Q96 682 101 690 Q102 692 106 696 Q121 694 134 693.5 Q147 693 176 692 Q196 691 217 690.5 Q238 690 257 690 L463 692 L466 692 Q474 692 482 692.5 Q490 693 498 693 Q514 693 518.5 690.5 Q523 688 523 686 Q523 685 521 679.5 Q519 674 505 652 L407 498 Q374 446 352 407.5 Q330 369 317 338 Q304 307 299 279.5 Q294 252 294 222 Q294 208 295 198.5 Q296 189 297.5 177.5 Q299 166 301.5 150.5 Q304 135 308 110 Q310 100 311.5 88 Q313 76 313 61 Q313 46 308.5 26 Q304 6 286 -5 Q275 -12 260 -12 Q233 -12 215 14.5 Q197 41 197 96 Q197 113 200 137.5 Q203 162 213 195 Q223 228 241.5 269.5 Q260 311 290 364 Q300 382 319.5 413 Q339 444 361 478.5 Q383 513 405 547 Q427 581 443 605 L240 605 Z " />
<glyph glyph-name="eight" unicode="8" horiz-adv-x="533" d="M270 362 Q214 362 177.5 319 Q141 276 141 187 Q141 94 178.5 49 Q216 4 276 4 Q305 4 323 13.5 Q341 23 352 34 Q359 42 363.5 50.5 Q368 59 372 68 Q382 92 387 118 Q390 133 391 148.5 Q392 164 392 180 Q392 193 391 215 Q390 237 384 260.5 Q378 284 366 306.5 Q354 329 333 344 Q306 362 270 362 Z M265 689 Q251 689 238.5 686 Q226 683 215 675 Q198 663 188.5 643 Q179 623 174.5 601.5 Q170 580 169.5 561 Q169 542 169 532 Q169 510 172 483.5 Q175 457 185.5 433.5 Q196 410 216.5 394.5 Q237 379 272 379 Q285 379 297 382 Q309 385 318 393 Q326 400 333 412 Q347 438 351.5 472.5 Q356 507 356 533 Q356 548 354.5 565.5 Q353 583 349.5 601 Q346 619 340 635.5 Q334 652 324 664 Q316 674 308 679 Q299 685 287.5 687 Q276 689 265 689 Z M333 369 Q346 367 358 363.5 Q370 360 382 355 Q393 350 404 345 Q415 340 426 332 Q456 310 475 275.5 Q494 241 494 190 Q494 175 491.5 155.5 Q489 136 480 114.5 Q471 93 454.5 71 Q438 49 411 29 Q383 9 350.5 -1.5 Q318 -12 272 -12 Q230 -12 193.5 -3.5 Q157 5 122 28 Q107 38 92 51 Q77 64 65.5 82 Q54 100 46.5 123.5 Q39 147 39 178 Q39 223 55 258.5 Q71 294 97 318 Q117 336 144 349.5 Q171 363 200 369 L200 374 Q158 384 128 409 Q97 434 83.5 463.5 Q70 493 70 528 Q70 554 76.5 578.5 Q83 603 97 624 Q105 637 119 651.5 Q133 666 153.5 678 Q174 690 201.5 697.5 Q229 705 265 705 Q297 705 327 697 Q357 689 385 669 Q420 643 437.5 606 Q455 569 455 533 Q455 509 447.5 484 Q440 459 425 437 Q410 415 387 397.5 Q364 380 333 373 L333 369 Z " />
<glyph glyph-name="nine" unicode="9" horiz-adv-x="533" d="M251 688 Q225 688 208 675.5 Q191 663 179 643 Q168 623 161.5 598.5 Q155 574 152 550 Q149 526 148.5 506 Q148 486 148 476 Q148 453 150 429.5 Q152 406 158 383 Q165 352 178 333.5 Q191 315 205.5 304.5 Q220 294 235.5 290.5 Q251 287 263 287 Q298 287 326 311.5 Q354 336 366 397 Q372 428 372 462 Q372 485 369.5 510 Q367 535 361.5 559 Q356 583 348 604.5 Q340 626 330 643 Q316 666 297 677 Q278 688 251 688 Z M369 315 Q346 293 314.5 278 Q283 263 245 263 Q211 263 179.5 274 Q148 285 125 303 Q118 309 104.5 321.5 Q91 334 78 355 Q65 376 55.5 405.5 Q46 435 46 474 Q46 531 71 586 Q79 602 88 616 Q97 630 109 643 Q135 672 171 688.5 Q207 705 247 705 Q286 705 329 687.5 Q372 670 407 626 Q423 606 434.5 584 Q446 562 454 538 Q477 471 477 402 Q477 329 456 255 Q435 181 390 119 Q344 56 285.5 25 Q227 -6 152 -15 Q129 -18 107 -18 Q88 -18 88 -11 Q88 -6 93 -5 Q98 -4 102 -3 Q138 1 171.5 11.5 Q205 22 234.5 41.5 Q264 61 289.5 91 Q315 121 334 165 Q345 191 354.5 226.5 Q364 262 369 315 Z " />
<glyph glyph-name="colon" unicode="&#x3a;" horiz-adv-x="259" d="M129 444 Q152 444 167 428.5 Q182 413 182 390 Q182 367 167 352 Q152 337 129 337 Q106 337 90.5 352.5 Q75 368 75 391 Q75 414 90.5 429 Q106 444 129 444 Z M129 101 Q152 101 167 85.5 Q182 70 182 47 Q182 24 166.5 9 Q151 -6 128 -6 Q106 -6 90.5 9.5 Q75 25 75 48 Q75 71 90.5 86 Q106 101 129 101 Z " />
<glyph glyph-name="semicolon" unicode="&#x3b;" horiz-adv-x="259" d="M129 444 Q152 444 167 428.5 Q182 413 182 390 Q182 367 167 352 Q152 337 129 337 Q106 337 90.5 352.5 Q75 368 75 391 Q75 414 90.5 429 Q106 444 129 444 Z M158 31 Q158 15 149 4 Q144 -1 136.5 -3.5 Q129 -6 121 -6 Q102 -6 89 7 Q83 13 79 22 Q75 31 75 42 Q75 63 90 81.5 Q105 100 136 100 Q155 100 168.5 93.5 Q182 87 191 77 Q203 63 209.5 44.5 Q216 26 216 6 Q216 -14 210.5 -34.5 Q205 -55 192 -72 Q181 -86 167 -95.5 Q153 -105 139 -111 Q131 -114 117.5 -119 Q104 -124 96 -124 Q86 -124 86 -118 Q86 -114 90 -112.5 Q94 -111 96 -110 Q107 -106 120.5 -102 Q134 -98 148 -88 Q180 -65 180 -24 Q180 -10 176 3 Q172 16 158 31 Z " />
<glyph glyph-name="less" unicode="&#x3c;" horiz-adv-x="542" d="M486 589 L120 356 L486 112 L486 66 L57 353 L57 360 L486 635 L486 589 Z " />
<glyph glyph-name="equal" unicode="&#x3d;" horiz-adv-x="533" d="M474 269 L59 269 L59 305 L474 305 L474 269 Z M474 367 L59 367 L59 403 L474 403 L474 367 Z " />
<glyph glyph-name="greater" unicode="&#x3e;" horiz-adv-x="542" d="M486 360 L486 353 L57 66 L57 112 L423 356 L57 589 L57 635 L486 360 Z " />
<glyph glyph-name="question" unicode="&#x3f;" horiz-adv-x="413" d="M180 102 Q202 102 217.5 86.5 Q233 71 233 48 Q233 25 217.5 9.5 Q202 -6 179 -6 Q166 -6 154 0 Q143 6 134 18 Q125 30 125 48 Q125 61 131 73 Q138 87 151 94.5 Q164 102 180 102 Z M178 683 Q149 683 129 671.5 Q109 660 97 646 Q80 625 75 603.5 Q70 582 70 568 Q70 566 70 562 Q70 558 73 558 Q75 558 77.5 564.5 Q80 571 86 577 Q92 583 98.5 585 Q105 587 114 587 Q140 587 150.5 572.5 Q161 558 161 541 Q161 524 153.5 514.5 Q146 505 138 500 Q125 493 109 493 Q83 493 70 504.5 Q57 516 51 527 Q42 546 42 568 Q42 609 62 639.5 Q82 670 114 687 Q153 707 202 707 Q240 707 272 696 Q304 685 327 664.5 Q350 644 362.5 615.5 Q375 587 375 552 Q375 524 367 498.5 Q359 473 348 454 Q328 421 297.5 394.5 Q267 368 247 351 Q212 320 193 294 Q174 268 174 239 Q174 222 178.5 211 Q183 200 186 187 Q190 169 179 169 Q173 169 167 179 Q161 189 156.5 203.5 Q152 218 149.5 233 Q147 248 147 258 Q147 304 169 343 Q191 382 223 424 Q236 442 247.5 458 Q259 474 267.5 490 Q276 506 281 524 Q286 542 286 565 Q286 619 256.5 651 Q227 683 178 683 Z " />
<glyph glyph-name="at" unicode="&#x40;" horiz-adv-x="990" d="M650 403 Q654 411 659 422.5 Q664 434 664 446 Q664 456 657 469.5 Q650 483 642 491 Q626 507 598 507 Q579 507 562 498.5 Q545 490 530 476.5 Q515 463 502 446 Q489 429 477 412 Q467 397 452 372 Q437 347 423.5 315.5 Q410 284 400 249 Q390 214 390 179 Q390 158 395 145 Q400 132 407.5 125 Q415 118 423.5 115.5 Q432 113 440 113 Q465 113 487 128.5 Q509 144 527 166.5 Q545 189 559 214 Q573 239 582 259 L650 403 Z M699 513 Q703 522 706.5 524.5 Q710 527 715 527 Q722 527 725 526 Q730 525 736 524 Q742 523 747 523 Q764 523 770.5 528 Q777 533 786 533 Q794 533 794 522 Q794 517 790.5 512.5 Q787 508 781 494 L660 227 Q657 221 652 209 Q647 197 642.5 183.5 Q638 170 634.5 157.5 Q631 145 631 138 Q631 130 636.5 122 Q642 114 662 114 Q678 114 698 120 Q718 126 738.5 135.5 Q759 145 778.5 158.5 Q798 172 812 187 Q831 207 845.5 232 Q860 257 869 284 Q878 311 882.5 338 Q887 365 887 391 Q887 451 864.5 508.5 Q842 566 799 606 Q770 633 733 650.5 Q696 668 657 677 Q634 682 610.5 685 Q587 688 563 688 Q535 688 502.5 684 Q470 680 436 669 Q402 658 367 639.5 Q332 621 299 592 Q227 529 189.5 439.5 Q152 350 152 247 Q152 205 159 164.5 Q166 124 180 85 Q191 56 204.5 29 Q218 2 238 -21 Q280 -71 344.5 -100.5 Q409 -130 487 -130 Q524 -130 557 -124.5 Q590 -119 616.5 -111 Q643 -103 662 -95.5 Q681 -88 690 -83 Q732 -63 765 -38 Q798 -13 823 12 Q848 37 864 60 Q880 83 889 100 Q890 102 894 107 Q898 112 906 112 Q911 112 915 109 Q919 106 919 102 Q919 91 905 70 Q891 49 868 24 Q845 -1 816 -26.5 Q787 -52 757 -71 Q699 -109 628.5 -133 Q558 -157 472 -157 Q376 -157 287 -117 Q225 -88 177 -42 Q129 6 96.5 75 Q64 144 64 235 Q64 303 82 360 Q100 417 127 462 Q154 507 185 540 Q216 573 242 594 Q313 653 391 681 Q469 709 556 709 Q659 709 736.5 677.5 Q814 646 858 601 Q903 556 919.5 502 Q936 448 936 400 Q936 359 926.5 322 Q917 285 900.5 254 Q884 223 862.5 197.5 Q841 172 817 153 Q772 118 719.5 102.5 Q667 87 626 87 Q603 87 588 92.5 Q573 98 564 106.5 Q555 115 551.5 125 Q548 135 548 144 Q548 148 548.5 153.5 Q549 159 551 165 Q542 152 529 138 Q516 124 499 112 Q482 100 460.5 92.5 Q439 85 413 85 Q383 85 360 95.5 Q337 106 322 123 Q307 140 299 163 Q291 186 291 211 Q291 241 300.5 270.5 Q310 300 325.5 328.5 Q341 357 360.5 382 Q380 407 400 428 Q438 467 471 488 Q504 509 530 518.5 Q556 528 572.5 530 Q589 532 594 532 Q629 532 651.5 514.5 Q674 497 679 467 L699 513 Z " />
<glyph glyph-name="A" unicode="A" horiz-adv-x="602" d="M375 246 L274 532 L173 246 L375 246 Z M167 223 L123 101 Q119 90 113 69.5 Q107 49 107 39 Q108 29 113.5 25 Q119 21 133 20 Q143 20 169 18 Q177 17 187.5 16.5 Q198 16 198 8 Q198 2 191.5 0 Q185 -2 172 -2 Q151 -2 126.5 -1 Q102 0 85 1 Q72 2 60.5 2.5 Q49 3 37 3 Q26 3 13 1.5 Q0 0 -10 0 Q-18 0 -21 2 Q-24 4 -24 9 Q-24 17 -13 17.5 Q-2 18 6 19 Q33 21 49 27 Q65 33 75 61 L285 653 L296 688 Q300 705 306 708 Q314 706 319 688 L373 532 L549 52 Q551 45 554.5 38 Q558 31 566 26 Q576 20 594.5 18.5 Q613 17 621 17 Q628 17 637.5 16 Q647 15 647 7 Q647 -2 632 -2 Q625 -2 597 -1 Q473 2 363 -1 Q357 -1 353 -1.5 Q349 -2 345 -2 Q332 -2 328.5 0.5 Q325 3 325 8 Q325 16 334 17 Q343 18 355 19 Q372 20 386 21 Q400 21 410.5 22 Q421 23 428 25.5 Q435 28 437 31 Q439 34 439 38 Q439 42 438 45 L381 223 L167 223 Z " />
<glyph glyph-name="B" unicode="B" horiz-adv-x="571" d="M206 60 Q206 40 210 30.5 Q214 21 226 20 Q238 19 271 20 Q303 21 331 32 Q359 43 377 63 Q397 85 408 120 Q419 155 419 190 Q419 209 415.5 232.5 Q412 256 401 278.5 Q390 301 370 320 Q350 339 317 349 Q304 353 289 355 Q283 356 264 357.5 Q245 359 206 358 L206 60 Z M206 379 L251 379 Q322 383 356 422.5 Q390 462 390 530 Q390 575 378 608 Q366 641 346 655 Q338 661 319 666.5 Q300 672 259 672 Q227 671 206 669 L206 379 Z M306 365 Q332 364 360.5 359 Q389 354 414 344 Q423 340 431.5 336 Q440 332 448 327 Q484 304 504 267.5 Q524 231 524 182 Q524 149 515 124 Q506 99 492 81 Q478 63 462 51 Q446 39 431 31 Q426 28 420.5 25.5 Q415 23 410 21 Q381 9 344 6 Q307 3 257 1 L211 0 L44 0 Q27 0 27 9 Q27 15 32.5 16.5 Q38 18 47 18 Q73 18 86 20 Q99 22 103 31 Q107 40 107 71 L107 612 Q107 639 106 650 Q105 661 101.5 666.5 Q98 672 85 674 Q72 676 52 676 Q46 676 35.5 677.5 Q25 679 25 687 Q25 693 33.5 694 Q42 695 50 695 Q77 694 98 694 L277 692 Q331 691 368.5 684.5 Q406 678 438 656 Q447 650 458 640.5 Q469 631 478.5 616.5 Q488 602 494 582.5 Q500 563 500 537 Q500 498 486 472.5 Q472 447 454 430 Q436 413 414 402 Q392 391 371.5 384.5 Q351 378 333.5 375 Q316 372 306 371 L306 365 Z " />
<glyph glyph-name="C" unicode="C" horiz-adv-x="654" d="M44 349 Q44 408 56.5 456 Q69 504 89 542 Q98 559 108.5 574.5 Q119 590 132 604 Q168 646 208.5 667.5 Q249 689 288 697 Q326 705 361 705 Q391 705 413.5 702 Q436 699 453.5 693 Q471 687 486 679 Q501 671 515 663.5 Q529 656 536 652.5 Q543 649 551 649 Q563 650 568 665 Q577 686 581 689.5 Q585 693 589 693 Q597 693 597 686 Q597 684 596.5 681 Q596 678 595 672 Q594 665 592 654 Q590 643 588.5 624.5 Q587 606 585.5 577.5 Q584 549 584 507 Q584 494 584 484 Q584 475 582.5 471 Q581 467 573 467 Q566 467 564 471 Q562 475 560 486 Q558 499 554.5 514.5 Q551 530 546.5 546.5 Q542 563 536 578 Q530 593 523 605 Q515 618 502.5 632 Q490 646 471.5 658 Q453 670 427.5 677.5 Q402 685 369 685 Q329 685 298 672.5 Q267 660 241 631 Q230 618 218.5 601 Q207 584 198 565 Q172 513 164 455.5 Q156 398 156 347 Q156 300 160.5 264 Q165 228 172.5 200 Q180 172 189 152 Q198 132 207 117 Q212 109 216.5 102 Q221 95 226 88 Q255 51 298 29.5 Q341 8 388 8 Q425 8 458 21 Q491 34 515 57 Q526 67 534 78.5 Q542 90 549 103 Q568 138 576 170.5 Q584 203 586 214 Q588 224 590.5 231 Q593 238 599 238 Q611 238 609 223 Q608 206 607 196 Q605 156 604.5 139 Q604 122 603 85 Q603 64 604 47.5 Q605 31 607 12 Q609 -7 599 -7 Q592 -7 585 8 Q577 26 572 36 Q567 46 557 51 Q533 30 509 17.5 Q485 5 462.5 -1.5 Q440 -8 420 -10 Q400 -12 384 -12 Q336 -12 296.5 -1.5 Q257 9 226.5 25 Q196 41 174 59.5 Q152 78 138 93 Q100 135 72 198.5 Q44 262 44 349 Z " />
<glyph glyph-name="D" unicode="D" horiz-adv-x="716" d="M207 69 Q207 58 207 48 Q207 38 217 33 Q219 32 225 30 Q234 28 245 26 Q256 24 267.5 23 Q279 22 290 21.5 Q301 21 309 21 Q346 21 375.5 28.5 Q405 36 427.5 47.5 Q450 59 466 72.5 Q482 86 492 97 Q514 122 528 154 Q540 180 551 226.5 Q562 273 562 348 Q562 394 557.5 429 Q553 464 547 489 Q541 514 534 531 Q527 548 521 558 Q500 595 473 617 Q446 639 415 651 Q384 663 351 667 Q318 671 285 671 Q278 671 267.5 670.5 Q257 670 246.5 668.5 Q236 667 226.5 664.5 Q217 662 213 657 Q208 651 207.5 638 Q207 625 207 609 L207 69 Z M107 611 Q107 634 107 648 Q107 662 100 668 Q95 672 86.5 673.5 Q78 675 68 675 Q59 675 49 675 Q40 675 33 678 Q25 681 25 687 Q25 692 31 694 Q34 695 40 695 Q59 695 72.5 694 Q86 693 109 693 L216 693 Q297 693 359 689 Q421 685 471 668 Q498 658 522.5 644 Q547 630 568 610 Q618 564 646 495 Q674 426 674 344 Q674 259 642.5 189.5 Q611 120 551 72 Q521 48 490.5 33.5 Q460 19 428.5 11.5 Q397 4 365 2 Q333 0 299 0 Q281 0 263.5 0.5 Q246 1 228 1 Q203 2 178 2 Q154 2 129 2 Q108 2 99 2 Q90 2 87 1.5 Q84 1 83 1 Q83 1 80 0.5 Q77 0 68 0 Q60 0 40 0 Q36 0 30.5 0.5 Q25 1 22 5 Q20 7 20 10 Q20 17 26.5 18 Q33 19 38 19 L52 19 Q67 19 81.5 21.5 Q96 24 103 34 Q106 39 106.5 46.5 Q107 54 107 72 L107 611 Z " />
<glyph glyph-name="E" unicode="E" horiz-adv-x="582" d="M230 378 Q283 378 319 380.5 Q355 383 373 400 Q389 415 393 443 Q397 471 400 494 Q402 503 403 509 Q404 515 412 515 Q418 515 420 509.5 Q422 504 422.5 496 Q423 488 422 479 Q421 470 420 462 Q419 445 418.5 422 Q418 399 418 373 Q418 348 418.5 324 Q419 300 420 282 Q421 265 421.5 256.5 Q422 248 422.5 243.5 Q423 239 423 236 Q423 234 423 229 Q423 225 421.5 219.5 Q420 214 412 214 Q404 214 401.5 226.5 Q399 239 394 278 Q392 295 387 312 Q382 329 368 340 Q352 351 323.5 354 Q295 357 251 357 L206 357 L206 21 L303 21 Q315 21 332 21 Q350 21 369 21.5 Q388 22 405.5 23 Q423 24 435 25 Q443 26 449.5 27 Q456 28 464 30 Q481 35 497 45.5 Q513 56 524 82 Q532 102 534 120 Q536 138 539 158 Q541 167 542.5 175 Q544 183 552 183 Q563 183 562.5 169 Q562 155 561 135 Q560 119 559 88.5 Q558 58 558 27 L558 -6 Q537 -5 508.5 -4 Q480 -3 435.5 -2.5 Q391 -2 327 -1.5 Q263 -1 170 -1 L96 -1 Q86 -1 76 -1.5 Q66 -2 56 -2 L45 -2 Q32 -2 28 2 Q26 4 26 7 Q26 14 35 14.5 Q44 15 68 17 Q81 18 89 19.5 Q97 21 101 27 Q105 33 106 44 Q107 55 107 75 L107 637 L107 653 Q107 659 106 662.5 Q105 666 103 668 Q98 674 86 675.5 Q74 677 59 677 L44 677 Q33 677 30.5 681 Q28 685 28 687 Q28 690 32 692 Q36 695 50 695 L118 694 Q169 692 221 694 Q236 694 251 694.5 Q266 695 281 695 L474 695 Q481 695 487 695 Q493 695 500 696 Q507 697 513 697 Q520 697 529 699 Q531 665 533 643 Q535 621 537 593 L543 526 Q544 519 540.5 516.5 Q537 514 533 514 Q525 514 522.5 523 Q520 532 518 540 Q508 587 492 614 Q476 641 456 653 Q447 659 433.5 662.5 Q420 666 400.5 668 Q381 670 353.5 670.5 Q326 671 288 671 L206 671 L206 378 L230 378 Z " />
<glyph glyph-name="F" unicode="F" horiz-adv-x="543" d="M206 377 L270 377 Q319 377 341 383.5 Q363 390 371 398 Q390 414 394 441 Q398 468 400 492 Q401 501 402.5 508 Q404 515 412 515 Q414 515 418 512.5 Q422 510 422 499 Q422 482 420 450 Q418 418 418 377 Q418 336 419 309 Q420 282 420.5 265 Q421 248 422 239 Q423 230 423 225 Q423 217 419.5 215 Q416 213 413 213 Q407 213 404 218.5 Q401 224 399.5 232.5 Q398 241 397.5 250 Q397 259 396 265 Q393 288 389 308.5 Q385 329 365 341 Q352 349 328.5 352.5 Q305 356 261 356 Q244 356 231 355.5 Q218 355 206 354 L206 56 Q206 48 206.5 40 Q207 32 217 25 Q226 18 239 17.5 Q252 17 264 17 Q276 17 284.5 15.5 Q293 14 293 7 Q293 2 286 0.5 Q279 -1 273 -1 Q238 -1 202.5 -0.5 Q167 0 132 0 Q110 0 88.5 -0.5 Q67 -1 45 -1 Q37 -1 33 0 Q28 3 27 4 Q26 5 26 7 Q26 11 30 13.5 Q34 16 39.5 16.5 Q45 17 51 17 Q57 17 61 17 Q79 17 88.5 20 Q98 23 102 29 Q106 35 106.5 45.5 Q107 56 107 73 L107 616 Q107 642 106.5 650 Q106 658 104 660 Q97 672 78.5 672.5 Q60 673 44 675 Q33 676 30.5 680 Q28 684 28 686 Q28 694 36.5 695 Q45 696 50 696 Q66 696 90 695.5 Q114 695 138 695 Q163 695 183.5 694.5 Q204 694 213 694 L320 694 Q370 694 407 695 Q444 696 491 698 Q499 699 507.5 699.5 Q516 700 527 702 Q528 697 528 691 Q528 686 529 681 Q530 674 530 669 Q530 664 532 644 Q535 609 537.5 588.5 Q540 568 541 556 Q542 544 542.5 538 Q543 532 543 528 Q543 514 533 514 Q525 514 523 522 Q521 530 519 539 Q514 565 503.5 594.5 Q493 624 470 644 Q448 663 421.5 666.5 Q395 670 367 671 Q352 671 337 671.5 Q322 672 307 672 Q296 672 273 671.5 Q250 671 206 669 L206 377 Z " />
<glyph glyph-name="G" unicode="G" horiz-adv-x="665" d="M599 68 Q585 56 566 42.5 Q547 29 529 19 Q496 2 463.5 -5 Q431 -12 391 -12 Q308 -12 250.5 10.5 Q193 33 156 64 Q119 95 99.5 128.5 Q80 162 71 183 Q56 220 49.5 258.5 Q43 297 43 337 Q43 423 68 490.5 Q93 558 135 605 Q163 636 194 655.5 Q225 675 256.5 686 Q288 697 320 701 Q352 705 382 705 Q396 705 409 704 Q422 703 435 700 Q454 695 472.5 687.5 Q491 680 516 669 Q528 664 536.5 661 Q545 658 553 658 Q558 658 566 661.5 Q574 665 579 682 Q581 687 583 691.5 Q585 696 591 696 Q599 696 599 686 Q599 683 597 667 Q594 637 593 610 Q592 583 592 544.5 Q592 506 591 483 Q591 464 580 465 Q571 466 570 481 Q568 509 561.5 538 Q555 567 540 595 Q523 626 501 644 Q479 662 457 671.5 Q435 681 415 684 Q395 687 381 687 Q325 687 287.5 663.5 Q250 640 228 612 Q208 586 194.5 556.5 Q181 527 173 495 Q163 457 159 419 Q155 381 155 343 Q155 322 157 291.5 Q159 261 165 227.5 Q171 194 183.5 159.5 Q196 125 217 95 Q238 65 262 47 Q286 29 309 20 Q332 11 352 8.5 Q372 6 386 6 Q397 6 412 8 Q427 10 442 15 Q457 20 470.5 29 Q484 38 493.5 53.5 Q503 69 505.5 86.5 Q508 104 508 116 L508 165 Q508 177 504.5 185 Q501 193 493 197.5 Q485 202 469 202 L424 202 Q412 202 411 211 Q411 221 433 221 Q477 220 494 220 Q511 220 556 219 Q599 219 627 220 Q655 221 665 221 Q687 222 687 211 Q687 202 675 202 Q650 203 633 201.5 Q616 200 610.5 196 Q605 192 603 185 Q601 178 600 164 Q599 150 599 125 L599 68 Z " />
<glyph glyph-name="H" unicode="H" horiz-adv-x="712" d="M205 365 L205 82 Q205 64 205 49 Q205 35 212 28 Q217 23 229.5 21 Q242 19 259 18 Q270 17 277.5 16.5 Q285 16 285 9 Q285 2 277.5 1 Q270 0 255 0 Q238 0 227.5 0.5 Q217 1 208 1 Q200 1 192.5 1.5 Q185 2 174 2 Q163 2 152.5 1.5 Q142 1 131 1 Q110 0 89 0 Q69 0 48 0 Q28 0 28 8 Q28 12 32.5 15 Q37 18 52 18 Q58 18 63 18 Q69 18 75 19 Q83 20 91.5 22.5 Q100 25 103 30 Q105 34 105.5 42 Q106 50 106 65 L106 634 Q106 643 105.5 653.5 Q105 664 100 669 Q96 674 87.5 675 Q79 676 69 676 Q64 676 59.5 676.5 Q55 677 50 677 Q36 678 32 679 Q28 680 28 687 Q28 690 30.5 692.5 Q33 695 43 695 Q50 695 55 694.5 Q60 694 74 693.5 Q88 693 116.5 692.5 Q145 692 200 692 Q224 692 230 692.5 Q236 693 237 693 Q238 693 241.5 693.5 Q245 694 265 694 Q272 694 275 693 Q277 692 280 690.5 Q283 689 283 684 Q283 681 281 679 Q279 676 271 675.5 Q263 675 259 675 L236 675 Q226 675 221 673 Q214 671 211 667 Q209 665 207 657.5 Q205 650 205 631 L205 390 L506 390 L506 605 Q506 625 506 636 Q506 647 504 655 Q501 669 493.5 672.5 Q486 676 472 676 L442 676 Q431 676 429 680 Q427 684 427 686 Q427 689 430 691 Q434 694 444 694 Q456 694 468 693.5 Q480 693 492 693 L498 693 L571 693 Q586 693 601 693 Q616 693 631 694 Q639 694 646 694.5 Q653 695 661 695 Q669 695 676 694 Q683 693 683 686 Q683 680 677 678.5 Q671 677 667 677 L639 676 Q632 676 622.5 674.5 Q613 673 609 667 Q607 665 606.5 661.5 Q606 658 606 650 Q605 642 605 633 Q605 624 605 616 L605 73 Q605 51 606 41.5 Q607 32 610 28 Q615 22 627.5 19.5 Q640 17 648 17 L668 17 Q673 17 678.5 16 Q684 15 684 9 Q684 1 674.5 0.5 Q665 0 657 0 Q640 0 622 0.5 Q604 1 587 1 Q552 1 518 0 Q484 -1 450 -1 Q437 -1 433 0 Q429 1 428 2 Q426 4 426 7 Q426 14 439.5 15 Q453 16 473 18 Q480 19 488.5 19.5 Q497 20 501 25 Q503 27 504.5 33 Q506 39 506 56 L506 365 L205 365 Z " />
<glyph glyph-name="I" unicode="I" horiz-adv-x="314" d="M107 611 Q107 633 107 646 Q107 660 102 666 Q94 676 74 677 Q54 678 39 678 Q27 678 28 687 Q28 696 42 695 Q74 695 105.5 694 Q137 693 169 693 Q206 694 221 694 Q236 694 249.5 694.5 Q263 695 270 695 Q289 696 287 685 Q287 676 263 677 Q248 676 234.5 676 Q221 676 214 669 Q207 662 207 625 L207 69 Q207 49 208 41 Q209 33 214 27.5 Q219 22 236.5 19.5 Q254 17 276 16 Q288 15 288 8 Q288 0 271 0 Q235 1 197.5 2 Q160 3 131 3 Q111 3 92.5 2 Q74 1 45 0 Q41 0 34.5 0.5 Q28 1 27 8 Q27 17 38 17 Q61 18 75.5 19.5 Q90 21 97 25.5 Q104 30 105.5 41.5 Q107 53 107 85 L107 611 Z " />
<glyph glyph-name="J" unicode="J" horiz-adv-x="328" d="M132 634 Q132 652 126.5 661 Q121 670 112 673.5 Q103 677 80 677 L51 677 Q38 677 38 685 Q38 695 56 695 Q63 695 67.5 694.5 Q72 694 78 694 Q85 694 94.5 693.5 Q104 693 122 693 Q139 693 163 693.5 Q187 694 211 694 Q236 694 256.5 694.5 Q277 695 288 695 Q310 696 311 685 Q310 676 299 677 Q276 676 259 675.5 Q242 675 236.5 668 Q231 661 231 640 L231 208 Q231 160 230.5 126.5 Q230 93 229 70 Q228 47 226.5 32 Q225 17 222 6 Q216 -20 200.5 -43 Q185 -66 164 -83 Q143 -100 117 -110 Q91 -120 63 -120 Q21 -120 -1 -97 Q-23 -74 -23 -45 Q-23 -20 -7.5 -4.5 Q8 11 34 11 Q60 11 73.5 -4.5 Q87 -20 87 -38 Q87 -52 82.5 -60 Q78 -68 74 -73 Q70 -78 67.5 -81 Q65 -84 65 -87 L65 -90 Q65 -93 67 -96 Q69 -99 80 -99 Q99 -99 111 -85 Q123 -71 128 -51 Q131 -37 131.5 -18 Q132 1 132 30 L132 634 Z " />
<glyph glyph-name="K" unicode="K" horiz-adv-x="666" d="M207 69 Q207 58 207.5 49 Q208 40 211 33.5 Q214 27 222 23 Q230 19 245 18 Q257 17 266 17 Q275 17 281.5 15.5 Q288 14 288 7 Q288 -2 274 -2 Q251 -2 219 -0.5 Q187 1 145 1 Q123 1 107.5 0.5 Q92 0 80.5 -0.5 Q69 -1 60 -1.5 Q51 -2 42 -2 Q26 -3 27 7 Q27 17 40 17 Q54 17 65.5 17.5 Q77 18 89.5 21 Q102 24 105 36.5 Q108 49 107 75 L107 623 Q107 643 106 653 Q105 663 99 668 Q97 670 90 672 Q83 674 65 674 L52 674 Q42 674 35 675.5 Q28 677 28 684 Q28 693 48 693 Q75 691 185 691 Q234 693 265 694 Q286 694 287 683 Q287 674 273.5 673.5 Q260 673 247 673 Q231 673 221.5 670.5 Q212 668 209.5 658 Q207 648 207 634 L207 376 L465 634 Q476 645 480.5 651.5 Q485 658 485 662 Q485 665 477 669.5 Q469 674 444 674 L424 674 Q408 674 408 684 Q408 693 423 693.5 Q438 694 447.5 693.5 Q457 693 464 693 L598 693 Q604 693 614 692 Q624 691 624 682 Q623 671 602 671 L572 671 Q558 671 549 669.5 Q540 668 533.5 665 Q527 662 521 656.5 Q515 651 508 643 L280 409 L571 76 Q587 58 597.5 45 Q608 32 620 26 Q625 23 632.5 21 Q640 19 649 18.5 Q658 18 667 17.5 Q676 17 684.5 17.5 Q693 18 694 8 Q694 -2 678 -1 Q646 -1 616.5 -0.5 Q587 0 557 0 Q529 0 510 -0.5 Q491 -1 476 -1 Q462 -1 449.5 -1.5 Q437 -2 422 -2 Q404 -3 403 6 Q403 15 418.5 15.5 Q434 16 443 17 Q452 18 460.5 19.5 Q469 21 474.5 24 Q480 27 480 33 Q480 39 470 51 L207 358 L207 69 Z " />
<glyph glyph-name="L" unicode="L" horiz-adv-x="564" d="M206 23 Q259 22 281 22 Q304 22 351 23.5 Q398 25 424.5 28.5 Q451 32 464.5 38 Q478 44 489.5 52.5 Q501 61 509 74 Q515 84 521 109.5 Q527 135 531 166 Q532 181 544 181 Q558 181 555 159 L555 79 Q555 70 554.5 50.5 Q554 31 552 -7 Q529 -7 511.5 -6.5 Q494 -6 475 -5 Q456 -4 431 -3 Q406 -2 368 -1 Q330 0 275 0.5 Q220 1 141 1 Q118 1 96 0.5 Q74 0 51 0 Q26 -2 27 9 Q27 14 32.5 15.5 Q38 17 44.5 17.5 Q51 18 61 18.5 Q71 19 83 20 Q95 21 100 26.5 Q105 32 106 42.5 Q107 53 107 64 L107 626 Q107 643 106.5 652 Q106 661 102 666 Q99 670 93 672 Q87 674 81 674.5 Q75 675 67 675 L46 675 Q34 675 30.5 679.5 Q27 684 27 686 Q27 693 33.5 694 Q40 695 44 695 Q54 695 71 694.5 Q88 694 106.5 693.5 Q125 693 141 692.5 Q157 692 166 692 Q185 692 198 692.5 Q211 693 221.5 693.5 Q232 694 242.5 694.5 Q253 695 268 695 Q280 695 283 691 Q286 687 286 685 Q286 677 278 676.5 Q270 676 258.5 677.5 Q247 679 234.5 678 Q222 677 213 668 Q206 661 206 648 Q206 635 206 624 L206 23 Z " />
<glyph glyph-name="M" unicode="M" horiz-adv-x="755" d="M116 694 Q137 694 153.5 693.5 Q170 693 199 695 L239 592 L387 188 L548 695 L698 696 Q726 696 733.5 693.5 Q741 691 741 685 Q741 676 735 675 Q729 674 719 674 Q712 674 698.5 673.5 Q685 673 670.5 668 Q656 663 652.5 653 Q649 643 648.5 626.5 Q648 610 648 599 L648 74 Q648 63 648 51.5 Q648 40 659 30 Q670 20 688.5 19 Q707 18 719.5 18 Q732 18 739.5 17 Q747 16 747 8 Q747 1 740.5 -0.5 Q734 -2 726 -2 Q686 -2 664 -1 Q642 0 607 0 L537 0 L476 -1 Q468 -1 461.5 0.5 Q455 2 455 9 Q455 16 461.5 17 Q468 18 473 18 L484 18 Q491 18 505.5 18.5 Q520 19 529.5 21 Q539 23 544.5 27.5 Q550 32 550.5 39.5 Q551 47 551 74 L551 614 L367 23 Q365 9 357 9 Q351 9 347.5 18 Q344 27 342 33 L138 594 L139 568 L139 61 Q139 55 139.5 45.5 Q140 36 142 32 Q147 21 163.5 20 Q180 19 193 19 Q203 19 213 18.5 Q223 18 223 10 Q223 3 215.5 1.5 Q208 0 202 0 Q184 0 172.5 1 Q161 2 129 2 L38 -1 Q20 1 20 8 Q20 16 30 17 Q40 18 51 18.5 Q62 19 77 19 Q96 19 102.5 24.5 Q109 30 109 59 L109 626 Q109 641 107 648.5 Q105 656 100.5 660 Q96 664 84 668 Q72 672 34 675 Q29 675 23.5 676.5 Q18 678 18 684 Q17 695 26 695 Q35 695 48 694.5 Q61 694 69 694 L116 694 Z " />
<glyph glyph-name="N" unicode="N" horiz-adv-x="656" d="M528 640 Q528 657 525.5 664.5 Q523 672 518 674 Q513 676 505 676 L457 676 Q435 675 435 685 Q435 691 442 693 Q449 695 466 695 Q486 695 504.5 694.5 Q523 694 543 694 Q560 694 577 694.5 Q594 695 611 695 Q619 695 630.5 694 Q642 693 642 686 Q642 675 621 676 Q611 676 601.5 676.5 Q592 677 583 677 Q571 677 566 676 Q561 675 558 672 Q555 669 555 660.5 Q555 652 555 638 L555 40 Q555 23 555 7 Q555 -9 547 -9 Q539 -9 534 -1 L418 178 L136 596 L136 82 Q136 50 138.5 39 Q141 28 151 23.5 Q161 19 187 18 Q200 18 216 18 Q232 18 232 9 Q233 -2 206 -1 Q198 -1 190 -0.5 Q182 0 167 1 Q152 2 126 3 Q93 2 76.5 0.5 Q60 -1 34 -1 Q10 -2 11 8 Q11 15 18 16 Q25 17 31 17 Q43 17 62 17.5 Q81 18 93.5 22.5 Q106 27 107.5 37.5 Q109 48 109 67 L109 560 Q109 591 104.5 618.5 Q100 646 82.5 658 Q65 670 47 671.5 Q29 673 19 673 Q-10 672 -8 684 Q-8 694 10 693 Q27 693 47.5 692.5 Q68 692 91 691 Q101 691 122 692 Q143 693 156 693 Q169 693 184 694 L247 600 L528 180 L528 640 Z " />
<glyph glyph-name="O" unicode="O" horiz-adv-x="720" d="M365 705 Q299 705 241.5 681 Q184 657 142 615 Q109 581 89 542 Q43 457 43 350 Q43 292 58 238 Q70 196 91 157.5 Q112 119 139 90 Q169 54 217 28 Q247 11 285 -0.5 Q323 -12 369 -12 Q408 -12 443 -2.5 Q478 7 512 27 Q552 50 580 81 Q619 123 648.5 189 Q678 255 678 343 Q678 388 671.5 419.5 Q665 451 661 465 Q649 507 627.5 545 Q606 583 577 613 Q535 655 482 680 Q429 705 365 705 Z M360 687 Q413 687 441.5 669.5 Q470 652 491 623 Q537 559 551.5 486 Q566 413 566 338 Q566 278 556 212.5 Q546 147 513 90 Q492 54 460 30 Q428 6 374 6 Q333 6 302.5 18.5 Q272 31 250.5 50 Q229 69 215 91 Q201 113 192 132 Q180 160 167.5 210.5 Q155 261 155 345 Q155 420 166 473.5 Q177 527 191 562 Q205 597 218 615 Q231 633 236 638 Q264 667 296.5 677 Q329 687 360 687 Z " />
<glyph glyph-name="P" unicode="P" horiz-adv-x="504" d="M206 368 Q240 362 276 369.5 Q312 377 333.5 391.5 Q355 406 368.5 428 Q382 450 387.5 472 Q393 494 393 526 Q393 548 388.5 579.5 Q384 611 364 636 Q345 661 318 668.5 Q291 676 265 676 Q237 676 227.5 671.5 Q218 667 214 663.5 Q210 660 208 655 Q206 650 206 631 L206 368 Z M206 66 Q206 37 211 29.5 Q216 22 230 20 Q240 18 253.5 17 Q267 16 281 16 Q297 15 297 9 Q298 -1 282 -1 Q263 -2 224 -0.5 Q185 1 159 1 L53 -1 Q41 -1 32 0.5 Q23 2 23 9 Q23 16 38 16 Q58 16 68 17 Q78 18 87.5 20.5 Q97 23 102 29 Q107 35 107 46 L107 635 Q107 649 104 658 Q101 667 92.5 671 Q84 675 75 676 Q66 677 58.5 677 Q51 677 38 676 Q33 676 28 677.5 Q23 679 23 685 Q23 693 32.5 694 Q42 695 51 695 L271 695 Q310 695 338.5 690.5 Q367 686 386.5 680 Q406 674 418.5 667 Q431 660 438 655 Q466 634 482 601 Q498 568 498 530 Q498 498 488 469 Q478 442 459.5 418 Q441 394 415 377 Q387 359 355 351 Q323 343 283 343 Q272 343 252 344 Q232 345 206 350 L206 66 Z " />
<glyph glyph-name="Q" unicode="Q" horiz-adv-x="721" d="M360 687 Q329 687 296.5 677 Q264 667 236 638 Q223 624 213.5 608 Q204 592 196 575 Q182 544 174 511.5 Q166 479 161.5 448.5 Q157 418 156 391 Q155 364 155 345 Q155 327 156 302 Q157 277 161 248.5 Q165 220 172.5 189.5 Q180 159 192 131 Q220 68 266.5 37 Q313 6 374 6 Q401 6 426 13.5 Q451 21 474 41 Q486 52 495.5 64 Q505 76 513 90 Q535 127 550.5 185.5 Q566 244 566 338 Q566 382 559.5 440 Q553 498 530 554 Q515 590 491 623 Q470 652 441.5 669.5 Q413 687 360 687 Z M411 -45 Q411 -83 421 -115.5 Q431 -148 462 -164 Q477 -172 501 -175 Q525 -178 542 -178 Q562 -178 572.5 -177.5 Q583 -177 596 -175 Q616 -174 617 -186 Q617 -200 578.5 -204 Q540 -208 518 -209 Q496 -210 484 -210 Q449 -210 414 -201.5 Q379 -193 356 -175 Q325 -151 314.5 -110 Q304 -69 309 -6 Q261 2 215.5 29.5 Q170 57 139 90 Q128 102 112 124 Q96 146 80.5 178.5 Q65 211 54 254 Q43 297 43 350 Q43 411 56 458.5 Q69 506 89 542 Q109 580 142 615 Q191 664 252 684.5 Q313 705 368 705 Q419 705 474 684.5 Q529 664 577 613 Q632 556 655 483 Q678 410 678 338 Q678 255 649.5 189.5 Q621 124 580 81 Q551 49 508 24 Q465 -1 411 -9 L411 -45 Z " />
<glyph glyph-name="R" unicode="R" horiz-adv-x="588" d="M206 379 Q216 379 231 379.5 Q246 380 262.5 382 Q279 384 295.5 388.5 Q312 393 325 401 Q346 413 358 428 Q370 443 376.5 460.5 Q383 478 385 496 Q387 514 387 531 Q387 553 384 574 Q381 595 372 614 Q364 630 350 645 Q330 665 305.5 669.5 Q281 674 260 674 Q241 674 230.5 671 Q220 668 215 663 Q209 657 207.5 648.5 Q206 640 206 633 L206 379 Z M206 43 Q206 29 214 25.5 Q222 22 230 20 Q250 16 260 16 Q271 16 284 16 Q286 16 291.5 14.5 Q297 13 297 8 Q297 2 289 0 Q284 -1 274 -1 Q247 -1 220 -0.5 Q193 0 166 0 Q136 0 106 -0.5 Q76 -1 39 -1 Q23 0 23 8 Q23 13 28.5 14.5 Q34 16 39 16 Q74 16 86.5 19.5 Q99 23 103 28 Q106 32 106.5 37.5 Q107 43 107 57 L107 619 Q107 635 106.5 647.5 Q106 660 99 667 Q91 675 73 675 Q56 675 36 676 Q33 676 27.5 677 Q22 678 22 685 Q22 696 40 695 Q57 695 74.5 694.5 Q92 694 130 692 Q140 692 149 691.5 Q158 691 168 691 Q182 691 193.5 691.5 Q205 692 217 692.5 Q229 693 244 693.5 Q259 694 280 694 Q317 694 359 687 Q401 680 436 655 Q460 637 474 615 Q494 581 494 542 Q494 526 490.5 507.5 Q487 489 476.5 470 Q466 451 448 433.5 Q430 416 401 401 Q376 388 344 380 Q312 372 276 371 L276 364 Q300 361 317.5 357.5 Q335 354 353 347 Q371 340 389 329 Q407 318 422 302 Q439 283 449 260 Q459 237 465.5 210.5 Q472 184 475.5 154.5 Q479 125 483 94 Q486 71 490.5 51 Q495 31 507 20 Q514 14 522.5 11 Q531 8 539 8 Q549 8 551.5 10.5 Q554 13 554 16 Q554 20 551 23 Q548 26 548 34 Q548 44 554.5 49.5 Q561 55 570 55 Q580 56 587 50.5 Q594 45 594 30 Q594 17 587.5 9 Q581 1 570.5 -3.5 Q560 -8 548 -10 Q536 -12 526 -12 Q484 -12 453 6.5 Q422 25 402 53 Q388 72 382 90 Q376 108 373 129 Q370 150 368 176 Q366 202 361 239 Q358 260 353 279.5 Q348 299 332 317 Q318 332 290 345 Q262 358 206 358 L206 43 Z " />
<glyph glyph-name="S" unicode="S" horiz-adv-x="498" d="M422 551 Q423 546 423 536 Q423 533 422 528.5 Q421 524 414 524 Q409 524 406 527 Q404 529 403 532.5 Q402 536 401 539 Q397 557 390 578 Q383 599 368 621 Q345 654 314.5 669.5 Q284 685 255 685 Q235 685 215.5 678.5 Q196 672 180.5 658 Q165 644 155.5 621 Q146 598 146 565 Q146 554 147 544 Q148 534 151 524 Q156 506 166 490.5 Q176 475 189 463 Q200 453 212.5 445.5 Q225 438 238 430 Q252 422 265.5 415.5 Q279 409 293 401 Q317 388 341.5 373.5 Q366 359 388 342.5 Q410 326 427.5 306.5 Q445 287 455 264 Q463 248 466 230.5 Q469 213 469 195 Q469 160 456 125 Q443 90 414 59 Q378 21 331.5 4.5 Q285 -12 238 -12 Q216 -12 193 -7 Q169 -2 153 5.5 Q137 13 117 21 Q103 27 97 28.5 Q91 30 87 30 Q81 30 78 27.5 Q75 25 74 20.5 Q73 16 73 11 Q72 2 70.5 -6 Q69 -14 59 -14 Q49 -14 49 0 Q49 14 53.5 43.5 Q58 73 58 122 Q57 152 56 164.5 Q55 177 55 194 Q54 199 56 204 Q58 209 67 210 Q74 210 76 205 Q78 200 79 195 Q84 165 91 138 Q98 111 114 84 Q138 43 172.5 25.5 Q207 8 250 8 Q278 8 304 17 Q330 27 346 44 Q359 58 368.5 81.5 Q378 105 378 139 Q378 177 364.5 204.5 Q351 232 330.5 252.5 Q310 273 284.5 287.5 Q259 302 235 314 Q191 337 154 359.5 Q117 382 94 415 Q78 439 70 468 Q65 491 65 511 Q65 598 119 652 Q146 678 182 691.5 Q218 705 258 705 Q281 705 300 699 Q319 693 348 682 Q357 679 364.5 676.5 Q372 674 380 674 Q389 674 392 677 Q395 680 397 687 Q399 696 400.5 702.5 Q402 709 411 709 Q418 709 420 703 Q421 701 421 697 Q421 692 420.5 687.5 Q420 683 419 674 Q417 661 417 649 Q417 637 417 624 Q417 607 417.5 595.5 Q418 584 418.5 576 Q419 568 420 562.5 Q421 557 422 551 Z " />
<glyph glyph-name="T" unicode="T" horiz-adv-x="585" d="M339 68 Q339 51 341 44 Q343 37 345 33 Q353 21 371 19.5 Q389 18 409 17 Q416 17 419 16 Q424 15 425 12.5 Q426 10 426 8 Q426 2 420.5 0.5 Q415 -1 410 -1 Q405 -1 403 -1 Q401 -1 392 0 Q387 0 376 0.5 Q365 1 352 1.5 Q339 2 326 2 Q313 2 304 2 Q290 2 275 2 Q261 2 247 1 Q233 1 219 0.5 Q205 0 191 0 L173 0 Q166 0 159 1 Q152 2 152 8 Q152 11 153 12 Q156 17 168 17.5 Q180 18 195 18 Q207 18 217.5 19.5 Q228 21 234 30 Q238 35 239 45 Q240 55 240 72 L240 671 Q183 671 157.5 668.5 Q132 666 117 661 Q94 653 80.5 639.5 Q67 626 59 607 Q51 590 48 573 Q45 556 43 539 Q41 528 39 518 Q37 508 29 508 Q25 508 21 512 Q17 516 17 529 Q17 539 18 550 Q19 561 20 574 Q22 593 23 622 Q24 651 29 695 L87 695 Q135 695 182.5 693.5 Q230 692 278 692 L344 692 Q370 692 402.5 692.5 Q435 693 465.5 693.5 Q496 694 520.5 695 Q545 696 556 696 Q557 688 558 674.5 Q559 661 560 646 Q561 631 562 617 Q563 603 564 595 Q565 572 566.5 558.5 Q568 545 568.5 536.5 Q569 528 569.5 523.5 Q570 519 570 516 Q570 509 566.5 506.5 Q563 504 559 504 Q550 504 547.5 512 Q545 520 543 528 Q541 536 540.5 547 Q540 558 538 566 Q532 600 515 627 Q507 639 493 651.5 Q479 664 446 669 Q435 671 420.5 671.5 Q406 672 391 672 Q376 672 362 671.5 Q348 671 339 671 L339 68 Z " />
<glyph glyph-name="U" unicode="U" horiz-adv-x="666" d="M200 243 Q200 186 205.5 142.5 Q211 99 241 64 Q246 58 256 49.5 Q266 41 281 33.5 Q296 26 317 20.5 Q338 15 366 15 Q406 15 434.5 26.5 Q463 38 482.5 56.5 Q502 75 513.5 98 Q525 121 531 143 Q540 175 541 215 Q542 255 542 314 L542 630 Q542 641 542.5 651 Q543 661 536 668 Q530 674 517 674.5 Q504 675 481 676 Q476 676 471.5 676.5 Q467 677 463 682 Q461 684 461 687 Q461 693 468 695 Q470 696 475 696 Q488 696 491.5 695.5 Q495 695 499 695 Q504 695 514 694.5 Q524 694 551 694 Q571 694 591.5 694.5 Q612 695 632 695 Q657 695 657 685 Q657 679 650 677.5 Q643 676 638 676 Q633 676 629.5 676.5 Q626 677 621 677 Q617 677 613 677.5 Q609 678 605 678 Q600 678 592 677 Q584 676 579 671 Q574 666 573.5 657.5 Q573 649 573 642 L573 267 Q573 226 569 195 Q565 164 560 142 Q555 120 549 106 Q543 92 539 85 Q509 30 459 9 Q409 -12 346 -12 Q320 -12 291 -8.5 Q262 -5 234 4 Q206 13 181.5 29 Q157 45 139 70 Q119 97 109.5 138 Q100 179 100 251 L100 613 Q100 627 100 636 Q100 646 98 654 Q96 664 91 668 Q85 674 72.5 673.5 Q60 673 38 675 Q33 675 27 676.5 Q21 678 21 685 Q21 691 27 693 Q31 694 38 694 Q64 694 90.5 693.5 Q117 693 143 693 Q161 693 179 693 Q197 693 215 694 Q226 694 237 694.5 Q248 695 259 695 Q270 695 273.5 691.5 Q277 688 277 684 Q277 677 271 676 Q265 675 262 675 L231 674 Q221 674 213 672.5 Q205 671 202 664 Q200 660 200 654 Q200 648 200 640 L200 243 Z " />
<glyph glyph-name="V" unicode="V" horiz-adv-x="633" d="M360 165 L514 610 Q519 625 520.5 632.5 Q522 640 523.5 646.5 Q525 653 525 656 Q525 664 518 670 Q514 673 505.5 675.5 Q497 678 476 678 Q469 678 463 677.5 Q457 677 450 677 Q439 677 436 679.5 Q433 682 433 685 Q433 690 437 692 Q441 694 446 694.5 Q451 695 457 695 Q483 695 506 694.5 Q529 694 552 694 Q572 694 593 694.5 Q614 695 634 695 Q637 695 645.5 694.5 Q654 694 654 687 Q654 680 646.5 679 Q639 678 635 678 L623 678 Q616 678 607.5 676.5 Q599 675 590 672.5 Q581 670 575 665 Q560 653 547 615 L340 7 Q338 0 336 -6.5 Q334 -13 329 -13 Q325 -13 321.5 -8 Q318 -3 315.5 3.5 Q313 10 310.5 16.5 Q308 23 307 27 L97 632 Q95 640 90 650 Q85 660 76 667 Q68 673 57.5 675.5 Q47 678 35 678 L14 678 Q7 678 -2 678.5 Q-11 679 -11 688 Q-11 696 -2.5 696.5 Q6 697 11 697 Q25 697 37 696.5 Q49 696 61.5 695.5 Q74 695 89 694.5 Q104 694 124 694 Q137 694 161 694.5 Q185 695 210.5 695.5 Q236 696 257.5 696.5 Q279 697 288 697 Q302 697 306 694 Q310 691 310 687 Q308 679 303 677.5 Q298 676 288 675.5 Q278 675 262 675 L213 673 Q194 672 193 664.5 Q192 657 194 652 L360 165 Z " />
<glyph glyph-name="W" unicode="W" horiz-adv-x="912" d="M577 647 Q579 652 580 656 Q581 660 575 665 Q572 668 559.5 671.5 Q547 675 511 675 Q477 675 467.5 673 Q458 671 456 669 Q453 666 453 662 Q453 659 457 648 L512 488 L577 647 Z M690 678 Q684 678 674.5 677 Q665 676 655 674.5 Q645 673 636 671 Q627 669 622 666 Q613 661 609.5 653.5 Q606 646 603 638 L527 454 L650 144 L808 603 Q815 623 818.5 634.5 Q822 646 822 656 Q822 661 819.5 667 Q817 673 804 675 Q794 677 783 676 Q772 675 755 677 Q739 678 738 687 Q738 698 758 697 Q781 697 802 695.5 Q823 694 843 694 Q860 694 877 694.5 Q894 695 911 695 Q941 696 941 687 Q941 676 930 676.5 Q919 677 907 677 Q881 676 871.5 670 Q862 664 857 654 Q852 646 844 625 Q836 604 831 589 L630 5 Q628 0 626 -6.5 Q624 -13 619 -13 Q617 -13 615 -11 Q610 -7 608.5 -2 Q607 3 604 11 L471 352 L333 2 Q331 -2 329 -7.5 Q327 -13 322 -13 Q317 -13 314.5 -7.5 Q312 -2 310 4 L73 635 Q67 652 64 657 Q61 662 60 664 Q55 670 47.5 671.5 Q40 673 35 674 Q27 675 19 675 Q12 675 4 676 Q-8 677 -16 679.5 Q-24 682 -24 689 Q-24 698 -8 698 Q0 698 21.5 696 Q43 694 95 694 Q136 694 176.5 695.5 Q217 697 246 697 Q251 697 257.5 696 Q264 695 264 688 Q264 683 259 680 Q254 677 240 676 Q226 676 216.5 675.5 Q207 675 188 672 Q184 671 177.5 669 Q171 667 171 659 Q174 648 178 637 L355 139 L455 388 L356 644 Q351 660 340 669 Q333 674 319.5 676 Q306 678 298 678 L287 678 Q283 678 277 679.5 Q271 681 271 686 Q271 691 274 694 Q277 697 282 697.5 Q287 698 292 698 Q309 698 322 697 Q335 696 350 695 Q361 695 375 694.5 Q389 694 415 693.5 Q441 693 483 693 Q526 693 595 693 Q624 693 640.5 693.5 Q657 694 667 695 Q677 696 683.5 696.5 Q690 697 700 697 Q724 698 724 687 Q724 678 707 678 L690 678 Z " />
<glyph glyph-name="X" unicode="X" horiz-adv-x="625" d="M371 18 Q376 18 388.5 18.5 Q401 19 407 22 Q415 27 415 35 Q415 47 410 59 Q405 71 400 82 L283 319 L141 79 Q131 62 127.5 55 Q124 48 124 40 Q124 30 130 26 Q134 24 144 21.5 Q154 19 186 19 L204 19 Q220 21 220 9 Q221 0 205 0 Q173 -2 142 -0.5 Q111 1 79 1 Q64 1 20 0 Q8 -1 -0.5 0 Q-9 1 -9 9 Q-9 17 -1 18.5 Q7 20 14 20 Q39 21 53 25 Q67 29 78 38 Q86 44 93.5 55 Q101 66 104 71 L269 349 L118 632 Q113 642 102.5 655.5 Q92 669 81 673 Q74 675 56.5 676 Q39 677 28 677 L15 677 Q3 678 3 685 Q3 693 10 694.5 Q17 696 22 696 Q55 696 82.5 694.5 Q110 693 145 693 Q280 695 288 695 L302 695 Q321 695 321 687 Q321 678 308 677 Q295 676 285 676 L266 676 Q242 676 233 673.5 Q224 671 222 669 Q220 667 219 665 Q218 663 218 660 Q218 657 219.5 651.5 Q221 646 222 644 L332 426 L458 630 Q461 635 466 645 Q471 655 471 661 Q471 669 462 672 Q458 674 450 675 Q442 676 420 676 L407 676 Q389 675 389 685 Q389 692 395.5 693.5 Q402 695 411 695 Q418 695 433 694 Q448 693 477 693 Q489 693 505 693.5 Q521 694 536 694.5 Q551 695 564 695.5 Q577 696 584 696 Q606 697 605 687 Q605 679 595 678 Q585 677 574 677 L560 677 Q552 677 538.5 675 Q525 673 517 667 Q509 661 500 647 Q491 633 471 601 L346 399 L510 80 Q517 67 529.5 49.5 Q542 32 559 24 Q572 19 588 18.5 Q604 18 619 18 Q644 21 644 8 Q644 -3 621 0 L602 0 Q533 2 480 2 Q416 1 388.5 0 Q361 -1 332 -1 Q327 -1 315 0 Q303 1 303 10 Q303 21 326 19 L371 18 Z " />
<glyph glyph-name="Y" unicode="Y" horiz-adv-x="607" d="M4 678 Q-17 677 -17 687 Q-17 700 1 697 Q11 697 34 696.5 Q57 696 82.5 695.5 Q108 695 131.5 694.5 Q155 694 167 694 Q197 694 212.5 694.5 Q228 695 242.5 695.5 Q257 696 268 696 Q285 697 285 685 Q285 677 274 677 Q263 677 251 677 Q242 677 231.5 676.5 Q221 676 211.5 674 Q202 672 195.5 667.5 Q189 663 189 655 Q188 649 189.5 643.5 Q191 638 193 635 L343 344 L486 631 Q491 643 492 656 Q492 667 487 670 Q482 673 475 674 Q466 676 451 677 Q436 678 428 678 Q424 678 415 679 Q406 680 406 688 Q406 694 413 695 Q420 696 425 696 Q439 696 454 695.5 Q469 695 483 695 Q495 695 506.5 695.5 Q518 696 530 696 Q544 696 558 696 Q572 696 586 695 Q597 695 607.5 693.5 Q618 692 618 686 Q618 679 612 678.5 Q606 678 601 678 Q584 679 563.5 674.5 Q543 670 533 659 Q528 654 522 643.5 Q516 633 513 626 L385 363 Q378 349 371.5 336 Q365 323 362 312 Q360 302 359.5 292 Q359 282 359 269 L359 66 Q359 60 359 49 Q359 38 364.5 31 Q370 24 381.5 22 Q393 20 419 18 Q428 17 441 16.5 Q454 16 454 8 Q454 -2 436 0 Q375 0 333 1.5 Q291 3 261 3 Q240 3 215.5 2 Q191 1 177 0 Q163 1 163 9 Q163 17 172 17.5 Q181 18 189 19 Q214 21 230 22 Q246 23 254 32 Q261 40 261 53 Q261 67 261 77 L261 288 L84 640 Q80 647 76 655 Q72 663 67 668 Q59 674 42.5 676 Q26 678 18 678 L4 678 Z " />
<glyph glyph-name="Z" unicode="Z" horiz-adv-x="562" d="M156 23 Q164 22 171.5 21.5 Q179 21 187 21 Q205 20 222 20 Q240 20 258 20 Q286 20 313 20 Q340 20 364.5 23.5 Q389 27 410.5 36 Q432 45 449 62 Q458 72 468 90 Q478 108 486 128.5 Q494 149 499.5 170.5 Q505 192 507 210 Q508 215 509.5 221 Q511 227 520 227 Q529 227 530.5 222 Q532 217 532 215 Q532 211 531 204.5 Q530 198 528.5 185.5 Q527 173 524 153.5 Q521 134 517 104 Q510 57 508 36 Q506 15 505 6 Q504 0 502.5 -2.5 Q501 -5 492 -5 Q472 -5 456 -4 Q440 -3 424 -2 Q388 0 348 0 Q309 0 270 0 Q233 0 196 0 Q160 0 124 -2 Q103 -4 87.5 -5.5 Q72 -7 55 -7 Q50 -7 44 -6 Q38 -5 38 1 Q38 6 42 12 Q46 18 55 35 L388 668 Q366 671 347.5 672 Q329 673 306 673 Q283 673 257.5 672 Q232 671 208 666 Q184 661 164.5 651 Q145 641 133 623 Q129 617 125.5 608.5 Q122 600 117.5 586 Q113 572 108 551 Q103 530 96 500 Q94 492 91.5 485.5 Q89 479 81 479 Q71 479 71 490 Q71 499 74 519 Q77 539 80.5 562 Q84 585 88 608 Q92 631 95 646 Q98 666 100 675.5 Q102 685 106 699 Q115 698 128 697 Q141 696 164 695 Q187 694 222 693.5 Q257 693 310 693 Q352 693 379.5 693.5 Q407 694 426.5 695 Q446 696 460.5 696.5 Q475 697 492 697 Q495 697 499 696 Q503 695 503 690 Q503 687 501 683.5 Q499 680 495 672 L156 23 Z " />
<glyph glyph-name="bracketleft" unicode="&#x5b;" horiz-adv-x="305" d="M89 695 L253 695 Q270 695 270 683 Q270 673 253 673 L212 673 Q204 673 193 672.5 Q182 672 175 668.5 Q168 665 166 660.5 Q164 656 164 638 L164 -71 Q164 -91 167.5 -104.5 Q171 -118 185.5 -121 Q200 -124 221 -124 L263 -124 Q277 -124 277 -135 Q277 -146 261 -146 L89 -146 L89 695 Z " />
<glyph glyph-name="backslash" unicode="&#x5c;" horiz-adv-x="489" d="M62 726 L475 -30 L426 -30 L13 726 L62 726 Z " />
<glyph glyph-name="bracketright" unicode="&#x5d;" horiz-adv-x="305" d="M45 -146 Q28 -146 28 -135 Q28 -124 45 -124 L84 -124 Q105 -124 117 -123 Q129 -122 133.5 -117.5 Q138 -113 139.5 -102.5 Q141 -92 141 -71 L141 638 Q141 656 139 660.5 Q137 665 133.5 667.5 Q130 670 122.5 671.5 Q115 673 93 673 L53 673 Q35 673 35 684 Q36 695 53 695 L216 695 L216 -146 L45 -146 Z " />
<glyph glyph-name="asciicircum" unicode="&#x5e;" horiz-adv-x="533" d="M370 325 Q350 352 310.5 414.5 Q271 477 230 583 Q203 511 180.5 469.5 Q158 428 141 403 Q123 376 111 359.5 Q99 343 91 334 Q83 325 78 322 Q73 319 70 319 Q59 319 59 330 Q59 340 71 353 Q94 380 116 417 Q138 454 157.5 492.5 Q177 531 192.5 568 Q208 605 218 633 Q234 676 240.5 691.5 Q247 707 260 707 Q271 707 277 696.5 Q283 686 289 671 Q295 656 306 631 Q338 556 377 480.5 Q416 405 469 325 L370 325 Z " />
<glyph glyph-name="underscore" unicode="&#x5f;" horiz-adv-x="520" d="M497 -91 L497 -137 L23 -137 L23 -91 L497 -91 Z " />
<glyph glyph-name="grave" unicode="&#x60;" horiz-adv-x="501" d="M281 522 Q286 513 286 511 Q286 505 280 505 Q273 505 263 516 Q249 530 236 542 Q223 554 210 568 L119 663 L219 663 L281 522 Z " />
<glyph glyph-name="a" unicode="a" horiz-adv-x="396" d="M252 224 Q232 219 205 210 Q178 201 159 190 Q138 177 125 157.5 Q112 138 112 106 Q112 70 132 51.5 Q152 33 177 33 Q202 33 220 48.5 Q238 64 246 81 Q248 85 250 93 Q251 99 251.5 115 Q252 131 252 137 L252 224 Z M332 110 Q332 78 333 64 Q334 50 336 45 Q340 30 346 25 Q352 20 361 20 Q370 20 378 22.5 Q386 25 394 29 Q404 35 413 45 Q415 47 416.5 49 Q418 51 422 51 Q426 51 427 49 Q428 47 428 45 Q428 40 424.5 34.5 Q421 29 416 25 Q408 18 397.5 12.5 Q387 7 378 3 Q361 -5 347.5 -7 Q334 -9 324 -9 Q303 -9 290 -2.5 Q277 4 270 12 Q263 20 258 32 Q252 45 252 62 Q238 34 217 18 Q196 2 177 -5 Q167 -9 156.5 -10.5 Q146 -12 135 -12 Q98 -12 76 3.5 Q54 19 45 36 Q35 55 35 79 Q35 96 43.5 120.5 Q52 145 78 171 Q90 183 104.5 192 Q119 201 134 209 Q150 217 163.5 221 Q177 225 193 229 Q224 237 252 241 L252 296 Q252 307 251.5 329.5 Q251 352 248 364 Q245 376 240 389.5 Q235 403 219.5 418 Q204 433 172 433 Q155 433 137.5 427.5 Q120 422 106 408 Q95 396 92 386 Q89 376 89 366 Q90 361 91.5 359 Q93 357 101 358 Q115 357 124.5 345.5 Q134 334 134 319 Q134 303 123.5 289 Q113 275 90 275 Q67 275 52 290.5 Q37 306 37 332 Q37 346 42 361 Q52 390 74 411 Q100 434 128.5 441 Q157 448 188 448 Q202 448 216 447 Q230 446 244 443 Q258 440 278 432.5 Q298 425 309.5 410 Q321 395 326.5 369.5 Q332 344 332 297 L332 110 Z " />
<glyph glyph-name="b" unicode="b" horiz-adv-x="481" d="M151 151 Q151 141 151 125 Q151 110 152 94.5 Q153 79 154.5 65.5 Q156 52 158 46 Q162 32 178 18 Q194 4 229 4 Q267 4 286.5 17.5 Q306 31 318 49 Q331 69 339 93 Q350 126 354.5 163 Q359 200 359 232 Q359 293 349.5 325.5 Q340 358 335 369 Q331 378 324.5 388.5 Q318 399 307.5 408 Q297 417 282.5 423 Q268 429 248 429 Q217 429 192.5 411 Q168 393 160 368 Q154 349 152.5 320 Q151 291 151 262 L151 151 Z M150 391 Q159 405 169.5 414.5 Q180 424 190 430 Q204 438 221 443 Q231 446 241 447 Q251 448 262 448 Q315 448 348 429.5 Q381 411 398 391 Q415 372 425.5 352 Q436 332 441.5 312 Q447 292 448.5 273.5 Q450 255 450 240 Q450 212 445.5 185 Q441 158 430 132 Q415 96 391 66 Q356 24 315.5 6 Q275 -12 237 -12 Q204 -12 170 1 Q159 6 147.5 10 Q136 14 125 14 Q115 14 110 11 Q105 8 100 5 Q92 0 89 -1.5 Q86 -3 84 -4 Q82 -5 78 -5 Q73 -5 71.5 1.5 Q70 8 70 28 L70 548 Q70 567 70 585 Q70 604 68 623 Q68 628 66 640 Q64 652 57 657 Q51 660 34 660 L18 660 Q14 660 7 660.5 Q0 661 -3 663 Q-6 664 -6 668 Q-6 675 5 675 L19 675 Q42 675 71.5 681 Q101 687 125 698 Q132 701 137 703 Q142 705 150 705 L150 391 Z " />
<glyph glyph-name="c" unicode="c" horiz-adv-x="409" d="M245 448 Q274 448 303.5 439 Q333 430 356 412 Q377 396 386 378.5 Q395 361 395 345 Q395 324 382.5 311.5 Q370 299 350 299 Q333 299 319.5 310 Q306 321 306 341 Q306 349 308 354.5 Q310 360 312 365 Q314 370 316.5 375.5 Q319 381 319 388 Q319 402 302.5 418 Q286 434 248 434 Q219 434 191 419 Q163 404 143 361 Q133 340 127 310.5 Q121 281 121 239 Q121 219 122.5 197 Q124 175 128 152.5 Q132 130 139 108.5 Q146 87 158 67.5 Q170 48 191.5 31.5 Q213 15 251 15 Q265 15 279 18 Q294 22 303 26 Q312 30 319 35 Q326 40 334 47 Q354 70 365 87 Q370 92 374 92 Q382 92 384 82 Q381 75 377.5 69.5 Q374 64 368 56.5 Q362 49 349 35 Q330 15 304 1.5 Q278 -12 236 -12 Q201 -12 163 0.5 Q125 13 92 48 Q31 110 31 210 Q31 266 49 311 Q67 356 98 387 Q128 418 166.5 433 Q205 448 245 448 Z " />
<glyph glyph-name="d" unicode="d" horiz-adv-x="476" d="M330 285 Q330 320 328 337 Q326 354 324 363 Q319 381 309 394 Q291 417 268 424 Q263 426 257 427 Q251 428 245 428 Q222 428 197.5 415 Q173 402 156 374 Q137 343 129.5 300 Q122 257 122 222 Q122 184 129 141.5 Q136 99 150 68 Q158 52 168 39 Q181 24 200 15 Q219 6 237 6 Q262 6 285.5 21.5 Q309 37 319 59 Q327 79 328.5 116 Q330 153 330 218 L330 285 Z M330 555 Q330 581 329 609.5 Q328 638 324 647.5 Q320 657 314 659 Q308 661 296 661 Q281 660 272 660 Q262 660 259.5 662 Q257 664 257 669 Q257 673 259 675.5 Q261 678 268 678 L304 677 Q311 677 323 679.5 Q335 682 348.5 686.5 Q362 691 372 694.5 Q382 698 389 701.5 Q396 705 405 706 Q412 706 412.5 699 Q413 692 413 687 Q412 650 412 617 L412 289 Q412 271 412 244 Q412 218 412 188 Q412 159 412.5 131 Q413 103 414 84 Q415 51 415.5 41.5 Q416 32 418 31 Q420 29 428.5 28.5 Q437 28 442 28 L464 28 Q473 28 475.5 25 Q478 22 478 20 Q478 18 477 17 Q476 16 473 14.5 Q470 13 459 13 Q453 13 446.5 13.5 Q440 14 434 14 Q417 14 395 10.5 Q373 7 350 -6 Q345 -8 341.5 -11 Q338 -14 334 -14 Q329 -14 328 -12 Q327 -10 326 -8 Q325 -6 325 -2 L326 29 Q311 14 293 5 Q279 -3 262.5 -7.5 Q246 -12 226 -12 Q218 -12 203 -11 Q188 -10 170 -4.5 Q152 1 132 12.5 Q112 24 93 44 Q65 73 48 117 Q31 161 31 218 Q31 275 48 318.5 Q65 362 91 390 Q111 411 145 429.5 Q179 448 231 448 Q242 448 255 446 Q268 444 281 439 Q294 434 306.5 424.5 Q319 415 330 399 L330 555 Z " />
<glyph glyph-name="e" unicode="e" horiz-adv-x="430" d="M317 313 Q317 327 314.5 348 Q312 369 304 386 Q284 433 231 433 Q205 433 187.5 422.5 Q170 412 156 391 Q148 378 143.5 364.5 Q139 351 135 337 Q133 331 132 325 Q131 319 130 313 L317 313 Z M127 294 Q125 280 123.5 262.5 Q122 245 122 229 Q122 190 130.5 149 Q139 108 156 81 Q170 58 197.5 39.5 Q225 21 272 21 Q303 21 327 35 Q337 41 345 49.5 Q353 58 360 67 Q365 74 369 80.5 Q373 87 377 94 Q379 98 381 101.5 Q383 105 385 108 Q390 116 396 116 Q404 116 404 109 Q404 107 403 102 Q402 97 394 83 Q387 71 378 58 Q369 45 356 32 Q351 27 342 19.5 Q333 12 319.5 5 Q306 -2 287 -7 Q268 -12 243 -12 Q214 -12 175 -1 Q136 10 99 47 Q70 76 50.5 116.5 Q31 157 31 214 Q31 246 38 278 Q45 310 60 339 Q77 372 98.5 393 Q120 414 143 426 Q166 438 189 443 Q212 448 232 448 Q255 448 278 443 Q301 438 321 427 Q350 411 374 381 Q398 351 402 300 Q391 298 372.5 297 Q354 296 336 296 L258 297 L182 296 L127 294 Z " />
<glyph glyph-name="f" unicode="f" horiz-adv-x="264" d="M237 436 Q242 436 249.5 435 Q257 434 257 427 Q257 419 248 418.5 Q239 418 231 418 L171 418 L171 27 Q171 19 176 17 Q180 15 187 14 Q194 13 199 13 L228 13 Q234 13 240.5 12 Q247 11 247 5 Q247 3 246 2 Q246 1 241 -1 Q238 -2 231 -2 Q220 -2 209.5 -1.5 Q199 -1 188 -1 Q177 0 165 0 Q154 0 143 0 Q117 0 93.5 -1 Q70 -2 40 -2 Q31 -2 23.5 -1.5 Q16 -1 16 6 Q16 11 21 12 Q26 13 30 13 Q60 14 72 14.5 Q84 15 86 20 Q87 22 87.5 28.5 Q88 35 88 38 L88 418 L59 418 Q49 418 44 420 Q39 422 39 427 Q39 434 45.5 435 Q52 436 57 436 L89 436 Q90 497 97 540.5 Q104 584 123 619 Q140 650 160 668 Q180 686 203 695 Q229 705 261 705 Q312 705 336.5 681.5 Q361 658 361 629 Q361 605 347 593 Q333 581 316 581 Q302 581 286.5 590.5 Q271 600 271 623 Q271 637 278 648 Q280 653 283.5 657.5 Q287 662 287 667 Q287 674 280.5 682 Q274 690 254 690 Q241 690 231 687 Q223 685 215 679 Q207 673 199 662 Q188 646 182 623.5 Q176 601 173.5 577 Q171 553 171 529 Q171 505 171 485 L171 436 L237 436 Z " />
<glyph glyph-name="g" unicode="g" horiz-adv-x="467" d="M121 -28 Q103 -37 93 -49.5 Q83 -62 78 -75 Q73 -88 71.5 -100 Q70 -112 70 -120 Q70 -149 81 -171 Q92 -193 110 -207.5 Q128 -222 152 -229 Q176 -236 203 -236 Q228 -236 251.5 -231 Q275 -226 298 -215 Q342 -193 362.5 -160.5 Q383 -128 383 -93 Q383 -80 380.5 -67.5 Q378 -55 371 -44 Q363 -32 352 -25 Q341 -18 329 -15 Q317 -12 305.5 -11 Q294 -10 285 -10 Q259 -10 236.5 -13 Q214 -16 197 -19 Q168 -24 152.5 -25.5 Q137 -27 121 -28 Z M229 435 Q202 435 186 423 Q170 411 161 387 Q155 372 151.5 351.5 Q148 331 148 300 Q148 240 162 202 Q165 194 170 184.5 Q175 175 183 167 Q191 159 202.5 153.5 Q214 148 230 148 Q251 148 269 161 Q286 175 294 200 Q296 208 301 229 Q306 250 306 290 Q306 340 300 362.5 Q294 385 291 392 Q282 411 266.5 422.5 Q251 434 229 435 Z M356 393 Q366 410 385 425 Q404 440 434 440 Q454 440 466 433.5 Q478 427 484 418 Q489 412 490.5 404.5 Q492 397 492 389 Q492 366 480 354.5 Q468 343 452 343 Q436 343 425 352.5 Q414 362 414 376 Q414 384 417 389.5 Q420 395 420 400 Q420 408 414 411 Q410 413 406 413 Q394 413 383 401 Q372 389 372 371 Q372 364 373.5 357 Q375 350 377 341 Q379 333 380.5 318.5 Q382 304 382 296 Q382 273 375 242.5 Q368 212 340 184 Q319 163 286 148.5 Q253 134 219 134 Q208 134 197 136.5 Q186 139 172.5 143 Q159 147 153 149.5 Q147 152 135 153 Q127 153 117.5 149.5 Q108 146 100 139 Q92 132 86 121.5 Q80 111 80 98 Q80 91 82 82 Q84 73 91 65.5 Q98 58 110.5 52.5 Q123 47 144 47 Q163 47 188.5 51 Q214 55 240.5 59 Q267 63 293 63 Q330 63 355 53 Q380 43 395.5 26 Q411 9 418 -12.5 Q425 -34 425 -58 Q425 -104 402 -144 Q379 -184 341 -210 Q303 -236 255.5 -247 Q208 -258 165 -258 Q140 -258 115 -254.5 Q90 -251 67 -241 Q24 -223 6 -194.5 Q-12 -166 -12 -134 Q-12 -114 -6 -96 Q4 -66 25.5 -50 Q47 -34 70.5 -28.5 Q94 -23 102 -21 Q97 -19 92 -16.5 Q87 -14 82 -12 Q67 -4 56 6 Q42 19 36.5 33 Q31 47 31 65 Q31 89 39 106 Q47 123 63 136 Q70 141 76.5 145 Q83 149 91 153 Q105 160 123 165 Q89 189 75 223 Q68 237 65.5 253 Q63 269 63 285 Q63 329 76 357.5 Q89 386 109 404 Q134 427 167.5 437.5 Q201 448 234 448 Q249 448 265.5 445.5 Q282 443 296 437 Q310 431 327 418 Q344 405 356 393 Z " />
<glyph glyph-name="h" unicode="h" horiz-adv-x="477" d="M156 384 Q172 408 192 423 Q210 437 228.5 442.5 Q247 448 273 448 Q300 448 327 442 Q347 437 363 428 Q379 419 390 404 Q409 380 411 347.5 Q413 315 413 275 L413 23 Q413 19 418 17 Q423 15 429.5 14 Q436 13 442 13 Q449 13 452 13 L463 13 Q474 13 474 6 Q474 4 471.5 1 Q469 -2 459 -2 Q449 -2 446 -1.5 Q443 -1 437 -1 Q431 -1 418.5 -0.5 Q406 0 378 0 Q352 0 326 0 Q301 0 275 -2 L270 -2 Q262 -1 262 6 Q262 11 267 12 Q272 13 275 13 L300 13 Q311 13 320 14 Q329 15 330 35 L330 56 L330 297 Q330 329 327.5 346 Q325 363 322 372 Q306 418 249 418 Q216 418 197.5 403.5 Q179 389 169 375 Q160 361 159.5 350 Q159 339 159 313 L159 58 Q159 51 159 43 Q159 36 160 27 Q161 21 164.5 18 Q168 15 182 14 Q195 13 209 14 Q223 15 223 5 Q223 4 222 1 Q221 -2 215 -2 Q213 -2 211 -1.5 Q209 -1 207 -1 L201 -1 L124 0 Q104 0 85 0 Q66 0 46 -2 L32 -2 L22 -2 Q11 -2 11 5 Q11 13 22 13 L37 13 Q60 13 68 15.5 Q76 18 76 28 L75 588 Q74 620 73.5 633 Q73 646 71 650 Q66 660 50 660 Q34 660 24 661 Q16 661 7 661.5 Q-2 662 -2 668 Q-2 672 2 674 Q6 676 12 676.5 Q18 677 24 677 Q31 677 37 677 Q58 678 72 680 Q86 682 105 688 Q127 696 133 700.5 Q139 705 145 706 Q152 705 153.5 696.5 Q155 688 156 675.5 Q157 663 156.5 650 Q156 637 156 629 L156 384 Z " />
<glyph glyph-name="i" unicode="i" horiz-adv-x="251" d="M77 629 Q77 648 90 661 Q103 674 122 674 Q140 674 153.5 661.5 Q167 649 167 629 Q167 610 154 597 Q141 584 122 584 Q103 584 90 597 Q77 610 77 629 Z M34 397 Q23 397 23 405 Q23 410 27 411.5 Q31 413 33 413 Q38 414 43 414 Q48 414 53 414 Q69 415 88 419 Q107 423 121 428 Q133 432 139.5 436 Q146 440 151 444.5 Q156 449 162 450 Q167 449 169 444.5 Q171 440 172 425 Q173 410 173 402 Q172 376 172 357 L172 74 Q172 43 172 32 Q172 21 183 18 Q185 17 189 16.5 Q193 16 202 15 Q209 14 215 14 Q221 14 228 14 Q242 14 242 6 Q242 1 239 -1 Q236 -3 224 -3 Q219 -3 215 -2.5 Q211 -2 203 -1 Q191 0 177 0.5 Q163 1 148 1 Q134 1 120 0.5 Q106 0 92 0 L72 0 Q54 -1 49 -1.5 Q44 -2 36 -2 Q31 -2 29 -1 Q24 1 24 6 Q24 13 30.5 14 Q37 15 44 15 Q63 16 73 16 Q83 16 86 21 Q87 23 88 29.5 Q89 36 89 62 L89 347 Q89 355 88.5 363 Q88 371 87.5 378 Q87 385 87 388 Q85 397 81 398 Q77 399 73 399 L44 398 L34 397 Z " />
<glyph glyph-name="j" unicode="j" horiz-adv-x="237" d="M79 630 Q79 648 92 661 Q105 674 124 674 Q143 674 156 661 Q169 648 169 629 Q169 613 157.5 598.5 Q146 584 124 584 Q105 584 92 597.5 Q79 611 79 630 Z M92 316 Q92 341 92 356 Q92 371 91.5 379 Q91 387 90.5 390 Q90 393 89 394 Q87 396 84 397.5 Q81 399 75 399 Q70 399 64.5 398.5 Q59 398 53 398 L19 398 Q8 398 8 406 Q8 412 12 412.5 Q16 413 22 413 L42 413 Q51 413 63 414.5 Q75 416 88.5 419 Q102 422 115 426.5 Q128 431 138 437 Q144 441 150 444.5 Q156 448 161 448 Q172 448 173 429 Q174 410 174 361 L174 -26 Q174 -101 155 -155.5 Q136 -210 102 -236 Q72 -258 36 -258 Q3 -258 -16.5 -241.5 Q-36 -225 -36 -200 Q-36 -182 -23.5 -168.5 Q-11 -155 15 -155 Q37 -155 47 -166 Q57 -177 57 -190 Q57 -194 56 -199.5 Q55 -205 54 -210 Q52 -215 51 -219.5 Q50 -224 50 -230 Q50 -232 50.5 -235.5 Q51 -239 56 -239 Q61 -239 66 -236 Q74 -231 77.5 -224 Q81 -217 83 -210 Q86 -199 88 -185.5 Q90 -172 91 -154 Q92 -136 92 -112 Q92 -88 92 -55 L92 316 Z " />
<glyph glyph-name="k" unicode="k" horiz-adv-x="469" d="M159 256 Q174 269 194.5 287.5 Q215 306 235 325 Q255 344 273 361.5 Q291 379 301 390 Q314 404 317.5 409 Q321 414 321 416 Q321 421 309.5 421.5 Q298 422 288 422 Q282 422 275.5 421.5 Q269 421 263 421 L251 421 Q240 421 236.5 422.5 Q233 424 233 429 Q233 434 238.5 435.5 Q244 437 252 437 L431 437 Q439 437 445.5 436.5 Q452 436 452 429 Q452 425 449 424 Q446 423 444 423 Q430 421 416.5 421.5 Q403 422 384 420 Q366 419 357.5 412 Q349 405 341 398 L216 277 L427 38 Q430 34 436.5 28 Q443 22 448 20 Q449 20 459 17 Q469 14 496 15 Q504 15 506.5 12.5 Q509 10 509 8 Q509 1 502 0.5 Q495 0 488 0 L444 0 Q434 0 425.5 0.5 Q417 1 396 2 L341 2 Q321 2 306.5 0.5 Q292 -1 272 -1 Q269 -1 264.5 0 Q260 1 260 6 Q260 11 263.5 12 Q267 13 273 14 Q279 14 288 14.5 Q297 15 305.5 16 Q314 17 320.5 20.5 Q327 24 327 30 Q327 32 325 37 Q323 42 321 44 L159 232 L159 42 Q159 30 160 24.5 Q161 19 169 16 Q174 14 187 14 L215 15 Q219 15 223.5 13.5 Q228 12 228 7 Q228 -1 220.5 -1.5 Q213 -2 205 -2 Q193 -2 181 -1.5 Q169 -1 157 -1 Q146 -1 134.5 -0.5 Q123 0 112 0 L34 0 Q25 0 17 0 Q10 0 10 8 Q10 16 22.5 15.5 Q35 15 45 16 Q56 17 63.5 18 Q71 19 74 27 Q75 31 75.5 41 Q76 51 76 79 L76 606 Q76 617 76 632 Q76 647 74 652 Q71 657 62 657 L34 657 Q31 657 28.5 656.5 Q26 656 23 656 Q9 656 9 663 Q9 671 16 671 Q23 671 32 672 Q52 673 75.5 677.5 Q99 682 119 694 Q127 699 133 703 Q139 707 148 708 Q156 706 157 697 Q158 688 158.5 671.5 Q159 655 159 625 L159 256 Z " />
<glyph glyph-name="l" unicode="l" horiz-adv-x="235" d="M76 612 Q76 622 76.5 634.5 Q77 647 71 652 Q66 656 58 656 L47 656 Q41 656 35 655.5 Q29 655 22 655 Q13 655 10.5 658 Q8 661 8 663 Q8 671 17 671.5 Q26 672 35 673 Q47 674 60 675.5 Q73 677 90 682 Q98 685 106 688 Q114 691 122 695 Q135 701 140.5 704.5 Q146 708 148 708 Q151 708 153 696.5 Q155 685 156 670 Q157 655 157.5 640.5 Q158 626 158 620 L158 59 Q158 30 159.5 24 Q161 18 166 16 Q169 15 174.5 14.5 Q180 14 185 14 Q191 14 195 14 Q200 14 201 14 L213 14 Q224 14 225 10 Q226 6 226 3 Q226 -2 220 -2 Q215 -2 213 -2 L204 -2 Q202 -2 190 -1.5 Q178 -1 164 -0.5 Q150 0 136.5 0.5 Q123 1 118 1 Q90 1 73.5 0.5 Q57 0 47.5 -0.5 Q38 -1 33.5 -1.5 Q29 -2 25 -2 Q10 -2 10 6 Q10 13 21 13 L47 13 Q61 13 66.5 14.5 Q72 16 74 20 Q76 25 76 43 Q76 62 76 103 L76 612 Z " />
<glyph glyph-name="m" unicode="m" horiz-adv-x="703" d="M169 384 Q177 397 188.5 409 Q200 421 214 429 Q232 440 252.5 444 Q273 448 292 448 Q325 448 343 440 Q361 432 367 428 Q380 420 390 404 Q393 399 395.5 393 Q398 387 400 381 Q420 414 448 430 Q468 441 488 444.5 Q508 448 525 448 Q537 448 550.5 446.5 Q564 445 577.5 439.5 Q591 434 603.5 423.5 Q616 413 625 396 Q637 373 638 349 Q639 325 639 302 L639 42 Q639 37 639 29 Q639 22 642 18 Q645 14 655 13 Q665 12 671 12 L692 13 Q703 13 703 6 Q703 0 696 -1 Q689 -2 685 -2 Q677 -2 669 -1.5 Q661 -1 653 -1 Q642 0 630 0 Q618 0 606 0 Q586 0 574 -0.5 Q562 -1 553 -1 Q544 -1 534.5 -1.5 Q525 -2 510 -2 Q507 -2 500 -1 Q493 0 493 5 Q493 13 499 13 Q506 13 512 13 L537 14 Q542 14 545 14 Q549 14 551.5 16.5 Q554 19 555.5 25.5 Q557 32 557 46 L557 311 Q557 324 555.5 343 Q554 362 549 378 Q544 391 532 404.5 Q520 418 491 418 Q462 418 439.5 402.5 Q417 387 409 361 Q408 357 407 352 Q406 347 405.5 337 Q405 327 405 309 Q405 292 405 264 L405 48 Q405 41 405 31 Q405 21 410 16 Q413 13 416 13 Q420 13 424 13 L453 13 Q455 13 460.5 12 Q466 11 466 5 Q466 3 464 0.5 Q462 -2 451 -2 L416 0 Q411 0 393 -1 Q375 -2 357 0 Q343 1 319.5 -0.5 Q296 -2 282 -2 L271 -2 Q269 -2 264 -1 Q259 0 259 6 Q259 8 262 10.5 Q265 13 275 13 L305 13 Q308 13 313 14.5 Q318 16 320 18 Q323 21 323 37 L323 316 Q323 343 319.5 367 Q316 391 302 404 Q292 412 282 415 Q270 418 258 418 Q245 418 231 414.5 Q217 411 202 400 Q191 392 181 376 Q171 360 171 337 L171 53 Q171 33 172.5 26 Q174 19 176 17 Q180 13 185 12.5 Q190 12 193 12 L224 13 Q232 13 233.5 10.5 Q235 8 235 6 Q235 1 231 -0.5 Q227 -2 222 -2 L194 -1 Q182 0 169 0 Q157 0 145 0 Q119 0 104 -0.5 Q89 -1 79 -1 Q70 -1 62.5 -1.5 Q55 -2 43 -2 Q31 -2 28 1 Q25 4 25 6 Q25 11 30.5 12 Q36 13 38 13 L44 13 Q64 13 72 14 Q80 15 83 17 Q89 21 89 29 L89 306 Q89 320 88.5 335 Q88 350 87.5 362.5 Q87 375 86 378 Q83 386 73.5 388 Q64 390 57 390 L44 390 Q39 390 34 389.5 Q29 389 24 389 Q19 389 15 390 Q11 391 11 397 Q11 405 30 405 Q53 405 77.5 410.5 Q102 416 122 424 Q136 429 146 438 Q149 441 153 444.5 Q157 448 162 448 Q165 448 166.5 444.5 Q168 441 168 428 Q168 416 168.5 410.5 Q169 405 169 401 L169 384 Z " />
<glyph glyph-name="n" unicode="n" horiz-adv-x="489" d="M169 381 Q179 393 191.5 405 Q204 417 216 425 Q235 437 258 442.5 Q281 448 302 448 Q328 448 349 441 Q367 435 381.5 424.5 Q396 414 407 395 Q411 387 414.5 378 Q418 369 420.5 356 Q423 343 424 325 Q425 307 425 281 L425 53 Q425 43 424.5 32.5 Q424 22 428 18 Q431 15 441 13.5 Q451 12 455 12 Q463 12 466.5 12.5 Q470 13 475 13 Q485 12 485 6 Q485 3 484 2 Q482 0 478 -1 Q474 -2 470 -2 L407 0 Q385 0 364 0 Q343 0 321 -1 Q314 -1 307 -1.5 Q300 -2 293 -2 L286 -2 Q281 -2 277 -0.5 Q273 1 273 5 Q273 14 288 13.5 Q303 13 317 13 Q322 13 328 13.5 Q334 14 338 18 Q341 21 341.5 25 Q342 29 342 34 L342 51 L342 297 Q342 321 342 337 Q342 354 334 373 Q327 390 318 399 Q307 410 293.5 414 Q280 418 266 418 Q237 418 219 407 Q201 396 188 381 Q185 377 180.5 371 Q176 365 174 361 Q172 356 172 351 Q172 346 172 338 L172 62 Q172 36 172.5 29.5 Q173 23 174 21 Q176 16 182 14.5 Q188 13 194 13 L224 12 Q227 12 230.5 11 Q234 10 234 5 Q234 1 230 -0.5 Q226 -2 222 -2 L186 -1 Q173 0 160 0 Q147 0 134 0 Q118 0 102 0 Q86 0 70 -1 Q65 -1 60 -1.5 Q55 -2 50 -2 L37 -2 Q29 -2 27 0 Q25 2 25 4 Q25 12 30 12.5 Q35 13 39 13 L72 14 Q77 14 83 16.5 Q89 19 89 36 L89 301 Q89 365 86 380 Q84 385 79 388.5 Q74 392 62 392 Q58 392 54.5 391.5 Q51 391 47 391 Q43 391 40 390.5 Q37 390 33 390 Q27 390 20 391 Q13 392 13 397 Q13 404 26.5 405 Q40 406 50 407 Q64 408 79 411 Q94 414 107 419 Q118 423 130 428.5 Q142 434 148 440 Q150 442 153 445 Q156 448 161 448 Q164 448 165 447 Q169 445 169 442 Q169 440 169 429 L169 381 Z " />
<glyph glyph-name="o" unicode="o" horiz-adv-x="480" d="M241 433 Q218 433 202 425 Q186 417 174 405 Q162 393 154.5 378.5 Q147 364 142 351 Q131 320 126.5 287 Q122 254 122 216 Q122 181 126.5 147 Q131 113 144 82 Q157 50 181.5 26 Q206 2 250 2 Q279 2 294 14 Q309 26 317 37 Q331 57 340 86 Q349 115 354 143 Q357 161 358 179.5 Q359 198 359 217 Q359 250 356 281.5 Q353 313 342 347 Q339 358 335 368 Q331 378 325 388 Q316 403 304.5 412 Q293 421 281.5 425.5 Q270 430 259 431.5 Q248 433 241 433 Z M239 448 Q264 448 290 442 Q313 436 337 423 Q361 410 382 389 Q417 355 433.5 309.5 Q450 264 450 216 Q450 171 435.5 128 Q421 85 391 53 Q364 23 325.5 5.5 Q287 -12 244 -12 Q219 -12 195 -6 Q169 0 144.5 12.5 Q120 25 100 45 Q78 66 62 94 Q31 149 31 216 Q31 268 48.5 312 Q66 356 95 387 Q122 416 159 432 Q196 448 239 448 Z " />
<glyph glyph-name="p" unicode="p" horiz-adv-x="489" d="M158 208 Q158 202 158 190 Q158 178 158.5 163 Q159 148 159.5 133.5 Q160 119 160 109 Q161 85 164 72 Q167 59 176 46 Q186 32 198 22 Q208 14 221.5 9.5 Q235 5 252 5 Q269 5 290 13.5 Q311 22 329 49 Q336 59 340.5 70 Q345 81 349 92 Q358 119 363 153 Q368 187 368 221 Q368 240 366 264.5 Q364 289 358 314 Q352 339 341.5 362 Q331 385 315 402 Q307 410 298 416 Q288 422 274 426 Q260 430 246 430 Q229 430 213.5 423.5 Q198 417 185.5 405.5 Q173 394 165.5 379 Q158 364 158 346 L158 208 Z M76 370 Q76 389 66 392.5 Q56 396 49 396 L7 398 Q1 398 -0.5 401 Q-2 404 -2 406 Q-2 411 3 412.5 Q8 414 16 414 L20 414 Q42 414 65 417 Q88 420 120 440 Q125 442 130 445 Q135 448 141 448 Q148 448 151 438 Q153 431 153.5 417 Q154 403 154 395 Q167 415 184 426 Q201 439 219 443.5 Q237 448 257 448 Q310 448 354 424 Q373 413 391.5 395 Q410 377 425 352 Q440 327 449 295 Q458 263 458 223 Q458 176 444 133.5 Q430 91 404 58.5 Q378 26 342 7 Q306 -12 261 -12 Q237 -12 219.5 -7 Q202 -2 190 5.5 Q178 13 170 21.5 Q162 30 158 36 L158 -210 Q158 -224 161.5 -226.5 Q165 -229 170 -230 Q179 -232 193 -232.5 Q207 -233 218 -233 L228 -233 Q233 -233 236.5 -235 Q240 -237 240 -242 Q240 -245 238 -247 Q236 -249 232 -249 Q229 -249 227 -249 L208 -249 L181 -248 L134 -248 L84 -249 L18 -249 Q2 -249 2 -242 Q2 -237 5.5 -235 Q9 -233 14 -233 L50 -233 Q55 -233 62.5 -232 Q70 -231 73 -226 Q76 -222 76 -200 L76 370 Z " />
<glyph glyph-name="q" unicode="q" horiz-adv-x="463" d="M328 314 Q328 337 328 351 Q328 365 327 372.5 Q326 380 324 386 Q322 391 320 394.5 Q318 398 316 402 Q308 413 300 418.5 Q292 424 281 427 Q263 432 246 432 Q182 432 151 375 Q140 355 134 331.5 Q128 308 125 285.5 Q122 263 121.5 243.5 Q121 224 121 212 Q121 170 126 139.5 Q131 109 140 85 Q157 40 183 24 Q209 8 237 8 Q263 8 287.5 23.5 Q312 39 322 64 Q328 81 328.5 104 Q329 127 328 160 L328 314 Z M328 35 Q314 19 299.5 9.5 Q285 0 271.5 -4.5 Q258 -9 246.5 -10.5 Q235 -12 226 -12 Q191 -12 160 -1 Q129 10 100 38 Q74 63 58 95 Q30 150 30 215 Q30 272 49.5 315.5 Q69 359 98 388 Q124 414 160.5 431 Q197 448 248 448 Q265 448 279.5 446 Q294 444 317 436 Q326 433 336 430 Q346 427 359 427 Q367 427 372 428.5 Q377 430 383 433 Q387 434 391 438 Q396 442 397 444.5 Q398 447 403 447 Q408 447 409.5 444 Q411 441 411 438 L411 430 L411 -215 Q411 -226 417.5 -228.5 Q424 -231 435 -232 Q442 -233 456 -233 Q471 -233 475 -238 Q476 -239 476 -242 Q476 -249 467 -248.5 Q458 -248 453 -248 L333 -246 Q319 -246 303.5 -247 Q288 -248 272 -248 Q262 -248 259.5 -245.5 Q257 -243 257 -241 Q257 -236 262.5 -235 Q268 -234 275 -233 Q284 -232 300.5 -231 Q317 -230 324 -225 Q326 -223 327 -216 Q328 -209 328 -184 L328 35 Z " />
<glyph glyph-name="r" unicode="r" horiz-adv-x="338" d="M170 374 Q179 391 188 404 Q197 417 208 427 Q232 448 262 448 Q294 448 315.5 429.5 Q337 411 337 380 Q337 354 321.5 340.5 Q306 327 287 327 Q267 327 256 338 Q245 349 245 364 Q245 375 254 388 Q256 392 259.5 395 Q263 398 263 402 Q263 405 261 409 Q255 417 241 417 Q221 417 210 404.5 Q199 392 193 382 Q188 373 184 364.5 Q180 356 177 342.5 Q174 329 172 308.5 Q170 288 170 256 L170 32 Q170 27 171 23.5 Q172 20 179 17 Q184 15 192 15 Q200 15 226 13 Q231 13 237 11 Q241 9 241 6 Q241 4 241 2 Q241 2 239 0 Q236 -2 228 -2 Q207 -2 194.5 -1.5 Q182 -1 172 -1 Q163 -1 153.5 -0.5 Q144 0 129 0 Q108 0 100 -0.5 Q92 -1 85 -1 Q79 -1 68.5 -1.5 Q58 -2 34 -2 Q29 -2 23.5 -1 Q18 0 18 5 Q18 8 20 9 Q22 10 24 11 Q26 12 31 12 L45 12 Q50 12 54 12 Q58 12 63 13 Q76 15 80 16.5 Q84 18 85 20 Q86 22 86.5 29 Q87 36 87 41 L87 332 Q87 350 86 368 Q85 386 71 395 Q67 397 59 399 Q51 401 43 402.5 Q35 404 27.5 404.5 Q20 405 18 405 Q14 405 10 406 Q6 407 6 412 Q6 419 16 419 L23 419 Q34 419 44.5 417.5 Q55 416 68 416 Q85 416 104 421.5 Q123 427 145 437 Q153 441 156.5 443.5 Q160 446 162 446 Q165 446 167 439.5 Q169 433 169.5 424.5 Q170 416 170 408 L170 374 Z " />
<glyph glyph-name="s" unicode="s" horiz-adv-x="362" d="M101 354 Q101 336 107.5 323.5 Q114 311 124 303 Q134 295 145.5 289.5 Q157 284 168 280 Q217 260 247.5 246.5 Q278 233 300 212 Q311 201 323.5 180 Q336 159 336 126 Q336 100 325.5 74.5 Q315 49 293 28 Q274 11 253 1 Q239 -6 223 -9 Q207 -12 191 -12 Q169 -12 145 -4 Q138 -2 132 1 Q126 4 120 7 Q110 12 102 15.5 Q94 19 85 19 Q74 19 71 13.5 Q68 8 65 0 Q63 -5 61 -8.5 Q59 -12 54 -12 Q47 -12 47 -3 Q47 0 47.5 3 Q48 6 49 13.5 Q50 21 50.5 35 Q51 49 51 73 Q51 95 50 102.5 Q49 110 49 119 L49 130 Q48 141 56 141 Q62 141 63.5 137.5 Q65 134 65 130 Q66 125 66.5 120.5 Q67 116 68 111 Q71 97 75 86 Q79 75 91 58 Q106 38 133.5 22 Q161 6 195 6 Q215 6 230 12 Q245 18 256 28 Q264 36 271 49.5 Q278 63 278 84 Q278 113 265 131 Q263 135 259.5 138.5 Q256 142 253 145 Q244 154 235.5 159 Q227 164 216.5 168.5 Q206 173 192.5 177.5 Q179 182 160 190 Q134 201 105.5 217 Q77 233 62 261 Q55 273 52 287.5 Q49 302 49 316 Q49 338 56.5 362 Q64 386 83 406 Q104 429 130 438.5 Q156 448 181 448 Q186 448 192 447.5 Q198 447 203 446 Q213 444 220 442 Q235 437 243 435 Q251 433 259 433 Q273 433 278 440.5 Q283 448 285 453 Q286 456 287.5 459.5 Q289 463 294 463 Q301 463 301 449 Q301 440 300.5 436.5 Q300 433 300 429 Q300 426 299.5 420 Q299 414 299 401 Q299 373 302 348 Q303 343 303.5 339 Q304 335 304 330 Q305 323 302.5 321.5 Q300 320 296 320 Q290 320 287 328.5 Q284 337 281 350 Q276 364 269 378 Q262 392 245 406 Q227 421 209.5 425.5 Q192 430 180 430 Q145 430 123 409.5 Q101 389 101 354 Z " />
<glyph glyph-name="t" unicode="t" horiz-adv-x="284" d="M160 233 Q160 224 160 199 Q160 175 161 147 Q162 119 163.5 93.5 Q165 68 167 57 Q172 34 187 28 Q202 22 213 22 Q236 22 252 31 Q268 40 287 59 Q292 64 296 64 Q303 64 303 58 Q303 55 300 50.5 Q297 46 293 41 Q289 36 278 26 Q250 1 220.5 -5.5 Q191 -12 173 -12 Q155 -12 140 -8 Q129 -5 115 1 Q101 7 93 16 Q79 31 78 55 Q77 79 77 110 L77 408 Q77 413 74 416 Q71 419 66 419 L28 419 Q22 419 14 420 Q6 421 6 426 Q6 427 7.5 430 Q9 433 17 434 Q22 435 32 436.5 Q42 438 54.5 441.5 Q67 445 80 451.5 Q93 458 104 468 Q113 476 120.5 486.5 Q128 497 139 510 Q145 519 154 519 Q160 519 161 511 Q161 502 160.5 494 Q160 486 160 478 Q160 464 160.5 455 Q161 446 164 437 Q174 435 186 435 L211 435 Q240 436 259 438 Q271 441 274 441 Q282 443 282 432 Q282 427 277 423.5 Q272 420 257 418.5 Q242 417 233 417 L202 417 Q184 417 160 418 L160 233 Z " />
<glyph glyph-name="u" unicode="u" horiz-adv-x="490" d="M413 157 Q413 109 414 89.5 Q415 70 417.5 60.5 Q420 51 425 47 Q430 43 437 42 Q444 41 456 41 L488 41 Q491 41 495.5 40.5 Q500 40 500 34 Q500 29 496 27.5 Q492 26 488 26 L478 26 Q470 26 458 24.5 Q446 23 427 20.5 Q408 18 393 13.5 Q378 9 367 4 Q350 -4 344 -7 Q338 -10 334 -10 Q328 -10 328 -1 Q328 12 328.5 21.5 Q329 31 329 42 L329 54 Q311 27 280 9 Q260 -2 239.5 -7 Q219 -12 197 -12 Q159 -12 133 0.5 Q107 13 96.5 27.5 Q86 42 81.5 61 Q77 80 76.5 95.5 Q76 111 76 145 L76 374 Q76 390 76 399 Q76 409 72 414 Q67 420 59 421 Q51 422 47 422 Q42 422 37 421.5 Q32 421 27 421 Q18 421 11.5 423 Q5 425 5 428 Q5 430 7 432 Q11 436 27 436 Q41 436 50 435.5 Q59 435 66 434.5 Q73 434 79.5 433.5 Q86 433 94 433 Q98 433 106 433 Q114 433 123.5 433.5 Q133 434 142.5 434.5 Q152 435 159 436 L159 157 Q159 135 159 116.5 Q159 98 161.5 83.5 Q164 69 170 54 Q176 39 193 27.5 Q210 16 236 16 Q262 16 281.5 29.5 Q301 43 312 60 Q322 76 326 98.5 Q330 121 330 162 L330 320 Q330 347 329.5 365 Q329 383 328 393.5 Q327 404 325.5 409.5 Q324 415 322 417 Q318 421 311 421 Q305 421 294 421 Q291 421 284 421 Q278 421 272 421.5 Q266 422 261 424 Q256 426 256 430 Q256 432 259.5 434 Q263 436 273 436 Q296 436 304 435.5 Q312 435 318 435 L368 435 Q375 435 385 435 Q396 435 413 436 L413 157 Z " />
<glyph glyph-name="v" unicode="v" horiz-adv-x="384" d="M229 118 L314 378 Q319 391 321 399.5 Q323 408 323 412 Q323 422 308 422 Q303 422 298.5 421 Q294 420 286 421 Q282 421 277.5 422.5 Q273 424 273 429 Q273 434 279.5 435 Q286 436 290 436 Q304 436 316.5 435.5 Q329 435 343 435 Q354 435 364 435.5 Q374 436 385 436 L402 436 Q407 436 411 434 Q415 432 415 429 Q414 424 411 422.5 Q408 421 399 421 Q392 421 385.5 421.5 Q379 422 372 422 Q367 422 363 421.5 Q359 421 354 416 Q346 404 336 377 L228 43 Q221 23 216 5.5 Q211 -12 202 -12 Q195 -12 190.5 -1 Q186 10 181 23 Q176 36 168 58 L49 380 Q45 391 40 400.5 Q35 410 33 413 Q29 417 23 419 Q17 421 5 421 Q0 421 -4.5 420.5 Q-9 420 -14 420 Q-23 420 -25.5 422.5 Q-28 425 -28 428 Q-28 434 -23.5 435 Q-19 436 -14 436 Q13 436 39.5 435 Q66 434 92 434 Q111 434 122.5 434.5 Q134 435 142 435 Q150 435 156.5 435.5 Q163 436 172 436 Q178 436 182.5 435 Q187 434 187 429 Q186 424 183 422.5 Q180 421 167 421 L143 421 Q135 421 130 419.5 Q125 418 125 410 Q125 404 128 395.5 Q131 387 134 380 L229 118 Z " />
<glyph glyph-name="w" unicode="w" horiz-adv-x="599" d="M304 311 L206 10 Q204 3 201 -5 Q198 -13 190 -13 Q184 -13 181 -6 Q178 1 176 6 L53 365 Q44 392 38.5 402.5 Q33 413 28 416 Q23 419 17.5 420 Q12 421 4 421 L-9 421 Q-19 421 -24 422 Q-29 423 -29 429 Q-29 436 -22.5 436.5 Q-16 437 -14 437 Q8 437 17 436.5 Q26 436 34 436 L105 436 Q119 436 132.5 436.5 Q146 437 163 437 Q168 437 172.5 436 Q177 435 177 429 Q177 423 172.5 421.5 Q168 420 165 420 Q159 420 152.5 420.5 Q146 421 140 421 Q127 421 122.5 418 Q118 415 118 410 Q121 396 127 378 L215 112 L309 401 Q313 412 317 425.5 Q321 439 330 439 Q337 439 342 427 Q347 415 351 404 L452 112 L540 402 Q542 408 542 412 Q542 420 539 421 Q536 422 531 422 Q523 422 516.5 421.5 Q510 421 505 421 Q500 421 495 422 Q490 423 490 429 Q490 435 495 436 Q500 437 503 437 Q517 437 530.5 436 Q544 435 558 435 Q572 435 587 436 Q602 437 616 437 Q619 437 625 436 Q631 435 631 429 Q630 424 627 422.5 Q624 421 613 421 Q608 421 602 421.5 Q596 422 590 422 Q579 422 575.5 419.5 Q572 417 569 411 Q566 405 563 395 L444 8 Q442 1 439 -6 Q436 -13 431 -13 Q426 -13 423.5 -9 Q421 -5 416 7 L304 311 Z " />
<glyph glyph-name="x" unicode="x" horiz-adv-x="421" d="M352 50 Q364 29 377 22 Q390 15 418 15 Q426 15 436 14.5 Q446 14 446 7 Q446 1 439.5 0 Q433 -1 428 -1 Q417 -1 402 0 L303 1 Q281 1 266 0.5 Q251 0 221 -1 Q211 -2 207 -1 Q203 0 202 0 Q196 1 196 7 Q196 12 202 14 Q210 16 226 15 L260 15 Q269 15 271 18 Q273 21 273 25 Q273 30 269.5 36.5 Q266 43 263 48 L183 187 L88 41 Q86 38 83 33 Q80 28 80 23 Q80 17 91.5 15.5 Q103 14 111 14 Q119 14 136 14 Q146 15 146 7 Q146 0 138 -1 Q130 -2 122 -2 L89 -1 Q77 -1 68.5 -0.5 Q60 0 52 0.5 Q44 1 35 1 Q26 1 14 0 Q2 -1 -7 -1 Q-16 -1 -16 7 Q-16 12 -12 13.5 Q-8 15 6 16 Q20 17 30 19 Q40 21 47.5 28 Q55 35 66 50 L170 206 L84 367 Q75 384 68.5 396 Q62 408 54 413 Q45 419 29 420 Q13 421 3 421 Q-4 421 -8 422 Q-12 423 -12 428 Q-12 434 -7.5 435 Q-3 436 2 436 L115 434 Q133 434 151.5 435 Q170 436 207 436 Q216 436 225 435.5 Q234 435 234 428 Q234 422 224.5 420.5 Q215 419 199 419 Q185 419 170 418.5 Q155 418 155 406 Q155 400 159 394 L226 268 L308 396 Q317 407 317 414 Q317 419 307.5 419.5 Q298 420 293 420 L278 420 Q265 420 265 428 Q265 436 274.5 436.5 Q284 437 299 435 L312 434 Q327 433 336 433 Q345 433 352.5 434 Q360 435 367 435.5 Q374 436 392 436 Q400 437 408 437 Q419 437 419 431 Q419 425 415 423.5 Q411 422 401 422 Q393 422 384.5 422 Q376 422 366 420 Q353 417 347.5 412 Q342 407 337 400 Q332 393 329 388 L239 248 L352 50 Z " />
<glyph glyph-name="y" unicode="y" horiz-adv-x="401" d="M301 220 Q296 205 286.5 174 Q277 143 265.5 107 Q254 71 242.5 35.5 Q231 0 223 -24 Q219 -35 212 -56 Q205 -77 196.5 -100 Q188 -123 181 -144 Q174 -165 170 -174 Q164 -189 157 -204 Q150 -219 140 -231 Q130 -243 115.5 -251 Q101 -259 82 -259 Q56 -259 41.5 -244 Q27 -229 27 -209 Q27 -193 38 -179.5 Q49 -166 72 -166 Q98 -167 111 -188 Q115 -195 117.5 -200 Q120 -205 126 -205 Q134 -204 137.5 -197.5 Q141 -191 145 -180 L154 -156 Q160 -141 165 -127 Q170 -113 175 -98 Q180 -83 186 -65.5 Q192 -48 198 -25 Q186 6 170 48 Q154 90 138.5 133 Q123 176 108.5 214.5 Q94 253 85 278 L51 372 Q46 385 43 393.5 Q40 402 37 407.5 Q34 413 27.5 415.5 Q21 418 9 419 Q1 419 -5.5 418.5 Q-12 418 -18 420 Q-27 422 -27 429 Q-27 437 -14 437 Q-2 437 8.5 436 Q19 435 29.5 434.5 Q40 434 55 434 Q75 434 91.5 435 Q108 436 128 436 L182 437 Q193 437 193 429 Q193 422 184 422 L156 421 Q139 420 132 419 Q125 418 125 411 Q126 403 133 383 L143 353 Q147 342 153.5 323.5 Q160 305 167 285.5 Q174 266 180.5 247 Q187 228 192 216 L238 93 Q249 125 258.5 156.5 Q268 188 278 220 Q292 263 304.5 306 Q317 349 330 393 Q334 405 334 411 Q334 416 329 419 Q324 422 304 422 Q295 422 284 422 Q274 422 274 430 Q274 437 286 437 Q293 436 296.5 435.5 Q300 435 309 435 Q321 435 327.5 434.5 Q334 434 337 434 L352 434 L388 434 Q394 434 397.5 434.5 Q401 435 411 436 Q424 436 424 429 Q424 422 417 421.5 Q410 421 401 421 Q396 421 389 420.5 Q382 420 378 419 Q368 417 363.5 411 Q359 405 351 382 L301 220 Z " />
<glyph glyph-name="z" unicode="z" horiz-adv-x="395" d="M129 0 Q115 0 111.5 -0.5 Q108 -1 103 -1.5 Q98 -2 85.5 -2.5 Q73 -3 41 -3 Q21 -3 21 4 Q21 8 24 12 L264 420 Q253 421 237 422 Q221 423 201 423 Q181 423 155 419.5 Q129 416 111 400 Q92 383 84 356 Q76 329 70 307 Q68 293 59 294 Q52 294 50 298 Q48 302 50 312 L56 345 Q60 368 64 390 Q68 412 76 441 Q112 440 131.5 439.5 Q151 439 167.5 438.5 Q184 438 205 438 Q226 438 265 438 L341 438 Q346 438 350.5 437 Q355 436 355 431 Q354 424 351 418.5 Q348 413 337 393 L113 16 Q171 13 208.5 15 Q246 17 269 23 Q292 29 304 38 Q316 47 324 59 Q338 80 344 101.5 Q350 123 356 141 Q358 145 360 148.5 Q362 152 368 152 Q377 152 375 141 Q373 130 371 121 Q368 108 364 92 Q360 76 357 59 Q354 42 351.5 26.5 Q349 11 348 -1 L129 0 Z " />
<glyph glyph-name="braceleft" unicode="&#x7b;" horiz-adv-x="306" d="M184 581 L188 462 Q190 399 171 364 Q152 329 136 314.5 Q120 300 106 292.5 Q92 285 84 283 Q76 281 60 277 L60 270 Q76 267 84 265 Q92 263 106 255.5 Q120 248 136 233.5 Q152 219 171 184 Q190 149 188 86 L184 -33 Q184 -41 184.5 -56 Q185 -71 189 -84 Q193 -97 202 -109.5 Q211 -122 224.5 -125.5 Q238 -129 254 -129 L275 -129 Q284 -129 286 -138 Q286 -147 274 -147 L232 -147 Q216 -147 195 -140 Q174 -133 156 -117.5 Q138 -102 125.5 -82 Q113 -62 106.5 -39 Q100 -16 101 5 L106 96 Q106 106 106.5 123 Q107 140 106 158.5 Q105 177 102 194.5 Q99 212 89 228 Q79 244 62 252 Q45 260 35.5 261.5 Q26 263 18 264 Q10 264 10 274 Q10 284 16 284 Q26 285 35.5 286.5 Q45 288 62 296 Q79 304 89 320 Q99 336 102 353.5 Q105 371 106 389.5 Q107 408 106.5 425 Q106 442 106 452 L101 543 Q100 564 106.5 587 Q113 610 125.5 630 Q138 650 156 665.5 Q174 681 195 688 Q216 695 232 695 L274 695 Q286 695 286 686 Q284 677 275 677 L254 677 Q238 677 224.5 673.5 Q211 670 202 657.5 Q193 645 189 632 Q185 619 184.5 604 Q184 589 184 581 Z " />
<glyph glyph-name="bar" unicode="&#x7c;" horiz-adv-x="520" d="M288 693 L288 -173 L231 -173 L231 693 L288 693 Z " />
<glyph glyph-name="braceright" unicode="&#x7d;" horiz-adv-x="306" d="M122 581 Q122 589 121.5 604 Q121 619 117 632 Q113 645 104 657.5 Q95 670 81.5 673.5 Q68 677 52 677 L31 677 Q22 677 20 686 Q20 695 32 695 L74 695 Q90 695 111 688 Q132 681 150 665.5 Q168 650 180.5 630 Q193 610 199.5 587 Q206 564 205 543 L200 452 Q200 442 199.5 425 Q199 408 200 389.5 Q201 371 204 353.5 Q207 336 217 320 Q227 304 244 296 Q261 288 270.5 286.5 Q280 285 290 284 Q296 284 296 274 Q296 264 288 264 Q280 263 270.5 261.5 Q261 260 244 252 Q227 244 217 228 Q207 212 204 194.5 Q201 177 200 158.5 Q199 140 199.5 123 Q200 106 200 96 L205 5 Q206 -16 199.5 -39 Q193 -62 180.5 -82 Q168 -102 150 -117.5 Q132 -133 111 -140 Q90 -147 74 -147 L32 -147 Q20 -147 20 -138 Q22 -129 31 -129 L52 -129 Q68 -129 81.5 -125.5 Q95 -122 104 -109.5 Q113 -97 117 -84 Q121 -71 121.5 -56 Q122 -41 122 -33 L118 86 Q116 149 135 184 Q154 219 170 233.5 Q186 248 200 255.5 Q214 263 222 265 Q230 267 246 270 L246 277 Q230 281 222 283 Q214 285 200 292.5 Q186 300 170 314.5 Q154 329 135 364 Q116 399 118 462 L122 581 Z " />
<glyph glyph-name="asciitilde" unicode="&#x7e;" horiz-adv-x="679" d="M551 762 Q554 762 555 760 Q556 758 556 756 Q556 753 554 747.5 Q552 742 543 730 Q535 719 526 708.5 Q517 698 506 689 Q487 673 463 663 Q439 653 415 653 Q395 653 371.5 660.5 Q348 668 319 678 Q290 688 272 692.5 Q254 697 230 697 Q217 697 203.5 694.5 Q190 692 176 683 Q163 674 149 657 Q141 647 136.5 642 Q132 637 128 637 Q124 637 123 640 Q122 641 122 644 Q122 651 141 673 Q151 684 157.5 692.5 Q164 701 176 712 Q196 729 218 738.5 Q240 748 267 748 Q290 748 313 740.5 Q336 733 360 725 Q373 720 383.5 716.5 Q394 713 403 710.5 Q412 708 421.5 707 Q431 706 442 706 Q457 706 475 708.5 Q493 711 506 718 Q515 723 524 732 Q528 736 531 739 Q534 742 536 747 Q538 750 541.5 756 Q545 762 551 762 Z " />
<glyph glyph-name="uni00A0" unicode="&#xa0;" horiz-adv-x="233" d="" />
<glyph glyph-name="currency" unicode="&#xa4;" horiz-adv-x="650" d="M326 134 Q371 134 407.5 152 Q444 170 469.5 198.5 Q495 227 508.5 263.5 Q522 300 522 337 Q522 373 508 408 Q494 443 468.5 471 Q443 499 406.5 516.5 Q370 534 326 534 Q285 534 249 519 Q213 504 186 477.5 Q159 451 143 415.5 Q127 380 127 338 Q127 288 145 250 Q163 212 191.5 186 Q220 160 255.5 147 Q291 134 326 134 Z M96 605 L179 521 Q217 550 256.5 560 Q296 570 329 570 Q358 570 395 559.5 Q432 549 470 518 L556 605 L588 573 L504 488 Q539 448 550 407.5 Q561 367 561 337 Q561 305 550 265.5 Q539 226 509 187 L594 102 L562 70 L478 155 Q441 124 400 110.5 Q359 97 321 97 Q308 97 291 99 Q274 101 254.5 107 Q235 113 214 124 Q193 135 172 152 L89 69 L57 101 L141 183 Q138 187 129 200.5 Q120 214 111 234.5 Q102 255 95 281 Q88 307 88 337 Q88 376 103 415.5 Q118 455 147 489 L64 573 L96 605 Z " />
<glyph glyph-name="brokenbar" unicode="&#xa6;" horiz-adv-x="520" d="M288 159 L288 -173 L231 -173 L231 159 L288 159 Z M288 693 L288 345 L231 345 L231 693 L288 693 Z " />
<glyph glyph-name="section" unicode="&#xa7;" horiz-adv-x="533" d="M176 447 Q148 414 148 376 Q148 356 158.5 332 Q169 308 201 282 L307 196 Q316 188 325 181 Q334 174 343 166 Q345 164 348 161.5 Q351 159 353 157 L359 152 Q376 169 382 184 Q388 199 389 201 Q392 210 392 219 Q392 231 387.5 243.5 Q383 256 377 266 Q371 276 365.5 283.5 Q360 291 357 294 Q343 310 325.5 325 Q308 340 288.5 355 Q269 370 249 385 Q229 400 210 417 L176 447 Z M373 139 Q399 107 406.5 79 Q414 51 414 29 Q414 1 406.5 -30 Q399 -61 372 -92 Q350 -117 324 -130 Q306 -140 285.5 -144.5 Q265 -149 244 -149 Q205 -149 173.5 -133 Q142 -117 125 -90 Q110 -66 110 -35 Q110 3 130.5 20 Q151 37 176 37 Q199 37 215 22 Q231 7 231 -13 Q231 -20 228.5 -28.5 Q226 -37 213 -45 Q202 -51 189 -52.5 Q176 -54 162 -56 Q152 -58 146 -58.5 Q140 -59 140 -68 Q140 -79 149 -90.5 Q158 -102 172.5 -111 Q187 -120 206 -126 Q225 -132 245 -132 Q259 -132 273 -129 Q287 -126 299 -118 Q314 -109 322.5 -96 Q331 -83 335.5 -69 Q340 -55 341 -41.5 Q342 -28 342 -18 Q342 -1 339 16 Q337 27 333.5 37 Q330 47 325 56 Q315 73 296.5 93 Q278 113 243 139 Q211 164 182 185.5 Q153 207 135 231 Q117 255 111 280 Q105 305 105 324 Q105 369 124 403.5 Q143 438 163 461 Q140 487 134.5 512.5 Q129 538 129 555 Q129 624 172 665.5 Q215 707 287 707 Q349 707 383.5 675 Q418 643 418 597 Q418 571 404.5 553.5 Q391 536 363 536 Q340 536 325.5 548 Q311 560 311 581 Q311 593 314 600 Q317 607 322 611 Q332 619 346.5 620.5 Q361 622 375 624 Q378 625 381 626 Q384 627 384 633 Q384 642 377 651.5 Q370 661 363 666 Q357 671 350.5 674 Q344 677 337 680 Q314 689 290 689 Q255 689 237 674.5 Q219 660 211 648 Q204 637 201 623.5 Q198 610 198 596 Q198 571 206 551.5 Q214 532 228.5 515 Q243 498 263 482.5 Q283 467 306 449 Q334 428 357 408.5 Q380 389 397 364 Q414 340 421.5 315.5 Q429 291 429 271 Q429 244 415.5 207.5 Q402 171 373 139 Z " />
<glyph glyph-name="dieresis" unicode="&#xa8;" horiz-adv-x="501" d="M338 609 Q358 609 371 594 Q384 579 384 558 Q384 535 368.5 524 Q353 513 337 513 Q317 513 302.5 526.5 Q288 540 288 560 Q288 581 303 595 Q318 609 338 609 Z M164 609 Q184 609 198 594 Q212 579 212 559 Q212 539 197.5 525.5 Q183 512 163 512 Q143 512 129 526 Q115 540 115 560 Q115 580 129.5 594.5 Q144 609 164 609 Z " />
<glyph glyph-name="copyright" unicode="&#xa9;" horiz-adv-x="802" d="M567 148 Q567 144 566 142 Q563 137 559 137 Q557 137 554 140 Q551 143 548.5 146.5 Q546 150 544 154 L532 178 Q516 159 491.5 146 Q467 133 425 133 Q376 133 335 149.5 Q294 166 264.5 195 Q235 224 218.5 263.5 Q202 303 202 349 Q202 387 214 425.5 Q226 464 251.5 494.5 Q277 525 316.5 544 Q356 563 411 563 Q427 563 439 561.5 Q451 560 462 556.5 Q473 553 484.5 547.5 Q496 542 511 533 Q519 528 522.5 526 Q526 524 529 524 Q534 524 535.5 528 Q537 532 538 534 Q541 542 544 549 Q547 556 553 556 Q561 556 561 546 Q561 539 559.5 533 Q558 527 556 516 Q554 505 553.5 487.5 Q553 470 553 459 Q553 445 553 430 Q553 416 543 416 Q537 416 535 420.5 Q533 425 532 429 Q526 455 517.5 481.5 Q509 508 485 526 Q470 536 452 541 Q436 545 416 545 Q372 545 346 522 Q320 499 305 458 Q295 431 291.5 403.5 Q288 376 288 348 Q288 299 299 262 Q310 225 328.5 200.5 Q347 176 372.5 163.5 Q398 151 428 151 Q461 151 482.5 163.5 Q504 176 517.5 194 Q531 212 538.5 232.5 Q546 253 549 269 Q551 279 552.5 283 Q554 287 560 287 Q562 287 565.5 285 Q569 283 569 274 Q569 268 568.5 261 Q568 254 567 240 Q565 214 565 205 Q565 196 565 191 Q565 174 566 165 Q567 156 567 148 Z M396 675 Q331 675 273.5 649 Q216 623 172.5 578 Q129 533 104 473.5 Q79 414 79 347 Q79 279 104.5 219.5 Q130 160 173.5 115 Q217 70 276 44 Q335 18 401 18 Q467 18 526 44 Q585 70 628.5 115 Q672 160 697.5 220 Q723 280 723 349 Q723 416 697.5 475.5 Q672 535 627.5 579 Q583 623 523.5 649 Q464 675 396 675 Z M407 705 Q479 705 543.5 676.5 Q608 648 656 599.5 Q704 551 732 485.5 Q760 420 760 347 Q760 273 731.5 207.5 Q703 142 654.5 93 Q606 44 540.5 16 Q475 -12 401 -12 Q326 -12 261 16.5 Q196 45 147 93.5 Q98 142 70 208 Q42 274 42 349 Q42 422 70.5 487 Q99 552 148.5 600.5 Q198 649 264.5 677 Q331 705 407 705 Z " />
<glyph glyph-name="guillemotleft" unicode="&#xab;" horiz-adv-x="414" d="M115 226 Q120 233 131 250 Q142 267 155.5 288.5 Q169 310 183 333.5 Q197 357 209 379 Q214 389 216 397 Q215 405 207 405 Q200 405 192 393 Q187 386 175.5 373.5 Q164 361 153 349 L81 275 Q67 262 55 251 Q50 245 49 242.5 Q48 240 48 230 L48 222 Q48 216 49 211.5 Q50 207 55 201 Q67 190 81 177 L153 103 Q164 91 175.5 78.5 Q187 66 192 59 Q200 47 207 47 Q215 47 216 55 Q214 63 209 73 Q197 95 183 118.5 Q169 142 155.5 163.5 Q142 185 131 202 Q120 219 115 226 Z M277 226 Q282 233 293 250 Q304 267 317.5 288.5 Q331 310 345 333.5 Q359 357 371 379 Q376 389 378 397 Q377 405 369 405 Q362 405 354 393 Q349 386 337.5 373.5 Q326 361 315 349 L243 275 Q229 262 217 251 Q212 245 211 242.5 Q210 240 210 230 L210 222 Q210 216 211 211.5 Q212 207 217 201 Q229 190 243 177 L315 103 Q326 91 337.5 78.5 Q349 66 354 59 Q362 47 369 47 Q377 47 378 55 Q376 63 371 73 Q359 95 345 118.5 Q331 142 317.5 163.5 Q304 185 293 202 Q282 219 277 226 Z " />
<glyph glyph-name="logicalnot" unicode="&#xac;" horiz-adv-x="533" d="M474 0 L410 0 L410 185 L59 185 L59 221 L474 221 L474 0 Z " />
<glyph glyph-name="uni00AD" unicode="&#xad;" horiz-adv-x="305" d="M290 198 L15 198 L15 250 L290 250 L290 198 Z " />
<glyph glyph-name="registered" unicode="&#xae;" horiz-adv-x="802" d="M348 373 Q360 373 380 375 Q400 377 415 386 Q438 400 444.5 420.5 Q451 441 451 461 Q451 468 449.5 481.5 Q448 495 441.5 508 Q435 521 420.5 531 Q406 541 380 541 Q362 541 355 538.5 Q348 536 348 520 L348 373 Z M348 193 Q348 174 349.5 168.5 Q351 163 357 161 Q363 159 373 159 L390 159 Q401 159 403 157 Q405 155 405 151 Q405 147 402 145 Q399 143 388 143 Q374 143 359 143.5 Q344 144 330 144 Q314 144 298 143.5 Q282 143 266 143 L242 143 Q237 143 230 144 Q223 145 223 151 Q223 156 227.5 157.5 Q232 159 242 159 L253 159 Q261 159 267 160.5 Q273 162 274.5 167 Q276 172 276 186 L276 512 Q276 519 276 526 Q276 533 272 538 Q268 543 262 543 L248 543 Q237 542 229 543 Q223 545 223 551 Q223 554 225 557 Q227 560 241 560 Q258 559 267 559 Q276 559 292 558 L364 558 Q375 558 388.5 558.5 Q402 559 417 558 Q432 557 447.5 553.5 Q463 550 479 542 Q511 525 520 503 Q529 481 529 465 Q529 447 523.5 433.5 Q518 420 509.5 410.5 Q501 401 492.5 395 Q484 389 478 386 Q461 377 444.5 372.5 Q428 368 391 367 L391 363 Q430 358 450 348.5 Q470 339 482 327 Q494 315 501 298.5 Q508 282 512.5 264.5 Q517 247 519 230.5 Q521 214 523 201 Q525 186 529.5 172 Q534 158 541 155.5 Q548 153 553 153 Q558 153 558 156 Q556 159 555 164 Q555 170 558 176 Q561 182 572 182 Q583 182 587 175.5 Q591 169 591 164 Q591 157 586 150 Q579 142 566 139 Q553 136 543 136 Q529 136 512 141 Q492 148 474.5 163 Q457 178 449 199 Q444 213 442 234 Q440 255 436 286 Q434 300 429.5 315 Q425 330 409 341 Q398 349 379 352 Q360 355 348 355 L348 193 Z M398 675 Q332 675 274 649 Q216 623 172.5 578 Q129 533 104 473.5 Q79 414 79 347 Q79 279 104.5 219.5 Q130 160 173.5 115 Q217 70 276 44 Q335 18 401 18 Q467 18 525.5 44 Q584 70 628 115 Q672 160 697.5 220 Q723 280 723 349 Q723 416 697 475.5 Q671 535 627 579 Q583 623 523.5 649 Q464 675 398 675 Z M407 705 Q479 705 543.5 676.5 Q608 648 656 599.5 Q704 551 732 485.5 Q760 420 760 347 Q760 273 731.5 207.5 Q703 142 654.5 93 Q606 44 540.5 16 Q475 -12 401 -12 Q326 -12 261 16.5 Q196 45 147 93.5 Q98 142 70 208 Q42 274 42 349 Q42 422 70.5 487 Q99 552 148.5 600.5 Q198 649 264.5 677 Q331 705 407 705 Z " />
<glyph glyph-name="degree" unicode="&#xb0;" horiz-adv-x="534" d="M266 667 Q233 667 212 642.5 Q191 618 191 583 Q191 548 213.5 524.5 Q236 501 269 501 Q304 501 324.5 526 Q345 551 345 585 Q345 618 323 642.5 Q301 667 266 667 Z M267 705 Q292 705 314.5 696 Q337 687 354 670.5 Q371 654 380.5 631.5 Q390 609 390 583 Q390 557 379.5 535 Q369 513 352 497 Q335 481 312 472 Q289 463 264 463 Q239 463 217 472.5 Q195 482 179 498 Q163 514 153.5 536 Q144 558 144 583 Q144 609 153.5 631.5 Q163 654 180 670.5 Q197 687 219 696 Q241 705 267 705 Z " />
<glyph glyph-name="plusminus" unicode="&#xb1;" horiz-adv-x="533" d="M474 12 L59 12 L59 48 L474 48 L474 12 Z M474 354 L474 318 L285 318 L285 132 L249 132 L249 318 L59 318 L59 354 L249 354 L249 539 L285 539 L285 354 L474 354 Z " />
<glyph glyph-name="acute" unicode="&#xb4;" horiz-adv-x="501" d="M381 664 L245 524 Q240 519 232 512 Q224 505 219 505 Q213 505 213 512 Q213 514 215 518 L280 664 L381 664 Z " />
<glyph glyph-name="mu" unicode="&#xb5;" horiz-adv-x="490" d="M329 54 Q315 32 297.5 19 Q280 6 262.5 -1 Q245 -8 228.5 -10 Q212 -12 199 -12 Q183 -12 160 -6.5 Q137 -1 118 26 Q119 12 120.5 -4 Q122 -20 124 -36 Q126 -52 127.5 -66 Q129 -80 131 -90 Q136 -125 138.5 -140 Q141 -155 141 -166 Q141 -183 134.5 -199.5 Q128 -216 118 -229 Q113 -236 106 -241.5 Q99 -247 93 -247 Q85 -247 77.5 -241.5 Q70 -236 57.5 -214 Q45 -192 45 -166 Q45 -156 47 -142.5 Q49 -129 52 -110 Q55 -91 59 -64.5 Q63 -38 67 -1 Q68 14 70 32.5 Q72 51 73 70.5 Q74 90 75 109 Q76 128 76 145 L76 374 Q76 400 71.5 411 Q67 422 44 422 Q39 422 33 421.5 Q27 421 22 421 Q13 421 9 422.5 Q5 424 5 429 Q5 433 11.5 434.5 Q18 436 25 436 Q34 436 60.5 434.5 Q87 433 141 435 L159 435 L159 157 Q159 134 159 111.5 Q159 89 167 66 Q175 43 192.5 29.5 Q210 16 235 16 Q254 16 276 25.5 Q298 35 312 60 Q322 77 326 100 Q330 123 330 162 L330 364 Q330 391 328 401.5 Q326 412 323.5 415 Q321 418 315 420 Q308 422 300.5 421 Q293 420 271 422 Q262 423 259 424 Q256 425 256 430 Q256 433 262 434.5 Q268 436 276 436 Q287 436 309 434.5 Q331 433 401 435 L413 435 L413 157 Q413 131 413 113 Q413 75 417 62.5 Q421 50 431 46 Q441 42 448 41.5 Q455 41 465 41 L488 41 Q498 41 500 34 Q499 26 488 26 Q469 25 442 22 Q415 19 395 14 Q367 6 355.5 -2 Q344 -10 334 -10 Q329 -10 328.5 -7 Q328 -4 328 6 L330 35 L329 54 Z " />
<glyph glyph-name="paragraph" unicode="&#xb6;" horiz-adv-x="533" d="M286 -117 Q318 -95 341.5 -65 Q365 -35 376 0 Q381 15 384 35.5 Q387 56 388.5 84 Q390 112 390.5 149.5 Q391 187 391 237 L391 675 L326 675 L326 166 Q326 113 325 70 Q324 27 321 -10 Q319 -24 317.5 -37.5 Q316 -51 311 -65 Q308 -73 304.5 -80.5 Q301 -88 296 -95 Q291 -103 281 -111 L286 -117 Z M299 370 Q266 369 240 372.5 Q214 376 194.5 381.5 Q175 387 161 393.5 Q147 400 138 406 Q105 426 82.5 457 Q60 488 60 540 Q60 555 63 574.5 Q66 594 75.5 613 Q85 632 102 649 Q119 666 147 677 Q182 691 219.5 693 Q257 695 286 695 L492 695 L503 695 Q509 695 512 692 Q515 689 515 685 Q515 677 506 677 L488 677 Q482 677 473 676.5 Q464 676 455 675.5 Q446 675 438.5 673.5 Q431 672 428 670 Q420 664 419.5 654 Q419 644 419 633 L419 214 Q419 168 418.5 133.5 Q418 99 414 59 Q409 11 399 -15 Q389 -41 369 -65 Q358 -79 343 -94.5 Q328 -110 306.5 -123 Q285 -136 257.5 -145 Q230 -154 195 -154 Q163 -154 139 -146 Q115 -138 99 -125.5 Q83 -113 74.5 -97 Q66 -81 66 -64 Q66 -43 81 -23 Q96 -3 128 -3 Q157 -3 169 -17.5 Q181 -32 181 -48 Q181 -57 173.5 -71 Q166 -85 135 -96 Q128 -98 123.5 -100 Q119 -102 119 -107 Q119 -113 125.5 -117.5 Q132 -122 141 -126 Q150 -130 160 -132 Q170 -134 176.5 -135 Q183 -136 193 -136 Q207 -136 214.5 -134.5 Q222 -133 234 -128 Q246 -123 257.5 -113.5 Q269 -104 278 -89 Q292 -63 295.5 -25 Q299 13 299 61 L299 370 Z " />
<glyph glyph-name="middot" unicode="&#xb7;" horiz-adv-x="259" d="M129 101 Q152 101 167 85.5 Q182 70 182 47 Q182 24 166.5 9 Q151 -6 128 -6 Q106 -6 90.5 9.5 Q75 25 75 48 Q75 71 90.5 86 Q106 101 129 101 Z " />
<glyph glyph-name="guillemotright" unicode="&#xbb;" horiz-adv-x="414" d="M299 226 Q294 233 283 250 Q272 267 258.5 288.5 Q245 310 231 333.5 Q217 357 205 379 Q200 389 198 397 Q199 405 207 405 Q214 405 222 393 Q227 386 238.5 373.5 Q250 361 261 349 L333 275 Q347 262 359 251 Q364 245 365 242.5 Q366 240 366 230 L366 222 Q366 216 365 211.5 Q364 207 359 201 Q347 190 333 177 L261 103 Q250 91 238.5 78.5 Q227 66 222 59 Q214 47 207 47 Q199 47 198 55 Q200 63 205 73 Q217 95 231 118.5 Q245 142 258.5 163.5 Q272 185 283 202 Q294 219 299 226 Z M137 226 Q132 233 121 250 Q110 267 96.5 288.5 Q83 310 69 333.5 Q55 357 43 379 Q38 389 36 397 Q37 405 45 405 Q52 405 60 393 Q65 386 76.5 373.5 Q88 361 99 349 L171 275 Q185 262 197 251 Q202 245 203 242.5 Q204 240 204 230 L204 222 Q204 216 203 211.5 Q202 207 197 201 Q185 190 171 177 L99 103 Q88 91 76.5 78.5 Q65 66 60 59 Q52 47 45 47 Q37 47 36 55 Q38 63 43 73 Q55 95 69 118.5 Q83 142 96.5 163.5 Q110 185 121 202 Q132 219 137 226 Z " />
<glyph glyph-name="uni0401" unicode="&#x401;" horiz-adv-x="582" d="M230 378 Q283 378 319 380.5 Q355 383 373 400 Q389 415 393 443 Q397 471 400 494 Q402 503 403 509 Q404 515 412 515 Q418 515 420 509.5 Q422 504 422.5 496 Q423 488 422 479 Q421 470 420 462 Q419 445 418.5 422 Q418 399 418 373 Q418 348 418.5 324 Q419 300 420 282 Q421 265 421.5 256.5 Q422 248 422.5 243.5 Q423 239 423 236 Q423 234 423 229 Q423 225 421.5 219.5 Q420 214 412 214 Q404 214 401.5 226.5 Q399 239 394 278 Q392 295 387 312 Q382 329 368 340 Q352 351 323.5 354 Q295 357 251 357 L206 357 L206 21 L303 21 Q315 21 332 21 Q350 21 369 21.5 Q388 22 405.5 23 Q423 24 435 25 Q443 26 449.5 27 Q456 28 464 30 Q481 35 497 45.5 Q513 56 524 82 Q532 102 534 120 Q536 138 539 158 Q541 167 542.5 175 Q544 183 552 183 Q563 183 562.5 169 Q562 155 561 135 Q560 119 559 88.5 Q558 58 558 27 L558 -6 Q537 -5 508.5 -4 Q480 -3 435.5 -2.5 Q391 -2 327 -1.5 Q263 -1 170 -1 L96 -1 Q86 -1 76 -1.5 Q66 -2 56 -2 L45 -2 Q32 -2 28 2 Q26 4 26 7 Q26 14 35 14.5 Q44 15 68 17 Q81 18 89 19.5 Q97 21 101 27 Q105 33 106 44 Q107 55 107 75 L107 637 L107 653 Q107 659 106 662.5 Q105 666 103 668 Q98 674 86 675.5 Q74 677 59 677 L44 677 Q33 677 30.5 681 Q28 685 28 687 Q28 690 32 692 Q36 695 50 695 L118 694 Q169 692 221 694 Q236 694 251 694.5 Q266 695 281 695 L474 695 Q481 695 487 695 Q493 695 500 696 Q507 697 513 697 Q520 697 529 699 Q531 665 533 643 Q535 621 537 593 L543 526 Q544 519 540.5 516.5 Q537 514 533 514 Q525 514 522.5 523 Q520 532 518 540 Q508 587 492 614 Q476 641 456 653 Q447 659 433.5 662.5 Q420 666 400.5 668 Q381 670 353.5 670.5 Q326 671 288 671 L206 671 L206 378 L230 378 Z M396 864 Q416 864 429 849 Q442 834 442 813 Q442 790 426.5 779 Q411 768 395 768 Q375 768 360.5 781.5 Q346 795 346 815 Q346 836 361 850 Q376 864 396 864 Z M222 864 Q242 864 256 849 Q270 834 270 814 Q270 794 255.5 780.5 Q241 767 221 767 Q201 767 187 781 Q173 795 173 815 Q173 835 187.5 849.5 Q202 864 222 864 Z " />
<glyph glyph-name="uni0402" unicode="&#x402;" horiz-adv-x="717" d="M339 398 Q368 402 399 404 Q430 406 455 406 Q504 406 547 395 Q590 384 632 349 Q669 317 685 281 Q701 245 701 200 Q701 115 647 55 Q628 33 608 20 Q588 7 568.5 -0.5 Q549 -8 531.5 -10.5 Q514 -13 501 -13 Q472 -13 452 -5 Q432 3 418 17 Q407 28 398.5 44.5 Q390 61 390 76 Q390 100 403.5 113.5 Q417 127 435 127 Q456 127 466 114 Q476 101 476 85 Q476 80 474.5 73.5 Q473 67 465 61 Q461 58 453.5 53 Q446 48 446 37 Q446 26 458.5 14.5 Q471 3 492 3 Q508 3 528.5 12 Q549 21 567 50 Q584 77 591.5 116.5 Q599 156 599 191 Q599 210 596.5 232 Q594 254 586.5 275.5 Q579 297 565.5 316.5 Q552 336 530 351 Q503 369 468 375 Q433 381 401 381 Q380 381 365.5 380 Q351 379 339 377 L339 80 Q339 57 340 39 Q341 21 345 0 Q302 0 273.5 -0.5 Q245 -1 225 -1 Q206 -1 193 -1.5 Q180 -2 169 -2 Q160 -2 156.5 1 Q153 4 153 6 Q153 8 154 11 Q155 14 163 15 L199 17 Q204 17 216.5 19 Q229 21 235 29 Q237 31 238.5 38 Q240 45 240 62 L240 670 L183 670 Q151 670 123 662 Q95 654 79 638 Q59 618 51.5 585 Q44 552 41 526 Q40 522 38 515 Q36 508 29 508 Q22 508 19.5 514 Q17 520 16.5 529 Q16 538 17.5 547.5 Q19 557 19 564 Q21 596 23 625 Q25 654 29 695 Q74 695 101 695 Q128 695 144.5 694.5 Q161 694 169.5 693.5 Q178 693 187 692.5 Q196 692 208 692 Q221 692 244 692 L383 692 Q397 692 410 692 Q424 692 444.5 692.5 Q465 693 496 694 Q527 695 575 696 Q576 685 577 669.5 Q578 654 579.5 637.5 Q581 621 582 605.5 Q583 590 584 578 Q586 552 587.5 540 Q589 528 589 519 Q589 514 587.5 509 Q586 504 579 504 Q569 504 566 511.5 Q563 519 562 527 Q558 555 553.5 579 Q549 603 537 623 Q525 643 501 656.5 Q477 670 429 670 L339 670 L339 398 Z " />
<glyph glyph-name="uni0403" unicode="&#x403;" horiz-adv-x="516" d="M107 633 Q107 640 107 649 Q107 658 102 664 Q97 670 87 671.5 Q77 673 70 673 L44 673 Q28 673 28 683 Q28 691 35.5 692 Q43 693 51 693 L64 693 Q77 693 90 692.5 Q103 692 116 692 L309 692 Q349 692 381 692 Q413 692 445 693 Q466 694 477.5 694.5 Q489 695 500 697 Q502 671 504.5 636.5 Q507 602 509 579 L516 512 Q517 505 513.5 502.5 Q510 500 506 500 Q498 500 495.5 507.5 Q493 515 491 525 Q480 570 464.5 602.5 Q449 635 425 649 Q403 662 364.5 664.5 Q326 667 259 667 L206 667 L206 75 Q206 61 207.5 48 Q209 35 216 28 Q222 22 232.5 20 Q243 18 251 17 Q263 16 273 16 Q283 16 288 14 Q293 12 293 8 Q293 0 285.5 -1 Q278 -2 271 -2 Q256 -2 240.5 -1.5 Q225 -1 209 -1 Q196 -1 184 -0.5 Q172 0 159 0 Q147 0 134.5 -0.5 Q122 -1 110 -1 Q94 -2 79 -2 Q64 -2 48 -2 Q41 -2 33.5 -1 Q26 0 26 8 Q26 13 28.5 13.5 Q31 14 35 15 Q40 16 44 16 Q49 16 54 16 Q58 16 61 16.5 Q64 17 68 17 Q74 18 85 19 Q96 20 101 28 Q105 33 106 43 Q107 53 107 75 L107 633 Z M388 919 L252 779 Q247 774 239 767 Q231 760 226 760 Q220 760 220 767 Q220 769 222 773 L287 919 L388 919 Z " />
<glyph glyph-name="uni0404" unicode="&#x404;" horiz-adv-x="654" d="M300 343 Q267 357 247 362 Q227 367 213 367 Q199 367 185.5 363 Q172 359 158 354 Q153 278 171.5 206 Q190 134 226 88 Q261 44 305.5 26 Q350 8 388 8 Q440 8 483 32.5 Q526 57 549 102 Q564 130 572.5 157 Q581 184 586 214 Q588 225 590.5 231.5 Q593 238 599 238 Q606 238 607.5 233 Q609 228 609 223 Q609 218 608.5 212 Q608 206 607 196 Q607 188 606 172 Q605 156 604.5 139 Q604 122 603.5 106.5 Q603 91 603 85 Q603 58 605 42.5 Q607 27 607 10 Q607 4 605.5 -1.5 Q604 -7 599 -7 Q594 -7 590.5 -2 Q587 3 585 8 Q577 26 572 36 Q567 46 557 51 Q533 30 509 17.5 Q485 5 463 -1.5 Q441 -8 421.5 -10 Q402 -12 388 -12 Q365 -12 334.5 -8.5 Q304 -5 270.5 6.5 Q237 18 203 38.5 Q169 59 138 93 Q91 144 67.5 209 Q44 274 44 348 Q44 433 69 496.5 Q94 560 132 604 Q160 635 190 655 Q220 675 251 686 Q282 697 312.5 701 Q343 705 372 705 Q398 705 417 702.5 Q436 700 452 694.5 Q468 689 483.5 681 Q499 673 518 662 Q526 657 534.5 653 Q543 649 551 649 Q558 649 560.5 652.5 Q563 656 568 665 Q577 683 580.5 688 Q584 693 589 693 Q597 693 597 686 Q597 684 596.5 681 Q596 678 595 672 Q594 665 592 654 Q590 643 588.5 624.5 Q587 606 585.5 577.5 Q584 549 584 507 Q584 481 583 474 Q582 467 573 467 Q566 467 564 471 Q562 475 560 486 Q558 499 554.5 514.5 Q551 530 546.5 546.5 Q542 563 536 578 Q530 593 523 605 Q515 617 504 630 Q493 643 480 652 Q462 666 433.5 675.5 Q405 685 365 685 Q317 685 289 669 Q261 653 241 631 Q222 610 208 585 Q194 560 185 534 Q174 501 167 457 Q160 413 159 376 Q199 396 229 405.5 Q259 415 285 415 Q310 415 334 407 Q358 399 368 395 L450 360 Q464 354 481.5 350 Q499 346 514 346 Q528 346 537.5 349 Q547 352 552 356 Q557 360 562 363.5 Q567 367 572 367 Q577 367 580 363.5 Q583 360 583 355 Q583 345 572.5 341 Q562 337 553 334 L501 316 Q484 310 465 305.5 Q446 301 427 301 Q400 301 373 312 L300 343 Z " />
<glyph glyph-name="uni0405" unicode="&#x405;" horiz-adv-x="498" d="M422 551 Q423 546 423 536 Q423 533 422 528.5 Q421 524 414 524 Q409 524 406 527 Q404 529 403 532.5 Q402 536 401 539 Q397 557 390 578 Q383 599 368 621 Q345 654 314.5 669.5 Q284 685 255 685 Q235 685 215.5 678.5 Q196 672 180.5 658 Q165 644 155.5 621 Q146 598 146 565 Q146 554 147 544 Q148 534 151 524 Q156 506 166 490.5 Q176 475 189 463 Q200 453 212.5 445.5 Q225 438 238 430 Q252 422 265.5 415.5 Q279 409 293 401 Q317 388 341.5 373.5 Q366 359 388 342.5 Q410 326 427.5 306.5 Q445 287 455 264 Q463 248 466 230.5 Q469 213 469 195 Q469 160 456 125 Q443 90 414 59 Q378 21 331.5 4.5 Q285 -12 238 -12 Q216 -12 193 -7 Q169 -2 153 5.5 Q137 13 117 21 Q103 27 97 28.5 Q91 30 87 30 Q81 30 78 27.5 Q75 25 74 20.5 Q73 16 73 11 Q72 2 70.5 -6 Q69 -14 59 -14 Q49 -14 49 0 Q49 14 53.5 43.5 Q58 73 58 122 Q57 152 56 164.5 Q55 177 55 194 Q54 199 56 204 Q58 209 67 210 Q74 210 76 205 Q78 200 79 195 Q84 165 91 138 Q98 111 114 84 Q138 43 172.5 25.5 Q207 8 250 8 Q278 8 304 17 Q330 27 346 44 Q359 58 368.5 81.5 Q378 105 378 139 Q378 177 364.5 204.5 Q351 232 330.5 252.5 Q310 273 284.5 287.5 Q259 302 235 314 Q191 337 154 359.5 Q117 382 94 415 Q78 439 70 468 Q65 491 65 511 Q65 598 119 652 Q146 678 182 691.5 Q218 705 258 705 Q281 705 300 699 Q319 693 348 682 Q357 679 364.5 676.5 Q372 674 380 674 Q389 674 392 677 Q395 680 397 687 Q399 696 400.5 702.5 Q402 709 411 709 Q418 709 420 703 Q421 701 421 697 Q421 692 420.5 687.5 Q420 683 419 674 Q417 661 417 649 Q417 637 417 624 Q417 607 417.5 595.5 Q418 584 418.5 576 Q419 568 420 562.5 Q421 557 422 551 Z " />
<glyph glyph-name="uni0406" unicode="&#x406;" horiz-adv-x="314" d="M107 611 Q107 633 107 646 Q107 660 102 666 Q94 676 74 677 Q54 678 39 678 Q27 678 28 687 Q28 696 42 695 Q74 695 105.5 694 Q137 693 169 693 Q206 694 221 694 Q236 694 249.5 694.5 Q263 695 270 695 Q289 696 287 685 Q287 676 263 677 Q248 676 234.5 676 Q221 676 214 669 Q207 662 207 625 L207 69 Q207 49 208 41 Q209 33 214 27.5 Q219 22 236.5 19.5 Q254 17 276 16 Q288 15 288 8 Q288 0 271 0 Q235 1 197.5 2 Q160 3 131 3 Q111 3 92.5 2 Q74 1 45 0 Q41 0 34.5 0.5 Q28 1 27 8 Q27 17 38 17 Q61 18 75.5 19.5 Q90 21 97 25.5 Q104 30 105.5 41.5 Q107 53 107 85 L107 611 Z " />
<glyph glyph-name="uni0407" unicode="&#x407;" horiz-adv-x="314" d="M107 611 Q107 633 107 646 Q107 660 102 666 Q94 676 74 677 Q54 678 39 678 Q27 678 28 687 Q28 696 42 695 Q74 695 105.5 694 Q137 693 169 693 Q206 694 221 694 Q236 694 249.5 694.5 Q263 695 270 695 Q289 696 287 685 Q287 676 263 677 Q248 676 234.5 676 Q221 676 214 669 Q207 662 207 625 L207 69 Q207 49 208 41 Q209 33 214 27.5 Q219 22 236.5 19.5 Q254 17 276 16 Q288 15 288 8 Q288 0 271 0 Q235 1 197.5 2 Q160 3 131 3 Q111 3 92.5 2 Q74 1 45 0 Q41 0 34.5 0.5 Q28 1 27 8 Q27 17 38 17 Q61 18 75.5 19.5 Q90 21 97 25.5 Q104 30 105.5 41.5 Q107 53 107 85 L107 611 Z M244 864 Q264 864 277 849 Q290 834 290 813 Q290 790 274.5 779 Q259 768 243 768 Q223 768 208.5 781.5 Q194 795 194 815 Q194 836 209 850 Q224 864 244 864 Z M70 864 Q90 864 104 849 Q118 834 118 814 Q118 794 103.5 780.5 Q89 767 69 767 Q49 767 35 781 Q21 795 21 815 Q21 835 35.5 849.5 Q50 864 70 864 Z " />
<glyph glyph-name="uni0408" unicode="&#x408;" horiz-adv-x="328" d="M132 634 Q132 652 126.5 661 Q121 670 112 673.5 Q103 677 80 677 L51 677 Q38 677 38 685 Q38 695 56 695 Q63 695 67.5 694.5 Q72 694 78 694 Q85 694 94.5 693.5 Q104 693 122 693 Q139 693 163 693.5 Q187 694 211 694 Q236 694 256.5 694.5 Q277 695 288 695 Q310 696 311 685 Q310 676 299 677 Q276 676 259 675.5 Q242 675 236.5 668 Q231 661 231 640 L231 208 Q231 160 230.5 126.5 Q230 93 229 70 Q228 47 226.5 32 Q225 17 222 6 Q216 -20 200.5 -43 Q185 -66 164 -83 Q143 -100 117 -110 Q91 -120 63 -120 Q21 -120 -1 -97 Q-23 -74 -23 -45 Q-23 -20 -7.5 -4.5 Q8 11 34 11 Q60 11 73.5 -4.5 Q87 -20 87 -38 Q87 -52 82.5 -60 Q78 -68 74 -73 Q70 -78 67.5 -81 Q65 -84 65 -87 L65 -90 Q65 -93 67 -96 Q69 -99 80 -99 Q99 -99 111 -85 Q123 -71 128 -51 Q131 -37 131.5 -18 Q132 1 132 30 L132 634 Z " />
<glyph glyph-name="uni0409" unicode="&#x409;" horiz-adv-x="854" d="M480 56 Q480 39 484 32 Q488 25 501 23 Q514 21 531 21 Q549 21 571 23 Q593 25 615 32.5 Q637 40 657.5 54.5 Q678 69 694 94 Q712 122 716.5 153 Q721 184 721 209 Q721 244 710.5 281.5 Q700 319 662 350 Q629 376 595.5 381 Q562 386 532 386 Q516 386 505 385.5 Q494 385 480 383 L480 56 Z M366 667 Q359 642 352 618.5 Q345 595 338 570.5 Q331 546 323.5 518.5 Q316 491 307 458 Q298 426 290 396 Q282 366 272 334 Q262 302 250.5 266 Q239 230 223 188 Q203 136 182 94 Q161 52 132 26 Q109 6 85 -2.5 Q61 -11 40 -11 Q35 -11 19.5 -9 Q4 -7 -10 3 Q-21 11 -29.5 25.5 Q-38 40 -38 61 Q-38 78 -32 91.5 Q-26 105 -18 114 Q-8 124 5 129.5 Q18 135 29 135 Q55 135 69.5 117 Q84 99 84 81 Q84 73 81 65 Q78 57 74 52 Q68 44 62 40.5 Q56 37 56 32 Q58 23 67 23 Q83 23 101 36.5 Q119 50 130 64 Q134 69 143.5 83 Q153 97 167 126.5 Q181 156 200 204.5 Q219 253 242 328 Q252 359 264 400 Q276 441 287 482.5 Q298 524 308 561.5 Q318 599 323 624 Q325 636 326 642 Q327 648 327 653 Q327 669 315 672 Q303 675 293 675 Q285 675 279 674.5 Q273 674 253 673 L228 673 Q222 673 216 674.5 Q210 676 210 684 Q210 694 215.5 695 Q221 696 228 696 L260 696 Q268 696 281.5 695 Q295 694 316.5 693 Q338 692 346 692 L420 692 Q428 692 436 693.5 Q444 695 448.5 696.5 Q453 698 461 698 Q482 698 482 679 Q482 674 481 663 Q480 652 480 634 L480 407 Q497 409 512 409.5 Q527 410 544 410 Q564 410 589.5 409 Q615 408 642.5 402.5 Q670 397 697.5 387 Q725 377 750 359 Q763 349 776.5 335 Q790 321 801 302.5 Q812 284 819 259.5 Q826 235 826 204 Q826 147 803 109 Q780 71 738 45 Q706 25 663.5 13 Q621 1 566 0 L526 0 Q513 0 494 2 Q475 4 453 4 Q425 4 405.5 3 Q386 2 370 1.5 Q354 1 340.5 0 Q327 -1 318 -1 Q308 -1 302.5 0 Q297 1 297 7 Q297 12 300 13.5 Q303 15 308 15 Q313 16 323 16 L344 17 Q351 17 359 19 Q371 21 376 27.5 Q381 34 381 55 L381 667 L366 667 Z " />
<glyph glyph-name="uni040A" unicode="&#x40a;" horiz-adv-x="979" d="M605 44 Q605 33 614.5 27 Q624 21 657 21 Q674 21 695.5 23 Q717 25 739.5 32.5 Q762 40 782.5 54.5 Q803 69 819 94 Q837 122 841.5 152.5 Q846 183 846 202 Q846 246 833.5 281.5 Q821 317 787 343 Q758 366 727 372.5 Q696 379 665 379 Q646 379 631 378 Q616 377 605 376 L605 44 Z M205 375 L205 82 Q205 64 205 49 Q205 35 212 28 Q217 23 229.5 21 Q242 19 259 18 Q270 17 277.5 16.5 Q285 16 285 9 Q285 2 277.5 1 Q270 0 255 0 Q238 0 227.5 0.5 Q217 1 208 1 Q200 1 192.5 1.5 Q185 2 174 2 Q163 2 152.5 1.5 Q142 1 131 1 Q110 0 89 0 Q69 0 48 0 Q28 0 28 8 Q28 12 32.5 15 Q37 18 52 18 Q58 18 63 18 Q69 18 75 19 Q83 20 91.5 22.5 Q100 25 103 30 Q105 34 105.5 42 Q106 50 106 65 L106 634 Q106 643 105.5 653.5 Q105 664 100 669 Q96 674 87.5 675 Q79 676 69 676 Q64 676 59.5 676.5 Q55 677 50 677 Q36 678 32 679 Q28 680 28 687 Q28 690 30.5 692.5 Q33 695 43 695 Q50 695 55 694.5 Q60 694 74 693.5 Q88 693 116.5 692.5 Q145 692 200 692 Q224 692 230 692.5 Q236 693 237 693 Q238 693 241.5 693.5 Q245 694 265 694 Q272 694 275 693 Q277 692 280 690.5 Q283 689 283 684 Q283 681 281 679 Q279 676 271 675.5 Q263 675 259 675 L236 675 Q226 675 221 673 Q214 671 211 667 Q209 665 207 657.5 Q205 650 205 631 L205 400 L506 400 L506 605 Q506 625 506 636 Q506 647 504 655 Q501 669 493.5 672.5 Q486 676 472 676 L442 676 Q431 676 429 680 Q427 684 427 686 Q427 689 430 691 Q434 694 444 694 Q456 694 468 693.5 Q480 693 492 693 L498 693 L571 693 Q586 693 601 693 Q616 693 631 694 Q639 694 646 694.5 Q653 695 661 695 Q669 695 676 694 Q683 693 683 686 Q683 680 677 678.5 Q671 677 667 677 L639 676 Q632 676 622.5 674.5 Q613 673 609 667 Q607 665 606.5 661.5 Q606 658 606 650 Q605 642 605 633 Q605 624 605 616 L605 400 Q622 402 642 402.5 Q662 403 676 403 Q744 403 793 390 Q842 377 875 352 Q921 318 936 275.5 Q951 233 951 196 Q951 145 928 108 Q905 71 863 45 Q819 18 773 9.5 Q727 1 679 1 Q668 1 657 1 Q646 1 635 2 Q615 3 596.5 3.5 Q578 4 558 4 Q550 4 541 4 Q533 4 525 3 Q506 2 487.5 0.5 Q469 -1 450 -1 Q438 -1 434 0 Q430 1 428 2 Q426 4 426 7 Q426 14 439.5 15 Q453 16 473 18 Q480 19 488.5 19.5 Q497 20 501 25 Q503 27 504.5 33 Q506 39 506 56 L506 375 L205 375 Z " />
<glyph glyph-name="uni040B" unicode="&#x40b;" horiz-adv-x="793" d="M339 398 Q368 402 399 404 Q430 406 455 406 Q503 406 547.5 395 Q592 384 632 349 Q661 324 679.5 290.5 Q698 257 698 226 L698 73 Q698 51 699 41.5 Q700 32 703 28 Q708 22 720.5 19.5 Q733 17 741 17 L761 17 Q766 17 771.5 16 Q777 15 777 9 Q777 1 767.5 0.5 Q758 0 750 0 Q733 0 715 0.5 Q697 1 680 1 Q645 1 611 0 Q577 -1 543 -1 Q534 -1 526.5 -0.5 Q519 0 519 7 Q519 14 532.5 15 Q546 16 566 18 Q573 19 581.5 19.5 Q590 20 594 25 Q596 27 597.5 33 Q599 39 599 56 L599 185 Q599 208 596.5 231 Q594 254 587 276 Q580 298 566 317 Q552 336 530 351 Q510 365 479.5 373 Q449 381 401 381 Q380 381 365.5 380 Q351 379 339 377 L339 82 Q339 64 339 49 Q339 35 346 28 Q351 23 363.5 21 Q376 19 393 18 Q404 17 411.5 16.5 Q419 16 419 9 Q419 2 411.5 1 Q404 0 389 0 Q359 0 349 0.5 Q339 1 335.5 1.5 Q332 2 328 2 Q324 2 308 2 Q291 2 278 1.5 Q265 1 250.5 0 Q236 -1 216.5 -1.5 Q197 -2 169 -2 Q160 -2 156.5 1 Q153 4 153 6 Q153 8 154 11 Q155 14 163 15 L199 17 Q204 17 216.5 19 Q229 21 235 29 Q237 31 238.5 38 Q240 45 240 62 L240 670 L183 670 Q151 670 123 662 Q95 654 79 638 Q59 618 51.5 585 Q44 552 41 526 Q40 522 38 515 Q36 508 29 508 Q22 508 19.5 514 Q17 520 16.5 529 Q16 538 17.5 547.5 Q19 557 19 564 Q21 596 23 625 Q25 654 29 695 Q74 695 101 695 Q128 695 144.5 694.5 Q161 694 169.5 693.5 Q178 693 187 692.5 Q196 692 208 692 Q221 692 244 692 L383 692 Q397 692 410 692 Q424 692 444.5 692.5 Q465 693 496 694 Q527 695 575 696 Q576 685 577 669.5 Q578 654 579.5 637.5 Q581 621 582 605.5 Q583 590 584 578 Q586 552 587.5 540 Q589 528 589 519 Q589 514 587.5 509 Q586 504 579 504 Q569 504 566 511.5 Q563 519 562 527 Q558 555 553.5 579 Q549 603 537 623 Q525 643 501 656.5 Q477 670 429 670 L339 670 L339 398 Z " />
<glyph glyph-name="uni040C" unicode="&#x40c;" horiz-adv-x="612" d="M206 37 Q206 29 219 21.5 Q232 14 275 15 Q277 15 282.5 14 Q288 13 288 7 Q288 4 283.5 1 Q279 -2 266 -2 Q256 -2 248 -1.5 Q240 -1 227.5 0 Q215 1 196 1.5 Q177 2 146 2 Q118 2 103.5 1.5 Q89 1 80 0 Q71 -1 64 -1.5 Q57 -2 45 -2 Q33 -2 30 2 Q27 6 27 8 Q27 13 31 14.5 Q35 16 40 16 Q67 17 79 18 Q91 19 96 22 Q99 24 103 29.5 Q107 35 107 46 L107 649 Q107 655 105.5 660 Q104 665 99 669 Q93 674 73.5 675.5 Q54 677 42 677 Q38 677 33 678 Q28 679 28 685 Q28 692 32.5 693 Q37 694 41 694 Q68 694 85.5 693.5 Q103 693 115 693 Q127 693 136 692.5 Q145 692 157 692 Q163 692 178.5 692.5 Q194 693 211 693 Q229 693 246 693.5 Q263 694 273 694 Q281 694 284 691 Q287 688 287 685 Q287 680 281.5 678.5 Q276 677 274 677 Q260 676 251 675.5 Q242 675 236 674.5 Q230 674 227 673.5 Q224 673 221 672 Q211 668 208.5 661 Q206 654 206 649 L206 380 L263 380 Q271 380 288.5 384 Q306 388 329 406 Q358 429 370 458.5 Q382 488 391 516 Q401 547 405.5 562 Q410 577 412 585 Q414 593 416 599 Q418 605 422 620 Q425 632 430 646 Q435 660 444 672 Q453 684 468.5 694 Q484 704 509 704 Q550 704 571.5 680 Q593 656 593 627 Q593 603 578.5 587 Q564 571 542 571 Q527 571 511 580.5 Q495 590 495 613 Q495 631 505.5 637 Q516 643 526 645 Q531 646 535 647.5 Q539 649 539 656 Q539 664 531.5 670.5 Q524 677 509 677 Q494 677 484 671 Q474 665 467 656.5 Q460 648 456.5 638 Q453 628 450 619 Q441 588 435 566.5 Q429 545 425 531 Q421 517 418 508 Q415 499 413 492 Q405 468 394.5 448 Q384 428 365 407 Q354 394 340.5 384.5 Q327 375 305 370 L305 369 Q337 361 359 350.5 Q381 340 401 325 Q420 311 435.5 293.5 Q451 276 465 252 Q477 231 488 202 Q499 173 508.5 144.5 Q518 116 526 90.5 Q534 65 540 50 Q549 29 558 23 Q563 19 574.5 17 Q586 15 609 16 Q611 16 619 15 Q627 14 627 8 Q627 6 624.5 2 Q622 -2 611 -2 Q585 -2 566.5 -1.5 Q548 -1 534 -1 Q521 -1 511 -0.5 Q501 0 491 0 Q477 0 465.5 -0.5 Q454 -1 444 -2 Q442 14 439 30 Q436 46 433 65 Q421 133 411 173 Q401 213 394 233 Q388 253 377 277.5 Q366 302 346 322 Q324 343 300.5 349.5 Q277 356 262 356 L206 356 L206 37 Z M436 919 L300 779 Q295 774 287 767 Q279 760 274 760 Q268 760 268 767 Q268 769 270 773 L335 919 L436 919 Z " />
<glyph glyph-name="uni040E" unicode="&#x40e;" horiz-adv-x="634" d="M96 611 Q83 641 69.5 658.5 Q56 676 36 677 L7 678 Q2 678 -2.5 677.5 Q-7 677 -12 677 Q-15 677 -20 678 Q-25 679 -25 686 Q-25 694 -16 695.5 Q-7 697 -2 697 Q19 697 42 695.5 Q65 694 102 694 L160 694 Q174 694 187 694.5 Q200 695 214 696 Q228 697 243 697 Q258 697 273 697 Q278 697 287.5 696 Q297 695 297 685 Q297 677 289.5 676.5 Q282 676 277 676 L203 674 Q190 674 186 666.5 Q182 659 182 654 Q182 646 185 640 L393 153 Q406 192 416.5 223.5 Q427 255 435.5 284 Q444 313 451.5 340 Q459 367 467 397 Q477 437 486 472 Q495 507 505 551 Q509 568 511.5 583 Q514 598 514 616 Q514 631 510.5 640 Q507 649 495 659 Q478 674 453 675 L428 676 Q426 676 420 677 Q414 678 414 685 Q414 688 417 692.5 Q420 697 432 697 Q460 697 486.5 696 Q513 695 539 695 Q564 695 588 696 Q612 697 641 697 Q645 697 649.5 695.5 Q654 694 654 686 Q654 678 647.5 677 Q641 676 633 676 Q618 676 602 673 Q586 670 572 656 Q560 643 553.5 624.5 Q547 606 540 581 Q534 557 528 533.5 Q522 510 515.5 483.5 Q509 457 501 426.5 Q493 396 483 358 Q473 321 459 276.5 Q445 232 429.5 186 Q414 140 397 95.5 Q380 51 363 15 Q350 -13 333 -40.5 Q316 -68 293 -88 Q274 -105 249 -115.5 Q224 -126 199 -126 Q178 -126 155 -118 Q132 -110 115 -93 Q104 -82 95.5 -64.5 Q87 -47 87 -24 Q87 15 108.5 34.5 Q130 54 158 54 Q187 54 205.5 36 Q224 18 224 -8 Q224 -31 211 -43 Q198 -55 184 -55 Q181 -55 178.5 -54.5 Q176 -54 173 -53 Q167 -51 163 -51 Q158 -51 153.5 -54.5 Q149 -58 149 -66 Q149 -79 162.5 -89.5 Q176 -100 200 -100 Q217 -100 232.5 -94.5 Q248 -89 262 -79 Q278 -68 290 -55.5 Q302 -43 312 -29 Q321 -16 330 2 Q339 20 346 38 L96 611 Z M337 733 Q309 733 282 738.5 Q255 744 234 759 Q216 772 208 788 Q200 804 200 820 Q200 845 216.5 861 Q233 877 257 877 Q280 877 291.5 863 Q303 849 303 832 Q302 818 294 811 Q286 804 276 802 Q266 800 258.5 797.5 Q251 795 251 786 Q251 778 259.5 770 Q268 762 279 757 Q290 753 307.5 751 Q325 749 337 749 Q349 749 366.5 751 Q384 753 395 757 Q406 762 414.5 770 Q423 778 423 786 Q423 795 415.5 797.5 Q408 800 398 802 Q388 804 380 811 Q372 818 371 832 Q371 849 382.5 863 Q394 877 417 877 Q441 877 457.5 861 Q474 845 474 820 Q474 804 466 788 Q458 772 440 759 Q419 744 392 738.5 Q365 733 337 733 Z " />
<glyph glyph-name="uni040F" unicode="&#x40f;" horiz-adv-x="708" d="M601 59 Q601 51 601.5 40 Q602 29 607 24 Q611 19 619 18.5 Q627 18 638 17 L657 16 Q673 15 676 13.5 Q679 12 679 6 Q679 3 677 0 Q675 -3 665 -3 L642 -3 Q617 -2 603 -1 Q589 0 573 0 L424 0 Q413 0 402.5 -1 Q392 -2 384 -7 Q376 -12 371.5 -22 Q367 -32 367 -50 Q367 -68 369 -80.5 Q371 -93 376 -107 Q383 -131 389.5 -152.5 Q396 -174 396 -193 Q396 -215 383.5 -233 Q371 -251 354 -251 Q337 -251 324.5 -233 Q312 -215 312 -193 Q312 -174 318.5 -152.5 Q325 -131 332 -107 Q337 -93 339 -80.5 Q341 -68 341 -50 Q341 -32 336.5 -22 Q332 -12 324 -7 Q316 -2 305.5 -1 Q295 0 284 0 L135 0 Q123 -1 100.5 -1.5 Q78 -2 56 -3 L43 -3 Q32 -3 30.5 0 Q29 3 29 7 Q29 12 32 13.5 Q35 15 51 16 L70 17 Q81 18 89 18.5 Q97 19 101 24 Q106 29 106.5 40 Q107 51 107 59 L107 621 Q107 643 106 652.5 Q105 662 102 666 Q97 673 82.5 675 Q68 677 59 677 L44 677 Q39 677 33.5 678 Q28 679 28 685 Q28 691 34 692.5 Q40 694 47 694 L185 693 L209 693 Q223 693 237.5 694 Q252 695 266 695 Q273 695 279.5 694 Q286 693 286 687 Q286 680 272.5 679 Q259 678 238 676 Q230 675 222.5 674.5 Q215 674 211 669 Q209 667 207.5 661 Q206 655 206 638 L206 25 L502 25 L502 638 Q502 655 500.5 661 Q499 667 497 669 Q493 673 486 674 Q479 675 471 676 Q447 678 434.5 679.5 Q422 681 422 687 Q422 693 428.5 694 Q435 695 442 695 Q457 695 472 694 Q487 693 502 693 L523 693 L661 694 Q668 694 674 692.5 Q680 691 680 685 Q680 679 674.5 678 Q669 677 664 677 L652 677 Q640 677 625.5 675 Q611 673 606 666 Q603 662 602 652.5 Q601 643 601 621 L601 59 Z " />
<glyph glyph-name="uni0410" unicode="&#x410;" horiz-adv-x="602" d="M375 246 L274 532 L173 246 L375 246 Z M167 223 L123 101 Q119 90 113 69.5 Q107 49 107 39 Q108 29 113.5 25 Q119 21 133 20 Q143 20 169 18 Q177 17 187.5 16.5 Q198 16 198 8 Q198 2 191.5 0 Q185 -2 172 -2 Q151 -2 126.5 -1 Q102 0 85 1 Q72 2 60.5 2.5 Q49 3 37 3 Q26 3 13 1.5 Q0 0 -10 0 Q-18 0 -21 2 Q-24 4 -24 9 Q-24 17 -13 17.5 Q-2 18 6 19 Q33 21 49 27 Q65 33 75 61 L285 653 L296 688 Q300 705 306 708 Q314 706 319 688 L373 532 L549 52 Q551 45 554.5 38 Q558 31 566 26 Q576 20 594.5 18.5 Q613 17 621 17 Q628 17 637.5 16 Q647 15 647 7 Q647 -2 632 -2 Q625 -2 597 -1 Q473 2 363 -1 Q357 -1 353 -1.5 Q349 -2 345 -2 Q332 -2 328.5 0.5 Q325 3 325 8 Q325 16 334 17 Q343 18 355 19 Q372 20 386 21 Q400 21 410.5 22 Q421 23 428 25.5 Q435 28 437 31 Q439 34 439 38 Q439 42 438 45 L381 223 L167 223 Z " />
<glyph glyph-name="uni0411" unicode="&#x411;" horiz-adv-x="586" d="M208 38 Q208 29 219.5 24 Q231 19 248 19 Q287 19 323 30.5 Q359 42 385 67 Q415 96 424.5 129.5 Q434 163 434 195 Q434 248 417 287.5 Q400 327 373 349 Q355 364 332.5 371.5 Q310 379 287.5 382 Q265 385 244 384 Q223 383 208 382 L208 38 Z M208 402 Q222 403 238.5 403.5 Q255 404 273 404 Q317 404 364 395.5 Q411 387 457 353 Q491 327 515 287 Q539 247 539 196 Q539 146 518 109.5 Q497 73 466 50 Q432 24 395 15 Q358 6 331 4 Q328 4 319.5 3 Q311 2 293 1.5 Q275 1 245.5 0.5 Q216 0 172 0 Q163 0 156 0 Q150 0 142 0 Q135 0 124.5 -0.5 Q114 -1 98 -1 Q85 -2 72 -2 Q60 -2 47 -2 Q28 -2 28 7 Q28 12 33 14 Q38 16 45 16 Q53 16 70 17 Q76 18 87 19.5 Q98 21 103 28 Q107 33 108 44 Q109 55 109 75 L109 637 Q109 647 109 655 Q109 663 105 668 Q101 673 94.5 674 Q88 675 84 676 Q69 678 63 677 Q57 676 46 677 Q37 678 33.5 681 Q30 684 30 686 Q30 692 38 693.5 Q46 695 52 695 Q63 695 73 695 Q84 695 97 695 Q111 695 129.5 694.5 Q148 694 176 694 L440 694 Q453 694 468 695.5 Q483 697 495 699 Q497 668 498.5 646 Q500 624 502 603 L508 536 Q509 529 505.5 526.5 Q502 524 498 524 Q490 524 487.5 533 Q485 542 483 550 Q475 585 461.5 610.5 Q448 636 430 649 Q421 655 397.5 662.5 Q374 670 322 670 L223 670 Q212 670 210 665 Q208 660 208 655 L208 402 Z " />
<glyph glyph-name="uni0412" unicode="&#x412;" horiz-adv-x="571" d="M206 60 Q206 40 210 30.5 Q214 21 226 20 Q238 19 271 20 Q303 21 331 32 Q359 43 377 63 Q397 85 408 120 Q419 155 419 190 Q419 209 415.5 232.5 Q412 256 401 278.5 Q390 301 370 320 Q350 339 317 349 Q304 353 289 355 Q283 356 264 357.5 Q245 359 206 358 L206 60 Z M206 379 L251 379 Q322 383 356 422.5 Q390 462 390 530 Q390 575 378 608 Q366 641 346 655 Q338 661 319 666.5 Q300 672 259 672 Q227 671 206 669 L206 379 Z M306 365 Q332 364 360.5 359 Q389 354 414 344 Q423 340 431.5 336 Q440 332 448 327 Q484 304 504 267.5 Q524 231 524 182 Q524 149 515 124 Q506 99 492 81 Q478 63 462 51 Q446 39 431 31 Q426 28 420.5 25.5 Q415 23 410 21 Q381 9 344 6 Q307 3 257 1 L211 0 L44 0 Q27 0 27 9 Q27 15 32.5 16.5 Q38 18 47 18 Q73 18 86 20 Q99 22 103 31 Q107 40 107 71 L107 612 Q107 639 106 650 Q105 661 101.5 666.5 Q98 672 85 674 Q72 676 52 676 Q46 676 35.5 677.5 Q25 679 25 687 Q25 693 33.5 694 Q42 695 50 695 Q77 694 98 694 L277 692 Q331 691 368.5 684.5 Q406 678 438 656 Q447 650 458 640.5 Q469 631 478.5 616.5 Q488 602 494 582.5 Q500 563 500 537 Q500 498 486 472.5 Q472 447 454 430 Q436 413 414 402 Q392 391 371.5 384.5 Q351 378 333.5 375 Q316 372 306 371 L306 365 Z " />
<glyph glyph-name="uni0413" unicode="&#x413;" horiz-adv-x="516" d="M107 633 Q107 640 107 649 Q107 658 102 664 Q97 670 87 671.5 Q77 673 70 673 L44 673 Q28 673 28 683 Q28 691 35.5 692 Q43 693 51 693 L64 693 Q77 693 90 692.5 Q103 692 116 692 L309 692 Q349 692 381 692 Q413 692 445 693 Q466 694 477.5 694.5 Q489 695 500 697 Q502 671 504.5 636.5 Q507 602 509 579 L516 512 Q517 505 513.5 502.5 Q510 500 506 500 Q498 500 495.5 507.5 Q493 515 491 525 Q480 570 464.5 602.5 Q449 635 425 649 Q403 662 364.5 664.5 Q326 667 259 667 L206 667 L206 75 Q206 61 207.5 48 Q209 35 216 28 Q222 22 232.5 20 Q243 18 251 17 Q263 16 273 16 Q283 16 288 14 Q293 12 293 8 Q293 0 285.5 -1 Q278 -2 271 -2 Q256 -2 240.5 -1.5 Q225 -1 209 -1 Q196 -1 184 -0.5 Q172 0 159 0 Q147 0 134.5 -0.5 Q122 -1 110 -1 Q94 -2 79 -2 Q64 -2 48 -2 Q41 -2 33.5 -1 Q26 0 26 8 Q26 13 28.5 13.5 Q31 14 35 15 Q40 16 44 16 Q49 16 54 16 Q58 16 61 16.5 Q64 17 68 17 Q74 18 85 19 Q96 20 101 28 Q105 33 106 43 Q107 53 107 75 L107 633 Z " />
<glyph glyph-name="uni0414" unicode="&#x414;" horiz-adv-x="630" d="M408 667 L113 25 L433 25 L433 667 L408 667 Z M368 645 Q371 651 371 659 Q371 667 363.5 671 Q356 675 330 675 Q312 675 297 674 Q288 673 276 673 Q269 673 261 675 Q253 677 253 685 Q253 694 261 695 Q269 696 275 696 L305 696 Q321 695 342.5 693.5 Q364 692 385 692 L483 692 Q487 692 494.5 693.5 Q502 695 506.5 696.5 Q511 698 516 698 Q526 698 530 695 Q534 692 534 681 Q533 671 532 645 L532 43 Q532 34 537.5 29.5 Q543 25 569 25 L615 25 Q601 -11 589 -45.5 Q577 -80 563 -125 Q551 -162 546.5 -173 Q542 -184 535 -184 Q526 -184 523.5 -174.5 Q521 -165 520 -153 Q519 -141 518 -111 Q518 -80 517 -61.5 Q516 -43 514 -26 Q512 -9 504.5 -5.5 Q497 -2 469.5 -1 Q442 0 415 0 L151 0 Q132 0 117.5 -0.5 Q103 -1 95 -4.5 Q87 -8 85.5 -22 Q84 -36 83.5 -56.5 Q83 -77 82 -112 Q82 -123 81.5 -135.5 Q81 -148 80 -158.5 Q79 -169 76.5 -176.5 Q74 -184 66 -184 Q60 -184 55.5 -176 Q51 -168 47 -157 Q43 -146 34 -117 Q19 -74 5.5 -39 Q-8 -4 -19 25 L43 25 Q53 25 69 27 Q85 29 90 41 L368 645 Z " />
<glyph glyph-name="uni0415" unicode="&#x415;" horiz-adv-x="582" d="M230 378 Q283 378 319 380.5 Q355 383 373 400 Q389 415 393 443 Q397 471 400 494 Q402 503 403 509 Q404 515 412 515 Q418 515 420 509.5 Q422 504 422.5 496 Q423 488 422 479 Q421 470 420 462 Q419 445 418.5 422 Q418 399 418 373 Q418 348 418.5 324 Q419 300 420 282 Q421 265 421.5 256.5 Q422 248 422.5 243.5 Q423 239 423 236 Q423 234 423 229 Q423 225 421.5 219.5 Q420 214 412 214 Q404 214 401.5 226.5 Q399 239 394 278 Q392 295 387 312 Q382 329 368 340 Q352 351 323.5 354 Q295 357 251 357 L206 357 L206 21 L303 21 Q315 21 332 21 Q350 21 369 21.5 Q388 22 405.5 23 Q423 24 435 25 Q443 26 449.5 27 Q456 28 464 30 Q481 35 497 45.5 Q513 56 524 82 Q532 102 534 120 Q536 138 539 158 Q541 167 542.5 175 Q544 183 552 183 Q563 183 562.5 169 Q562 155 561 135 Q560 119 559 88.5 Q558 58 558 27 L558 -6 Q537 -5 508.5 -4 Q480 -3 435.5 -2.5 Q391 -2 327 -1.5 Q263 -1 170 -1 L96 -1 Q86 -1 76 -1.5 Q66 -2 56 -2 L45 -2 Q32 -2 28 2 Q26 4 26 7 Q26 14 35 14.5 Q44 15 68 17 Q81 18 89 19.5 Q97 21 101 27 Q105 33 106 44 Q107 55 107 75 L107 637 L107 653 Q107 659 106 662.5 Q105 666 103 668 Q98 674 86 675.5 Q74 677 59 677 L44 677 Q33 677 30.5 681 Q28 685 28 687 Q28 690 32 692 Q36 695 50 695 L118 694 Q169 692 221 694 Q236 694 251 694.5 Q266 695 281 695 L474 695 Q481 695 487 695 Q493 695 500 696 Q507 697 513 697 Q520 697 529 699 Q531 665 533 643 Q535 621 537 593 L543 526 Q544 519 540.5 516.5 Q537 514 533 514 Q525 514 522.5 523 Q520 532 518 540 Q508 587 492 614 Q476 641 456 653 Q447 659 433.5 662.5 Q420 666 400.5 668 Q381 670 353.5 670.5 Q326 671 288 671 L206 671 L206 378 L230 378 Z " />
<glyph glyph-name="uni0416" unicode="&#x416;" horiz-adv-x="868" d="M510 380 Q531 380 548.5 388 Q566 396 577 406 Q602 427 615.5 457 Q629 487 639 519 Q650 552 655.5 573.5 Q661 595 669 621 Q673 634 677.5 646.5 Q682 659 691 671 Q715 704 756 704 Q797 704 818.5 680 Q840 656 840 628 Q840 602 825.5 586.5 Q811 571 789 571 Q774 571 758 580.5 Q742 590 742 613 Q742 631 752.5 637 Q763 643 773 645 Q778 646 782 647.5 Q786 649 786 656 Q786 664 778.5 670.5 Q771 677 756 677 Q741 677 731 671.5 Q721 666 714 657.5 Q707 649 703.5 639 Q700 629 697 620 Q682 567 674 538.5 Q666 510 660 492 Q653 472 642.5 450 Q632 428 612 407 Q599 393 585 384 Q571 375 552 370 L552 369 Q584 361 606 350.5 Q628 340 648 325 Q667 311 682.5 293.5 Q698 276 712 252 Q724 231 735 202 Q746 173 755.5 144.5 Q765 116 773 90.5 Q781 65 787 50 Q796 29 805 23 Q810 19 821.5 17 Q833 15 856 16 Q858 16 866 15 Q874 14 874 8 Q874 6 871.5 2 Q869 -2 858 -2 Q832 -2 813.5 -1.5 Q795 -1 781 -1 Q768 -1 758 -0.5 Q748 0 738 0 Q724 0 712.5 -0.5 Q701 -1 691 -2 Q689 14 686 30 Q683 46 680 65 Q668 133 658 173 Q648 213 641 233 Q635 253 624 277.5 Q613 302 593 322 Q571 343 547.5 349.5 Q524 356 509 356 L483 356 L483 37 Q483 29 496 21.5 Q509 14 552 15 Q554 15 559.5 14 Q565 13 565 7 Q565 4 560.5 1 Q556 -2 543 -2 Q533 -2 525 -1.5 Q517 -1 504.5 0 Q492 1 473 1.5 Q454 2 423 2 Q395 2 380.5 1.5 Q366 1 357 0 Q348 -1 341 -1.5 Q334 -2 322 -2 Q310 -2 307 2 Q304 6 304 8 Q304 13 308 14.5 Q312 16 317 16 Q344 17 356 18 Q368 19 373 22 Q376 24 380 29.5 Q384 35 384 46 L384 356 L358 356 Q343 356 319.5 349.5 Q296 343 274 322 Q254 302 243 277.5 Q232 253 226 233 Q219 213 209 173 Q199 133 187 65 Q184 46 181 30 Q178 14 176 -2 Q166 -1 154.5 -0.5 Q143 0 129 0 Q119 0 109 -0.5 Q99 -1 85 -1 Q72 -1 53.5 -1.5 Q35 -2 9 -2 Q-2 -2 -4.5 2 Q-7 6 -7 8 Q-7 14 1 15 Q9 16 11 16 Q34 15 45.5 17 Q57 19 62 23 Q71 29 80 50 Q86 65 94 90.5 Q102 116 111.5 144.5 Q121 173 132 202 Q143 231 155 252 Q169 276 184.5 293.5 Q200 311 219 325 Q239 340 261 350.5 Q283 361 315 369 L315 370 Q296 375 282 384 Q268 393 255 407 Q235 428 224.5 450 Q214 472 207 492 Q201 510 193 538.5 Q185 567 170 620 Q167 629 163.5 639 Q160 649 153 657.5 Q146 666 136 671.5 Q126 677 111 677 Q96 677 88.5 670.5 Q81 664 81 656 Q81 649 85 647.5 Q89 646 94 645 Q104 643 114.5 637 Q125 631 125 613 Q125 590 109 580.5 Q93 571 78 571 Q56 571 41.5 586.5 Q27 602 27 628 Q27 656 48.5 680 Q70 704 111 704 Q152 704 176 671 Q185 659 189.5 646.5 Q194 634 198 621 Q206 595 211.5 573.5 Q217 552 228 519 Q238 487 251.5 457 Q265 427 290 406 Q301 396 318.5 388 Q336 380 357 380 L384 380 L384 649 Q384 655 382.5 660 Q381 665 376 669 Q370 674 350.5 675.5 Q331 677 319 677 Q315 677 310 678 Q305 679 305 685 Q305 692 309.5 693 Q314 694 318 694 Q345 694 362.5 693.5 Q380 693 392 693 Q404 693 413 692.5 Q422 692 434 692 Q440 692 455.5 692.5 Q471 693 488 693 Q506 693 523 693.5 Q540 694 550 694 Q558 694 561 691 Q564 688 564 685 Q564 680 558.5 678.5 Q553 677 551 677 Q537 676 528 675.5 Q519 675 513 674.5 Q507 674 504 673.5 Q501 673 498 672 Q488 668 485.5 661 Q483 654 483 649 L483 380 L510 380 Z " />
<glyph glyph-name="uni0417" unicode="&#x417;" horiz-adv-x="547" d="M297 371 Q278 383 259 389 Q240 395 226 395 Q207 395 200.5 386 Q194 377 194 369 Q194 360 202.5 352.5 Q211 345 230 345 Q247 345 265 353 Q283 361 297 371 Z M319 382 Q336 394 347.5 410 Q359 426 366 449 Q372 469 374 493 Q376 517 376 534 Q376 547 372.5 576 Q369 605 355 630 Q344 650 322.5 666 Q301 682 266 682 Q240 682 220.5 674 Q201 666 175 648 Q149 630 130 595.5 Q111 561 105 529 Q102 513 99.5 503 Q97 493 87 493 Q77 493 75.5 503 Q74 513 74 521 Q74 531 74 547 Q73 601 70 646 Q68 663 66.5 669 Q65 675 65 681 Q65 694 75 694 Q83 694 86 686.5 Q89 679 91 674 Q95 663 101.5 659 Q108 655 115 655 Q123 655 134 660 Q145 665 162 674 Q189 688 217 696.5 Q245 705 279 705 Q311 705 347.5 695.5 Q384 686 412 669 Q454 643 470 608.5 Q486 574 486 544 Q486 521 476.5 490 Q467 459 435 429 Q415 410 389.5 395.5 Q364 381 341 372 L341 371 Q367 365 400 350 Q433 335 458 309 Q478 289 491.5 258 Q505 227 505 185 Q505 143 488.5 102.5 Q472 62 430 29 Q395 1 355.5 -10.5 Q316 -22 264 -22 Q238 -22 220 -21 Q202 -20 187.5 -17 Q173 -14 161.5 -9.5 Q150 -5 137 2 Q123 10 114.5 16 Q106 22 95 32 Q84 42 73 50.5 Q62 59 50 59 Q40 59 31 52 Q22 45 17 34 Q14 27 10.5 18.5 Q7 10 -1 10 Q-5 10 -8.5 12.5 Q-12 15 -12 21 Q-12 25 -7.5 33 Q-3 41 3 50 Q9 59 15.5 67.5 Q22 76 25 80 Q45 103 62.5 110.5 Q80 118 95 118 Q112 118 123.5 112.5 Q135 107 143 102 Q157 92 166.5 81.5 Q176 71 185 58 Q198 40 221 21.5 Q244 3 274 3 Q301 3 320 15 Q339 27 353 47 Q373 76 382 115.5 Q391 155 391 197 Q391 223 388 246 Q385 269 374 292 Q365 312 352 328.5 Q339 345 319 359 Q299 345 273.5 334 Q248 323 219 323 Q186 323 171 338 Q156 353 156 370 Q156 387 172 402 Q188 417 227 417 Q276 417 319 382 Z " />
<glyph glyph-name="uni0418" unicode="&#x418;" horiz-adv-x="725" d="M519 556 L522 580 L510 558 L205 82 L205 53 Q205 46 206.5 39 Q208 32 212 28 Q217 23 229 21.5 Q241 20 259 18 Q270 17 277.5 16.5 Q285 16 285 9 Q285 2 277.5 1 Q270 0 255 0 Q238 0 227.5 0.5 Q217 1 208 1 Q200 1 192.5 1.5 Q185 2 174 2 Q163 2 152.5 1.5 Q142 1 131 1 Q110 0 89 0 Q69 0 48 0 Q28 0 28 8 Q28 12 32.5 15 Q37 18 52 18 Q81 18 91 22.5 Q101 27 103 30 Q105 34 105.5 42 Q106 50 106 65 L106 634 Q106 643 105.5 653.5 Q105 664 100 669 Q96 674 88 674.5 Q80 675 69 676 Q43 678 35.5 678.5 Q28 679 28 687 Q28 690 30 692.5 Q32 695 41 695 Q45 695 49.5 694.5 Q54 694 65 693.5 Q76 693 96.5 692.5 Q117 692 154 692 L176 692 Q194 692 211.5 691.5 Q229 691 247 693 Q252 693 256 693.5 Q260 694 265 694 Q270 694 276.5 692.5 Q283 691 283 685 Q283 677 275.5 676 Q268 675 259 675 L236 675 Q217 675 211 667 Q209 665 207 657.5 Q205 650 205 631 L205 138 L203 124 L209 137 L519 622 L519 640 Q519 657 512.5 666.5 Q506 676 485 676 L455 676 Q444 676 442 680 Q440 684 440 686 Q440 692 446 693 Q452 694 457 694 L474 694 Q497 694 519.5 693.5 Q542 693 565 693 L607 693 Q620 693 628.5 693.5 Q637 694 643 694 Q650 694 657 694.5 Q664 695 675 695 Q682 695 689 694 Q696 693 696 686 Q696 680 690 678.5 Q684 677 680 677 L652 676 Q644 676 635 674.5 Q626 673 622 667 Q620 663 619 653.5 Q618 644 618 616 L618 73 Q618 51 619 41.5 Q620 32 623 28 Q626 23 634.5 21 Q643 19 652.5 18 Q662 17 670 17 Q678 17 681 17 Q685 17 691 16 Q697 15 697 9 Q697 7 694 3.5 Q691 0 678 0 L540 1 L511 1 Q497 1 484 0 Q471 -1 457 -1 Q450 -1 444.5 0 Q439 1 439 7 Q439 14 452.5 15 Q466 16 486 18 Q493 19 501.5 19.5 Q510 20 514 25 Q516 27 517.5 33 Q519 39 519 56 L519 556 Z " />
<glyph glyph-name="uni0419" unicode="&#x419;" horiz-adv-x="725" d="M519 556 L522 580 L510 558 L205 82 L205 53 Q205 46 206.5 39 Q208 32 212 28 Q217 23 229 21.5 Q241 20 259 18 Q270 17 277.5 16.5 Q285 16 285 9 Q285 2 277.5 1 Q270 0 255 0 Q238 0 227.5 0.5 Q217 1 208 1 Q200 1 192.5 1.5 Q185 2 174 2 Q163 2 152.5 1.5 Q142 1 131 1 Q110 0 89 0 Q69 0 48 0 Q28 0 28 8 Q28 12 32.5 15 Q37 18 52 18 Q81 18 91 22.5 Q101 27 103 30 Q105 34 105.5 42 Q106 50 106 65 L106 634 Q106 643 105.5 653.5 Q105 664 100 669 Q96 674 88 674.5 Q80 675 69 676 Q43 678 35.5 678.5 Q28 679 28 687 Q28 690 30 692.5 Q32 695 41 695 Q45 695 49.5 694.5 Q54 694 65 693.5 Q76 693 96.5 692.5 Q117 692 154 692 L176 692 Q194 692 211.5 691.5 Q229 691 247 693 Q252 693 256 693.5 Q260 694 265 694 Q270 694 276.5 692.5 Q283 691 283 685 Q283 677 275.5 676 Q268 675 259 675 L236 675 Q217 675 211 667 Q209 665 207 657.5 Q205 650 205 631 L205 138 L203 124 L209 137 L519 622 L519 640 Q519 657 512.5 666.5 Q506 676 485 676 L455 676 Q444 676 442 680 Q440 684 440 686 Q440 692 446 693 Q452 694 457 694 L474 694 Q497 694 519.5 693.5 Q542 693 565 693 L607 693 Q620 693 628.5 693.5 Q637 694 643 694 Q650 694 657 694.5 Q664 695 675 695 Q682 695 689 694 Q696 693 696 686 Q696 680 690 678.5 Q684 677 680 677 L652 676 Q644 676 635 674.5 Q626 673 622 667 Q620 663 619 653.5 Q618 644 618 616 L618 73 Q618 51 619 41.5 Q620 32 623 28 Q626 23 634.5 21 Q643 19 652.5 18 Q662 17 670 17 Q678 17 681 17 Q685 17 691 16 Q697 15 697 9 Q697 7 694 3.5 Q691 0 678 0 L540 1 L511 1 Q497 1 484 0 Q471 -1 457 -1 Q450 -1 444.5 0 Q439 1 439 7 Q439 14 452.5 15 Q466 16 486 18 Q493 19 501.5 19.5 Q510 20 514 25 Q516 27 517.5 33 Q519 39 519 56 L519 556 Z M365 733 Q337 733 310 738.5 Q283 744 262 759 Q244 772 236 788 Q228 804 228 820 Q228 845 244.5 861 Q261 877 285 877 Q308 877 319.5 863 Q331 849 331 832 Q330 818 322 811 Q314 804 304 802 Q294 800 286.5 797.5 Q279 795 279 786 Q279 778 287.5 770 Q296 762 307 757 Q318 753 335.5 751 Q353 749 365 749 Q377 749 394.5 751 Q412 753 423 757 Q434 762 442.5 770 Q451 778 451 786 Q451 795 443.5 797.5 Q436 800 426 802 Q416 804 408 811 Q400 818 399 832 Q399 849 410.5 863 Q422 877 445 877 Q469 877 485.5 861 Q502 845 502 820 Q502 804 494 788 Q486 772 468 759 Q447 744 420 738.5 Q393 733 365 733 Z " />
<glyph glyph-name="uni041A" unicode="&#x41a;" horiz-adv-x="612" d="M206 37 Q206 29 219 21.5 Q232 14 275 15 Q277 15 282.5 14 Q288 13 288 7 Q288 4 283.5 1 Q279 -2 266 -2 Q256 -2 248 -1.5 Q240 -1 227.5 0 Q215 1 196 1.5 Q177 2 146 2 Q118 2 103.5 1.5 Q89 1 80 0 Q71 -1 64 -1.5 Q57 -2 45 -2 Q33 -2 30 2 Q27 6 27 8 Q27 13 31 14.5 Q35 16 40 16 Q67 17 79 18 Q91 19 96 22 Q99 24 103 29.5 Q107 35 107 46 L107 649 Q107 655 105.5 660 Q104 665 99 669 Q93 674 73.5 675.5 Q54 677 42 677 Q38 677 33 678 Q28 679 28 685 Q28 692 32.5 693 Q37 694 41 694 Q68 694 85.5 693.5 Q103 693 115 693 Q127 693 136 692.5 Q145 692 157 692 Q163 692 178.5 692.5 Q194 693 211 693 Q229 693 246 693.5 Q263 694 273 694 Q281 694 284 691 Q287 688 287 685 Q287 680 281.5 678.5 Q276 677 274 677 Q260 676 251 675.5 Q242 675 236 674.5 Q230 674 227 673.5 Q224 673 221 672 Q211 668 208.5 661 Q206 654 206 649 L206 380 L263 380 Q271 380 288.5 384 Q306 388 329 406 Q358 429 370 458.5 Q382 488 391 516 Q401 547 405.5 562 Q410 577 412 585 Q414 593 416 599 Q418 605 422 620 Q425 632 430 646 Q435 660 444 672 Q453 684 468.5 694 Q484 704 509 704 Q550 704 571.5 680 Q593 656 593 627 Q593 603 578.5 587 Q564 571 542 571 Q527 571 511 580.5 Q495 590 495 613 Q495 631 505.5 637 Q516 643 526 645 Q531 646 535 647.5 Q539 649 539 656 Q539 664 531.5 670.5 Q524 677 509 677 Q494 677 484 671 Q474 665 467 656.5 Q460 648 456.5 638 Q453 628 450 619 Q441 588 435 566.5 Q429 545 425 531 Q421 517 418 508 Q415 499 413 492 Q405 468 394.5 448 Q384 428 365 407 Q354 394 340.5 384.5 Q327 375 305 370 L305 369 Q337 361 359 350.5 Q381 340 401 325 Q420 311 435.5 293.5 Q451 276 465 252 Q477 231 488 202 Q499 173 508.5 144.5 Q518 116 526 90.5 Q534 65 540 50 Q549 29 558 23 Q563 19 574.5 17 Q586 15 609 16 Q611 16 619 15 Q627 14 627 8 Q627 6 624.5 2 Q622 -2 611 -2 Q585 -2 566.5 -1.5 Q548 -1 534 -1 Q521 -1 511 -0.5 Q501 0 491 0 Q477 0 465.5 -0.5 Q454 -1 444 -2 Q442 14 439 30 Q436 46 433 65 Q421 133 411 173 Q401 213 394 233 Q388 253 377 277.5 Q366 302 346 322 Q324 343 300.5 349.5 Q277 356 262 356 L206 356 L206 37 Z " />
<glyph glyph-name="uni041B" unicode="&#x41b;" horiz-adv-x="620" d="M364 667 Q360 647 355.5 621.5 Q351 596 345.5 568 Q340 540 334 511 Q328 482 322 455 Q297 345 275 281.5 Q253 218 239 188 Q231 170 219.5 147.5 Q208 125 194.5 102.5 Q181 80 165.5 59.5 Q150 39 134 26 Q110 6 84.5 -2.5 Q59 -11 36 -11 Q21 -11 9.5 -7 Q-2 -3 -10 3 Q-18 9 -28 22.5 Q-38 36 -38 61 Q-38 92 -19 114 Q0 135 29 135 Q44 135 54.5 129 Q65 123 71.5 115 Q78 107 81 97.5 Q84 88 84 81 Q84 73 81 65 Q78 57 74 52 Q68 44 62 40.5 Q56 37 56 32 Q56 30 57.5 26.5 Q59 23 67 23 Q84 23 102.5 36.5 Q121 50 134 64 Q162 94 194.5 155.5 Q227 217 261 328 Q271 360 280.5 397 Q290 434 299 472 Q308 510 315 547 Q322 584 326 616 Q328 626 328 632 Q328 639 328 646 Q328 666 318.5 670.5 Q309 675 293 675 Q285 675 279 674.5 Q273 674 266 674 Q257 673 248 673 Q239 673 228 673 Q222 673 216 674.5 Q210 676 210 684 Q210 694 215.5 695 Q221 696 228 696 Q244 696 251 696 Q259 696 266 696 Q274 696 285.5 695 Q297 694 321 693 Q342 692 350 692 Q359 692 369 692 L434 692 Q436 692 440 692 Q444 692 450 693 Q464 695 468.5 696.5 Q473 698 481 698 Q502 698 502 679 Q502 674 501 667.5 Q500 661 500 652 L500 632 L500 54 Q500 45 501 36.5 Q502 28 512 23 Q517 21 531 18.5 Q545 16 580 17 Q588 17 590 14 Q592 11 592 9 Q592 6 589 2.5 Q586 -1 574 -1 Q554 -1 537 -0.5 Q520 0 502 0 Q484 0 462 0.5 Q440 1 411 1 Q398 1 386 1 Q374 1 362 0 Q354 0 346.5 -0.5 Q339 -1 331 -1 Q328 -1 322.5 0 Q317 1 317 7 Q317 12 321 13 Q325 14 328 15 Q333 16 339 16.5 Q345 17 350 17 Q358 17 364 17 Q371 17 379 19 Q391 21 396 27.5 Q401 34 401 55 L401 667 L364 667 Z " />
<glyph glyph-name="uni041C" unicode="&#x41c;" horiz-adv-x="755" d="M116 694 Q137 694 153.5 693.5 Q170 693 199 695 L239 592 L387 188 L548 695 L698 696 Q726 696 733.5 693.5 Q741 691 741 685 Q741 676 735 675 Q729 674 719 674 Q712 674 698.5 673.5 Q685 673 670.5 668 Q656 663 652.5 653 Q649 643 648.5 626.5 Q648 610 648 599 L648 74 Q648 63 648 51.5 Q648 40 659 30 Q670 20 688.5 19 Q707 18 719.5 18 Q732 18 739.5 17 Q747 16 747 8 Q747 1 740.5 -0.5 Q734 -2 726 -2 Q686 -2 664 -1 Q642 0 607 0 L537 0 L476 -1 Q468 -1 461.5 0.5 Q455 2 455 9 Q455 16 461.5 17 Q468 18 473 18 L484 18 Q491 18 505.5 18.5 Q520 19 529.5 21 Q539 23 544.5 27.5 Q550 32 550.5 39.5 Q551 47 551 74 L551 614 L367 23 Q365 9 357 9 Q351 9 347.5 18 Q344 27 342 33 L138 594 L139 568 L139 61 Q139 55 139.5 45.5 Q140 36 142 32 Q147 21 163.5 20 Q180 19 193 19 Q203 19 213 18.5 Q223 18 223 10 Q223 3 215.5 1.5 Q208 0 202 0 Q184 0 172.5 1 Q161 2 129 2 L38 -1 Q20 1 20 8 Q20 16 30 17 Q40 18 51 18.5 Q62 19 77 19 Q96 19 102.5 24.5 Q109 30 109 59 L109 626 Q109 641 107 648.5 Q105 656 100.5 660 Q96 664 84 668 Q72 672 34 675 Q29 675 23.5 676.5 Q18 678 18 684 Q17 695 26 695 Q35 695 48 694.5 Q61 694 69 694 L116 694 Z " />
<glyph glyph-name="uni041D" unicode="&#x41d;" horiz-adv-x="712" d="M205 365 L205 82 Q205 64 205 49 Q205 35 212 28 Q217 23 229.5 21 Q242 19 259 18 Q270 17 277.5 16.5 Q285 16 285 9 Q285 2 277.5 1 Q270 0 255 0 Q238 0 227.5 0.5 Q217 1 208 1 Q200 1 192.5 1.5 Q185 2 174 2 Q163 2 152.5 1.5 Q142 1 131 1 Q110 0 89 0 Q69 0 48 0 Q28 0 28 8 Q28 12 32.5 15 Q37 18 52 18 Q58 18 63 18 Q69 18 75 19 Q83 20 91.5 22.5 Q100 25 103 30 Q105 34 105.5 42 Q106 50 106 65 L106 634 Q106 643 105.5 653.5 Q105 664 100 669 Q96 674 87.5 675 Q79 676 69 676 Q64 676 59.5 676.5 Q55 677 50 677 Q36 678 32 679 Q28 680 28 687 Q28 690 30.5 692.5 Q33 695 43 695 Q50 695 55 694.5 Q60 694 74 693.5 Q88 693 116.5 692.5 Q145 692 200 692 Q224 692 230 692.5 Q236 693 237 693 Q238 693 241.5 693.5 Q245 694 265 694 Q272 694 275 693 Q277 692 280 690.5 Q283 689 283 684 Q283 681 281 679 Q279 676 271 675.5 Q263 675 259 675 L236 675 Q226 675 221 673 Q214 671 211 667 Q209 665 207 657.5 Q205 650 205 631 L205 390 L506 390 L506 605 Q506 625 506 636 Q506 647 504 655 Q501 669 493.5 672.5 Q486 676 472 676 L442 676 Q431 676 429 680 Q427 684 427 686 Q427 689 430 691 Q434 694 444 694 Q456 694 468 693.5 Q480 693 492 693 L498 693 L571 693 Q586 693 601 693 Q616 693 631 694 Q639 694 646 694.5 Q653 695 661 695 Q669 695 676 694 Q683 693 683 686 Q683 680 677 678.5 Q671 677 667 677 L639 676 Q632 676 622.5 674.5 Q613 673 609 667 Q607 665 606.5 661.5 Q606 658 606 650 Q605 642 605 633 Q605 624 605 616 L605 73 Q605 51 606 41.5 Q607 32 610 28 Q615 22 627.5 19.5 Q640 17 648 17 L668 17 Q673 17 678.5 16 Q684 15 684 9 Q684 1 674.5 0.5 Q665 0 657 0 Q640 0 622 0.5 Q604 1 587 1 Q552 1 518 0 Q484 -1 450 -1 Q437 -1 433 0 Q429 1 428 2 Q426 4 426 7 Q426 14 439.5 15 Q453 16 473 18 Q480 19 488.5 19.5 Q497 20 501 25 Q503 27 504.5 33 Q506 39 506 56 L506 365 L205 365 Z " />
<glyph glyph-name="uni041E" unicode="&#x41e;" horiz-adv-x="720" d="M365 705 Q299 705 241.5 681 Q184 657 142 615 Q109 581 89 542 Q43 457 43 350 Q43 292 58 238 Q70 196 91 157.5 Q112 119 139 90 Q169 54 217 28 Q247 11 285 -0.5 Q323 -12 369 -12 Q408 -12 443 -2.5 Q478 7 512 27 Q552 50 580 81 Q619 123 648.5 189 Q678 255 678 343 Q678 388 671.5 419.5 Q665 451 661 465 Q649 507 627.5 545 Q606 583 577 613 Q535 655 482 680 Q429 705 365 705 Z M360 687 Q413 687 441.5 669.5 Q470 652 491 623 Q537 559 551.5 486 Q566 413 566 338 Q566 278 556 212.5 Q546 147 513 90 Q492 54 460 30 Q428 6 374 6 Q333 6 302.5 18.5 Q272 31 250.5 50 Q229 69 215 91 Q201 113 192 132 Q180 160 167.5 210.5 Q155 261 155 345 Q155 420 166 473.5 Q177 527 191 562 Q205 597 218 615 Q231 633 236 638 Q264 667 296.5 677 Q329 687 360 687 Z " />
<glyph glyph-name="uni041F" unicode="&#x41f;" horiz-adv-x="707" d="M552 692 Q589 692 609.5 692.5 Q630 693 641 693.5 Q652 694 656 694.5 Q660 695 665 695 Q675 695 676.5 692 Q678 689 678 686 Q678 678 671.5 677 Q665 676 637 675 Q627 675 618.5 674 Q610 673 606 668 Q601 663 600.5 652.5 Q600 642 600 633 L600 73 Q600 51 601 41.5 Q602 32 605 28 Q608 23 616.5 21 Q625 19 634.5 18 Q644 17 652 17 Q660 17 663 17 Q667 17 673 16 Q679 15 679 9 Q679 7 676 3.5 Q673 0 660 0 L522 1 L493 1 Q479 1 466 0 Q453 -1 439 -1 Q432 -1 426.5 0 Q421 1 421 7 Q421 14 434.5 15 Q448 16 468 18 Q475 19 483.5 19.5 Q492 20 496 25 Q498 27 499.5 33 Q501 39 501 56 L501 667 L206 667 L206 56 Q206 39 207.5 33 Q209 27 211 25 Q215 20 223.5 19.5 Q232 19 239 18 Q259 16 272.5 15 Q286 14 286 7 Q286 1 280.5 0 Q275 -1 268 -1 Q254 -1 241 0 Q228 1 214 1 L185 1 L47 0 Q34 0 31 3.5 Q28 7 28 9 Q28 15 34 16 Q40 17 44 17 Q47 17 55 17 Q63 17 72.5 18 Q82 19 90.5 21 Q99 23 102 28 Q105 32 106 41.5 Q107 51 107 73 L107 633 Q107 642 106.5 652.5 Q106 663 101 668 Q97 673 88.5 674 Q80 675 70 675 Q56 675 47.5 675.5 Q39 676 35 677 Q31 678 30 680 Q29 682 29 686 Q29 689 30.5 692 Q32 695 42 695 Q46 695 50.5 694.5 Q55 694 66 693.5 Q77 693 97.5 692.5 Q118 692 155 692 L552 692 Z " />
<glyph glyph-name="uni0420" unicode="&#x420;" horiz-adv-x="504" d="M206 368 Q240 362 276 369.5 Q312 377 333.5 391.5 Q355 406 368.5 428 Q382 450 387.5 472 Q393 494 393 526 Q393 548 388.5 579.5 Q384 611 364 636 Q345 661 318 668.5 Q291 676 265 676 Q237 676 227.5 671.5 Q218 667 214 663.5 Q210 660 208 655 Q206 650 206 631 L206 368 Z M206 66 Q206 37 211 29.5 Q216 22 230 20 Q240 18 253.5 17 Q267 16 281 16 Q297 15 297 9 Q298 -1 282 -1 Q263 -2 224 -0.5 Q185 1 159 1 L53 -1 Q41 -1 32 0.5 Q23 2 23 9 Q23 16 38 16 Q58 16 68 17 Q78 18 87.5 20.5 Q97 23 102 29 Q107 35 107 46 L107 635 Q107 649 104 658 Q101 667 92.5 671 Q84 675 75 676 Q66 677 58.5 677 Q51 677 38 676 Q33 676 28 677.5 Q23 679 23 685 Q23 693 32.5 694 Q42 695 51 695 L271 695 Q310 695 338.5 690.5 Q367 686 386.5 680 Q406 674 418.5 667 Q431 660 438 655 Q466 634 482 601 Q498 568 498 530 Q498 498 488 469 Q478 442 459.5 418 Q441 394 415 377 Q387 359 355 351 Q323 343 283 343 Q272 343 252 344 Q232 345 206 350 L206 66 Z " />
<glyph glyph-name="uni0421" unicode="&#x421;" horiz-adv-x="654" d="M44 349 Q44 408 56.5 456 Q69 504 89 542 Q98 559 108.5 574.5 Q119 590 132 604 Q168 646 208.5 667.5 Q249 689 288 697 Q326 705 361 705 Q391 705 413.5 702 Q436 699 453.5 693 Q471 687 486 679 Q501 671 515 663.5 Q529 656 536 652.5 Q543 649 551 649 Q563 650 568 665 Q577 686 581 689.5 Q585 693 589 693 Q597 693 597 686 Q597 684 596.5 681 Q596 678 595 672 Q594 665 592 654 Q590 643 588.5 624.5 Q587 606 585.5 577.5 Q584 549 584 507 Q584 494 584 484 Q584 475 582.5 471 Q581 467 573 467 Q566 467 564 471 Q562 475 560 486 Q558 499 554.5 514.5 Q551 530 546.5 546.5 Q542 563 536 578 Q530 593 523 605 Q515 618 502.5 632 Q490 646 471.5 658 Q453 670 427.5 677.5 Q402 685 369 685 Q329 685 298 672.5 Q267 660 241 631 Q230 618 218.5 601 Q207 584 198 565 Q172 513 164 455.5 Q156 398 156 347 Q156 300 160.5 264 Q165 228 172.5 200 Q180 172 189 152 Q198 132 207 117 Q212 109 216.5 102 Q221 95 226 88 Q255 51 298 29.5 Q341 8 388 8 Q425 8 458 21 Q491 34 515 57 Q526 67 534 78.5 Q542 90 549 103 Q568 138 576 170.5 Q584 203 586 214 Q588 224 590.5 231 Q593 238 599 238 Q611 238 609 223 Q608 206 607 196 Q605 156 604.5 139 Q604 122 603 85 Q603 64 604 47.5 Q605 31 607 12 Q609 -7 599 -7 Q592 -7 585 8 Q577 26 572 36 Q567 46 557 51 Q533 30 509 17.5 Q485 5 462.5 -1.5 Q440 -8 420 -10 Q400 -12 384 -12 Q336 -12 296.5 -1.5 Q257 9 226.5 25 Q196 41 174 59.5 Q152 78 138 93 Q100 135 72 198.5 Q44 262 44 349 Z " />
<glyph glyph-name="uni0422" unicode="&#x422;" horiz-adv-x="585" d="M339 68 Q339 51 341 44 Q343 37 345 33 Q353 21 371 19.5 Q389 18 409 17 Q416 17 419 16 Q424 15 425 12.5 Q426 10 426 8 Q426 2 420.5 0.5 Q415 -1 410 -1 Q405 -1 403 -1 Q401 -1 392 0 Q387 0 376 0.5 Q365 1 352 1.5 Q339 2 326 2 Q313 2 304 2 Q290 2 275 2 Q261 2 247 1 Q233 1 219 0.5 Q205 0 191 0 L173 0 Q166 0 159 1 Q152 2 152 8 Q152 11 153 12 Q156 17 168 17.5 Q180 18 195 18 Q207 18 217.5 19.5 Q228 21 234 30 Q238 35 239 45 Q240 55 240 72 L240 671 Q183 671 157.5 668.5 Q132 666 117 661 Q94 653 80.5 639.5 Q67 626 59 607 Q51 590 48 573 Q45 556 43 539 Q41 528 39 518 Q37 508 29 508 Q25 508 21 512 Q17 516 17 529 Q17 539 18 550 Q19 561 20 574 Q22 593 23 622 Q24 651 29 695 L87 695 Q135 695 182.5 693.5 Q230 692 278 692 L344 692 Q370 692 402.5 692.5 Q435 693 465.5 693.5 Q496 694 520.5 695 Q545 696 556 696 Q557 688 558 674.5 Q559 661 560 646 Q561 631 562 617 Q563 603 564 595 Q565 572 566.5 558.5 Q568 545 568.5 536.5 Q569 528 569.5 523.5 Q570 519 570 516 Q570 509 566.5 506.5 Q563 504 559 504 Q550 504 547.5 512 Q545 520 543 528 Q541 536 540.5 547 Q540 558 538 566 Q532 600 515 627 Q507 639 493 651.5 Q479 664 446 669 Q435 671 420.5 671.5 Q406 672 391 672 Q376 672 362 671.5 Q348 671 339 671 L339 68 Z " />
<glyph glyph-name="uni0423" unicode="&#x423;" horiz-adv-x="634" d="M96 611 Q83 641 69.5 658.5 Q56 676 36 677 L7 678 Q2 678 -2.5 677.5 Q-7 677 -12 677 Q-15 677 -20 678 Q-25 679 -25 686 Q-25 694 -16 695.5 Q-7 697 -2 697 Q19 697 42 695.5 Q65 694 102 694 L160 694 Q174 694 187 694.5 Q200 695 214 696 Q228 697 243 697 Q258 697 273 697 Q278 697 287.5 696 Q297 695 297 685 Q297 677 289.5 676.5 Q282 676 277 676 L203 674 Q190 674 186 666.5 Q182 659 182 654 Q182 646 185 640 L393 153 Q406 192 416.5 223.5 Q427 255 435.5 284 Q444 313 451.5 340 Q459 367 467 397 Q477 437 486 472 Q495 507 505 551 Q509 568 511.5 583 Q514 598 514 616 Q514 631 510.5 640 Q507 649 495 659 Q478 674 453 675 L428 676 Q426 676 420 677 Q414 678 414 685 Q414 688 417 692.5 Q420 697 432 697 Q460 697 486.5 696 Q513 695 539 695 Q564 695 588 696 Q612 697 641 697 Q645 697 649.5 695.5 Q654 694 654 686 Q654 678 647.5 677 Q641 676 633 676 Q618 676 602 673 Q586 670 572 656 Q560 643 553.5 624.5 Q547 606 540 581 Q534 557 528 533.5 Q522 510 515.5 483.5 Q509 457 501 426.5 Q493 396 483 358 Q473 321 459 276.5 Q445 232 429.5 186 Q414 140 397 95.5 Q380 51 363 15 Q350 -13 333 -40.5 Q316 -68 293 -88 Q274 -105 249 -115.5 Q224 -126 199 -126 Q178 -126 155 -118 Q132 -110 115 -93 Q104 -82 95.5 -64.5 Q87 -47 87 -24 Q87 15 108.5 34.5 Q130 54 158 54 Q187 54 205.5 36 Q224 18 224 -8 Q224 -31 211 -43 Q198 -55 184 -55 Q181 -55 178.5 -54.5 Q176 -54 173 -53 Q167 -51 163 -51 Q158 -51 153.5 -54.5 Q149 -58 149 -66 Q149 -79 162.5 -89.5 Q176 -100 200 -100 Q217 -100 232.5 -94.5 Q248 -89 262 -79 Q278 -68 290 -55.5 Q302 -43 312 -29 Q321 -16 330 2 Q339 20 346 38 L96 611 Z " />
<glyph glyph-name="uni0424" unicode="&#x424;" horiz-adv-x="757" d="M425 137 Q455 137 486.5 145.5 Q518 154 539 168 Q569 188 592 234 Q615 280 615 358 Q615 404 607.5 439.5 Q600 475 587 500.5 Q574 526 558 543 Q542 560 526 570 Q505 582 477.5 588 Q450 594 425 593 L425 137 L425 137 Z M333 593 Q308 594 280.5 588 Q253 582 232 570 Q215 560 199.5 543 Q184 526 171 500.5 Q158 475 150.5 439.5 Q143 404 143 358 Q143 280 166 234 Q189 188 219 168 Q240 154 271.5 145.5 Q303 137 333 137 L333 593 Z M333 118 Q287 118 234.5 129.5 Q182 141 138 172 Q119 185 101.5 203.5 Q84 222 71 246 Q58 270 50.5 300 Q43 330 43 368 Q43 443 76.5 498 Q110 553 177 582 Q215 599 256.5 605 Q298 611 333 612 L333 650 Q333 667 331 676 Q329 685 322 687.5 Q315 690 308.5 691 Q302 692 295 692.5 Q288 693 282.5 693.5 Q277 694 274 694 L265 694 Q254 694 254 702 Q254 709 259 710 Q264 711 269 711 Q295 711 319 710 Q343 709 368 709 Q398 709 416 709.5 Q434 710 446 710.5 Q458 711 489 711 Q496 711 501 710 Q506 709 506 702 Q506 694 495 693.5 Q484 693 462 692 Q455 692 446.5 691 Q438 690 433 685 Q428 680 426.5 668.5 Q425 657 425 650 L425 612 Q460 611 501.5 605 Q543 599 581 582 Q648 553 681.5 498 Q715 443 715 368 Q715 330 707.5 300 Q700 270 687 246 Q674 222 656.5 203.5 Q639 185 620 172 Q576 141 523.5 129.5 Q471 118 425 118 L425 48 Q425 43 425.5 38.5 Q426 34 429 30 Q434 24 449 21 Q464 18 488 16 Q497 16 501.5 14.5 Q506 13 506 8 Q506 3 501.5 1.5 Q497 0 488 0 Q474 0 464 0.5 Q454 1 441 1.5 Q428 2 408 2.5 Q388 3 352 3 Q320 3 302 1.5 Q284 0 268 0 Q262 0 257 1.5 Q252 3 252 9 Q252 13 256.5 15.5 Q261 18 278 18 Q291 18 307.5 19 Q324 20 329 34 Q331 40 332 57 Q333 74 333 85 L333 118 L333 118 Z " />
<glyph glyph-name="uni0425" unicode="&#x425;" horiz-adv-x="625" d="M371 18 Q376 18 388.5 18.5 Q401 19 407 22 Q415 27 415 35 Q415 47 410 59 Q405 71 400 82 L283 319 L141 79 Q131 62 127.5 55 Q124 48 124 40 Q124 30 130 26 Q134 24 144 21.5 Q154 19 186 19 L204 19 Q220 21 220 9 Q221 0 205 0 Q173 -2 142 -0.5 Q111 1 79 1 Q64 1 20 0 Q8 -1 -0.5 0 Q-9 1 -9 9 Q-9 17 -1 18.5 Q7 20 14 20 Q39 21 53 25 Q67 29 78 38 Q86 44 93.5 55 Q101 66 104 71 L269 349 L118 632 Q113 642 102.5 655.5 Q92 669 81 673 Q74 675 56.5 676 Q39 677 28 677 L15 677 Q3 678 3 685 Q3 693 10 694.5 Q17 696 22 696 Q55 696 82.5 694.5 Q110 693 145 693 Q280 695 288 695 L302 695 Q321 695 321 687 Q321 678 308 677 Q295 676 285 676 L266 676 Q242 676 233 673.5 Q224 671 222 669 Q220 667 219 665 Q218 663 218 660 Q218 657 219.5 651.5 Q221 646 222 644 L332 426 L458 630 Q461 635 466 645 Q471 655 471 661 Q471 669 462 672 Q458 674 450 675 Q442 676 420 676 L407 676 Q389 675 389 685 Q389 692 395.5 693.5 Q402 695 411 695 Q418 695 433 694 Q448 693 477 693 Q489 693 505 693.5 Q521 694 536 694.5 Q551 695 564 695.5 Q577 696 584 696 Q606 697 605 687 Q605 679 595 678 Q585 677 574 677 L560 677 Q552 677 538.5 675 Q525 673 517 667 Q509 661 500 647 Q491 633 471 601 L346 399 L510 80 Q517 67 529.5 49.5 Q542 32 559 24 Q572 19 588 18.5 Q604 18 619 18 Q644 21 644 8 Q644 -3 621 0 L602 0 Q533 2 480 2 Q416 1 388.5 0 Q361 -1 332 -1 Q327 -1 315 0 Q303 1 303 10 Q303 21 326 19 L371 18 Z " />
<glyph glyph-name="uni0426" unicode="&#x426;" horiz-adv-x="690" d="M498 631 Q498 650 496 657.5 Q494 665 492 667 Q486 675 467 675 L444 675 Q436 675 428 676 Q420 677 420 684 Q420 691 426 692.5 Q432 694 439 694 Q448 694 452 693.5 Q456 693 461 693 Q466 693 475 692.5 Q484 692 502 692 Q511 692 529 692 Q547 692 567 692.5 Q587 693 604 693 Q622 693 630 693 Q646 694 650.5 694.5 Q655 695 662 695 Q670 695 672.5 692.5 Q675 690 675 686 Q675 681 668.5 679 Q662 677 634 676 Q626 676 617 675 Q608 674 603 669 Q598 664 597.5 653.5 Q597 643 597 634 L597 46 Q597 36 599.5 30 Q602 24 608.5 22.5 Q615 21 627.5 19 Q640 17 659 8 Q673 0 681.5 -12.5 Q690 -25 690 -46 Q690 -69 679.5 -91.5 Q669 -114 652 -131 Q626 -156 589.5 -169.5 Q553 -183 521 -183 Q509 -183 494 -180.5 Q479 -178 467 -173 L358 -127 Q347 -122 331 -115.5 Q315 -109 297 -109 Q268 -109 250.5 -126 Q233 -143 233 -161 Q233 -166 235 -171 Q237 -176 241 -177 Q245 -177 249 -170.5 Q253 -164 257.5 -161 Q262 -158 273 -158 Q283 -158 288.5 -165.5 Q294 -173 294 -181 Q294 -189 287 -199 Q280 -209 265 -209 Q246 -209 229.5 -196.5 Q213 -184 213 -161 Q213 -144 225.5 -124.5 Q238 -105 268 -89 Q285 -81 305 -75 Q325 -69 350 -69 Q388 -69 415 -79 L506 -111 Q547 -125 563 -127.5 Q579 -130 589 -130 Q608 -130 623.5 -122 Q639 -114 650 -101 Q658 -91 664 -75.5 Q670 -60 670 -46 Q670 -29 662.5 -20 Q655 -11 648 -7 Q637 -2 620 -1 Q603 0 571 0 L133 0 Q116 0 98.5 0.5 Q81 1 64 0 Q59 0 54 -0.5 Q49 -1 44 -1 Q38 -1 32 0.5 Q26 2 26 9 Q26 16 34 17 Q42 18 50 18 L73 18 Q79 18 86 19.5 Q93 21 98 26 Q105 33 105.5 42 Q106 51 106 62 L106 634 Q106 643 105.5 653.5 Q105 664 100 669 Q95 674 86 675 Q77 676 69 676 Q55 676 46.5 676.5 Q38 677 34 678.5 Q30 680 29 682 Q28 684 28 687 Q28 689 30 692 Q32 695 42 695 Q48 695 54 694.5 Q60 694 72 693 Q81 693 99 693 Q118 693 138.5 692.5 Q159 692 177 692 Q195 692 201 692 Q212 692 223 692 Q235 692 246 693 Q251 693 255.5 693.5 Q260 694 265 694 Q271 694 277 692.5 Q283 691 283 684 Q283 677 275 676 Q267 675 259 675 L236 675 Q217 675 211 667 Q209 665 207 657.5 Q205 650 205 631 L205 24 L498 24 L498 631 Z " />
<glyph glyph-name="uni0427" unicode="&#x427;" horiz-adv-x="626" d="M420 345 Q371 331 333 327.5 Q295 324 278 324 Q221 324 182 338.5 Q143 353 121 376 Q101 396 90 425.5 Q79 455 79 484 L79 634 Q79 643 78.5 653.5 Q78 664 73 669 Q68 674 59 675 Q50 676 42 676 Q28 676 19.5 676.5 Q11 677 7 678.5 Q3 680 2 682 Q1 684 1 687 Q1 689 3 692 Q5 695 15 695 Q21 695 27 694.5 Q33 694 45 693 Q54 693 72 693 Q91 693 111.5 692.5 Q132 692 150 692 Q168 692 174 692 Q185 692 196 692 Q208 692 219 693 Q224 693 228.5 693.5 Q233 694 238 694 Q244 694 250 692.5 Q256 691 256 684 Q256 677 248 676 Q240 675 232 675 L209 675 Q190 675 184 667 Q182 665 180 657.5 Q178 650 178 631 L178 464 Q178 441 183 418.5 Q188 396 210 377 Q231 358 257.5 353.5 Q284 349 309 349 Q341 349 367 353 Q393 357 420 367 L420 631 Q420 650 418 657.5 Q416 665 414 667 Q408 675 389 675 L366 675 Q358 675 350 676 Q342 677 342 684 Q342 691 348 692.5 Q354 694 360 694 Q365 694 369.5 693.5 Q374 693 379 693 Q390 692 401 692 Q413 692 424 692 Q430 692 448 692 Q466 692 486.5 692.5 Q507 693 525 693 Q544 693 553 693 Q565 694 571 694.5 Q577 695 583 695 Q593 695 595 692 Q597 689 597 687 Q597 680 590.5 678.5 Q584 677 556 676 Q548 676 539 675 Q530 674 525 669 Q520 664 519.5 653.5 Q519 643 519 634 L519 73 Q519 51 520 41.5 Q521 32 524 28 Q527 23 535.5 21 Q544 19 553.5 18 Q563 17 571 17 Q579 17 582 17 Q586 17 592 16 Q598 15 598 9 Q598 7 595 3.5 Q592 0 579 0 L441 1 L412 1 Q398 1 385 0 Q372 -1 358 -1 Q351 -1 345.5 0 Q340 1 340 7 Q340 14 353.5 15 Q367 16 387 18 Q394 19 402.5 19.5 Q411 20 415 25 Q417 27 418.5 33 Q420 39 420 56 L420 345 Z " />
<glyph glyph-name="uni0428" unicode="&#x428;" horiz-adv-x="972" d="M534 25 L768 25 L768 631 Q768 650 766 657.5 Q764 665 762 667 Q756 675 737 675 L714 675 Q706 675 698 676 Q690 677 690 684 Q690 692 697 693 Q704 694 710 694 Q722 694 726.5 693.5 Q731 693 736 693 Q741 693 751 692.5 Q761 692 782 692 Q793 692 808 692 Q824 692 840 692.5 Q856 693 870 693 Q885 693 894 693 Q906 694 913.5 694.5 Q921 695 928 695 Q938 695 940.5 692.5 Q943 690 943 687 Q943 679 936 678.5 Q929 678 902 676 Q891 675 883 674.5 Q875 674 871 669 Q866 664 865.5 653.5 Q865 643 865 634 L865 73 Q865 51 866 41.5 Q867 32 870 28 Q874 23 885.5 20 Q897 17 908 17 L928 17 Q933 17 938.5 16 Q944 15 944 9 Q944 1 936.5 0 Q929 -1 919 -1 Q886 -1 852 0 Q818 1 784 1 Q765 1 747 0.5 Q729 0 710 0 L261 0 Q243 0 224.5 0.5 Q206 1 188 1 Q154 1 120 0 Q86 -1 52 -1 Q42 -1 34.5 0 Q27 1 27 9 Q27 15 32.5 16 Q38 17 43 17 L63 17 Q74 17 85.5 20 Q97 23 101 28 Q104 32 105 41.5 Q106 51 106 73 L106 634 Q106 643 105.5 653.5 Q105 664 100 669 Q96 674 88 674.5 Q80 675 69 676 Q43 678 35.5 678.5 Q28 679 28 687 Q28 690 30.5 692.5 Q33 695 43 695 Q49 695 51 695 Q54 695 56.5 694.5 Q59 694 63 693.5 Q67 693 75 693 Q83 693 98 693 Q114 693 132 692.5 Q150 692 167 692 Q185 692 198 692 Q220 692 227.5 692.5 Q235 693 238 693 Q242 693 245.5 693.5 Q249 694 263 694 Q269 694 275 692.5 Q281 691 281 684 Q281 677 273 676 Q265 675 257 675 L234 675 Q215 675 209 667 Q207 665 205 657.5 Q203 650 203 631 L203 25 L437 25 L437 631 Q437 650 435 657.5 Q433 665 431 667 Q425 675 406 675 L383 675 Q375 675 367 676 Q359 677 359 684 Q359 691 365 692.5 Q371 694 377 694 Q383 694 388.5 693.5 Q394 693 400 693 Q412 692 424 692 Q436 692 448 692 Q455 692 471 692 Q488 692 506 692.5 Q524 693 541 693 Q558 693 566 693 Q580 694 586 694.5 Q592 695 598 695 Q608 695 610 692 Q612 689 612 687 Q612 679 605 678.5 Q598 678 571 676 Q560 675 552 674.5 Q544 674 540 669 Q535 664 534.5 653.5 Q534 643 534 634 L534 25 Z " />
<glyph glyph-name="uni0429" unicode="&#x429;" horiz-adv-x="960" d="M535 25 L769 25 L769 631 Q769 650 767 657.5 Q765 665 763 667 Q757 675 738 675 L715 675 Q707 675 699 676 Q691 677 691 684 Q691 692 698 693 Q705 694 711 694 Q723 694 727.5 693.5 Q732 693 737 693 Q742 693 752 692.5 Q762 692 783 692 Q794 692 809 692 Q825 692 841 692.5 Q857 693 871 693 Q886 693 895 693 Q907 694 914.5 694.5 Q922 695 929 695 Q939 695 941.5 692.5 Q944 690 944 687 Q944 679 937 678.5 Q930 678 903 676 Q892 675 884 674.5 Q876 674 872 669 Q867 664 866.5 653.5 Q866 643 866 634 L866 46 Q866 42 867 36 Q868 30 871 26 Q874 23 879.5 22 Q885 21 893 19 Q904 17 913.5 15 Q923 13 934 5 Q960 -12 960 -47 Q960 -70 948.5 -92.5 Q937 -115 921 -129 Q901 -147 862 -165.5 Q823 -184 771 -184 Q757 -184 739.5 -182 Q722 -180 708 -175 L559 -124 Q545 -119 531.5 -115.5 Q518 -112 504 -112 Q493 -112 482.5 -114.5 Q472 -117 463 -123 Q451 -131 447.5 -141 Q444 -151 444 -159 Q444 -165 446.5 -171 Q449 -177 452 -177 Q455 -177 457 -171.5 Q459 -166 463 -163 Q466 -160 472 -158.5 Q478 -157 483 -157 Q494 -157 501 -164 Q508 -171 508 -180 Q508 -191 497.5 -200.5 Q487 -210 470 -210 Q452 -210 437.5 -197 Q423 -184 423 -161 Q423 -148 428.5 -136.5 Q434 -125 442.5 -115 Q451 -105 461.5 -97.5 Q472 -90 481 -85 Q499 -76 522 -71 Q545 -66 568 -66 Q603 -66 639 -77 L754 -111 Q780 -119 802.5 -124 Q825 -129 845 -129 Q871 -129 887 -121.5 Q903 -114 913 -105 Q924 -94 932 -78.5 Q940 -63 940 -46 Q940 -18 916 -7 Q902 -1 882 -0.5 Q862 0 835 0 L262 0 Q244 0 225.5 0.5 Q207 1 189 1 Q155 1 121 0 Q87 -1 53 -1 Q49 -1 45 -1 Q42 -1 37 0 Q34 1 31 2.5 Q28 4 28 9 Q28 15 33.5 16 Q39 17 44 17 L64 17 Q68 17 77 17.5 Q86 18 95 23 Q98 24 102 28 Q105 32 106 41.5 Q107 51 107 73 L107 634 Q107 643 106.5 653.5 Q106 664 101 669 Q97 674 89 674.5 Q81 675 70 676 Q44 678 36.5 678.5 Q29 679 29 687 Q29 690 31.5 692.5 Q34 695 44 695 Q49 695 52.5 694.5 Q56 694 61 694 Q68 694 86.5 693.5 Q105 693 127 692.5 Q149 692 169 692 Q189 692 199 692 Q221 692 228.5 692.5 Q236 693 239 693 Q243 693 246.5 693.5 Q250 694 264 694 Q270 694 276 692.5 Q282 691 282 684 Q282 677 274 676 Q266 675 258 675 L235 675 Q225 675 220 673 Q213 671 210 667 Q208 665 206 657.5 Q204 650 204 631 L204 25 L438 25 L438 631 Q438 650 436 657.5 Q434 665 432 667 Q429 671 422 673 Q417 675 407 675 L384 675 Q376 675 368 676 Q360 677 360 684 Q360 686 362 690 Q364 692 367 693 Q370 694 378 694 Q384 694 389.5 693.5 Q395 693 401 693 Q413 692 425 692 Q437 692 449 692 Q456 692 472 692 Q489 692 507 692.5 Q525 693 542 693 Q559 693 567 693 Q581 694 587 694.5 Q593 695 599 695 Q609 695 611 692 Q613 689 613 687 Q613 683 612 681 Q610 678 604 678 Q598 677 590 677 Q583 677 572 676 Q568 676 565 675.5 Q562 675 558 675 Q553 674 548.5 673 Q544 672 541 669 Q536 664 535.5 653.5 Q535 643 535 634 L535 25 Z " />
<glyph glyph-name="uni042A" unicode="&#x42a;" horiz-adv-x="742" d="M366 44 Q366 39 367.5 35 Q369 31 374 28 Q379 25 389.5 23 Q400 21 417 21 Q437 21 459.5 23 Q482 25 503.5 32.5 Q525 40 545 54.5 Q565 69 580 94 Q598 123 602.5 153 Q607 183 607 206 Q607 223 605 242 Q603 261 597 279.5 Q591 298 579.5 316.5 Q568 335 549 350 Q512 380 466.5 384 Q421 388 366 383 L366 44 Z M267 671 Q226 672 198.5 671 Q171 670 152.5 668.5 Q134 667 123.5 665 Q113 663 107 661 Q84 653 70.5 639.5 Q57 626 49 607 Q41 590 38 573 Q35 556 33 539 Q31 528 29 518 Q27 508 19 508 Q11 508 9 515 Q7 522 7 529 Q7 539 8 550 Q9 561 10 574 Q12 593 13 622 Q14 651 19 695 L77 695 Q125 695 172.5 693.5 Q220 692 268 692 L343 692 Q359 692 366 692 Q374 692 377 692.5 Q380 693 382.5 693.5 Q385 694 393 694 Q401 695 413 695 Q425 695 433 695 Q436 695 441 693.5 Q446 692 446 686 Q446 682 441.5 679.5 Q437 677 420 677 Q411 677 397 676 Q383 675 377 671 Q368 665 367 650 Q366 635 366 625 L366 407 Q403 410 439 410 Q476 410 510.5 405.5 Q545 401 576.5 390 Q608 379 636 359 Q664 339 688 301.5 Q712 264 712 203 Q712 147 688.5 109 Q665 71 624 45 Q575 14 525.5 7.5 Q476 1 433 1 Q403 1 373.5 2 Q344 3 314 3 Q295 3 277 2.5 Q259 2 240 1 Q233 1 227 0.5 Q221 0 214 0 L200 0 Q198 0 192.5 1 Q187 2 187 9 Q187 13 191.5 15.5 Q196 18 213 18 Q222 18 236 19 Q250 20 256 24 Q265 30 266 45 Q267 60 267 70 L267 671 Z " />
<glyph glyph-name="uni042B" unicode="&#x42b;" horiz-adv-x="859" d="M207 44 Q207 39 208.5 35 Q210 31 215 28 Q220 25 230.5 23 Q241 21 258 21 Q276 21 298 23 Q320 25 342 32.5 Q364 40 384.5 54.5 Q405 69 421 94 Q439 122 443.5 153 Q448 184 448 209 Q448 245 437.5 282 Q427 319 389 350 Q351 380 306.5 384 Q262 388 207 383 L207 44 Z M207 407 Q292 412 358.5 404.5 Q425 397 477 359 Q490 349 503.5 335 Q517 321 528 302 Q539 283 546 258.5 Q553 234 553 203 Q553 147 530 109 Q507 71 465 45 Q427 21 385 11 Q343 1 298 1 Q269 1 240.5 3 Q212 5 183 5 Q169 5 155 4.5 Q141 4 127 3 Q116 2 104 1.5 Q92 1 81 1 L41 0 Q36 0 34 1 Q28 4 28 9 Q28 14 33.5 15.5 Q39 17 54 18 Q74 19 83 20 Q92 21 97 24 Q108 32 108 50 Q108 68 108 85 L108 628 Q108 634 108 641 Q108 648 107 656 Q105 668 93 673 Q85 675 70.5 676.5 Q56 678 48 678 L40 678 Q29 678 29 686 Q29 693 33.5 694 Q38 695 41 695 L179 693 Q217 692 238.5 693.5 Q260 695 270 695 Q272 695 278.5 694.5 Q285 694 287 690 Q288 689 288 686 Q288 681 279.5 679 Q271 677 244 676 Q238 676 229 675 Q220 674 215 669 Q212 666 210.5 659.5 Q209 653 208 646.5 Q207 640 207 634 Q207 628 207 625 L207 407 Z M750 64 Q750 52 749.5 43.5 Q749 35 754 30 Q759 24 774 21 Q789 18 819 16 Q822 16 826.5 14.5 Q831 13 831 8 Q831 3 827.5 1.5 Q824 0 819 0 Q818 0 816 0 Q814 0 805 0 Q797 0 780.5 0.5 Q764 1 734 2 Q707 3 684.5 3.5 Q662 4 641 2 Q636 2 632 1.5 Q628 1 623 1 L583 0 Q578 0 576 1 Q570 4 570 9 Q570 14 575.5 16 Q581 18 596 18 Q619 19 627 20.5 Q635 22 639 24 Q650 32 650 50 Q650 68 650 85 L650 628 Q650 634 650 641 Q650 648 649 656 Q647 668 635 673 Q628 675 613.5 676.5 Q599 678 590 678 L582 678 Q580 678 575.5 679 Q571 680 571 686 Q571 692 575.5 693.5 Q580 695 583 695 L718 693 Q724 693 735 693.5 Q746 694 759 694 Q772 694 786 694.5 Q800 695 812 695 Q816 695 821.5 694.5 Q827 694 829 690 Q830 689 830 686 Q830 681 821.5 679 Q813 677 786 676 Q779 676 770.5 675 Q762 674 757 669 Q750 662 750 625 L750 64 Z " />
<glyph glyph-name="uni042C" unicode="&#x42c;" horiz-adv-x="581" d="M207 44 Q207 39 208.5 35 Q210 31 215 28 Q220 25 230.5 23 Q241 21 258 21 Q276 21 298 23 Q320 25 342 32.5 Q364 40 384.5 54.5 Q405 69 421 94 Q439 122 443.5 153 Q448 184 448 209 Q448 245 437.5 282 Q427 319 389 350 Q351 380 306.5 384 Q262 388 207 383 L207 44 Z M207 407 Q292 412 358.5 404.5 Q425 397 477 359 Q490 349 503.5 335 Q517 321 528 302 Q539 283 546 258.5 Q553 234 553 203 Q553 147 530 109 Q507 71 465 45 Q427 21 385 11 Q343 1 298 1 Q269 1 240.5 3 Q212 5 183 5 Q169 5 155 4.5 Q141 4 127 3 Q116 2 104 1.5 Q92 1 81 1 L41 0 Q36 0 34 1 Q28 4 28 9 Q28 14 33.5 15.5 Q39 17 54 18 Q74 19 83 20 Q92 21 97 24 Q108 32 108 50 Q108 68 108 85 L108 628 Q108 634 108 641 Q108 648 107 656 Q105 668 93 673 Q85 675 70.5 676.5 Q56 678 48 678 L40 678 Q29 678 29 686 Q29 693 33.5 694 Q38 695 41 695 L179 693 Q217 692 238.5 693.5 Q260 695 270 695 Q272 695 278.5 694.5 Q285 694 287 690 Q288 689 288 686 Q288 681 279.5 679 Q271 677 244 676 Q238 676 229 675 Q220 674 215 669 Q212 666 210.5 659.5 Q209 653 208 646.5 Q207 640 207 634 Q207 628 207 625 L207 407 Z " />
<glyph glyph-name="uni042D" unicode="&#x42d;" horiz-adv-x="633" d="M274 414 Q296 432 316 439.5 Q336 447 361 447 Q387 447 411.5 439 Q436 431 472 414 Q471 432 467.5 456.5 Q464 481 457.5 508 Q451 535 440 561.5 Q429 588 413 610 Q395 635 374.5 650 Q354 665 334.5 673 Q315 681 298 683 Q281 685 269 685 Q232 685 204.5 677 Q177 669 157.5 656.5 Q138 644 124.5 628.5 Q111 613 103 599 Q91 577 82.5 548.5 Q74 520 71 497 Q70 492 68 484.5 Q66 477 58 477 Q50 477 49 482.5 Q48 488 48 492 Q48 512 48.5 529.5 Q49 547 49 565 Q49 596 48.5 612.5 Q48 629 46 638 Q44 653 41.5 663 Q39 673 39 681 Q39 691 48 692 Q56 692 57.5 687.5 Q59 683 60 679.5 Q61 676 64 668 Q66 663 68 658.5 Q70 654 74 652 Q78 649 85 649 Q92 649 100 653 Q108 657 120 664 Q142 677 160.5 685 Q179 693 195.5 697.5 Q212 702 228 703.5 Q244 705 261 705 Q293 705 329.5 699.5 Q366 694 402 679 Q438 664 467 640 Q521 595 554.5 519 Q588 443 588 352 Q588 326 584.5 297 Q581 268 573.5 239 Q566 210 554.5 182 Q543 154 527 130 Q511 105 486 79.5 Q461 54 426.5 34 Q392 14 346.5 1 Q301 -12 244 -12 Q214 -12 174 -6.5 Q134 -1 99 19 Q65 39 47.5 69 Q30 99 30 131 Q30 163 44 178 Q58 193 69 198 Q83 205 100 205 Q127 205 144 188 Q161 171 161 145 Q161 116 145.5 101.5 Q130 87 113 87 Q105 88 93 91 Q89 91 85 88.5 Q81 86 81 79 Q81 67 94 55.5 Q107 44 118 38 Q139 26 169 17.5 Q199 9 239 9 Q288 9 329 25 Q382 46 410.5 85 Q439 124 454 174 Q467 217 472 263 Q479 333 473 392 Q449 405 439.5 408.5 Q430 412 420 412 Q407 412 389 403.5 Q371 395 345 374 L279 321 Q265 310 247 301.5 Q229 293 204 293 Q199 293 194 293.5 Q189 294 184 295 Q175 296 164 301 L107 323 Q102 325 98 326.5 Q94 328 90 330 Q80 336 80 343 Q80 353 90 353 Q94 353 102 349 L110 343 Q115 340 126 333 Q137 326 147 326 Q158 326 172 333.5 Q186 341 200 353 L274 414 Z " />
<glyph glyph-name="uni042E" unicode="&#x42e;" horiz-adv-x="993" d="M642 6 Q659 6 681 11.5 Q703 17 725 31.5 Q747 46 768 70 Q789 94 805 132 Q817 160 824 190 Q831 220 835 248 Q839 276 840 301 Q841 326 841 345 Q841 387 836.5 430 Q832 473 822 512 Q812 551 797.5 584 Q783 617 763 638 Q749 654 719.5 670.5 Q690 687 642 687 Q594 687 564.5 671 Q535 655 519 638 Q498 617 483 584 Q468 551 458.5 512 Q449 473 444 429.5 Q439 386 439 343 Q439 314 441 286 Q443 258 448 229 Q453 204 459.5 179.5 Q466 155 476 132 Q491 96 514.5 67 Q538 38 583 19 Q614 6 642 6 Z M339 376 Q340 413 347.5 448.5 Q355 484 368 514.5 Q381 545 397.5 571 Q414 597 432 616 Q470 658 525.5 681.5 Q581 705 642 705 Q702 705 757.5 681 Q813 657 854 615 Q894 573 922.5 506 Q951 439 951 350 Q951 273 927 205.5 Q903 138 861 90 Q840 66 813 47 Q786 28 757.5 15 Q729 2 700 -5 Q671 -12 644 -12 Q623 -12 595.5 -7 Q568 -2 539 9.5 Q510 21 480 40.5 Q450 60 425 89 Q401 116 384.5 148.5 Q368 181 357.5 215.5 Q347 250 342.5 284.5 Q338 319 338 351 L223 351 L223 64 Q223 53 223 44 Q223 35 227 30 Q233 21 252 19 Q271 17 292 16 Q297 16 299 15 Q304 14 304 8 Q304 2 298 1 Q292 0 287 0 Q275 0 260.5 0.5 Q246 1 229 2 Q187 3 166 3 Q146 3 141 3 Q133 3 125 3 Q117 3 109 2 Q106 2 103 1.5 Q100 1 97 1 L56 0 Q51 0 47 2 Q43 4 43 9 Q43 14 48.5 15.5 Q54 17 69 18 Q89 19 98 20 Q107 21 112 24 Q123 32 123 50 Q123 68 123 85 L123 628 Q123 634 123 641 Q123 648 122 656 Q122 659 120.5 662.5 Q119 666 114 670 Q112 671 111.5 671.5 Q111 672 109 673 Q105 675 99 675.5 Q93 676 80 677 Q75 677 71.5 677.5 Q68 678 63 678 Q54 678 49 678.5 Q44 679 44 686 Q44 688 46 692 Q49 695 56 695 L189 693 L250 694 Q256 694 261.5 694.5 Q267 695 273 695 L279 695 L287 695 Q298 695 300.5 692 Q303 689 303 686 Q303 680 296 679 Q289 678 276 677 Q272 677 268 676.5 Q264 676 260 676 Q253 676 244 675 Q235 674 230 669 Q223 662 223 625 L223 376 L339 376 Z " />
<glyph glyph-name="uni042F" unicode="&#x42f;" horiz-adv-x="615" d="M399 640 Q399 653 392 660 Q385 667 375.5 670 Q366 673 355.5 673.5 Q345 674 338 674 Q315 674 284.5 670.5 Q254 667 229 645 Q209 627 198 594 Q187 561 187 516 Q187 472 198.5 442.5 Q210 413 228 398 Q238 390 254 384 Q270 378 287.5 374 Q305 370 322.5 368 Q340 366 352 366 L399 366 L399 640 Z M498 60 Q498 49 498 41 Q498 34 501 29 Q504 25 512 22.5 Q520 20 530 18.5 Q540 17 550 16.5 Q560 16 568 16 Q571 16 576.5 15 Q582 14 582 8 Q582 5 577.5 2 Q573 -1 562 -1 Q533 -1 506.5 -0.5 Q480 0 466 0 L399 0 Q372 0 362 0 Q352 0 348 -0.5 Q344 -1 340 -1 Q337 -1 325 -1 Q314 -1 311 2 Q308 5 308 7 Q308 9 310.5 12 Q313 15 322 16 Q353 18 373.5 20.5 Q394 23 398 34 Q399 38 399 58 L399 344 L360 344 Q327 344 307 332.5 Q287 321 275 310 Q253 289 243 268 Q233 247 225 226 Q206 174 196.5 134 Q187 94 178 61 Q173 44 170 32 Q167 20 163 -2 Q153 -1 143.5 -0.5 Q134 0 107 0 Q84 0 69 -0.5 Q54 -1 39.5 -1.5 Q25 -2 0 -2 Q-11 -2 -13.5 1 Q-16 4 -16 8 Q-16 11 -12.5 14 Q-9 17 2 16 Q16 15 29 15.5 Q42 16 53 23 Q61 28 65.5 36 Q70 44 73 50 Q80 67 89.5 91.5 Q99 116 109.5 143 Q120 170 131.5 197 Q143 224 156 245 Q169 265 182.5 281 Q196 297 218 313 Q230 322 244.5 330.5 Q259 339 295 349 L295 354 Q269 355 248.5 356.5 Q228 358 206.5 363 Q185 368 164.5 376 Q144 384 129 397 Q109 415 94.5 446.5 Q80 478 80 522 Q80 620 156 664 Q175 675 196.5 681 Q218 687 238.5 690 Q259 693 277.5 693.5 Q296 694 310 694 Q344 694 358 693.5 Q372 693 381 692.5 Q390 692 402 691.5 Q414 691 445 691 Q471 691 504 693 Q537 695 553 695 Q569 695 576 694 Q583 693 583 685 Q583 681 580.5 678.5 Q578 676 571 676 L554 676 Q531 676 519.5 673 Q508 670 504 665 Q500 660 499 650 Q498 640 498 622 L498 60 Z " />
<glyph glyph-name="uni0430" unicode="&#x430;" horiz-adv-x="396" d="M252 224 Q232 219 205 210 Q178 201 159 190 Q138 177 125 157.5 Q112 138 112 106 Q112 70 132 51.5 Q152 33 177 33 Q202 33 220 48.5 Q238 64 246 81 Q248 85 250 93 Q251 99 251.5 115 Q252 131 252 137 L252 224 Z M332 110 Q332 78 333 64 Q334 50 336 45 Q340 30 346 25 Q352 20 361 20 Q370 20 378 22.5 Q386 25 394 29 Q404 35 413 45 Q415 47 416.5 49 Q418 51 422 51 Q426 51 427 49 Q428 47 428 45 Q428 40 424.5 34.5 Q421 29 416 25 Q408 18 397.5 12.5 Q387 7 378 3 Q361 -5 347.5 -7 Q334 -9 324 -9 Q303 -9 290 -2.5 Q277 4 270 12 Q263 20 258 32 Q252 45 252 62 Q238 34 217 18 Q196 2 177 -5 Q167 -9 156.5 -10.5 Q146 -12 135 -12 Q98 -12 76 3.5 Q54 19 45 36 Q35 55 35 79 Q35 96 43.5 120.5 Q52 145 78 171 Q90 183 104.5 192 Q119 201 134 209 Q150 217 163.5 221 Q177 225 193 229 Q224 237 252 241 L252 296 Q252 307 251.5 329.5 Q251 352 248 364 Q245 376 240 389.5 Q235 403 219.5 418 Q204 433 172 433 Q155 433 137.5 427.5 Q120 422 106 408 Q95 396 92 386 Q89 376 89 366 Q90 361 91.5 359 Q93 357 101 358 Q115 357 124.5 345.5 Q134 334 134 319 Q134 303 123.5 289 Q113 275 90 275 Q67 275 52 290.5 Q37 306 37 332 Q37 346 42 361 Q52 390 74 411 Q100 434 128.5 441 Q157 448 188 448 Q202 448 216 447 Q230 446 244 443 Q258 440 278 432.5 Q298 425 309.5 410 Q321 395 326.5 369.5 Q332 344 332 297 L332 110 Z " />
<glyph glyph-name="uni0431" unicode="&#x431;" horiz-adv-x="452" d="M116 234 Q116 197 119 161 Q122 125 135 90 Q154 39 183 20.5 Q212 2 244 2 Q274 2 296.5 20 Q319 38 333 80 Q344 114 348.5 152.5 Q353 191 353 223 Q353 267 348 298 Q343 329 336 349.5 Q329 370 323 381 Q317 392 314 396 Q297 420 276.5 426.5 Q256 433 245 433 Q222 433 192.5 420 Q163 407 143 374 Q124 342 120 303.5 Q116 265 116 234 Z M225 633 Q220 635 210.5 637.5 Q201 640 194 640 Q177 640 165 627 Q157 619 151 604.5 Q145 590 140 574 Q135 558 131.5 541.5 Q128 525 126 513 Q124 499 122.5 480 Q121 461 120 441 Q119 421 118.5 403 Q118 385 118 373 Q130 396 146.5 410.5 Q163 425 180.5 433.5 Q198 442 214 445 Q230 448 242 448 Q257 448 276 444 Q295 440 315.5 431 Q336 422 356.5 407 Q377 392 395 369 Q421 335 432.5 295.5 Q444 256 444 218 Q444 176 432 136.5 Q420 97 397 67 Q364 23 320.5 5.5 Q277 -12 243 -12 Q200 -12 156.5 8.5 Q113 29 82 72 Q50 117 40.5 167 Q31 217 31 263 Q31 340 43 408.5 Q55 477 86 543 Q107 589 131 618 Q155 647 177.5 663 Q200 679 220.5 685 Q241 691 255 691 Q268 691 283 685 L335 662 Q346 657 356.5 653.5 Q367 650 381 650 Q397 650 409 659.5 Q421 669 434 696 Q436 699 438.5 703 Q441 707 446 707 Q453 707 453 698 Q453 693 447.5 683 Q442 673 435 662 Q428 651 420 641 Q412 631 408 626 Q396 612 378.5 599.5 Q361 587 340 587 Q329 587 319 590.5 Q309 594 299 599 L225 633 Z " />
<glyph glyph-name="uni0432" unicode="&#x432;" horiz-adv-x="427" d="M161 236 Q185 233 202 233 Q219 233 243 236 Q267 239 283 253 Q300 267 304 285.5 Q308 304 308 319 Q308 339 303 359.5 Q298 380 280 397 Q263 412 247 414.5 Q231 417 219 417 Q193 417 184 416 Q175 415 171 413 Q163 409 162 402 Q161 395 161 384 L161 236 Z M161 52 Q161 37 162 31 Q163 25 165 23 Q167 21 175 18.5 Q183 16 209 16 Q219 16 231.5 16.5 Q244 17 257 20 Q270 23 282 29 Q294 35 303 46 Q314 60 318.5 80 Q323 100 323 116 Q323 142 316 158 Q309 174 300 183 Q277 208 238.5 213.5 Q200 219 161 216 L161 52 Z M79 394 Q79 398 78 402.5 Q77 407 75 410 Q69 418 56 419 Q43 420 37 420 L23 420 Q16 420 14.5 423 Q13 426 13 428 Q13 431 16 434 Q19 437 29 437 Q37 437 42.5 436.5 Q48 436 56 435 Q64 434 78 433.5 Q92 433 117 433 Q134 433 151 433 Q169 433 186 434 Q197 434 208.5 434.5 Q220 435 231 435 Q276 435 302 429.5 Q328 424 344 414 Q360 404 375 384.5 Q390 365 390 330 Q390 304 380.5 284 Q371 264 357 253 Q339 238 311.5 232 Q284 226 264 225 L264 224 Q288 222 316 215 Q344 208 360 198 Q382 185 395.5 163 Q409 141 409 112 Q409 89 401 72 Q393 55 380 41 Q356 15 324 7 Q292 -1 248 -1 Q219 -1 189.5 0 Q160 1 131 1 Q126 1 114 1 Q102 1 89 0.5 Q76 0 64 0 Q52 0 48 0 Q36 -1 33 -1.5 Q30 -2 24 -2 Q16 -2 14.5 1 Q13 4 13 6 Q13 12 19.5 13.5 Q26 15 31 15 L61 16 Q69 16 74 21 Q79 26 79 48 L79 394 Z " />
<glyph glyph-name="uni0433" unicode="&#x433;" horiz-adv-x="344" d="M158 45 Q158 41 159 33 Q160 25 162 22 Q164 20 172.5 17 Q181 14 213 14 Q217 14 222.5 13 Q228 12 228 6 Q228 0 221.5 -1.5 Q215 -3 210 -3 Q200 -3 190 -2 Q180 -1 170 0 Q162 1 154 1 Q146 1 138 1 Q131 1 117 1 Q103 1 88 0.5 Q73 0 59 0 Q46 0 42 0 Q33 -1 29 -1.5 Q25 -2 21 -2 Q14 -2 12 1 Q10 4 10 6 Q10 12 15.5 13.5 Q21 15 27 15 L53 16 Q67 17 71.5 21 Q76 25 76 47 L76 391 Q76 406 70 411 Q64 416 47 417 L18 418 Q14 418 10 419.5 Q6 421 6 426 Q6 433 13.5 434 Q21 435 26 435 Q40 435 44 434.5 Q48 434 50 434 Q52 434 57 433.5 Q62 433 79 433 L121 433 L349 433 Q349 421 349 399 Q349 378 350 354 Q351 337 351.5 330.5 Q352 324 352.5 321 Q353 318 353.5 315 Q354 312 354 303 Q354 292 347 292 Q342 292 340 296.5 Q338 301 337 304 Q328 333 318 354 Q308 375 288 390 Q276 400 262 405 Q248 410 236 412.5 Q224 415 214 415.5 Q204 416 200 416 L158 416 L158 45 Z " />
<glyph glyph-name="uni0434" unicode="&#x434;" horiz-adv-x="467" d="M309 417 L290 417 L280 396 L102 19 L309 19 L309 417 Z M345 434 Q360 435 366 437 Q372 439 377 439 Q388 439 390.5 432 Q393 425 393 416 Q393 409 392 401 Q391 393 391 371 L391 35 Q391 30 391.5 27 Q392 24 398 21 Q403 19 419 19 L467 19 Q461 0 456 -16.5 Q451 -33 445 -54 Q434 -95 429.5 -111.5 Q425 -128 424 -136 Q421 -161 411 -161 Q405 -161 403 -151 Q398 -135 395.5 -107.5 Q393 -80 392 -64 Q390 -41 389.5 -27.5 Q389 -14 385 -9 Q379 -1 365 -0.5 Q351 0 339 0 L135 0 Q127 0 117 -0.5 Q107 -1 97.5 -2 Q88 -3 80 -4.5 Q72 -6 70.5 -9 Q69 -12 68 -20 Q66 -61 65 -81.5 Q64 -102 63 -117 Q63 -123 62.5 -130.5 Q62 -138 60.5 -144.5 Q59 -151 57 -156 Q55 -161 50 -161 Q45 -161 42 -154 Q39 -147 37 -139 Q32 -121 26.5 -100 Q21 -79 14 -57 Q10 -46 5 -30.5 Q0 -15 -12 19 L42 19 Q53 19 64 20.5 Q75 22 80 33 L241 371 Q243 374 245 382.5 Q247 391 247 396 Q247 414 234 416 Q221 418 200 419 L169 420 Q165 420 161 421.5 Q157 423 157 428 Q157 435 164 436 Q171 437 176 437 Q183 437 190.5 436.5 Q198 436 204.5 435 Q211 434 224 434 L345 434 Z " />
<glyph glyph-name="uni0435" unicode="&#x435;" horiz-adv-x="430" d="M317 313 Q317 327 314.5 348 Q312 369 304 386 Q284 433 231 433 Q205 433 187.5 422.5 Q170 412 156 391 Q148 378 143.5 364.5 Q139 351 135 337 Q133 331 132 325 Q131 319 130 313 L317 313 Z M127 294 Q125 280 123.5 262.5 Q122 245 122 229 Q122 190 130.5 149 Q139 108 156 81 Q170 58 197.5 39.5 Q225 21 272 21 Q303 21 327 35 Q337 41 345 49.5 Q353 58 360 67 Q365 74 369 80.5 Q373 87 377 94 Q379 98 381 101.5 Q383 105 385 108 Q390 116 396 116 Q404 116 404 109 Q404 107 403 102 Q402 97 394 83 Q387 71 378 58 Q369 45 356 32 Q351 27 342 19.5 Q333 12 319.5 5 Q306 -2 287 -7 Q268 -12 243 -12 Q214 -12 175 -1 Q136 10 99 47 Q70 76 50.5 116.5 Q31 157 31 214 Q31 246 38 278 Q45 310 60 339 Q77 372 98.5 393 Q120 414 143 426 Q166 438 189 443 Q212 448 232 448 Q255 448 278 443 Q301 438 321 427 Q350 411 374 381 Q398 351 402 300 Q391 298 372.5 297 Q354 296 336 296 L258 297 L182 296 L127 294 Z " />
<glyph glyph-name="uni0436" unicode="&#x436;" horiz-adv-x="634" d="M356 45 Q356 28 359 23.5 Q362 19 370 17 Q376 15 387 14.5 Q398 14 404 14 Q407 14 411.5 13.5 Q416 13 416 7 Q416 0 410.5 -1 Q405 -2 400 -2 Q395 -2 392 -1.5 Q389 -1 385 -1 Q371 1 356 1 Q341 1 326 1 Q297 1 286 0.5 Q275 0 269 0 Q264 0 257 -0.5 Q250 -1 229 -1 Q224 -1 219 0 Q214 1 214 7 Q214 12 217.5 13 Q221 14 223 14 Q234 14 243 14.5 Q252 15 263 17 Q271 19 274.5 23.5 Q278 28 278 45 L278 217 L258 217 Q246 217 230.5 213.5 Q215 210 198 198 Q181 185 171.5 167.5 Q162 150 155 128 Q152 119 148 104.5 Q144 90 140.5 74.5 Q137 59 133.5 44.5 Q130 30 128 22 Q126 16 125.5 11 Q125 6 123 -2 Q113 -1 101.5 -0.5 Q90 0 75 0 Q64 0 53 0 Q43 0 32 -1 Q24 -1 15.5 -1.5 Q7 -2 -3 -2 Q-7 -2 -13.5 -1 Q-20 0 -20 7 Q-20 13 -9 13 Q-4 13 0.5 12.5 Q5 12 10 12 Q21 12 27.5 15.5 Q34 19 42 34 Q59 69 69 99.5 Q79 130 100 159 Q110 173 122.5 185 Q135 197 151 205 Q165 213 184 219 Q203 225 222 228 Q205 230 194 237 Q183 244 172 257 Q158 274 152 289.5 Q146 305 140 324 L127 365 Q122 380 118 389 Q114 398 109 403 Q104 408 95.5 412 Q87 416 79 416 Q67 416 59.5 410 Q52 404 52 399 Q52 392 58.5 391.5 Q65 391 70 390 Q82 389 86.5 381.5 Q91 374 91 366 Q91 352 81 343 Q71 334 57 334 Q43 334 29 345.5 Q15 357 15 383 Q15 404 28 418 Q39 429 51.5 433.5 Q64 438 75 438 Q83 438 94.5 434.5 Q106 431 118 421 Q129 411 134 400.5 Q139 390 143 379 L161 320 Q165 307 174.5 286 Q184 265 202 253 Q211 247 226.5 242 Q242 237 253 237 L278 237 L278 393 Q278 398 277.5 404 Q277 410 272 414 Q268 417 260 417 Q252 417 229 418 Q226 418 219.5 419 Q213 420 213 427 Q213 433 218 434 Q223 435 227 435 Q244 435 262 433.5 Q280 432 316 432 Q328 432 339.5 432.5 Q351 433 363 433 L380 433 Q394 434 397.5 434.5 Q401 435 409 435 Q417 435 419 432 Q421 429 421 427 Q421 425 418.5 421.5 Q416 418 405 418 Q385 418 376.5 417.5 Q368 417 363 415 Q358 413 357 408.5 Q356 404 356 399 L356 237 L381 237 Q392 237 407.5 242 Q423 247 432 253 Q450 265 459.5 286 Q469 307 473 320 L491 379 Q495 390 500 400.5 Q505 411 516 421 Q528 431 539.5 434.5 Q551 438 559 438 Q570 438 582.5 433.5 Q595 429 606 418 Q619 404 619 383 Q619 357 605 345.5 Q591 334 577 334 Q563 334 553 343 Q543 352 543 366 Q543 374 547.5 381.5 Q552 389 564 390 Q569 391 575.5 391.5 Q582 392 582 399 Q582 404 574.5 410 Q567 416 555 416 Q547 416 538.5 412 Q530 408 525 403 Q520 398 516 389 Q512 380 507 365 L494 324 Q488 305 482 289.5 Q476 274 462 257 Q451 244 440 237 Q429 230 412 228 Q431 225 450 219 Q469 213 483 205 Q499 197 511.5 185 Q524 173 534 159 Q555 130 565 99.5 Q575 69 592 34 Q600 19 606.5 15.5 Q613 12 624 12 Q629 12 633.5 12.5 Q638 13 643 13 Q654 13 654 7 Q654 0 647.5 -1 Q641 -2 637 -2 Q627 -2 618.5 -1.5 Q610 -1 602 -1 Q591 0 580 0 Q570 0 559 0 Q544 0 532.5 -0.5 Q521 -1 511 -2 Q509 6 508.5 11 Q508 16 506 22 Q504 30 500.5 44.5 Q497 59 493.5 74.5 Q490 90 486 104.5 Q482 119 479 128 Q472 150 462.5 167.5 Q453 185 436 198 Q419 210 403.5 213.5 Q388 217 376 217 L356 217 L356 45 Z " />
<glyph glyph-name="uni0437" unicode="&#x437;" horiz-adv-x="409" d="M176 242 Q158 242 153 234.5 Q148 227 148 222 Q148 217 152.5 209.5 Q157 202 174 202 Q187 202 204.5 209 Q222 216 236 225 Q225 230 207.5 236 Q190 242 176 242 Z M262 225 Q282 220 304.5 211 Q327 202 344 190 Q369 172 379 150.5 Q389 129 389 106 Q389 76 375.5 56.5 Q362 37 345 24 Q316 3 276 -7.5 Q236 -18 198 -18 Q180 -18 156 -15 Q132 -12 114 -7 Q99 -2 88 4.5 Q77 11 65 22 Q56 30 46.5 39.5 Q37 49 28 49 Q23 49 17.5 45.5 Q12 42 7 33 Q5 28 2.5 22 Q0 16 -5 16 Q-12 16 -12 25 Q-12 30 -4.5 42 Q3 54 6 58 Q18 75 32.5 81.5 Q47 88 61 88 Q87 88 109 68 Q121 57 125.5 48.5 Q130 40 145 24 Q156 13 169 6.5 Q182 0 202 0 Q223 0 237.5 8.5 Q252 17 261 25 Q274 38 284.5 61 Q295 84 295 121 Q295 138 291.5 153.5 Q288 169 279 185 Q268 204 250 217 Q237 206 216.5 195 Q196 184 170 184 Q143 184 129 195.5 Q115 207 115 222 Q115 227 117 233.5 Q119 240 125 246 Q131 252 141 256 Q151 260 168 260 Q191 260 211.5 253 Q232 246 248 236 Q262 252 270.5 273 Q279 294 279 325 Q279 354 271.5 374.5 Q264 395 253 407 Q235 427 205 427 Q186 427 165 418.5 Q144 410 127 395 Q110 379 98.5 360 Q87 341 78 319 Q77 317 74.5 312 Q72 307 68 307 Q67 307 64.5 308 Q62 309 62 315 Q62 322 63 332.5 Q64 343 66 368 Q66 375 67 380.5 Q68 386 68.5 393.5 Q69 401 69 411 Q69 422 69 439 Q69 441 69.5 444.5 Q70 448 75 448 Q79 448 80 444.5 Q81 441 82 437 Q84 428 90 425.5 Q96 423 104 423 Q113 423 120.5 425 Q128 427 138 430 Q155 436 169.5 440 Q184 444 209 444 Q237 444 268.5 437.5 Q300 431 323 414 Q350 395 358.5 373.5 Q367 352 367 335 Q367 313 358 292.5 Q349 272 330 256 Q316 244 297.5 236.5 Q279 229 262 226 L262 225 Z " />
<glyph glyph-name="uni0438" unicode="&#x438;" horiz-adv-x="512" d="M486 14 Q494 14 496 11 Q498 8 498 5 Q498 3 495.5 0 Q493 -3 482 -3 Q469 -3 455.5 -1.5 Q442 0 431 0 Q394 0 366.5 -1.5 Q339 -3 307 -2 L304 -2 Q301 -2 298 -2.5 Q295 -3 292 -3 Q281 -3 281 5 Q281 12 287.5 13 Q294 14 300 14 L326 15 Q330 15 335.5 15.5 Q341 16 343 20 Q345 23 345.5 33.5 Q346 44 346 47 L346 345 L165 64 L165 33 Q165 20 170 17 Q175 14 188 13 L217 12 Q220 12 223.5 11.5 Q227 11 227 6 Q227 0 221.5 -1 Q216 -2 213 -2 Q195 -2 172.5 -1.5 Q150 -1 127.5 0 Q105 1 85.5 0.5 Q66 0 54 -1 Q44 -3 31 -3 Q24 -3 18.5 -1.5 Q13 0 13 6 Q13 12 18 13 Q23 14 27 14 Q48 14 58 15.5 Q68 17 71 18 Q78 20 80.5 24 Q83 28 83 48 L83 387 Q83 390 82.5 400.5 Q82 411 80 414 Q78 418 72.5 418.5 Q67 419 63 419 L38 420 Q32 420 25 421 Q18 422 18 430 Q18 437 29 437 Q32 437 35 436.5 Q38 436 41 436 L44 436 Q79 437 106 435 Q133 433 168 435 Q179 436 185 436.5 Q191 437 197 437 L211 437 Q222 437 223.5 433.5 Q225 430 225 429 Q225 424 221 423 Q217 422 213 422 L194 421 Q189 421 180 420 Q171 419 167 414 Q165 411 165 406 Q165 401 165 392 L165 103 L346 383 L346 392 Q346 396 345.5 404 Q345 412 343 414 Q341 418 335.5 418.5 Q330 419 326 419 L301 420 Q295 420 288 421 Q281 422 281 430 Q281 437 292 437 Q295 437 298 436.5 Q301 436 304 436 L307 436 Q323 436 336 435.5 Q349 435 362.5 434.5 Q376 434 392 434 Q408 434 431 435 Q445 436 451 436.5 Q457 437 462 437 L474 437 Q483 437 485.5 434.5 Q488 432 488 430 Q488 427 486 424.5 Q484 422 476 422 L462 422 Q457 422 449.5 421.5 Q442 421 437 419 Q429 417 428.5 411.5 Q428 406 428 392 L428 43 Q428 39 428.5 32 Q429 25 432 22 Q436 17 451 15.5 Q466 14 472 14 L486 14 Z " />
<glyph glyph-name="uni0439" unicode="&#x439;" horiz-adv-x="512" d="M486 14 Q494 14 496 11 Q498 8 498 5 Q498 3 495.5 0 Q493 -3 482 -3 Q469 -3 455.5 -1.5 Q442 0 431 0 Q394 0 366.5 -1.5 Q339 -3 307 -2 L304 -2 Q301 -2 298 -2.5 Q295 -3 292 -3 Q281 -3 281 5 Q281 12 287.5 13 Q294 14 300 14 L326 15 Q330 15 335.5 15.5 Q341 16 343 20 Q345 23 345.5 33.5 Q346 44 346 47 L346 345 L165 64 L165 33 Q165 20 170 17 Q175 14 188 13 L217 12 Q220 12 223.5 11.5 Q227 11 227 6 Q227 0 221.5 -1 Q216 -2 213 -2 Q195 -2 172.5 -1.5 Q150 -1 127.5 0 Q105 1 85.5 0.5 Q66 0 54 -1 Q44 -3 31 -3 Q24 -3 18.5 -1.5 Q13 0 13 6 Q13 12 18 13 Q23 14 27 14 Q48 14 58 15.5 Q68 17 71 18 Q78 20 80.5 24 Q83 28 83 48 L83 387 Q83 390 82.5 400.5 Q82 411 80 414 Q78 418 72.5 418.5 Q67 419 63 419 L38 420 Q32 420 25 421 Q18 422 18 430 Q18 437 29 437 Q32 437 35 436.5 Q38 436 41 436 L44 436 Q79 437 106 435 Q133 433 168 435 Q179 436 185 436.5 Q191 437 197 437 L211 437 Q222 437 223.5 433.5 Q225 430 225 429 Q225 424 221 423 Q217 422 213 422 L194 421 Q189 421 180 420 Q171 419 167 414 Q165 411 165 406 Q165 401 165 392 L165 103 L346 383 L346 392 Q346 396 345.5 404 Q345 412 343 414 Q341 418 335.5 418.5 Q330 419 326 419 L301 420 Q295 420 288 421 Q281 422 281 430 Q281 437 292 437 Q295 437 298 436.5 Q301 436 304 436 L307 436 Q323 436 336 435.5 Q349 435 362.5 434.5 Q376 434 392 434 Q408 434 431 435 Q445 436 451 436.5 Q457 437 462 437 L474 437 Q483 437 485.5 434.5 Q488 432 488 430 Q488 427 486 424.5 Q484 422 476 422 L462 422 Q457 422 449.5 421.5 Q442 421 437 419 Q429 417 428.5 411.5 Q428 406 428 392 L428 43 Q428 39 428.5 32 Q429 25 432 22 Q436 17 451 15.5 Q466 14 472 14 L486 14 Z M253 524 Q229 524 201.5 531 Q174 538 153 555 Q136 569 128 584.5 Q120 600 120 615 Q120 638 135 652.5 Q150 667 176 667 Q199 667 210 654 Q221 641 221 627 Q221 614 215 607.5 Q209 601 203 599 Q198 597 193.5 596.5 Q189 596 182 594 Q177 592 173 590 Q169 588 169 581 Q169 573 175 565.5 Q181 558 196 551 Q208 546 223.5 542.5 Q239 539 253 539 Q267 539 282.5 542.5 Q298 546 310 551 Q325 558 331 565.5 Q337 573 337 581 Q337 587 334 589 Q331 591 326 593 Q318 595 313 596 Q308 597 303 599 Q296 602 290.5 608 Q285 614 285 627 Q285 641 296 654 Q307 667 330 667 Q350 667 368 654.5 Q386 642 386 615 Q386 598 375.5 581.5 Q365 565 353 555 Q336 541 308 532.5 Q280 524 253 524 Z " />
</font>
</svg>
