<?xml version="1.0" encoding="utf-8"?>
<!-- Generator: Adobe Illustrator 20.0.0, SVG Export Plug-In . SVG Version: 6.00 Build 0)  -->
<svg version="1.1" id="Layer_1" xmlns="http://www.w3.org/2000/svg" xmlns:xlink="http://www.w3.org/1999/xlink" x="0px" y="0px"
	 viewBox="0 0 100 100" style="enable-background:new 0 0 100 100;" xml:space="preserve">
<style type="text/css">
	.st0{fill:#006830;}
</style>
<g>
	<path class="st0" d="M50,0C22.4,0,0,22.4,0,50c0,27.6,22.4,50,50,50s50-22.4,50-50C100,22.4,77.6,0,50,0z M50,96
		C24.6,96,4,75.4,4,50C4,24.6,24.6,4,50,4s46,20.6,46,46C96,75.4,75.4,96,50,96z"/>
	<path class="st0" d="M71.5,38.8c-0.9-1.5-2.9-2.7-4.8-2.7h-9c0,0-0.1,0-0.1,0c-0.5-3.4-3.4-6-6.9-6h-22c-3.9,0-7,3.1-7,7v18
		c0,3.4,2.4,6.2,5.6,6.9c0,0,0,0.1,0,0.1c0,3.9,3.1,7,7,7s7-3.1,7-7h9.4h7h1.8c0,3.9,3.1,7,7,7s7-3.1,7-7h1.2c2.2,0,4-1.8,4-4v-5
		c0-1.5-0.6-3.5-1.3-4.8L71.5,38.8z M34.3,65.1c-1.7,0-3-1.3-3-3s1.3-3,3-3s3,1.3,3,3S36,65.1,34.3,65.1z M40.1,58.1
		c-1.3-1.8-3.4-3-5.7-3c-2.4,0-4.5,1.2-5.7,3c-1.6-0.1-2.8-1.4-2.8-3v-18c0-1.7,1.3-3,3-3h22c1.7,0,3,1.3,3,3v3v15c0,1.7-1.3,3-3,3
		H40.1z M66.6,65.1c-1.7,0-3-1.3-3-3s1.3-3,3-3s3,1.3,3,3S68.2,65.1,66.6,65.1z M74.8,58.1h-2.4c-1.3-1.8-3.4-3-5.7-3
		s-4.5,1.2-5.7,3h-3.1v-3v-15h9c0.4,0,1.1,0.4,1.3,0.8l5.9,9.6c0.4,0.6,0.8,1.9,0.8,2.7V58.1z"/>
</g>
</svg>
