<?xml version="1.0" encoding="utf-8"?>
<!-- Generator: Adobe Illustrator 20.0.0, SVG Export Plug-In . SVG Version: 6.00 Build 0)  -->
<svg version="1.1" id="Layer_1" xmlns="http://www.w3.org/2000/svg" xmlns:xlink="http://www.w3.org/1999/xlink" x="0px" y="0px"
	 viewBox="0 0 100 100" style="enable-background:new 0 0 100 100;" xml:space="preserve">
<style type="text/css">
	.st0{fill:#006830;}
</style>
<g>
	<path class="st0" d="M50,0C22.4,0,0,22.4,0,50c0,27.6,22.4,50,50,50s50-22.4,50-50C100,22.4,77.6,0,50,0z M50,96
		C24.6,96,4,75.4,4,50C4,24.6,24.6,4,50,4s46,20.6,46,46C96,75.4,75.4,96,50,96z"/>
	<path class="st0" d="M73,53.3l-13.7-9.8c-2-1.4-4.4-2.3-7-2.6c2.7-1,4.7-3.6,4.7-6.6c0-3.9-3.1-7-7-7c-3.9,0-7,3.1-7,7
		c0,1.1,0.9,2,2,2s2-0.9,2-2c0-1.7,1.3-3,3-3s3,1.3,3,3s-1.3,3-3,3c-1.1,0-2,0.9-2,2c0,0.6,0.3,1.1,0.7,1.5c-2.9,0.2-5.7,1.1-8,2.7
		L27,53.3c-3.8,2.7-4,4.9-3.6,6.3c0.5,1.4,2,3.1,6.6,3.1h40c4.6,0,6.1-1.7,6.6-3.1C77,58.2,76.8,55.9,73,53.3z M70,58.7H30
		c-1.5,0-2.3-0.2-2.6-0.4c0.2-0.3,0.7-0.9,1.9-1.8L43,46.7c3.8-2.7,10.2-2.7,14,0l13.7,9.8c1.2,0.9,1.7,1.5,1.9,1.8
		C72.3,58.5,71.5,58.7,70,58.7z"/>
</g>
</svg>
