<?xml version="1.0" encoding="utf-8"?>
<!-- Generator: Adobe Illustrator 20.0.0, SVG Export Plug-In . SVG Version: 6.00 Build 0)  -->
<svg version="1.1" id="Layer_1" xmlns="http://www.w3.org/2000/svg" xmlns:xlink="http://www.w3.org/1999/xlink" x="0px" y="0px"
	 viewBox="0 0 100 100" style="enable-background:new 0 0 100 100;" xml:space="preserve">
<style type="text/css">
	.st0{fill:#006830;}
</style>
<g>
	<path class="st0" d="M50,0C22.4,0,0,22.4,0,50c0,27.6,22.4,50,50,50s50-22.4,50-50C100,22.4,77.6,0,50,0z M50,96
		C24.6,96,4,75.4,4,50C4,24.6,24.6,4,50,4s46,20.6,46,46C96,75.4,75.4,96,50,96z"/>
	<path class="st0" d="M75,36.6V34c0-3.3-3.1-6-7-6H32c-3.9,0-7,3.1-7,7v30c0,3.9,3.1,7,7,7h36c3.9,0,7-3.1,7-7V54.4
		c1.2-0.7,2-2,2-3.4V40C77,38.5,76.2,37.3,75,36.6z M57,51V40h16v11L57,51z M68,68H32c-1.7,0-3-1.3-3-3V35c0-1.7,1.3-3,3-3h36
		c1.8,0,3,1.1,3,2v2H57c-2.2,0-4,1.8-4,4v11c0,2.2,1.8,4,4,4h14v10C71,66.7,69.7,68,68,68z"/>
	<path class="st0" d="M62,42.5c-1.7,0-3,1.3-3,3s1.3,3,3,3s3-1.3,3-3S63.7,42.5,62,42.5z M62,46.5c-0.6,0-1-0.4-1-1s0.4-1,1-1
		s1,0.4,1,1S62.6,46.5,62,46.5z"/>
</g>
</svg>
