<svg xmlns="http://www.w3.org/2000/svg">
<defs>
<font id="Fedra Sans Alt Pro Bold">
<font-face  font-family="Fedra Sans Alt Pro" units-per-em="1000" ascent="780" descent="-220" font-style="normal" font-weight="700" font-stretch="normal" cap-height="707" x-height="546" underline-position="-75" underline-thickness="50" />

<glyph glyph-name="NULL" d="" />
<glyph glyph-name="CR" unicode="&#xd;" horiz-adv-x="250" d="" />
<glyph glyph-name="space" unicode="&#x20;" horiz-adv-x="231" d="" />
<glyph glyph-name="exclam" unicode="&#x21;" horiz-adv-x="345" d="M99 220 L246 220 L256 413 L256 707 L89 707 L89 413 L99 220 Z M88 0 L256 0 L256 147 L88 147 L88 0 Z " />
<glyph glyph-name="quotedbl" unicode="&#x22;" horiz-adv-x="431" d="M56 515 L174 515 L185 755 L45 755 L56 515 Z M257 515 L375 515 L386 754 L246 754 L257 515 Z " />
<glyph glyph-name="numbersign" unicode="&#x23;" horiz-adv-x="704" d="M662 142 L662 274 L560 274 L571 413 L662 413 L662 546 L580 546 L591 707 L432 707 L422 546 L315 546 L326 707 L167 707 L157 546 L42 546 L42 413 L146 413 L136 274 L42 274 L42 142 L127 142 L118 0 L277 0 L286 142 L393 142 L384 0 L543 0 L552 142 L662 142 Z M412 413 L402 274 L294 274 L305 413 L412 413 Z " />
<glyph glyph-name="dollar" unicode="&#x24;" horiz-adv-x="547" d="M540 204 C540 317 449 373 359 413 L359 571 C395 566 424 556 458 547 L507 665 C465 683 425 701 359 709 L359 800 L234 800 L234 707 C120 692 32 632 32 522 C32 392 137 341 234 303 L234 129 C162 130 117 140 57 161 L9 39 C57 13 136 -7 234 -10 L234 -100 L359 -100 L359 2 C460 27 540 89 540 204 L540 204 Z M181 523 C181 543 199 561 234 570 L234 466 C202 483 181 500 181 523 L181 523 Z M393 195 C393 176 380 160 359 149 L359 247 C380 233 393 216 393 195 L393 195 Z " />
<glyph glyph-name="percent" unicode="&#x25;" horiz-adv-x="876" d="M223 352 C326 352 417 416 417 535 C417 668 324 714 226 714 C125 714 36 645 36 528 C36 400 125 352 223 352 L223 352 Z M223 466 C193 466 175 479 175 528 C175 588 203 600 226 600 C258 600 278 584 278 535 C278 485 252 466 223 466 L223 466 Z M643 -11 C746 -11 837 52 837 171 C837 304 744 350 646 350 C545 350 456 282 456 164 C456 36 545 -11 643 -11 L643 -11 Z M643 103 C613 103 595 115 595 164 C595 224 623 236 646 236 C678 236 698 220 698 171 C698 121 672 103 643 103 L643 103 Z M184 37 L766 568 L679 658 L97 127 L184 37 Z " />
<glyph glyph-name="ampersand" unicode="&#x26;" horiz-adv-x="731" d="M570 387 C538 325 504 271 467 227 C420 259 376 294 340 331 C424 384 509 443 509 538 C509 615 459 717 315 717 C162 717 95 602 95 512 C95 459 117 403 154 346 C89 298 34 239 34 158 C34 53 104 -13 253 -13 C345 -13 417 17 478 66 C556 25 634 -2 702 -7 L727 112 C676 122 624 141 572 166 C606 211 637 262 667 314 L570 387 Z M237 515 C237 580 274 596 305 596 C347 596 373 568 373 537 C373 495 326 459 268 421 C248 454 237 486 237 515 L237 515 Z M262 109 C209 109 182 139 182 175 C182 205 200 230 229 255 C269 213 315 173 364 138 C331 119 297 109 262 109 L262 109 Z " />
<glyph glyph-name="quotesingle" unicode="&#x27;" horiz-adv-x="240" d="M56 515 L184 515 L195 755 L45 755 L56 515 Z " />
<glyph glyph-name="parenleft" unicode="&#x28;" horiz-adv-x="384" d="M359 -136 C240 -29 181 129 181 274 C181 432 241 573 364 675 L281 754 C126 655 32 475 32 274 C32 53 135 -120 282 -220 L359 -136 Z " />
<glyph glyph-name="parenright" unicode="&#x29;" horiz-adv-x="384" d="M102 -220 C249 -120 352 53 352 274 C352 475 258 655 103 754 L20 675 C143 573 203 432 203 274 C203 129 144 -29 25 -136 L102 -220 Z " />
<glyph glyph-name="asterisk" unicode="&#x2a;" horiz-adv-x="433" d="M85 445 L183 539 L162 577 L31 543 L85 445 Z M163 587 L184 626 L86 724 L31 626 L163 587 Z M158 403 L271 403 L237 531 L196 531 L158 403 Z M193 633 L239 633 L274 761 L161 761 L193 633 Z M349 440 L404 538 L272 577 L250 538 L349 440 Z M271 587 L401 622 L347 720 L250 625 L271 587 Z " />
<glyph glyph-name="plus" unicode="&#x2b;" horiz-adv-x="582" d="M227 45 L353 45 L350 244 L553 242 L553 368 L347 361 L353 565 L227 565 L228 364 L29 368 L29 242 L228 244 L227 45 Z " />
<glyph glyph-name="comma" unicode="&#x2c;" horiz-adv-x="294" d="M31 -134 L176 -134 C214 -78 235 3 235 85 L235 163 L61 163 L61 43 C61 -6 53 -89 31 -134 L31 -134 Z " />
<glyph glyph-name="&amp;#x2d;" unicode="&#x2d;" horiz-adv-x="440" d="M71 220 L369 220 L369 353 L71 353 L71 220 Z " />
<glyph glyph-name="&amp;#xad;" unicode="&#xad;" horiz-adv-x="440" d="M71 220 L369 220 L369 353 L71 353 L71 220 Z " />
<glyph glyph-name="period" unicode="&#x2e;" horiz-adv-x="307" d="M61 0 L246 0 L246 162 L61 162 L61 0 Z " />
<glyph glyph-name="slash" unicode="&#x2f;" horiz-adv-x="418" d="M19 -62 L166 -62 L399 769 L252 769 L19 -62 Z " />
<glyph glyph-name="zero" unicode="0" horiz-adv-x="600" d="M294 -9 C522 -9 578 160 578 363 C578 521 557 713 311 713 C66 713 27 523 27 343 C27 158 63 -9 294 -9 L294 -9 Z M299 128 C214 128 196 206 196 346 C196 492 214 576 305 576 C398 576 409 496 409 358 C409 212 394 128 299 128 L299 128 Z " />
<glyph glyph-name="one" unicode="1" horiz-adv-x="600" d="M54 0 L549 0 L549 133 L386 133 L386 709 L55 700 L55 569 L219 569 L219 133 L54 133 L54 0 Z " />
<glyph glyph-name="two" unicode="2" horiz-adv-x="600" d="M52 0 L557 0 L557 133 L264 133 C376 226 534 349 534 495 C534 595 485 715 277 715 C167 715 120 690 69 662 L119 546 C158 562 193 579 261 579 C318 579 367 555 367 487 C367 391 128 184 52 113 L52 0 Z " />
<glyph glyph-name="three" unicode="3" horiz-adv-x="600" d="M257 -11 C396 -11 553 28 553 206 C553 297 489 354 406 381 C462 407 517 437 517 535 C517 661 386 717 262 717 C194 717 119 700 60 671 L105 555 C151 569 188 579 254 579 C310 579 353 550 353 512 C353 443 290 426 177 422 L177 309 C323 308 384 284 384 208 C384 151 327 129 247 129 C186 129 125 140 82 151 L52 17 C52 17 128 -11 257 -11 L257 -11 Z " />
<glyph glyph-name="four" unicode="4" horiz-adv-x="600" d="M322 0 L488 0 L488 144 L582 144 L582 276 L488 276 L488 707 L258 707 L18 272 L18 144 L322 144 L322 0 Z M177 276 L322 560 L322 276 L177 276 Z " />
<glyph glyph-name="five" unicode="5" horiz-adv-x="600" d="M262 -11 C420 -11 562 74 562 227 C562 366 444 441 291 441 C275 441 262 441 244 440 L244 575 L524 575 L524 707 L83 707 L83 304 C156 311 199 312 235 312 L276 312 C343 312 395 286 395 217 C395 166 334 130 261 130 C205 130 165 132 98 148 L58 15 C110 -2 169 -11 262 -11 L262 -11 Z " />
<glyph glyph-name="six" unicode="6" horiz-adv-x="600" d="M307 -12 C450 -12 574 78 574 239 C574 403 475 465 317 465 C276 465 240 458 210 449 C241 556 308 576 368 576 C408 576 452 571 487 562 L524 690 C484 705 423 714 370 714 C160 714 26 580 26 307 C26 85 127 -12 307 -12 L307 -12 Z M302 339 C365 339 407 310 407 229 C407 164 369 122 314 122 C224 122 193 162 193 301 L193 322 C221 330 261 339 302 339 L302 339 Z " />
<glyph glyph-name="seven" unicode="7" horiz-adv-x="600" d="M240 -13 L558 598 L558 707 L51 707 L51 569 L395 569 L102 27 L240 -13 Z " />
<glyph glyph-name="eight" unicode="8" horiz-adv-x="600" d="M298 -12 C452 -12 570 48 570 191 C570 281 492 333 416 373 C484 412 550 458 550 540 C550 638 453 718 308 718 C169 718 58 661 58 529 C58 455 111 409 170 370 C100 332 33 277 33 178 C33 40 152 -12 298 -12 L298 -12 Z M304 111 C238 111 194 139 194 193 C194 237 235 284 289 313 C352 280 404 236 404 194 C404 139 364 111 304 111 L304 111 Z M297 424 C251 449 220 483 220 520 C220 559 240 595 306 595 C357 595 383 569 383 522 C383 482 346 448 297 424 L297 424 Z " />
<glyph glyph-name="nine" unicode="9" horiz-adv-x="600" d="M229 -9 C439 -9 573 125 573 398 C573 620 472 717 292 717 C149 717 25 631 25 470 C25 306 124 250 282 250 C323 250 361 257 392 266 C366 167 304 129 231 129 C191 129 147 134 112 143 L75 15 C115 0 176 -9 229 -9 L229 -9 Z M297 376 C234 376 192 399 192 480 C192 545 230 583 285 583 C372 583 408 555 405 392 C376 384 336 376 297 376 L297 376 Z " />
<glyph glyph-name="colon" unicode="&#x3a;" horiz-adv-x="329" d="M72 0 L257 0 L257 162 L72 162 L72 0 Z M72 384 L257 384 L257 546 L72 546 L72 384 Z " />
<glyph glyph-name="semicolon" unicode="&#x3b;" horiz-adv-x="328" d="M37 -134 L187 -134 C229 -84 256 -14 256 55 L256 163 L72 163 L72 13 C72 -8 71 -72 37 -134 L37 -134 Z M72 384 L257 384 L257 546 L72 546 L72 384 Z " />
<glyph glyph-name="less" unicode="&#x3c;" horiz-adv-x="504" d="M452 47 L452 186 L167 303 L452 431 L452 570 L28 369 L28 238 L452 47 Z " />
<glyph glyph-name="equal" unicode="&#x3d;" horiz-adv-x="604" d="M76 113 L530 113 L528 239 L74 239 L76 113 Z M76 364 L530 364 L528 490 L74 490 L76 364 Z " />
<glyph glyph-name="greater" unicode="&#x3e;" horiz-adv-x="504" d="M52 47 L476 238 L476 369 L52 570 L52 431 L337 303 L52 186 L52 47 Z " />
<glyph glyph-name="question" unicode="&#x3f;" horiz-adv-x="436" d="M88 185 L222 207 C212 232 213 249 213 262 C213 318 402 378 402 504 C402 663 235 704 73 715 L43 578 C185 567 228 540 228 499 C228 456 68 398 68 274 C68 247 71 222 88 185 L88 185 Z M85 0 L252 0 L252 147 L85 147 L85 0 Z " />
<glyph glyph-name="at" unicode="&#x40;" horiz-adv-x="834" d="M397 -74 C469 -74 506 -70 592 -47 L578 55 C523 44 454 37 406 37 C269 37 167 110 167 272 C167 507 311 612 490 612 C601 612 673 547 673 418 C673 313 613 244 589 244 C566 244 566 267 568 280 L590 466 C523 491 486 492 445 492 C313 492 234 396 234 283 C234 170 283 141 356 141 C385 141 423 166 440 192 C445 165 482 130 544 130 C692 130 796 244 796 417 C796 623 681 717 498 717 C253 717 42 575 42 268 C42 15 194 -74 397 -74 L397 -74 Z M397 256 C377 256 376 283 376 296 C376 359 409 397 448 397 L453 397 L435 265 C423 261 423 256 397 256 L397 256 Z " />
<glyph glyph-name="A" unicode="A" horiz-adv-x="718" d="M-14 0 L156 0 L233 207 L472 207 L539 0 L715 0 L477 707 L258 707 L-14 0 Z M278 330 L361 602 L432 330 L278 330 Z " />
<glyph glyph-name="B" unicode="B" horiz-adv-x="681" d="M83 0 L361 0 C569 0 645 89 645 218 C645 315 566 370 518 384 L518 386 C555 406 594 453 594 512 C594 645 504 707 331 707 L83 707 L83 0 Z M254 133 L254 301 L338 301 C436 301 475 278 475 214 C475 157 440 133 350 133 L254 133 Z M254 417 L254 577 L306 577 C386 577 426 558 426 498 C426 435 389 417 315 417 L254 417 Z " />
<glyph glyph-name="C" unicode="C" horiz-adv-x="677" d="M429 -12 C520 -12 579 -1 647 24 L611 152 C557 138 516 132 447 132 C304 132 210 211 210 359 C210 507 299 579 427 577 C505 576 533 569 600 551 L645 674 C592 698 530 718 425 718 C184 718 37 579 37 349 C37 117 170 -12 429 -12 L429 -12 Z " />
<glyph glyph-name="D" unicode="D" horiz-adv-x="787" d="M83 0 L342 0 C597 0 749 111 749 356 C749 602 581 707 336 707 L83 707 L83 0 Z M252 133 L252 574 L333 574 C503 574 579 498 579 346 C579 207 516 133 353 133 L252 133 Z " />
<glyph glyph-name="E" unicode="E" horiz-adv-x="611" d="M83 0 L570 0 L570 133 L253 133 L253 293 L525 293 L525 417 L253 417 L253 574 L547 574 L547 707 L83 707 L83 0 Z " />
<glyph glyph-name="F" unicode="F" horiz-adv-x="611" d="M83 0 L253 0 L253 276 L555 276 L555 399 L253 399 L253 574 L577 574 L577 707 L83 707 L83 0 Z " />
<glyph glyph-name="G" unicode="G" horiz-adv-x="709" d="M427 -10 C513 -10 580 0 660 31 L660 350 L490 350 L490 133 C476 133 461 132 445 132 C316 132 212 203 212 359 C212 515 306 577 432 577 C504 577 535 568 602 551 L647 674 C591 697 535 717 435 717 C178 717 39 605 39 349 C39 104 192 -10 427 -10 L427 -10 Z " />
<glyph glyph-name="H" unicode="H" horiz-adv-x="806" d="M83 0 L253 0 L253 291 L553 291 L553 0 L723 0 L723 707 L553 707 L553 420 L253 420 L253 707 L83 707 L83 0 Z " />
<glyph glyph-name="I" unicode="I" horiz-adv-x="336" d="M83 0 L253 0 L253 707 L83 707 L83 0 Z " />
<glyph glyph-name="J" unicode="J" horiz-adv-x="338" d="M2 -198 C236 -122 257 11 257 153 L257 707 L86 707 L86 151 C86 33 60 -10 -59 -76 L2 -198 Z " />
<glyph glyph-name="K" unicode="K" horiz-adv-x="723" d="M83 0 L253 0 L253 354 L511 0 L728 0 L426 376 L712 707 L495 707 L253 404 L253 707 L83 707 L83 0 Z " />
<glyph glyph-name="L" unicode="L" horiz-adv-x="569" d="M83 0 L560 0 L560 134 L253 134 L253 707 L83 707 L83 0 Z " />
<glyph glyph-name="M" unicode="M" horiz-adv-x="993" d="M83 0 L253 0 L253 263 L243 430 L247 430 L387 0 L577 0 L743 429 L747 429 L740 263 L740 0 L910 0 L910 707 L713 707 L487 152 L290 707 L83 707 L83 0 Z " />
<glyph glyph-name="N" unicode="N" horiz-adv-x="806" d="M83 0 L253 0 L253 379 L249 473 L253 473 L520 0 L723 0 L723 707 L553 707 L553 301 L558 222 L555 222 L280 707 L83 707 L83 0 Z " />
<glyph glyph-name="O" unicode="O" horiz-adv-x="833" d="M408 -12 C660 -12 795 128 795 353 C795 564 684 718 427 718 C186 718 38 578 38 355 C38 128 160 -12 408 -12 L408 -12 Z M411 122 C267 122 210 227 210 356 C210 486 268 584 418 584 C561 584 622 486 622 354 C622 222 567 122 411 122 L411 122 Z " />
<glyph glyph-name="P" unicode="P" horiz-adv-x="650" d="M83 0 L254 0 L254 200 L306 200 C517 200 631 317 631 456 C631 614 517 707 358 707 L83 707 L83 0 Z M254 574 L336 574 C427 574 456 523 456 452 C456 386 418 331 312 331 L254 331 L254 574 Z " />
<glyph glyph-name="Q" unicode="Q" horiz-adv-x="847" d="M408 -12 C504 -12 582 8 643 45 L727 -38 L807 30 L722 115 C770 176 795 257 795 353 C795 564 684 718 427 718 C186 718 38 578 38 355 C38 128 160 -12 408 -12 L408 -12 Z M411 122 C267 122 210 227 210 356 C210 486 268 584 418 584 C561 584 622 486 622 354 C622 310 616 270 602 236 L507 333 L425 264 L535 153 C504 133 463 122 411 122 L411 122 Z " />
<glyph glyph-name="R" unicode="R" horiz-adv-x="749" d="M83 0 L254 0 L254 244 L306 244 C319 244 335 244 347 245 L527 0 L744 0 L517 285 C593 328 631 397 631 476 C631 634 517 707 358 707 L83 707 L83 0 Z M254 363 L254 573 L336 573 C427 573 456 543 456 472 C456 405 413 363 312 363 L254 363 Z " />
<glyph glyph-name="S" unicode="S" horiz-adv-x="585" d="M263 -12 C409 -12 557 55 557 210 C557 427 215 417 215 511 C215 550 253 577 308 577 C380 577 423 562 475 539 L524 664 C473 695 415 718 303 718 C178 718 49 650 49 514 C49 274 385 319 385 204 C385 161 346 128 261 128 C183 128 137 146 75 171 L26 45 C79 16 147 -12 263 -12 L263 -12 Z " />
<glyph glyph-name="T" unicode="T" horiz-adv-x="634" d="M232 0 L402 0 L402 574 L624 574 L624 707 L10 707 L10 574 L232 574 L232 0 Z " />
<glyph glyph-name="U" unicode="U" horiz-adv-x="793" d="M400 -13 C558 -13 724 65 724 312 L724 707 L557 707 L557 315 C557 189 507 126 400 126 C292 126 243 186 243 294 L243 707 L71 707 L71 288 C71 59 237 -13 400 -13 L400 -13 Z " />
<glyph glyph-name="V" unicode="V" horiz-adv-x="722" d="M243 0 L462 0 L737 707 L564 707 L356 127 L181 707 L2 707 L243 0 Z " />
<glyph glyph-name="W" unicode="W" horiz-adv-x="1068" d="M1061 707 L889 706 L761 112 L621 707 L468 707 L303 106 L203 707 L28 707 L180 0 L407 0 L532 472 L645 0 L867 0 L1061 707 Z " />
<glyph glyph-name="X" unicode="X" horiz-adv-x="688" d="M-3 0 L187 0 L339 238 L480 0 L676 0 L438 365 L676 707 L486 707 L348 490 L220 707 L25 707 L250 362 L-3 0 Z " />
<glyph glyph-name="Y" unicode="Y" horiz-adv-x="698" d="M262 0 L432 0 L432 233 L710 707 L519 707 L353 370 L197 707 L1 707 L262 227 L262 0 Z " />
<glyph glyph-name="Z" unicode="Z" horiz-adv-x="624" d="M33 0 L588 0 L588 141 L238 141 L567 599 L567 707 L59 707 L59 566 L358 566 L33 114 L33 0 Z " />
<glyph glyph-name="bracketleft" unicode="&#x5b;" horiz-adv-x="358" d="M71 -220 L338 -220 L338 -92 L228 -92 L228 626 L338 626 L338 754 L71 754 L71 -220 Z " />
<glyph glyph-name="backslash" unicode="&#x5c;" horiz-adv-x="418" d="M252 -62 L399 -62 L166 769 L19 769 L252 -62 Z " />
<glyph glyph-name="bracketright" unicode="&#x5d;" horiz-adv-x="358" d="M20 -220 L287 -220 L287 754 L20 754 L20 626 L130 626 L130 -92 L20 -92 L20 -220 Z " />
<glyph glyph-name="asciicircum" unicode="&#x5e;" horiz-adv-x="558" d="M23 294 L178 294 L284 580 L380 294 L538 294 L377 707 L195 707 L23 294 Z " />
<glyph glyph-name="underscore" unicode="&#x5f;" horiz-adv-x="556" d="M20 -199 L536 -199 L536 -66 L20 -66 L20 -199 Z " />
<glyph glyph-name="grave" unicode="&#x60;" horiz-adv-x="584" d="M397 601 L445 701 L207 822 L153 705 L397 601 Z " />
<glyph glyph-name="a" unicode="a" horiz-adv-x="594" d="M215 -9 C275 -9 332 22 372 53 C387 6 457 -5 523 -5 C536 -5 549 -5 562 -4 L568 122 C537 123 519 127 519 145 L519 388 C519 511 451 559 282 559 C195 559 123 539 61 515 L94 394 C145 408 203 418 257 418 C325 418 356 404 356 356 L356 322 L261 322 C153 322 27 294 27 156 C27 47 95 -9 215 -9 L215 -9 Z M250 120 C220 120 189 134 189 166 C189 206 225 222 274 223 L356 225 L356 139 C320 127 282 120 250 120 L250 120 Z " />
<glyph glyph-name="b" unicode="b" horiz-adv-x="635" d="M295 -11 C453 -11 601 66 601 302 C601 494 503 559 339 559 C296 559 260 550 228 537 L228 754 L62 754 L62 25 C123 5 182 -11 295 -11 L295 -11 Z M309 435 C398 435 431 404 431 301 C431 199 383 119 298 119 C271 119 247 126 228 130 L228 422 C252 430 279 435 309 435 L309 435 Z " />
<glyph glyph-name="c" unicode="c" horiz-adv-x="531" d="M351 -11 C412 -11 440 -4 499 9 L476 136 C431 128 406 122 360 122 C229 122 204 171 204 276 C204 393 270 424 339 424 C395 424 419 418 463 401 L506 522 C463 545 412 560 332 560 C147 560 33 448 33 278 C33 74 120 -11 351 -11 L351 -11 Z " />
<glyph glyph-name="d" unicode="d" horiz-adv-x="637" d="M279 -8 C348 -8 379 20 403 39 L403 0 L570 0 L570 754 L403 754 L403 554 C386 556 361 560 331 560 C165 560 34 469 34 282 C34 45 169 -8 279 -8 L279 -8 Z M312 130 C253 130 200 160 200 279 C200 374 239 428 334 428 C364 428 386 424 403 421 L403 148 C378 138 342 130 312 130 L312 130 Z " />
<glyph glyph-name="e" unicode="e" horiz-adv-x="587" d="M331 -12 C397 -12 475 -1 536 19 L511 142 C454 129 392 120 355 120 C268 120 200 136 201 222 L555 222 L555 282 C555 447 487 559 315 559 C150 559 35 488 35 265 C35 47 151 -12 331 -12 L331 -12 Z M206 329 C209 401 246 441 303 441 C357 441 386 395 384 329 L206 329 Z " />
<glyph glyph-name="f" unicode="f" horiz-adv-x="401" d="M104 0 L271 0 L271 431 L388 431 L388 546 L271 546 L271 565 C271 608 286 639 327 639 C347 639 373 636 393 631 L419 755 C386 765 361 770 321 770 C207 770 104 735 104 566 L104 546 L24 546 L24 431 L104 431 L104 0 Z " />
<glyph glyph-name="g" unicode="g" horiz-adv-x="605" d="M274 191 C396 191 506 255 506 367 C506 379 502 415 500 426 L583 426 L583 543 L408 530 C388 540 340 559 270 559 C130 559 39 470 39 362 C39 290 70 247 115 222 C72 190 49 145 49 104 C49 72 63 43 92 23 C50 -5 31 -56 31 -90 C31 -181 108 -230 269 -230 C454 -230 543 -139 543 -27 C543 88 465 134 315 134 L212 134 C183 134 169 147 169 164 C169 174 174 187 184 199 C212 193 243 191 274 191 L274 191 Z M329 0 C373 0 410 -11 410 -49 C410 -85 354 -107 264 -107 C179 -107 147 -78 147 -42 C147 -28 151 -13 159 1 C167 0 176 0 185 0 L329 0 Z M273 289 C215 289 186 320 186 364 C186 416 215 452 275 452 C328 452 358 413 358 369 C358 326 325 289 273 289 L273 289 Z " />
<glyph glyph-name="h" unicode="h" horiz-adv-x="657" d="M67 0 L234 0 L234 384 C261 397 306 414 356 414 C412 414 429 401 429 326 L429 0 L595 0 L595 340 C595 464 583 559 412 559 C339 559 270 517 234 488 L234 754 L67 754 L67 0 Z " />
<glyph glyph-name="i" unicode="i" horiz-adv-x="301" d="M67 0 L234 0 L234 546 L67 546 L67 0 Z M66 643 L232 643 L232 792 L66 792 L66 643 Z " />
<glyph glyph-name="j" unicode="j" horiz-adv-x="300" d="M12 -225 C128 -225 233 -188 233 2 L233 546 L67 546 L67 3 C67 -65 49 -84 6 -84 C-25 -84 -57 -78 -85 -68 L-116 -197 C-81 -213 -27 -225 12 -225 L12 -225 Z M65 643 L231 643 L231 792 L65 792 L65 643 Z " />
<glyph glyph-name="k" unicode="k" horiz-adv-x="598" d="M67 0 L234 0 L234 225 L391 0 L597 0 L365 294 L564 546 L385 546 L234 344 L234 754 L67 754 L67 0 Z " />
<glyph glyph-name="l" unicode="l" horiz-adv-x="301" d="M67 0 L234 0 L234 754 L67 754 L67 0 Z " />
<glyph glyph-name="m" unicode="m" horiz-adv-x="989" d="M67 0 L234 0 L234 387 C264 403 309 414 346 414 C396 414 414 403 414 328 L414 0 L580 0 L580 343 C580 357 580 371 578 385 C609 401 655 416 691 416 C743 416 760 395 760 328 L760 0 L927 0 L927 342 C927 434 930 561 752 561 C681 561 606 516 564 478 C542 529 489 561 411 561 C346 561 280 526 234 491 L234 546 L67 546 L67 0 Z " />
<glyph glyph-name="n" unicode="n" horiz-adv-x="657" d="M67 0 L234 0 L234 387 C261 400 306 416 356 416 C412 416 429 403 429 328 L429 0 L595 0 L595 342 C595 466 583 560 412 560 C339 560 267 516 234 491 L234 546 L67 546 L67 0 Z " />
<glyph glyph-name="o" unicode="o" horiz-adv-x="632" d="M309 -12 C477 -12 599 87 599 273 C599 451 512 560 318 560 C145 560 32 449 32 268 C32 97 129 -12 309 -12 L309 -12 Z M317 121 C228 121 200 178 200 272 C200 361 225 428 315 428 C407 428 429 361 429 273 C429 180 407 121 317 121 L317 121 Z " />
<glyph glyph-name="p" unicode="p" horiz-adv-x="640" d="M67 -220 L233 -220 L233 -6 C253 -7 275 -10 300 -10 C459 -10 606 70 606 298 C606 491 515 560 365 560 C315 560 255 526 233 507 L233 546 L67 546 L67 -220 Z M304 117 C277 117 249 121 233 123 L233 405 C254 412 287 420 315 420 C399 420 438 391 438 293 C438 191 389 117 304 117 L304 117 Z " />
<glyph glyph-name="q" unicode="q" horiz-adv-x="635" d="M403 -220 L570 -220 L570 531 C490 552 444 560 331 560 C165 560 34 467 34 280 C34 33 181 -8 298 -8 C348 -8 380 6 403 20 L403 -220 Z M312 131 C253 131 200 158 200 277 C200 372 239 428 334 428 C364 428 386 424 403 421 L403 144 C381 138 342 131 312 131 L312 131 Z " />
<glyph glyph-name="r" unicode="r" horiz-adv-x="452" d="M67 0 L234 0 L234 370 C256 394 306 417 355 417 C385 417 396 417 428 411 L450 548 C427 555 405 557 375 557 C312 557 261 508 234 473 L234 546 L67 546 L67 0 Z " />
<glyph glyph-name="s" unicode="s" horiz-adv-x="503" d="M234 -12 C326 -12 477 23 477 167 C477 350 204 333 204 395 C204 415 226 428 272 428 C328 428 370 420 423 408 L451 529 C394 549 334 560 267 560 C148 560 37 505 37 387 C37 191 312 219 312 160 C312 138 293 122 218 122 C181 122 124 127 53 137 L35 11 C91 -5 155 -12 234 -12 L234 -12 Z " />
<glyph glyph-name="t" unicode="t" horiz-adv-x="485" d="M303 -13 C343 -13 416 -3 458 12 L442 143 C402 134 361 127 324 127 C279 127 264 140 264 180 L264 423 L433 423 L433 546 L264 546 L264 658 L98 658 L98 546 L18 546 L18 423 L98 423 L98 170 C98 32 172 -13 303 -13 L303 -13 Z " />
<glyph glyph-name="u" unicode="u" horiz-adv-x="657" d="M245 -12 C318 -12 390 31 423 56 L423 0 L590 0 L590 546 L423 546 L423 160 C396 147 351 133 301 133 C245 133 228 146 228 221 L228 546 L62 546 L62 207 C62 83 74 -12 245 -12 L245 -12 Z " />
<glyph glyph-name="v" unicode="v" horiz-adv-x="599" d="M196 0 L394 0 L606 546 L431 546 L329 250 L298 141 L270 250 L178 546 L-1 546 L196 0 Z " />
<glyph glyph-name="w" unicode="w" horiz-adv-x="913" d="M158 0 L365 0 L436 298 L457 389 L475 298 L539 0 L744 0 L906 546 L735 546 L645 136 L560 546 L363 546 L263 136 L193 546 L18 546 L158 0 Z " />
<glyph glyph-name="x" unicode="x" horiz-adv-x="602" d="M4 0 L200 0 L300 178 L399 0 L598 0 L394 279 L581 546 L392 546 L300 380 L211 546 L19 546 L206 279 L4 0 Z " />
<glyph glyph-name="y" unicode="y" horiz-adv-x="597" d="M173 -220 L332 -220 L599 546 L431 546 L322 222 L295 133 L272 222 L178 546 L-1 546 L187 0 L247 0 L173 -220 Z " />
<glyph glyph-name="z" unicode="z" horiz-adv-x="529" d="M34 0 L490 0 L490 132 L236 132 L486 440 L486 546 L50 546 L50 412 L290 412 L34 109 L34 0 Z " />
<glyph glyph-name="braceleft" unicode="&#x7b;" horiz-adv-x="380" d="M300 -223 L359 -223 L359 -83 L309 -83 C257 -83 243 -48 247 -17 L268 155 C276 219 251 251 209 272 L209 274 C250 295 276 326 268 390 L247 563 C243 594 261 629 309 629 L359 629 L359 768 L300 768 C164 768 85 726 85 606 C85 597 86 587 87 577 L107 388 C109 369 96 336 31 336 L31 209 C96 209 109 177 107 157 L87 -32 C86 -42 85 -52 85 -61 C85 -180 164 -223 300 -223 L300 -223 Z " />
<glyph glyph-name="bar" unicode="&#x7c;" horiz-adv-x="289" d="M71 -220 L218 -220 L218 754 L71 754 L71 -220 Z " />
<glyph glyph-name="braceright" unicode="&#x7d;" horiz-adv-x="380" d="M80 -223 C216 -223 295 -180 295 -61 C295 -52 294 -42 293 -32 L273 157 C271 177 284 209 349 209 L349 336 C284 336 271 369 273 388 L293 577 C294 587 295 597 295 606 C295 726 216 768 80 768 L21 768 L21 629 L71 629 C119 629 137 594 133 563 L112 390 C104 326 130 295 171 274 L171 272 C129 251 104 219 112 155 L133 -17 C137 -48 123 -83 71 -83 L21 -83 L21 -223 L80 -223 Z " />
<glyph glyph-name="asciitilde" unicode="&#x7e;" horiz-adv-x="559" d="M365 240 C421 240 500 291 530 344 L454 438 C406 396 383 405 366 405 C308 405 277 466 187 466 C128 466 73 422 30 369 L107 267 C134 292 157 300 182 300 C233 300 277 240 365 240 L365 240 Z " />
<glyph glyph-name="uni00A0" unicode="&#xa0;" horiz-adv-x="231" d="" />
<glyph glyph-name="exclamdown" unicode="&#xa1;" horiz-adv-x="317" d="M75 -161 L242 -161 L242 133 L232 326 L85 326 L75 133 L75 -161 Z M75 399 L243 399 L243 546 L75 546 L75 399 Z " />
<glyph glyph-name="cent" unicode="&#xa2;" horiz-adv-x="519" d="M237 0 L379 0 L379 93 C416 95 440 100 486 110 L463 237 C427 232 408 227 379 225 L379 522 C403 519 421 513 450 502 L493 623 C461 640 427 653 379 658 L379 753 L237 753 L237 652 C105 622 30 521 30 379 C30 210 87 124 237 100 L237 0 Z M201 377 C201 433 215 469 237 492 L237 253 C207 277 201 318 201 377 L201 377 Z " />
<glyph glyph-name="sterling" unicode="&#xa3;" horiz-adv-x="536" d="M510 0 L510 132 L231 132 C249 158 261 189 270 225 L435 225 L435 357 L287 357 C288 386 290 417 290 450 L290 491 C290 568 325 561 448 572 L442 708 C279 708 119 695 119 494 L119 435 C119 407 120 381 121 357 L33 357 L33 225 L114 225 C106 182 91 153 52 132 L52 0 L510 0 Z " />
<glyph glyph-name="currency" unicode="&#xa4;" horiz-adv-x="701" d="M41 56 L119 56 L119 0 L290 0 L290 56 L619 56 L619 176 L290 176 L290 230 L342 230 C553 230 667 327 667 466 C667 624 553 707 394 707 L119 707 L119 351 L41 351 L41 230 L119 230 L119 176 L41 176 L41 56 Z M290 574 L372 574 C463 574 492 533 492 462 C492 396 454 351 348 351 L290 351 L290 574 Z " />
<glyph glyph-name="yen" unicode="&#xa5;" horiz-adv-x="740" d="M725 707 L534 707 L368 370 L212 707 L16 707 L208 353 L63 353 L63 220 L277 220 L277 132 L63 132 L63 0 L678 0 L678 132 L447 132 L447 220 L678 220 L678 353 L517 353 L725 707 Z " />
<glyph glyph-name="brokenbar" unicode="&#xa6;" horiz-adv-x="329" d="M91 -220 L238 -220 L238 141 L91 141 L91 -220 Z M91 392 L238 392 L238 754 L91 754 L91 392 Z " />
<glyph glyph-name="section" unicode="&#xa7;" horiz-adv-x="575" d="M116 -220 C303 -220 475 -104 475 57 C475 99 468 165 454 235 L387 506 C383 527 376 559 376 587 C376 615 386 638 420 638 C456 638 492 622 516 599 C528 611 586 699 586 699 C535 748 460 761 413 761 C230 761 55 645 55 477 C55 444 59 412 65 380 L133 87 C139 52 146 14 146 -22 C146 -44 142 -94 112 -94 C76 -94 31 -62 31 -62 L-10 -180 C17 -204 72 -220 116 -220 L116 -220 Z M273 -86 C281 -43 285 -19 285 9 C285 37 281 62 278 82 L205 400 C201 419 196 458 197 488 C197 523 209 586 253 620 C249 592 246 566 246 542 C246 512 249 483 253 459 L325 145 C331 113 336 81 336 48 C336 -23 292 -65 273 -86 L273 -86 Z " />
<glyph glyph-name="dieresis" unicode="&#xa8;" horiz-adv-x="432" d="M175 643 L175 792 L19 792 L19 643 L175 643 Z M428 643 L428 792 L272 792 L272 643 L428 643 Z " />
<glyph glyph-name="copyright" unicode="&#xa9;" horiz-adv-x="833" d="M432 145 C490 145 519 152 560 169 L533 256 C499 244 482 243 440 243 C379 243 334 275 334 346 C334 419 377 448 432 448 C464 448 490 447 531 433 L559 513 C526 534 480 542 430 542 C306 542 232 461 232 342 C232 232 307 145 432 145 L432 145 Z M408 -11 C634 -11 770 126 770 344 C770 551 654 699 427 699 C211 699 63 570 63 346 C63 130 189 -11 408 -11 L408 -11 Z M412 59 C239 59 148 189 148 347 C148 510 243 629 418 629 C587 629 684 510 684 345 C684 181 593 59 412 59 L412 59 Z " />
<glyph glyph-name="ordfeminine" unicode="&#xaa;" horiz-adv-x="424" d="M163 389 C197 389 228 404 251 420 C267 391 324 390 366 392 L370 471 C351 472 342 471 342 479 L342 617 C342 710 266 713 202 713 C151 713 110 702 69 687 L91 611 C124 619 157 625 187 625 C227 625 239 621 239 599 L239 578 L190 578 C128 578 51 565 51 484 C51 420 93 389 163 389 L163 389 Z M175 471 C159 471 154 477 154 491 C154 514 184 513 195 513 L239 514 L239 479 C219 475 191 471 175 471 L175 471 Z M59 283 L369 283 L369 361 L59 361 L59 283 Z " />
<glyph glyph-name="guillemotleft" unicode="&#xab;" horiz-adv-x="523" d="M159 43 L260 93 L170 272 L261 457 L158 499 L31 272 L159 43 Z M379 43 L480 93 L390 272 L481 457 L378 499 L251 272 L379 43 Z " />
<glyph glyph-name="logicalnot" unicode="&#xac;" horiz-adv-x="620" d="M418 86 L555 86 L555 369 L50 369 L50 242 L418 242 L418 86 Z " />
<glyph glyph-name="registered" unicode="&#xae;" horiz-adv-x="560" d="M527 531 C527 701 399 764 281 764 C143 764 33 680 33 531 C33 359 173 302 282 302 C418 302 527 384 527 531 L527 531 Z M471 531 C471 414 391 351 287 351 C222 351 88 377 88 535 C88 663 179 715 282 715 C377 715 471 659 471 531 L471 531 Z M412 449 C392 458 385 463 377 471 C369 479 352 505 347 514 C374 530 388 555 388 584 C388 641 344 669 285 669 L180 668 L180 410 L251 410 L251 501 L280 501 C297 468 304 446 324 430 C348 410 372 405 404 404 L412 449 Z M321 584 C321 560 315 539 281 539 L250 539 L250 625 L284 625 C315 625 321 609 321 584 L321 584 Z " />
<glyph glyph-name="macron" unicode="&#xaf;" horiz-adv-x="556" d="M110 646 L438 646 L438 775 L110 775 L110 646 Z " />
<glyph glyph-name="degree" unicode="&#xb0;" horiz-adv-x="394" d="M196 402 C287 402 360 462 360 560 C360 657 292 717 198 717 C110 717 35 658 35 560 C35 460 94 402 196 402 L196 402 Z M197 504 C170 504 154 523 154 560 C154 600 170 614 197 614 C222 614 239 600 239 560 C239 516 223 504 197 504 L197 504 Z " />
<glyph glyph-name="plusminus" unicode="&#xb1;" horiz-adv-x="538" d="M46 0 L492 0 L492 126 L332 126 L329 284 L492 282 L492 408 L326 401 L332 565 L206 565 L207 404 L46 408 L46 282 L207 284 L206 126 L46 126 L46 0 Z " />
<glyph glyph-name="twosuperior" unicode="&#xb2;" horiz-adv-x="306" d="M10 415 L292 415 L292 510 L153 510 C232 550 289 606 289 666 C289 729 241 786 150 786 C85 786 51 770 16 743 L54 663 C74 676 97 685 126 685 C149 685 167 671 167 652 C167 613 86 542 10 490 L10 415 Z " />
<glyph glyph-name="threesuperior" unicode="&#xb3;" horiz-adv-x="305" d="M131 410 C220 410 291 440 291 529 C291 576 266 601 231 615 C258 628 273 658 273 686 C273 759 221 789 134 789 C96 789 54 781 21 764 L46 684 C72 696 92 700 123 700 C140 700 151 689 153 676 C153 652 148 638 88 632 L88 581 C147 581 170 571 170 542 C170 523 160 504 120 504 C89 504 65 506 30 514 L12 426 C42 418 73 410 131 410 L131 410 Z " />
<glyph glyph-name="acute" unicode="&#xb4;" horiz-adv-x="584" d="M202 601 L447 705 L393 822 L155 701 L202 601 Z " />
<glyph glyph-name="mu" unicode="&#xb5;" horiz-adv-x="683" d="M67 -220 L233 -220 L233 -15 L250 -15 C330 -15 402 35 438 64 C455 5 516 -5 589 -5 C603 -5 624 -5 638 -4 L644 122 C613 123 595 127 595 145 L595 546 L428 546 L428 160 C401 147 356 130 306 130 C254 130 233 141 233 203 L233 546 L67 546 L67 -220 Z " />
<glyph glyph-name="paragraph" unicode="&#xb6;" horiz-adv-x="629" d="M334 -226 C458 -226 562 -170 562 0 L562 707 L396 707 L396 1 C396 -68 379 -82 336 -82 C305 -82 270 -75 241 -67 L212 -205 C249 -218 295 -226 334 -226 L334 -226 Z M213 227 L350 227 L350 707 L300 707 C155 705 21 684 21 470 C21 322 80 227 213 227 L213 227 Z " />
<glyph glyph-name="periodcentered" unicode="&#xb7;" horiz-adv-x="267" d="M41 305 L226 305 L226 467 L41 467 L41 305 Z " />
<glyph glyph-name="cedilla" unicode="&#xb8;" horiz-adv-x="469" d="M189 -283 C252 -257 347 -213 347 -132 C347 -104 336 -76 325 -51 L196 -51 C201 -71 208 -93 208 -113 C208 -148 157 -168 132 -183 L189 -283 Z " />
<glyph glyph-name="onesuperior" unicode="&#xb9;" horiz-adv-x="240" d="M83 415 L204 415 L204 784 L10 779 L10 686 L83 686 L83 415 Z " />
<glyph glyph-name="ordmasculine" unicode="&#xba;" horiz-adv-x="435" d="M215 383 C315 383 388 441 388 549 C388 652 336 716 220 716 C117 716 49 651 49 546 C49 447 107 383 215 383 L215 383 Z M219 468 C172 468 156 496 156 548 C156 598 171 631 218 631 C267 631 279 598 279 549 C279 497 267 468 219 468 L219 468 Z M62 283 L372 283 L372 361 L62 361 L62 283 Z " />
<glyph glyph-name="guillemotright" unicode="&#xbb;" horiz-adv-x="522" d="M144 43 L271 272 L144 499 L41 457 L132 272 L43 93 L144 43 Z M364 43 L491 272 L364 499 L261 457 L352 272 L263 93 L364 43 Z " />
<glyph glyph-name="onequarter" unicode="&#xbc;" horiz-adv-x="829" d="M631 0 L739 0 L739 79 L789 79 L789 163 L739 163 L739 369 L575 369 L474 165 L474 79 L631 79 L631 0 Z M127 62 L671 607 L613 667 L70 124 L127 62 Z M104 415 L225 415 L225 784 L31 779 L31 686 L104 686 L104 415 Z M553 163 L631 306 L631 163 L553 163 Z " />
<glyph glyph-name="onehalf" unicode="&#xbd;" horiz-adv-x="832" d="M495 0 L777 0 L777 95 L638 95 C717 135 774 191 774 251 C774 314 726 371 635 371 C570 371 536 355 501 328 L539 248 C559 261 582 270 611 270 C634 270 652 256 652 237 C652 198 571 127 495 75 L495 0 Z M126 62 L670 607 L612 667 L69 124 L126 62 Z M105 415 L226 415 L226 784 L32 779 L32 686 L105 686 L105 415 Z " />
<glyph glyph-name="threequarters" unicode="&#xbe;" horiz-adv-x="837" d="M639 0 L747 0 L747 79 L797 79 L797 163 L747 163 L747 369 L583 369 L482 165 L482 79 L639 79 L639 0 Z M156 410 C245 410 316 440 316 529 C316 576 291 601 256 615 C283 628 298 658 298 686 C298 759 246 789 159 789 C121 789 79 781 46 764 L71 684 C97 696 117 700 148 700 C165 700 176 689 178 676 C178 652 173 638 113 632 L113 581 C172 581 195 571 195 542 C195 523 185 504 145 504 C114 504 90 506 55 514 L37 426 C67 418 98 410 156 410 L156 410 Z M150 62 L694 607 L636 667 L93 124 L150 62 Z M561 163 L639 306 L639 163 L561 163 Z " />
<glyph glyph-name="questiondown" unicode="&#xbf;" horiz-adv-x="405" d="M349 -164 L379 -27 C237 -16 194 11 194 52 C194 95 354 148 354 272 C354 299 351 324 334 361 L200 339 C210 314 209 297 209 284 C209 228 20 173 20 47 C20 -112 187 -153 349 -164 L349 -164 Z M170 399 L337 399 L337 546 L170 546 L170 399 Z " />
<glyph glyph-name="Agrave" unicode="&#xc0;" horiz-adv-x="718" d="M473 744 L496 857 L225 924 L198 793 L473 744 Z M-14 0 L156 0 L233 207 L472 207 L539 0 L715 0 L477 707 L258 707 L-14 0 Z M278 330 L361 602 L432 330 L278 330 Z " />
<glyph glyph-name="Aacute" unicode="&#xc1;" horiz-adv-x="718" d="M259 744 L534 793 L507 924 L236 857 L259 744 Z M-14 0 L156 0 L233 207 L472 207 L539 0 L715 0 L477 707 L258 707 L-14 0 Z M278 330 L361 602 L432 330 L278 330 Z " />
<glyph glyph-name="Acircumflex" unicode="&#xc2;" horiz-adv-x="718" d="M228 741 L361 802 L494 741 L553 848 L361 944 L170 848 L228 741 Z M-14 0 L156 0 L233 207 L472 207 L539 0 L715 0 L477 707 L258 707 L-14 0 Z M278 330 L361 602 L432 330 L278 330 Z " />
<glyph glyph-name="Atilde" unicode="&#xc3;" horiz-adv-x="718" d="M-14 0 L156 0 L233 207 L472 207 L539 0 L715 0 L477 707 L258 707 L-14 0 Z M278 330 L361 602 L432 330 L278 330 Z M425 755 C500 755 550 810 573 835 L518 909 C482 890 463 883 431 883 C397 883 371 921 308 921 C241 921 188 868 164 839 L227 765 C257 791 278 793 297 793 C336 793 374 755 425 755 L425 755 Z " />
<glyph glyph-name="Adieresis" unicode="&#xc4;" horiz-adv-x="718" d="M311 766 L311 915 L155 915 L155 766 L311 766 Z M570 766 L570 915 L414 915 L414 766 L570 766 Z M-14 0 L156 0 L233 207 L472 207 L539 0 L715 0 L477 707 L258 707 L-14 0 Z M278 330 L361 602 L432 330 L278 330 Z " />
<glyph glyph-name="Aring" unicode="&#xc5;" horiz-adv-x="718" d="M-14 0 L156 0 L233 207 L472 207 L539 0 L715 0 L477 707 L258 707 L-14 0 Z M278 330 L361 602 L432 330 L278 330 Z M368 744 C436 744 499 778 499 859 C499 953 417 978 365 978 C300 978 233 941 233 857 C233 768 305 744 368 744 L368 744 Z M366 808 C331 808 311 828 311 860 C311 892 327 909 366 909 C397 909 421 889 421 858 C418 827 401 808 366 808 L366 808 Z " />
<glyph glyph-name="AE" unicode="&#xc6;" horiz-adv-x="977" d="M-24 0 L168 0 L270 244 L449 244 L449 0 L936 0 L936 133 L619 133 L619 293 L891 293 L891 417 L619 417 L619 574 L913 574 L913 707 L308 707 L-24 0 Z M321 368 L407 574 L449 574 L449 368 L321 368 Z " />
<glyph glyph-name="Ccedilla" unicode="&#xc7;" horiz-adv-x="678" d="M333 -283 C396 -257 491 -213 491 -132 C491 -104 480 -76 469 -51 L340 -51 C345 -71 352 -93 352 -113 C352 -148 301 -168 276 -183 L333 -283 Z M429 -12 C520 -12 579 -1 647 24 L611 152 C557 138 516 132 447 132 C304 132 210 211 210 359 C210 507 299 579 427 577 C505 576 533 569 600 551 L645 674 C592 698 530 718 425 718 C184 718 37 579 37 349 C37 117 170 -12 429 -12 L429 -12 Z " />
<glyph glyph-name="Egrave" unicode="&#xc8;" horiz-adv-x="611" d="M425 744 L448 857 L177 924 L150 793 L425 744 Z M83 0 L570 0 L570 133 L253 133 L253 293 L525 293 L525 417 L253 417 L253 574 L547 574 L547 707 L83 707 L83 0 Z " />
<glyph glyph-name="Eacute" unicode="&#xc9;" horiz-adv-x="611" d="M230 744 L505 793 L478 924 L207 857 L230 744 Z M83 0 L570 0 L570 133 L253 133 L253 293 L525 293 L525 417 L253 417 L253 574 L547 574 L547 707 L83 707 L83 0 Z " />
<glyph glyph-name="Ecircumflex" unicode="&#xca;" horiz-adv-x="611" d="M190 741 L323 802 L456 741 L515 848 L323 944 L132 848 L190 741 Z M83 0 L570 0 L570 133 L253 133 L253 293 L525 293 L525 417 L253 417 L253 574 L547 574 L547 707 L83 707 L83 0 Z " />
<glyph glyph-name="Edieresis" unicode="&#xcb;" horiz-adv-x="611" d="M268 766 L268 915 L112 915 L112 766 L268 766 Z M527 766 L527 915 L371 915 L371 766 L527 766 Z M83 0 L570 0 L570 133 L253 133 L253 293 L525 293 L525 417 L253 417 L253 574 L547 574 L547 707 L83 707 L83 0 Z " />
<glyph glyph-name="Igrave" unicode="&#xcc;" horiz-adv-x="336" d="M257 744 L280 857 L9 924 L-18 793 L257 744 Z M83 0 L253 0 L253 707 L83 707 L83 0 Z " />
<glyph glyph-name="Iacute" unicode="&#xcd;" horiz-adv-x="336" d="M83 744 L358 793 L331 924 L60 857 L83 744 Z M83 0 L253 0 L253 707 L83 707 L83 0 Z " />
<glyph glyph-name="Icircumflex" unicode="&#xce;" horiz-adv-x="336" d="M33 741 L166 802 L299 741 L358 848 L166 944 L-25 848 L33 741 Z M83 0 L253 0 L253 707 L83 707 L83 0 Z " />
<glyph glyph-name="Idieresis" unicode="&#xcf;" horiz-adv-x="336" d="M115 766 L115 915 L-41 915 L-41 766 L115 766 Z M374 766 L374 915 L218 915 L218 766 L374 766 Z M83 0 L253 0 L253 707 L83 707 L83 0 Z " />
<glyph glyph-name="Eth" unicode="&#xd0;" horiz-adv-x="817" d="M39 299 L113 299 L113 0 L372 0 C627 0 779 111 779 356 C779 602 611 707 366 707 L113 707 L113 399 L39 399 L39 299 Z M282 133 L282 299 L413 299 L413 399 L282 399 L282 574 L363 574 C533 574 609 498 609 346 C609 207 546 133 383 133 L282 133 Z " />
<glyph glyph-name="Ntilde" unicode="&#xd1;" horiz-adv-x="806" d="M468 755 C543 755 593 810 616 835 L561 909 C525 890 506 883 474 883 C440 883 414 921 351 921 C284 921 231 868 207 839 L270 765 C300 791 321 793 340 793 C379 793 417 755 468 755 L468 755 Z M83 0 L253 0 L253 379 L249 473 L253 473 L520 0 L723 0 L723 707 L553 707 L553 301 L558 222 L555 222 L280 707 L83 707 L83 0 Z " />
<glyph glyph-name="Ograve" unicode="&#xd2;" horiz-adv-x="833" d="M520 744 L543 857 L272 924 L245 793 L520 744 Z M408 -12 C660 -12 795 128 795 353 C795 564 684 718 427 718 C186 718 38 578 38 355 C38 128 160 -12 408 -12 L408 -12 Z M411 122 C267 122 210 227 210 356 C210 486 268 584 418 584 C561 584 622 486 622 354 C622 222 567 122 411 122 L411 122 Z " />
<glyph glyph-name="Oacute" unicode="&#xd3;" horiz-adv-x="833" d="M324 744 L599 793 L572 924 L301 857 L324 744 Z M408 -12 C660 -12 795 128 795 353 C795 564 684 718 427 718 C186 718 38 578 38 355 C38 128 160 -12 408 -12 L408 -12 Z M411 122 C267 122 210 227 210 356 C210 486 268 584 418 584 C561 584 622 486 622 354 C622 222 567 122 411 122 L411 122 Z " />
<glyph glyph-name="Ocircumflex" unicode="&#xd4;" horiz-adv-x="833" d="M284 741 L417 802 L550 741 L609 848 L417 944 L226 848 L284 741 Z M408 -12 C660 -12 795 128 795 353 C795 564 684 718 427 718 C186 718 38 578 38 355 C38 128 160 -12 408 -12 L408 -12 Z M411 122 C267 122 210 227 210 356 C210 486 268 584 418 584 C561 584 622 486 622 354 C622 222 567 122 411 122 L411 122 Z " />
<glyph glyph-name="Otilde" unicode="&#xd5;" horiz-adv-x="833" d="M480 755 C555 755 605 810 628 835 L573 909 C537 890 518 883 486 883 C452 883 426 921 363 921 C296 921 243 868 219 839 L282 765 C312 791 333 793 352 793 C391 793 429 755 480 755 L480 755 Z M408 -12 C660 -12 795 128 795 353 C795 564 684 718 427 718 C186 718 38 578 38 355 C38 128 160 -12 408 -12 L408 -12 Z M411 122 C267 122 210 227 210 356 C210 486 268 584 418 584 C561 584 622 486 622 354 C622 222 567 122 411 122 L411 122 Z " />
<glyph glyph-name="Odieresis" unicode="&#xd6;" horiz-adv-x="833" d="M359 766 L359 915 L203 915 L203 766 L359 766 Z M618 766 L618 915 L462 915 L462 766 L618 766 Z M408 -12 C660 -12 795 128 795 353 C795 564 684 718 427 718 C186 718 38 578 38 355 C38 128 160 -12 408 -12 L408 -12 Z M411 122 C267 122 210 227 210 356 C210 486 268 584 418 584 C561 584 622 486 622 354 C622 222 567 122 411 122 L411 122 Z " />
<glyph glyph-name="multiply" unicode="&#xd7;" horiz-adv-x="567" d="M439 60 L526 151 L363 304 L526 458 L436 548 L281 391 L127 550 L40 459 L196 306 L40 152 L130 62 L282 219 L439 60 Z " />
<glyph glyph-name="Oslash" unicode="&#xd8;" horiz-adv-x="861" d="M104 -45 L192 46 C250 9 326 -12 421 -12 C673 -12 808 128 808 353 C808 452 783 538 730 602 L811 686 L738 754 L654 667 C599 700 528 718 440 718 C199 718 51 578 51 355 C51 257 74 175 120 114 L34 25 L104 -45 Z M424 122 C372 122 331 135 301 159 L611 479 C627 443 635 401 635 354 C635 222 580 122 424 122 L424 122 Z M223 356 C223 486 281 584 431 584 C478 584 515 573 545 554 L242 240 C229 274 223 314 223 356 L223 356 Z " />
<glyph glyph-name="Ugrave" unicode="&#xd9;" horiz-adv-x="795" d="M506 744 L529 857 L258 924 L231 793 L506 744 Z M401 -13 C559 -13 725 65 725 312 L725 707 L558 707 L558 315 C558 189 508 126 401 126 C293 126 244 186 244 294 L244 707 L72 707 L72 288 C72 59 238 -13 401 -13 L401 -13 Z " />
<glyph glyph-name="Uacute" unicode="&#xda;" horiz-adv-x="795" d="M317 744 L592 793 L565 924 L294 857 L317 744 Z M401 -13 C559 -13 725 65 725 312 L725 707 L558 707 L558 315 C558 189 508 126 401 126 C293 126 244 186 244 294 L244 707 L72 707 L72 288 C72 59 238 -13 401 -13 L401 -13 Z " />
<glyph glyph-name="Ucircumflex" unicode="&#xdb;" horiz-adv-x="795" d="M270 741 L403 802 L536 741 L595 848 L403 944 L212 848 L270 741 Z M401 -13 C559 -13 725 65 725 312 L725 707 L558 707 L558 315 C558 189 508 126 401 126 C293 126 244 186 244 294 L244 707 L72 707 L72 288 C72 59 238 -13 401 -13 L401 -13 Z " />
<glyph glyph-name="Udieresis" unicode="&#xdc;" horiz-adv-x="795" d="M350 766 L350 915 L194 915 L194 766 L350 766 Z M609 766 L609 915 L453 915 L453 766 L609 766 Z M401 -13 C559 -13 725 65 725 312 L725 707 L558 707 L558 315 C558 189 508 126 401 126 C293 126 244 186 244 294 L244 707 L72 707 L72 288 C72 59 238 -13 401 -13 L401 -13 Z " />
<glyph glyph-name="Yacute" unicode="&#xdd;" horiz-adv-x="698" d="M274 744 L549 793 L522 924 L251 857 L274 744 Z M262 0 L432 0 L432 233 L710 707 L519 707 L353 370 L197 707 L1 707 L262 227 L262 0 Z " />
<glyph glyph-name="Thorn" unicode="&#xde;" horiz-adv-x="651" d="M83 0 L254 0 L254 102 L306 102 C517 102 631 219 631 358 C631 516 517 609 358 609 L254 609 L254 707 L83 707 L83 0 Z M254 476 L336 476 C427 476 456 425 456 354 C456 288 418 233 312 233 L254 233 L254 476 Z " />
<glyph glyph-name="germandbls" unicode="&#xdf;" horiz-adv-x="668" d="M67 0 L233 0 L233 537 C233 599 255 635 317 635 C352 635 391 610 391 575 C391 517 296 464 296 378 C296 211 487 214 487 155 C487 128 442 119 401 119 C366 119 333 125 288 135 L268 7 C308 -7 373 -13 434 -13 C522 -13 651 28 651 165 C651 312 461 312 461 384 C461 442 568 484 568 586 C568 741 401 770 331 770 C182 770 67 712 67 538 L67 0 Z " />
<glyph glyph-name="agrave" unicode="&#xe0;" horiz-adv-x="594" d="M361 602 L409 702 L171 823 L117 706 L361 602 Z M215 -9 C275 -9 332 22 372 53 C387 6 457 -5 523 -5 C536 -5 549 -5 562 -4 L568 122 C537 123 519 127 519 145 L519 388 C519 511 451 559 282 559 C195 559 123 539 61 515 L94 394 C145 408 203 418 257 418 C325 418 356 404 356 356 L356 322 L261 322 C153 322 27 294 27 156 C27 47 95 -9 215 -9 L215 -9 Z M250 120 C220 120 189 134 189 166 C189 206 225 222 274 223 L356 225 L356 139 C320 127 282 120 250 120 L250 120 Z " />
<glyph glyph-name="aacute" unicode="&#xe1;" horiz-adv-x="594" d="M213 602 L458 706 L404 823 L166 702 L213 602 Z M215 -9 C275 -9 332 22 372 53 C387 6 457 -5 523 -5 C536 -5 549 -5 562 -4 L568 122 C537 123 519 127 519 145 L519 388 C519 511 451 559 282 559 C195 559 123 539 61 515 L94 394 C145 408 203 418 257 418 C325 418 356 404 356 356 L356 322 L261 322 C153 322 27 294 27 156 C27 47 95 -9 215 -9 L215 -9 Z M250 120 C220 120 189 134 189 166 C189 206 225 222 274 223 L356 225 L356 139 C320 127 282 120 250 120 L250 120 Z " />
<glyph glyph-name="acircumflex" unicode="&#xe2;" horiz-adv-x="594" d="M415 606 L483 698 L287 829 L85 699 L158 607 L286 696 L415 606 Z M215 -9 C275 -9 332 22 372 53 C387 6 457 -5 523 -5 C536 -5 549 -5 562 -4 L568 122 C537 123 519 127 519 145 L519 388 C519 511 451 559 282 559 C195 559 123 539 61 515 L94 394 C145 408 203 418 257 418 C325 418 356 404 356 356 L356 322 L261 322 C153 322 27 294 27 156 C27 47 95 -9 215 -9 L215 -9 Z M250 120 C220 120 189 134 189 166 C189 206 225 222 274 223 L356 225 L356 139 C320 127 282 120 250 120 L250 120 Z " />
<glyph glyph-name="atilde" unicode="&#xe3;" horiz-adv-x="594" d="M338 634 C413 634 463 689 486 714 L431 788 C395 769 376 762 344 762 C310 762 284 800 221 800 C154 800 101 747 77 718 L140 644 C170 670 191 672 210 672 C249 672 287 634 338 634 L338 634 Z M215 -9 C275 -9 332 22 372 53 C387 6 457 -5 523 -5 C536 -5 549 -5 562 -4 L568 122 C537 123 519 127 519 145 L519 388 C519 511 451 559 282 559 C195 559 123 539 61 515 L94 394 C145 408 203 418 257 418 C325 418 356 404 356 356 L356 322 L261 322 C153 322 27 294 27 156 C27 47 95 -9 215 -9 L215 -9 Z M250 120 C220 120 189 134 189 166 C189 206 225 222 274 223 L356 225 L356 139 C320 127 282 120 250 120 L250 120 Z " />
<glyph glyph-name="adieresis" unicode="&#xe4;" horiz-adv-x="594" d="M245 643 L245 792 L89 792 L89 643 L245 643 Z M498 643 L498 792 L342 792 L342 643 L498 643 Z M215 -9 C275 -9 332 22 372 53 C387 6 457 -5 523 -5 C536 -5 549 -5 562 -4 L568 122 C537 123 519 127 519 145 L519 388 C519 511 451 559 282 559 C195 559 123 539 61 515 L94 394 C145 408 203 418 257 418 C325 418 356 404 356 356 L356 322 L261 322 C153 322 27 294 27 156 C27 47 95 -9 215 -9 L215 -9 Z M250 120 C220 120 189 134 189 166 C189 206 225 222 274 223 L356 225 L356 139 C320 127 282 120 250 120 L250 120 Z " />
<glyph glyph-name="aring" unicode="&#xe5;" horiz-adv-x="594" d="M294 586 C370 586 440 624 440 714 C440 818 349 846 291 846 C219 846 144 805 144 712 C144 613 224 586 294 586 L294 586 Z M292 657 C253 657 231 679 231 715 C231 750 249 769 292 769 C327 769 353 747 353 713 C350 678 331 657 292 657 L292 657 Z M215 -9 C275 -9 332 22 372 53 C387 6 457 -5 523 -5 C536 -5 549 -5 562 -4 L568 122 C537 123 519 127 519 145 L519 388 C519 511 451 559 282 559 C195 559 123 539 61 515 L94 394 C145 408 203 418 257 418 C325 418 356 404 356 356 L356 322 L261 322 C153 322 27 294 27 156 C27 47 95 -9 215 -9 L215 -9 Z M250 120 C220 120 189 134 189 166 C189 206 225 222 274 223 L356 225 L356 139 C320 127 282 120 250 120 L250 120 Z " />
<glyph glyph-name="ae" unicode="&#xe6;" horiz-adv-x="908" d="M652 -9 C718 -9 794 1 855 19 L832 140 C775 130 712 121 675 121 C588 121 521 135 522 221 L876 229 L876 282 C876 447 810 559 638 559 C572 559 515 548 469 520 C422 556 351 559 282 559 C195 559 125 539 61 515 L94 394 C145 406 203 418 257 418 C325 418 356 410 356 362 L356 318 C326 318 261 315 261 315 C153 312 27 296 27 154 C27 45 95 -8 215 -8 C300 -8 370 40 408 74 C459 11 544 -9 652 -9 L652 -9 Z M242 119 C211 119 190 135 190 163 C190 187 200 212 274 214 L358 216 C361 188 366 164 373 142 C323 124 273 119 242 119 L242 119 Z M527 329 C527 408 575 439 626 439 C668 439 707 402 705 336 L527 329 Z " />
<glyph glyph-name="ccedilla" unicode="&#xe7;" horiz-adv-x="531" d="M351 -11 C412 -11 440 -4 499 9 L476 136 C431 128 406 122 360 122 C229 122 204 171 204 276 C204 393 270 424 339 424 C395 424 419 418 463 401 L506 522 C463 545 412 560 332 560 C147 560 33 448 33 278 C33 74 120 -11 351 -11 L351 -11 Z M243 -283 C306 -257 401 -213 401 -132 C401 -104 390 -76 379 -51 L250 -51 C255 -71 262 -93 262 -113 C262 -148 211 -168 186 -183 L243 -283 Z " />
<glyph glyph-name="egrave" unicode="&#xe8;" horiz-adv-x="587" d="M371 602 L419 702 L181 823 L127 706 L371 602 Z M331 -12 C397 -12 475 -1 536 19 L511 142 C454 129 392 120 355 120 C268 120 200 136 201 222 L555 222 L555 282 C555 447 487 559 315 559 C150 559 35 488 35 265 C35 47 151 -12 331 -12 L331 -12 Z M206 329 C209 401 246 441 303 441 C357 441 386 395 384 329 L206 329 Z " />
<glyph glyph-name="eacute" unicode="&#xe9;" horiz-adv-x="587" d="M225 602 L470 706 L416 823 L178 702 L225 602 Z M331 -12 C397 -12 475 -1 536 19 L511 142 C454 129 392 120 355 120 C268 120 200 136 201 222 L555 222 L555 282 C555 447 487 559 315 559 C150 559 35 488 35 265 C35 47 151 -12 331 -12 L331 -12 Z M206 329 C209 401 246 441 303 441 C357 441 386 395 384 329 L206 329 Z " />
<glyph glyph-name="ecircumflex" unicode="&#xea;" horiz-adv-x="587" d="M425 606 L493 698 L297 829 L95 699 L168 607 L296 696 L425 606 Z M331 -12 C397 -12 475 -1 536 19 L511 142 C454 129 392 120 355 120 C268 120 200 136 201 222 L555 222 L555 282 C555 447 487 559 315 559 C150 559 35 488 35 265 C35 47 151 -12 331 -12 L331 -12 Z M206 329 C209 401 246 441 303 441 C357 441 386 395 384 329 L206 329 Z " />
<glyph glyph-name="edieresis" unicode="&#xeb;" horiz-adv-x="587" d="M254 643 L254 792 L98 792 L98 643 L254 643 Z M507 643 L507 792 L351 792 L351 643 L507 643 Z M331 -12 C397 -12 475 -1 536 19 L511 142 C454 129 392 120 355 120 C268 120 200 136 201 222 L555 222 L555 282 C555 447 487 559 315 559 C150 559 35 488 35 265 C35 47 151 -12 331 -12 L331 -12 Z M206 329 C209 401 246 441 303 441 C357 441 386 395 384 329 L206 329 Z " />
<glyph glyph-name="igrave" unicode="&#xec;" horiz-adv-x="301" d="M216 602 L264 702 L26 823 L-28 706 L216 602 Z M67 0 L234 0 L234 546 L67 546 L67 0 Z " />
<glyph glyph-name="iacute" unicode="&#xed;" horiz-adv-x="301" d="M75 602 L320 706 L266 823 L28 702 L75 602 Z M67 0 L234 0 L234 546 L67 546 L67 0 Z " />
<glyph glyph-name="icircumflex" unicode="&#xee;" horiz-adv-x="301" d="M280 606 L348 698 L152 829 L-50 699 L23 607 L151 696 L280 606 Z M67 0 L234 0 L234 546 L67 546 L67 0 Z " />
<glyph glyph-name="idieresis" unicode="&#xef;" horiz-adv-x="301" d="M109 643 L109 792 L-47 792 L-47 643 L109 643 Z M362 643 L362 792 L206 792 L206 643 L362 643 Z M67 0 L234 0 L234 546 L67 546 L67 0 Z " />
<glyph glyph-name="eth" unicode="&#xf0;" horiz-adv-x="645" d="M310 -12 C479 -12 599 88 599 272 C599 501 520 615 420 698 L467 740 L416 793 L357 740 C326 758 295 771 266 780 L182 675 C205 665 227 655 247 644 L198 600 L248 547 L310 602 C337 581 369 551 388 524 C361 535 342 538 309 538 C156 538 33 419 33 258 C33 87 130 -12 310 -12 L310 -12 Z M318 121 C229 121 201 168 201 262 C201 351 227 406 306 406 C398 406 430 351 430 263 C430 170 408 121 318 121 L318 121 Z " />
<glyph glyph-name="ntilde" unicode="&#xf1;" horiz-adv-x="657" d="M385 634 C460 634 510 689 533 714 L478 788 C442 769 423 762 391 762 C357 762 331 800 268 800 C201 800 148 747 124 718 L187 644 C217 670 238 672 257 672 C296 672 334 634 385 634 L385 634 Z M67 0 L234 0 L234 387 C261 400 306 416 356 416 C412 416 429 403 429 328 L429 0 L595 0 L595 342 C595 466 583 560 412 560 C339 560 267 516 234 491 L234 546 L67 546 L67 0 Z " />
<glyph glyph-name="ograve" unicode="&#xf2;" horiz-adv-x="632" d="M396 602 L444 702 L206 823 L152 706 L396 602 Z M309 -12 C477 -12 599 87 599 273 C599 451 512 560 318 560 C145 560 32 449 32 268 C32 97 129 -12 309 -12 L309 -12 Z M317 121 C228 121 200 178 200 272 C200 361 225 428 315 428 C407 428 429 361 429 273 C429 180 407 121 317 121 L317 121 Z " />
<glyph glyph-name="oacute" unicode="&#xf3;" horiz-adv-x="632" d="M226 602 L471 706 L417 823 L179 702 L226 602 Z M309 -12 C477 -12 599 87 599 273 C599 451 512 560 318 560 C145 560 32 449 32 268 C32 97 129 -12 309 -12 L309 -12 Z M317 121 C228 121 200 178 200 272 C200 361 225 428 315 428 C407 428 429 361 429 273 C429 180 407 121 317 121 L317 121 Z " />
<glyph glyph-name="ocircumflex" unicode="&#xf4;" horiz-adv-x="632" d="M445 606 L513 698 L317 829 L115 699 L188 607 L316 696 L445 606 Z M309 -12 C477 -12 599 87 599 273 C599 451 512 560 318 560 C145 560 32 449 32 268 C32 97 129 -12 309 -12 L309 -12 Z M317 121 C228 121 200 178 200 272 C200 361 225 428 315 428 C407 428 429 361 429 273 C429 180 407 121 317 121 L317 121 Z " />
<glyph glyph-name="otilde" unicode="&#xf5;" horiz-adv-x="632" d="M369 634 C444 634 494 689 517 714 L462 788 C426 769 407 762 375 762 C341 762 315 800 252 800 C185 800 132 747 108 718 L171 644 C201 670 222 672 241 672 C280 672 318 634 369 634 L369 634 Z M309 -12 C477 -12 599 87 599 273 C599 451 512 560 318 560 C145 560 32 449 32 268 C32 97 129 -12 309 -12 L309 -12 Z M317 121 C228 121 200 178 200 272 C200 361 225 428 315 428 C407 428 429 361 429 273 C429 180 407 121 317 121 L317 121 Z " />
<glyph glyph-name="odieresis" unicode="&#xf6;" horiz-adv-x="632" d="M274 643 L274 792 L118 792 L118 643 L274 643 Z M527 643 L527 792 L371 792 L371 643 L527 643 Z M309 -12 C477 -12 599 87 599 273 C599 451 512 560 318 560 C145 560 32 449 32 268 C32 97 129 -12 309 -12 L309 -12 Z M317 121 C228 121 200 178 200 272 C200 361 225 428 315 428 C407 428 429 361 429 273 C429 180 407 121 317 121 L317 121 Z " />
<glyph glyph-name="divide" unicode="&#xf7;" horiz-adv-x="614" d="M236 46 L374 46 L374 174 L236 174 L236 46 Z M45 242 L569 242 L569 368 L45 368 L45 242 Z M236 433 L374 433 L374 561 L236 561 L236 433 Z " />
<glyph glyph-name="oslash" unicode="&#xf8;" horiz-adv-x="651" d="M318 -12 C486 -12 608 87 608 273 C608 350 591 414 557 462 L616 521 L567 570 L508 511 C464 543 404 560 327 560 C154 560 41 449 41 268 C41 196 58 136 91 89 L29 27 L79 -22 L140 39 C185 6 244 -12 318 -12 L318 -12 Z M326 121 C290 121 264 130 246 147 L433 335 C436 316 438 295 438 273 C438 180 416 121 326 121 L326 121 Z M209 272 C209 361 234 428 324 428 C358 428 383 418 400 402 L213 213 C210 231 209 250 209 272 L209 272 Z " />
<glyph glyph-name="ugrave" unicode="&#xf9;" horiz-adv-x="657" d="M388 602 L436 702 L198 823 L144 706 L388 602 Z M245 -12 C318 -12 390 31 423 56 L423 0 L590 0 L590 546 L423 546 L423 160 C396 147 351 133 301 133 C245 133 228 146 228 221 L228 546 L62 546 L62 207 C62 83 74 -12 245 -12 L245 -12 Z " />
<glyph glyph-name="uacute" unicode="&#xfa;" horiz-adv-x="657" d="M267 607 L512 711 L458 828 L220 707 L267 607 Z M245 -12 C318 -12 390 31 423 56 L423 0 L590 0 L590 546 L423 546 L423 160 C396 147 351 133 301 133 C245 133 228 146 228 221 L228 546 L62 546 L62 207 C62 83 74 -12 245 -12 L245 -12 Z " />
<glyph glyph-name="ucircumflex" unicode="&#xfb;" horiz-adv-x="657" d="M456 606 L524 698 L328 829 L126 699 L199 607 L327 696 L456 606 Z M245 -12 C318 -12 390 31 423 56 L423 0 L590 0 L590 546 L423 546 L423 160 C396 147 351 133 301 133 C245 133 228 146 228 221 L228 546 L62 546 L62 207 C62 83 74 -12 245 -12 L245 -12 Z " />
<glyph glyph-name="udieresis" unicode="&#xfc;" horiz-adv-x="657" d="M285 643 L285 792 L129 792 L129 643 L285 643 Z M538 643 L538 792 L382 792 L382 643 L538 643 Z M245 -12 C318 -12 390 31 423 56 L423 0 L590 0 L590 546 L423 546 L423 160 C396 147 351 133 301 133 C245 133 228 146 228 221 L228 546 L62 546 L62 207 C62 83 74 -12 245 -12 L245 -12 Z " />
<glyph glyph-name="yacute" unicode="&#xfd;" horiz-adv-x="597" d="M241 602 L486 706 L432 823 L194 702 L241 602 Z M173 -220 L332 -220 L599 546 L431 546 L322 222 L295 133 L272 222 L178 546 L-1 546 L187 0 L247 0 L173 -220 Z " />
<glyph glyph-name="thorn" unicode="&#xfe;" horiz-adv-x="640" d="M67 -220 L233 -220 L233 -6 C253 -7 275 -10 300 -10 C459 -10 606 70 606 298 C606 491 515 560 365 560 C315 560 255 526 233 507 L233 754 L67 754 L67 -220 Z M304 117 C277 117 249 121 233 123 L233 405 C254 412 287 420 315 420 C399 420 438 391 438 293 C438 191 389 117 304 117 L304 117 Z " />
<glyph glyph-name="ydieresis" unicode="&#xff;" horiz-adv-x="597" d="M258 643 L258 792 L102 792 L102 643 L258 643 Z M511 643 L511 792 L355 792 L355 643 L511 643 Z M173 -220 L332 -220 L599 546 L431 546 L322 222 L295 133 L272 222 L178 546 L-1 546 L187 0 L247 0 L173 -220 Z " />
<glyph glyph-name="Amacron" unicode="&#x100;" horiz-adv-x="718" d="M202 764 L530 764 L530 893 L202 893 L202 764 Z M-14 0 L156 0 L233 207 L472 207 L539 0 L715 0 L477 707 L258 707 L-14 0 Z M278 330 L361 602 L432 330 L278 330 Z " />
<glyph glyph-name="amacron" unicode="&#x101;" horiz-adv-x="594" d="M135 647 L463 647 L463 776 L135 776 L135 647 Z M215 -9 C275 -9 332 22 372 53 C387 6 457 -5 523 -5 C536 -5 549 -5 562 -4 L568 122 C537 123 519 127 519 145 L519 388 C519 511 451 559 282 559 C195 559 123 539 61 515 L94 394 C145 408 203 418 257 418 C325 418 356 404 356 356 L356 322 L261 322 C153 322 27 294 27 156 C27 47 95 -9 215 -9 L215 -9 Z M250 120 C220 120 189 134 189 166 C189 206 225 222 274 223 L356 225 L356 139 C320 127 282 120 250 120 L250 120 Z " />
<glyph glyph-name="Abreve" unicode="&#x102;" horiz-adv-x="718" d="M367 753 C471 753 534 818 566 865 L485 938 C451 903 413 876 371 876 C328 876 288 904 252 938 L166 864 C196 816 258 753 367 753 L367 753 Z M-14 0 L156 0 L233 207 L472 207 L539 0 L715 0 L477 707 L258 707 L-14 0 Z M278 330 L361 602 L432 330 L278 330 Z " />
<glyph glyph-name="abreve" unicode="&#x103;" horiz-adv-x="594" d="M304 614 C408 614 471 679 503 726 L422 799 C388 764 350 737 308 737 C265 737 225 765 189 799 L103 725 C133 677 195 614 304 614 L304 614 Z M215 -9 C275 -9 332 22 372 53 C387 6 457 -5 523 -5 C536 -5 549 -5 562 -4 L568 122 C537 123 519 127 519 145 L519 388 C519 511 451 559 282 559 C195 559 123 539 61 515 L94 394 C145 408 203 418 257 418 C325 418 356 404 356 356 L356 322 L261 322 C153 322 27 294 27 156 C27 47 95 -9 215 -9 L215 -9 Z M250 120 C220 120 189 134 189 166 C189 206 225 222 274 223 L356 225 L356 139 C320 127 282 120 250 120 L250 120 Z " />
<glyph glyph-name="Aogonek" unicode="&#x104;" horiz-adv-x="718" d="M742 -234 L714 -127 C691 -134 661 -136 642 -136 C628 -136 609 -132 609 -114 C609 -74 667 -30 714 0 L477 707 L258 707 L-14 0 L156 0 L233 208 L472 208 L539 0 C484 -58 451 -105 451 -148 C451 -226 500 -260 618 -260 C679 -260 708 -249 742 -234 L742 -234 Z M432 331 L278 331 L322 469 L361 602 L394 469 L432 331 Z " />
<glyph glyph-name="aogonek" unicode="&#x105;" horiz-adv-x="593" d="M575 -234 L547 -127 C524 -134 494 -136 475 -136 C461 -136 442 -132 442 -114 C442 -76 515 -35 560 -5 L568 122 C537 123 519 127 519 145 L519 387 C519 545 397 559 282 559 C195 559 125 539 61 515 L94 394 C145 406 203 418 257 418 C325 418 356 405 356 357 L356 323 L261 323 C153 323 27 292 27 154 C27 45 95 -8 215 -8 C275 -8 332 22 372 53 C377 35 398 9 416 0 C361 -37 299 -91 299 -149 C299 -209 333 -260 451 -260 C512 -260 541 -249 575 -234 L575 -234 Z M356 139 C320 129 283 120 251 120 C214 120 190 137 190 165 C190 197 201 221 274 223 L356 225 L356 139 Z " />
<glyph glyph-name="Cacute" unicode="&#x106;" horiz-adv-x="677" d="M290 744 L565 793 L538 924 L267 857 L290 744 Z M429 -12 C520 -12 579 -1 647 24 L611 152 C557 138 516 132 447 132 C304 132 210 211 210 359 C210 507 299 579 427 577 C505 576 533 569 600 551 L645 674 C592 698 530 718 425 718 C184 718 37 579 37 349 C37 117 170 -12 429 -12 L429 -12 Z " />
<glyph glyph-name="cacute" unicode="&#x107;" horiz-adv-x="531" d="M210 602 L455 706 L401 823 L163 702 L210 602 Z M351 -11 C412 -11 440 -4 499 9 L476 136 C431 128 406 122 360 122 C229 122 204 171 204 276 C204 393 270 424 339 424 C395 424 419 418 463 401 L506 522 C463 545 412 560 332 560 C147 560 33 448 33 278 C33 74 120 -11 351 -11 L351 -11 Z " />
<glyph glyph-name="Ccircumflex" unicode="&#x108;" horiz-adv-x="677" d="M295 741 L428 802 L561 741 L620 848 L428 944 L237 848 L295 741 Z M429 -12 C520 -12 579 -1 647 24 L611 152 C557 138 516 132 447 132 C304 132 210 211 210 359 C210 507 299 579 427 577 C505 576 533 569 600 551 L645 674 C592 698 530 718 425 718 C184 718 37 579 37 349 C37 117 170 -12 429 -12 L429 -12 Z " />
<glyph glyph-name="ccircumflex" unicode="&#x109;" horiz-adv-x="531" d="M449 606 L517 698 L321 829 L119 699 L192 607 L320 696 L449 606 Z M351 -11 C412 -11 440 -4 499 9 L476 136 C431 128 406 122 360 122 C229 122 204 171 204 276 C204 393 270 424 339 424 C395 424 419 418 463 401 L506 522 C463 545 412 560 332 560 C147 560 33 448 33 278 C33 74 120 -11 351 -11 L351 -11 Z " />
<glyph glyph-name="Cdotaccent" unicode="&#x10a;" horiz-adv-x="677" d="M333 774 L499 774 L499 923 L333 923 L333 774 Z M429 -12 C520 -12 579 -1 647 24 L611 152 C557 138 516 132 447 132 C304 132 210 211 210 359 C210 507 299 579 427 577 C505 576 533 569 600 551 L645 674 C592 698 530 718 425 718 C184 718 37 579 37 349 C37 117 170 -12 429 -12 L429 -12 Z " />
<glyph glyph-name="cdotaccent" unicode="&#x10b;" horiz-adv-x="531" d="M242 643 L408 643 L408 792 L242 792 L242 643 Z M351 -11 C412 -11 440 -4 499 9 L476 136 C431 128 406 122 360 122 C229 122 204 171 204 276 C204 393 270 424 339 424 C395 424 419 418 463 401 L506 522 C463 545 412 560 332 560 C147 560 33 448 33 278 C33 74 120 -11 351 -11 L351 -11 Z " />
<glyph glyph-name="Ccaron" unicode="&#x10c;" horiz-adv-x="677" d="M603 837 L544 943 L411 883 L278 943 L220 837 L411 740 L603 837 Z M429 -12 C520 -12 579 -1 647 24 L611 152 C557 138 516 132 447 132 C304 132 210 211 210 359 C210 507 299 579 427 577 C505 576 533 569 600 551 L645 674 C592 698 530 718 425 718 C184 718 37 579 37 349 C37 117 170 -12 429 -12 L429 -12 Z " />
<glyph glyph-name="ccaron" unicode="&#x10d;" horiz-adv-x="531" d="M297 600 L499 730 L426 822 L298 733 L169 823 L101 731 L297 600 Z M351 -11 C412 -11 440 -4 499 9 L476 136 C431 128 406 122 360 122 C229 122 204 171 204 276 C204 393 270 424 339 424 C395 424 419 418 463 401 L506 522 C463 545 412 560 332 560 C147 560 33 448 33 278 C33 74 120 -11 351 -11 L351 -11 Z " />
<glyph glyph-name="Dcaron" unicode="&#x10e;" horiz-adv-x="787" d="M550 837 L491 943 L358 883 L225 943 L167 837 L358 740 L550 837 Z M83 0 L342 0 C597 0 749 111 749 356 C749 602 581 707 336 707 L83 707 L83 0 Z M252 133 L252 574 L333 574 C503 574 579 498 579 346 C579 207 516 133 353 133 L252 133 Z " />
<glyph glyph-name="dcaron" unicode="&#x10f;" horiz-adv-x="733" d="M767 754 L627 754 L606 534 L722 534 L767 754 Z M279 -8 C348 -8 379 20 403 39 L403 0 L570 0 L570 754 L403 754 L403 554 C386 556 361 560 331 560 C165 560 34 469 34 282 C34 45 169 -8 279 -8 L279 -8 Z M312 130 C253 130 200 160 200 279 C200 374 239 428 334 428 C364 428 386 424 403 421 L403 148 C378 138 342 130 312 130 L312 130 Z " />
<glyph glyph-name="Dcroat" unicode="&#x110;" horiz-adv-x="817" d="M39 299 L113 299 L113 0 L372 0 C627 0 779 111 779 356 C779 602 611 707 366 707 L113 707 L113 399 L39 399 L39 299 Z M282 133 L282 299 L413 299 L413 399 L282 399 L282 574 L363 574 C533 574 609 498 609 346 C609 207 546 133 383 133 L282 133 Z " />
<glyph glyph-name="dcroat" unicode="&#x111;" horiz-adv-x="637" d="M301 611 L403 611 L403 554 C386 556 361 560 331 560 C165 560 34 469 34 282 C34 45 169 -7 279 -7 C348 -7 379 20 403 39 L403 0 L570 0 L570 611 L629 611 L629 690 L570 690 L570 754 L403 754 L403 690 L301 690 L301 611 Z M312 131 C253 131 200 160 200 279 C200 374 239 428 334 428 C364 428 386 424 403 421 L403 148 C378 138 342 131 312 131 L312 131 Z " />
<glyph glyph-name="Emacron" unicode="&#x112;" horiz-adv-x="611" d="M155 764 L483 764 L483 893 L155 893 L155 764 Z M83 0 L570 0 L570 133 L253 133 L253 293 L525 293 L525 417 L253 417 L253 574 L547 574 L547 707 L83 707 L83 0 Z " />
<glyph glyph-name="emacron" unicode="&#x113;" horiz-adv-x="587" d="M143 647 L471 647 L471 776 L143 776 L143 647 Z M331 -12 C397 -12 475 -1 536 19 L511 142 C454 129 392 120 355 120 C268 120 200 136 201 222 L555 222 L555 282 C555 447 487 559 315 559 C150 559 35 488 35 265 C35 47 151 -12 331 -12 L331 -12 Z M206 329 C209 401 246 441 303 441 C357 441 386 395 384 329 L206 329 Z " />
<glyph glyph-name="Ebreve" unicode="&#x114;" horiz-adv-x="611" d="M318 753 C422 753 485 818 517 865 L436 938 C402 903 364 876 322 876 C279 876 239 904 203 938 L117 864 C147 816 209 753 318 753 L318 753 Z M83 0 L570 0 L570 133 L253 133 L253 293 L525 293 L525 417 L253 417 L253 574 L547 574 L547 707 L83 707 L83 0 Z " />
<glyph glyph-name="ebreve" unicode="&#x115;" horiz-adv-x="587" d="M311 614 C415 614 478 679 510 726 L429 799 C395 764 357 737 315 737 C272 737 232 765 196 799 L110 725 C140 677 202 614 311 614 L311 614 Z M331 -12 C397 -12 475 -1 536 19 L511 142 C454 129 392 120 355 120 C268 120 200 136 201 222 L555 222 L555 282 C555 447 487 559 315 559 C150 559 35 488 35 265 C35 47 151 -12 331 -12 L331 -12 Z M206 329 C209 401 246 441 303 441 C357 441 386 395 384 329 L206 329 Z " />
<glyph glyph-name="Edotaccent" unicode="&#x116;" horiz-adv-x="611" d="M242 774 L408 774 L408 923 L242 923 L242 774 Z M83 0 L570 0 L570 133 L253 133 L253 293 L525 293 L525 417 L253 417 L253 574 L547 574 L547 707 L83 707 L83 0 Z " />
<glyph glyph-name="edotaccent" unicode="&#x117;" horiz-adv-x="587" d="M225 643 L391 643 L391 792 L225 792 L225 643 Z M331 -12 C397 -12 475 -1 536 19 L511 142 C454 129 392 120 355 120 C268 120 200 136 201 222 L555 222 L555 282 C555 447 487 559 315 559 C150 559 35 488 35 265 C35 47 151 -12 331 -12 L331 -12 Z M206 329 C209 401 246 441 303 441 C357 441 386 395 384 329 L206 329 Z " />
<glyph glyph-name="Eogonek" unicode="&#x118;" horiz-adv-x="611" d="M577 -234 L549 -127 C526 -134 506 -136 487 -136 C467 -136 453 -124 453 -106 C453 -66 513 -28 570 0 L570 133 L253 133 L253 293 L525 293 L525 417 L253 417 L253 574 L547 574 L547 707 L83 707 L83 0 L426 0 C378 -22 319 -78 319 -154 C319 -213 359 -260 463 -260 C518 -260 543 -249 577 -234 L577 -234 Z " />
<glyph glyph-name="eogonek" unicode="&#x119;" horiz-adv-x="587" d="M418 -260 C479 -260 516 -249 550 -234 L522 -127 C496 -137 472 -141 453 -141 C435 -141 417 -131 417 -110 C417 -64 481 -17 534 13 L510 140 C453 130 391 120 354 120 C267 120 199 136 200 222 L554 222 L554 282 C554 447 488 559 316 559 C151 559 34 488 34 265 C34 64 142 -11 303 -11 C316 -11 330 -10 344 -9 C305 -44 265 -95 265 -144 C265 -222 310 -260 418 -260 L418 -260 Z M205 330 C208 402 250 442 304 442 C356 442 385 396 383 330 L205 330 Z " />
<glyph glyph-name="Ecaron" unicode="&#x11a;" horiz-adv-x="611" d="M508 837 L449 943 L316 883 L183 943 L125 837 L316 740 L508 837 Z M83 0 L570 0 L570 133 L253 133 L253 293 L525 293 L525 417 L253 417 L253 574 L547 574 L547 707 L83 707 L83 0 Z " />
<glyph glyph-name="ecaron" unicode="&#x11b;" horiz-adv-x="587" d="M302 600 L504 730 L431 822 L303 733 L174 823 L106 731 L302 600 Z M331 -12 C397 -12 475 -1 536 19 L511 142 C454 129 392 120 355 120 C268 120 200 136 201 222 L555 222 L555 282 C555 447 487 559 315 559 C150 559 35 488 35 265 C35 47 151 -12 331 -12 L331 -12 Z M206 329 C209 401 246 441 303 441 C357 441 386 395 384 329 L206 329 Z " />
<glyph glyph-name="Gcircumflex" unicode="&#x11c;" horiz-adv-x="709" d="M286 741 L419 802 L552 741 L611 848 L419 944 L228 848 L286 741 Z M427 -10 C513 -10 580 0 660 31 L660 350 L490 350 L490 133 C476 133 461 132 445 132 C316 132 212 203 212 359 C212 515 306 577 432 577 C504 577 535 568 602 551 L647 674 C591 697 535 717 435 717 C178 717 39 605 39 349 C39 104 192 -10 427 -10 L427 -10 Z " />
<glyph glyph-name="gcircumflex" unicode="&#x11d;" horiz-adv-x="605" d="M274 191 C396 191 506 255 506 367 C506 379 502 415 500 426 L583 426 L583 543 L408 530 C388 540 340 559 270 559 C130 559 39 470 39 362 C39 290 70 247 115 222 C72 190 49 145 49 104 C49 72 63 43 92 23 C50 -5 31 -56 31 -90 C31 -181 108 -230 269 -230 C454 -230 543 -139 543 -27 C543 88 465 134 315 134 L212 134 C183 134 169 147 169 164 C169 174 174 187 184 199 C212 193 243 191 274 191 L274 191 Z M409 606 L477 698 L281 829 L79 699 L152 607 L280 696 L409 606 Z M329 0 C373 0 410 -11 410 -49 C410 -85 354 -107 264 -107 C179 -107 147 -78 147 -42 C147 -28 151 -13 159 1 C167 0 176 0 185 0 L329 0 Z M273 289 C215 289 186 320 186 364 C186 416 215 452 275 452 C328 452 358 413 358 369 C358 326 325 289 273 289 L273 289 Z " />
<glyph glyph-name="Gbreve" unicode="&#x11e;" horiz-adv-x="709" d="M414 753 C518 753 581 818 613 865 L532 938 C498 903 460 876 418 876 C375 876 335 904 299 938 L213 864 C243 816 305 753 414 753 L414 753 Z M427 -10 C513 -10 580 0 660 31 L660 350 L490 350 L490 133 C476 133 461 132 445 132 C316 132 212 203 212 359 C212 515 306 577 432 577 C504 577 535 568 602 551 L647 674 C591 697 535 717 435 717 C178 717 39 605 39 349 C39 104 192 -10 427 -10 L427 -10 Z " />
<glyph glyph-name="gbreve" unicode="&#x11f;" horiz-adv-x="605" d="M274 191 C396 191 506 255 506 367 C506 379 502 415 500 426 L583 426 L583 543 L408 530 C388 540 340 559 270 559 C130 559 39 470 39 362 C39 290 70 247 115 222 C72 190 49 145 49 104 C49 72 63 43 92 23 C50 -5 31 -56 31 -90 C31 -181 108 -230 269 -230 C454 -230 543 -139 543 -27 C543 88 465 134 315 134 L212 134 C183 134 169 147 169 164 C169 174 174 187 184 199 C212 193 243 191 274 191 L274 191 Z M287 614 C391 614 454 679 486 726 L405 799 C371 764 333 737 291 737 C248 737 208 765 172 799 L86 725 C116 677 178 614 287 614 L287 614 Z M329 0 C373 0 410 -11 410 -49 C410 -85 354 -107 264 -107 C179 -107 147 -78 147 -42 C147 -28 151 -13 159 1 C167 0 176 0 185 0 L329 0 Z M273 289 C215 289 186 320 186 364 C186 416 215 452 275 452 C328 452 358 413 358 369 C358 326 325 289 273 289 L273 289 Z " />
<glyph glyph-name="Gdotaccent" unicode="&#x120;" horiz-adv-x="709" d="M354 774 L520 774 L520 923 L354 923 L354 774 Z M427 -10 C513 -10 580 0 660 31 L660 350 L490 350 L490 133 C476 133 461 132 445 132 C316 132 212 203 212 359 C212 515 306 577 432 577 C504 577 535 568 602 551 L647 674 C591 697 535 717 435 717 C178 717 39 605 39 349 C39 104 192 -10 427 -10 L427 -10 Z " />
<glyph glyph-name="gdotaccent" unicode="&#x121;" horiz-adv-x="605" d="M274 191 C396 191 506 255 506 367 C506 379 502 415 500 426 L583 426 L583 543 L408 530 C388 540 340 559 270 559 C130 559 39 470 39 362 C39 290 70 247 115 222 C72 190 49 145 49 104 C49 72 63 43 92 23 C50 -5 31 -56 31 -90 C31 -181 108 -230 269 -230 C454 -230 543 -139 543 -27 C543 88 465 134 315 134 L212 134 C183 134 169 147 169 164 C169 174 174 187 184 199 C212 193 243 191 274 191 L274 191 Z M190 643 L356 643 L356 792 L190 792 L190 643 Z M329 0 C373 0 410 -11 410 -49 C410 -85 354 -107 264 -107 C179 -107 147 -78 147 -42 C147 -28 151 -13 159 1 C167 0 176 0 185 0 L329 0 Z M273 289 C215 289 186 320 186 364 C186 416 215 452 275 452 C328 452 358 413 358 369 C358 326 325 289 273 289 L273 289 Z " />
<glyph glyph-name="Gcommaaccent" unicode="&#x122;" horiz-adv-x="709" d="M511 -59 L371 -59 L350 -279 L466 -279 L511 -59 Z M427 -10 C513 -10 580 0 660 31 L660 350 L490 350 L490 133 C476 133 461 132 445 132 C316 132 212 203 212 359 C212 515 306 577 432 577 C504 577 535 568 602 551 L647 674 C591 697 535 717 435 717 C178 717 39 605 39 349 C39 104 192 -10 427 -10 L427 -10 Z " />
<glyph glyph-name="gcommaaccent" unicode="&#x123;" horiz-adv-x="605" d="M274 191 C396 191 506 255 506 367 C506 379 502 415 500 426 L583 426 L583 543 L408 530 C388 540 340 559 270 559 C130 559 39 470 39 362 C39 290 70 247 115 222 C72 190 49 145 49 104 C49 72 63 43 92 23 C50 -5 31 -56 31 -90 C31 -181 108 -230 269 -230 C454 -230 543 -139 543 -27 C543 88 465 134 315 134 L212 134 C183 134 169 147 169 164 C169 174 174 187 184 199 C212 193 243 191 274 191 L274 191 Z M200 603 L356 603 L387 803 L253 803 L200 603 Z M329 0 C373 0 410 -11 410 -49 C410 -85 354 -107 264 -107 C179 -107 147 -78 147 -42 C147 -28 151 -13 159 1 C167 0 176 0 185 0 L329 0 Z M273 289 C215 289 186 320 186 364 C186 416 215 452 275 452 C328 452 358 413 358 369 C358 326 325 289 273 289 L273 289 Z " />
<glyph glyph-name="Hcircumflex" unicode="&#x124;" horiz-adv-x="806" d="M270 741 L403 802 L536 741 L595 848 L403 944 L212 848 L270 741 Z M83 0 L253 0 L253 291 L553 291 L553 0 L723 0 L723 707 L553 707 L553 420 L253 420 L253 707 L83 707 L83 0 Z " />
<glyph glyph-name="hcircumflex" unicode="&#x125;" horiz-adv-x="657" d="M67 0 L234 0 L234 384 C261 397 306 414 356 414 C412 414 429 401 429 326 L429 0 L595 0 L595 340 C595 464 583 559 412 559 C339 559 270 517 234 488 L234 754 L67 754 L67 0 Z M17 765 L150 826 L283 765 L342 872 L150 968 L-41 872 L17 765 Z " />
<glyph glyph-name="Hbar" unicode="&#x126;" horiz-adv-x="841" d="M31 517 L101 517 L101 0 L271 0 L271 291 L571 291 L571 0 L741 0 L741 517 L809 517 L809 596 L741 596 L741 707 L571 707 L571 596 L271 596 L271 707 L101 707 L101 596 L31 596 L31 517 Z M271 420 L271 517 L571 517 L571 420 L271 420 Z " />
<glyph glyph-name="hbar" unicode="&#x127;" horiz-adv-x="657" d="M67 0 L234 0 L234 387 C261 400 306 417 356 417 C412 417 429 404 429 329 L429 0 L595 0 L595 343 C595 467 583 562 412 562 C339 562 267 516 234 491 L234 611 L335 611 L335 690 L234 690 L234 754 L67 754 L67 690 L7 690 L7 611 L67 611 L67 0 Z " />
<glyph glyph-name="Itilde" unicode="&#x128;" horiz-adv-x="336" d="M221 755 C296 755 346 810 369 835 L314 909 C278 890 259 883 227 883 C193 883 167 921 104 921 C37 921 -16 868 -40 839 L23 765 C53 791 74 793 93 793 C132 793 170 755 221 755 L221 755 Z M83 0 L253 0 L253 707 L83 707 L83 0 Z " />
<glyph glyph-name="itilde" unicode="&#x129;" horiz-adv-x="301" d="M204 634 C279 634 329 689 352 714 L297 788 C261 769 242 762 210 762 C176 762 150 800 87 800 C20 800 -33 747 -57 718 L6 644 C36 670 57 672 76 672 C115 672 153 634 204 634 L204 634 Z M67 0 L234 0 L234 546 L67 546 L67 0 Z " />
<glyph glyph-name="Imacron" unicode="&#x12a;" horiz-adv-x="336" d="M1 764 L329 764 L329 893 L1 893 L1 764 Z M83 0 L253 0 L253 707 L83 707 L83 0 Z " />
<glyph glyph-name="imacron" unicode="&#x12b;" horiz-adv-x="301" d="M-13 647 L315 647 L315 776 L-13 776 L-13 647 Z M67 0 L234 0 L234 546 L67 546 L67 0 Z " />
<glyph glyph-name="Ibreve" unicode="&#x12c;" horiz-adv-x="336" d="M167 753 C271 753 334 818 366 865 L285 938 C251 903 213 876 171 876 C128 876 88 904 52 938 L-34 864 C-4 816 58 753 167 753 L167 753 Z M83 0 L253 0 L253 707 L83 707 L83 0 Z " />
<glyph glyph-name="ibreve" unicode="&#x12d;" horiz-adv-x="301" d="M156 614 C260 614 323 679 355 726 L274 799 C240 764 202 737 160 737 C117 737 77 765 41 799 L-45 725 C-15 677 47 614 156 614 L156 614 Z M67 0 L234 0 L234 546 L67 546 L67 0 Z " />
<glyph glyph-name="Iogonek" unicode="&#x12e;" horiz-adv-x="336" d="M290 -234 L262 -127 C239 -134 210 -138 191 -138 C177 -138 157 -124 157 -106 C157 -66 205 -31 253 0 L253 706 L83 706 L83 -16 C44 -51 12 -91 12 -136 C12 -214 48 -260 166 -260 C227 -260 256 -249 290 -234 L290 -234 Z " />
<glyph glyph-name="iogonek" unicode="&#x12f;" horiz-adv-x="300" d="M146 -260 C207 -260 236 -249 270 -234 L242 -127 C219 -134 189 -141 165 -141 C143 -141 123 -132 123 -114 C123 -74 185 -31 233 0 L233 546 L67 546 L67 -9 C26 -44 -11 -90 -11 -136 C-11 -214 28 -260 146 -260 L146 -260 Z M67 643 L233 643 L233 792 L67 792 L67 643 Z " />
<glyph glyph-name="Idotaccent" unicode="&#x130;" horiz-adv-x="336" d="M83 774 L249 774 L249 923 L83 923 L83 774 Z M83 0 L253 0 L253 707 L83 707 L83 0 Z " />
<glyph glyph-name="dotlessi" unicode="&#x131;" horiz-adv-x="301" d="M67 0 L234 0 L234 546 L67 546 L67 0 Z " />
<glyph glyph-name="IJ" unicode="&#x132;" horiz-adv-x="650" d="M83 0 L253 0 L253 707 L83 707 L83 0 Z M314 -198 C548 -122 569 11 569 153 L569 707 L398 707 L398 151 C398 33 372 -10 253 -76 L314 -198 Z " />
<glyph glyph-name="ij" unicode="&#x133;" horiz-adv-x="595" d="M67 0 L234 0 L234 546 L67 546 L67 0 Z M307 -225 C423 -225 528 -188 528 2 L528 546 L362 546 L362 3 C362 -65 344 -84 301 -84 C270 -84 238 -78 210 -68 L179 -197 C214 -213 268 -225 307 -225 L307 -225 Z M66 643 L232 643 L232 792 L66 792 L66 643 Z M364 643 L530 643 L530 792 L364 792 L364 643 Z " />
<glyph glyph-name="Jcircumflex" unicode="&#x134;" horiz-adv-x="338" d="M35 741 L168 802 L301 741 L360 848 L168 944 L-23 848 L35 741 Z M2 -198 C236 -122 257 11 257 153 L257 707 L86 707 L86 151 C86 33 60 -10 -59 -76 L2 -198 Z " />
<glyph glyph-name="jcircumflex" unicode="&#x135;" horiz-adv-x="300" d="M278 606 L346 698 L150 829 L-52 699 L21 607 L149 696 L278 606 Z M12 -225 C128 -225 233 -188 233 2 L233 546 L67 546 L67 3 C67 -65 49 -84 6 -84 C-25 -84 -57 -78 -85 -68 L-116 -197 C-81 -213 -27 -225 12 -225 L12 -225 Z " />
<glyph glyph-name="Kcommaaccent" unicode="&#x136;" horiz-adv-x="723" d="M83 0 L253 0 L253 354 L511 0 L728 0 L426 376 L712 707 L495 707 L253 404 L253 707 L83 707 L83 0 Z M446 -59 L306 -59 L285 -279 L401 -279 L446 -59 Z " />
<glyph glyph-name="kcommaaccent" unicode="&#x137;" horiz-adv-x="598" d="M67 0 L234 0 L234 225 L391 0 L597 0 L365 294 L564 546 L385 546 L234 344 L234 754 L67 754 L67 0 Z M397 -59 L257 -59 L236 -279 L352 -279 L397 -59 Z " />
<glyph glyph-name="uni0138" unicode="&#x138;" horiz-adv-x="599" d="M67 0 L234 0 L234 247 L394 0 L587 0 L372 298 L568 546 L391 546 L234 313 L234 546 L67 546 L67 0 Z " />
<glyph glyph-name="Lacute" unicode="&#x139;" horiz-adv-x="569" d="M98 744 L373 793 L346 924 L75 857 L98 744 Z M83 0 L560 0 L560 134 L253 134 L253 707 L83 707 L83 0 Z " />
<glyph glyph-name="lacute" unicode="&#x13a;" horiz-adv-x="301" d="M67 0 L234 0 L234 754 L67 754 L67 0 Z M83 796 L358 845 L331 976 L60 909 L83 796 Z " />
<glyph glyph-name="Lcommaaccent" unicode="&#x13b;" horiz-adv-x="568" d="M379 -59 L239 -59 L218 -279 L334 -279 L379 -59 Z M83 0 L560 0 L560 134 L253 134 L253 707 L83 707 L83 0 Z " />
<glyph glyph-name="lcommaaccent" unicode="&#x13c;" horiz-adv-x="301" d="M221 -58 L81 -58 L60 -278 L176 -278 L221 -58 Z M67 0 L234 0 L234 754 L67 754 L67 0 Z " />
<glyph glyph-name="Lcaron" unicode="&#x13d;" horiz-adv-x="569" d="M477 792 L337 792 L316 572 L432 572 L477 792 Z M83 0 L560 0 L560 134 L253 134 L253 707 L83 707 L83 0 Z " />
<glyph glyph-name="lcaron" unicode="&#x13e;" horiz-adv-x="400" d="M67 0 L234 0 L234 754 L67 754 L67 0 Z M435 754 L295 754 L274 534 L390 534 L435 754 Z " />
<glyph glyph-name="Ldot" unicode="&#x13f;" horiz-adv-x="569" d="M358 305 L543 305 L543 467 L358 467 L358 305 Z M83 0 L560 0 L560 134 L253 134 L253 707 L83 707 L83 0 Z " />
<glyph glyph-name="ldot" unicode="&#x140;" horiz-adv-x="492" d="M295 305 L480 305 L480 467 L295 467 L295 305 Z M67 0 L234 0 L234 754 L67 754 L67 0 Z " />
<glyph glyph-name="Lslash" unicode="&#x141;" horiz-adv-x="594" d="M38 216 L108 256 L108 0 L585 0 L585 134 L278 134 L278 355 L386 418 L386 530 L278 468 L278 707 L108 707 L108 370 L38 330 L38 216 Z " />
<glyph glyph-name="lslash" unicode="&#x142;" horiz-adv-x="388" d="M113 0 L280 0 L280 395 L371 448 L371 560 L280 508 L280 754 L113 754 L113 412 L22 360 L23 246 L113 298 L113 0 Z " />
<glyph glyph-name="Nacute" unicode="&#x143;" horiz-adv-x="806" d="M294 744 L569 793 L542 924 L271 857 L294 744 Z M83 0 L253 0 L253 379 L249 473 L253 473 L520 0 L723 0 L723 707 L553 707 L553 301 L558 222 L555 222 L280 707 L83 707 L83 0 Z " />
<glyph glyph-name="nacute" unicode="&#x144;" horiz-adv-x="657" d="M256 602 L501 706 L447 823 L209 702 L256 602 Z M67 0 L234 0 L234 387 C261 400 306 416 356 416 C412 416 429 403 429 328 L429 0 L595 0 L595 342 C595 466 583 560 412 560 C339 560 267 516 234 491 L234 546 L67 546 L67 0 Z " />
<glyph glyph-name="Ncommaaccent" unicode="&#x145;" horiz-adv-x="806" d="M475 -59 L335 -59 L314 -279 L430 -279 L475 -59 Z M83 0 L253 0 L253 379 L249 473 L253 473 L520 0 L723 0 L723 707 L553 707 L553 301 L558 222 L555 222 L280 707 L83 707 L83 0 Z " />
<glyph glyph-name="ncommaaccent" unicode="&#x146;" horiz-adv-x="657" d="M67 0 L234 0 L234 387 C261 400 306 416 356 416 C412 416 429 403 429 328 L429 0 L595 0 L595 342 C595 466 583 560 412 560 C339 560 267 516 234 491 L234 546 L67 546 L67 0 Z M404 -59 L264 -59 L243 -279 L359 -279 L404 -59 Z " />
<glyph glyph-name="Ncaron" unicode="&#x147;" horiz-adv-x="806" d="M592 837 L533 943 L400 883 L267 943 L209 837 L400 740 L592 837 Z M83 0 L253 0 L253 379 L249 473 L253 473 L520 0 L723 0 L723 707 L553 707 L553 301 L558 222 L555 222 L280 707 L83 707 L83 0 Z " />
<glyph glyph-name="ncaron" unicode="&#x148;" horiz-adv-x="657" d="M327 600 L529 730 L456 822 L328 733 L199 823 L131 731 L327 600 Z M67 0 L234 0 L234 387 C261 400 306 416 356 416 C412 416 429 403 429 328 L429 0 L595 0 L595 342 C595 466 583 560 412 560 C339 560 267 516 234 491 L234 546 L67 546 L67 0 Z " />
<glyph glyph-name="napostrophe" unicode="&#x149;" horiz-adv-x="763" d="M-23 485 L97 485 C135 531 160 594 160 657 L160 754 L9 754 L9 619 C9 600 8 542 -23 485 L-23 485 Z M173 0 L340 0 L340 387 C367 400 412 416 462 416 C518 416 535 403 535 328 L535 0 L701 0 L701 342 C701 466 689 560 518 560 C445 560 373 516 340 491 L340 546 L173 546 L173 0 Z " />
<glyph glyph-name="Eng" unicode="&#x14a;" horiz-adv-x="805" d="M501 -220 C616 -220 721 -188 722 0 L723 707 L553 707 L553 301 L558 222 L280 707 L83 707 L83 0 L253 0 L253 379 L249 473 L520 0 L556 0 L556 -20 C556 -66 533 -79 496 -79 C465 -79 404 -68 404 -68 L373 -197 C406 -209 462 -220 501 -220 L501 -220 Z " />
<glyph glyph-name="eng" unicode="&#x14b;" horiz-adv-x="657" d="M595 2 L595 343 C595 467 583 562 412 562 C339 562 267 516 234 491 L234 546 L67 546 L67 0 L234 0 L234 387 C261 400 306 417 356 417 C412 417 429 404 429 329 L429 3 C429 -65 412 -79 369 -79 C338 -79 277 -68 277 -68 L246 -197 C279 -209 335 -220 374 -220 C490 -220 595 -188 595 2 L595 2 Z " />
<glyph glyph-name="Omacron" unicode="&#x14c;" horiz-adv-x="833" d="M260 764 L588 764 L588 893 L260 893 L260 764 Z M408 -12 C660 -12 795 128 795 353 C795 564 684 718 427 718 C186 718 38 578 38 355 C38 128 160 -12 408 -12 L408 -12 Z M411 122 C267 122 210 227 210 356 C210 486 268 584 418 584 C561 584 622 486 622 354 C622 222 567 122 411 122 L411 122 Z " />
<glyph glyph-name="omacron" unicode="&#x14d;" horiz-adv-x="632" d="M148 647 L476 647 L476 776 L148 776 L148 647 Z M309 -12 C477 -12 599 87 599 273 C599 451 512 560 318 560 C145 560 32 449 32 268 C32 97 129 -12 309 -12 L309 -12 Z M317 121 C228 121 200 178 200 272 C200 361 225 428 315 428 C407 428 429 361 429 273 C429 180 407 121 317 121 L317 121 Z " />
<glyph glyph-name="Obreve" unicode="&#x14e;" horiz-adv-x="833" d="M420 753 C524 753 587 818 619 865 L538 938 C504 903 466 876 424 876 C381 876 341 904 305 938 L219 864 C249 816 311 753 420 753 L420 753 Z M408 -12 C660 -12 795 128 795 353 C795 564 684 718 427 718 C186 718 38 578 38 355 C38 128 160 -12 408 -12 L408 -12 Z M411 122 C267 122 210 227 210 356 C210 486 268 584 418 584 C561 584 622 486 622 354 C622 222 567 122 411 122 L411 122 Z " />
<glyph glyph-name="obreve" unicode="&#x14f;" horiz-adv-x="632" d="M317 614 C421 614 484 679 516 726 L435 799 C401 764 363 737 321 737 C278 737 238 765 202 799 L116 725 C146 677 208 614 317 614 L317 614 Z M309 -12 C477 -12 599 87 599 273 C599 451 512 560 318 560 C145 560 32 449 32 268 C32 97 129 -12 309 -12 L309 -12 Z M317 121 C228 121 200 178 200 272 C200 361 225 428 315 428 C407 428 429 361 429 273 C429 180 407 121 317 121 L317 121 Z " />
<glyph glyph-name="Ohungarumlaut" unicode="&#x150;" horiz-adv-x="833" d="M477 889 L399 998 L176 831 L243 735 L477 889 Z M775 787 L747 918 L476 852 L499 738 L775 787 Z M408 -12 C660 -12 795 128 795 353 C795 564 684 718 427 718 C186 718 38 578 38 355 C38 128 160 -12 408 -12 L408 -12 Z M411 122 C267 122 210 227 210 356 C210 486 268 584 418 584 C561 584 622 486 622 354 C622 222 567 122 411 122 L411 122 Z " />
<glyph glyph-name="ohungarumlaut" unicode="&#x151;" horiz-adv-x="632" d="M166 595 L367 762 L284 856 L94 675 L166 595 Z M389 594 L632 695 L579 808 L343 691 L389 594 Z M309 -12 C477 -12 599 87 599 273 C599 451 512 560 318 560 C145 560 32 449 32 268 C32 97 129 -12 309 -12 L309 -12 Z M317 121 C228 121 200 178 200 272 C200 361 225 428 315 428 C407 428 429 361 429 273 C429 180 407 121 317 121 L317 121 Z " />
<glyph glyph-name="OE" unicode="&#x152;" horiz-adv-x="1108" d="M409 -12 C483 -12 539 -1 580 21 L580 0 L1067 0 L1067 133 L750 133 L750 293 L1022 293 L1022 417 L750 417 L750 574 L1044 574 L1044 707 L580 707 L580 691 C543 709 493 718 428 718 C187 718 39 594 39 355 C39 128 161 -12 409 -12 L409 -12 Z M412 122 C268 122 211 227 211 356 C211 486 269 584 419 584 C494 584 547 557 580 512 L580 194 C547 149 493 122 412 122 L412 122 Z " />
<glyph glyph-name="oe" unicode="&#x153;" horiz-adv-x="982" d="M309 -12 C387 -12 454 9 505 50 C557 6 632 -9 725 -9 C791 -9 869 -5 930 13 L904 142 C849 129 778 120 741 120 C643 120 595 148 595 222 L949 222 L949 282 C949 447 883 559 711 559 C631 559 563 542 513 500 C468 539 403 560 318 560 C145 560 32 449 32 268 C32 97 129 -12 309 -12 L309 -12 Z M317 121 C228 121 200 178 200 272 C200 361 225 428 315 428 C407 428 429 361 429 273 C429 180 407 121 317 121 L317 121 Z M600 330 C603 402 642 442 695 442 C745 442 777 398 778 330 L600 330 Z " />
<glyph glyph-name="Racute" unicode="&#x154;" horiz-adv-x="749" d="M235 744 L510 793 L483 924 L212 857 L235 744 Z M83 0 L254 0 L254 244 L306 244 C319 244 335 244 347 245 L527 0 L744 0 L517 285 C593 328 631 397 631 476 C631 634 517 707 358 707 L83 707 L83 0 Z M254 363 L254 573 L336 573 C427 573 456 543 456 472 C456 405 413 363 312 363 L254 363 Z " />
<glyph glyph-name="racute" unicode="&#x155;" horiz-adv-x="452" d="M177 602 L422 706 L368 823 L130 702 L177 602 Z M67 0 L234 0 L234 370 C256 394 306 417 355 417 C385 417 396 417 428 411 L450 548 C427 555 405 557 375 557 C312 557 261 508 234 473 L234 546 L67 546 L67 0 Z " />
<glyph glyph-name="Rcommaaccent" unicode="&#x156;" horiz-adv-x="750" d="M480 -59 L340 -59 L319 -279 L435 -279 L480 -59 Z M83 0 L254 0 L254 244 L306 244 C319 244 335 244 347 245 L527 0 L744 0 L517 285 C593 328 631 397 631 476 C631 634 517 707 358 707 L83 707 L83 0 Z M254 363 L254 573 L336 573 C427 573 456 543 456 472 C456 405 413 363 312 363 L254 363 Z " />
<glyph glyph-name="rcommaaccent" unicode="&#x157;" horiz-adv-x="452" d="M67 0 L234 0 L234 370 C256 394 306 417 355 417 C385 417 396 417 428 411 L450 548 C427 555 405 557 375 557 C312 557 261 508 234 473 L234 546 L67 546 L67 0 Z M224 -59 L84 -59 L63 -279 L179 -279 L224 -59 Z " />
<glyph glyph-name="Rcaron" unicode="&#x158;" horiz-adv-x="749" d="M517 837 L458 943 L325 883 L192 943 L134 837 L325 740 L517 837 Z M83 0 L254 0 L254 244 L306 244 C319 244 335 244 347 245 L527 0 L744 0 L517 285 C593 328 631 397 631 476 C631 634 517 707 358 707 L83 707 L83 0 Z M254 363 L254 573 L336 573 C427 573 456 543 456 472 C456 405 413 363 312 363 L254 363 Z " />
<glyph glyph-name="rcaron" unicode="&#x159;" horiz-adv-x="452" d="M225 600 L427 730 L354 822 L226 733 L97 823 L29 731 L225 600 Z M67 0 L234 0 L234 370 C256 394 306 417 355 417 C385 417 396 417 428 411 L450 548 C427 555 405 557 375 557 C312 557 261 508 234 473 L234 546 L67 546 L67 0 Z " />
<glyph glyph-name="Sacute" unicode="&#x15a;" horiz-adv-x="585" d="M194 744 L469 793 L442 924 L171 857 L194 744 Z M263 -12 C409 -12 557 55 557 210 C557 427 215 417 215 511 C215 550 253 577 308 577 C380 577 423 562 475 539 L524 664 C473 695 415 718 303 718 C178 718 49 650 49 514 C49 274 385 319 385 204 C385 161 346 128 261 128 C183 128 137 146 75 171 L26 45 C79 16 147 -12 263 -12 L263 -12 Z " />
<glyph glyph-name="sacute" unicode="&#x15b;" horiz-adv-x="503" d="M167 602 L412 706 L358 823 L120 702 L167 602 Z M234 -12 C326 -12 477 23 477 167 C477 350 204 333 204 395 C204 415 226 428 272 428 C328 428 370 420 423 408 L451 529 C394 549 334 560 267 560 C148 560 37 505 37 387 C37 191 312 219 312 160 C312 138 293 122 218 122 C181 122 124 127 53 137 L35 11 C91 -5 155 -12 234 -12 L234 -12 Z " />
<glyph glyph-name="Scircumflex" unicode="&#x15c;" horiz-adv-x="585" d="M180 741 L313 802 L446 741 L505 848 L313 944 L122 848 L180 741 Z M263 -12 C409 -12 557 55 557 210 C557 427 215 417 215 511 C215 550 253 577 308 577 C380 577 423 562 475 539 L524 664 C473 695 415 718 303 718 C178 718 49 650 49 514 C49 274 385 319 385 204 C385 161 346 128 261 128 C183 128 137 146 75 171 L26 45 C79 16 147 -12 263 -12 L263 -12 Z " />
<glyph glyph-name="scircumflex" unicode="&#x15d;" horiz-adv-x="503" d="M386 606 L454 698 L258 829 L56 699 L129 607 L257 696 L386 606 Z M234 -12 C326 -12 477 23 477 167 C477 350 204 333 204 395 C204 415 226 428 272 428 C328 428 370 420 423 408 L451 529 C394 549 334 560 267 560 C148 560 37 505 37 387 C37 191 312 219 312 160 C312 138 293 122 218 122 C181 122 124 127 53 137 L35 11 C91 -5 155 -12 234 -12 L234 -12 Z " />
<glyph glyph-name="Scedilla" unicode="&#x15e;" horiz-adv-x="586" d="M222 -283 C285 -257 380 -213 380 -132 C380 -104 369 -76 358 -51 L229 -51 C234 -71 241 -93 241 -113 C241 -148 190 -168 165 -183 L222 -283 Z M264 -12 C410 -12 558 55 558 210 C558 427 216 417 216 511 C216 550 254 577 309 577 C381 577 424 562 476 539 L525 664 C474 695 416 718 304 718 C179 718 50 650 50 514 C50 274 386 319 386 204 C386 161 347 128 262 128 C184 128 138 146 76 171 L27 45 C80 16 148 -12 264 -12 L264 -12 Z " />
<glyph glyph-name="scedilla" unicode="&#x15f;" horiz-adv-x="503" d="M211 -283 C274 -257 369 -213 369 -132 C369 -104 358 -76 347 -51 L218 -51 C223 -71 230 -93 230 -113 C230 -148 179 -168 154 -183 L211 -283 Z M234 -12 C326 -12 477 23 477 167 C477 350 204 333 204 395 C204 415 226 428 272 428 C328 428 370 420 423 408 L451 529 C394 549 334 560 267 560 C148 560 37 505 37 387 C37 191 312 219 312 160 C312 138 293 122 218 122 C181 122 124 127 53 137 L35 11 C91 -5 155 -12 234 -12 L234 -12 Z " />
<glyph glyph-name="Scaron" unicode="&#x160;" horiz-adv-x="585" d="M481 837 L422 943 L289 883 L156 943 L98 837 L289 740 L481 837 Z M263 -12 C409 -12 557 55 557 210 C557 427 215 417 215 511 C215 550 253 577 308 577 C380 577 423 562 475 539 L524 664 C473 695 415 718 303 718 C178 718 49 650 49 514 C49 274 385 319 385 204 C385 161 346 128 261 128 C183 128 137 146 75 171 L26 45 C79 16 147 -12 263 -12 L263 -12 Z " />
<glyph glyph-name="scaron" unicode="&#x161;" horiz-adv-x="503" d="M252 600 L454 730 L381 822 L253 733 L124 823 L56 731 L252 600 Z M234 -12 C326 -12 477 23 477 167 C477 350 204 333 204 395 C204 415 226 428 272 428 C328 428 370 420 423 408 L451 529 C394 549 334 560 267 560 C148 560 37 505 37 387 C37 191 312 219 312 160 C312 138 293 122 218 122 C181 122 124 127 53 137 L35 11 C91 -5 155 -12 234 -12 L234 -12 Z " />
<glyph glyph-name="Tcommaaccent" unicode="&#x162;" horiz-adv-x="636" d="M386 -59 L246 -59 L225 -279 L341 -279 L386 -59 Z M233 0 L403 0 L403 574 L625 574 L625 707 L11 707 L11 574 L233 574 L233 0 Z " />
<glyph glyph-name="tcommaaccent" unicode="&#x163;" horiz-adv-x="486" d="M304 -13 C344 -13 417 -3 459 12 L443 143 C403 134 362 127 325 127 C280 127 265 140 265 180 L265 423 L434 423 L434 546 L265 546 L265 658 L99 658 L99 546 L19 546 L19 423 L99 423 L99 170 C99 32 173 -13 304 -13 L304 -13 Z M356 -59 L216 -59 L195 -279 L311 -279 L356 -59 Z " />
<glyph glyph-name="Tcaron" unicode="&#x164;" horiz-adv-x="634" d="M508 837 L449 943 L316 883 L183 943 L125 837 L316 740 L508 837 Z M232 0 L402 0 L402 574 L624 574 L624 707 L10 707 L10 574 L232 574 L232 0 Z " />
<glyph glyph-name="tcaron" unicode="&#x165;" horiz-adv-x="485" d="M303 -13 C343 -13 416 -3 458 12 L442 143 C402 134 361 127 324 127 C279 127 264 140 264 180 L264 423 L433 423 L433 546 L264 546 L264 658 L98 658 L98 546 L18 546 L18 423 L98 423 L98 170 C98 32 172 -13 303 -13 L303 -13 Z M501 803 L361 803 L340 583 L456 583 L501 803 Z " />
<glyph glyph-name="Tbar" unicode="&#x166;" horiz-adv-x="634" d="M91 300 L232 300 L232 0 L402 0 L402 300 L543 300 L543 387 L402 387 L402 574 L624 574 L624 707 L10 707 L10 574 L232 574 L232 387 L91 387 L91 300 Z " />
<glyph glyph-name="tbar" unicode="&#x167;" horiz-adv-x="485" d="M34 259 L98 259 L98 170 C98 32 172 -13 303 -13 C343 -13 416 -3 458 12 L442 143 C402 134 361 127 324 127 C279 127 264 140 264 180 L264 259 L380 259 L380 338 L264 338 L264 423 L433 423 L433 546 L264 546 L264 658 L98 658 L98 546 L18 546 L18 423 L98 423 L98 338 L34 338 L34 259 Z " />
<glyph glyph-name="Utilde" unicode="&#x168;" horiz-adv-x="795" d="M445 755 C520 755 570 810 593 835 L538 909 C502 890 483 883 451 883 C417 883 391 921 328 921 C261 921 208 868 184 839 L247 765 C277 791 298 793 317 793 C356 793 394 755 445 755 L445 755 Z M401 -13 C559 -13 725 65 725 312 L725 707 L558 707 L558 315 C558 189 508 126 401 126 C293 126 244 186 244 294 L244 707 L72 707 L72 288 C72 59 238 -13 401 -13 L401 -13 Z " />
<glyph glyph-name="utilde" unicode="&#x169;" horiz-adv-x="657" d="M380 634 C455 634 505 689 528 714 L473 788 C437 769 418 762 386 762 C352 762 326 800 263 800 C196 800 143 747 119 718 L182 644 C212 670 233 672 252 672 C291 672 329 634 380 634 L380 634 Z M245 -12 C318 -12 390 31 423 56 L423 0 L590 0 L590 546 L423 546 L423 160 C396 147 351 133 301 133 C245 133 228 146 228 221 L228 546 L62 546 L62 207 C62 83 74 -12 245 -12 L245 -12 Z " />
<glyph glyph-name="Umacron" unicode="&#x16a;" horiz-adv-x="795" d="M236 764 L564 764 L564 893 L236 893 L236 764 Z M401 -13 C559 -13 725 65 725 312 L725 707 L558 707 L558 315 C558 189 508 126 401 126 C293 126 244 186 244 294 L244 707 L72 707 L72 288 C72 59 238 -13 401 -13 L401 -13 Z " />
<glyph glyph-name="umacron" unicode="&#x16b;" horiz-adv-x="657" d="M172 647 L500 647 L500 776 L172 776 L172 647 Z M245 -12 C318 -12 390 31 423 56 L423 0 L590 0 L590 546 L423 546 L423 160 C396 147 351 133 301 133 C245 133 228 146 228 221 L228 546 L62 546 L62 207 C62 83 74 -12 245 -12 L245 -12 Z " />
<glyph glyph-name="Ubreve" unicode="&#x16c;" horiz-adv-x="795" d="M397 753 C501 753 564 818 596 865 L515 938 C481 903 443 876 401 876 C358 876 318 904 282 938 L196 864 C226 816 288 753 397 753 L397 753 Z M401 -13 C559 -13 725 65 725 312 L725 707 L558 707 L558 315 C558 189 508 126 401 126 C293 126 244 186 244 294 L244 707 L72 707 L72 288 C72 59 238 -13 401 -13 L401 -13 Z " />
<glyph glyph-name="ubreve" unicode="&#x16d;" horiz-adv-x="657" d="M323 614 C427 614 490 679 522 726 L441 799 C407 764 369 737 327 737 C284 737 244 765 208 799 L122 725 C152 677 214 614 323 614 L323 614 Z M245 -12 C318 -12 390 31 423 56 L423 0 L590 0 L590 546 L423 546 L423 160 C396 147 351 133 301 133 C245 133 228 146 228 221 L228 546 L62 546 L62 207 C62 83 74 -12 245 -12 L245 -12 Z " />
<glyph glyph-name="Uring" unicode="&#x16e;" horiz-adv-x="795" d="M402 714 C470 714 533 748 533 829 C533 923 451 948 399 948 C334 948 267 911 267 827 C267 738 339 714 402 714 L402 714 Z M400 778 C365 778 345 798 345 830 C345 862 361 879 400 879 C431 879 455 859 455 828 C452 797 435 778 400 778 L400 778 Z M401 -13 C559 -13 725 65 725 312 L725 707 L558 707 L558 315 C558 189 508 126 401 126 C293 126 244 186 244 294 L244 707 L72 707 L72 288 C72 59 238 -13 401 -13 L401 -13 Z " />
<glyph glyph-name="uring" unicode="&#x16f;" horiz-adv-x="657" d="M328 586 C404 586 474 624 474 714 C474 818 383 846 325 846 C253 846 178 805 178 712 C178 613 258 586 328 586 L328 586 Z M326 657 C287 657 265 679 265 715 C265 750 283 769 326 769 C361 769 387 747 387 713 C384 678 365 657 326 657 L326 657 Z M245 -12 C318 -12 390 31 423 56 L423 0 L590 0 L590 546 L423 546 L423 160 C396 147 351 133 301 133 C245 133 228 146 228 221 L228 546 L62 546 L62 207 C62 83 74 -12 245 -12 L245 -12 Z " />
<glyph glyph-name="Uhungarumlaut" unicode="&#x170;" horiz-adv-x="795" d="M438 889 L360 998 L137 831 L204 735 L438 889 Z M736 787 L708 918 L437 852 L460 738 L736 787 Z M401 -13 C559 -13 725 65 725 312 L725 707 L558 707 L558 315 C558 189 508 126 401 126 C293 126 244 186 244 294 L244 707 L72 707 L72 288 C72 59 238 -13 401 -13 L401 -13 Z " />
<glyph glyph-name="uhungarumlaut" unicode="&#x171;" horiz-adv-x="657" d="M154 595 L355 762 L272 856 L82 675 L154 595 Z M377 594 L620 695 L567 808 L331 691 L377 594 Z M245 -12 C318 -12 390 31 423 56 L423 0 L590 0 L590 546 L423 546 L423 160 C396 147 351 133 301 133 C245 133 228 146 228 221 L228 546 L62 546 L62 207 C62 83 74 -12 245 -12 L245 -12 Z " />
<glyph glyph-name="Uogonek" unicode="&#x172;" horiz-adv-x="800" d="M553 -230 L525 -130 C504 -141 484 -147 460 -147 C441 -147 420 -132 420 -105 C420 -65 467 -27 514 1 C630 33 727 123 727 312 L727 707 L560 707 L560 315 C560 189 510 126 403 126 C295 126 246 186 246 294 L246 707 L74 707 L74 288 C74 90 197 9 336 -9 C301 -43 278 -83 278 -128 C278 -216 354 -261 437 -261 C476 -261 517 -251 553 -230 L553 -230 Z " />
<glyph glyph-name="uogonek" unicode="&#x173;" horiz-adv-x="657" d="M599 -127 C576 -134 547 -141 518 -141 C497 -141 480 -132 480 -114 C480 -74 542 -31 590 0 L590 546 L423 546 L423 160 C396 147 351 130 301 130 C245 130 228 143 228 218 L228 546 L62 546 L62 204 C62 80 74 -15 245 -15 C318 -15 390 31 423 56 L423 -15 C383 -51 341 -102 341 -148 C341 -226 390 -260 494 -260 C549 -260 591 -245 625 -230 L599 -127 Z " />
<glyph glyph-name="Wcircumflex" unicode="&#x174;" horiz-adv-x="1068" d="M399 741 L532 802 L665 741 L724 848 L532 944 L341 848 L399 741 Z M1061 707 L889 706 L761 112 L621 707 L468 707 L303 106 L203 707 L28 707 L180 0 L407 0 L532 472 L645 0 L867 0 L1061 707 Z " />
<glyph glyph-name="wcircumflex" unicode="&#x175;" horiz-adv-x="913" d="M592 606 L660 698 L464 829 L262 699 L335 607 L463 696 L592 606 Z M158 0 L365 0 L436 298 L457 389 L475 298 L539 0 L744 0 L906 546 L735 546 L645 136 L560 546 L363 546 L263 136 L193 546 L18 546 L158 0 Z " />
<glyph glyph-name="Ycircumflex" unicode="&#x176;" horiz-adv-x="698" d="M222 741 L355 802 L488 741 L547 848 L355 944 L164 848 L222 741 Z M262 0 L432 0 L432 233 L710 707 L519 707 L353 370 L197 707 L1 707 L262 227 L262 0 Z " />
<glyph glyph-name="ycircumflex" unicode="&#x177;" horiz-adv-x="597" d="M429 606 L497 698 L301 829 L99 699 L172 607 L300 696 L429 606 Z M173 -220 L332 -220 L599 546 L431 546 L322 222 L295 133 L272 222 L178 546 L-1 546 L187 0 L247 0 L173 -220 Z " />
<glyph glyph-name="Ydieresis" unicode="&#x178;" horiz-adv-x="698" d="M299 766 L299 915 L143 915 L143 766 L299 766 Z M558 766 L558 915 L402 915 L402 766 L558 766 Z M262 0 L432 0 L432 233 L710 707 L519 707 L353 370 L197 707 L1 707 L262 227 L262 0 Z " />
<glyph glyph-name="Zacute" unicode="&#x179;" horiz-adv-x="624" d="M219 744 L494 793 L467 924 L196 857 L219 744 Z M33 0 L588 0 L588 141 L238 141 L567 599 L567 707 L59 707 L59 566 L358 566 L33 114 L33 0 Z " />
<glyph glyph-name="zacute" unicode="&#x17a;" horiz-adv-x="529" d="M173 602 L418 706 L364 823 L126 702 L173 602 Z M34 0 L490 0 L490 132 L236 132 L486 440 L486 546 L50 546 L50 412 L290 412 L34 109 L34 0 Z " />
<glyph glyph-name="Zdotaccent" unicode="&#x17b;" horiz-adv-x="624" d="M233 774 L399 774 L399 923 L233 923 L233 774 Z M33 0 L588 0 L588 141 L238 141 L567 599 L567 707 L59 707 L59 566 L358 566 L33 114 L33 0 Z " />
<glyph glyph-name="zdotaccent" unicode="&#x17c;" horiz-adv-x="529" d="M200 643 L366 643 L366 792 L200 792 L200 643 Z M34 0 L490 0 L490 132 L236 132 L486 440 L486 546 L50 546 L50 412 L290 412 L34 109 L34 0 Z " />
<glyph glyph-name="Zcaron" unicode="&#x17d;" horiz-adv-x="624" d="M498 837 L439 943 L306 883 L173 943 L115 837 L306 740 L498 837 Z M33 0 L588 0 L588 141 L238 141 L567 599 L567 707 L59 707 L59 566 L358 566 L33 114 L33 0 Z " />
<glyph glyph-name="zcaron" unicode="&#x17e;" horiz-adv-x="529" d="M258 600 L460 730 L387 822 L259 733 L130 823 L62 731 L258 600 Z M34 0 L490 0 L490 132 L236 132 L486 440 L486 546 L50 546 L50 412 L290 412 L34 109 L34 0 Z " />
<glyph glyph-name="uni018E" unicode="&#x18e;" horiz-adv-x="597" d="M514 707 L50 707 L50 574 L344 574 L344 417 L92 417 L92 293 L344 293 L344 133 L49 133 L49 0 L514 0 L514 707 Z " />
<glyph glyph-name="uni018F" unicode="&#x18f;" horiz-adv-x="788" d="M382 -12 C624 -12 749 128 749 353 C749 564 626 717 389 718 C274 718 175 703 71 637 L137 527 C220 572 280 584 365 584 C486 584 556 514 572 412 L32 412 L32 338 C37 121 140 -12 382 -12 L382 -12 Z M385 122 C264 122 224 196 208 296 L572 296 C557 194 517 122 385 122 L385 122 Z " />
<glyph glyph-name="florin" unicode="&#x192;" horiz-adv-x="520" d="M-5 -227 C241 -227 314 -147 322 -3 L334 220 L450 220 L450 354 L342 354 L350 485 C355 568 455 562 530 568 L519 710 C348 710 195 684 183 488 L175 354 L66 354 L66 220 L166 220 L154 -1 C149 -91 59 -86 -10 -89 L-5 -227 Z " />
<glyph glyph-name="Ohorn" unicode="&#x1a0;" horiz-adv-x="852" d="M635 797 C640 780 643 763 643 747 C643 721 636 698 610 683 C560 705 499 718 427 718 C186 718 38 578 38 355 C38 128 160 -12 408 -12 C660 -12 795 128 795 353 C795 450 771 535 721 598 C757 625 787 666 787 727 C787 745 783 778 775 797 L635 797 Z M411 122 C267 122 210 227 210 356 C210 486 268 584 418 584 C561 584 622 486 622 354 C622 222 567 122 411 122 L411 122 Z " />
<glyph glyph-name="ohorn" unicode="&#x1a1;" horiz-adv-x="657" d="M486 653 C491 637 494 621 494 606 C494 577 491 550 457 535 C419 551 373 560 318 560 C145 560 32 449 32 268 C32 97 129 -12 309 -12 C477 -12 599 87 599 273 C599 339 586 395 561 440 C608 471 644 521 644 588 C644 604 641 635 633 653 L486 653 Z M317 121 C228 121 200 178 200 272 C200 361 225 428 315 428 C407 428 429 361 429 273 C429 180 407 121 317 121 L317 121 Z " />
<glyph glyph-name="Uhorn" unicode="&#x1af;" horiz-adv-x="840" d="M697 834 C702 817 705 800 705 784 C705 754 705 721 666 707 L557 707 L557 315 C557 189 507 126 400 126 C292 126 243 186 243 294 L243 707 L71 707 L71 288 C71 59 237 -13 400 -13 C558 -13 724 65 724 312 L724 592 C792 614 849 674 849 764 C849 782 845 815 837 834 L697 834 Z " />
<glyph glyph-name="uhorn" unicode="&#x1b0;" horiz-adv-x="706" d="M566 664 C571 648 574 632 574 617 C574 588 574 559 538 546 L423 546 L423 160 C396 147 351 133 301 133 C245 133 228 146 228 221 L228 546 L62 546 L62 207 C62 83 74 -12 245 -12 C318 -12 390 31 423 56 L423 0 L590 0 L590 428 C659 450 724 513 724 599 C724 615 721 646 713 664 L566 664 Z " />
<glyph glyph-name="uni01C4" unicode="&#x1c4;" horiz-adv-x="1411" d="M83 0 L342 0 C597 0 749 111 749 356 C749 602 581 707 336 707 L83 707 L83 0 Z M252 133 L252 574 L333 574 C503 574 579 498 579 346 C579 207 516 133 353 133 L252 133 Z M1295 837 L1236 943 L1103 883 L970 943 L912 837 L1103 740 L1295 837 Z M820 0 L1375 0 L1375 141 L1025 141 L1354 599 L1354 707 L846 707 L846 566 L1145 566 L820 114 L820 0 Z " />
<glyph glyph-name="uni01C5" unicode="&#x1c5;" horiz-adv-x="1304" d="M62 0 L321 0 C576 0 728 111 728 356 C728 602 560 707 315 707 L62 707 L62 0 Z M231 133 L231 574 L312 574 C482 574 558 498 558 346 C558 207 495 133 332 133 L231 133 Z M809 0 L1265 0 L1265 132 L1011 132 L1261 440 L1261 546 L825 546 L825 412 L1065 412 L809 109 L809 0 Z M1045 599 L1247 729 L1174 821 L1046 732 L917 822 L849 730 L1045 599 Z " />
<glyph glyph-name="uni01C6" unicode="&#x1c6;" horiz-adv-x="1171" d="M279 -8 C348 -8 379 20 403 39 L403 0 L570 0 L570 754 L403 754 L403 554 C386 556 361 560 331 560 C165 560 34 469 34 282 C34 45 169 -8 279 -8 L279 -8 Z M312 130 C253 130 200 160 200 279 C200 374 239 428 334 428 C364 428 386 424 403 421 L403 148 C378 138 342 130 312 130 L312 130 Z M915 600 L1117 730 L1044 822 L916 733 L787 823 L719 731 L915 600 Z M676 0 L1132 0 L1132 132 L878 132 L1128 440 L1128 546 L692 546 L692 412 L932 412 L676 109 L676 0 Z " />
<glyph glyph-name="uni01C7" unicode="&#x1c7;" horiz-adv-x="908" d="M83 0 L560 0 L560 134 L253 134 L253 707 L83 707 L83 0 Z M572 -198 C806 -122 827 11 827 153 L827 707 L656 707 L656 151 C656 33 630 -10 511 -76 L572 -198 Z " />
<glyph glyph-name="uni01C8" unicode="&#x1c8;" horiz-adv-x="859" d="M62 0 L539 0 L539 134 L232 134 L232 707 L62 707 L62 0 Z M571 -225 C687 -225 792 -188 792 2 L792 546 L626 546 L626 3 C626 -65 608 -84 565 -84 C534 -84 502 -78 474 -68 L443 -197 C478 -213 532 -225 571 -225 L571 -225 Z M624 643 L790 643 L790 792 L624 792 L624 643 Z " />
<glyph glyph-name="uni01C9" unicode="&#x1c9;" horiz-adv-x="603" d="M67 0 L234 0 L234 754 L67 754 L67 0 Z M315 -225 C431 -225 536 -188 536 2 L536 546 L370 546 L370 3 C370 -65 352 -84 309 -84 C278 -84 246 -78 218 -68 L187 -197 C222 -213 276 -225 315 -225 L315 -225 Z M368 643 L534 643 L534 792 L368 792 L368 643 Z " />
<glyph glyph-name="uni01CA" unicode="&#x1ca;" horiz-adv-x="1131" d="M83 0 L253 0 L253 379 L249 473 L253 473 L520 0 L723 0 L723 707 L553 707 L553 301 L558 222 L555 222 L280 707 L83 707 L83 0 Z M795 -198 C1029 -122 1050 11 1050 153 L1050 707 L879 707 L879 151 C879 33 853 -10 734 -76 L795 -198 Z " />
<glyph glyph-name="uni01CB" unicode="&#x1cb;" horiz-adv-x="1082" d="M62 0 L232 0 L232 379 L228 473 L232 473 L499 0 L702 0 L702 707 L532 707 L532 301 L537 222 L534 222 L259 707 L62 707 L62 0 Z M794 -225 C910 -225 1015 -188 1015 2 L1015 546 L849 546 L849 3 C849 -65 831 -84 788 -84 C757 -84 725 -78 697 -68 L666 -197 C701 -213 755 -225 794 -225 L794 -225 Z M847 643 L1013 643 L1013 792 L847 792 L847 643 Z " />
<glyph glyph-name="uni01CC" unicode="&#x1cc;" horiz-adv-x="964" d="M67 0 L234 0 L234 387 C261 400 306 416 356 416 C412 416 429 403 429 328 L429 0 L595 0 L595 342 C595 466 583 560 412 560 C339 560 267 516 234 491 L234 546 L67 546 L67 0 Z M729 643 L895 643 L895 792 L729 792 L729 643 Z M676 -225 C792 -225 897 -188 897 2 L897 546 L731 546 L731 3 C731 -65 713 -84 670 -84 C639 -84 607 -78 579 -68 L548 -197 C583 -213 637 -225 676 -225 L676 -225 Z " />
<glyph glyph-name="uni01CD" unicode="&#x1cd;" horiz-adv-x="718" d="M-14 0 L156 0 L233 207 L472 207 L539 0 L715 0 L477 707 L258 707 L-14 0 Z M278 330 L361 602 L432 330 L278 330 Z M555 837 L496 943 L363 883 L230 943 L172 837 L363 740 L555 837 Z " />
<glyph glyph-name="uni01CE" unicode="&#x1ce;" horiz-adv-x="594" d="M215 -9 C275 -9 332 22 372 53 C387 6 457 -5 523 -5 C536 -5 549 -5 562 -4 L568 122 C537 123 519 127 519 145 L519 388 C519 511 451 559 282 559 C195 559 123 539 61 515 L94 394 C145 408 203 418 257 418 C325 418 356 404 356 356 L356 322 L261 322 C153 322 27 294 27 156 C27 47 95 -9 215 -9 L215 -9 Z M250 120 C220 120 189 134 189 166 C189 206 225 222 274 223 L356 225 L356 139 C320 127 282 120 250 120 L250 120 Z M297 599 L499 729 L426 821 L298 732 L169 822 L101 730 L297 599 Z " />
<glyph glyph-name="uni01CF" unicode="&#x1cf;" horiz-adv-x="336" d="M83 0 L253 0 L253 707 L83 707 L83 0 Z M359 837 L300 943 L167 883 L34 943 L-24 837 L167 740 L359 837 Z " />
<glyph glyph-name="uni01D0" unicode="&#x1d0;" horiz-adv-x="301" d="M67 0 L234 0 L234 546 L67 546 L67 0 Z M147 599 L349 729 L276 821 L148 732 L19 822 L-49 730 L147 599 Z " />
<glyph glyph-name="uni01D1" unicode="&#x1d1;" horiz-adv-x="833" d="M408 -12 C660 -12 795 128 795 353 C795 564 684 718 427 718 C186 718 38 578 38 355 C38 128 160 -12 408 -12 L408 -12 Z M411 122 C267 122 210 227 210 356 C210 486 268 584 418 584 C561 584 622 486 622 354 C622 222 567 122 411 122 L411 122 Z M613 837 L554 943 L421 883 L288 943 L230 837 L421 740 L613 837 Z " />
<glyph glyph-name="uni01D2" unicode="&#x1d2;" horiz-adv-x="632" d="M309 -12 C477 -12 599 87 599 273 C599 451 512 560 318 560 C145 560 32 449 32 268 C32 97 129 -12 309 -12 L309 -12 Z M317 121 C228 121 200 178 200 272 C200 361 225 428 315 428 C407 428 429 361 429 273 C429 180 407 121 317 121 L317 121 Z M313 599 L515 729 L442 821 L314 732 L185 822 L117 730 L313 599 Z " />
<glyph glyph-name="uni01D3" unicode="&#x1d3;" horiz-adv-x="795" d="M594 837 L535 943 L402 883 L269 943 L211 837 L402 740 L594 837 Z M401 -13 C559 -13 725 65 725 312 L725 707 L558 707 L558 315 C558 189 508 126 401 126 C293 126 244 186 244 294 L244 707 L72 707 L72 288 C72 59 238 -13 401 -13 L401 -13 Z " />
<glyph glyph-name="uni01D4" unicode="&#x1d4;" horiz-adv-x="657" d="M327 600 L529 730 L456 822 L328 733 L199 823 L131 731 L327 600 Z M245 -12 C318 -12 390 31 423 56 L423 0 L590 0 L590 546 L423 546 L423 160 C396 147 351 133 301 133 C245 133 228 146 228 221 L228 546 L62 546 L62 207 C62 83 74 -12 245 -12 L245 -12 Z " />
<glyph glyph-name="uni01D5" unicode="&#x1d5;" horiz-adv-x="795" d="M350 756 L350 905 L194 905 L194 756 L350 756 Z M609 756 L609 905 L453 905 L453 756 L609 756 Z M401 -13 C559 -13 725 65 725 312 L725 707 L558 707 L558 315 C558 189 508 126 401 126 C293 126 244 186 244 294 L244 707 L72 707 L72 288 C72 59 238 -13 401 -13 L401 -13 Z M234 945 L562 945 L562 1074 L234 1074 L234 945 Z " />
<glyph glyph-name="uni01D6" unicode="&#x1d6;" horiz-adv-x="657" d="M285 613 L285 762 L129 762 L129 613 L285 613 Z M538 613 L538 762 L382 762 L382 613 L538 613 Z M245 -12 C318 -12 390 31 423 56 L423 0 L590 0 L590 546 L423 546 L423 160 C396 147 351 133 301 133 C245 133 228 146 228 221 L228 546 L62 546 L62 207 C62 83 74 -12 245 -12 L245 -12 Z M162 801 L490 801 L490 930 L162 930 L162 801 Z " />
<glyph glyph-name="uni01D7" unicode="&#x1d7;" horiz-adv-x="795" d="M350 756 L350 905 L194 905 L194 756 L350 756 Z M609 756 L609 905 L453 905 L453 756 L609 756 Z M401 -13 C559 -13 725 65 725 312 L725 707 L558 707 L558 315 C558 189 508 126 401 126 C293 126 244 186 244 294 L244 707 L72 707 L72 288 C72 59 238 -13 401 -13 L401 -13 Z M340 911 L615 960 L588 1091 L317 1024 L340 911 Z " />
<glyph glyph-name="uni01D8" unicode="&#x1d8;" horiz-adv-x="657" d="M285 613 L285 762 L129 762 L129 613 L285 613 Z M538 613 L538 762 L382 762 L382 613 L538 613 Z M245 -12 C318 -12 390 31 423 56 L423 0 L590 0 L590 546 L423 546 L423 160 C396 147 351 133 301 133 C245 133 228 146 228 221 L228 546 L62 546 L62 207 C62 83 74 -12 245 -12 L245 -12 Z M295 760 L540 864 L486 981 L248 860 L295 760 Z " />
<glyph glyph-name="uni01D9" unicode="&#x1d9;" horiz-adv-x="795" d="M350 756 L350 905 L194 905 L194 756 L350 756 Z M609 756 L609 905 L453 905 L453 756 L609 756 Z M401 -13 C559 -13 725 65 725 312 L725 707 L558 707 L558 315 C558 189 508 126 401 126 C293 126 244 186 244 294 L244 707 L72 707 L72 288 C72 59 238 -13 401 -13 L401 -13 Z M592 1000 L533 1106 L400 1046 L267 1106 L209 1000 L400 903 L592 1000 Z " />
<glyph glyph-name="uni01DA" unicode="&#x1da;" horiz-adv-x="657" d="M285 613 L285 762 L129 762 L129 613 L285 613 Z M538 613 L538 762 L382 762 L382 613 L538 613 Z M245 -12 C318 -12 390 31 423 56 L423 0 L590 0 L590 546 L423 546 L423 160 C396 147 351 133 301 133 C245 133 228 146 228 221 L228 546 L62 546 L62 207 C62 83 74 -12 245 -12 L245 -12 Z M323 752 L525 882 L452 974 L324 885 L195 975 L127 883 L323 752 Z " />
<glyph glyph-name="uni01DB" unicode="&#x1db;" horiz-adv-x="795" d="M350 756 L350 905 L194 905 L194 756 L350 756 Z M609 756 L609 905 L453 905 L453 756 L609 756 Z M401 -13 C559 -13 725 65 725 312 L725 707 L558 707 L558 315 C558 189 508 126 401 126 C293 126 244 186 244 294 L244 707 L72 707 L72 288 C72 59 238 -13 401 -13 L401 -13 Z M442 920 L465 1033 L194 1100 L167 969 L442 920 Z " />
<glyph glyph-name="uni01DC" unicode="&#x1dc;" horiz-adv-x="657" d="M285 613 L285 762 L129 762 L129 613 L285 613 Z M538 613 L538 762 L382 762 L382 613 L538 613 Z M245 -12 C318 -12 390 31 423 56 L423 0 L590 0 L590 546 L423 546 L423 160 C396 147 351 133 301 133 C245 133 228 146 228 221 L228 546 L62 546 L62 207 C62 83 74 -12 245 -12 L245 -12 Z M373 756 L421 856 L183 977 L129 860 L373 756 Z " />
<glyph glyph-name="uni01DD" unicode="&#x1dd;" horiz-adv-x="587" d="M256 559 C190 559 112 548 51 528 L76 405 C133 418 195 427 232 427 C319 427 387 411 386 325 L32 325 L32 265 C32 100 100 -12 272 -12 C437 -12 552 59 552 282 C552 500 436 559 256 559 L256 559 Z M381 218 C378 146 341 106 284 106 C230 106 201 152 203 218 L381 218 Z " />
<glyph glyph-name="uni01E2" unicode="&#x1e2;" horiz-adv-x="977" d="M420 764 L748 764 L748 893 L420 893 L420 764 Z M-24 0 L168 0 L270 244 L449 244 L449 0 L936 0 L936 133 L619 133 L619 293 L891 293 L891 417 L619 417 L619 574 L913 574 L913 707 L308 707 L-24 0 Z M321 368 L407 574 L449 574 L449 368 L321 368 Z " />
<glyph glyph-name="uni01E3" unicode="&#x1e3;" horiz-adv-x="908" d="M297 647 L625 647 L625 776 L297 776 L297 647 Z M652 -9 C718 -9 794 1 855 19 L832 140 C775 130 712 121 675 121 C588 121 521 135 522 221 L876 229 L876 282 C876 447 810 559 638 559 C572 559 515 548 469 520 C422 556 351 559 282 559 C195 559 125 539 61 515 L94 394 C145 406 203 418 257 418 C325 418 356 410 356 362 L356 318 C326 318 261 315 261 315 C153 312 27 296 27 154 C27 45 95 -8 215 -8 C300 -8 370 40 408 74 C459 11 544 -9 652 -9 L652 -9 Z M242 119 C211 119 190 135 190 163 C190 187 200 212 274 214 L358 216 C361 188 366 164 373 142 C323 124 273 119 242 119 L242 119 Z M527 329 C527 408 575 439 626 439 C668 439 707 402 705 336 L527 329 Z " />
<glyph glyph-name="uni01E6" unicode="&#x1e6;" horiz-adv-x="709" d="M427 -10 C513 -10 580 0 660 31 L660 350 L490 350 L490 133 C476 133 461 132 445 132 C316 132 212 203 212 359 C212 515 306 577 432 577 C504 577 535 568 602 551 L647 674 C591 697 535 717 435 717 C178 717 39 605 39 349 C39 104 192 -10 427 -10 L427 -10 Z M598 837 L539 943 L406 883 L273 943 L215 837 L406 740 L598 837 Z " />
<glyph glyph-name="uni01E7" unicode="&#x1e7;" horiz-adv-x="605" d="M274 191 C396 191 506 255 506 367 C506 379 502 415 500 426 L583 426 L583 543 L408 530 C388 540 340 559 270 559 C130 559 39 470 39 362 C39 290 70 247 115 222 C72 190 49 145 49 104 C49 72 63 43 92 23 C50 -5 31 -56 31 -90 C31 -181 108 -230 269 -230 C454 -230 543 -139 543 -27 C543 88 465 134 315 134 L212 134 C183 134 169 147 169 164 C169 174 174 187 184 199 C212 193 243 191 274 191 L274 191 Z M274 599 L476 729 L403 821 L275 732 L146 822 L78 730 L274 599 Z M329 0 C373 0 410 -11 410 -49 C410 -85 354 -107 264 -107 C179 -107 147 -78 147 -42 C147 -28 151 -13 159 1 C167 0 176 0 185 0 L329 0 Z M273 289 C215 289 186 320 186 364 C186 416 215 452 275 452 C328 452 358 413 358 369 C358 326 325 289 273 289 L273 289 Z " />
<glyph glyph-name="uni01E8" unicode="&#x1e8;" horiz-adv-x="723" d="M83 0 L253 0 L253 354 L511 0 L728 0 L426 376 L712 707 L495 707 L253 404 L253 707 L83 707 L83 0 Z M562 837 L503 943 L370 883 L237 943 L179 837 L370 740 L562 837 Z " />
<glyph glyph-name="uni01E9" unicode="&#x1e9;" horiz-adv-x="598" d="M67 0 L234 0 L234 225 L391 0 L597 0 L365 294 L564 546 L385 546 L234 344 L234 754 L67 754 L67 0 Z M518 837 L459 943 L326 883 L193 943 L135 837 L326 740 L518 837 Z " />
<glyph glyph-name="uni01EA" unicode="&#x1ea;" horiz-adv-x="835" d="M588 -230 L560 -130 C539 -141 519 -147 495 -147 C476 -147 455 -132 455 -105 C455 -62 510 -21 561 8 C715 55 796 178 796 353 C796 564 685 718 428 718 C187 718 39 578 39 355 C39 140 148 3 369 -11 C335 -45 313 -84 313 -128 C313 -216 389 -261 472 -261 C511 -261 552 -251 588 -230 L588 -230 Z M412 122 C268 122 211 227 211 356 C211 486 269 584 419 584 C562 584 623 486 623 354 C623 222 568 122 412 122 L412 122 Z " />
<glyph glyph-name="uni01EB" unicode="&#x1eb;" horiz-adv-x="633" d="M454 -230 L426 -130 C405 -141 385 -147 361 -147 C342 -147 321 -132 321 -105 C321 -64 371 -25 420 4 C529 40 600 131 600 273 C600 451 513 560 319 560 C146 560 33 449 33 268 C33 120 105 19 240 -6 C203 -41 179 -82 179 -128 C179 -216 255 -261 338 -261 C377 -261 418 -251 454 -230 L454 -230 Z M318 121 C229 121 201 178 201 272 C201 361 226 428 316 428 C408 428 430 361 430 273 C430 180 408 121 318 121 L318 121 Z " />
<glyph glyph-name="uni01EC" unicode="&#x1ec;" horiz-adv-x="835" d="M588 -230 L560 -130 C539 -141 519 -147 495 -147 C476 -147 455 -132 455 -105 C455 -62 510 -21 561 8 C715 55 796 178 796 353 C796 564 685 718 428 718 C187 718 39 578 39 355 C39 140 148 3 369 -11 C335 -45 313 -84 313 -128 C313 -216 389 -261 472 -261 C511 -261 552 -251 588 -230 L588 -230 Z M412 122 C268 122 211 227 211 356 C211 486 269 584 419 584 C562 584 623 486 623 354 C623 222 568 122 412 122 L412 122 Z M248 764 L576 764 L576 893 L248 893 L248 764 Z " />
<glyph glyph-name="uni01ED" unicode="&#x1ed;" horiz-adv-x="633" d="M454 -230 L426 -130 C405 -141 385 -147 361 -147 C342 -147 321 -132 321 -105 C321 -64 371 -25 420 4 C529 40 600 131 600 273 C600 451 513 560 319 560 C146 560 33 449 33 268 C33 120 105 19 240 -6 C203 -41 179 -82 179 -128 C179 -216 255 -261 338 -261 C377 -261 418 -251 454 -230 L454 -230 Z M318 121 C229 121 201 178 201 272 C201 361 226 428 316 428 C408 428 430 361 430 273 C430 180 408 121 318 121 L318 121 Z M148 646 L476 646 L476 775 L148 775 L148 646 Z " />
<glyph glyph-name="uni01EE" unicode="&#x1ee;" horiz-adv-x="563" d="M159 401 L180 297 C194 297 208 297 221 296 C294 293 353 281 353 207 C353 150 316 128 236 128 C175 128 108 139 65 150 L35 16 C35 16 110 -12 239 -12 C378 -12 522 42 522 205 C522 325 428 382 318 400 L500 599 L500 707 L44 707 L44 566 L305 566 L159 401 Z M466 837 L407 943 L274 883 L141 943 L83 837 L274 740 L466 837 Z " />
<glyph glyph-name="uni01EF" unicode="&#x1ef;" horiz-adv-x="511" d="M116 136 C206 135 313 110 313 37 C313 -34 213 -79 60 -99 L86 -225 C260 -220 482 -120 482 43 C482 161 382 221 273 243 L463 440 L463 546 L27 546 L27 412 L280 412 L116 249 L116 136 Z M248 599 L450 729 L377 821 L249 732 L120 822 L52 730 L248 599 Z " />
<glyph glyph-name="uni01F1" unicode="&#x1f1;" horiz-adv-x="1411" d="M83 0 L342 0 C597 0 749 111 749 356 C749 602 581 707 336 707 L83 707 L83 0 Z M252 133 L252 574 L333 574 C503 574 579 498 579 346 C579 207 516 133 353 133 L252 133 Z M820 0 L1375 0 L1375 141 L1025 141 L1354 599 L1354 707 L846 707 L846 566 L1145 566 L820 114 L820 0 Z " />
<glyph glyph-name="uni01F2" unicode="&#x1f2;" horiz-adv-x="1304" d="M62 0 L321 0 C576 0 728 111 728 356 C728 602 560 707 315 707 L62 707 L62 0 Z M231 133 L231 574 L312 574 C482 574 558 498 558 346 C558 207 495 133 332 133 L231 133 Z M809 0 L1265 0 L1265 132 L1011 132 L1261 440 L1261 546 L825 546 L825 412 L1065 412 L809 109 L809 0 Z " />
<glyph glyph-name="uni01F3" unicode="&#x1f3;" horiz-adv-x="1171" d="M279 -8 C348 -8 379 20 403 39 L403 0 L570 0 L570 754 L403 754 L403 554 C386 556 361 560 331 560 C165 560 34 469 34 282 C34 45 169 -8 279 -8 L279 -8 Z M312 130 C253 130 200 160 200 279 C200 374 239 428 334 428 C364 428 386 424 403 421 L403 148 C378 138 342 130 312 130 L312 130 Z M676 0 L1132 0 L1132 132 L878 132 L1128 440 L1128 546 L692 546 L692 412 L932 412 L676 109 L676 0 Z " />
<glyph glyph-name="uni01F4" unicode="&#x1f4;" horiz-adv-x="709" d="M427 -10 C513 -10 580 0 660 31 L660 350 L490 350 L490 133 C476 133 461 132 445 132 C316 132 212 203 212 359 C212 515 306 577 432 577 C504 577 535 568 602 551 L647 674 C591 697 535 717 435 717 C178 717 39 605 39 349 C39 104 192 -10 427 -10 L427 -10 Z M315 744 L590 793 L563 924 L292 857 L315 744 Z " />
<glyph glyph-name="uni01F5" unicode="&#x1f5;" horiz-adv-x="605" d="M274 191 C396 191 506 255 506 367 C506 379 502 415 500 426 L583 426 L583 543 L408 530 C388 540 340 559 270 559 C130 559 39 470 39 362 C39 290 70 247 115 222 C72 190 49 145 49 104 C49 72 63 43 92 23 C50 -5 31 -56 31 -90 C31 -181 108 -230 269 -230 C454 -230 543 -139 543 -27 C543 88 465 134 315 134 L212 134 C183 134 169 147 169 164 C169 174 174 187 184 199 C212 193 243 191 274 191 L274 191 Z M231 601 L476 705 L422 822 L184 701 L231 601 Z M329 0 C373 0 410 -11 410 -49 C410 -85 354 -107 264 -107 C179 -107 147 -78 147 -42 C147 -28 151 -13 159 1 C167 0 176 0 185 0 L329 0 Z M273 289 C215 289 186 320 186 364 C186 416 215 452 275 452 C328 452 358 413 358 369 C358 326 325 289 273 289 L273 289 Z " />
<glyph glyph-name="uni01F8" unicode="&#x1f8;" horiz-adv-x="806" d="M83 0 L253 0 L253 379 L249 473 L253 473 L520 0 L723 0 L723 707 L553 707 L553 301 L558 222 L555 222 L280 707 L83 707 L83 0 Z M513 744 L536 857 L265 924 L238 793 L513 744 Z " />
<glyph glyph-name="uni01F9" unicode="&#x1f9;" horiz-adv-x="657" d="M67 0 L234 0 L234 387 C261 400 306 416 356 416 C412 416 429 403 429 328 L429 0 L595 0 L595 342 C595 466 583 560 412 560 C339 560 267 516 234 491 L234 546 L67 546 L67 0 Z M406 601 L454 701 L216 822 L162 705 L406 601 Z " />
<glyph glyph-name="uni01FA" unicode="&#x1fa;" horiz-adv-x="718" d="M250 954 L525 1003 L498 1134 L227 1067 L250 954 Z M-14 0 L156 0 L233 207 L472 207 L539 0 L715 0 L477 707 L258 707 L-14 0 Z M278 330 L361 602 L432 330 L278 330 Z M370 722 C438 722 501 756 501 837 C501 931 419 956 367 956 C302 956 235 919 235 835 C235 746 307 722 370 722 L370 722 Z M368 786 C333 786 313 806 313 838 C313 870 329 887 368 887 C399 887 423 867 423 836 C420 805 403 786 368 786 L368 786 Z " />
<glyph glyph-name="uni01FB" unicode="&#x1fb;" horiz-adv-x="594" d="M215 -9 C275 -9 332 22 372 53 C387 6 457 -5 523 -5 C536 -5 549 -5 562 -4 L568 122 C537 123 519 127 519 145 L519 388 C519 511 451 559 282 559 C195 559 123 539 61 515 L94 394 C145 408 203 418 257 418 C325 418 356 404 356 356 L356 322 L261 322 C153 322 27 294 27 156 C27 47 95 -9 215 -9 L215 -9 Z M250 120 C220 120 189 134 189 166 C189 206 225 222 274 223 L356 225 L356 139 C320 127 282 120 250 120 L250 120 Z M296 581 C372 581 442 619 442 709 C442 813 351 841 293 841 C221 841 146 800 146 707 C146 608 226 581 296 581 L296 581 Z M294 652 C255 652 233 674 233 710 C233 745 251 764 294 764 C329 764 355 742 355 708 C352 673 333 652 294 652 L294 652 Z M177 851 L452 900 L425 1031 L154 964 L177 851 Z " />
<glyph glyph-name="AEacute" unicode="&#x1fc;" horiz-adv-x="977" d="M471 744 L746 793 L719 924 L448 857 L471 744 Z M-24 0 L168 0 L270 244 L449 244 L449 0 L936 0 L936 133 L619 133 L619 293 L891 293 L891 417 L619 417 L619 574 L913 574 L913 707 L308 707 L-24 0 Z M321 368 L407 574 L449 574 L449 368 L321 368 Z " />
<glyph glyph-name="aeacute" unicode="&#x1fd;" horiz-adv-x="908" d="M372 602 L617 706 L563 823 L325 702 L372 602 Z M652 -9 C718 -9 794 1 855 19 L832 140 C775 130 712 121 675 121 C588 121 521 135 522 221 L876 229 L876 282 C876 447 810 559 638 559 C572 559 515 548 469 520 C422 556 351 559 282 559 C195 559 125 539 61 515 L94 394 C145 406 203 418 257 418 C325 418 356 410 356 362 L356 318 C326 318 261 315 261 315 C153 312 27 296 27 154 C27 45 95 -8 215 -8 C300 -8 370 40 408 74 C459 11 544 -9 652 -9 L652 -9 Z M242 119 C211 119 190 135 190 163 C190 187 200 212 274 214 L358 216 C361 188 366 164 373 142 C323 124 273 119 242 119 L242 119 Z M527 329 C527 408 575 439 626 439 C668 439 707 402 705 336 L527 329 Z " />
<glyph glyph-name="Oslashacute" unicode="&#x1fe;" horiz-adv-x="860" d="M104 -45 L192 46 C250 9 326 -12 421 -12 C673 -12 808 128 808 353 C808 452 783 538 730 602 L811 686 L738 754 L654 667 C599 700 528 718 440 718 C199 718 51 578 51 355 C51 257 74 175 120 114 L34 25 L104 -45 Z M424 122 C372 122 331 135 301 159 L611 479 C627 443 635 401 635 354 C635 222 580 122 424 122 L424 122 Z M223 356 C223 486 281 584 431 584 C478 584 515 573 545 554 L242 240 C229 274 223 314 223 356 L223 356 Z M346 744 L621 793 L594 924 L323 857 L346 744 Z " />
<glyph glyph-name="oslashacute" unicode="&#x1ff;" horiz-adv-x="651" d="M318 -12 C486 -12 608 87 608 273 C608 350 591 414 557 462 L616 521 L567 570 L508 511 C464 543 404 560 327 560 C154 560 41 449 41 268 C41 196 58 136 91 89 L29 27 L79 -22 L140 39 C185 6 244 -12 318 -12 L318 -12 Z M251 602 L496 706 L442 823 L204 702 L251 602 Z M326 121 C290 121 264 130 246 147 L433 335 C436 316 438 295 438 273 C438 180 416 121 326 121 L326 121 Z M209 272 C209 361 234 428 324 428 C358 428 383 418 400 402 L213 213 C210 231 209 250 209 272 L209 272 Z " />
<glyph glyph-name="Scommaaccent" unicode="&#x218;" horiz-adv-x="586" d="M358 -59 L218 -59 L197 -279 L313 -279 L358 -59 Z M264 -12 C410 -12 558 55 558 210 C558 427 216 417 216 511 C216 550 254 577 309 577 C381 577 424 562 476 539 L525 664 C474 695 416 718 304 718 C179 718 50 650 50 514 C50 274 386 319 386 204 C386 161 347 128 262 128 C184 128 138 146 76 171 L27 45 C80 16 148 -12 264 -12 L264 -12 Z " />
<glyph glyph-name="scommaaccent" unicode="&#x219;" horiz-adv-x="503" d="M234 -12 C326 -12 477 23 477 167 C477 350 204 333 204 395 C204 415 226 428 272 428 C328 428 370 420 423 408 L451 529 C394 549 334 560 267 560 C148 560 37 505 37 387 C37 191 312 219 312 160 C312 138 293 122 218 122 C181 122 124 127 53 137 L35 11 C91 -5 155 -12 234 -12 L234 -12 Z M344 -59 L204 -59 L183 -279 L299 -279 L344 -59 Z " />
<glyph glyph-name="uni021A" unicode="&#x21a;" horiz-adv-x="636" d="M386 -59 L246 -59 L225 -279 L341 -279 L386 -59 Z M233 0 L403 0 L403 574 L625 574 L625 707 L11 707 L11 574 L233 574 L233 0 Z " />
<glyph glyph-name="uni021B" unicode="&#x21b;" horiz-adv-x="486" d="M304 -13 C344 -13 417 -3 459 12 L443 143 C403 134 362 127 325 127 C280 127 265 140 265 180 L265 423 L434 423 L434 546 L265 546 L265 658 L99 658 L99 546 L19 546 L19 423 L99 423 L99 170 C99 32 173 -13 304 -13 L304 -13 Z M366 -59 L226 -59 L205 -279 L321 -279 L366 -59 Z " />
<glyph glyph-name="uni021C" unicode="&#x21c;" horiz-adv-x="563" d="M159 401 L180 297 C194 297 208 297 221 296 C294 293 353 281 353 207 C353 150 316 128 236 128 C175 128 108 139 65 150 L35 16 C35 16 110 -12 239 -12 C378 -12 522 42 522 205 C522 325 428 382 318 400 L500 599 L500 707 L44 707 L44 566 L305 566 L159 401 Z " />
<glyph glyph-name="uni021D" unicode="&#x21d;" horiz-adv-x="511" d="M116 136 C206 135 313 110 313 37 C313 -34 213 -79 60 -99 L86 -225 C260 -220 482 -120 482 43 C482 161 382 221 273 243 L463 440 L463 546 L27 546 L27 412 L280 412 L116 249 L116 136 Z " />
<glyph glyph-name="uni021E" unicode="&#x21e;" horiz-adv-x="806" d="M83 0 L253 0 L253 291 L553 291 L553 0 L723 0 L723 707 L553 707 L553 420 L253 420 L253 707 L83 707 L83 0 Z M594 837 L535 943 L402 883 L269 943 L211 837 L402 740 L594 837 Z " />
<glyph glyph-name="uni021F" unicode="&#x21f;" horiz-adv-x="657" d="M67 0 L234 0 L234 384 C261 397 306 414 356 414 C412 414 429 401 429 326 L429 0 L595 0 L595 340 C595 464 583 559 412 559 C339 559 270 517 234 488 L234 754 L67 754 L67 0 Z M547 837 L488 943 L355 883 L222 943 L164 837 L355 740 L547 837 Z " />
<glyph glyph-name="uni0226" unicode="&#x226;" horiz-adv-x="718" d="M-14 0 L156 0 L233 207 L472 207 L539 0 L715 0 L477 707 L258 707 L-14 0 Z M278 330 L361 602 L432 330 L278 330 Z M280 774 L446 774 L446 923 L280 923 L280 774 Z " />
<glyph glyph-name="uni0227" unicode="&#x227;" horiz-adv-x="594" d="M215 -9 C275 -9 332 22 372 53 C387 6 457 -5 523 -5 C536 -5 549 -5 562 -4 L568 122 C537 123 519 127 519 145 L519 388 C519 511 451 559 282 559 C195 559 123 539 61 515 L94 394 C145 408 203 418 257 418 C325 418 356 404 356 356 L356 322 L261 322 C153 322 27 294 27 156 C27 47 95 -9 215 -9 L215 -9 Z M250 120 C220 120 189 134 189 166 C189 206 225 222 274 223 L356 225 L356 139 C320 127 282 120 250 120 L250 120 Z M219 643 L385 643 L385 792 L219 792 L219 643 Z " />
<glyph glyph-name="uni0228" unicode="&#x228;" horiz-adv-x="611" d="M83 0 L570 0 L570 133 L253 133 L253 293 L525 293 L525 417 L253 417 L253 574 L547 574 L547 707 L83 707 L83 0 Z M266 -283 C329 -257 424 -213 424 -132 C424 -104 413 -76 402 -51 L273 -51 C278 -71 285 -93 285 -113 C285 -148 234 -168 209 -183 L266 -283 Z " />
<glyph glyph-name="uni0229" unicode="&#x229;" horiz-adv-x="587" d="M331 -12 C397 -12 475 -1 536 19 L511 142 C454 129 392 120 355 120 C268 120 200 136 201 222 L555 222 L555 282 C555 447 487 559 315 559 C150 559 35 488 35 265 C35 47 151 -12 331 -12 L331 -12 Z M206 329 C209 401 246 441 303 441 C357 441 386 395 384 329 L206 329 Z M250 -283 C313 -257 408 -213 408 -132 C408 -104 397 -76 386 -51 L257 -51 C262 -71 269 -93 269 -113 C269 -148 218 -168 193 -183 L250 -283 Z " />
<glyph glyph-name="uni022E" unicode="&#x22e;" horiz-adv-x="833" d="M408 -12 C660 -12 795 128 795 353 C795 564 684 718 427 718 C186 718 38 578 38 355 C38 128 160 -12 408 -12 L408 -12 Z M411 122 C267 122 210 227 210 356 C210 486 268 584 418 584 C561 584 622 486 622 354 C622 222 567 122 411 122 L411 122 Z M331 774 L497 774 L497 923 L331 923 L331 774 Z " />
<glyph glyph-name="uni022F" unicode="&#x22f;" horiz-adv-x="632" d="M309 -12 C477 -12 599 87 599 273 C599 451 512 560 318 560 C145 560 32 449 32 268 C32 97 129 -12 309 -12 L309 -12 Z M317 121 C228 121 200 178 200 272 C200 361 225 428 315 428 C407 428 429 361 429 273 C429 180 407 121 317 121 L317 121 Z M232 643 L398 643 L398 792 L232 792 L232 643 Z " />
<glyph glyph-name="uni0232" unicode="&#x232;" horiz-adv-x="698" d="M188 764 L516 764 L516 893 L188 893 L188 764 Z M262 0 L432 0 L432 233 L710 707 L519 707 L353 370 L197 707 L1 707 L262 227 L262 0 Z " />
<glyph glyph-name="uni0233" unicode="&#x233;" horiz-adv-x="597" d="M132 647 L460 647 L460 776 L132 776 L132 647 Z M173 -220 L332 -220 L599 546 L431 546 L322 222 L295 133 L272 222 L178 546 L-1 546 L187 0 L247 0 L173 -220 Z " />
<glyph glyph-name="uni0237" unicode="&#x237;" horiz-adv-x="300" d="M12 -225 C128 -225 233 -188 233 2 L233 546 L67 546 L67 3 C67 -65 49 -84 6 -84 C-25 -84 -57 -78 -85 -68 L-116 -197 C-81 -213 -27 -225 12 -225 L12 -225 Z " />
<glyph glyph-name="uni0259" unicode="&#x259;" horiz-adv-x="587" d="M256 559 C190 559 112 548 51 528 L76 405 C133 418 195 427 232 427 C319 427 387 411 386 325 L32 325 L32 265 C32 100 100 -12 272 -12 C437 -12 552 59 552 282 C552 500 436 559 256 559 L256 559 Z M381 218 C378 146 341 106 284 106 C230 106 201 152 203 218 L381 218 Z " />
<glyph glyph-name="uni02BC" unicode="&#x2bc;" horiz-adv-x="664" d="M-128 485 L-8 485 C30 531 55 594 55 657 L55 754 L-96 754 L-96 619 C-96 600 -97 542 -128 485 L-128 485 Z " />
<glyph glyph-name="circumflex" unicode="&#x2c6;" horiz-adv-x="556" d="M407 605 L475 697 L279 828 L77 698 L150 606 L278 695 L407 605 Z " />
<glyph glyph-name="caron" unicode="&#x2c7;" horiz-adv-x="556" d="M273 599 L475 729 L402 821 L274 732 L145 822 L77 730 L273 599 Z " />
<glyph glyph-name="breve" unicode="&#x2d8;" horiz-adv-x="516" d="M275 613 C379 613 442 678 474 725 L393 798 C359 763 321 736 279 736 C236 736 196 764 160 798 L74 724 C104 676 166 613 275 613 L275 613 Z " />
<glyph glyph-name="dotaccent" unicode="&#x2d9;" horiz-adv-x="293" d="M63 643 L229 643 L229 792 L63 792 L63 643 Z " />
<glyph glyph-name="ring" unicode="&#x2da;" horiz-adv-x="552" d="M278 586 C354 586 424 624 424 714 C424 818 333 846 275 846 C203 846 128 805 128 712 C128 613 208 586 278 586 L278 586 Z M276 657 C237 657 215 679 215 715 C215 750 233 769 276 769 C311 769 337 747 337 713 C334 678 315 657 276 657 L276 657 Z " />
<glyph glyph-name="ogonek" unicode="&#x2db;" horiz-adv-x="581" d="M532 -230 L504 -130 C483 -141 463 -147 439 -147 C420 -147 399 -132 399 -105 C399 -58 466 -13 520 17 L468 87 C363 42 257 -33 257 -128 C257 -216 333 -261 416 -261 C455 -261 496 -251 532 -230 L532 -230 Z " />
<glyph glyph-name="tilde" unicode="&#x2dc;" horiz-adv-x="556" d="M331 633 C406 633 456 688 479 713 L424 787 C388 768 369 761 337 761 C303 761 277 799 214 799 C147 799 94 746 70 717 L133 643 C163 669 184 671 203 671 C242 671 280 633 331 633 L331 633 Z " />
<glyph glyph-name="hungarumlaut" unicode="&#x2dd;" horiz-adv-x="652" d="M130 595 L331 762 L248 856 L58 675 L130 595 Z M353 594 L596 695 L543 808 L307 691 L353 594 Z " />
<glyph glyph-name="gravecmb" unicode="&#x300;" d="M-222 601 L-174 701 L-412 822 L-466 705 L-222 601 Z " />
<glyph glyph-name="acutecmb" unicode="&#x301;" d="M-419 601 L-174 705 L-228 822 L-466 701 L-419 601 Z " />
<glyph glyph-name="uni0302" unicode="&#x302;" d="M-189 605 L-121 697 L-317 828 L-519 698 L-446 606 L-318 695 L-189 605 Z " />
<glyph glyph-name="tildecmb" unicode="&#x303;" d="M-263 633 C-188 633 -138 688 -115 713 L-170 787 C-206 768 -225 761 -257 761 C-291 761 -317 799 -380 799 C-447 799 -500 746 -524 717 L-461 643 C-431 669 -410 671 -391 671 C-352 671 -314 633 -263 633 L-263 633 Z " />
<glyph glyph-name="uni0304" unicode="&#x304;" d="M-484 646 L-156 646 L-156 775 L-484 775 L-484 646 Z " />
<glyph glyph-name="uni0306" unicode="&#x306;" d="M-325 613 C-221 613 -158 678 -126 725 L-207 798 C-241 763 -279 736 -321 736 C-364 736 -404 764 -440 798 L-526 724 C-496 676 -434 613 -325 613 L-325 613 Z " />
<glyph glyph-name="uni0307" unicode="&#x307;" d="M-404 643 L-238 643 L-238 792 L-404 792 L-404 643 Z " />
<glyph glyph-name="uni0308" unicode="&#x308;" d="M-536 641 L-370 641 L-370 790 L-536 790 L-536 641 Z M-288 641 L-122 641 L-122 790 L-288 790 L-288 641 Z " />
<glyph glyph-name="hookcmb" unicode="&#x309;" d="M-216 751 C-216 791 -231 824 -254 845 C-279 868 -313 880 -351 880 C-377 880 -409 873 -424 867 L-411 766 C-398 768 -385 771 -376 771 C-356 771 -340 761 -340 741 C-340 711 -371 693 -395 683 L-329 599 C-271 622 -216 671 -216 751 L-216 751 Z " />
<glyph glyph-name="uni030A" unicode="&#x30a;" d="M-318 586 C-242 586 -172 624 -172 714 C-172 818 -263 846 -321 846 C-393 846 -468 805 -468 712 C-468 613 -388 586 -318 586 L-318 586 Z M-320 657 C-359 657 -381 679 -381 715 C-381 750 -363 769 -320 769 C-285 769 -259 747 -259 713 C-262 678 -281 657 -320 657 L-320 657 Z " />
<glyph glyph-name="uni030B" unicode="&#x30b;" d="M-497 595 L-296 762 L-379 856 L-569 675 L-497 595 Z M-274 594 L-31 695 L-84 808 L-320 691 L-274 594 Z " />
<glyph glyph-name="uni030C" unicode="&#x30c;" d="M-323 579 L-121 709 L-194 801 L-322 712 L-451 802 L-519 710 L-323 579 Z " />
<glyph glyph-name="uni0310" unicode="&#x310;" d="M-319 613 C-215 613 -152 678 -120 725 L-201 798 C-235 763 -273 736 -315 736 C-358 736 -398 764 -434 798 L-520 724 C-490 676 -428 613 -319 613 L-319 613 Z M-397 811 L-231 811 L-231 960 L-397 960 L-397 811 Z " />
<glyph glyph-name="dotbelowcmb" unicode="&#x323;" d="M-406 -220 L-240 -220 L-240 -71 L-406 -71 L-406 -220 Z " />
<glyph glyph-name="uni0324" unicode="&#x324;" d="M-528 -220 L-362 -220 L-362 -71 L-528 -71 L-528 -220 Z M-282 -220 L-116 -220 L-116 -71 L-282 -71 L-282 -220 Z " />
<glyph glyph-name="uni0325" unicode="&#x325;" d="M-316 -295 C-240 -295 -170 -257 -170 -167 C-170 -63 -261 -35 -319 -35 C-391 -35 -466 -76 -466 -169 C-466 -268 -386 -295 -316 -295 L-316 -295 Z M-318 -224 C-357 -224 -379 -202 -379 -166 C-379 -131 -361 -112 -318 -112 C-283 -112 -257 -134 -257 -168 C-260 -203 -279 -224 -318 -224 L-318 -224 Z " />
<glyph glyph-name="uni0327" unicode="&#x327;" d="M-370 -283 C-307 -257 -212 -213 -212 -132 C-212 -104 -223 -76 -234 -51 L-363 -51 C-358 -71 -351 -93 -351 -113 C-351 -148 -402 -168 -427 -183 L-370 -283 Z " />
<glyph glyph-name="uni0328" unicode="&#x328;" d="M-306 -261 C-245 -261 -216 -250 -182 -235 L-210 -128 C-233 -135 -263 -137 -282 -137 C-296 -137 -315 -133 -315 -115 C-315 -68 -246 -15 -192 15 L-252 95 C-324 57 -457 -22 -457 -117 C-457 -196 -424 -261 -306 -261 L-306 -261 Z " />
<glyph glyph-name="uni032E" unicode="&#x32e;" d="M-319 -234 C-215 -234 -152 -169 -120 -122 L-201 -49 C-235 -84 -273 -111 -315 -111 C-358 -111 -398 -83 -434 -49 L-520 -123 C-490 -171 -428 -234 -319 -234 L-319 -234 Z " />
<glyph glyph-name="uni0331" unicode="&#x331;" d="M-484 -230 L-156 -230 L-156 -101 L-484 -101 L-484 -230 Z " />
<glyph glyph-name="uni0374" unicode="&#x374;" horiz-adv-x="277" d="M38 485 L174 485 C212 531 237 594 237 657 L237 755 L70 755 L70 619 C70 600 69 542 38 485 L38 485 Z " />
<glyph glyph-name="uni0375" unicode="&#x375;" horiz-adv-x="301" d="M62 -122 L198 -122 C236 -76 261 -13 261 50 L261 148 L94 148 L94 12 C94 -7 93 -65 62 -122 L62 -122 Z " />
<glyph glyph-name="uni037E" unicode="&#x37e;" horiz-adv-x="496" d="M341 384 L341 546 L156 546 L156 384 L341 384 Z M340 55 L340 163 L156 163 L156 13 C156 -8 155 -72 121 -134 L271 -134 C313 -84 340 -14 340 55 L340 55 Z " />
<glyph glyph-name="tonos" unicode="&#x384;" horiz-adv-x="500" d="M351 623 L479 623 L577 781 L420 781 L351 623 Z " />
<glyph glyph-name="dieresistonos" unicode="&#x385;" horiz-adv-x="589" d="M213 623 L323 623 L393 780 L239 780 L213 623 Z M60 643 L187 643 L187 757 L60 757 L60 643 Z M407 643 L534 643 L534 757 L407 757 L407 643 Z " />
<glyph glyph-name="Alphatonos" unicode="&#x386;" horiz-adv-x="700" d="M-55 546 L73 546 L171 707 L14 707 L-55 546 Z M-23 0 L147 0 L224 207 L463 207 L530 0 L706 0 L468 707 L249 707 L-23 0 Z M269 330 L352 602 L423 330 L269 330 Z " />
<glyph glyph-name="anoteleia" unicode="&#x387;" horiz-adv-x="267" d="M41 305 L226 305 L226 467 L41 467 L41 305 Z " />
<glyph glyph-name="Epsilontonos" unicode="&#x388;" horiz-adv-x="608" d="M-180 546 L-52 546 L46 707 L-111 707 L-180 546 Z M83 0 L570 0 L570 133 L253 133 L253 293 L525 293 L525 417 L253 417 L253 574 L547 574 L547 707 L83 707 L83 0 Z " />
<glyph glyph-name="Etatonos" unicode="&#x389;" horiz-adv-x="806" d="M-180 546 L-52 546 L46 707 L-111 707 L-180 546 Z M83 0 L253 0 L253 291 L553 291 L553 0 L723 0 L723 707 L553 707 L553 420 L253 420 L253 707 L83 707 L83 0 Z " />
<glyph glyph-name="Iotatonos" unicode="&#x38a;" horiz-adv-x="336" d="M-180 546 L-52 546 L46 707 L-111 707 L-180 546 Z M83 0 L253 0 L253 707 L83 707 L83 0 Z " />
<glyph glyph-name="Omicrontonos" unicode="&#x38c;" horiz-adv-x="831" d="M407 -12 C659 -12 794 128 794 353 C794 564 683 718 426 718 C185 718 37 578 37 355 C37 128 159 -12 407 -12 L407 -12 Z M410 122 C266 122 209 227 209 356 C209 486 267 584 417 584 C560 584 621 486 621 354 C621 222 566 122 410 122 L410 122 Z M-141 546 L-13 546 L85 707 L-72 707 L-141 546 Z " />
<glyph glyph-name="Upsilontonos" unicode="&#x38e;" horiz-adv-x="708" d="M-236 546 L-108 546 L-10 707 L-167 707 L-236 546 Z M267 0 L437 0 L437 233 L715 707 L524 707 L358 370 L202 707 L6 707 L267 227 L267 0 Z " />
<glyph glyph-name="Omegatonos" unicode="&#x38f;" horiz-adv-x="859" d="M-130 546 L-2 546 L96 707 L-61 707 L-130 546 Z M58 0 L351 0 L351 133 C285 183 222 257 222 364 C222 495 293 584 427 584 C570 584 634 489 634 362 C634 255 572 183 506 133 L506 0 L799 0 L799 141 L692 141 C751 176 807 264 807 363 C807 574 693 718 436 718 C195 718 50 589 50 360 C50 253 112 174 165 141 L58 141 L58 0 Z " />
<glyph glyph-name="iotadieresistonos" unicode="&#x390;" horiz-adv-x="319" d="M75 624 L185 624 L255 781 L101 781 L75 624 Z M-78 644 L49 644 L49 758 L-78 758 L-78 644 Z M269 644 L396 644 L396 758 L269 758 L269 644 Z M196 -12 C246 -12 282 -6 306 3 L296 125 C289 124 283 124 276 124 C252 126 230 137 230 167 L230 546 L63 546 L63 143 C63 27 119 -12 196 -12 L196 -12 Z " />
<glyph glyph-name="Alpha" unicode="&#x391;" horiz-adv-x="700" d="M-23 0 L147 0 L224 207 L463 207 L530 0 L706 0 L468 707 L249 707 L-23 0 Z M269 330 L352 602 L423 330 L269 330 Z " />
<glyph glyph-name="Beta" unicode="&#x392;" horiz-adv-x="678" d="M83 0 L361 0 C569 0 645 89 645 218 C645 315 566 370 518 384 L518 386 C555 406 594 453 594 512 C594 645 504 707 331 707 L83 707 L83 0 Z M254 133 L254 301 L338 301 C436 301 475 278 475 214 C475 157 440 133 350 133 L254 133 Z M254 417 L254 577 L306 577 C386 577 426 558 426 498 C426 435 389 417 315 417 L254 417 Z " />
<glyph glyph-name="Gamma" unicode="&#x393;" horiz-adv-x="558" d="M83 0 L253 0 L253 574 L563 574 L563 707 L83 707 L83 0 Z " />
<glyph glyph-name="uni0394" unicode="&#x394;" horiz-adv-x="727" d="M204 141 L322 457 L367 601 L405 456 L510 141 L204 141 Z M-26 0 L736 0 L482 707 L263 707 L-26 0 Z " />
<glyph glyph-name="Epsilon" unicode="&#x395;" horiz-adv-x="608" d="M83 0 L570 0 L570 133 L253 133 L253 293 L525 293 L525 417 L253 417 L253 574 L547 574 L547 707 L83 707 L83 0 Z " />
<glyph glyph-name="Zeta" unicode="&#x396;" horiz-adv-x="615" d="M29 0 L584 0 L584 141 L234 141 L563 599 L563 707 L55 707 L55 566 L354 566 L29 114 L29 0 Z " />
<glyph glyph-name="Eta" unicode="&#x397;" horiz-adv-x="806" d="M83 0 L253 0 L253 291 L553 291 L553 0 L723 0 L723 707 L553 707 L553 420 L253 420 L253 707 L83 707 L83 0 Z " />
<glyph glyph-name="Theta" unicode="&#x398;" horiz-adv-x="831" d="M279 287 C309 302 333 305 355 305 C380 305 414 289 465 289 C504 289 549 307 574 326 L550 417 C517 404 502 404 470 404 C443 404 414 419 360 419 C320 419 284 401 255 379 L279 287 Z M407 -12 C659 -12 794 128 794 353 C794 564 683 718 426 718 C185 718 37 578 37 355 C37 128 159 -12 407 -12 L407 -12 Z M410 122 C266 122 209 227 209 356 C209 486 267 584 417 584 C560 584 621 486 621 354 C621 222 566 122 410 122 L410 122 Z " />
<glyph glyph-name="Iota" unicode="&#x399;" horiz-adv-x="336" d="M83 0 L253 0 L253 707 L83 707 L83 0 Z " />
<glyph glyph-name="Kappa" unicode="&#x39a;" horiz-adv-x="716" d="M83 0 L253 0 L253 354 L511 0 L728 0 L426 376 L712 707 L495 707 L253 404 L253 707 L83 707 L83 0 Z " />
<glyph glyph-name="Lambda" unicode="&#x39b;" horiz-adv-x="683" d="M-18 0 L150 0 L310 469 L343 586 L372 467 L509 0 L684 0 L459 707 L240 707 L-18 0 Z " />
<glyph glyph-name="Mu" unicode="&#x39c;" horiz-adv-x="993" d="M83 0 L253 0 L253 263 L243 430 L247 430 L387 0 L577 0 L743 429 L747 429 L740 263 L740 0 L910 0 L910 707 L713 707 L487 152 L290 707 L83 707 L83 0 Z " />
<glyph glyph-name="Nu" unicode="&#x39d;" horiz-adv-x="806" d="M83 0 L253 0 L253 379 L249 473 L253 473 L520 0 L723 0 L723 707 L553 707 L553 301 L558 222 L555 222 L280 707 L83 707 L83 0 Z " />
<glyph glyph-name="Xi" unicode="&#x39e;" horiz-adv-x="638" d="M48 0 L590 0 L590 141 L48 141 L48 0 Z M81 289 L557 289 L557 423 L81 423 L81 289 Z M59 566 L579 566 L579 707 L59 707 L59 566 Z " />
<glyph glyph-name="Omicron" unicode="&#x39f;" horiz-adv-x="831" d="M407 -12 C659 -12 794 128 794 353 C794 564 683 718 426 718 C185 718 37 578 37 355 C37 128 159 -12 407 -12 L407 -12 Z M410 122 C266 122 209 227 209 356 C209 486 267 584 417 584 C560 584 621 486 621 354 C621 222 566 122 410 122 L410 122 Z " />
<glyph glyph-name="Pi" unicode="&#x3a0;" horiz-adv-x="792" d="M83 0 L253 0 L253 573 L539 573 L539 0 L709 0 L709 707 L83 707 L83 0 Z " />
<glyph glyph-name="Rho" unicode="&#x3a1;" horiz-adv-x="645" d="M83 0 L254 0 L254 200 L306 200 C517 200 631 317 631 456 C631 614 517 707 358 707 L83 707 L83 0 Z M254 574 L336 574 C427 574 456 523 456 452 C456 386 418 331 312 331 L254 331 L254 574 Z " />
<glyph glyph-name="Sigma" unicode="&#x3a3;" horiz-adv-x="629" d="M44 0 L589 0 L589 141 L236 141 L413 368 L238 574 L583 574 L583 707 L50 707 L50 569 L232 356 L44 114 L44 0 Z " />
<glyph glyph-name="Tau" unicode="&#x3a4;" horiz-adv-x="610" d="M220 0 L390 0 L390 574 L612 574 L612 707 L-2 707 L-2 574 L220 574 L220 0 Z " />
<glyph glyph-name="Upsilon" unicode="&#x3a5;" horiz-adv-x="708" d="M267 0 L437 0 L437 233 L715 707 L524 707 L358 370 L202 707 L6 707 L267 227 L267 0 Z " />
<glyph glyph-name="Phi" unicode="&#x3a6;" horiz-adv-x="838" d="M335 0 L502 0 L502 85 C678 85 818 178 818 373 C818 568 678 661 502 661 L502 737 L335 737 L335 661 C159 661 19 568 19 373 C19 178 159 85 335 85 L335 0 Z M502 207 L502 539 C590 539 648 483 648 373 C648 267 590 207 502 207 L502 207 Z M335 207 C247 207 189 267 189 373 C189 483 247 539 335 539 L335 207 Z " />
<glyph glyph-name="Chi" unicode="&#x3a7;" horiz-adv-x="671" d="M-11 0 L179 0 L331 238 L472 0 L668 0 L430 365 L668 707 L478 707 L340 490 L212 707 L17 707 L242 362 L-11 0 Z " />
<glyph glyph-name="Psi" unicode="&#x3a8;" horiz-adv-x="798" d="M317 0 L487 0 L487 141 C624 157 761 214 761 443 L761 707 L594 707 L594 435 C594 335 550 303 487 285 L487 707 L317 707 L317 284 C253 300 210 327 210 414 L210 707 L38 707 L38 419 C38 204 176 154 317 141 L317 0 Z " />
<glyph glyph-name="uni03A9" unicode="&#x3a9;" horiz-adv-x="859" d="M58 0 L351 0 L351 133 C285 183 222 257 222 364 C222 495 293 584 427 584 C570 584 634 489 634 362 C634 255 572 183 506 133 L506 0 L799 0 L799 141 L692 141 C751 176 807 264 807 363 C807 574 693 718 436 718 C195 718 50 589 50 360 C50 253 112 174 165 141 L58 141 L58 0 Z " />
<glyph glyph-name="Iotadieresis" unicode="&#x3aa;" horiz-adv-x="336" d="M118 766 L118 915 L-38 915 L-38 766 L118 766 Z M377 766 L377 915 L221 915 L221 766 L377 766 Z M83 0 L253 0 L253 707 L83 707 L83 0 Z " />
<glyph glyph-name="Upsilondieresis" unicode="&#x3ab;" horiz-adv-x="708" d="M305 766 L305 915 L149 915 L149 766 L305 766 Z M564 766 L564 915 L408 915 L408 766 L564 766 Z M267 0 L437 0 L437 233 L715 707 L524 707 L358 370 L202 707 L6 707 L267 227 L267 0 Z " />
<glyph glyph-name="alphatonos" unicode="&#x3ac;" horiz-adv-x="656" d="M254 623 L382 623 L480 781 L323 781 L254 623 Z M255 -8 C334 -8 391 50 410 99 C414 16 479 -5 562 -5 C576 -5 598 -5 612 -4 L618 122 C587 123 569 127 569 145 L569 546 L402 546 L402 511 C386 542 323 560 283 560 C131 560 33 447 33 251 C33 14 186 -8 255 -8 L255 -8 Z M283 131 C231 131 199 175 199 261 C199 375 230 428 299 428 C342 428 391 386 402 346 L402 263 C394 184 343 131 283 131 L283 131 Z " />
<glyph glyph-name="epsilontonos" unicode="&#x3ad;" horiz-adv-x="545" d="M209 623 L337 623 L435 781 L278 781 L209 623 Z M291 -12 C394 -12 485 21 528 40 L479 159 C433 137 355 124 311 124 C246 124 200 141 200 175 C200 218 239 219 263 219 L403 219 L403 340 L277 340 C245 340 218 356 218 383 C218 410 243 429 299 429 C367 429 449 408 475 398 L518 518 C484 535 412 560 307 560 C138 560 55 488 55 413 C55 352 90 310 149 294 C63 270 29 209 29 148 C29 46 117 -12 291 -12 L291 -12 Z " />
<glyph glyph-name="etatonos" unicode="&#x3ae;" horiz-adv-x="676" d="M300 623 L428 623 L526 781 L369 781 L300 623 Z M448 -220 L614 -220 L614 342 C614 466 602 560 431 560 C360 560 292 523 249 487 C235 545 174 560 102 560 C88 560 59 558 45 557 L39 431 C70 430 86 426 86 408 L86 0 L253 0 L253 386 C280 399 325 416 375 416 C431 416 448 403 448 328 L448 -220 Z " />
<glyph glyph-name="iotatonos" unicode="&#x3af;" horiz-adv-x="318" d="M68 623 L196 623 L294 781 L137 781 L68 623 Z M196 -12 C246 -12 282 -6 306 3 L296 125 C289 124 283 124 276 124 C252 126 230 137 230 167 L230 546 L63 546 L63 143 C63 27 119 -12 196 -12 L196 -12 Z " />
<glyph glyph-name="upsilondieresistonos" unicode="&#x3b0;" horiz-adv-x="638" d="M236 624 L346 624 L416 781 L262 781 L236 624 Z M83 644 L210 644 L210 758 L83 758 L83 644 Z M430 644 L557 644 L557 758 L430 758 L430 644 Z M317 -12 C492 -12 601 149 601 301 C601 396 575 494 553 546 L377 546 C403 486 435 403 435 302 C435 183 388 121 326 121 C270 121 240 161 240 226 L241 361 C241 479 214 553 40 556 L24 419 C58 418 74 394 74 366 L74 215 C74 75 161 -12 317 -12 L317 -12 Z " />
<glyph glyph-name="alpha" unicode="&#x3b1;" horiz-adv-x="657" d="M256 -8 C335 -8 392 50 411 99 C415 16 480 -5 563 -5 C577 -5 599 -5 613 -4 L619 122 C588 123 570 127 570 145 L570 546 L403 546 L403 511 C387 542 324 560 284 560 C132 560 34 447 34 251 C34 14 187 -8 256 -8 L256 -8 Z M284 131 C232 131 200 175 200 261 C200 375 231 428 300 428 C343 428 392 386 403 346 L403 263 C395 184 344 131 284 131 L284 131 Z " />
<glyph glyph-name="beta" unicode="&#x3b2;" horiz-adv-x="659" d="M66 -220 L232 -220 L232 5 C264 -5 312 -13 352 -13 C504 -13 629 61 629 230 C629 332 576 378 482 403 C549 435 583 507 583 568 C583 676 492 770 336 770 C175 770 66 667 66 510 L66 -220 Z M349 122 C319 122 268 130 232 141 L232 515 C232 593 269 636 330 636 C380 636 423 598 423 547 C423 495 374 446 320 441 L320 331 C384 328 459 304 459 225 C459 147 418 122 349 122 L349 122 Z " />
<glyph glyph-name="gamma" unicode="&#x3b3;" horiz-adv-x="591" d="M195 -220 L361 -220 C363 -198 364 -174 364 -149 C364 -102 360 -53 351 -1 C424 140 584 360 590 546 L413 546 C410 419 352 287 300 182 C259 331 203 481 169 546 L-18 546 C40 424 144 222 190 20 C188 -14 186 -48 186 -81 C186 -129 189 -175 195 -220 L195 -220 Z " />
<glyph glyph-name="delta" unicode="&#x3b4;" horiz-adv-x="611" d="M304 -13 C452 -13 589 64 589 252 C589 370 501 460 416 499 C329 539 262 561 262 595 C262 626 287 635 333 635 C409 635 515 612 515 612 L544 734 C489 751 415 770 324 770 C212 770 97 718 97 613 C97 550 125 501 185 469 C95 433 28 349 28 249 C28 78 138 -13 304 -13 L304 -13 Z M311 121 C231 121 195 171 195 258 C195 314 211 362 279 404 C338 377 422 350 422 256 C422 181 385 121 311 121 L311 121 Z " />
<glyph glyph-name="epsilon" unicode="&#x3b5;" horiz-adv-x="545" d="M291 -12 C394 -12 485 21 528 40 L479 159 C433 137 355 124 311 124 C246 124 200 141 200 175 C200 218 239 219 263 219 L403 219 L403 340 L277 340 C245 340 218 356 218 383 C218 410 243 429 299 429 C367 429 449 408 475 398 L518 518 C484 535 412 560 307 560 C138 560 55 488 55 413 C55 352 90 310 149 294 C63 270 29 209 29 148 C29 46 117 -12 291 -12 L291 -12 Z " />
<glyph glyph-name="zeta" unicode="&#x3b6;" horiz-adv-x="482" d="M406 -208 C439 -177 505 -104 505 -31 C505 100 375 103 282 124 C241 133 202 148 202 223 C202 389 359 540 514 633 L514 754 L77 754 L77 619 L293 619 C138 516 32 375 32 202 C32 83 92 26 186 4 C278 -18 366 -21 366 -71 C366 -89 327 -141 315 -155 L406 -208 Z " />
<glyph glyph-name="eta" unicode="&#x3b7;" horiz-adv-x="675" d="M448 -220 L614 -220 L614 342 C614 466 602 560 431 560 C360 560 292 523 249 487 C235 545 174 560 102 560 C88 560 59 558 45 557 L39 431 C70 430 86 426 86 408 L86 0 L253 0 L253 386 C280 399 325 416 375 416 C431 416 448 403 448 328 L448 -220 Z " />
<glyph glyph-name="theta" unicode="&#x3b8;" horiz-adv-x="622" d="M311 -12 C517 -12 579 151 579 378 C579 596 541 771 318 771 C113 771 45 614 45 376 C45 153 98 -12 311 -12 L311 -12 Z M209 447 C212 563 223 639 314 639 C406 639 415 561 417 447 L209 447 Z M315 123 C221 123 209 198 209 332 L417 332 C416 202 405 123 315 123 L315 123 Z " />
<glyph glyph-name="iota" unicode="&#x3b9;" horiz-adv-x="317" d="M195 -12 C245 -12 281 -6 305 3 L295 125 C288 124 282 124 275 124 C251 126 229 137 229 167 L229 546 L62 546 L62 143 C62 27 118 -12 195 -12 L195 -12 Z " />
<glyph glyph-name="kappa" unicode="&#x3ba;" horiz-adv-x="593" d="M66 0 L233 0 L233 247 L393 0 L586 0 L371 298 L567 546 L390 546 L233 313 L233 546 L66 546 L66 0 Z " />
<glyph glyph-name="lambda" unicode="&#x3bb;" horiz-adv-x="586" d="M569 -16 L584 110 C565 113 530 122 517 167 L395 584 C357 711 304 770 158 770 C108 770 29 752 -5 740 L29 614 C59 624 99 635 140 635 C212 635 230 600 242 561 L248 541 L191 541 L-8 0 L174 0 L264 302 L289 391 L314 302 L368 115 C396 14 436 -12 569 -16 L569 -16 Z " />
<glyph glyph-name="uni03BC" unicode="&#x3bc;" horiz-adv-x="674" d="M66 -220 L232 -220 L232 -15 L249 -15 C329 -15 401 35 437 64 C454 5 515 -5 588 -5 C602 -5 623 -5 637 -4 L643 122 C612 123 594 127 594 145 L594 546 L427 546 L427 160 C400 147 355 130 305 130 C253 130 232 141 232 203 L232 546 L66 546 L66 -220 Z " />
<glyph glyph-name="nu" unicode="&#x3bd;" horiz-adv-x="574" d="M175 0 L345 0 C478 195 556 345 556 467 C556 496 552 522 547 546 L371 546 C376 520 381 492 381 461 C381 394 360 296 276 157 L176 546 L-3 546 L175 0 Z " />
<glyph glyph-name="xi" unicode="&#x3be;" horiz-adv-x="509" d="M401 -208 C434 -177 500 -104 500 -31 C500 87 400 95 311 120 C250 137 196 156 196 213 C196 312 317 323 445 331 L445 452 C336 456 240 461 240 547 C240 608 278 635 357 635 C396 635 456 627 485 620 L506 753 C465 763 405 770 363 770 C181 770 76 686 76 563 C76 492 136 428 209 404 C98 376 27 297 27 201 C27 58 150 13 273 -14 C312 -22 361 -39 361 -70 C361 -88 322 -141 310 -155 L401 -208 Z " />
<glyph glyph-name="omicron" unicode="&#x3bf;" horiz-adv-x="610" d="M298 -12 C456 -12 578 87 578 273 C578 451 491 560 307 560 C144 560 31 449 31 268 C31 97 128 -12 298 -12 L298 -12 Z M306 121 C227 121 199 178 199 272 C199 361 224 428 304 428 C386 428 408 361 408 273 C408 180 386 121 306 121 L306 121 Z " />
<glyph glyph-name="pi" unicode="&#x3c0;" horiz-adv-x="693" d="M549 -12 C599 -12 635 -6 659 3 L649 125 C642 124 636 124 629 124 C605 126 583 137 583 167 L583 417 L643 417 L643 546 L30 546 L30 417 L91 417 L91 0 L258 0 L258 417 L416 417 L416 143 C416 27 472 -12 549 -12 L549 -12 Z " />
<glyph glyph-name="rho" unicode="&#x3c1;" horiz-adv-x="622" d="M50 -220 L216 -220 L216 4 C242 -3 275 -12 302 -12 C470 -12 590 80 590 269 C590 447 517 560 323 560 C150 560 50 459 50 268 L50 -220 Z M216 272 C216 361 233 428 318 428 C405 428 420 357 420 269 C420 176 400 121 310 121 C269 121 239 127 216 134 L216 272 Z " />
<glyph glyph-name="uni03C2" unicode="&#x3c2;" horiz-adv-x="529" d="M392 -208 C425 -177 491 -104 491 -31 C491 87 390 91 302 120 C249 137 203 152 203 275 C203 392 269 424 338 424 C394 424 418 418 462 401 L505 522 C462 545 411 560 331 560 C146 560 32 448 32 278 C32 58 145 13 254 -11 C294 -20 352 -36 352 -70 C352 -88 313 -141 301 -155 L392 -208 Z " />
<glyph glyph-name="sigma" unicode="&#x3c3;" horiz-adv-x="662" d="M308 -12 C462 -12 589 106 589 273 C589 329 585 374 557 416 L655 412 L655 550 C493 558 431 559 319 559 C145 559 31 433 31 263 C31 96 128 -12 308 -12 L308 -12 Z M316 121 C227 121 199 176 199 270 C199 370 247 422 333 422 L370 421 C416 381 419 315 419 273 C419 180 389 121 316 121 L316 121 Z " />
<glyph glyph-name="tau" unicode="&#x3c4;" horiz-adv-x="502" d="M308 -12 C375 -12 428 3 456 20 L436 137 C422 133 401 129 375 129 C344 129 318 146 318 182 L318 417 L482 417 L482 546 L6 546 L6 417 L151 417 L151 158 C151 42 217 -12 308 -12 L308 -12 Z " />
<glyph glyph-name="upsilon" unicode="&#x3c5;" horiz-adv-x="638" d="M317 -12 C492 -12 601 149 601 301 C601 396 575 494 553 546 L377 546 C403 486 435 403 435 302 C435 183 388 121 326 121 C270 121 240 161 240 226 L241 361 C241 479 214 553 40 556 L24 419 C58 418 74 394 74 366 L74 215 C74 75 161 -12 317 -12 L317 -12 Z " />
<glyph glyph-name="phi" unicode="&#x3c6;" horiz-adv-x="801" d="M316 -220 L482 -220 L482 -13 C668 3 768 94 768 273 C768 448 676 548 482 563 L482 688 L316 688 L316 561 C131 541 33 442 33 267 C33 98 121 3 316 -13 L316 -220 Z M316 118 C223 139 201 191 201 273 C201 353 220 408 316 429 L316 118 Z M482 117 L482 429 C582 409 598 352 598 274 C598 189 580 136 482 117 L482 117 Z " />
<glyph glyph-name="chi" unicode="&#x3c7;" horiz-adv-x="547" d="M537 -224 L558 -95 C528 -93 502 -81 479 -38 L369 175 L554 546 L351 546 L289 330 L243 420 C195 519 175 561 34 560 L2 431 C32 429 73 419 96 374 L193 186 L-25 -220 L175 -220 L270 48 L336 -86 C386 -183 412 -223 537 -224 L537 -224 Z " />
<glyph glyph-name="psi" unicode="&#x3c8;" horiz-adv-x="835" d="M345 -220 L511 -220 L511 -4 C708 31 800 177 800 321 C800 411 784 494 762 546 L586 546 C612 486 634 413 634 312 C634 214 594 158 511 138 L511 688 L345 688 L345 137 C274 154 238 197 239 267 L240 366 C240 484 207 552 39 561 L23 424 C57 423 73 399 73 371 L73 256 C73 107 154 9 345 -9 L345 -220 Z " />
<glyph glyph-name="omega" unicode="&#x3c9;" horiz-adv-x="884" d="M261 -12 C327 -12 409 21 439 98 C456 26 543 -12 608 -12 C760 -12 849 112 849 242 C849 337 829 450 714 546 L525 546 C616 473 680 368 680 258 C680 213 671 129 600 129 C559 129 524 165 524 235 L524 360 L358 360 L358 233 C358 167 323 129 283 129 C212 129 202 213 202 258 C202 368 266 473 357 546 L174 546 C46 440 34 332 34 237 C34 97 117 -12 261 -12 L261 -12 Z " />
<glyph glyph-name="iotadieresis" unicode="&#x3ca;" horiz-adv-x="319" d="M98 643 L98 792 L-58 792 L-58 643 L98 643 Z M351 643 L351 792 L195 792 L195 643 L351 643 Z M196 -12 C246 -12 282 -6 306 3 L296 125 C289 124 283 124 276 124 C252 126 230 137 230 167 L230 546 L63 546 L63 143 C63 27 119 -12 196 -12 L196 -12 Z " />
<glyph glyph-name="upsilondieresis" unicode="&#x3cb;" horiz-adv-x="638" d="M258 643 L258 792 L102 792 L102 643 L258 643 Z M511 643 L511 792 L355 792 L355 643 L511 643 Z M317 -12 C492 -12 601 149 601 301 C601 396 575 494 553 546 L377 546 C403 486 435 403 435 302 C435 183 388 121 326 121 C270 121 240 161 240 226 L241 361 C241 479 214 553 40 556 L24 419 C58 418 74 394 74 366 L74 215 C74 75 161 -12 317 -12 L317 -12 Z " />
<glyph glyph-name="omicrontonos" unicode="&#x3cc;" horiz-adv-x="610" d="M235 623 L363 623 L461 781 L304 781 L235 623 Z M298 -12 C456 -12 578 87 578 273 C578 451 491 560 307 560 C144 560 31 449 31 268 C31 97 128 -12 298 -12 L298 -12 Z M306 121 C227 121 199 178 199 272 C199 361 224 428 304 428 C386 428 408 361 408 273 C408 180 386 121 306 121 L306 121 Z " />
<glyph glyph-name="upsilontonos" unicode="&#x3cd;" horiz-adv-x="638" d="M220 623 L348 623 L446 781 L289 781 L220 623 Z M317 -12 C492 -12 601 149 601 301 C601 396 575 494 553 546 L377 546 C403 486 435 403 435 302 C435 183 388 121 326 121 C270 121 240 161 240 226 L241 361 C241 479 214 553 40 556 L24 419 C58 418 74 394 74 366 L74 215 C74 75 161 -12 317 -12 L317 -12 Z " />
<glyph glyph-name="omegatonos" unicode="&#x3ce;" horiz-adv-x="884" d="M369 623 L497 623 L595 781 L438 781 L369 623 Z M261 -12 C327 -12 409 21 439 98 C456 26 543 -12 608 -12 C760 -12 849 112 849 242 C849 337 829 450 714 546 L525 546 C616 473 680 368 680 258 C680 213 671 129 600 129 C559 129 524 165 524 235 L524 360 L358 360 L358 233 C358 167 323 129 283 129 C212 129 202 213 202 258 C202 368 266 473 357 546 L174 546 C46 440 34 332 34 237 C34 97 117 -12 261 -12 L261 -12 Z " />
<glyph glyph-name="uni03D0" unicode="&#x3d0;" horiz-adv-x="643" d="M334 -13 C486 -13 613 80 613 230 C613 332 569 414 475 439 C530 479 564 512 564 598 C564 693 493 770 337 770 C176 770 48 640 48 449 L48 334 C48 57 165 -13 334 -13 L334 -13 Z M331 122 C247 122 214 172 214 339 L214 343 C257 358 294 365 325 365 C403 365 443 320 443 237 C443 159 400 122 331 122 L331 122 Z M214 438 L214 475 C214 593 257 636 318 636 C368 636 398 607 398 556 C398 527 367 498 306 471 C281 460 250 449 214 438 L214 438 Z " />
<glyph glyph-name="uni03D8" unicode="&#x3d8;" horiz-adv-x="729" d="M292 -166 L439 -166 L439 0 C582 45 694 146 694 363 C694 618 554 727 366 727 C189 727 36 622 36 356 C36 139 135 34 292 -5 L292 -166 Z M366 129 C240 129 194 229 194 362 C194 493 239 597 364 597 C489 597 534 493 534 357 C534 223 477 129 366 129 L366 129 Z " />
<glyph glyph-name="uni03D9" unicode="&#x3d9;" horiz-adv-x="588" d="M220 -221 L375 -221 L375 40 C484 69 557 155 557 293 C557 458 475 559 296 559 C135 559 30 457 30 289 C30 153 96 59 220 35 L220 -221 Z M295 152 C213 152 187 205 187 292 C187 374 210 437 293 437 C378 437 399 374 399 293 C399 206 378 152 295 152 L295 152 Z " />
<glyph glyph-name="uni03DA" unicode="&#x3da;" horiz-adv-x="566" d="M547 654 C489 688 406 713 325 713 C162 713 30 611 30 404 C30 17 350 125 350 35 C350 -12 286 -44 156 -66 L186 -174 C351 -163 505 -94 505 66 C505 278 188 109 188 414 C188 520 242 575 341 575 C400 575 447 560 494 529 L547 654 Z " />
<glyph glyph-name="uni03DB" unicode="&#x3db;" horiz-adv-x="528" d="M516 515 C460 541 390 560 309 560 C146 560 34 468 34 261 C34 61 138 7 261 -3 C293 -6 308 -9 308 -25 C308 -43 278 -72 171 -73 L171 -201 C347 -199 463 -115 463 -7 C463 93 395 128 295 140 C227 148 192 180 192 271 C192 377 226 422 325 422 C384 422 418 412 463 390 L516 515 Z " />
<glyph glyph-name="uni03DC" unicode="&#x3dc;" horiz-adv-x="605" d="M577 574 L577 707 L83 707 L83 0 L253 0 L253 276 L555 276 L555 399 L253 399 L253 574 L577 574 Z " />
<glyph glyph-name="uni03DD" unicode="&#x3dd;" horiz-adv-x="451" d="M456 751 C416 764 367 772 327 772 C213 772 106 743 106 574 L106 374 L26 374 L26 252 L106 252 L106 -220 L273 -220 L273 252 L390 252 L390 374 L273 374 L273 564 C273 607 291 630 332 630 C379 630 424 622 424 622 L456 751 Z " />
<glyph glyph-name="uni03DE" unicode="&#x3de;" horiz-adv-x="577" d="M388 -107 L596 379 L235 379 L409 754 L224 734 L-8 236 L363 236 L206 -148 L388 -107 Z " />
<glyph glyph-name="uni03DF" unicode="&#x3df;" horiz-adv-x="583" d="M377 -107 L585 379 L224 379 L398 754 L213 734 L-19 236 L352 236 L195 -148 L377 -107 Z " />
<glyph glyph-name="uni03E0" unicode="&#x3e0;" horiz-adv-x="755" d="M512 -79 C593 -20 712 106 712 273 C712 466 563 633 355 633 C237 633 156 602 73 543 L128 443 C196 481 271 503 325 503 C352 503 383 499 411 490 L22 237 L85 138 C201 213 368 324 523 428 C531 416 555 374 561 361 L148 91 L208 -7 L578 234 L578 232 C569 165 528 90 434 19 L512 -79 Z " />
<glyph glyph-name="uni03E1" unicode="&#x3e1;" horiz-adv-x="736" d="M492 -79 C573 -20 692 106 692 273 C692 466 543 633 335 633 C217 633 136 602 53 543 L108 443 C176 481 251 503 305 503 C332 503 363 499 391 490 L2 237 L65 138 L503 428 C511 416 535 374 541 361 L128 91 L188 -7 L558 234 L558 232 C549 165 508 90 414 19 L492 -79 Z " />
<glyph glyph-name="uni0400" unicode="&#x400;" horiz-adv-x="611" d="M418 744 L441 857 L170 924 L143 793 L418 744 Z M83 0 L570 0 L570 133 L253 133 L253 293 L525 293 L525 417 L253 417 L253 574 L547 574 L547 707 L83 707 L83 0 Z " />
<glyph glyph-name="uni0401" unicode="&#x401;" horiz-adv-x="611" d="M263 766 L263 915 L107 915 L107 766 L263 766 Z M522 766 L522 915 L366 915 L366 766 L522 766 Z M83 0 L570 0 L570 133 L253 133 L253 293 L525 293 L525 417 L253 417 L253 574 L547 574 L547 707 L83 707 L83 0 Z " />
<glyph glyph-name="uni0402" unicode="&#x402;" horiz-adv-x="810" d="M519 -220 C683 -108 786 33 786 214 C786 364 706 456 536 456 C480 456 426 444 373 425 L373 574 L625 574 L625 707 L11 707 L11 574 L203 574 L203 0 L373 0 L373 297 C413 317 455 327 498 327 C572 327 613 282 613 202 C613 11 457 -94 438 -110 L519 -220 Z " />
<glyph glyph-name="uni0403" unicode="&#x403;" horiz-adv-x="586" d="M242 744 L517 793 L490 924 L219 857 L242 744 Z M83 0 L253 0 L253 574 L577 574 L577 707 L83 707 L83 0 Z " />
<glyph glyph-name="uni0404" unicode="&#x404;" horiz-adv-x="679" d="M431 -10 C522 -10 581 -1 649 24 L613 152 C559 138 518 132 449 132 C328 132 243 188 219 294 L542 294 L542 417 L217 417 C238 525 319 578 429 577 C507 576 535 569 602 551 L647 674 C594 698 532 717 427 717 C170 717 39 595 39 349 C39 117 172 -10 431 -10 L431 -10 Z " />
<glyph glyph-name="uni0405" unicode="&#x405;" horiz-adv-x="585" d="M263 -12 C409 -12 557 55 557 210 C557 427 215 417 215 511 C215 550 253 577 308 577 C380 577 423 562 475 539 L524 664 C473 695 415 718 303 718 C178 718 49 650 49 514 C49 274 385 319 385 204 C385 161 346 128 261 128 C183 128 137 146 75 171 L26 45 C79 16 147 -12 263 -12 L263 -12 Z " />
<glyph glyph-name="uni0406" unicode="&#x406;" horiz-adv-x="336" d="M83 0 L253 0 L253 707 L83 707 L83 0 Z " />
<glyph glyph-name="uni0407" unicode="&#x407;" horiz-adv-x="336" d="M117 766 L117 915 L-39 915 L-39 766 L117 766 Z M376 766 L376 915 L220 915 L220 766 L376 766 Z M83 0 L253 0 L253 707 L83 707 L83 0 Z " />
<glyph glyph-name="uni0408" unicode="&#x408;" horiz-adv-x="338" d="M2 -198 C236 -122 257 11 257 153 L257 707 L86 707 L86 151 C86 33 60 -10 -59 -76 L2 -198 Z " />
<glyph glyph-name="uni0409" unicode="&#x409;" horiz-adv-x="1051" d="M61 -22 C136 8 215 47 259 122 C304 199 320 312 335 585 L485 585 L485 0 L708 0 C919 0 1033 93 1033 244 C1033 395 919 487 708 487 L656 487 L656 707 L194 707 C187 463 171 291 139 227 C113 175 42 145 -9 124 L61 -22 Z M714 356 C820 356 858 309 858 244 C858 179 820 133 714 133 L656 133 L656 356 L714 356 Z " />
<glyph glyph-name="uni040A" unicode="&#x40a;" horiz-adv-x="1090" d="M83 0 L253 0 L253 311 L532 311 L532 0 L753 0 C962 0 1075 84 1075 221 C1075 357 962 440 753 440 L703 440 L703 707 L532 707 L532 440 L253 440 L253 707 L83 707 L83 0 Z M759 311 C862 311 899 273 899 222 C899 170 862 133 759 133 L703 133 L703 311 L759 311 Z " />
<glyph glyph-name="uni040B" unicode="&#x40b;" horiz-adv-x="821" d="M203 0 L373 0 L373 291 C416 314 455 327 498 327 C572 327 616 307 616 218 L616 0 L786 0 L786 254 C786 391 706 456 536 456 C480 456 426 444 373 425 L373 574 L625 574 L625 707 L11 707 L11 574 L203 574 L203 0 Z " />
<glyph glyph-name="uni040C" unicode="&#x40c;" horiz-adv-x="723" d="M83 0 L253 0 L253 354 L511 0 L728 0 L426 376 L712 707 L495 707 L253 404 L253 707 L83 707 L83 0 Z M275 744 L550 793 L523 924 L252 857 L275 744 Z " />
<glyph glyph-name="uni040D" unicode="&#x40d;" horiz-adv-x="806" d="M499 744 L522 857 L251 924 L224 793 L499 744 Z M83 0 L253 0 L492 367 L557 468 L553 374 L553 0 L723 0 L723 707 L553 707 L314 340 L249 239 L253 333 L253 707 L83 707 L83 0 Z " />
<glyph glyph-name="uni040E" unicode="&#x40e;" horiz-adv-x="651" d="M333 749 C415 749 495 788 537 859 L466 935 C426 893 382 873 333 873 C285 873 241 893 201 935 L130 859 C172 788 252 749 333 749 L333 749 Z M191 -9 C293 20 352 28 439 217 L664 707 L471 707 L349 356 L179 707 L-11 707 L242 228 L291 228 L279 205 C255 159 222 149 146 125 L191 -9 Z " />
<glyph glyph-name="uni040F" unicode="&#x40f;" horiz-adv-x="791" d="M313 -153 L483 -153 L483 0 L708 0 L708 707 L538 707 L538 129 L253 129 L253 707 L83 707 L83 0 L313 0 L313 -153 Z " />
<glyph glyph-name="uni0410" unicode="&#x410;" horiz-adv-x="718" d="M-14 0 L156 0 L233 207 L472 207 L539 0 L715 0 L477 707 L258 707 L-14 0 Z M278 330 L361 602 L432 330 L278 330 Z " />
<glyph glyph-name="uni0411" unicode="&#x411;" horiz-adv-x="669" d="M83 0 L310 0 C525 0 641 77 641 229 C641 381 525 457 310 457 L254 457 L254 574 L577 574 L577 707 L83 707 L83 0 Z M315 326 C427 326 466 285 466 229 C466 173 427 133 315 133 L254 133 L254 326 L315 326 Z " />
<glyph glyph-name="uni0412" unicode="&#x412;" horiz-adv-x="681" d="M83 0 L361 0 C569 0 645 89 645 218 C645 315 566 370 518 384 L518 386 C555 406 594 453 594 512 C594 645 504 707 331 707 L83 707 L83 0 Z M254 133 L254 301 L338 301 C436 301 475 278 475 214 C475 157 440 133 350 133 L254 133 Z M254 417 L254 577 L306 577 C386 577 426 558 426 498 C426 435 389 417 315 417 L254 417 Z " />
<glyph glyph-name="uni0413" unicode="&#x413;" horiz-adv-x="586" d="M83 0 L253 0 L253 574 L577 574 L577 707 L83 707 L83 0 Z " />
<glyph glyph-name="uni0414" unicode="&#x414;" horiz-adv-x="795" d="M9 -153 L169 -153 L169 0 L609 0 L609 -153 L769 -153 L769 130 L666 130 L666 707 L200 707 C188 524 179 396 149 290 C133 233 108 181 79 130 L9 130 L9 -153 Z M263 129 C282 178 296 217 307 264 C323 334 334 421 348 585 L496 585 L496 129 L263 129 Z " />
<glyph glyph-name="uni0415" unicode="&#x415;" horiz-adv-x="611" d="M83 0 L570 0 L570 133 L253 133 L253 293 L525 293 L525 417 L253 417 L253 574 L547 574 L547 707 L83 707 L83 0 Z " />
<glyph glyph-name="uni0416" unicode="&#x416;" horiz-adv-x="1030" d="M430 0 L600 0 L600 331 L818 0 L1030 0 L768 371 L1009 707 L802 707 L600 400 L600 707 L430 707 L430 399 L228 707 L21 707 L262 371 L0 0 L212 0 L430 336 L430 0 Z " />
<glyph glyph-name="uni0417" unicode="&#x417;" horiz-adv-x="594" d="M274 -8 C490 -8 555 102 555 197 C555 301 480 351 430 365 L430 367 C476 393 526 442 526 532 C526 630 442 711 271 711 C175 711 96 680 48 655 L103 540 C149 558 199 575 254 575 C322 575 355 548 355 499 C355 452 317 419 252 419 L155 419 L155 297 L251 297 C325 297 381 275 381 213 C381 153 329 128 258 128 C186 128 111 160 73 179 L18 54 C80 18 169 -8 274 -8 L274 -8 Z " />
<glyph glyph-name="uni0418" unicode="&#x418;" horiz-adv-x="806" d="M83 0 L253 0 L492 367 L557 468 L553 374 L553 0 L723 0 L723 707 L553 707 L314 340 L249 239 L253 333 L253 707 L83 707 L83 0 Z " />
<glyph glyph-name="uni0419" unicode="&#x419;" horiz-adv-x="806" d="M407 749 C489 749 569 788 611 859 L540 935 C500 893 456 873 407 873 C359 873 315 893 275 935 L204 859 C246 788 326 749 407 749 L407 749 Z M83 0 L253 0 L492 367 L557 468 L553 374 L553 0 L723 0 L723 707 L553 707 L314 340 L249 239 L253 333 L253 707 L83 707 L83 0 Z " />
<glyph glyph-name="uni041A" unicode="&#x41a;" horiz-adv-x="723" d="M83 0 L253 0 L253 354 L511 0 L728 0 L426 376 L712 707 L495 707 L253 404 L253 707 L83 707 L83 0 Z " />
<glyph glyph-name="uni041B" unicode="&#x41b;" horiz-adv-x="738" d="M61 -22 C136 8 215 47 259 122 C304 199 312 312 335 585 L485 585 L485 0 L655 0 L655 707 L194 707 C187 463 171 291 139 227 C113 175 42 145 -9 124 L61 -22 Z " />
<glyph glyph-name="uni041C" unicode="&#x41c;" horiz-adv-x="993" d="M83 0 L253 0 L253 263 L243 430 L247 430 L387 0 L577 0 L743 429 L747 429 L740 263 L740 0 L910 0 L910 707 L713 707 L487 152 L290 707 L83 707 L83 0 Z " />
<glyph glyph-name="uni041D" unicode="&#x41d;" horiz-adv-x="806" d="M83 0 L253 0 L253 291 L553 291 L553 0 L723 0 L723 707 L553 707 L553 420 L253 420 L253 707 L83 707 L83 0 Z " />
<glyph glyph-name="uni041E" unicode="&#x41e;" horiz-adv-x="833" d="M408 -12 C660 -12 795 128 795 353 C795 564 684 718 427 718 C186 718 38 578 38 355 C38 128 160 -12 408 -12 L408 -12 Z M411 122 C267 122 210 227 210 356 C210 486 268 584 418 584 C561 584 622 486 622 354 C622 222 567 122 411 122 L411 122 Z " />
<glyph glyph-name="uni041F" unicode="&#x41f;" horiz-adv-x="796" d="M83 0 L253 0 L253 578 L543 578 L543 0 L713 0 L713 707 L83 707 L83 0 Z " />
<glyph glyph-name="uni0420" unicode="&#x420;" horiz-adv-x="650" d="M83 0 L254 0 L254 200 L306 200 C517 200 631 317 631 456 C631 614 517 707 358 707 L83 707 L83 0 Z M254 574 L336 574 C427 574 456 523 456 452 C456 386 418 331 312 331 L254 331 L254 574 Z " />
<glyph glyph-name="uni0421" unicode="&#x421;" horiz-adv-x="677" d="M429 -12 C520 -12 579 -1 647 24 L611 152 C557 138 516 132 447 132 C304 132 210 211 210 359 C210 507 299 579 427 577 C505 576 533 569 600 551 L645 674 C592 698 530 718 425 718 C184 718 37 579 37 349 C37 117 170 -12 429 -12 L429 -12 Z " />
<glyph glyph-name="uni0422" unicode="&#x422;" horiz-adv-x="634" d="M232 0 L402 0 L402 574 L624 574 L624 707 L10 707 L10 574 L232 574 L232 0 Z " />
<glyph glyph-name="uni0423" unicode="&#x423;" horiz-adv-x="651" d="M191 -9 C293 20 352 28 439 217 L664 707 L471 707 L349 356 L179 707 L-11 707 L242 228 L291 228 L279 205 C255 159 222 149 146 125 L191 -9 Z " />
<glyph glyph-name="uni0424" unicode="&#x424;" horiz-adv-x="844" d="M338 0 L505 0 L505 85 C681 85 821 178 821 373 C821 568 681 661 505 661 L505 737 L338 737 L338 661 C162 661 22 568 22 373 C22 178 162 85 338 85 L338 0 Z M505 207 L505 539 C593 539 651 483 651 373 C651 267 593 207 505 207 L505 207 Z M338 207 C250 207 192 267 192 373 C192 483 250 539 338 539 L338 207 Z " />
<glyph glyph-name="uni0425" unicode="&#x425;" horiz-adv-x="688" d="M-1 0 L189 0 L341 238 L482 0 L678 0 L440 365 L678 707 L488 707 L350 490 L222 707 L27 707 L252 362 L-1 0 Z " />
<glyph glyph-name="uni0426" unicode="&#x426;" horiz-adv-x="837" d="M651 -153 L811 -153 L811 130 L708 130 L708 707 L538 707 L538 129 L253 129 L253 707 L83 707 L83 0 L651 0 L651 -153 Z " />
<glyph glyph-name="uni0427" unicode="&#x427;" horiz-adv-x="699" d="M446 0 L616 0 L616 707 L446 707 L446 416 C403 393 364 380 321 380 C247 380 203 400 203 489 L203 707 L33 707 L33 453 C33 316 113 251 283 251 C339 251 393 263 446 282 L446 0 Z " />
<glyph glyph-name="uni0428" unicode="&#x428;" horiz-adv-x="1050" d="M83 0 L967 0 L967 707 L797 707 L797 129 L610 129 L610 707 L440 707 L440 129 L253 129 L253 707 L83 707 L83 0 Z " />
<glyph glyph-name="uni0429" unicode="&#x429;" horiz-adv-x="1096" d="M910 -153 L1070 -153 L1070 130 L967 130 L967 707 L797 707 L797 129 L610 129 L610 707 L440 707 L440 129 L253 129 L253 707 L83 707 L83 0 L910 0 L910 -153 Z " />
<glyph glyph-name="uni042A" unicode="&#x42a;" horiz-adv-x="780" d="M213 0 L437 0 C648 0 762 93 762 244 C762 395 648 487 437 487 L385 487 L385 707 L10 707 L10 578 L213 578 L213 0 Z M443 356 C549 356 587 309 587 244 C587 179 549 133 443 133 L385 133 L385 356 L443 356 Z " />
<glyph glyph-name="uni042B" unicode="&#x42b;" horiz-adv-x="951" d="M83 0 L307 0 C518 0 632 98 632 249 C632 400 518 487 307 487 L255 487 L255 707 L83 707 L83 0 Z M698 0 L868 0 L868 707 L698 707 L698 0 Z M313 356 C419 356 457 314 457 249 C457 184 419 133 313 133 L255 133 L255 356 L313 356 Z " />
<glyph glyph-name="uni042C" unicode="&#x42c;" horiz-adv-x="650" d="M83 0 L307 0 C518 0 632 98 632 249 C632 400 518 487 307 487 L255 487 L255 707 L83 707 L83 0 Z M313 356 C419 356 457 314 457 249 C457 184 419 133 313 133 L255 133 L255 356 L313 356 Z " />
<glyph glyph-name="uni042D" unicode="&#x42d;" horiz-adv-x="679" d="M248 -10 C507 -10 640 117 640 349 C640 595 509 715 252 715 C147 715 85 698 32 674 L77 551 C144 569 172 574 250 575 C360 576 441 525 462 417 L137 417 L137 294 L460 294 C436 188 351 132 230 132 C161 132 120 138 66 152 L30 24 C98 -1 157 -10 248 -10 L248 -10 Z " />
<glyph glyph-name="uni042E" unicode="&#x42e;" horiz-adv-x="1144" d="M718 -12 C970 -12 1105 118 1105 353 C1105 574 994 718 737 718 C519 718 377 616 352 420 L253 420 L253 707 L83 707 L83 0 L253 0 L253 291 L351 291 C373 102 494 -12 718 -12 L718 -12 Z M721 122 C577 122 520 227 520 356 C520 486 578 584 728 584 C871 584 932 486 932 354 C932 222 877 122 721 122 L721 122 Z " />
<glyph glyph-name="uni042F" unicode="&#x42f;" horiz-adv-x="711" d="M211 0 L352 245 C364 244 392 244 405 244 L457 244 L457 0 L628 0 L628 707 L353 707 C194 707 80 624 80 466 C80 387 120 320 196 285 L19 0 L211 0 Z M399 363 C298 363 255 403 255 470 C255 535 294 573 385 573 L457 573 L457 363 L399 363 Z " />
<glyph glyph-name="uni0430" unicode="&#x430;" horiz-adv-x="594" d="M215 -9 C275 -9 332 22 372 53 C387 6 457 -5 523 -5 C536 -5 549 -5 562 -4 L568 122 C537 123 519 127 519 145 L519 388 C519 511 451 559 282 559 C195 559 123 539 61 515 L94 394 C145 408 203 418 257 418 C325 418 356 404 356 356 L356 322 L261 322 C153 322 27 294 27 156 C27 47 95 -9 215 -9 L215 -9 Z M250 120 C220 120 189 134 189 166 C189 206 225 222 274 223 L356 225 L356 139 C320 127 282 120 250 120 L250 120 Z " />
<glyph glyph-name="uni0431" unicode="&#x431;" horiz-adv-x="639" d="M312 -11 C481 -11 605 76 605 273 C605 428 528 497 388 497 C310 497 254 482 209 457 C213 502 227 542 256 561 C292 585 419 604 571 625 L546 772 C376 745 211 701 150 652 C72 590 49 417 49 293 C49 83 155 -11 312 -11 L312 -11 Z M324 120 C249 120 206 170 206 285 C206 298 205 328 206 341 C239 358 289 371 331 371 C408 371 438 329 438 264 C438 195 412 120 324 120 L324 120 Z " />
<glyph glyph-name="uni0432" unicode="&#x432;" horiz-adv-x="587" d="M67 0 L338 0 C461 0 554 59 554 165 C554 245 497 282 459 289 C491 303 527 338 527 396 C527 496 454 546 338 546 L67 546 L67 0 Z M234 114 L234 226 L296 226 C347 225 384 214 384 170 C384 132 352 114 302 114 L234 114 Z M234 327 L234 432 L290 432 C338 432 368 416 368 379 C368 339 329 327 276 327 L234 327 Z " />
<glyph glyph-name="uni0433" unicode="&#x433;" horiz-adv-x="487" d="M67 0 L234 0 L234 423 L475 423 L475 546 L67 546 L67 0 Z " />
<glyph glyph-name="uni0434" unicode="&#x434;" horiz-adv-x="689" d="M15 -147 L168 -147 L168 0 L518 0 L518 -147 L671 -147 L671 122 L578 122 L578 546 L164 546 C156 423 151 347 142 291 C131 221 114 183 80 122 L15 122 L15 -147 Z M247 122 C266 160 278 191 288 250 C295 291 300 345 306 424 L411 424 L411 122 L247 122 Z " />
<glyph glyph-name="uni0435" unicode="&#x435;" horiz-adv-x="587" d="M331 -12 C397 -12 475 -1 536 19 L511 142 C454 129 392 120 355 120 C268 120 200 136 201 222 L555 222 L555 282 C555 447 487 559 315 559 C150 559 35 488 35 265 C35 47 151 -12 331 -12 L331 -12 Z M206 329 C209 401 246 441 303 441 C357 441 386 395 384 329 L206 329 Z " />
<glyph glyph-name="uni0436" unicode="&#x436;" horiz-adv-x="839" d="M178 0 L336 232 L336 0 L503 0 L503 230 L650 0 L836 0 L633 286 L813 546 L634 546 L503 319 L503 546 L336 546 L336 319 L205 546 L26 546 L206 286 L0 0 L178 0 Z " />
<glyph glyph-name="uni0437" unicode="&#x437;" horiz-adv-x="499" d="M234 -11 C400 -11 467 75 467 151 C467 236 410 275 364 288 C408 310 442 348 442 415 C442 490 374 560 241 560 C159 560 88 540 35 514 L73 398 C115 413 156 429 211 429 C252 429 276 411 276 386 C276 363 258 338 209 338 L129 338 L129 216 L215 216 C255 216 289 203 289 168 C289 134 255 118 218 118 C156 118 88 149 63 161 L20 37 C76 9 159 -11 234 -11 L234 -11 Z " />
<glyph glyph-name="uni0438" unicode="&#x438;" horiz-adv-x="683" d="M67 0 L234 0 L395 235 L452 322 L449 235 L449 0 L616 0 L616 546 L449 546 L288 308 L231 222 L234 308 L234 546 L67 546 L67 0 Z " />
<glyph glyph-name="uni0439" unicode="&#x439;" horiz-adv-x="683" d="M341 611 C412 611 481 649 517 716 L455 789 C420 749 383 731 341 731 C300 731 263 749 228 789 L166 716 C202 649 271 611 341 611 L341 611 Z M67 0 L234 0 L395 235 L452 322 L449 235 L449 0 L616 0 L616 546 L449 546 L288 308 L231 222 L234 308 L234 546 L67 546 L67 0 Z " />
<glyph glyph-name="uni043A" unicode="&#x43a;" horiz-adv-x="598" d="M67 0 L234 0 L234 247 L394 0 L587 0 L372 298 L568 546 L391 546 L234 313 L234 546 L67 546 L67 0 Z " />
<glyph glyph-name="uni043B" unicode="&#x43b;" horiz-adv-x="638" d="M46 -16 C128 1 191 34 225 85 C260 138 283 247 299 424 L404 424 L404 0 L571 0 L571 546 L161 546 C155 358 135 224 115 190 C93 153 41 129 4 117 L46 -16 Z " />
<glyph glyph-name="uni043C" unicode="&#x43c;" horiz-adv-x="802" d="M67 0 L222 0 L222 163 L214 316 L308 0 L481 0 L584 313 L579 163 L579 0 L735 0 L735 546 L537 546 L397 147 L271 546 L67 546 L67 0 Z " />
<glyph glyph-name="uni043D" unicode="&#x43d;" horiz-adv-x="663" d="M67 0 L234 0 L234 212 L429 212 L429 0 L596 0 L596 546 L429 546 L429 335 L234 335 L234 546 L67 546 L67 0 Z " />
<glyph glyph-name="uni043E" unicode="&#x43e;" horiz-adv-x="632" d="M309 -12 C477 -12 599 87 599 273 C599 451 512 560 318 560 C145 560 32 449 32 268 C32 97 129 -12 309 -12 L309 -12 Z M317 121 C228 121 200 178 200 272 C200 361 225 428 315 428 C407 428 429 361 429 273 C429 180 407 121 317 121 L317 121 Z " />
<glyph glyph-name="uni043F" unicode="&#x43f;" horiz-adv-x="653" d="M67 0 L234 0 L234 424 L419 424 L419 0 L586 0 L586 546 L67 546 L67 0 Z " />
<glyph glyph-name="uni0440" unicode="&#x440;" horiz-adv-x="640" d="M67 -220 L233 -220 L233 -6 C253 -7 275 -10 300 -10 C459 -10 606 70 606 298 C606 491 515 560 365 560 C315 560 255 526 233 507 L233 546 L67 546 L67 -220 Z M304 117 C277 117 249 121 233 123 L233 405 C254 412 287 420 315 420 C399 420 438 391 438 293 C438 191 389 117 304 117 L304 117 Z " />
<glyph glyph-name="uni0441" unicode="&#x441;" horiz-adv-x="531" d="M351 -11 C412 -11 440 -4 499 9 L476 136 C431 128 406 122 360 122 C229 122 204 171 204 276 C204 393 270 424 339 424 C395 424 419 418 463 401 L506 522 C463 545 412 560 332 560 C147 560 33 448 33 278 C33 74 120 -11 351 -11 L351 -11 Z " />
<glyph glyph-name="uni0442" unicode="&#x442;" horiz-adv-x="534" d="M184 0 L350 0 L350 423 L521 423 L521 546 L13 546 L13 423 L184 423 L184 0 Z " />
<glyph glyph-name="uni0443" unicode="&#x443;" horiz-adv-x="597" d="M173 -220 L332 -220 L599 546 L431 546 L322 222 L295 133 L272 222 L178 546 L-1 546 L187 0 L247 0 L173 -220 Z " />
<glyph glyph-name="uni0444" unicode="&#x444;" horiz-adv-x="803" d="M320 -220 L483 -220 L483 -12 C646 -8 769 90 769 273 C769 451 677 560 483 560 L483 754 L320 754 L320 560 C148 559 34 448 34 268 C34 97 133 -12 320 -12 L320 -220 Z M483 121 L483 428 C572 426 599 360 599 273 C599 180 572 121 483 121 L483 121 Z M320 117 C232 117 202 178 202 272 C202 361 229 428 320 428 L320 117 Z " />
<glyph glyph-name="uni0445" unicode="&#x445;" horiz-adv-x="602" d="M5 0 L201 0 L301 178 L400 0 L599 0 L395 279 L582 546 L393 546 L301 380 L212 546 L20 546 L207 279 L5 0 Z " />
<glyph glyph-name="uni0446" unicode="&#x446;" horiz-adv-x="690" d="M519 -147 L672 -147 L672 122 L579 122 L579 546 L412 546 L412 122 L234 122 L234 546 L67 546 L67 0 L519 0 L519 -147 Z " />
<glyph glyph-name="uni0447" unicode="&#x447;" horiz-adv-x="603" d="M369 0 L536 0 L536 546 L369 546 L369 330 C342 316 310 306 270 306 C224 306 194 324 194 394 L194 546 L28 546 L28 383 C28 236 87 181 228 181 C279 181 334 193 369 209 L369 0 Z " />
<glyph glyph-name="uni0448" unicode="&#x448;" horiz-adv-x="897" d="M67 0 L830 0 L830 546 L663 546 L663 122 L532 122 L532 546 L365 546 L365 122 L234 122 L234 546 L67 546 L67 0 Z " />
<glyph glyph-name="uni0449" unicode="&#x449;" horiz-adv-x="941" d="M770 -147 L923 -147 L923 122 L830 122 L830 546 L663 546 L663 122 L532 122 L532 546 L365 546 L365 122 L234 122 L234 546 L67 546 L67 0 L770 0 L770 -147 Z " />
<glyph glyph-name="uni044A" unicode="&#x44a;" horiz-adv-x="689" d="M183 0 L455 0 C578 0 671 85 671 194 C671 323 564 393 407 393 L350 393 L350 546 L13 546 L13 424 L183 424 L183 0 Z M397 271 C457 271 501 252 501 196 C501 148 467 123 413 123 L350 123 L350 271 L397 271 Z " />
<glyph glyph-name="uni044B" unicode="&#x44b;" horiz-adv-x="828" d="M67 0 L339 0 C462 0 545 85 545 194 C545 323 448 393 291 393 L234 393 L234 546 L67 546 L67 0 Z M594 0 L761 0 L761 546 L594 546 L594 0 Z M281 271 C341 271 375 252 375 196 C375 148 351 123 297 123 L234 123 L234 271 L281 271 Z " />
<glyph glyph-name="uni044C" unicode="&#x44c;" horiz-adv-x="573" d="M67 0 L339 0 C462 0 555 85 555 194 C555 323 448 393 291 393 L234 393 L234 546 L67 546 L67 0 Z M281 271 C341 271 385 252 385 196 C385 148 351 123 297 123 L234 123 L234 271 L281 271 Z " />
<glyph glyph-name="uni044D" unicode="&#x44d;" horiz-adv-x="527" d="M212 -9 C392 -9 493 96 493 280 C493 470 393 560 208 560 C128 560 73 541 30 518 L78 401 C122 416 157 427 209 427 C264 427 310 405 323 338 L131 338 L131 216 L324 216 C316 153 283 121 213 121 C155 121 100 142 65 156 L22 32 C74 7 135 -9 212 -9 L212 -9 Z " />
<glyph glyph-name="uni044E" unicode="&#x44e;" horiz-adv-x="929" d="M606 -12 C774 -12 896 87 896 273 C896 451 809 560 615 560 C464 560 359 476 334 335 L234 335 L234 546 L67 546 L67 0 L234 0 L234 212 L333 212 C352 73 446 -12 606 -12 L606 -12 Z M614 121 C525 121 497 178 497 272 C497 361 522 428 612 428 C704 428 726 361 726 273 C726 180 704 121 614 121 L614 121 Z " />
<glyph glyph-name="uni044F" unicode="&#x44f;" horiz-adv-x="599" d="M199 0 L304 157 L365 157 L365 0 L532 0 L532 546 L295 546 C167 546 64 480 64 351 C64 277 103 221 153 195 C147 185 12 7 6 0 L199 0 Z M322 279 C278 279 234 305 234 351 C234 395 267 424 313 424 L365 424 L365 279 L322 279 Z " />
<glyph glyph-name="uni0450" unicode="&#x450;" horiz-adv-x="587" d="M353 602 L401 702 L163 823 L109 706 L353 602 Z M331 -12 C397 -12 475 -1 536 19 L511 142 C454 129 392 120 355 120 C268 120 200 136 201 222 L555 222 L555 282 C555 447 487 559 315 559 C150 559 35 488 35 265 C35 47 151 -12 331 -12 L331 -12 Z M206 329 C209 401 246 441 303 441 C357 441 386 395 384 329 L206 329 Z " />
<glyph glyph-name="uni0451" unicode="&#x451;" horiz-adv-x="587" d="M252 643 L252 792 L96 792 L96 643 L252 643 Z M505 643 L505 792 L349 792 L349 643 L505 643 Z M331 -12 C397 -12 475 -1 536 19 L511 142 C454 129 392 120 355 120 C268 120 200 136 201 222 L555 222 L555 282 C555 447 487 559 315 559 C150 559 35 488 35 265 C35 47 151 -12 331 -12 L331 -12 Z M206 329 C209 401 246 441 303 441 C357 441 386 395 384 329 L206 329 Z " />
<glyph glyph-name="uni0452" unicode="&#x452;" horiz-adv-x="662" d="M409 -220 C544 -90 612 68 612 242 C612 366 565 500 412 500 C339 500 267 454 234 429 L234 552 L412 552 L412 666 L234 666 L234 754 L67 754 L67 666 L-32 666 L-32 552 L67 552 L67 0 L234 0 L234 325 C261 338 292 353 339 353 C405 353 442 311 442 228 C442 76 369 -40 297 -118 L409 -220 Z " />
<glyph glyph-name="uni0453" unicode="&#x453;" horiz-adv-x="487" d="M162 602 L407 706 L353 823 L115 702 L162 602 Z M67 0 L234 0 L234 423 L475 423 L475 546 L67 546 L67 0 Z " />
<glyph glyph-name="uni0454" unicode="&#x454;" horiz-adv-x="530" d="M352 -9 C413 -9 440 -4 499 9 L476 136 C431 130 407 124 361 124 C258 124 220 153 208 216 L399 216 L399 338 L212 338 C231 404 284 424 339 424 C395 424 419 418 463 401 L506 522 C463 545 412 560 332 560 C147 560 33 448 33 278 C33 74 121 -9 352 -9 L352 -9 Z " />
<glyph glyph-name="uni0455" unicode="&#x455;" horiz-adv-x="503" d="M234 -12 C326 -12 477 23 477 167 C477 350 204 333 204 395 C204 415 226 428 272 428 C328 428 370 420 423 408 L451 529 C394 549 334 560 267 560 C148 560 37 505 37 387 C37 191 312 219 312 160 C312 138 293 122 218 122 C181 122 124 127 53 137 L35 11 C91 -5 155 -12 234 -12 L234 -12 Z " />
<glyph glyph-name="uni0456" unicode="&#x456;" horiz-adv-x="301" d="M67 0 L234 0 L234 546 L67 546 L67 0 Z M66 643 L232 643 L232 792 L66 792 L66 643 Z " />
<glyph glyph-name="uni0457" unicode="&#x457;" horiz-adv-x="301" d="M105 643 L105 792 L-51 792 L-51 643 L105 643 Z M358 643 L358 792 L202 792 L202 643 L358 643 Z M67 0 L234 0 L234 546 L67 546 L67 0 Z " />
<glyph glyph-name="uni0458" unicode="&#x458;" horiz-adv-x="300" d="M12 -225 C128 -225 233 -188 233 2 L233 546 L67 546 L67 3 C67 -65 49 -84 6 -84 C-25 -84 -57 -78 -85 -68 L-116 -197 C-81 -213 -27 -225 12 -225 L12 -225 Z M65 643 L231 643 L231 792 L65 792 L65 643 Z " />
<glyph glyph-name="uni0459" unicode="&#x459;" horiz-adv-x="911" d="M46 -17 C128 0 191 34 225 85 C260 138 280 247 299 424 L404 424 L404 0 L677 0 C800 0 893 85 893 194 C893 323 786 393 629 393 L572 393 L572 546 L163 546 C157 358 137 224 117 190 C95 153 41 128 4 116 L46 -17 Z M619 271 C679 271 723 252 723 196 C723 148 689 123 635 123 L572 123 L572 271 L619 271 Z " />
<glyph glyph-name="uni045A" unicode="&#x45a;" horiz-adv-x="908" d="M67 0 L235 0 L235 232 L420 232 L420 0 L687 0 C804 0 893 76 893 175 C893 293 791 355 641 355 L587 355 L587 546 L420 546 L420 355 L235 355 L235 546 L67 546 L67 0 Z M627 232 C678 232 715 218 715 177 C715 142 686 123 640 123 L587 123 L587 232 L627 232 Z " />
<glyph glyph-name="uni045B" unicode="&#x45b;" horiz-adv-x="656" d="M67 0 L234 0 L234 325 C261 338 306 355 356 355 C412 355 429 342 429 267 L429 0 L595 0 L595 281 C595 405 583 500 412 500 C339 500 267 454 234 429 L234 552 L412 552 L412 666 L234 666 L234 754 L67 754 L67 666 L-32 666 L-32 552 L67 552 L67 0 Z " />
<glyph glyph-name="uni045C" unicode="&#x45c;" horiz-adv-x="598" d="M222 602 L467 706 L413 823 L175 702 L222 602 Z M67 0 L234 0 L234 247 L394 0 L587 0 L372 298 L568 546 L391 546 L234 313 L234 546 L67 546 L67 0 Z " />
<glyph glyph-name="uni045D" unicode="&#x45d;" horiz-adv-x="683" d="M419 602 L467 702 L229 823 L175 706 L419 602 Z M67 0 L234 0 L395 235 L452 322 L449 235 L449 0 L616 0 L616 546 L449 546 L288 308 L231 222 L234 308 L234 546 L67 546 L67 0 Z " />
<glyph glyph-name="uni045E" unicode="&#x45e;" horiz-adv-x="597" d="M295 611 C366 611 435 649 471 716 L409 789 C374 749 337 731 295 731 C254 731 217 749 182 789 L120 716 C156 649 225 611 295 611 L295 611 Z M173 -220 L332 -220 L599 546 L431 546 L322 222 L295 133 L272 222 L178 546 L-1 546 L187 0 L247 0 L173 -220 Z " />
<glyph glyph-name="uni045F" unicode="&#x45f;" horiz-adv-x="655" d="M250 -147 L405 -147 L405 0 L588 0 L588 546 L421 546 L421 122 L234 122 L234 546 L67 546 L67 0 L250 0 L250 -147 Z " />
<glyph glyph-name="uni0462" unicode="&#x462;" horiz-adv-x="740" d="M174 0 L398 0 C609 0 723 63 723 214 C723 365 618 427 407 427 L346 427 L346 499 L542 499 L542 627 L346 627 L346 707 L174 706 L174 627 L11 627 L11 498 L174 498 L174 0 Z M404 296 C510 296 548 279 548 214 C548 149 510 133 404 133 L346 133 L346 296 L404 296 Z " />
<glyph glyph-name="uni0463" unicode="&#x463;" horiz-adv-x="658" d="M153 0 L425 0 C548 0 641 70 641 179 C641 308 534 363 377 363 L320 363 L320 424 L491 424 L491 546 L320 546 L320 706 L153 706 L153 546 L7 546 L7 424 L153 424 L153 0 Z M367 241 C427 241 471 225 471 181 C471 140 437 123 383 123 L320 123 L320 241 L367 241 Z " />
<glyph glyph-name="uni0472" unicode="&#x472;" horiz-adv-x="833" d="M408 -12 C660 -12 795 128 795 353 C795 564 684 718 427 718 C186 718 38 578 38 355 C38 128 160 -12 408 -12 L408 -12 Z M411 122 C286 122 227 200 213 305 L619 305 C606 198 547 122 411 122 L411 122 Z M418 584 C542 584 605 509 619 403 L213 403 C226 509 286 584 418 584 L418 584 Z " />
<glyph glyph-name="uni0473" unicode="&#x473;" horiz-adv-x="632" d="M309 -12 C477 -12 599 87 599 273 C599 451 512 560 318 560 C145 560 32 449 32 268 C32 97 129 -12 309 -12 L309 -12 Z M317 121 C244 121 211 159 202 225 L426 225 C418 160 390 121 317 121 L317 121 Z M315 428 C388 428 417 385 426 323 L203 323 C213 385 243 428 315 428 L315 428 Z " />
<glyph glyph-name="uni0474" unicode="&#x474;" horiz-adv-x="752" d="M236 0 L455 0 L639 474 C675 570 714 610 765 644 L645 740 C577 700 530 640 496 540 L349 127 L174 707 L-5 707 L236 0 Z " />
<glyph glyph-name="uni0475" unicode="&#x475;" horiz-adv-x="635" d="M194 0 L392 0 L514 316 C549 406 588 446 639 480 L519 576 C451 536 404 476 370 376 L327 250 L296 141 L268 250 L176 546 L-3 546 L194 0 Z " />
<glyph glyph-name="uni048A" unicode="&#x48a;" horiz-adv-x="859" d="M83 0 L253 0 L492 367 L557 468 L553 374 L553 0 L672 0 L641 -152 L801 -152 L855 129 L723 129 L723 707 L553 707 L314 340 L249 239 L253 333 L253 707 L83 707 L83 0 Z M417 749 C499 749 579 788 621 859 L550 935 C510 893 466 873 417 873 C369 873 325 893 285 935 L214 859 C256 788 336 749 417 749 L417 749 Z " />
<glyph glyph-name="uni048B" unicode="&#x48b;" horiz-adv-x="730" d="M67 0 L234 0 L395 235 L452 322 L449 235 L449 0 L539 0 L508 -152 L668 -152 L722 129 L616 129 L616 546 L449 546 L288 308 L231 222 L234 308 L234 546 L67 546 L67 0 Z M336 608 C407 608 476 646 512 713 L450 786 C415 746 378 728 336 728 C295 728 258 746 223 786 L161 713 C197 646 266 608 336 608 L336 608 Z " />
<glyph glyph-name="uni048C" unicode="&#x48c;" horiz-adv-x="676" d="M34 547 L106 547 L106 0 L330 0 C541 0 655 98 655 249 C655 400 541 487 330 487 L278 487 L278 547 L390 547 L390 649 L278 649 L278 707 L106 707 L106 649 L34 649 L34 547 Z M336 356 C442 356 480 314 480 249 C480 184 442 133 336 133 L278 133 L278 356 L336 356 Z " />
<glyph glyph-name="uni048D" unicode="&#x48d;" horiz-adv-x="591" d="M83 0 L355 0 C478 0 571 85 571 194 C571 323 464 393 307 393 L250 393 L250 424 L370 424 L370 502 L250 502 L250 546 L83 546 L83 502 L33 502 L33 424 L83 424 L83 0 Z M297 271 C357 271 401 252 401 196 C401 148 367 123 313 123 L250 123 L250 271 L297 271 Z " />
<glyph glyph-name="uni048E" unicode="&#x48e;" horiz-adv-x="654" d="M83 0 L254 0 L254 200 L306 200 C365 200 416 209 460 225 L512 164 L581 225 L542 272 C600 319 631 384 631 456 C631 614 517 707 358 707 L83 707 L83 0 Z M333 375 L365 336 C350 333 332 331 312 331 L254 331 L254 574 L336 574 C427 574 456 523 456 452 C456 430 452 410 443 392 L407 436 L333 375 Z " />
<glyph glyph-name="uni048F" unicode="&#x48f;" horiz-adv-x="640" d="M67 -220 L233 -220 L233 -6 C253 -7 275 -10 300 -10 C346 -10 390 -3 431 11 L483 -50 L552 11 L512 58 C569 107 606 184 606 298 C606 491 515 560 365 560 C315 560 255 526 233 507 L233 546 L67 546 L67 -220 Z M304 161 L337 121 C327 119 316 117 304 117 C277 117 249 121 233 123 L233 405 C254 412 287 420 315 420 C399 420 438 391 438 293 C438 249 429 210 412 180 L378 222 L304 161 Z " />
<glyph glyph-name="uni0490" unicode="&#x490;" horiz-adv-x="586" d="M83 0 L253 0 L253 574 L576 574 L577 868 L417 868 L417 707 L83 707 L83 0 Z " />
<glyph glyph-name="uni0491" unicode="&#x491;" horiz-adv-x="487" d="M67 0 L233 0 L233 423 L475 423 L474 660 L322 660 L322 546 L67 546 L67 0 Z " />
<glyph glyph-name="uni0492" unicode="&#x492;" horiz-adv-x="622" d="M39 285 L117 285 L117 0 L287 0 L287 285 L456 285 L456 400 L287 400 L287 574 L611 574 L611 707 L117 707 L117 400 L39 400 L39 285 Z " />
<glyph glyph-name="uni0493" unicode="&#x493;" horiz-adv-x="518" d="M33 200 L95 200 L95 0 L262 0 L262 200 L394 200 L394 312 L262 312 L262 423 L503 423 L503 546 L95 546 L95 312 L33 312 L33 200 Z " />
<glyph glyph-name="uni0494" unicode="&#x494;" horiz-adv-x="690" d="M399 -220 C563 -108 666 3 666 184 C666 334 586 426 416 426 C360 426 306 414 253 395 L253 574 L535 574 L535 707 L83 707 L83 0 L253 0 L253 267 C293 287 335 297 378 297 C452 297 493 252 493 172 C493 7 369 -76 318 -110 L399 -220 Z " />
<glyph glyph-name="uni0495" unicode="&#x495;" horiz-adv-x="609" d="M67 0 L234 0 L234 185 C255 194 280 201 312 201 C378 201 415 159 415 76 C415 23 395 -60 295 -129 L378 -231 C523 -145 585 -23 585 90 C585 214 538 348 385 348 C329 348 272 325 234 303 L234 423 L495 423 L495 546 L67 546 L67 0 Z " />
<glyph glyph-name="uni0496" unicode="&#x496;" horiz-adv-x="1074" d="M0 0 L212 0 L430 336 L430 0 L600 0 L600 331 L818 0 L911 0 L911 -153 L1071 -153 L1071 129 L939 129 L768 371 L1009 707 L802 707 L600 400 L600 707 L430 707 L430 399 L228 707 L21 707 L262 371 L0 0 Z " />
<glyph glyph-name="uni0497" unicode="&#x497;" horiz-adv-x="890" d="M178 0 L336 231 L336 0 L503 0 L503 212 L590 95 C638 28 676 5 724 -5 L724 -153 L884 -153 L884 129 L861 129 C792 129 760 132 721 179 L633 286 L813 546 L634 546 L503 343 L503 546 L336 546 L336 318 L205 546 L26 546 L206 286 L0 0 L178 0 Z " />
<glyph glyph-name="uni0498" unicode="&#x498;" horiz-adv-x="592" d="M272 -8 C488 -8 553 102 553 197 C553 301 478 351 428 365 L428 367 C474 393 524 442 524 532 C524 630 440 711 269 711 C173 711 94 680 46 655 L101 540 C147 558 197 575 252 575 C320 575 353 548 353 499 C353 452 315 419 250 419 L153 419 L153 297 L249 297 C323 297 379 275 379 213 C379 153 327 128 256 128 C184 128 109 160 71 179 L16 54 C78 18 167 -8 272 -8 L272 -8 Z M222 -283 C285 -257 380 -213 380 -132 C380 -104 369 -76 358 -51 L229 -51 C234 -71 241 -93 241 -113 C241 -148 190 -168 165 -183 L222 -283 Z " />
<glyph glyph-name="uni0499" unicode="&#x499;" horiz-adv-x="499" d="M234 -11 C400 -11 467 75 467 151 C467 236 410 275 364 288 C408 310 442 348 442 415 C442 490 374 560 241 560 C159 560 88 540 35 514 L73 398 C115 413 156 429 211 429 C252 429 276 411 276 386 C276 363 258 338 209 338 L129 338 L129 216 L215 216 C255 216 289 203 289 168 C289 134 255 118 218 118 C156 118 88 149 63 161 L20 37 C76 9 159 -11 234 -11 L234 -11 Z M172 -283 C235 -257 330 -213 330 -132 C330 -104 319 -76 308 -51 L179 -51 C184 -71 191 -93 191 -113 C191 -148 140 -168 115 -183 L172 -283 Z " />
<glyph glyph-name="uni049A" unicode="&#x49a;" horiz-adv-x="765" d="M83 0 L253 0 L253 354 L511 0 L604 0 L604 -153 L764 -153 L764 129 L624 129 L426 376 L712 707 L495 707 L253 404 L253 707 L83 707 L83 0 Z " />
<glyph glyph-name="uni049B" unicode="&#x49b;" horiz-adv-x="624" d="M613 -153 L613 129 L596 129 C526 129 500 143 443 205 L365 291 L568 546 L385 546 L234 333 L234 546 L67 546 L67 0 L234 0 L234 220 L331 95 C370 44 410 18 453 4 L453 -153 L613 -153 Z " />
<glyph glyph-name="uni049C" unicode="&#x49c;" horiz-adv-x="799" d="M278 267 L354 267 L354 470 L278 470 L278 267 Z M574 0 L791 0 L549 376 L785 707 L568 707 L357 381 L357 380 L574 0 Z M83 0 L253 0 L253 707 L83 707 L83 0 Z " />
<glyph glyph-name="uni049D" unicode="&#x49d;" horiz-adv-x="662" d="M488 0 L656 0 L493 285 L643 546 L478 546 L335 274 L488 0 Z M67 0 L234 0 L234 546 L67 546 L67 0 Z M257 176 L333 176 L333 379 L257 379 L257 176 Z " />
<glyph glyph-name="uni049E" unicode="&#x49e;" horiz-adv-x="738" d="M98 0 L268 0 L268 354 L526 0 L743 0 L441 376 L727 707 L510 707 L268 404 L268 552 L348 552 L348 634 L268 634 L268 707 L98 707 L98 634 L31 634 L31 552 L98 552 L98 0 Z " />
<glyph glyph-name="uni049F" unicode="&#x49f;" horiz-adv-x="611" d="M80 0 L247 0 L247 247 L407 0 L600 0 L385 298 L581 546 L404 546 L247 313 L247 418 L297 418 L297 496 L247 496 L247 546 L80 546 L80 496 L40 496 L40 418 L80 418 L80 0 Z " />
<glyph glyph-name="uni04A0" unicode="&#x4a0;" horiz-adv-x="809" d="M169 0 L339 0 L339 354 L597 0 L814 0 L512 376 L798 707 L581 707 L339 404 L339 707 L7 707 L7 575 L169 575 L169 0 Z " />
<glyph glyph-name="uni04A1" unicode="&#x4a1;" horiz-adv-x="702" d="M1 424 L171 424 L171 0 L338 0 L338 247 L498 0 L691 0 L476 298 L672 546 L495 546 L338 313 L338 546 L1 546 L1 424 Z " />
<glyph glyph-name="uni04A2" unicode="&#x4a2;" horiz-adv-x="850" d="M83 0 L253 0 L253 291 L553 291 L553 0 L667 0 L667 -153 L827 -153 L827 129 L723 129 L723 707 L553 707 L553 420 L253 420 L253 707 L83 707 L83 0 Z " />
<glyph glyph-name="uni04A3" unicode="&#x4a3;" horiz-adv-x="737" d="M67 0 L234 0 L234 212 L429 212 L429 0 L564 0 L564 -153 L724 -153 L724 129 L596 129 L596 546 L429 546 L429 335 L234 335 L234 546 L67 546 L67 0 Z " />
<glyph glyph-name="uni04A4" unicode="&#x4a4;" horiz-adv-x="887" d="M83 0 L253 0 L253 291 L553 291 L553 0 L723 0 L723 574 L878 574 L878 707 L553 707 L553 420 L253 420 L253 707 L83 707 L83 0 Z " />
<glyph glyph-name="uni04A5" unicode="&#x4a5;" horiz-adv-x="822" d="M428 0 L596 0 L596 423 L836 423 L836 546 L428 546 L428 335 L234 335 L234 546 L67 546 L67 0 L234 0 L234 212 L428 212 L428 0 Z " />
<glyph glyph-name="uni04A6" unicode="&#x4a6;" horiz-adv-x="1146" d="M858 -220 C1022 -108 1125 3 1125 184 C1125 334 1045 426 875 426 C819 426 765 414 713 395 L713 707 L83 707 L83 0 L253 0 L253 578 L542 578 L542 0 L713 0 L713 267 C752 287 794 297 837 297 C911 297 952 252 952 172 C952 7 828 -76 777 -110 L858 -220 Z " />
<glyph glyph-name="uni04A7" unicode="&#x4a7;" horiz-adv-x="961" d="M67 0 L234 0 L234 424 L419 424 L419 0 L586 0 L586 214 C608 223 635 231 675 231 C732 231 769 179 769 96 C769 43 749 -60 649 -129 L732 -231 C877 -145 939 -3 939 110 C939 234 892 378 731 378 C679 378 623 349 586 324 L586 546 L67 546 L67 0 Z " />
<glyph glyph-name="uni04A8" unicode="&#x4a8;" horiz-adv-x="816" d="M670 -181 C731 -181 765 -178 818 -161 L795 -34 C750 -42 725 -48 679 -48 C633 -48 596 -26 569 8 C717 50 796 154 796 289 C796 397 729 490 580 490 C429 490 345 391 345 236 C345 195 348 154 355 116 C255 145 211 247 211 356 C211 486 273 577 430 577 C508 577 536 569 603 551 L648 674 C595 698 533 718 428 718 C187 718 39 578 39 355 C39 131 157 -7 397 -11 C447 -112 535 -181 670 -181 L670 -181 Z M500 237 C500 315 527 364 579 364 C621 364 647 334 647 264 C647 209 604 147 515 121 C504 159 500 200 500 237 L500 237 Z " />
<glyph glyph-name="uni04A9" unicode="&#x4a9;" horiz-adv-x="621" d="M266 175 C266 153 268 133 270 115 C219 137 201 198 201 272 C201 395 259 434 337 434 C371 434 410 424 449 406 L493 522 C450 545 399 560 319 560 C146 560 33 449 33 268 C33 97 130 -12 310 -12 L311 -12 C356 -86 431 -113 513 -113 C552 -113 592 -106 631 -94 L609 10 C579 1 551 -4 525 -4 C496 -4 470 2 449 15 C532 52 580 123 580 204 C580 296 540 367 430 367 C335 367 266 307 266 175 L266 175 Z M379 182 C379 252 404 271 422 271 C444 271 457 254 457 214 C457 156 432 125 386 113 C381 133 379 156 379 182 L379 182 Z " />
<glyph glyph-name="uni04AA" unicode="&#x4aa;" horiz-adv-x="678" d="M354 -283 C417 -257 512 -213 512 -132 C512 -104 501 -76 490 -51 L361 -51 C366 -71 373 -93 373 -113 C373 -148 322 -168 297 -183 L354 -283 Z M429 -12 C520 -12 579 -1 647 24 L611 152 C557 138 516 132 447 132 C304 132 210 211 210 359 C210 507 299 579 427 577 C505 576 533 569 600 551 L645 674 C592 698 530 718 425 718 C184 718 37 579 37 349 C37 117 170 -12 429 -12 L429 -12 Z " />
<glyph glyph-name="uni04AB" unicode="&#x4ab;" horiz-adv-x="531" d="M351 -11 C412 -11 440 -4 499 9 L476 136 C431 128 406 122 360 122 C229 122 204 171 204 276 C204 393 270 424 339 424 C395 424 419 418 463 401 L506 522 C463 545 412 560 332 560 C147 560 33 448 33 278 C33 74 120 -11 351 -11 L351 -11 Z M239 -283 C302 -257 397 -213 397 -132 C397 -104 386 -76 375 -51 L246 -51 C251 -71 258 -93 258 -113 C258 -148 207 -168 182 -183 L239 -283 Z " />
<glyph glyph-name="uni04AC" unicode="&#x4ac;" horiz-adv-x="646" d="M232 0 L391 0 L391 -153 L551 -153 L551 129 L402 129 L402 574 L624 574 L624 707 L10 707 L10 574 L232 574 L232 0 Z " />
<glyph glyph-name="uni04AD" unicode="&#x4ad;" horiz-adv-x="545" d="M184 0 L316 0 L316 -152 L470 -152 L470 129 L350 129 L350 423 L521 423 L521 546 L13 546 L13 423 L184 423 L184 0 Z " />
<glyph glyph-name="uni04AE" unicode="&#x4ae;" horiz-adv-x="674" d="M244 0 L414 0 L414 233 L692 707 L501 707 L335 370 L179 707 L-17 707 L244 227 L244 0 Z " />
<glyph glyph-name="uni04AF" unicode="&#x4af;" horiz-adv-x="596" d="M208 -220 L374 -220 L374 0 L602 546 L427 546 L325 270 L294 161 L266 270 L174 546 L-5 546 L208 0 L208 -220 Z " />
<glyph glyph-name="uni04B0" unicode="&#x4b0;" horiz-adv-x="691" d="M100 193 L254 193 L254 0 L424 0 L424 193 L577 193 L577 318 L474 318 L702 707 L511 707 L345 370 L189 707 L-7 707 L204 318 L100 318 L100 193 Z " />
<glyph glyph-name="uni04B1" unicode="&#x4b1;" horiz-adv-x="613" d="M88 0 L220 0 L220 -220 L386 -220 L386 0 L513 0 L513 122 L437 122 L614 546 L439 546 L337 270 L306 161 L278 270 L186 546 L7 546 L172 122 L88 122 L88 0 Z " />
<glyph glyph-name="uni04B2" unicode="&#x4b2;" horiz-adv-x="739" d="M-1 0 L189 0 L341 238 L482 0 L574 0 L574 -153 L734 -153 L734 129 L594 129 L440 365 L678 707 L488 707 L350 490 L222 707 L27 707 L252 362 L-1 0 Z " />
<glyph glyph-name="uni04B3" unicode="&#x4b3;" horiz-adv-x="649" d="M5 0 L201 0 L301 178 L400 0 L481 0 L481 -153 L641 -153 L641 129 L504 129 L395 279 L582 546 L393 546 L301 380 L212 546 L20 546 L207 279 L5 0 Z " />
<glyph glyph-name="uni04B4" unicode="&#x4b4;" horiz-adv-x="957" d="M771 -153 L931 -153 L931 130 L828 130 L828 707 L658 707 L658 129 L373 129 L373 574 L565 574 L565 707 L11 707 L11 574 L203 574 L203 0 L771 0 L771 -153 Z " />
<glyph glyph-name="uni04B5" unicode="&#x4b5;" horiz-adv-x="807" d="M636 -147 L789 -147 L789 122 L696 122 L696 546 L529 546 L529 122 L351 122 L351 546 L13 546 L13 423 L184 423 L184 0 L636 0 L636 -147 Z " />
<glyph glyph-name="uni04B6" unicode="&#x4b6;" horiz-adv-x="745" d="M446 0 L568 0 L568 -153 L728 -153 L728 129 L616 129 L616 707 L446 707 L446 416 C403 393 364 380 321 380 C247 380 203 400 203 489 L203 707 L33 707 L33 453 C33 316 113 251 283 251 C339 251 393 263 446 282 L446 0 Z " />
<glyph glyph-name="uni04B7" unicode="&#x4b7;" horiz-adv-x="670" d="M369 0 L495 0 L495 -153 L655 -153 L655 129 L536 129 L536 546 L369 546 L369 330 C342 316 310 306 270 306 C224 306 194 324 194 394 L194 546 L28 546 L28 383 C28 236 87 181 228 181 C279 181 334 193 369 209 L369 0 Z " />
<glyph glyph-name="uni04B8" unicode="&#x4b8;" horiz-adv-x="699" d="M446 0 L616 0 L616 707 L446 707 L446 416 C414 399 385 388 355 383 L355 450 L279 450 L279 383 C231 391 203 418 203 489 L203 707 L33 707 L33 453 C33 317 112 252 279 251 L279 183 L355 183 L355 257 C386 263 416 271 446 282 L446 0 Z " />
<glyph glyph-name="uni04B9" unicode="&#x4b9;" horiz-adv-x="603" d="M369 0 L536 0 L536 546 L369 546 L369 330 C353 322 336 315 316 311 L316 379 L240 379 L240 309 C211 317 194 340 194 394 L194 546 L28 546 L28 383 C28 236 87 181 228 181 L240 181 L240 112 L316 112 L316 191 C336 196 354 202 369 209 L369 0 Z " />
<glyph glyph-name="uni04BA" unicode="&#x4ba;" horiz-adv-x="700" d="M83 0 L253 0 L253 291 C296 314 335 327 378 327 C452 327 496 307 496 218 L496 0 L666 0 L666 254 C666 391 586 465 416 465 C360 465 304 450 253 425 L253 707 L83 707 L83 0 Z " />
<glyph glyph-name="uni04BB" unicode="&#x4bb;" horiz-adv-x="657" d="M67 0 L234 0 L234 384 C261 397 306 414 356 414 C412 414 429 401 429 326 L429 0 L595 0 L595 340 C595 464 583 559 412 559 C339 559 270 517 234 488 L234 754 L67 754 L67 0 Z " />
<glyph glyph-name="uni04BC" unicode="&#x4bc;" horiz-adv-x="947" d="M916 304 L916 378 C913 546 803 718 561 718 C371 718 233 596 204 420 C154 424 139 444 139 493 C139 533 157 581 169 617 L53 617 C31 568 14 512 14 461 C14 378 59 308 201 304 C222 88 384 -13 573 -13 C672 -13 786 14 877 69 L829 184 C746 139 668 122 583 122 C476 122 397 189 380 304 L916 304 Z M563 584 C686 584 740 521 740 420 L379 420 C392 525 441 584 563 584 L563 584 Z " />
<glyph glyph-name="uni04BD" unicode="&#x4bd;" horiz-adv-x="731" d="M475 -12 C541 -12 619 -1 680 19 L655 142 C598 129 536 120 499 120 C412 120 344 136 345 222 L699 222 L699 282 C699 447 631 559 459 559 C315 559 209 504 184 342 C153 350 143 371 143 411 C143 451 161 499 173 535 L57 535 C35 486 18 430 18 379 C18 301 57 235 180 223 C194 39 307 -12 475 -12 L475 -12 Z M350 329 C353 401 390 441 447 441 C501 441 530 395 528 329 L350 329 Z " />
<glyph glyph-name="uni04BE" unicode="&#x4be;" horiz-adv-x="947" d="M734 -230 L706 -130 C685 -141 665 -147 641 -147 C622 -147 601 -132 601 -105 C601 -66 645 -29 691 -1 C756 12 821 35 877 69 L829 184 C746 139 668 122 583 122 C476 122 397 189 380 304 L916 304 L916 378 C913 546 803 718 561 718 C371 718 233 596 204 420 C154 424 139 444 139 493 C139 533 157 581 169 617 L53 617 C31 568 14 512 14 461 C14 378 59 308 201 304 C220 110 352 8 516 -10 C481 -44 459 -84 459 -128 C459 -216 535 -261 618 -261 C657 -261 698 -251 734 -230 L734 -230 Z M563 584 C686 584 740 521 740 420 L379 420 C392 525 441 584 563 584 L563 584 Z " />
</font>
</defs>
</svg>
