<?xml version="1.0" encoding="utf-8"?>
<!-- Generator: Adobe Illustrator 20.0.0, SVG Export Plug-In . SVG Version: 6.00 Build 0)  -->
<svg version="1.1" id="Layer_1" xmlns="http://www.w3.org/2000/svg" xmlns:xlink="http://www.w3.org/1999/xlink" x="0px" y="0px"
	 viewBox="0 0 100 100" style="enable-background:new 0 0 100 100;" xml:space="preserve">
<style type="text/css">
	.st0{fill:#FFFFFF;}
</style>
<path class="st0" d="M98.8,93.2L68.4,62.7c12.3-15.1,11.4-37.4-2.7-51.5C58.5,4,48.8,0,38.5,0s-20,4-27.2,11.3v0
	c-15,15-15,39.4,0,54.4C18.8,73.2,28.6,77,38.5,77c8.6,0,17.2-2.9,24.2-8.6l30.4,30.4C94,99.6,95,100,96,100s2-0.4,2.8-1.2
	C100.4,97.3,100.4,94.7,98.8,93.2z M16.2,60.8c-12.3-12.3-12.3-32.3,0-44.5v0C22.2,10.3,30.1,7,38.5,7s16.3,3.3,22.3,9.2
	c12.3,12.3,12.3,32.3,0,44.5C48.5,73.1,28.5,73.1,16.2,60.8z"/>
</svg>
