<?xml version="1.0" encoding="utf-8"?>
<!-- Generator: Adobe Illustrator 16.0.0, SVG Export Plug-In . SVG Version: 6.00 Build 0)  -->
<!DOCTYPE svg PUBLIC "-//W3C//DTD SVG 1.1//EN" "http://www.w3.org/Graphics/SVG/1.1/DTD/svg11.dtd">
<svg version="1.1" id="Layer_1" xmlns="http://www.w3.org/2000/svg" xmlns:xlink="http://www.w3.org/1999/xlink" x="0px" y="0px"
	 width="477.795px" height="475.811px" viewBox="0 0 477.795 475.811" enable-background="new 0 0 477.795 475.811"
	 xml:space="preserve">
<g>
	<path fill="#010101" d="M338.896,475.811c-109.135,0-279.451-157.088-325.751-274.49C-13.311,133.524,4.878,97.146,26.374,77.304
		l61.182-61.182c21.496-21.496,59.528-21.496,81.024,0l41.339,41.339c11.575,11.575,16.536,24.803,16.536,41.339
		s-6.614,29.764-16.536,41.339l-23.149,23.15c-11.575,11.575-11.575,31.417,0,42.993l85.984,85.984
		c11.575,11.576,31.418,11.576,42.992,0l23.15-23.15c21.496-21.496,59.527-21.496,81.024,0l41.339,41.34
		c11.574,11.574,16.535,24.803,16.535,41.34c0,14.881-6.614,29.764-16.535,41.338l-61.182,61.182
		C385.196,467.543,363.699,475.811,338.896,475.811z M128.895,32.658c-6.614,0-13.229,3.307-18.188,6.614l-61.182,61.182
		c-23.15,21.496-16.536,59.528-4.961,87.639c46.3,115.75,205.041,252.994,294.333,252.994c16.535,0,28.11-4.961,38.031-13.229
		l61.182-61.182c4.961-4.961,6.614-11.574,6.614-18.189c0-6.613-3.307-13.229-6.614-16.535l-39.685-39.686
		c-9.922-9.922-24.804-9.922-34.726,0l-23.149,23.15c-23.149,23.15-66.143,23.15-89.292,0l-85.984-85.985
		c-24.804-24.804-24.804-64.489,0-89.292l23.149-23.15c4.961-4.961,6.614-11.575,6.614-18.189c0-6.614-3.307-13.228-6.614-18.189
		l-41.339-41.339C142.123,35.965,135.509,32.658,128.895,32.658z"/>
</g>
</svg>
