<?xml version="1.0" encoding="utf-8"?>
<!-- Generator: Adobe Illustrator 20.0.0, SVG Export Plug-In . SVG Version: 6.00 Build 0)  -->
<svg version="1.1" id="Layer_1" xmlns="http://www.w3.org/2000/svg" xmlns:xlink="http://www.w3.org/1999/xlink" x="0px" y="0px"
	 viewBox="0 0 100 100" style="enable-background:new 0 0 100 100;" xml:space="preserve">
<style type="text/css">
	.st0{fill:#FFFFFF;}
</style>
<path class="st0" d="M50,0C22.4,0,0,22.4,0,50c0,27.6,22.4,50,50,50s50-22.4,50-50C100,22.4,77.6,0,50,0z M22.6,83.1
	c1.2-15.6,13-27.8,27.4-27.8c14.4,0,26.2,12.3,27.4,27.8C69.9,89.3,60.4,93,50,93C39.6,93,30.1,89.3,22.6,83.1z M38,36.3
	c0-6.6,5.4-12,12-12c6.6,0,12,5.4,12,12s-5.4,12-12,12C43.4,48.3,38,42.9,38,36.3z M83.5,76.9c-2.7-12-10.7-21.8-21.2-26.2
	c4.1-3.5,6.7-8.7,6.7-14.5c0-10.5-8.5-19-19-19s-19,8.5-19,19c0,5.8,2.6,11,6.7,14.5c-10.5,4.4-18.5,14.1-21.2,26.2
	C10.6,69.5,7,60.2,7,50C7,26.3,26.3,7,50,7c23.7,0,43,19.3,43,43C93,60.2,89.4,69.5,83.5,76.9z"/>
</svg>
