<!-- Generator: Adobe Illustrator 20.1.0, SVG Export Plug-In  -->
<svg version="1.1"
   xmlns="http://www.w3.org/2000/svg" xmlns:xlink="http://www.w3.org/1999/xlink" xmlns:a="http://ns.adobe.com/AdobeSVGViewerExtensions/3.0/"
   x="0px" y="0px" width="95px" height="100px" viewBox="0 0 95 100" style="enable-background:new 0 0 95 100;"
   xml:space="preserve">
<style type="text/css">
  .st0{fill:#333333;}
</style>
<defs>
</defs>
<path class="st0" d="M88,24.2c-0.2-1.8-1.7-3.2-3.5-3.2H68.8C67.3,9.1,58.3,0,47.5,0S27.7,9.1,26.2,21H10.5c-1.8,0-3.3,1.4-3.5,3.2
  l-7,72c-0.1,1,0.2,2,0.9,2.7c0.7,0.7,1.6,1.1,2.6,1.1h88c1,0,1.9-0.4,2.6-1.1s1-1.7,0.9-2.7L88,24.2z M47.5,7c7,0,12.9,6,14.2,14
  H33.3C34.6,13,40.5,7,47.5,7z M7.4,93l6.3-65h67.6l6.3,65H7.4z"/>
</svg>
