<?xml version="1.0" encoding="utf-8"?>
<!-- Generator: Adobe Illustrator 20.0.0, SVG Export Plug-In . SVG Version: 6.00 Build 0)  -->
<svg version="1.1" id="Layer_1" xmlns="http://www.w3.org/2000/svg" xmlns:xlink="http://www.w3.org/1999/xlink" x="0px" y="0px"
	 viewBox="0 0 100 100" style="enable-background:new 0 0 100 100;" xml:space="preserve">
<style type="text/css">
	.st0{fill:#FFFFFF;}
</style>
<path class="st0" d="M96,63.3L89,56.2c-5.3-5.3-13.8-5.3-19.1,0l-0.6,0.6l-2.8,2.8c-2.5,2.5-6.6,2.5-9.2,0L40.4,42.7
	c-2.5-2.5-2.5-6.6,0-9.2l2.8-2.8l0,0l0.6-0.6c5.3-5.3,5.3-13.8,0-19.1L36.7,4c-5.3-5.3-13.8-5.3-19.1,0L3.5,18.1l0,0
	c-10.5,10.5,4,36.4,23,55.4C41.1,88.1,59.7,100,72.4,100c3.8,0,7.1-1.1,9.6-3.6L96,82.3C101.3,77.1,101.3,68.5,96,63.3z M91.1,77.4
	L77,91.5c-4.7,4.7-24.3-1.7-45.5-23C10.2,47.3,3.8,27.7,8.5,23l0,0v0L22.6,8.9c2.5-2.5,6.6-2.5,9.2,0l7.1,7.1c2.5,2.5,2.5,6.6,0,9.2
	l-0.6,0.6l0,0l0,0l-2.8,2.8c-5.3,5.3-5.3,13.8,0,19.1l16.9,16.9c2.6,2.6,6.1,3.9,9.5,3.9c3.5,0,6.9-1.3,9.5-3.9l2.8-2.8l0.6-0.6
	c2.5-2.5,6.6-2.5,9.2,0l7.1,7.1C93.6,70.7,93.6,74.9,91.1,77.4z"/>
</svg>
