<?xml version="1.0" encoding="utf-8"?>
<!-- Generator: Adobe Illustrator 16.0.0, SVG Export Plug-In . SVG Version: 6.00 Build 0)  -->
<!DOCTYPE svg PUBLIC "-//W3C//DTD SVG 1.1//EN" "http://www.w3.org/Graphics/SVG/1.1/DTD/svg11.dtd">
<svg version="1.1" id="Layer_1" xmlns="http://www.w3.org/2000/svg" xmlns:xlink="http://www.w3.org/1999/xlink" x="0px" y="0px"
	 width="483.665px" height="483.665px" viewBox="0 0 483.665 483.665" enable-background="new 0 0 483.665 483.665"
	 xml:space="preserve">
<g>
	<path fill="#010101" d="M241.832,0C108.489,0,0,108.49,0,241.833c0,133.352,108.489,241.832,241.832,241.832
		c133.353,0,241.833-108.48,241.833-241.832C483.665,108.49,375.185,0,241.832,0z M111.634,399.582
		c0.204-71.629,58.523-129.845,130.198-129.845c71.676,0,129.994,58.216,130.199,129.845
		c-35.41,29.262-80.791,46.879-130.199,46.879C192.415,446.461,147.034,428.844,111.634,399.582z M186.024,176.724
		c0-30.778,25.03-55.808,55.808-55.808c30.778,0,55.808,25.03,55.808,55.808s-25.029,55.808-55.808,55.808
		C211.055,232.532,186.024,207.502,186.024,176.724z M405.423,364.609c-11.757-54.431-50.022-99.03-100.575-119.67
		c18.389-17.002,29.997-41.251,29.997-68.215c0-51.287-41.726-93.013-93.013-93.013s-93.013,41.726-93.013,93.013
		c0,26.964,11.608,51.213,30.006,68.215c-50.562,20.63-88.826,65.239-100.574,119.67c-25.755-34.22-41.046-76.745-41.046-122.776
		c0-112.833,91.794-204.628,204.627-204.628c112.834,0,204.628,91.794,204.628,204.628
		C446.46,287.864,431.168,330.39,405.423,364.609z"/>
</g>
</svg>