<!-- Generator: Adobe Illustrator 19.2.1, SVG Export Plug-In  -->
<svg version="1.1"
   xmlns="http://www.w3.org/2000/svg" xmlns:xlink="http://www.w3.org/1999/xlink" xmlns:a="http://ns.adobe.com/AdobeSVGViewerExtensions/3.0/"
   x="0px" y="0px" width="164.9px" height="26px" viewBox="0 0 164.9 26" style="enable-background:new 0 0 164.9 26;"
   xml:space="preserve">
<defs>
</defs>
<g>
  <path d="M52.4,18.3c0-4.4-4.8-6.1-8-6.6l0,0c1.7-1,3.3-2.8,3.3-5c0-5-5.3-6.7-17.9-6.7h-18v3.9h18.1c3.5,0,10-0.2,10,3.7
    c0,3.2-5,3.4-8.6,3.4H0v3.9h11.8v11h23.3l0,0C50.3,26,52.4,23.2,52.4,18.3z M19.7,14.9c0,0,15,0,15.1,0c1.8,0,3.6,0,5.4,0.2
    c2.3,0.3,4,1.1,4.1,3.1c0.2,3.8-6.7,3.8-9.4,3.8c-0.1,0-15.2,0-15.2,0V14.9z"/>
  <polygon points="135.4,22 135.4,0 127.5,0 127.5,26 164.9,26 164.9,22  "/>
  <path d="M116.5,0L88.4,17.1L59.8,0H51v26h7.9V5.6c0,0,16.7,10,24.4,14.6h10.2l24.4-14.9V26h7.9V0H116.5z"/>
</g>
</svg>
