<?xml version="1.0" encoding="UTF-8"?><svg width="46" height="39" viewBox="0 0 46 39" xmlns="http://www.w3.org/2000/svg" xmlns:xlink="http://www.w3.org/1999/xlink"><view id="arrowB" viewBox="0 24 19 15"/><svg width="19" height="15" viewBox="-5 -5 19 15" y="24"><title>Arrow_small</title><path fill="#111" d="M4.156 3.862h.688L.688.003 0 .822 4.156 4.68 4.5 5l.344-.32L9 .818 8.312 0z" fill-rule="evenodd"/></svg><view id="arrowW" viewBox="19 24 19 15"/><svg width="19" height="15" viewBox="-5 -5 19 15" x="19" y="24"><title>Arrow_small</title><path fill="#FFF" d="M4.156 3.862h.688L.688.003 0 .822 4.156 4.68 4.5 5l.344-.32L9 .818 8.312 0z" fill-rule="evenodd"/></svg><view id="check" viewBox="24 0 22 19"/><svg width="22" height="19" viewBox="-5 -5 22 19" x="24"><title>галочка</title><path d="M.757 4.15l3.651 3.4 6.1-6.795" stroke-width="1.5" stroke="#006133" fill="none" fill-rule="evenodd"/></svg><view id="checkTel" viewBox="0 0 24 24"/><svg width="24" height="24" viewBox="-5 -5 24 24"><title>checkTel</title><g fill="none" fill-rule="evenodd"><path d="M7 0a7 7 0 1 1 0 14A7 7 0 0 1 7 0z" fill="#79BA62"/><path fill="#FFF" d="M6.307 9.555l.44.445.401-.486L11 4.85 10.121 4 6.676 8.183 4.804 6.291 4 7.223z"/></g></svg></svg>