<svg xmlns="http://www.w3.org/2000/svg">
<defs>
<font id="FeSa Cond Pro Book">
<font-face  font-family="Fedra Sans Condensed Pro" units-per-em="1000" ascent="780" descent="-220" font-style="normal" font-weight="400" font-stretch="condensed" cap-height="707" x-height="546" underline-position="-75" underline-thickness="50" />

<glyph glyph-name="NULL" d="" />
<glyph glyph-name="CR" unicode="&#xd;" horiz-adv-x="250" d="" />
<glyph glyph-name="space" unicode="&#x20;" horiz-adv-x="191" d="" />
<glyph glyph-name="exclam" unicode="&#x21;" horiz-adv-x="225" d="M151 317 L151 707 L75 707 L75 317 L79 173 L146 173 L151 317 Z M155 0 L155 91 L71 91 L71 0 L155 0 Z " />
<glyph glyph-name="quotedbl" unicode="&#x22;" horiz-adv-x="271" d="M235 753 L163 753 L167 515 L230 515 L235 753 Z M109 753 L36 753 L41 515 L104 515 L109 753 Z " />
<glyph glyph-name="numbersign" unicode="&#x23;" horiz-adv-x="417" d="M373 159 L373 226 L309 226 L320 480 L373 480 L373 546 L322 546 L329 707 L268 707 L261 546 L177 546 L184 707 L123 707 L115 546 L44 546 L44 480 L112 480 L102 226 L44 226 L44 159 L98 159 L92 0 L152 0 L159 159 L244 159 L237 0 L299 0 L306 159 L373 159 Z M258 480 L247 226 L163 226 L173 480 L258 480 Z " />
<glyph glyph-name="dollar" unicode="&#x24;" horiz-adv-x="375" d="M359 183 C359 377 107 398 107 540 C107 602 142 641 195 641 C240 641 268 630 305 611 L325 676 C293 696 260 708 212 711 L213 800 L147 800 L149 705 C84 687 36 626 36 537 C36 348 286 326 286 177 C286 93 224 65 170 65 C122 65 87 78 43 106 L22 36 C52 15 87 -5 149 -8 L147 -99 L213 -99 L212 -4 C295 9 359 66 359 183 L359 183 Z " />
<glyph glyph-name="percent" unicode="&#x25;" horiz-adv-x="591" d="M274 551 C274 666 221 714 154 714 C86 714 31 648 31 543 C31 421 84 377 151 377 C218 377 274 440 274 551 L274 551 Z M559 165 C559 280 506 328 439 328 C371 328 317 262 317 157 C317 35 370 -9 436 -9 C503 -9 559 55 559 165 L559 165 Z M206 552 C206 472 179 438 151 438 C118 438 97 476 97 544 C97 616 123 653 154 653 C188 653 206 621 206 552 L206 552 Z M491 166 C491 86 465 52 436 52 C403 52 382 90 382 158 C382 231 408 267 439 267 C473 267 491 235 491 166 L491 166 Z M537 626 L489 666 L51 68 L99 27 L537 626 Z " />
<glyph glyph-name="ampersand" unicode="&#x26;" horiz-adv-x="515" d="M517 65 C390 74 262 192 205 358 C270 421 347 506 347 580 C347 659 313 709 232 709 C141 709 102 630 102 545 C102 486 114 423 127 377 C69 314 34 251 34 165 C34 29 114 -8 182 -8 C252 -8 283 18 325 63 C380 21 441 -3 512 -4 L517 65 Z M278 575 C278 529 225 459 185 423 C177 462 169 522 169 561 C169 610 194 646 229 646 C262 646 278 619 278 575 L278 575 Z M278 105 C252 81 221 62 190 62 C149 62 104 88 104 171 C104 220 122 273 152 311 C182 235 228 157 278 105 L278 105 Z " />
<glyph glyph-name="quotesingle" unicode="&#x27;" horiz-adv-x="145" d="M109 753 L36 753 L41 515 L104 515 L109 753 Z " />
<glyph glyph-name="parenleft" unicode="&#x28;" horiz-adv-x="275" d="M251 733 L205 771 C124 695 29 529 29 285 C29 45 118 -128 202 -225 L252 -186 C175 -84 103 65 103 286 C103 511 177 654 251 733 L251 733 Z " />
<glyph glyph-name="parenright" unicode="&#x29;" horiz-adv-x="275" d="M72 -225 C157 -128 245 45 245 285 C245 529 151 695 70 771 L23 733 C98 654 171 511 171 286 C171 65 99 -84 23 -186 L72 -225 Z " />
<glyph glyph-name="asterisk" unicode="&#x2a;" horiz-adv-x="388" d="M366 643 L331 703 L242 638 L265 600 L366 643 Z M230 762 L160 762 L172 653 L219 653 L230 762 Z M365 527 L266 570 L242 529 L330 465 L365 527 Z M147 639 L59 703 L23 643 L124 598 L147 639 Z M229 408 L218 516 L171 516 L158 408 L229 408 Z M146 531 L123 570 L23 526 L58 466 L146 531 Z " />
<glyph glyph-name="plus" unicode="&#x2b;" horiz-adv-x="351" d="M328 254 L328 321 L211 321 L211 445 L141 445 L141 321 L24 321 L24 254 L141 254 L141 130 L211 130 L211 254 L328 254 Z " />
<glyph glyph-name="comma" unicode="&#x2c;" horiz-adv-x="157" d="M118 28 L118 83 L39 83 L39 0 C39 -31 31 -83 18 -125 L85 -125 C106 -73 118 -28 118 28 L118 28 Z " />
<glyph glyph-name="&amp;#x2d;" unicode="&#x2d;" horiz-adv-x="345" d="M288 252 L288 321 L57 321 L57 252 L288 252 Z " />
<glyph glyph-name="&amp;#xad;" unicode="&#xad;" horiz-adv-x="345" d="M288 252 L288 321 L57 321 L57 252 L288 252 Z " />
<glyph glyph-name="period" unicode="&#x2e;" horiz-adv-x="164" d="M125 0 L125 90 L39 90 L39 0 L125 0 Z " />
<glyph glyph-name="slash" unicode="&#x2f;" horiz-adv-x="348" d="M325 769 L260 769 L22 -62 L88 -62 L325 769 Z " />
<glyph glyph-name="zero" unicode="0" horiz-adv-x="470" d="M424 364 C424 530 396 713 242 713 C85 713 44 528 44 342 C44 154 83 -9 230 -9 C372 -9 424 149 424 364 L424 364 Z M346 358 C346 207 329 62 233 62 C145 62 122 197 122 346 C122 501 141 643 238 643 C329 643 346 494 346 358 L346 358 Z " />
<glyph glyph-name="one" unicode="1" horiz-adv-x="470" d="M396 0 L396 71 L277 71 L277 707 L81 701 L81 637 L202 637 L202 71 L82 71 L82 0 L396 0 Z " />
<glyph glyph-name="two" unicode="2" horiz-adv-x="470" d="M411 0 L411 70 L155 70 C268 213 385 362 385 512 C385 608 355 715 226 715 C150 715 99 672 83 655 L107 596 C119 609 164 643 220 643 C274 643 307 610 307 508 C307 360 142 175 68 66 L68 0 L411 0 Z " />
<glyph glyph-name="three" unicode="3" horiz-adv-x="470" d="M399 196 C399 300 325 357 270 377 C315 400 374 463 374 543 C374 652 307 715 216 715 C162 715 111 696 86 677 L110 618 C131 631 171 647 209 647 C259 647 301 607 301 538 C301 468 241 409 176 402 L176 334 C258 328 324 280 324 196 C324 110 278 62 207 62 C168 62 116 80 86 95 L64 28 C93 12 152 -7 212 -7 C308 -7 399 51 399 196 L399 196 Z " />
<glyph glyph-name="four" unicode="4" horiz-adv-x="470" d="M433 192 L433 263 L344 263 L344 707 L245 707 L47 264 L47 192 L270 192 L270 0 L344 0 L344 192 L433 192 Z M270 263 L122 263 L235 528 L265 620 L270 620 L270 263 Z " />
<glyph glyph-name="five" unicode="5" horiz-adv-x="470" d="M409 216 C409 344 340 419 236 419 C217 419 202 418 184 418 L184 635 L383 635 L383 707 L110 707 L110 340 C149 345 181 348 214 348 C275 348 333 308 333 205 C333 123 281 68 220 68 C173 68 134 78 102 93 L84 18 C114 4 162 -9 222 -9 C333 -9 409 75 409 216 L409 216 Z " />
<glyph glyph-name="six" unicode="6" horiz-adv-x="470" d="M137 297 C137 483 176 641 295 641 C326 641 344 638 365 629 L378 697 C358 708 332 714 294 714 C146 714 60 552 60 303 C60 81 121 -13 245 -13 C353 -13 422 81 422 228 C422 341 369 436 255 436 C227 436 208 431 184 424 L186 357 C220 364 231 365 245 365 C302 365 346 309 346 213 C346 134 307 57 250 57 C162 57 137 156 137 297 L137 297 Z " />
<glyph glyph-name="seven" unicode="7" horiz-adv-x="470" d="M407 630 L407 707 L60 707 L60 633 L336 633 L111 12 L185 -11 L407 630 Z " />
<glyph glyph-name="eight" unicode="8" horiz-adv-x="470" d="M421 172 C421 256 353 313 283 371 C352 431 402 479 402 560 C402 640 340 714 239 714 C140 714 67 658 67 554 C67 474 117 429 181 372 C107 313 46 254 46 162 C46 53 127 -9 230 -9 C339 -9 421 55 421 172 L421 172 Z M329 550 C329 491 275 446 231 410 C191 448 138 492 138 551 C138 610 178 648 238 648 C299 648 329 600 329 550 L329 550 Z M345 178 C345 96 297 58 234 58 C171 58 122 100 122 169 C122 236 178 294 230 332 C276 293 345 235 345 178 L345 178 Z " />
<glyph glyph-name="nine" unicode="9" horiz-adv-x="470" d="M222 255 C255 255 286 263 303 269 L294 335 C271 329 254 325 235 325 C178 325 135 373 135 491 C135 568 173 640 230 640 C306 640 341 517 341 406 C341 214 328 59 185 59 C152 59 121 65 99 74 L86 4 C116 -9 151 -14 186 -14 C353 -14 419 110 419 395 C419 584 351 712 235 712 C130 712 58 619 58 477 C58 340 116 255 222 255 L222 255 Z " />
<glyph glyph-name="colon" unicode="&#x3a;" horiz-adv-x="220" d="M154 454 L154 546 L66 546 L66 454 L154 454 Z M154 0 L154 92 L66 92 L66 0 L154 0 Z " />
<glyph glyph-name="semicolon" unicode="&#x3b;" horiz-adv-x="216" d="M49 -125 L116 -125 C137 -73 149 -28 149 28 L149 83 L69 83 L69 0 C69 -31 61 -83 49 -125 L49 -125 Z M63 454 L151 454 L151 546 L63 546 L63 454 Z " />
<glyph glyph-name="less" unicode="&#x3c;" horiz-adv-x="374" d="M323 74 L323 153 L91 286 L91 290 L323 423 L323 502 L34 336 L34 240 L323 74 Z " />
<glyph glyph-name="equal" unicode="&#x3d;" horiz-adv-x="436" d="M366 351 L366 417 L70 417 L70 351 L366 351 Z M366 156 L366 222 L70 222 L70 156 L366 156 Z " />
<glyph glyph-name="greater" unicode="&#x3e;" horiz-adv-x="374" d="M340 240 L340 336 L51 502 L51 423 L283 291 L283 287 L51 153 L51 74 L340 240 Z " />
<glyph glyph-name="question" unicode="&#x3f;" horiz-adv-x="290" d="M134 185 C126 202 120 224 120 245 C120 336 261 386 261 507 C261 638 153 696 49 710 L37 638 C127 621 184 580 184 498 C184 415 48 374 48 247 C48 220 57 194 67 169 L134 185 Z M61 0 L145 0 L145 91 L61 91 L61 0 Z " />
<glyph glyph-name="at" unicode="&#x40;" horiz-adv-x="584" d="M552 428 C552 627 465 715 345 715 C176 715 37 578 37 263 C37 56 115 -72 272 -72 C324 -72 359 -68 410 -44 L401 16 C360 3 316 -5 281 -5 C175 -5 105 71 105 273 C105 550 221 652 341 652 C419 652 485 595 485 431 C485 259 428 206 396 206 C385 206 379 218 381 239 L401 479 C373 495 342 504 313 504 C219 504 163 412 163 281 C163 184 193 149 239 149 C261 149 297 175 317 199 C322 167 344 144 380 144 C466 144 552 229 552 428 L552 428 Z M332 438 L316 264 C302 245 277 220 252 220 C241 220 231 230 231 286 C231 369 256 441 314 441 C320 441 328 440 332 438 L332 438 Z " />
<glyph glyph-name="A" unicode="A" horiz-adv-x="490" d="M484 0 L299 707 L201 707 L-2 0 L77 0 L152 264 L333 264 L400 0 L484 0 Z M317 333 L169 333 L232 565 L245 633 L249 633 L261 565 L317 333 Z " />
<glyph glyph-name="B" unicode="B" horiz-adv-x="464" d="M427 206 C427 281 392 353 323 374 L323 377 C371 402 391 476 391 531 C391 632 337 707 218 707 L71 707 L71 0 L239 0 C375 0 427 88 427 206 L427 206 Z M310 516 C310 440 287 398 214 398 L149 398 L149 639 L203 639 C275 639 310 603 310 516 L310 516 Z M346 203 C346 105 296 72 227 72 L149 72 L149 329 L205 329 C298 329 346 305 346 203 L346 203 Z " />
<glyph glyph-name="C" unicode="C" horiz-adv-x="489" d="M464 23 L449 88 C412 71 366 60 320 60 C209 60 118 156 118 359 C118 566 216 646 317 646 C356 646 397 638 445 608 L463 677 C425 704 376 717 315 717 C150 717 38 581 38 349 C38 141 133 -12 307 -12 C385 -12 436 8 464 23 L464 23 Z " />
<glyph glyph-name="D" unicode="D" horiz-adv-x="542" d="M504 356 C504 584 383 707 215 707 L71 707 L71 0 L219 0 C393 0 504 111 504 356 L504 356 Z M426 345 C426 163 350 71 227 71 L148 71 L148 636 L213 636 C341 636 426 543 426 345 L426 345 Z " />
<glyph glyph-name="E" unicode="E" horiz-adv-x="423" d="M388 0 L388 71 L149 71 L149 321 L356 321 L356 389 L149 389 L149 638 L372 638 L372 707 L71 707 L71 0 L388 0 Z " />
<glyph glyph-name="F" unicode="F" horiz-adv-x="410" d="M385 638 L385 707 L71 707 L71 0 L149 0 L149 300 L370 300 L370 371 L149 371 L149 638 L385 638 Z " />
<glyph glyph-name="G" unicode="G" horiz-adv-x="512" d="M468 304 L391 304 L391 71 C369 64 342 60 320 60 C208 60 117 156 117 359 C117 560 210 645 313 645 C369 645 396 635 444 608 L461 678 C413 704 375 717 312 717 C144 717 37 571 37 349 C37 141 132 -12 307 -12 C393 -12 439 10 468 25 L468 304 Z " />
<glyph glyph-name="H" unicode="H" horiz-adv-x="554" d="M483 0 L483 707 L405 707 L405 391 L149 391 L149 707 L71 707 L71 0 L149 0 L149 319 L405 319 L405 0 L483 0 Z " />
<glyph glyph-name="I" unicode="I" horiz-adv-x="220" d="M149 0 L149 707 L71 707 L71 0 L149 0 Z " />
<glyph glyph-name="J" unicode="J" horiz-adv-x="221" d="M151 156 L151 707 L72 707 L72 145 C72 2 50 -73 -39 -136 L-1 -192 C133 -113 151 1 151 156 L151 156 Z " />
<glyph glyph-name="K" unicode="K" horiz-adv-x="461" d="M158 365 L192 298 L364 0 L462 0 L232 379 L448 707 L355 707 L192 447 L158 386 L158 365 Z M149 707 L71 707 L71 0 L149 0 L149 707 Z " />
<glyph glyph-name="L" unicode="L" horiz-adv-x="367" d="M367 0 L367 73 L149 73 L149 707 L71 707 L71 0 L367 0 Z " />
<glyph glyph-name="M" unicode="M" horiz-adv-x="680" d="M609 0 L609 707 L502 707 L338 77 L336 77 L183 707 L71 707 L71 0 L149 0 L149 447 L142 565 L147 565 L285 0 L386 0 L532 575 L538 575 L531 459 L531 0 L609 0 Z " />
<glyph glyph-name="N" unicode="N" horiz-adv-x="559" d="M488 0 L488 707 L410 707 L410 253 L417 135 L413 135 L162 707 L71 707 L71 0 L149 0 L149 450 L142 563 L146 563 L395 0 L488 0 Z " />
<glyph glyph-name="O" unicode="O" horiz-adv-x="602" d="M562 353 C562 557 479 717 307 717 C146 717 39 577 39 353 C39 135 129 -12 294 -12 C463 -12 562 136 562 353 L562 353 Z M481 352 C481 184 422 58 298 58 C180 58 120 190 120 357 C120 524 180 649 300 649 C415 649 481 527 481 352 L481 352 Z " />
<glyph glyph-name="P" unicode="P" horiz-adv-x="436" d="M183 255 L199 255 C344 255 417 357 417 483 C417 625 343 707 227 707 L71 707 L71 0 L149 0 L149 636 L219 636 C290 636 335 581 335 478 C335 374 276 327 203 327 L183 327 L183 255 Z " />
<glyph glyph-name="Q" unicode="Q" horiz-adv-x="602" d="M562 353 C562 557 479 717 307 717 C146 717 39 577 39 353 C39 135 129 -12 294 -12 C463 -12 562 136 562 353 L562 353 Z M481 352 C481 184 422 58 298 58 C180 58 120 190 120 357 C120 524 180 649 300 649 C415 649 481 527 481 352 L481 352 Z M578 -160 L578 -88 L533 -88 C489 -88 461 -85 411 -61 C364 -41 335 -31 280 -31 L280 -98 C323 -98 348 -110 385 -129 C425 -146 461 -156 496 -159 C507 -159 518 -160 529 -160 L578 -160 Z " />
<glyph glyph-name="R" unicode="R" horiz-adv-x="500" d="M501 53 C451 77 423 111 400 155 L323 305 C388 342 417 416 417 495 C417 639 346 707 243 707 L71 707 L71 0 L149 0 L149 278 C161 278 180 277 194 277 C211 277 233 278 251 282 L339 100 C382 13 448 -9 486 -11 L501 53 Z M335 490 C335 387 285 347 211 347 L149 347 L149 636 L228 636 C298 636 335 591 335 490 L335 490 Z " />
<glyph glyph-name="S" unicode="S" horiz-adv-x="395" d="M368 184 C368 380 124 396 124 540 C124 605 158 640 219 640 C252 640 285 632 318 616 L342 678 C311 698 271 711 217 711 C118 711 45 647 45 535 C45 337 287 326 287 179 C287 99 238 63 171 63 C132 63 93 77 53 103 L22 41 C63 10 109 -9 173 -9 C275 -9 368 53 368 184 L368 184 Z " />
<glyph glyph-name="T" unicode="T" horiz-adv-x="420" d="M421 635 L421 707 L-1 707 L-1 635 L171 635 L171 0 L250 0 L250 635 L421 635 Z " />
<glyph glyph-name="U" unicode="U" horiz-adv-x="557" d="M489 270 L489 707 L414 707 L414 266 C414 105 350 59 281 59 C214 59 148 97 148 243 L148 707 L68 707 L68 244 C68 39 177 -13 281 -13 C377 -13 489 44 489 270 L489 270 Z " />
<glyph glyph-name="V" unicode="V" horiz-adv-x="490" d="M494 707 L415 707 L267 184 L243 80 L241 80 L223 179 L91 707 L6 707 L192 0 L288 0 L494 707 Z " />
<glyph glyph-name="W" unicode="W" horiz-adv-x="751" d="M746 707 L669 707 L544 177 L528 75 L525 75 L507 175 L378 707 L297 707 L342 529 L240 175 L219 74 L216 74 L202 177 L100 707 L19 707 L162 0 L262 0 L358 339 L377 417 L379 417 L393 338 L476 0 L577 0 L746 707 Z " />
<glyph glyph-name="X" unicode="X" horiz-adv-x="447" d="M438 0 L267 375 L426 707 L342 707 L252 507 L226 444 L224 444 L199 507 L118 707 L28 707 L181 374 L-2 0 L86 0 L198 250 L221 306 L224 306 L246 247 L349 0 L438 0 Z " />
<glyph glyph-name="Y" unicode="Y" horiz-adv-x="434" d="M434 707 L349 707 L248 443 L219 352 L215 352 L188 444 L95 707 L7 707 L176 269 L176 0 L255 0 L255 268 L434 707 Z " />
<glyph glyph-name="Z" unicode="Z" horiz-adv-x="416" d="M391 0 L391 75 L110 75 L376 636 L376 707 L43 707 L43 632 L288 632 L25 77 L25 0 L391 0 Z " />
<glyph glyph-name="bracketleft" unicode="&#x5b;" horiz-adv-x="226" d="M202 -220 L202 -150 L131 -150 L131 684 L202 684 L202 754 L58 754 L58 -220 L202 -220 Z " />
<glyph glyph-name="backslash" unicode="&#x5c;" horiz-adv-x="348" d="M260 -62 L326 -62 L88 769 L23 769 L260 -62 Z " />
<glyph glyph-name="bracketright" unicode="&#x5d;" horiz-adv-x="227" d="M169 -220 L169 754 L24 754 L24 684 L95 684 L95 -150 L24 -150 L24 -220 L169 -220 Z " />
<glyph glyph-name="asciicircum" unicode="&#x5e;" horiz-adv-x="377" d="M349 294 L239 707 L149 707 L27 294 L105 294 L164 526 L190 635 L194 635 L217 526 L269 294 L349 294 Z " />
<glyph glyph-name="underscore" unicode="&#x5f;" horiz-adv-x="424" d="M401 -165 L401 -96 L23 -96 L23 -165 L401 -165 Z " />
<glyph glyph-name="grave" unicode="&#x60;" horiz-adv-x="407" d="M297 661 L150 794 L106 739 L262 615 L297 661 Z " />
<glyph glyph-name="a" unicode="a" horiz-adv-x="406" d="M392 59 C362 63 342 72 342 107 L342 409 C342 515 283 559 198 559 C152 559 96 548 59 523 L71 459 C104 474 145 486 186 486 C242 486 267 464 267 394 L267 312 L201 309 C105 305 27 259 27 144 C27 61 68 -8 158 -8 C210 -8 245 16 276 58 C287 6 340 -3 370 -5 C374 -5 380 -6 387 -6 L392 59 Z M267 112 C239 83 210 58 171 58 C118 58 99 102 99 152 C99 232 149 248 205 251 L267 254 L267 112 Z " />
<glyph glyph-name="b" unicode="b" horiz-adv-x="430" d="M167 476 C185 483 202 486 217 486 C298 486 318 383 318 286 C318 156 282 64 192 64 C168 64 140 70 130 74 L130 754 L54 754 L54 19 C98 0 145 -8 185 -8 C307 -8 395 64 395 289 C395 464 341 554 230 554 C199 554 176 547 160 539 L167 476 Z " />
<glyph glyph-name="c" unicode="c" horiz-adv-x="362" d="M340 12 L331 77 C299 67 274 61 244 61 C144 61 109 137 109 265 C109 415 156 490 236 490 C270 490 299 476 322 461 L343 526 C315 547 272 558 232 558 C109 558 33 453 33 260 C33 79 100 -9 235 -9 C283 -9 316 3 340 12 L340 12 Z " />
<glyph glyph-name="d" unicode="d" horiz-adv-x="426" d="M370 0 L370 754 L294 754 L294 545 C279 552 251 558 226 558 C114 558 34 465 34 264 C34 51 123 -8 189 -8 C238 -8 275 23 294 52 L294 0 L370 0 Z M294 116 C275 96 243 64 207 64 C153 64 110 128 110 272 C110 393 140 492 225 492 C251 492 280 483 294 475 L294 116 Z " />
<glyph glyph-name="e" unicode="e" horiz-adv-x="399" d="M367 256 L367 287 C367 461 319 559 211 559 C111 559 35 477 35 264 C35 57 107 -9 232 -9 C289 -9 342 6 361 18 L348 83 C318 73 277 61 241 61 C165 61 111 102 111 256 L367 256 Z M288 320 L112 320 C119 429 153 494 207 494 C263 494 288 423 288 320 L288 320 Z " />
<glyph glyph-name="f" unicode="f" horiz-adv-x="239" d="M322 746 C301 757 260 764 225 764 C151 764 72 731 72 579 L72 546 L16 546 L16 480 L72 480 L72 -205 L149 -205 L149 480 L232 480 L232 546 L149 546 L149 587 C149 667 178 696 233 696 C257 696 285 690 310 682 L322 746 Z " />
<glyph glyph-name="g" unicode="g" horiz-adv-x="426" d="M371 -31 L371 538 C326 552 272 558 240 558 C119 558 34 474 34 262 C34 31 137 -8 200 -8 C251 -8 278 18 294 38 L294 -24 C294 -137 247 -155 196 -155 C160 -155 119 -147 77 -134 L64 -207 C87 -216 146 -230 197 -230 C304 -230 371 -167 371 -31 L371 -31 Z M295 107 C271 81 252 62 217 62 C152 62 110 118 110 266 C110 405 147 489 238 489 C261 489 283 484 295 480 L295 107 Z " />
<glyph glyph-name="h" unicode="h" horiz-adv-x="440" d="M387 0 L387 355 C387 468 365 558 266 558 C206 558 163 525 132 486 L132 754 L56 754 L56 0 L132 0 L132 423 C168 455 201 483 244 483 C303 483 311 430 311 345 L311 0 L387 0 Z " />
<glyph glyph-name="i" unicode="i" horiz-adv-x="188" d="M132 0 L132 546 L56 546 L56 0 L132 0 Z M153 715 L93 774 L35 715 L93 655 L153 715 Z " />
<glyph glyph-name="j" unicode="j" horiz-adv-x="188" d="M132 -22 L132 546 L56 546 L56 -28 C56 -110 39 -157 -12 -157 C-23 -157 -41 -154 -57 -147 L-72 -215 C-49 -224 -30 -230 -9 -230 C76 -230 132 -179 132 -22 L132 -22 Z M153 715 L93 774 L35 715 L93 655 L153 715 Z " />
<glyph glyph-name="k" unicode="k" horiz-adv-x="399" d="M136 290 L156 249 L237 105 C283 20 326 -5 372 -9 L394 52 C365 66 327 96 292 155 L213 290 L381 546 L294 546 L159 337 L136 290 Z M132 754 L56 754 L56 0 L132 0 L132 754 Z " />
<glyph glyph-name="l" unicode="l" horiz-adv-x="188" d="M132 0 L132 754 L56 754 L56 0 L132 0 Z " />
<glyph glyph-name="m" unicode="m" horiz-adv-x="678" d="M624 0 L624 351 C624 400 632 558 510 558 C444 558 391 510 364 481 C350 525 314 558 260 558 C208 558 167 527 132 487 L132 546 L56 546 L56 0 L132 0 L132 423 C163 451 198 483 240 483 C298 483 301 428 301 346 L301 0 L377 0 L377 351 C377 373 377 398 374 424 C410 453 448 483 489 483 C545 483 549 426 549 346 L549 0 L624 0 Z " />
<glyph glyph-name="n" unicode="n" horiz-adv-x="440" d="M387 0 L387 355 C387 468 365 558 266 558 C206 558 163 525 132 486 L132 546 L56 546 L56 0 L132 0 L132 423 C168 455 201 483 244 483 C303 483 311 430 311 345 L311 0 L387 0 Z " />
<glyph glyph-name="o" unicode="o" horiz-adv-x="435" d="M401 277 C401 449 342 559 223 559 C106 559 33 451 33 268 C33 93 98 -13 214 -13 C325 -13 401 83 401 277 L401 277 Z M326 271 C326 167 302 55 219 55 C137 55 109 162 109 270 C109 374 134 493 219 493 C303 493 326 372 326 271 L326 271 Z " />
<glyph glyph-name="p" unicode="p" horiz-adv-x="431" d="M397 281 C397 464 334 555 240 555 C185 555 153 524 132 502 L132 546 L56 546 L56 -220 L132 -220 L132 -2 C145 -5 173 -8 194 -8 C304 -8 397 59 397 281 L397 281 Z M320 276 C320 148 286 62 191 62 C168 62 141 66 132 69 L132 439 C158 462 184 482 219 482 C300 482 320 374 320 276 L320 276 Z " />
<glyph glyph-name="q" unicode="q" horiz-adv-x="423" d="M370 -220 L370 530 C332 546 278 558 238 558 C122 558 33 468 33 257 C33 44 125 -8 208 -8 C249 -8 274 5 293 18 L293 -220 L370 -220 Z M293 89 C278 77 244 64 216 64 C151 64 107 123 107 262 C107 389 146 490 233 490 C255 490 274 483 293 478 L293 89 Z " />
<glyph glyph-name="r" unicode="r" horiz-adv-x="284" d="M287 546 C277 551 256 556 238 556 C183 556 153 518 135 482 L132 482 L132 546 L56 546 L56 0 L132 0 L132 405 C152 446 181 483 228 483 C244 483 262 480 277 474 L287 546 Z " />
<glyph glyph-name="s" unicode="s" horiz-adv-x="330" d="M307 146 C307 309 109 307 109 422 C109 461 131 490 182 490 C215 490 253 478 272 468 L285 533 C265 543 227 556 184 556 C97 556 35 507 35 417 C35 256 232 253 232 142 C232 93 193 60 140 60 C105 60 63 73 35 84 L24 16 C53 3 101 -8 139 -8 C223 -8 307 40 307 146 L307 146 Z " />
<glyph glyph-name="t" unicode="t" horiz-adv-x="293" d="M291 13 L281 78 C258 68 236 63 214 63 C164 63 144 89 144 152 L144 479 L266 479 L266 546 L145 546 L145 658 L70 658 L70 546 L13 546 L13 479 L70 479 L70 158 C70 16 125 -6 199 -6 C238 -6 261 0 291 13 L291 13 Z " />
<glyph glyph-name="u" unicode="u" horiz-adv-x="440" d="M385 0 L385 546 L308 546 L308 124 C286 101 241 61 194 61 C137 61 129 118 129 199 L129 546 L54 546 L54 194 C54 113 60 -11 175 -11 C240 -11 280 28 308 63 L308 0 L385 0 Z " />
<glyph glyph-name="v" unicode="v" horiz-adv-x="381" d="M379 546 L300 546 L207 175 L192 77 L186 77 L172 172 L90 546 L8 546 L139 0 L234 0 L379 546 Z " />
<glyph glyph-name="w" unicode="w" horiz-adv-x="638" d="M634 546 L557 546 L467 163 L456 80 L450 80 L440 167 L367 546 L278 546 L196 163 L186 79 L180 79 L170 163 L90 546 L11 546 L136 0 L227 0 L306 364 L318 450 L324 450 L334 365 L403 0 L496 0 L634 546 Z " />
<glyph glyph-name="x" unicode="x" horiz-adv-x="379" d="M373 0 L232 281 L363 546 L279 546 L193 339 L187 339 L103 546 L15 546 L149 279 L6 0 L95 0 L186 219 L192 219 L284 0 L373 0 Z " />
<glyph glyph-name="y" unicode="y" horiz-adv-x="379" d="M376 546 L298 546 L203 157 L190 71 L185 71 L174 158 L89 546 L8 546 L138 0 L159 0 L106 -220 L181 -220 L376 546 Z " />
<glyph glyph-name="z" unicode="z" horiz-adv-x="366" d="M338 0 L338 72 L105 72 L336 472 L336 546 L40 546 L40 474 L251 474 L21 78 L21 0 L338 0 Z " />
<glyph glyph-name="braceleft" unicode="&#x7b;" horiz-adv-x="259" d="M235 -220 L235 -150 C162 -150 136 -125 142 -47 L155 131 C159 189 147 241 98 272 L98 274 C137 295 161 345 155 419 L142 595 C136 676 156 702 235 702 L235 773 L209 773 C130 773 61 737 68 609 C68 607 71 568 71 565 L84 398 C88 354 62 311 24 311 L24 236 C63 236 87 189 84 148 L72 -9 C71 -12 68 -53 68 -55 C59 -196 132 -220 209 -220 L235 -220 Z " />
<glyph glyph-name="bar" unicode="&#x7c;" horiz-adv-x="182" d="M124 -220 L124 754 L58 754 L58 -220 L124 -220 Z " />
<glyph glyph-name="braceright" unicode="&#x7d;" horiz-adv-x="259" d="M235 242 L235 317 C197 317 172 364 175 405 L187 553 C187 556 191 606 191 608 C200 748 127 773 50 773 L24 773 L24 703 C98 703 124 678 118 600 L104 422 C100 364 113 310 161 280 L161 277 C122 257 99 208 104 134 L118 -42 C124 -124 103 -150 24 -150 L24 -220 L50 -220 C130 -220 198 -184 191 -56 C191 -54 188 -12 188 -9 L175 155 C171 198 198 242 235 242 L235 242 Z " />
<glyph glyph-name="asciitilde" unicode="&#x7e;" horiz-adv-x="417" d="M392 347 L357 398 C336 378 310 365 286 365 C229 365 206 420 138 420 C92 420 51 389 27 361 L60 311 C80 330 101 344 131 344 C185 344 220 290 285 290 C329 290 359 312 392 347 L392 347 Z " />
<glyph glyph-name="uni00A0" unicode="&#xa0;" horiz-adv-x="191" d="" />
<glyph glyph-name="exclamdown" unicode="&#xa1;" horiz-adv-x="196" d="M140 455 L140 546 L55 546 L55 455 L140 455 Z M136 -161 L136 229 L131 373 L65 373 L60 229 L60 -161 L136 -161 Z " />
<glyph glyph-name="cent" unicode="&#xa2;" horiz-adv-x="376" d="M342 115 L334 178 C306 173 280 163 250 163 C144 163 111 235 111 379 C111 515 159 595 227 595 C269 595 297 581 324 565 L343 628 C322 643 294 657 253 660 L254 754 L189 754 L190 658 C94 636 39 531 39 377 C39 207 84 119 190 99 L189 0 L254 0 L253 95 C290 96 324 107 342 115 L342 115 Z " />
<glyph glyph-name="sterling" unicode="&#xa3;" horiz-adv-x="390" d="M360 0 L360 71 L125 71 C150 100 163 174 170 255 L300 255 L300 321 L175 321 C178 381 178 447 178 504 C178 607 209 629 310 640 L305 710 C173 700 108 664 108 505 C108 434 108 373 107 321 L36 321 L36 255 L103 255 C96 154 80 97 46 69 L46 0 L360 0 Z " />
<glyph glyph-name="currency" unicode="&#xa4;" horiz-adv-x="456" d="M29 281 L95 281 L95 208 L29 208 L29 139 L95 139 L95 0 L173 0 L173 139 L372 139 L372 208 L173 208 L173 281 L223 281 C368 281 441 372 441 494 C441 636 367 707 251 707 L95 707 L95 349 L29 349 L29 281 Z M173 636 L243 636 C314 636 359 592 359 489 C359 385 300 349 227 349 L173 349 L173 636 Z " />
<glyph glyph-name="yen" unicode="&#xa5;" horiz-adv-x="484" d="M453 707 L374 707 L270 437 L241 349 L237 349 L210 437 L113 707 L30 707 L179 322 L54 322 L54 254 L200 254 L200 156 L54 156 L54 88 L200 88 L200 0 L274 0 L274 88 L429 88 L429 156 L274 156 L274 254 L429 254 L429 322 L297 322 L453 707 Z " />
<glyph glyph-name="brokenbar" unicode="&#xa6;" horiz-adv-x="213" d="M139 391 L139 753 L74 753 L74 391 L139 391 Z M139 -220 L139 142 L74 142 L74 -220 L139 -220 Z " />
<glyph glyph-name="section" unicode="&#xa7;" horiz-adv-x="376" d="M378 724 C356 744 309 761 264 761 C148 761 63 671 63 509 C63 477 68 437 72 405 L120 60 C125 18 132 -23 132 -62 C132 -102 122 -147 93 -147 C70 -147 48 -137 27 -124 L5 -186 C12 -190 47 -216 100 -216 C219 -216 298 -102 298 37 C298 85 292 141 285 188 L232 545 C229 564 227 598 227 624 C227 662 243 692 269 692 C301 692 328 678 348 664 L378 724 Z M225 90 C228 63 230 39 230 18 C230 -63 204 -104 188 -127 L184 -124 C190 -106 200 -77 200 -28 C200 -10 198 11 195 34 L137 462 C133 491 132 514 132 536 C132 609 153 648 168 669 L171 666 C171 666 162 634 162 583 C162 565 162 545 166 523 L225 90 Z " />
<glyph glyph-name="dieresis" unicode="&#xa8;" horiz-adv-x="326" d="M292 715 L239 767 L186 715 L239 661 L292 715 Z M141 715 L89 767 L36 715 L89 661 L141 715 Z " />
<glyph glyph-name="copyright" unicode="&#xa9;" horiz-adv-x="615" d="M577 352 C577 555 491 714 315 714 C148 714 39 574 39 353 C39 141 130 -13 301 -13 C476 -13 577 137 577 352 L577 352 Z M517 353 C517 174 449 42 304 42 C168 42 98 182 98 355 C98 537 173 661 307 661 C438 661 517 533 517 353 L517 353 Z M416 533 C391 552 367 566 320 566 C221 566 160 481 160 354 C160 239 214 145 322 145 C355 145 381 152 419 173 L404 227 C371 214 350 209 329 209 C271 209 224 258 224 359 C224 461 269 505 321 505 C347 505 369 496 394 481 L416 533 Z " />
<glyph glyph-name="ordfeminine" unicode="&#xaa;" horiz-adv-x="311" d="M266 439 C250 439 244 439 244 458 L244 622 C244 696 200 715 153 715 C118 715 87 702 68 691 L78 645 C84 647 112 661 143 661 C176 661 188 656 188 617 L188 573 L150 572 C110 572 49 559 49 479 C49 420 76 383 124 383 C150 383 178 403 194 419 C201 387 238 383 262 385 L266 439 Z M273 300 L273 356 L41 356 L41 300 L273 300 Z M188 468 C178 460 152 439 136 439 C118 439 105 450 105 482 C105 504 115 522 146 525 C148 526 186 528 188 528 L188 468 Z " />
<glyph glyph-name="guillemotleft" unicode="&#xab;" horiz-adv-x="363" d="M331 469 L272 493 L171 272 L271 53 L330 78 L249 272 L331 469 Z M186 469 L126 493 L26 272 L126 53 L185 78 L104 272 L186 469 Z " />
<glyph glyph-name="logicalnot" unicode="&#xac;" horiz-adv-x="378" d="M325 160 L325 386 L32 386 L32 317 L254 317 L254 160 L325 160 Z " />
<glyph glyph-name="registered" unicode="&#xae;" horiz-adv-x="495" d="M470 531 C470 687 365 756 249 756 C120 756 25 675 25 531 C25 371 139 308 248 308 C377 308 470 390 470 531 L470 531 Z M426 531 C426 415 355 350 252 350 C183 350 71 386 71 535 C71 661 152 715 249 715 C340 715 426 656 426 531 L426 531 Z M369 448 C352 455 336 459 322 475 C309 486 293 511 285 521 C314 533 330 558 330 588 C330 639 297 663 248 663 L161 663 L161 421 L207 421 L207 511 L221 511 C226 511 235 511 240 512 C247 499 270 465 287 447 C305 425 328 416 362 416 L369 448 Z M285 586 C285 557 267 546 234 546 L207 546 L207 627 L239 627 C274 627 285 614 285 586 L285 586 Z " />
<glyph glyph-name="macron" unicode="&#xaf;" horiz-adv-x="389" d="M308 669 L308 732 L80 732 L80 669 L308 669 Z " />
<glyph glyph-name="degree" unicode="&#xb0;" horiz-adv-x="305" d="M280 587 C280 669 232 716 153 716 C77 716 25 664 25 587 C25 501 63 455 150 455 C228 455 280 505 280 587 L280 587 Z M218 587 C218 536 196 508 152 508 C108 508 85 533 85 587 C85 635 108 664 152 664 C195 664 218 634 218 587 L218 587 Z " />
<glyph glyph-name="plusminus" unicode="&#xb1;" horiz-adv-x="393" d="M40 68 L40 0 L353 0 L353 68 L40 68 Z M232 142 L232 254 L353 254 L353 321 L232 321 L232 445 L161 445 L161 321 L40 321 L40 254 L161 254 L161 142 L232 142 Z " />
<glyph glyph-name="twosuperior" unicode="&#xb2;" horiz-adv-x="235" d="M13 420 L214 420 L214 473 L76 473 C136 523 211 586 211 681 C211 752 168 791 117 791 C81 791 44 772 22 742 L44 702 C60 723 86 736 112 736 C138 736 155 715 155 675 C155 599 90 543 13 469 L13 420 Z " />
<glyph glyph-name="threesuperior" unicode="&#xb3;" horiz-adv-x="231" d="M103 415 C158 415 214 443 214 524 C214 567 192 606 152 617 C182 633 199 667 199 703 C199 758 160 791 110 791 C87 791 57 781 36 766 L48 725 C63 734 80 742 102 742 C129 742 144 724 144 695 C144 654 123 636 79 630 L79 591 C131 587 157 575 157 524 C157 484 134 466 98 466 C74 466 50 473 31 480 L21 431 C36 424 61 415 103 415 L103 415 Z " />
<glyph glyph-name="acute" unicode="&#xb4;" horiz-adv-x="391" d="M296 742 L252 797 L106 662 L142 618 L296 742 Z " />
<glyph glyph-name="mu" unicode="&#xb5;" horiz-adv-x="461" d="M56 -220 L132 -220 L132 10 C147 -3 167 -12 193 -12 C242 -12 288 26 314 66 C319 55 337 -6 432 -6 L437 51 C409 55 385 67 385 103 L385 546 L309 546 L309 124 C291 106 240 61 200 61 C138 61 132 110 132 198 L132 546 L56 546 L56 -220 Z " />
<glyph glyph-name="paragraph" unicode="&#xb6;" horiz-adv-x="439" d="M252 270 L252 707 L197 707 C79 707 23 634 23 490 C23 331 93 270 209 270 L252 270 Z M383 -17 L383 707 L307 707 L307 -23 C307 -97 292 -147 242 -147 C229 -147 202 -143 190 -139 L178 -207 C201 -215 220 -220 241 -220 C331 -220 383 -167 383 -17 L383 -17 Z " />
<glyph glyph-name="periodcentered" unicode="&#xb7;" horiz-adv-x="162" d="M135 355 L81 408 L28 355 L81 301 L135 355 Z " />
<glyph glyph-name="cedilla" unicode="&#xb8;" horiz-adv-x="329" d="M227 -127 C227 -105 219 -78 205 -53 L135 -53 C149 -82 158 -103 158 -122 C158 -144 133 -170 92 -193 L122 -248 C182 -219 227 -177 227 -127 L227 -127 Z " />
<glyph glyph-name="onesuperior" unicode="&#xb9;" horiz-adv-x="193" d="M83 420 L140 420 L140 789 L20 785 L20 734 L83 734 L83 420 Z " />
<glyph glyph-name="ordmasculine" unicode="&#xba;" horiz-adv-x="316" d="M272 549 C272 652 236 717 158 717 C87 717 45 651 45 547 C45 448 81 382 155 382 C222 382 272 442 272 549 L272 549 Z M272 300 L272 356 L44 356 L44 300 L272 300 Z M210 549 C210 487 197 437 158 437 C117 437 105 485 105 548 C105 608 118 663 158 663 C197 663 210 607 210 549 L210 549 Z " />
<glyph glyph-name="guillemotright" unicode="&#xbb;" horiz-adv-x="364" d="M337 272 L237 491 L178 465 L260 272 L178 75 L238 53 L337 272 Z M192 272 L92 491 L33 465 L115 272 L33 75 L92 53 L192 272 Z " />
<glyph glyph-name="onequarter" unicode="&#xbc;" horiz-adv-x="602" d="M89 410 L146 410 L146 779 L26 775 L26 724 L89 724 L89 410 Z M514 613 L477 646 L33 88 L72 57 L514 613 Z M474 0 L529 0 L529 88 L576 88 L576 137 L529 137 L529 366 L451 366 L350 142 L350 88 L474 88 L474 0 Z M393 137 L474 313 L474 137 L393 137 Z " />
<glyph glyph-name="onehalf" unicode="&#xbd;" horiz-adv-x="606" d="M89 410 L146 410 L146 779 L26 775 L26 724 L89 724 L89 410 Z M370 0 L571 0 L571 53 L433 53 C493 103 568 166 568 261 C568 332 525 371 474 371 C438 371 401 352 379 322 L401 282 C417 303 443 316 469 316 C495 316 512 295 512 255 C512 179 447 123 370 49 L370 0 Z M514 613 L477 646 L33 88 L72 57 L514 613 Z " />
<glyph glyph-name="threequarters" unicode="&#xbe;" horiz-adv-x="619" d="M108 410 C163 410 219 438 219 519 C219 562 197 601 157 612 C187 628 204 662 204 698 C204 753 165 786 115 786 C92 786 62 776 41 761 L53 720 C68 729 85 737 107 737 C134 737 149 719 149 690 C149 649 128 631 84 625 L84 586 C136 582 162 570 162 519 C162 479 139 461 103 461 C79 461 55 468 36 475 L26 426 C41 419 66 410 108 410 L108 410 Z M531 613 L494 646 L50 88 L89 57 L531 613 Z M491 0 L546 0 L546 88 L593 88 L593 137 L546 137 L546 366 L468 366 L367 142 L367 88 L491 88 L491 0 Z M410 137 L491 313 L491 137 L410 137 Z " />
<glyph glyph-name="questiondown" unicode="&#xbf;" horiz-adv-x="271" d="M150 361 C158 344 164 322 164 301 C164 210 23 160 23 39 C23 -92 131 -150 235 -164 L247 -92 C157 -75 100 -34 100 48 C100 131 236 172 236 299 C236 326 227 352 217 377 L150 361 Z M223 546 L139 546 L139 455 L223 455 L223 546 Z " />
<glyph glyph-name="Agrave" unicode="&#xc0;" horiz-adv-x="490" d="M305 745 L325 793 L158 875 L132 809 L305 745 Z M484 0 L299 707 L201 707 L-2 0 L77 0 L152 264 L333 264 L400 0 L484 0 Z M317 333 L169 333 L232 565 L245 633 L249 633 L261 565 L317 333 Z " />
<glyph glyph-name="Aacute" unicode="&#xc1;" horiz-adv-x="490" d="M484 0 L299 707 L201 707 L-2 0 L77 0 L152 264 L333 264 L400 0 L484 0 Z M317 333 L169 333 L232 565 L245 633 L249 633 L261 565 L317 333 Z M363 809 L338 875 L171 793 L191 745 L363 809 Z " />
<glyph glyph-name="Acircumflex" unicode="&#xc2;" horiz-adv-x="490" d="M484 0 L299 707 L201 707 L-2 0 L77 0 L152 264 L333 264 L400 0 L484 0 Z M317 333 L169 333 L232 565 L245 633 L249 633 L261 565 L317 333 Z M248 870 L103 781 L131 735 L247 799 L364 736 L392 781 L248 870 Z " />
<glyph glyph-name="Atilde" unicode="&#xc3;" horiz-adv-x="490" d="M484 0 L299 707 L201 707 L-2 0 L77 0 L152 264 L333 264 L400 0 L484 0 Z M317 333 L169 333 L232 565 L245 633 L249 633 L261 565 L317 333 Z M387 807 L355 846 C345 838 331 823 304 823 C274 823 246 844 205 844 C164 844 139 828 114 803 L143 765 C162 779 174 784 197 784 C235 784 268 763 309 763 C350 763 373 788 387 807 L387 807 Z " />
<glyph glyph-name="Adieresis" unicode="&#xc4;" horiz-adv-x="490" d="M484 0 L299 707 L201 707 L-2 0 L77 0 L152 264 L333 264 L400 0 L484 0 Z M317 333 L169 333 L232 565 L245 633 L249 633 L261 565 L317 333 Z M373 807 L320 859 L268 807 L320 753 L373 807 Z M223 807 L171 859 L119 807 L171 753 L223 807 Z " />
<glyph glyph-name="Aring" unicode="&#xc5;" horiz-adv-x="490" d="M484 0 L299 707 L201 707 L-2 0 L77 0 L152 264 L333 264 L400 0 L484 0 Z M317 333 L169 333 L232 565 L245 633 L249 633 L261 565 L317 333 Z M340 815 C340 877 288 901 248 901 C201 901 156 869 156 813 C156 756 201 731 250 731 C300 731 340 763 340 815 L340 815 Z M295 814 C295 789 275 770 249 770 C223 770 202 790 202 816 C202 843 221 860 248 860 C272 860 295 841 295 814 L295 814 Z " />
<glyph glyph-name="AE" unicode="&#xc6;" horiz-adv-x="666" d="M631 0 L631 71 L393 71 L393 321 L599 321 L599 389 L393 389 L393 638 L615 638 L615 707 L221 707 L-15 0 L63 0 L152 264 L315 264 L315 0 L631 0 Z M315 333 L172 333 L271 640 L315 640 L315 333 Z " />
<glyph glyph-name="Ccedilla" unicode="&#xc7;" horiz-adv-x="489" d="M464 23 L449 88 C412 71 366 60 320 60 C209 60 118 156 118 359 C118 566 216 646 317 646 C356 646 397 638 445 608 L463 677 C425 704 376 717 315 717 C150 717 38 581 38 349 C38 141 133 -12 307 -12 C385 -12 436 8 464 23 L464 23 Z M338 -127 C338 -105 330 -78 316 -53 L246 -53 C260 -82 269 -103 269 -122 C269 -144 244 -170 203 -193 L233 -248 C293 -219 338 -177 338 -127 L338 -127 Z " />
<glyph glyph-name="Egrave" unicode="&#xc8;" horiz-adv-x="423" d="M297 745 L317 793 L150 875 L124 809 L297 745 Z M388 0 L388 71 L149 71 L149 321 L356 321 L356 389 L149 389 L149 638 L372 638 L372 707 L71 707 L71 0 L388 0 Z " />
<glyph glyph-name="Eacute" unicode="&#xc9;" horiz-adv-x="423" d="M328 809 L303 875 L136 793 L156 745 L328 809 Z M388 0 L388 71 L149 71 L149 321 L356 321 L356 389 L149 389 L149 638 L372 638 L372 707 L71 707 L71 0 L388 0 Z " />
<glyph glyph-name="Ecircumflex" unicode="&#xca;" horiz-adv-x="423" d="M388 0 L388 71 L149 71 L149 321 L356 321 L356 389 L149 389 L149 638 L372 638 L372 707 L71 707 L71 0 L388 0 Z M222 870 L77 781 L105 735 L221 799 L338 736 L366 781 L222 870 Z " />
<glyph glyph-name="Edieresis" unicode="&#xcb;" horiz-adv-x="423" d="M349 807 L296 859 L244 807 L296 753 L349 807 Z M199 807 L147 859 L95 807 L147 753 L199 807 Z M388 0 L388 71 L149 71 L149 321 L356 321 L356 389 L149 389 L149 638 L372 638 L372 707 L71 707 L71 0 L388 0 Z " />
<glyph glyph-name="Igrave" unicode="&#xcc;" horiz-adv-x="220" d="M154 745 L174 793 L7 875 L-19 809 L154 745 Z M149 0 L149 707 L71 707 L71 0 L149 0 Z " />
<glyph glyph-name="Iacute" unicode="&#xcd;" horiz-adv-x="220" d="M149 0 L149 707 L71 707 L71 0 L149 0 Z M233 809 L208 875 L41 793 L61 745 L233 809 Z " />
<glyph glyph-name="Icircumflex" unicode="&#xce;" horiz-adv-x="220" d="M149 0 L149 707 L71 707 L71 0 L149 0 Z M110 870 L-35 781 L-7 735 L109 799 L226 736 L254 781 L110 870 Z " />
<glyph glyph-name="Idieresis" unicode="&#xcf;" horiz-adv-x="220" d="M149 0 L149 707 L71 707 L71 0 L149 0 Z M237 807 L184 859 L132 807 L184 753 L237 807 Z M87 807 L35 859 L-17 807 L35 753 L87 807 Z " />
<glyph glyph-name="Eth" unicode="&#xd0;" horiz-adv-x="562" d="M524 356 C524 584 403 707 235 707 L91 707 L91 382 L29 382 L29 321 L91 321 L91 0 L239 0 C413 0 524 111 524 356 L524 356 Z M446 345 C446 163 370 71 247 71 L168 71 L168 321 L296 321 L296 382 L168 382 L168 636 L233 636 C361 636 446 543 446 345 L446 345 Z " />
<glyph glyph-name="Ntilde" unicode="&#xd1;" horiz-adv-x="559" d="M418 807 L386 846 C376 838 362 823 335 823 C305 823 277 844 236 844 C195 844 170 828 145 803 L174 765 C193 779 205 784 228 784 C266 784 299 763 340 763 C381 763 404 788 418 807 L418 807 Z M488 0 L488 707 L410 707 L410 253 L417 135 L413 135 L162 707 L71 707 L71 0 L149 0 L149 450 L142 563 L146 563 L395 0 L488 0 Z " />
<glyph glyph-name="Ograve" unicode="&#xd2;" horiz-adv-x="602" d="M366 745 L386 793 L219 875 L193 809 L366 745 Z M562 353 C562 557 479 717 307 717 C146 717 39 577 39 353 C39 135 129 -12 294 -12 C463 -12 562 136 562 353 L562 353 Z M481 352 C481 184 422 58 298 58 C180 58 120 190 120 357 C120 524 180 649 300 649 C415 649 481 527 481 352 L481 352 Z " />
<glyph glyph-name="Oacute" unicode="&#xd3;" horiz-adv-x="602" d="M423 809 L398 875 L231 793 L251 745 L423 809 Z M562 353 C562 557 479 717 307 717 C146 717 39 577 39 353 C39 135 129 -12 294 -12 C463 -12 562 136 562 353 L562 353 Z M481 352 C481 184 422 58 298 58 C180 58 120 190 120 357 C120 524 180 649 300 649 C415 649 481 527 481 352 L481 352 Z " />
<glyph glyph-name="Ocircumflex" unicode="&#xd4;" horiz-adv-x="602" d="M562 353 C562 557 479 717 307 717 C146 717 39 577 39 353 C39 135 129 -12 294 -12 C463 -12 562 136 562 353 L562 353 Z M481 352 C481 184 422 58 298 58 C180 58 120 190 120 357 C120 524 180 649 300 649 C415 649 481 527 481 352 L481 352 Z M300 870 L155 781 L183 735 L299 799 L416 736 L444 781 L300 870 Z " />
<glyph glyph-name="Otilde" unicode="&#xd5;" horiz-adv-x="602" d="M438 807 L406 846 C396 838 382 823 355 823 C325 823 297 844 256 844 C215 844 190 828 165 803 L194 765 C213 779 225 784 248 784 C286 784 319 763 360 763 C401 763 424 788 438 807 L438 807 Z M562 353 C562 557 479 717 307 717 C146 717 39 577 39 353 C39 135 129 -12 294 -12 C463 -12 562 136 562 353 L562 353 Z M481 352 C481 184 422 58 298 58 C180 58 120 190 120 357 C120 524 180 649 300 649 C415 649 481 527 481 352 L481 352 Z " />
<glyph glyph-name="Odieresis" unicode="&#xd6;" horiz-adv-x="602" d="M428 807 L375 859 L323 807 L375 753 L428 807 Z M278 807 L226 859 L174 807 L226 753 L278 807 Z M562 353 C562 557 479 717 307 717 C146 717 39 577 39 353 C39 135 129 -12 294 -12 C463 -12 562 136 562 353 L562 353 Z M481 352 C481 184 422 58 298 58 C180 58 120 190 120 357 C120 524 180 649 300 649 C415 649 481 527 481 352 L481 352 Z " />
<glyph glyph-name="multiply" unicode="&#xd7;" horiz-adv-x="385" d="M350 180 L243 287 L349 392 L299 442 L193 337 L87 442 L37 393 L144 287 L34 178 L85 129 L194 238 L301 131 L350 180 Z " />
<glyph glyph-name="Oslash" unicode="&#xd8;" horiz-adv-x="623" d="M573 353 C573 451 553 539 514 604 L572 687 L530 718 L481 648 C441 691 386 717 318 717 C157 717 50 577 50 353 C50 253 69 168 106 105 L47 20 L88 -12 L138 60 C179 14 235 -12 305 -12 C474 -12 573 136 573 353 L573 353 Z M492 352 C492 184 433 58 309 58 C256 58 215 84 185 129 L462 529 C481 481 492 420 492 352 L492 352 Z M131 357 C131 524 191 649 311 649 C362 649 404 624 435 581 L159 181 C140 230 131 291 131 357 L131 357 Z " />
<glyph glyph-name="Ugrave" unicode="&#xd9;" horiz-adv-x="558" d="M351 745 L371 793 L204 875 L178 809 L351 745 Z M489 270 L489 707 L414 707 L414 266 C414 105 350 59 281 59 C214 59 148 97 148 243 L148 707 L68 707 L68 244 C68 39 177 -13 281 -13 C377 -13 489 44 489 270 L489 270 Z " />
<glyph glyph-name="Uacute" unicode="&#xda;" horiz-adv-x="558" d="M404 809 L379 875 L212 793 L232 745 L404 809 Z M489 270 L489 707 L414 707 L414 266 C414 105 350 59 281 59 C214 59 148 97 148 243 L148 707 L68 707 L68 244 C68 39 177 -13 281 -13 C377 -13 489 44 489 270 L489 270 Z " />
<glyph glyph-name="Ucircumflex" unicode="&#xdb;" horiz-adv-x="558" d="M489 270 L489 707 L414 707 L414 266 C414 105 350 59 281 59 C214 59 148 97 148 243 L148 707 L68 707 L68 244 C68 39 177 -13 281 -13 C377 -13 489 44 489 270 L489 270 Z M282 870 L137 781 L165 735 L281 799 L398 736 L426 781 L282 870 Z " />
<glyph glyph-name="Udieresis" unicode="&#xdc;" horiz-adv-x="558" d="M406 807 L353 859 L301 807 L353 753 L406 807 Z M256 807 L204 859 L152 807 L204 753 L256 807 Z M489 270 L489 707 L414 707 L414 266 C414 105 350 59 281 59 C214 59 148 97 148 243 L148 707 L68 707 L68 244 C68 39 177 -13 281 -13 C377 -13 489 44 489 270 L489 270 Z " />
<glyph glyph-name="Yacute" unicode="&#xdd;" horiz-adv-x="434" d="M434 707 L349 707 L248 443 L219 352 L215 352 L188 444 L95 707 L7 707 L176 269 L176 0 L255 0 L255 268 L434 707 Z M344 809 L319 875 L152 793 L172 745 L344 809 Z " />
<glyph glyph-name="Thorn" unicode="&#xde;" horiz-adv-x="438" d="M199 126 C344 126 417 228 417 354 C417 497 343 579 226 579 L149 579 L149 707 L71 707 L71 0 L149 0 L149 508 L219 508 C290 508 335 453 335 350 C335 245 276 199 203 199 L183 199 L183 126 L199 126 Z " />
<glyph glyph-name="germandbls" unicode="&#xdf;" horiz-adv-x="429" d="M415 137 C415 267 263 284 263 399 C263 471 340 519 340 614 C340 745 258 771 204 771 C111 771 56 714 56 564 L56 -220 L132 -220 L132 573 C132 654 145 701 205 701 C238 701 263 675 263 620 C263 534 187 488 187 397 C187 237 338 229 338 132 C338 84 316 59 274 59 C245 59 211 69 183 80 L167 16 C186 6 229 -11 282 -11 C344 -11 415 31 415 137 L415 137 Z " />
<glyph glyph-name="agrave" unicode="&#xe0;" horiz-adv-x="406" d="M392 59 C362 63 342 72 342 107 L342 409 C342 515 283 559 198 559 C152 559 96 548 59 523 L71 459 C104 474 145 486 186 486 C242 486 267 464 267 394 L267 312 L201 309 C105 305 27 259 27 144 C27 61 68 -8 158 -8 C210 -8 245 16 276 58 C287 6 340 -3 370 -5 C374 -5 380 -6 387 -6 L392 59 Z M267 112 C239 83 210 58 171 58 C118 58 99 102 99 152 C99 232 149 248 205 251 L267 254 L267 112 Z M276 661 L129 794 L85 739 L241 615 L276 661 Z " />
<glyph glyph-name="aacute" unicode="&#xe1;" horiz-adv-x="406" d="M392 59 C362 63 342 72 342 107 L342 409 C342 515 283 559 198 559 C152 559 96 548 59 523 L71 459 C104 474 145 486 186 486 C242 486 267 464 267 394 L267 312 L201 309 C105 305 27 259 27 144 C27 61 68 -8 158 -8 C210 -8 245 16 276 58 C287 6 340 -3 370 -5 C374 -5 380 -6 387 -6 L392 59 Z M267 112 C239 83 210 58 171 58 C118 58 99 102 99 152 C99 232 149 248 205 251 L267 254 L267 112 Z M313 742 L269 797 L123 662 L159 618 L313 742 Z " />
<glyph glyph-name="acircumflex" unicode="&#xe2;" horiz-adv-x="406" d="M392 59 C362 63 342 72 342 107 L342 409 C342 515 283 559 198 559 C152 559 96 548 59 523 L71 459 C104 474 145 486 186 486 C242 486 267 464 267 394 L267 312 L201 309 C105 305 27 259 27 144 C27 61 68 -8 158 -8 C210 -8 245 16 276 58 C287 6 340 -3 370 -5 C374 -5 380 -6 387 -6 L392 59 Z M267 112 C239 83 210 58 171 58 C118 58 99 102 99 152 C99 232 149 248 205 251 L267 254 L267 112 Z M336 676 L196 787 L55 676 L89 633 L197 712 L304 631 L336 676 Z " />
<glyph glyph-name="atilde" unicode="&#xe3;" horiz-adv-x="406" d="M392 59 C362 63 342 72 342 107 L342 409 C342 515 283 559 198 559 C152 559 96 548 59 523 L71 459 C104 474 145 486 186 486 C242 486 267 464 267 394 L267 312 L201 309 C105 305 27 259 27 144 C27 61 68 -8 158 -8 C210 -8 245 16 276 58 C287 6 340 -3 370 -5 C374 -5 380 -6 387 -6 L392 59 Z M267 112 C239 83 210 58 171 58 C118 58 99 102 99 152 C99 232 149 248 205 251 L267 254 L267 112 Z M344 711 L312 749 C301 741 288 727 257 727 C229 727 203 751 162 751 C120 751 93 733 68 708 L97 668 C118 683 129 688 154 688 C188 688 221 663 260 663 C305 663 328 690 344 711 L344 711 Z " />
<glyph glyph-name="adieresis" unicode="&#xe4;" horiz-adv-x="406" d="M392 59 C362 63 342 72 342 107 L342 409 C342 515 283 559 198 559 C152 559 96 548 59 523 L71 459 C104 474 145 486 186 486 C242 486 267 464 267 394 L267 312 L201 309 C105 305 27 259 27 144 C27 61 68 -8 158 -8 C210 -8 245 16 276 58 C287 6 340 -3 370 -5 C374 -5 380 -6 387 -6 L392 59 Z M267 112 C239 83 210 58 171 58 C118 58 99 102 99 152 C99 232 149 248 205 251 L267 254 L267 112 Z M328 710 L275 762 L222 710 L275 656 L328 710 Z M177 710 L125 762 L72 710 L125 656 L177 710 Z " />
<glyph glyph-name="aring" unicode="&#xe5;" horiz-adv-x="406" d="M392 59 C362 63 342 72 342 107 L342 409 C342 515 283 559 198 559 C152 559 96 548 59 523 L71 459 C104 474 145 486 186 486 C242 486 267 464 267 394 L267 312 L201 309 C105 305 27 259 27 144 C27 61 68 -8 158 -8 C210 -8 245 16 276 58 C287 6 340 -3 370 -5 C374 -5 380 -6 387 -6 L392 59 Z M267 112 C239 83 210 58 171 58 C118 58 99 102 99 152 C99 232 149 248 205 251 L267 254 L267 112 Z M300 701 C300 763 247 788 206 788 C158 788 113 756 113 699 C113 641 159 615 208 615 C259 615 300 647 300 701 L300 701 Z M254 700 C254 674 234 655 207 655 C180 655 160 675 160 702 C160 728 179 746 206 746 C231 746 254 726 254 700 L254 700 Z " />
<glyph glyph-name="ae" unicode="&#xe6;" horiz-adv-x="629" d="M597 269 L597 298 C597 472 552 559 447 559 C398 559 354 536 322 482 C304 534 260 559 193 559 C154 559 95 546 60 523 L72 458 C105 471 146 486 177 486 C249 486 267 464 267 394 L267 313 L202 311 C110 308 27 258 27 151 C27 72 61 -8 150 -8 C225 -8 283 51 304 78 C338 18 391 -9 457 -9 C520 -9 570 6 590 18 L577 85 C549 75 501 64 474 64 C392 64 340 102 340 256 L597 269 Z M517 328 L341 315 C349 424 382 494 437 494 C493 494 517 430 517 328 L517 328 Z M283 130 C257 106 207 60 163 60 C109 60 100 114 100 157 C100 256 196 250 267 254 C268 227 269 201 273 176 C275 162 279 144 283 130 L283 130 Z " />
<glyph glyph-name="ccedilla" unicode="&#xe7;" horiz-adv-x="362" d="M340 12 L331 77 C299 67 274 61 244 61 C144 61 109 137 109 265 C109 415 156 490 236 490 C270 490 299 476 322 461 L343 526 C315 547 272 558 232 558 C109 558 33 453 33 260 C33 79 100 -9 235 -9 C283 -9 316 3 340 12 L340 12 Z M261 -127 C261 -105 253 -78 239 -53 L169 -53 C183 -82 192 -103 192 -122 C192 -144 167 -170 126 -193 L156 -248 C216 -219 261 -177 261 -127 L261 -127 Z " />
<glyph glyph-name="egrave" unicode="&#xe8;" horiz-adv-x="399" d="M367 256 L367 287 C367 461 319 559 211 559 C111 559 35 477 35 264 C35 57 107 -9 232 -9 C289 -9 342 6 361 18 L348 83 C318 73 277 61 241 61 C165 61 111 102 111 256 L367 256 Z M288 320 L112 320 C119 429 153 494 207 494 C263 494 288 423 288 320 L288 320 Z M301 661 L154 794 L110 739 L266 615 L301 661 Z " />
<glyph glyph-name="eacute" unicode="&#xe9;" horiz-adv-x="399" d="M324 742 L280 797 L134 662 L170 618 L324 742 Z M367 256 L367 287 C367 461 319 559 211 559 C111 559 35 477 35 264 C35 57 107 -9 232 -9 C289 -9 342 6 361 18 L348 83 C318 73 277 61 241 61 C165 61 111 102 111 256 L367 256 Z M288 320 L112 320 C119 429 153 494 207 494 C263 494 288 423 288 320 L288 320 Z " />
<glyph glyph-name="ecircumflex" unicode="&#xea;" horiz-adv-x="399" d="M347 676 L207 787 L66 676 L100 633 L208 712 L315 631 L347 676 Z M367 256 L367 287 C367 461 319 559 211 559 C111 559 35 477 35 264 C35 57 107 -9 232 -9 C289 -9 342 6 361 18 L348 83 C318 73 277 61 241 61 C165 61 111 102 111 256 L367 256 Z M288 320 L112 320 C119 429 153 494 207 494 C263 494 288 423 288 320 L288 320 Z " />
<glyph glyph-name="edieresis" unicode="&#xeb;" horiz-adv-x="399" d="M334 711 L281 763 L228 711 L281 657 L334 711 Z M183 711 L131 763 L78 711 L131 657 L183 711 Z M367 256 L367 287 C367 461 319 559 211 559 C111 559 35 477 35 264 C35 57 107 -9 232 -9 C289 -9 342 6 361 18 L348 83 C318 73 277 61 241 61 C165 61 111 102 111 256 L367 256 Z M288 320 L112 320 C119 429 153 494 207 494 C263 494 288 423 288 320 L288 320 Z " />
<glyph glyph-name="igrave" unicode="&#xec;" horiz-adv-x="188" d="M132 0 L132 546 L56 546 L56 0 L132 0 Z M163 661 L16 794 L-28 739 L128 615 L163 661 Z " />
<glyph glyph-name="iacute" unicode="&#xed;" horiz-adv-x="188" d="M215 742 L171 797 L25 662 L61 618 L215 742 Z M132 0 L132 546 L56 546 L56 0 L132 0 Z " />
<glyph glyph-name="icircumflex" unicode="&#xee;" horiz-adv-x="188" d="M235 676 L95 787 L-46 676 L-12 633 L96 712 L203 631 L235 676 Z M132 0 L132 546 L56 546 L56 0 L132 0 Z " />
<glyph glyph-name="idieresis" unicode="&#xef;" horiz-adv-x="188" d="M224 711 L171 763 L118 711 L171 657 L224 711 Z M73 711 L21 763 L-32 711 L21 657 L73 711 Z M132 0 L132 546 L56 546 L56 0 L132 0 Z " />
<glyph glyph-name="eth" unicode="&#xf0;" horiz-adv-x="454" d="M414 284 C414 442 371 566 329 649 L391 669 L370 718 L303 696 C274 745 250 771 250 771 L195 731 C195 731 212 707 231 672 L168 652 L186 601 L258 624 C272 596 287 561 295 531 C288 538 273 562 227 562 C107 562 33 450 33 269 C33 93 102 -9 222 -9 C345 -9 414 97 414 284 L414 284 Z M336 270 C336 155 311 58 226 58 C141 58 111 152 111 271 C111 381 138 493 224 493 C309 493 336 386 336 270 L336 270 Z " />
<glyph glyph-name="ntilde" unicode="&#xf1;" horiz-adv-x="440" d="M387 0 L387 355 C387 468 365 558 266 558 C206 558 163 525 132 486 L132 546 L56 546 L56 0 L132 0 L132 423 C168 455 201 483 244 483 C303 483 311 430 311 345 L311 0 L387 0 Z M359 711 L327 749 C316 741 303 727 272 727 C244 727 218 751 177 751 C135 751 108 733 83 708 L112 668 C133 683 144 688 169 688 C203 688 236 663 275 663 C320 663 343 690 359 711 L359 711 Z " />
<glyph glyph-name="ograve" unicode="&#xf2;" horiz-adv-x="435" d="M401 277 C401 449 342 559 223 559 C106 559 33 451 33 268 C33 93 98 -13 214 -13 C325 -13 401 83 401 277 L401 277 Z M326 271 C326 167 302 55 219 55 C137 55 109 162 109 270 C109 374 134 493 219 493 C303 493 326 372 326 271 L326 271 Z M314 661 L167 794 L123 739 L279 615 L314 661 Z " />
<glyph glyph-name="oacute" unicode="&#xf3;" horiz-adv-x="435" d="M337 742 L293 797 L147 662 L183 618 L337 742 Z M401 277 C401 449 342 559 223 559 C106 559 33 451 33 268 C33 93 98 -13 214 -13 C325 -13 401 83 401 277 L401 277 Z M326 271 C326 167 302 55 219 55 C137 55 109 162 109 270 C109 374 134 493 219 493 C303 493 326 372 326 271 L326 271 Z " />
<glyph glyph-name="ocircumflex" unicode="&#xf4;" horiz-adv-x="435" d="M358 676 L218 787 L77 676 L111 633 L219 712 L326 631 L358 676 Z M401 277 C401 449 342 559 223 559 C106 559 33 451 33 268 C33 93 98 -13 214 -13 C325 -13 401 83 401 277 L401 277 Z M326 271 C326 167 302 55 219 55 C137 55 109 162 109 270 C109 374 134 493 219 493 C303 493 326 372 326 271 L326 271 Z " />
<glyph glyph-name="otilde" unicode="&#xf5;" horiz-adv-x="435" d="M401 277 C401 449 342 559 223 559 C106 559 33 451 33 268 C33 93 98 -13 214 -13 C325 -13 401 83 401 277 L401 277 Z M326 271 C326 167 302 55 219 55 C137 55 109 162 109 270 C109 374 134 493 219 493 C303 493 326 372 326 271 L326 271 Z M358 711 L326 749 C315 741 302 727 271 727 C243 727 217 751 176 751 C134 751 107 733 82 708 L111 668 C132 683 143 688 168 688 C202 688 235 663 274 663 C319 663 342 690 358 711 L358 711 Z " />
<glyph glyph-name="odieresis" unicode="&#xf6;" horiz-adv-x="435" d="M346 715 L293 767 L240 715 L293 661 L346 715 Z M195 715 L143 767 L90 715 L143 661 L195 715 Z M401 277 C401 449 342 559 223 559 C106 559 33 451 33 268 C33 93 98 -13 214 -13 C325 -13 401 83 401 277 L401 277 Z M326 271 C326 167 302 55 219 55 C137 55 109 162 109 270 C109 374 134 493 219 493 C303 493 326 372 326 271 L326 271 Z " />
<glyph glyph-name="divide" unicode="&#xf7;" horiz-adv-x="362" d="M222 395 L222 482 L140 482 L140 395 L222 395 Z M328 252 L328 323 L34 323 L34 252 L328 252 Z M222 95 L222 181 L140 181 L140 95 L222 95 Z " />
<glyph glyph-name="oslash" unicode="&#xf8;" horiz-adv-x="458" d="M413 277 C413 351 402 413 380 460 L433 540 L395 565 L354 503 C325 539 285 559 235 559 C118 559 45 451 45 268 C45 195 56 134 78 87 L23 5 L62 -19 L104 44 C134 7 175 -13 226 -13 C337 -13 413 83 413 277 L413 277 Z M338 271 C338 167 314 55 231 55 C193 55 167 77 149 112 L327 381 C335 346 338 307 338 271 L338 271 Z M121 270 C121 374 146 493 231 493 C267 493 293 470 309 436 L131 167 C124 199 121 234 121 270 L121 270 Z " />
<glyph glyph-name="ugrave" unicode="&#xf9;" horiz-adv-x="440" d="M385 0 L385 546 L308 546 L308 124 C286 101 241 61 194 61 C137 61 129 118 129 199 L129 546 L54 546 L54 194 C54 113 60 -11 175 -11 C240 -11 280 28 308 63 L308 0 L385 0 Z M297 661 L150 794 L106 739 L262 615 L297 661 Z " />
<glyph glyph-name="uacute" unicode="&#xfa;" horiz-adv-x="440" d="M339 742 L295 797 L149 662 L185 618 L339 742 Z M385 0 L385 546 L308 546 L308 124 C286 101 241 61 194 61 C137 61 129 118 129 199 L129 546 L54 546 L54 194 C54 113 60 -11 175 -11 C240 -11 280 28 308 63 L308 0 L385 0 Z " />
<glyph glyph-name="ucircumflex" unicode="&#xfb;" horiz-adv-x="440" d="M358 676 L218 787 L77 676 L111 633 L219 712 L326 631 L358 676 Z M385 0 L385 546 L308 546 L308 124 C286 101 241 61 194 61 C137 61 129 118 129 199 L129 546 L54 546 L54 194 C54 113 60 -11 175 -11 C240 -11 280 28 308 63 L308 0 L385 0 Z " />
<glyph glyph-name="udieresis" unicode="&#xfc;" horiz-adv-x="440" d="M346 711 L293 763 L240 711 L293 657 L346 711 Z M195 711 L143 763 L90 711 L143 657 L195 711 Z M385 0 L385 546 L308 546 L308 124 C286 101 241 61 194 61 C137 61 129 118 129 199 L129 546 L54 546 L54 194 C54 113 60 -11 175 -11 C240 -11 280 28 308 63 L308 0 L385 0 Z " />
<glyph glyph-name="yacute" unicode="&#xfd;" horiz-adv-x="379" d="M376 546 L298 546 L203 157 L190 71 L185 71 L174 158 L89 546 L8 546 L138 0 L159 0 L106 -220 L181 -220 L376 546 Z M309 742 L265 797 L119 662 L155 618 L309 742 Z " />
<glyph glyph-name="thorn" unicode="&#xfe;" horiz-adv-x="431" d="M398 286 C398 452 337 555 239 555 C176 555 133 502 133 502 L133 754 L57 754 L57 -220 L133 -220 L133 -2 C135 -2 169 -8 201 -8 C305 -8 398 60 398 286 L398 286 Z M321 267 C321 148 278 62 203 62 C165 62 145 66 133 69 L133 439 C147 451 187 482 218 482 C301 482 321 380 321 267 L321 267 Z " />
<glyph glyph-name="ydieresis" unicode="&#xff;" horiz-adv-x="379" d="M376 546 L298 546 L203 157 L190 71 L185 71 L174 158 L89 546 L8 546 L138 0 L159 0 L106 -220 L181 -220 L376 546 Z M320 711 L267 763 L214 711 L267 657 L320 711 Z M169 711 L117 763 L64 711 L117 657 L169 711 Z " />
<glyph glyph-name="Amacron" unicode="&#x100;" horiz-adv-x="490" d="M484 0 L299 707 L201 707 L-2 0 L77 0 L152 264 L333 264 L400 0 L484 0 Z M317 333 L169 333 L232 565 L245 633 L249 633 L261 565 L317 333 Z M362 767 L362 827 L134 827 L134 767 L362 767 Z " />
<glyph glyph-name="amacron" unicode="&#x101;" horiz-adv-x="406" d="M392 59 C362 63 342 72 342 107 L342 409 C342 515 283 559 198 559 C152 559 96 548 59 523 L71 459 C104 474 145 486 186 486 C242 486 267 464 267 394 L267 312 L201 309 C105 305 27 259 27 144 C27 61 68 -8 158 -8 C210 -8 245 16 276 58 C287 6 340 -3 370 -5 C374 -5 380 -6 387 -6 L392 59 Z M267 112 C239 83 210 58 171 58 C118 58 99 102 99 152 C99 232 149 248 205 251 L267 254 L267 112 Z M318 669 L318 732 L90 732 L90 669 L318 669 Z " />
<glyph glyph-name="Abreve" unicode="&#x102;" horiz-adv-x="490" d="M484 0 L299 707 L201 707 L-2 0 L77 0 L152 264 L333 264 L400 0 L484 0 Z M317 333 L169 333 L232 565 L245 633 L249 633 L261 565 L317 333 Z M377 820 L338 856 C316 832 288 812 247 812 C209 812 179 836 157 858 L118 819 C142 786 186 749 246 749 C314 749 362 796 377 820 L377 820 Z " />
<glyph glyph-name="abreve" unicode="&#x103;" horiz-adv-x="406" d="M392 59 C362 63 342 72 342 107 L342 409 C342 515 283 559 198 559 C152 559 96 548 59 523 L71 459 C104 474 145 486 186 486 C242 486 267 464 267 394 L267 312 L201 309 C105 305 27 259 27 144 C27 61 68 -8 158 -8 C210 -8 245 16 276 58 C287 6 340 -3 370 -5 C374 -5 380 -6 387 -6 L392 59 Z M267 112 C239 83 210 58 171 58 C118 58 99 102 99 152 C99 232 149 248 205 251 L267 254 L267 112 Z M345 722 L306 759 C284 734 255 714 213 714 C173 714 142 738 120 762 L81 720 C105 687 150 649 212 649 C281 649 330 698 345 722 L345 722 Z " />
<glyph glyph-name="Aogonek" unicode="&#x104;" horiz-adv-x="490" d="M484 0 L299 707 L201 707 L-2 0 L77 0 L152 264 L333 264 L399 3 C353 -25 300 -70 300 -127 C300 -181 327 -225 410 -225 C449 -225 474 -216 487 -208 L472 -154 C459 -159 443 -162 431 -162 C393 -162 374 -148 374 -114 C374 -91 394 -67 416 -46 C437 -28 457 -15 484 0 L484 0 Z M317 333 L169 333 L232 565 L245 633 L249 633 L261 565 L317 333 Z " />
<glyph glyph-name="aogonek" unicode="&#x105;" horiz-adv-x="406" d="M392 59 C362 63 342 72 342 107 L342 409 C342 518 284 559 192 559 C153 559 94 546 59 523 L71 458 C104 471 145 486 177 486 C248 486 267 464 267 394 L267 312 L201 309 C109 305 27 257 27 150 C27 71 63 -8 152 -8 C205 -8 240 9 276 58 C277 54 283 25 312 8 C263 -20 207 -68 207 -127 C207 -181 234 -225 317 -225 C356 -225 381 -216 394 -208 L379 -154 C366 -159 350 -162 338 -162 C300 -162 281 -148 281 -114 C281 -69 352 -25 387 -6 L392 59 Z M267 114 C240 81 204 58 167 58 C114 58 99 109 99 158 C99 245 177 251 243 253 C249 253 262 254 267 254 L267 114 Z " />
<glyph glyph-name="Cacute" unicode="&#x106;" horiz-adv-x="489" d="M464 23 L449 88 C412 71 366 60 320 60 C209 60 118 156 118 359 C118 566 216 646 317 646 C356 646 397 638 445 608 L463 677 C425 704 376 717 315 717 C150 717 38 581 38 349 C38 141 133 -12 307 -12 C385 -12 436 8 464 23 L464 23 Z M425 809 L400 875 L233 793 L253 745 L425 809 Z " />
<glyph glyph-name="cacute" unicode="&#x107;" horiz-adv-x="362" d="M335 742 L291 797 L145 662 L181 618 L335 742 Z M340 12 L331 77 C299 67 274 61 244 61 C144 61 109 137 109 265 C109 415 156 490 236 490 C270 490 299 476 322 461 L343 526 C315 547 272 558 232 558 C109 558 33 453 33 260 C33 79 100 -9 235 -9 C283 -9 316 3 340 12 L340 12 Z " />
<glyph glyph-name="Ccircumflex" unicode="&#x108;" horiz-adv-x="489" d="M464 23 L449 88 C412 71 366 60 320 60 C209 60 118 156 118 359 C118 566 216 646 317 646 C356 646 397 638 445 608 L463 677 C425 704 376 717 315 717 C150 717 38 581 38 349 C38 141 133 -12 307 -12 C385 -12 436 8 464 23 L464 23 Z M301 870 L156 781 L184 735 L300 799 L417 736 L445 781 L301 870 Z " />
<glyph glyph-name="ccircumflex" unicode="&#x109;" horiz-adv-x="362" d="M358 676 L218 787 L77 676 L111 633 L219 712 L326 631 L358 676 Z M340 12 L331 77 C299 67 274 61 244 61 C144 61 109 137 109 265 C109 415 156 490 236 490 C270 490 299 476 322 461 L343 526 C315 547 272 558 232 558 C109 558 33 453 33 260 C33 79 100 -9 235 -9 C283 -9 316 3 340 12 L340 12 Z " />
<glyph glyph-name="Cdotaccent" unicode="&#x10a;" horiz-adv-x="489" d="M353 802 L300 854 L247 802 L300 748 L353 802 Z M464 23 L449 88 C412 71 366 60 320 60 C209 60 118 156 118 359 C118 566 216 646 317 646 C356 646 397 638 445 608 L463 677 C425 704 376 717 315 717 C150 717 38 581 38 349 C38 141 133 -12 307 -12 C385 -12 436 8 464 23 L464 23 Z " />
<glyph glyph-name="cdotaccent" unicode="&#x10b;" horiz-adv-x="362" d="M340 12 L331 77 C299 67 274 61 244 61 C144 61 109 137 109 265 C109 415 156 490 236 490 C270 490 299 476 322 461 L343 526 C315 547 272 558 232 558 C109 558 33 453 33 260 C33 79 100 -9 235 -9 C283 -9 316 3 340 12 L340 12 Z M276 715 L216 774 L158 715 L216 655 L276 715 Z " />
<glyph glyph-name="Ccaron" unicode="&#x10c;" horiz-adv-x="489" d="M446 824 L417 869 L300 806 L184 869 L157 823 L300 735 L446 824 Z M464 23 L449 88 C412 71 366 60 320 60 C209 60 118 156 118 359 C118 566 216 646 317 646 C356 646 397 638 445 608 L463 677 C425 704 376 717 315 717 C150 717 38 581 38 349 C38 141 133 -12 307 -12 C385 -12 436 8 464 23 L464 23 Z " />
<glyph glyph-name="ccaron" unicode="&#x10d;" horiz-adv-x="362" d="M366 735 L332 778 L224 700 L120 779 L84 733 L221 623 L366 735 Z M340 12 L331 77 C299 67 274 61 244 61 C144 61 109 137 109 265 C109 415 156 490 236 490 C270 490 299 476 322 461 L343 526 C315 547 272 558 232 558 C109 558 33 453 33 260 C33 79 100 -9 235 -9 C283 -9 316 3 340 12 L340 12 Z " />
<glyph glyph-name="Dcaron" unicode="&#x10e;" horiz-adv-x="542" d="M370 824 L341 869 L224 806 L108 869 L81 823 L224 735 L370 824 Z M504 356 C504 584 383 707 215 707 L71 707 L71 0 L219 0 C393 0 504 111 504 356 L504 356 Z M426 345 C426 163 350 71 227 71 L148 71 L148 636 L213 636 C341 636 426 543 426 345 L426 345 Z " />
<glyph glyph-name="dcaron" unicode="&#x10f;" horiz-adv-x="456" d="M490 754 L422 754 L410 569 L467 569 L490 754 Z M370 0 L370 754 L294 754 L294 545 C279 552 251 558 226 558 C114 558 34 465 34 264 C34 51 123 -8 189 -8 C238 -8 275 23 294 52 L294 0 L370 0 Z M294 116 C275 96 243 64 207 64 C153 64 110 128 110 272 C110 393 140 492 225 492 C251 492 280 483 294 475 L294 116 Z " />
<glyph glyph-name="Dcroat" unicode="&#x110;" horiz-adv-x="562" d="M524 356 C524 584 403 707 235 707 L91 707 L91 382 L29 382 L29 321 L91 321 L91 0 L239 0 C413 0 524 111 524 356 L524 356 Z M446 345 C446 163 370 71 247 71 L168 71 L168 321 L296 321 L296 382 L168 382 L168 636 L233 636 C361 636 446 543 446 345 L446 345 Z " />
<glyph glyph-name="dcroat" unicode="&#x111;" horiz-adv-x="426" d="M370 0 L370 617 L424 617 L424 676 L370 676 L370 754 L294 754 L294 676 L159 676 L159 617 L294 617 L294 547 C292 548 270 561 219 561 C117 561 34 460 34 271 C34 48 121 -8 192 -8 C236 -8 279 28 294 52 L294 0 L370 0 Z M294 116 C277 98 242 64 209 64 C153 64 110 127 110 270 C110 392 144 492 228 492 C263 492 292 478 294 477 L294 116 Z " />
<glyph glyph-name="Emacron" unicode="&#x112;" horiz-adv-x="423" d="M334 767 L334 827 L106 827 L106 767 L334 767 Z M388 0 L388 71 L149 71 L149 321 L356 321 L356 389 L149 389 L149 638 L372 638 L372 707 L71 707 L71 0 L388 0 Z " />
<glyph glyph-name="emacron" unicode="&#x113;" horiz-adv-x="399" d="M367 256 L367 287 C367 461 319 559 211 559 C111 559 35 477 35 264 C35 57 107 -9 232 -9 C289 -9 342 6 361 18 L348 83 C318 73 277 61 241 61 C165 61 111 102 111 256 L367 256 Z M288 320 L112 320 C119 429 153 494 207 494 C263 494 288 423 288 320 L288 320 Z M320 669 L320 732 L92 732 L92 669 L320 669 Z " />
<glyph glyph-name="Ebreve" unicode="&#x114;" horiz-adv-x="423" d="M355 820 L316 856 C294 832 266 812 225 812 C187 812 157 836 135 858 L96 819 C120 786 164 749 224 749 C292 749 340 796 355 820 L355 820 Z M388 0 L388 71 L149 71 L149 321 L356 321 L356 389 L149 389 L149 638 L372 638 L372 707 L71 707 L71 0 L388 0 Z " />
<glyph glyph-name="ebreve" unicode="&#x115;" horiz-adv-x="399" d="M367 256 L367 287 C367 461 319 559 211 559 C111 559 35 477 35 264 C35 57 107 -9 232 -9 C289 -9 342 6 361 18 L348 83 C318 73 277 61 241 61 C165 61 111 102 111 256 L367 256 Z M288 320 L112 320 C119 429 153 494 207 494 C263 494 288 423 288 320 L288 320 Z M341 722 L302 759 C280 734 251 714 209 714 C169 714 138 738 116 762 L77 720 C101 687 146 649 208 649 C277 649 326 698 341 722 L341 722 Z " />
<glyph glyph-name="Edotaccent" unicode="&#x116;" horiz-adv-x="423" d="M277 802 L224 854 L171 802 L224 748 L277 802 Z M388 0 L388 71 L149 71 L149 321 L356 321 L356 389 L149 389 L149 638 L372 638 L372 707 L71 707 L71 0 L388 0 Z " />
<glyph glyph-name="edotaccent" unicode="&#x117;" horiz-adv-x="399" d="M367 256 L367 287 C367 461 319 559 211 559 C111 559 35 477 35 264 C35 57 107 -9 232 -9 C289 -9 342 6 361 18 L348 83 C318 73 277 61 241 61 C165 61 111 102 111 256 L367 256 Z M288 320 L112 320 C119 429 153 494 207 494 C263 494 288 423 288 320 L288 320 Z M269 715 L209 774 L151 715 L209 655 L269 715 Z " />
<glyph glyph-name="Eogonek" unicode="&#x118;" horiz-adv-x="423" d="M388 0 L388 71 L149 71 L149 321 L356 321 L356 389 L149 389 L149 638 L372 638 L372 707 L71 707 L71 0 L290 0 C245 -29 199 -73 199 -126 C199 -180 227 -224 310 -224 C348 -224 373 -215 386 -207 L371 -153 C358 -158 343 -161 330 -161 C293 -161 274 -147 274 -113 C274 -64 361 -15 388 0 L388 0 Z " />
<glyph glyph-name="eogonek" unicode="&#x119;" horiz-adv-x="401" d="M368 256 L368 287 C368 461 323 559 218 559 C116 559 35 479 35 263 C35 61 106 -7 223 -9 L229 -9 C190 -38 155 -77 155 -126 C155 -180 182 -224 265 -224 C303 -224 329 -215 342 -207 L327 -153 C314 -158 298 -161 285 -161 C248 -161 229 -147 229 -113 C229 -57 335 4 361 18 L348 85 C320 75 272 64 245 64 C163 64 111 102 111 256 L368 256 Z M288 320 L112 320 C120 429 153 494 209 494 C264 494 288 422 288 320 L288 320 Z " />
<glyph glyph-name="Ecaron" unicode="&#x11a;" horiz-adv-x="423" d="M372 824 L343 869 L226 806 L110 869 L83 823 L226 735 L372 824 Z M388 0 L388 71 L149 71 L149 321 L356 321 L356 389 L149 389 L149 638 L372 638 L372 707 L71 707 L71 0 L388 0 Z " />
<glyph glyph-name="ecaron" unicode="&#x11b;" horiz-adv-x="399" d="M354 735 L320 778 L212 700 L108 779 L72 733 L209 623 L354 735 Z M367 256 L367 287 C367 461 319 559 211 559 C111 559 35 477 35 264 C35 57 107 -9 232 -9 C289 -9 342 6 361 18 L348 83 C318 73 277 61 241 61 C165 61 111 102 111 256 L367 256 Z M288 320 L112 320 C119 429 153 494 207 494 C263 494 288 423 288 320 L288 320 Z " />
<glyph glyph-name="Gcircumflex" unicode="&#x11c;" horiz-adv-x="512" d="M298 870 L153 781 L181 735 L297 799 L414 736 L442 781 L298 870 Z M468 304 L391 304 L391 71 C369 64 342 60 320 60 C208 60 117 156 117 359 C117 560 210 645 313 645 C369 645 396 635 444 608 L461 678 C413 704 375 717 312 717 C144 717 37 571 37 349 C37 141 132 -12 307 -12 C393 -12 439 10 468 25 L468 304 Z " />
<glyph glyph-name="gcircumflex" unicode="&#x11d;" horiz-adv-x="426" d="M371 676 L231 787 L90 676 L124 633 L232 712 L339 631 L371 676 Z M371 -31 L371 538 C326 552 272 558 240 558 C119 558 34 474 34 262 C34 31 137 -8 200 -8 C251 -8 278 18 294 38 L294 -24 C294 -137 247 -155 196 -155 C160 -155 119 -147 77 -134 L64 -207 C87 -216 146 -230 197 -230 C304 -230 371 -167 371 -31 L371 -31 Z M295 107 C271 81 252 62 217 62 C152 62 110 118 110 266 C110 405 147 489 238 489 C261 489 283 484 295 480 L295 107 Z " />
<glyph glyph-name="Gbreve" unicode="&#x11e;" horiz-adv-x="512" d="M436 820 L397 856 C375 832 347 812 306 812 C268 812 238 836 216 858 L177 819 C201 786 245 749 305 749 C373 749 421 796 436 820 L436 820 Z M468 304 L391 304 L391 71 C369 64 342 60 320 60 C208 60 117 156 117 359 C117 560 210 645 313 645 C369 645 396 635 444 608 L461 678 C413 704 375 717 312 717 C144 717 37 571 37 349 C37 141 132 -12 307 -12 C393 -12 439 10 468 25 L468 304 Z " />
<glyph glyph-name="gbreve" unicode="&#x11f;" horiz-adv-x="426" d="M371 -31 L371 538 C326 552 272 558 240 558 C119 558 34 474 34 262 C34 31 137 -8 200 -8 C251 -8 278 18 294 38 L294 -24 C294 -137 247 -155 196 -155 C160 -155 119 -147 77 -134 L64 -207 C87 -216 146 -230 197 -230 C304 -230 371 -167 371 -31 L371 -31 Z M295 107 C271 81 252 62 217 62 C152 62 110 118 110 266 C110 405 147 489 238 489 C261 489 283 484 295 480 L295 107 Z M365 722 L326 759 C304 734 275 714 233 714 C193 714 162 738 140 762 L101 720 C125 687 170 649 232 649 C301 649 350 698 365 722 L365 722 Z " />
<glyph glyph-name="Gdotaccent" unicode="&#x120;" horiz-adv-x="512" d="M351 802 L298 854 L245 802 L298 748 L351 802 Z M468 304 L391 304 L391 71 C369 64 342 60 320 60 C208 60 117 156 117 359 C117 560 210 645 313 645 C369 645 396 635 444 608 L461 678 C413 704 375 717 312 717 C144 717 37 571 37 349 C37 141 132 -12 307 -12 C393 -12 439 10 468 25 L468 304 Z " />
<glyph glyph-name="gdotaccent" unicode="&#x121;" horiz-adv-x="426" d="M371 -31 L371 538 C326 552 272 558 240 558 C119 558 34 474 34 262 C34 31 137 -8 200 -8 C251 -8 278 18 294 38 L294 -24 C294 -137 247 -155 196 -155 C160 -155 119 -147 77 -134 L64 -207 C87 -216 146 -230 197 -230 C304 -230 371 -167 371 -31 L371 -31 Z M295 107 C271 81 252 62 217 62 C152 62 110 118 110 266 C110 405 147 489 238 489 C261 489 283 484 295 480 L295 107 Z M288 715 L228 774 L170 715 L228 655 L288 715 Z " />
<glyph glyph-name="Gcommaaccent" unicode="&#x122;" horiz-adv-x="513" d="M344 -62 L278 -62 L267 -232 L323 -232 L344 -62 Z M468 304 L391 304 L391 71 C369 64 342 60 320 60 C208 60 117 156 117 359 C117 560 210 645 313 645 C369 645 396 635 444 608 L461 678 C413 704 375 717 312 717 C144 717 37 571 37 349 C37 141 132 -12 307 -12 C393 -12 439 10 468 25 L468 304 Z " />
<glyph glyph-name="gcommaaccent" unicode="&#x123;" horiz-adv-x="426" d="M189 624 L258 624 L270 809 L212 809 L189 624 Z M371 -31 L371 538 C326 552 272 558 240 558 C119 558 34 474 34 262 C34 31 137 -8 200 -8 C251 -8 278 18 294 38 L294 -24 C294 -137 247 -155 196 -155 C160 -155 119 -147 77 -134 L64 -207 C87 -216 146 -230 197 -230 C304 -230 371 -167 371 -31 L371 -31 Z M295 107 C271 81 252 62 217 62 C152 62 110 118 110 266 C110 405 147 489 238 489 C261 489 283 484 295 480 L295 107 Z " />
<glyph glyph-name="Hcircumflex" unicode="&#x124;" horiz-adv-x="554" d="M483 0 L483 707 L405 707 L405 391 L149 391 L149 707 L71 707 L71 0 L149 0 L149 319 L405 319 L405 0 L483 0 Z M273 870 L128 781 L156 735 L272 799 L389 736 L417 781 L273 870 Z " />
<glyph glyph-name="hcircumflex" unicode="&#x125;" horiz-adv-x="440" d="M-50 808 L-22 763 L95 826 L211 762 L237 809 L94 898 L-50 808 Z M387 0 L387 355 C387 468 365 558 266 558 C206 558 163 525 132 486 L132 754 L56 754 L56 0 L132 0 L132 423 C168 455 201 483 244 483 C303 483 311 430 311 345 L311 0 L387 0 Z " />
<glyph glyph-name="Hbar" unicode="&#x126;" horiz-adv-x="579" d="M496 0 L496 520 L549 520 L549 578 L496 578 L496 707 L417 707 L417 578 L162 578 L162 707 L83 707 L83 578 L28 578 L28 520 L83 520 L83 0 L162 0 L162 319 L417 319 L417 0 L496 0 Z M162 391 L162 520 L417 520 L417 391 L162 391 Z " />
<glyph glyph-name="hbar" unicode="&#x127;" horiz-adv-x="440" d="M387 0 L387 352 C387 438 382 558 259 558 C193 558 136 493 132 486 L132 630 L266 630 L266 688 L132 688 L132 754 L56 754 L56 688 L1 688 L1 630 L56 630 L56 0 L132 0 L132 423 C151 439 202 483 241 483 C304 483 311 434 311 345 L311 0 L387 0 Z " />
<glyph glyph-name="Itilde" unicode="&#x128;" horiz-adv-x="220" d="M149 0 L149 707 L71 707 L71 0 L149 0 Z M244 807 L212 846 C202 838 188 823 161 823 C131 823 103 844 62 844 C21 844 -4 828 -29 803 L0 765 C19 779 31 784 54 784 C92 784 125 763 166 763 C207 763 230 788 244 807 L244 807 Z " />
<glyph glyph-name="itilde" unicode="&#x129;" horiz-adv-x="188" d="M132 0 L132 546 L56 546 L56 0 L132 0 Z M233 711 L201 749 C190 741 177 727 146 727 C118 727 92 751 51 751 C9 751 -18 733 -43 708 L-14 668 C7 683 18 688 43 688 C77 688 110 663 149 663 C194 663 217 690 233 711 L233 711 Z " />
<glyph glyph-name="Imacron" unicode="&#x12a;" horiz-adv-x="220" d="M149 0 L149 707 L71 707 L71 0 L149 0 Z M223 767 L223 827 L-5 827 L-5 767 L223 767 Z " />
<glyph glyph-name="imacron" unicode="&#x12b;" horiz-adv-x="188" d="M132 0 L132 546 L56 546 L56 0 L132 0 Z M208 673 L208 736 L-20 736 L-20 673 L208 673 Z " />
<glyph glyph-name="Ibreve" unicode="&#x12c;" horiz-adv-x="220" d="M149 0 L149 707 L71 707 L71 0 L149 0 Z M238 820 L199 856 C177 832 149 812 108 812 C70 812 40 836 18 858 L-21 819 C3 786 47 749 107 749 C175 749 223 796 238 820 L238 820 Z " />
<glyph glyph-name="ibreve" unicode="&#x12d;" horiz-adv-x="188" d="M132 0 L132 546 L56 546 L56 0 L132 0 Z M224 722 L185 759 C163 734 134 714 92 714 C52 714 21 738 -1 762 L-40 720 C-16 687 29 649 91 649 C160 649 209 698 224 722 L224 722 Z " />
<glyph glyph-name="Iogonek" unicode="&#x12e;" horiz-adv-x="220" d="M149 707 L71 707 L71 3 C30 -29 -6 -74 -6 -126 C-6 -180 21 -224 104 -224 C143 -224 168 -215 181 -207 L166 -153 C153 -158 138 -161 125 -161 C87 -161 68 -147 68 -113 C68 -64 122 -15 149 0 L149 707 Z " />
<glyph glyph-name="iogonek" unicode="&#x12f;" horiz-adv-x="187" d="M131 546 L55 546 L55 1 C7 -33 -24 -77 -24 -127 C-24 -181 2 -224 85 -224 C123 -224 148 -215 161 -207 L146 -153 C133 -158 118 -161 105 -161 C68 -161 49 -147 49 -113 C49 -64 104 -15 131 0 L131 546 Z M153 715 L93 774 L35 715 L93 655 L153 715 Z " />
<glyph glyph-name="Idotaccent" unicode="&#x130;" horiz-adv-x="220" d="M164 802 L111 854 L58 802 L111 748 L164 802 Z M149 0 L149 707 L71 707 L71 0 L149 0 Z " />
<glyph glyph-name="dotlessi" unicode="&#x131;" horiz-adv-x="188" d="M132 0 L132 546 L56 546 L56 0 L132 0 Z " />
<glyph glyph-name="IJ" unicode="&#x132;" horiz-adv-x="442" d="M149 0 L149 707 L71 707 L71 0 L149 0 Z M371 156 L371 707 L292 707 L292 145 C292 2 270 -73 181 -136 L219 -192 C353 -113 371 1 371 156 L371 156 Z " />
<glyph glyph-name="ij" unicode="&#x133;" horiz-adv-x="379" d="M323 -22 L323 546 L247 546 L247 -28 C247 -110 230 -157 179 -157 C168 -157 150 -154 134 -147 L119 -215 C142 -224 161 -230 182 -230 C267 -230 323 -179 323 -22 L323 -22 Z M132 0 L132 546 L56 546 L56 0 L132 0 Z M154 715 L94 774 L36 715 L94 655 L154 715 Z M346 715 L286 774 L228 715 L286 655 L346 715 Z " />
<glyph glyph-name="Jcircumflex" unicode="&#x134;" horiz-adv-x="221" d="M151 156 L151 707 L72 707 L72 145 C72 2 50 -73 -39 -136 L-1 -192 C133 -113 151 1 151 156 L151 156 Z M112 870 L-33 781 L-5 735 L111 799 L228 736 L256 781 L112 870 Z " />
<glyph glyph-name="jcircumflex" unicode="&#x135;" horiz-adv-x="188" d="M235 676 L95 787 L-46 676 L-12 633 L96 712 L203 631 L235 676 Z M132 -22 L132 546 L56 546 L56 -28 C56 -110 39 -157 -12 -157 C-23 -157 -41 -154 -57 -147 L-72 -215 C-49 -224 -30 -230 -9 -230 C76 -230 132 -179 132 -22 L132 -22 Z " />
<glyph glyph-name="Kcommaaccent" unicode="&#x136;" horiz-adv-x="460" d="M277 -62 L211 -62 L200 -232 L256 -232 L277 -62 Z M158 365 L192 298 L364 0 L462 0 L232 379 L448 707 L355 707 L192 447 L158 386 L158 365 Z M149 707 L71 707 L71 0 L149 0 L149 707 Z " />
<glyph glyph-name="kcommaaccent" unicode="&#x137;" horiz-adv-x="397" d="M241 -62 L175 -62 L164 -232 L220 -232 L241 -62 Z M136 290 L156 249 L237 105 C283 20 326 -5 372 -9 L394 52 C365 66 327 96 292 155 L213 290 L381 546 L294 546 L159 337 L136 290 Z M132 754 L56 754 L56 0 L132 0 L132 754 Z " />
<glyph glyph-name="uni0138" unicode="&#x138;" horiz-adv-x="399" d="M136 289 L156 249 L237 105 C283 20 326 -5 372 -9 L394 52 C365 66 327 96 292 155 L213 290 L381 546 L294 546 L159 337 L136 289 Z M132 546 L56 546 L56 0 L132 0 L132 546 Z " />
<glyph glyph-name="Lacute" unicode="&#x139;" horiz-adv-x="367" d="M250 809 L225 875 L58 793 L78 745 L250 809 Z M367 0 L367 73 L149 73 L149 707 L71 707 L71 0 L367 0 Z " />
<glyph glyph-name="lacute" unicode="&#x13a;" horiz-adv-x="188" d="M216 849 L191 915 L24 833 L44 785 L216 849 Z M132 0 L132 754 L56 754 L56 0 L132 0 Z " />
<glyph glyph-name="Lcommaaccent" unicode="&#x13b;" horiz-adv-x="366" d="M254 -62 L188 -62 L177 -232 L233 -232 L254 -62 Z M367 0 L367 73 L149 73 L149 707 L71 707 L71 0 L367 0 Z " />
<glyph glyph-name="lcommaaccent" unicode="&#x13c;" horiz-adv-x="188" d="M126 -62 L60 -62 L49 -232 L105 -232 L126 -62 Z M132 0 L132 754 L56 754 L56 0 L132 0 Z " />
<glyph glyph-name="Lcaron" unicode="&#x13d;" horiz-adv-x="367" d="M295 778 L229 778 L218 608 L274 608 L295 778 Z M367 0 L367 73 L149 73 L149 707 L71 707 L71 0 L367 0 Z " />
<glyph glyph-name="lcaron" unicode="&#x13e;" horiz-adv-x="218" d="M255 754 L187 754 L175 569 L232 569 L255 754 Z M132 0 L132 754 L56 754 L56 0 L132 0 Z " />
<glyph glyph-name="Ldot" unicode="&#x13f;" horiz-adv-x="367" d="M367 0 L367 73 L149 73 L149 707 L71 707 L71 0 L367 0 Z M344 356 L290 409 L237 356 L290 302 L344 356 Z " />
<glyph glyph-name="ldot" unicode="&#x140;" horiz-adv-x="286" d="M132 0 L132 754 L56 754 L56 0 L132 0 Z M289 355 L235 408 L182 355 L235 301 L289 355 Z " />
<glyph glyph-name="Lslash" unicode="&#x141;" horiz-adv-x="382" d="M382 0 L382 73 L164 73 L164 359 L255 430 L255 504 L164 433 L164 707 L86 707 L86 373 L36 334 L36 260 L86 299 L86 0 L382 0 Z " />
<glyph glyph-name="lslash" unicode="&#x142;" horiz-adv-x="228" d="M207 423 L207 497 L152 454 L152 754 L76 754 L76 395 L22 353 L22 278 L76 320 L76 0 L152 0 L152 379 L207 423 Z " />
<glyph glyph-name="Nacute" unicode="&#x143;" horiz-adv-x="559" d="M403 809 L378 875 L211 793 L231 745 L403 809 Z M488 0 L488 707 L410 707 L410 253 L417 135 L413 135 L162 707 L71 707 L71 0 L149 0 L149 450 L142 563 L146 563 L395 0 L488 0 Z " />
<glyph glyph-name="nacute" unicode="&#x144;" horiz-adv-x="440" d="M342 742 L298 797 L152 662 L188 618 L342 742 Z M387 0 L387 355 C387 468 365 558 266 558 C206 558 163 525 132 486 L132 546 L56 546 L56 0 L132 0 L132 423 C168 455 201 483 244 483 C303 483 311 430 311 345 L311 0 L387 0 Z " />
<glyph glyph-name="Ncommaaccent" unicode="&#x145;" horiz-adv-x="559" d="M318 -62 L252 -62 L241 -232 L297 -232 L318 -62 Z M488 0 L488 707 L410 707 L410 253 L417 135 L413 135 L162 707 L71 707 L71 0 L149 0 L149 450 L142 563 L146 563 L395 0 L488 0 Z " />
<glyph glyph-name="ncommaaccent" unicode="&#x146;" horiz-adv-x="440" d="M254 -62 L188 -62 L177 -232 L233 -232 L254 -62 Z M387 0 L387 355 C387 468 365 558 266 558 C206 558 163 525 132 486 L132 546 L56 546 L56 0 L132 0 L132 423 C168 455 201 483 244 483 C303 483 311 430 311 345 L311 0 L387 0 Z " />
<glyph glyph-name="Ncaron" unicode="&#x147;" horiz-adv-x="559" d="M423 824 L394 869 L277 806 L161 869 L134 823 L277 735 L423 824 Z M488 0 L488 707 L410 707 L410 253 L417 135 L413 135 L162 707 L71 707 L71 0 L149 0 L149 450 L142 563 L146 563 L395 0 L488 0 Z " />
<glyph glyph-name="ncaron" unicode="&#x148;" horiz-adv-x="440" d="M361 735 L327 778 L219 700 L115 779 L79 733 L216 623 L361 735 Z M387 0 L387 355 C387 468 365 558 266 558 C206 558 163 525 132 486 L132 546 L56 546 L56 0 L132 0 L132 423 C168 455 201 483 244 483 C303 483 311 430 311 345 L311 0 L387 0 Z " />
<glyph glyph-name="napostrophe" unicode="&#x149;" horiz-adv-x="462" d="M-39 554 L21 554 C42 592 59 637 59 715 L59 755 L-13 755 L-13 677 C-13 638 -27 585 -39 554 L-39 554 Z M408 0 L408 355 C408 468 386 558 287 558 C227 558 184 525 153 486 L153 546 L77 546 L77 0 L153 0 L153 423 C189 455 222 483 265 483 C324 483 332 430 332 345 L332 0 L408 0 Z " />
<glyph glyph-name="Eng" unicode="&#x14a;" horiz-adv-x="559" d="M488 -21 L488 707 L409 707 L409 256 L417 137 L413 137 L161 707 L71 707 L71 0 L149 0 L149 451 L143 562 L147 562 L180 485 L394 0 L410 0 L410 -27 C410 -108 395 -155 344 -155 C333 -155 316 -152 299 -145 L285 -213 C307 -222 326 -228 347 -228 C432 -228 488 -177 488 -21 L488 -21 Z " />
<glyph glyph-name="eng" unicode="&#x14b;" horiz-adv-x="440" d="M387 -21 L387 353 C387 439 382 559 259 559 C193 559 136 494 132 487 L132 546 L56 546 L56 0 L132 0 L132 424 C151 439 202 483 241 483 C304 483 311 434 311 346 L311 -27 C311 -108 294 -155 243 -155 C232 -155 215 -152 198 -145 L183 -213 C206 -222 224 -228 246 -228 C331 -228 387 -177 387 -21 L387 -21 Z " />
<glyph glyph-name="Omacron" unicode="&#x14c;" horiz-adv-x="602" d="M414 767 L414 827 L186 827 L186 767 L414 767 Z M562 353 C562 557 479 717 307 717 C146 717 39 577 39 353 C39 135 129 -12 294 -12 C463 -12 562 136 562 353 L562 353 Z M481 352 C481 184 422 58 298 58 C180 58 120 190 120 357 C120 524 180 649 300 649 C415 649 481 527 481 352 L481 352 Z " />
<glyph glyph-name="omacron" unicode="&#x14d;" horiz-adv-x="435" d="M331 669 L331 732 L103 732 L103 669 L331 669 Z M401 277 C401 449 342 559 223 559 C106 559 33 451 33 268 C33 93 98 -13 214 -13 C325 -13 401 83 401 277 L401 277 Z M326 271 C326 167 302 55 219 55 C137 55 109 162 109 270 C109 374 134 493 219 493 C303 493 326 372 326 271 L326 271 Z " />
<glyph glyph-name="Obreve" unicode="&#x14e;" horiz-adv-x="602" d="M428 820 L389 856 C367 832 339 812 298 812 C260 812 230 836 208 858 L169 819 C193 786 237 749 297 749 C365 749 413 796 428 820 L428 820 Z M562 353 C562 557 479 717 307 717 C146 717 39 577 39 353 C39 135 129 -12 294 -12 C463 -12 562 136 562 353 L562 353 Z M481 352 C481 184 422 58 298 58 C180 58 120 190 120 357 C120 524 180 649 300 649 C415 649 481 527 481 352 L481 352 Z " />
<glyph glyph-name="obreve" unicode="&#x14f;" horiz-adv-x="435" d="M401 277 C401 449 342 559 223 559 C106 559 33 451 33 268 C33 93 98 -13 214 -13 C325 -13 401 83 401 277 L401 277 Z M326 271 C326 167 302 55 219 55 C137 55 109 162 109 270 C109 374 134 493 219 493 C303 493 326 372 326 271 L326 271 Z M350 722 L311 759 C289 734 260 714 218 714 C178 714 147 738 125 762 L86 720 C110 687 155 649 217 649 C286 649 335 698 350 722 L350 722 Z " />
<glyph glyph-name="Ohungarumlaut" unicode="&#x150;" horiz-adv-x="602" d="M562 353 C562 557 479 717 307 717 C146 717 39 577 39 353 C39 135 129 -12 294 -12 C463 -12 562 136 562 353 L562 353 Z M481 352 C481 184 422 58 298 58 C180 58 120 190 120 357 C120 524 180 649 300 649 C415 649 481 527 481 352 L481 352 Z M537 801 L512 865 L352 785 L372 738 L537 801 Z M355 861 L307 912 L187 779 L222 742 L355 861 Z " />
<glyph glyph-name="ohungarumlaut" unicode="&#x151;" horiz-adv-x="435" d="M440 732 L402 785 L245 657 L276 612 L440 732 Z M268 761 L220 806 L86 654 L126 616 L268 761 Z M401 277 C401 449 342 559 223 559 C106 559 33 451 33 268 C33 93 98 -13 214 -13 C325 -13 401 83 401 277 L401 277 Z M326 271 C326 167 302 55 219 55 C137 55 109 162 109 270 C109 374 134 493 219 493 C303 493 326 372 326 271 L326 271 Z " />
<glyph glyph-name="OE" unicode="&#x152;" horiz-adv-x="786" d="M751 0 L751 71 L513 71 L513 321 L719 321 L719 389 L513 389 L513 638 L735 638 L735 707 L434 707 L434 657 C404 692 362 717 303 717 C147 717 39 577 39 355 C39 141 132 -12 289 -12 C354 -12 400 12 434 52 L434 0 L751 0 Z M434 140 C403 89 357 59 296 59 C178 59 117 195 117 356 C117 521 182 646 300 646 C358 646 403 616 434 564 L434 140 Z " />
<glyph glyph-name="oe" unicode="&#x153;" horiz-adv-x="690" d="M657 256 L657 287 C657 395 641 559 507 559 C441 559 396 526 364 453 C338 519 291 558 220 558 C102 558 33 444 33 267 C33 100 94 -9 215 -9 C279 -9 329 27 360 93 C389 21 444 -9 518 -9 C555 -9 619 -2 651 18 L638 83 C609 73 562 61 535 61 C453 61 401 102 401 256 L657 256 Z M578 320 L402 320 C409 429 443 494 498 494 C553 494 578 422 578 320 L578 320 Z M326 273 C326 166 302 58 219 58 C137 58 109 161 109 272 C109 374 136 492 217 492 C303 492 326 373 326 273 L326 273 Z " />
<glyph glyph-name="Racute" unicode="&#x154;" horiz-adv-x="500" d="M352 809 L327 875 L160 793 L180 745 L352 809 Z M501 53 C451 77 423 111 400 155 L323 305 C388 342 417 416 417 495 C417 639 346 707 243 707 L71 707 L71 0 L149 0 L149 278 C161 278 180 277 194 277 C211 277 233 278 251 282 L339 100 C382 13 448 -9 486 -11 L501 53 Z M335 490 C335 387 285 347 211 347 L149 347 L149 636 L228 636 C298 636 335 591 335 490 L335 490 Z " />
<glyph glyph-name="racute" unicode="&#x155;" horiz-adv-x="284" d="M307 742 L263 797 L117 662 L153 618 L307 742 Z M287 546 C277 551 256 556 238 556 C183 556 153 518 135 482 L132 482 L132 546 L56 546 L56 0 L132 0 L132 405 C152 446 181 483 228 483 C244 483 262 480 277 474 L287 546 Z " />
<glyph glyph-name="Rcommaaccent" unicode="&#x156;" horiz-adv-x="500" d="M290 -62 L224 -62 L213 -232 L269 -232 L290 -62 Z M501 53 C451 77 423 111 400 155 L323 305 C388 342 417 416 417 495 C417 639 346 707 243 707 L71 707 L71 0 L149 0 L149 278 C161 278 180 277 194 277 C211 277 233 278 251 282 L339 100 C382 13 448 -9 486 -11 L501 53 Z M335 490 C335 387 285 347 211 347 L149 347 L149 636 L228 636 C298 636 335 591 335 490 L335 490 Z " />
<glyph glyph-name="rcommaaccent" unicode="&#x157;" horiz-adv-x="283" d="M125 -62 L59 -62 L48 -232 L104 -232 L125 -62 Z M287 546 C277 551 256 556 238 556 C183 556 153 518 135 482 L132 482 L132 546 L56 546 L56 0 L132 0 L132 405 C152 446 181 483 228 483 C244 483 262 480 277 474 L287 546 Z " />
<glyph glyph-name="Rcaron" unicode="&#x158;" horiz-adv-x="500" d="M362 824 L333 869 L216 806 L100 869 L73 823 L216 735 L362 824 Z M501 53 C451 77 423 111 400 155 L323 305 C388 342 417 416 417 495 C417 639 346 707 243 707 L71 707 L71 0 L149 0 L149 278 C161 278 180 277 194 277 C211 277 233 278 251 282 L339 100 C382 13 448 -9 486 -11 L501 53 Z M335 490 C335 387 285 347 211 347 L149 347 L149 636 L228 636 C298 636 335 591 335 490 L335 490 Z " />
<glyph glyph-name="rcaron" unicode="&#x159;" horiz-adv-x="284" d="M305 735 L271 778 L163 700 L59 779 L23 733 L160 623 L305 735 Z M287 546 C277 551 256 556 238 556 C183 556 153 518 135 482 L132 482 L132 546 L56 546 L56 0 L132 0 L132 405 C152 446 181 483 228 483 C244 483 262 480 277 474 L287 546 Z " />
<glyph glyph-name="Sacute" unicode="&#x15a;" horiz-adv-x="395" d="M368 184 C368 380 124 396 124 540 C124 605 158 640 219 640 C252 640 285 632 318 616 L342 678 C311 698 271 711 217 711 C118 711 45 647 45 535 C45 337 287 326 287 179 C287 99 238 63 171 63 C132 63 93 77 53 103 L22 41 C63 10 109 -9 173 -9 C275 -9 368 53 368 184 L368 184 Z M328 809 L303 875 L136 793 L156 745 L328 809 Z " />
<glyph glyph-name="sacute" unicode="&#x15b;" horiz-adv-x="330" d="M297 742 L253 797 L107 662 L143 618 L297 742 Z M307 146 C307 309 109 307 109 422 C109 461 131 490 182 490 C215 490 253 478 272 468 L285 533 C265 543 227 556 184 556 C97 556 35 507 35 417 C35 256 232 253 232 142 C232 93 193 60 140 60 C105 60 63 73 35 84 L24 16 C53 3 101 -8 139 -8 C223 -8 307 40 307 146 L307 146 Z " />
<glyph glyph-name="Scircumflex" unicode="&#x15c;" horiz-adv-x="395" d="M368 184 C368 380 124 396 124 540 C124 605 158 640 219 640 C252 640 285 632 318 616 L342 678 C311 698 271 711 217 711 C118 711 45 647 45 535 C45 337 287 326 287 179 C287 99 238 63 171 63 C132 63 93 77 53 103 L22 41 C63 10 109 -9 173 -9 C275 -9 368 53 368 184 L368 184 Z M202 870 L57 781 L85 735 L201 799 L318 736 L346 781 L202 870 Z " />
<glyph glyph-name="scircumflex" unicode="&#x15d;" horiz-adv-x="330" d="M313 676 L173 787 L32 676 L66 633 L174 712 L281 631 L313 676 Z M307 146 C307 309 109 307 109 422 C109 461 131 490 182 490 C215 490 253 478 272 468 L285 533 C265 543 227 556 184 556 C97 556 35 507 35 417 C35 256 232 253 232 142 C232 93 193 60 140 60 C105 60 63 73 35 84 L24 16 C53 3 101 -8 139 -8 C223 -8 307 40 307 146 L307 146 Z " />
<glyph glyph-name="Scedilla" unicode="&#x15e;" horiz-adv-x="395" d="M368 184 C368 380 124 396 124 540 C124 605 158 640 219 640 C252 640 285 632 318 616 L342 678 C311 698 271 711 217 711 C118 711 45 647 45 535 C45 337 287 326 287 179 C287 99 238 63 171 63 C132 63 93 77 53 103 L22 41 C63 10 109 -9 173 -9 C275 -9 368 53 368 184 L368 184 Z M239 -127 C239 -105 231 -78 217 -53 L147 -53 C161 -82 170 -103 170 -122 C170 -144 145 -170 104 -193 L134 -248 C194 -219 239 -177 239 -127 L239 -127 Z " />
<glyph glyph-name="scedilla" unicode="&#x15f;" horiz-adv-x="330" d="M307 146 C307 309 109 307 109 422 C109 461 131 490 182 490 C215 490 253 478 272 468 L285 533 C265 543 227 556 184 556 C97 556 35 507 35 417 C35 256 232 253 232 142 C232 93 193 60 140 60 C105 60 63 73 35 84 L24 16 C53 3 101 -8 139 -8 C223 -8 307 40 307 146 L307 146 Z M214 -127 C214 -105 206 -78 192 -53 L122 -53 C136 -82 145 -103 145 -122 C145 -144 120 -170 79 -193 L109 -248 C169 -219 214 -177 214 -127 L214 -127 Z " />
<glyph glyph-name="Scaron" unicode="&#x160;" horiz-adv-x="395" d="M345 824 L316 869 L199 806 L83 869 L56 823 L199 735 L345 824 Z M368 184 C368 380 124 396 124 540 C124 605 158 640 219 640 C252 640 285 632 318 616 L342 678 C311 698 271 711 217 711 C118 711 45 647 45 535 C45 337 287 326 287 179 C287 99 238 63 171 63 C132 63 93 77 53 103 L22 41 C63 10 109 -9 173 -9 C275 -9 368 53 368 184 L368 184 Z " />
<glyph glyph-name="scaron" unicode="&#x161;" horiz-adv-x="330" d="M312 735 L278 778 L170 700 L66 779 L30 733 L167 623 L312 735 Z M307 146 C307 309 109 307 109 422 C109 461 131 490 182 490 C215 490 253 478 272 468 L285 533 C265 543 227 556 184 556 C97 556 35 507 35 417 C35 256 232 253 232 142 C232 93 193 60 140 60 C105 60 63 73 35 84 L24 16 C53 3 101 -8 139 -8 C223 -8 307 40 307 146 L307 146 Z " />
<glyph glyph-name="Tcommaaccent" unicode="&#x162;" horiz-adv-x="421" d="M243 -62 L177 -62 L166 -232 L222 -232 L243 -62 Z M421 635 L421 707 L-1 707 L-1 635 L171 635 L171 0 L250 0 L250 635 L421 635 Z " />
<glyph glyph-name="tcommaaccent" unicode="&#x163;" horiz-adv-x="293" d="M218 -62 L152 -62 L141 -232 L197 -232 L218 -62 Z M291 13 L281 78 C258 68 236 63 214 63 C164 63 144 89 144 152 L144 479 L266 479 L266 546 L145 546 L145 658 L70 658 L70 546 L13 546 L13 479 L70 479 L70 158 C70 16 125 -6 199 -6 C238 -6 261 0 291 13 L291 13 Z " />
<glyph glyph-name="Tcaron" unicode="&#x164;" horiz-adv-x="420" d="M354 824 L325 869 L208 806 L92 869 L65 823 L208 735 L354 824 Z M421 635 L421 707 L-1 707 L-1 635 L171 635 L171 0 L250 0 L250 635 L421 635 Z " />
<glyph glyph-name="tcaron" unicode="&#x165;" horiz-adv-x="293" d="M293 793 L225 793 L213 608 L270 608 L293 793 Z M291 13 L281 78 C258 68 236 63 214 63 C164 63 144 89 144 152 L144 479 L266 479 L266 546 L145 546 L145 658 L70 658 L70 546 L13 546 L13 479 L70 479 L70 158 C70 16 125 -6 199 -6 C238 -6 261 0 291 13 L291 13 Z " />
<glyph glyph-name="Tbar" unicode="&#x166;" horiz-adv-x="420" d="M421 635 L421 707 L-1 707 L-1 635 L171 635 L171 383 L62 383 L62 324 L171 324 L171 0 L250 0 L250 324 L362 324 L362 383 L250 383 L250 635 L421 635 Z " />
<glyph glyph-name="tbar" unicode="&#x167;" horiz-adv-x="293" d="M291 13 L281 78 C258 68 236 63 214 63 C164 63 144 89 144 152 L144 271 L255 271 L255 330 L144 330 L144 479 L266 479 L266 546 L145 546 L145 658 L70 658 L70 546 L13 546 L13 479 L70 479 L70 330 L13 330 L13 271 L70 271 L70 158 C70 16 125 -6 199 -6 C238 -6 261 0 291 13 L291 13 Z " />
<glyph glyph-name="Utilde" unicode="&#x168;" horiz-adv-x="558" d="M420 807 L388 846 C378 838 364 823 337 823 C307 823 279 844 238 844 C197 844 172 828 147 803 L176 765 C195 779 207 784 230 784 C268 784 301 763 342 763 C383 763 406 788 420 807 L420 807 Z M489 270 L489 707 L414 707 L414 266 C414 105 350 59 281 59 C214 59 148 97 148 243 L148 707 L68 707 L68 244 C68 39 177 -13 281 -13 C377 -13 489 44 489 270 L489 270 Z " />
<glyph glyph-name="utilde" unicode="&#x169;" horiz-adv-x="440" d="M385 0 L385 546 L308 546 L308 124 C286 101 241 61 194 61 C137 61 129 118 129 199 L129 546 L54 546 L54 194 C54 113 60 -11 175 -11 C240 -11 280 28 308 63 L308 0 L385 0 Z M357 711 L325 749 C314 741 301 727 270 727 C242 727 216 751 175 751 C133 751 106 733 81 708 L110 668 C131 683 142 688 167 688 C201 688 234 663 273 663 C318 663 341 690 357 711 L357 711 Z " />
<glyph glyph-name="Umacron" unicode="&#x16a;" horiz-adv-x="558" d="M398 767 L398 827 L170 827 L170 767 L398 767 Z M489 270 L489 707 L414 707 L414 266 C414 105 350 59 281 59 C214 59 148 97 148 243 L148 707 L68 707 L68 244 C68 39 177 -13 281 -13 C377 -13 489 44 489 270 L489 270 Z " />
<glyph glyph-name="umacron" unicode="&#x16b;" horiz-adv-x="440" d="M385 0 L385 546 L308 546 L308 124 C286 101 241 61 194 61 C137 61 129 118 129 199 L129 546 L54 546 L54 194 C54 113 60 -11 175 -11 C240 -11 280 28 308 63 L308 0 L385 0 Z M333 674 L333 737 L105 737 L105 674 L333 674 Z " />
<glyph glyph-name="Ubreve" unicode="&#x16c;" horiz-adv-x="558" d="M407 820 L368 856 C346 832 318 812 277 812 C239 812 209 836 187 858 L148 819 C172 786 216 749 276 749 C344 749 392 796 407 820 L407 820 Z M489 270 L489 707 L414 707 L414 266 C414 105 350 59 281 59 C214 59 148 97 148 243 L148 707 L68 707 L68 244 C68 39 177 -13 281 -13 C377 -13 489 44 489 270 L489 270 Z " />
<glyph glyph-name="ubreve" unicode="&#x16d;" horiz-adv-x="440" d="M385 0 L385 546 L308 546 L308 124 C286 101 241 61 194 61 C137 61 129 118 129 199 L129 546 L54 546 L54 194 C54 113 60 -11 175 -11 C240 -11 280 28 308 63 L308 0 L385 0 Z M353 722 L314 759 C292 734 263 714 221 714 C181 714 150 738 128 762 L89 720 C113 687 158 649 220 649 C289 649 338 698 353 722 L353 722 Z " />
<glyph glyph-name="Uring" unicode="&#x16e;" horiz-adv-x="558" d="M373 815 C373 877 321 901 281 901 C234 901 189 869 189 813 C189 756 234 731 283 731 C333 731 373 763 373 815 L373 815 Z M328 814 C328 789 308 770 282 770 C256 770 235 790 235 816 C235 843 254 860 281 860 C305 860 328 841 328 814 L328 814 Z M489 270 L489 707 L414 707 L414 266 C414 105 350 59 281 59 C214 59 148 97 148 243 L148 707 L68 707 L68 244 C68 39 177 -13 281 -13 C377 -13 489 44 489 270 L489 270 Z " />
<glyph glyph-name="uring" unicode="&#x16f;" horiz-adv-x="440" d="M315 701 C315 763 262 788 221 788 C173 788 128 756 128 699 C128 641 174 615 223 615 C274 615 315 647 315 701 L315 701 Z M269 700 C269 674 249 655 222 655 C195 655 175 675 175 702 C175 728 194 746 221 746 C246 746 269 726 269 700 L269 700 Z M385 0 L385 546 L308 546 L308 124 C286 101 241 61 194 61 C137 61 129 118 129 199 L129 546 L54 546 L54 194 C54 113 60 -11 175 -11 C240 -11 280 28 308 63 L308 0 L385 0 Z " />
<glyph glyph-name="Uhungarumlaut" unicode="&#x170;" horiz-adv-x="558" d="M489 270 L489 707 L414 707 L414 266 C414 105 350 59 281 59 C214 59 148 97 148 243 L148 707 L68 707 L68 244 C68 39 177 -13 281 -13 C377 -13 489 44 489 270 L489 270 Z M499 801 L474 865 L314 785 L334 738 L499 801 Z M317 861 L269 912 L149 779 L184 742 L317 861 Z " />
<glyph glyph-name="uhungarumlaut" unicode="&#x171;" horiz-adv-x="440" d="M385 0 L385 546 L308 546 L308 124 C286 101 241 61 194 61 C137 61 129 118 129 199 L129 546 L54 546 L54 194 C54 113 60 -11 175 -11 C240 -11 280 28 308 63 L308 0 L385 0 Z M455 732 L417 785 L260 657 L291 612 L455 732 Z M283 761 L235 806 L101 654 L141 616 L283 761 Z " />
<glyph glyph-name="Uogonek" unicode="&#x172;" horiz-adv-x="561" d="M340 -153 C327 -158 312 -161 299 -161 C262 -161 243 -147 243 -113 C243 -64 330 -15 356 0 C428 26 491 100 491 270 L491 707 L416 707 L416 266 C416 105 352 59 283 59 C216 59 150 97 150 243 L150 707 L70 707 L70 244 C70 64 153 2 244 -10 C204 -39 168 -79 168 -126 C168 -180 196 -224 279 -224 C317 -224 342 -215 355 -207 L340 -153 Z " />
<glyph glyph-name="uogonek" unicode="&#x173;" horiz-adv-x="440" d="M385 546 L308 546 L308 124 C291 106 239 61 200 61 C137 61 129 110 129 198 L129 546 L54 546 L54 193 C54 107 58 -11 182 -11 C248 -11 304 56 308 63 L308 4 C301 0 294 -3 287 -8 C243 -34 196 -73 196 -126 C196 -180 224 -224 307 -224 C345 -224 370 -215 383 -207 L368 -153 C355 -158 340 -161 327 -161 C290 -161 271 -147 271 -113 C271 -64 358 -13 385 0 L385 546 Z " />
<glyph glyph-name="Wcircumflex" unicode="&#x174;" horiz-adv-x="751" d="M382 870 L237 781 L265 735 L381 799 L498 736 L526 781 L382 870 Z M746 707 L669 707 L544 177 L528 75 L525 75 L507 175 L378 707 L297 707 L342 529 L240 175 L219 74 L216 74 L202 177 L100 707 L19 707 L162 0 L262 0 L358 339 L377 417 L379 417 L393 338 L476 0 L577 0 L746 707 Z " />
<glyph glyph-name="wcircumflex" unicode="&#x175;" horiz-adv-x="638" d="M466 676 L326 787 L185 676 L219 633 L327 712 L434 631 L466 676 Z M634 546 L557 546 L467 163 L456 80 L450 80 L440 167 L367 546 L278 546 L196 163 L186 79 L180 79 L170 163 L90 546 L11 546 L136 0 L227 0 L306 364 L318 450 L324 450 L334 365 L403 0 L496 0 L634 546 Z " />
<glyph glyph-name="Ycircumflex" unicode="&#x176;" horiz-adv-x="434" d="M434 707 L349 707 L248 443 L219 352 L215 352 L188 444 L95 707 L7 707 L176 269 L176 0 L255 0 L255 268 L434 707 Z M221 870 L76 781 L104 735 L220 799 L337 736 L365 781 L221 870 Z " />
<glyph glyph-name="ycircumflex" unicode="&#x177;" horiz-adv-x="379" d="M376 546 L298 546 L203 157 L190 71 L185 71 L174 158 L89 546 L8 546 L138 0 L159 0 L106 -220 L181 -220 L376 546 Z M334 676 L194 787 L53 676 L87 633 L195 712 L302 631 L334 676 Z " />
<glyph glyph-name="Ydieresis" unicode="&#x178;" horiz-adv-x="434" d="M434 707 L349 707 L248 443 L219 352 L215 352 L188 444 L95 707 L7 707 L176 269 L176 0 L255 0 L255 268 L434 707 Z M345 807 L292 859 L240 807 L292 753 L345 807 Z M195 807 L143 859 L91 807 L143 753 L195 807 Z " />
<glyph glyph-name="Zacute" unicode="&#x179;" horiz-adv-x="416" d="M315 809 L290 875 L123 793 L143 745 L315 809 Z M391 0 L391 75 L110 75 L376 636 L376 707 L43 707 L43 632 L288 632 L25 77 L25 0 L391 0 Z " />
<glyph glyph-name="zacute" unicode="&#x17a;" horiz-adv-x="366" d="M294 742 L250 797 L104 662 L140 618 L294 742 Z M338 0 L338 72 L105 72 L336 472 L336 546 L40 546 L40 474 L251 474 L21 78 L21 0 L338 0 Z " />
<glyph glyph-name="Zdotaccent" unicode="&#x17b;" horiz-adv-x="416" d="M264 802 L211 854 L158 802 L211 748 L264 802 Z M391 0 L391 75 L110 75 L376 636 L376 707 L43 707 L43 632 L288 632 L25 77 L25 0 L391 0 Z " />
<glyph glyph-name="zdotaccent" unicode="&#x17c;" horiz-adv-x="366" d="M338 0 L338 72 L105 72 L336 472 L336 546 L40 546 L40 474 L251 474 L21 78 L21 0 L338 0 Z M244 715 L184 774 L126 715 L184 655 L244 715 Z " />
<glyph glyph-name="Zcaron" unicode="&#x17d;" horiz-adv-x="416" d="M359 824 L330 869 L213 806 L97 869 L70 823 L213 735 L359 824 Z M391 0 L391 75 L110 75 L376 636 L376 707 L43 707 L43 632 L288 632 L25 77 L25 0 L391 0 Z " />
<glyph glyph-name="zcaron" unicode="&#x17e;" horiz-adv-x="366" d="M332 735 L298 778 L190 700 L86 779 L50 733 L187 623 L332 735 Z M338 0 L338 72 L105 72 L336 472 L336 546 L40 546 L40 474 L251 474 L21 78 L21 0 L338 0 Z " />
<glyph glyph-name="uni018E" unicode="&#x18e;" horiz-adv-x="420" d="M349 0 L349 707 L49 707 L49 638 L271 638 L271 389 L68 389 L68 321 L271 321 L271 71 L36 71 L36 0 L349 0 Z " />
<glyph glyph-name="uni018F" unicode="&#x18f;" horiz-adv-x="584" d="M282 -12 C465 -12 544 137 544 353 C544 576 462 717 288 717 C193 717 112 678 63 643 L84 582 C122 607 196 649 279 649 C404 649 457 538 464 388 L33 388 L33 332 C38 128 109 -12 282 -12 L282 -12 Z M284 56 C156 56 118 177 111 324 L464 324 C459 171 421 56 284 56 L284 56 Z " />
<glyph glyph-name="florin" unicode="&#x192;" horiz-adv-x="349" d="M349 638 L346 710 C244 710 158 693 149 505 L141 322 L68 322 L68 256 L138 256 L125 -24 C120 -129 93 -152 0 -157 L1 -227 C119 -227 190 -194 198 -21 L211 256 L289 256 L289 322 L214 322 L222 506 C228 619 258 627 349 638 L349 638 Z " />
<glyph glyph-name="Ohorn" unicode="&#x1a0;" horiz-adv-x="620" d="M562 353 C562 450 543 537 505 601 C551 631 578 688 578 758 C578 776 575 808 567 827 L499 827 C504 810 508 782 508 766 C508 720 498 680 461 657 C422 695 370 717 307 717 C146 717 39 577 39 353 C39 135 129 -12 294 -12 C463 -12 562 136 562 353 L562 353 Z M481 352 C481 184 422 58 298 58 C180 58 120 190 120 357 C120 524 180 649 300 649 C415 649 481 527 481 352 L481 352 Z " />
<glyph glyph-name="ohorn" unicode="&#x1a1;" horiz-adv-x="445" d="M401 277 C401 358 387 426 361 474 C405 491 427 531 427 590 C427 607 424 628 416 647 L350 647 C355 630 360 613 360 598 C360 558 352 537 315 529 C290 548 259 559 223 559 C106 559 33 451 33 268 C33 93 98 -13 214 -13 C325 -13 401 83 401 277 L401 277 Z M326 271 C326 167 302 55 219 55 C137 55 109 162 109 270 C109 374 134 493 219 493 C303 493 326 372 326 271 L326 271 Z " />
<glyph glyph-name="Uhorn" unicode="&#x1af;" horiz-adv-x="581" d="M489 270 L489 647 C547 660 578 707 578 774 C578 792 575 817 568 835 L501 835 C506 818 510 797 510 782 C510 737 496 710 444 707 L414 707 L414 266 C414 105 350 59 281 59 C214 59 148 97 148 243 L148 707 L68 707 L68 244 C68 39 177 -13 281 -13 C377 -13 489 44 489 270 L489 270 Z " />
<glyph glyph-name="uhorn" unicode="&#x1b0;" horiz-adv-x="457" d="M385 0 L385 491 C443 502 472 543 472 609 C472 626 469 646 461 665 L395 665 C400 648 404 632 404 616 C404 571 394 549 339 546 L308 546 L308 124 C286 101 241 61 194 61 C137 61 129 118 129 199 L129 546 L54 546 L54 194 C54 113 60 -11 175 -11 C240 -11 280 28 308 63 L308 0 L385 0 Z " />
<glyph glyph-name="uni01C4" unicode="&#x1c4;" horiz-adv-x="943" d="M884 824 L855 869 L738 806 L622 869 L595 823 L738 735 L884 824 Z M917 0 L917 75 L636 75 L902 636 L902 707 L569 707 L569 632 L814 632 L551 77 L551 0 L917 0 Z M504 356 C504 584 383 707 215 707 L71 707 L71 0 L219 0 C393 0 504 111 504 356 L504 356 Z M426 345 C426 163 350 71 227 71 L148 71 L148 636 L213 636 C341 636 426 543 426 345 L426 345 Z " />
<glyph glyph-name="uni01C5" unicode="&#x1c5;" horiz-adv-x="886" d="M851 735 L817 778 L709 700 L605 779 L569 733 L706 623 L851 735 Z M858 0 L858 72 L625 72 L856 472 L856 546 L560 546 L560 474 L771 474 L541 78 L541 0 L858 0 Z M488 356 C488 584 367 707 199 707 L55 707 L55 0 L203 0 C377 0 488 111 488 356 L488 356 Z M410 345 C410 163 334 71 211 71 L132 71 L132 636 L197 636 C325 636 410 543 410 345 L410 345 Z " />
<glyph glyph-name="uni01C6" unicode="&#x1c6;" horiz-adv-x="795" d="M760 735 L726 778 L618 700 L514 779 L478 733 L615 623 L760 735 Z M767 0 L767 72 L534 72 L765 472 L765 546 L469 546 L469 474 L680 474 L450 78 L450 0 L767 0 Z M370 0 L370 754 L294 754 L294 545 C279 552 251 558 226 558 C114 558 34 465 34 264 C34 51 123 -8 189 -8 C238 -8 275 23 294 52 L294 0 L370 0 Z M294 116 C275 96 243 64 207 64 C153 64 110 128 110 272 C110 393 140 492 225 492 C251 492 280 483 294 475 L294 116 Z " />
<glyph glyph-name="uni01C7" unicode="&#x1c7;" horiz-adv-x="592" d="M521 156 L521 707 L442 707 L442 145 C442 2 420 -73 331 -136 L369 -192 C503 -113 521 1 521 156 L521 156 Z M367 0 L367 73 L149 73 L149 707 L71 707 L71 0 L367 0 Z " />
<glyph glyph-name="uni01C8" unicode="&#x1c8;" horiz-adv-x="544" d="M488 -22 L488 546 L412 546 L412 -28 C412 -110 395 -157 344 -157 C333 -157 315 -154 299 -147 L284 -215 C307 -224 326 -230 347 -230 C432 -230 488 -179 488 -22 L488 -22 Z M351 0 L351 73 L133 73 L133 707 L55 707 L55 0 L351 0 Z M509 715 L449 774 L391 715 L449 655 L509 715 Z " />
<glyph glyph-name="uni01C9" unicode="&#x1c9;" horiz-adv-x="384" d="M328 -22 L328 546 L252 546 L252 -28 C252 -110 235 -157 184 -157 C173 -157 155 -154 139 -147 L124 -215 C147 -224 166 -230 187 -230 C272 -230 328 -179 328 -22 L328 -22 Z M132 0 L132 754 L56 754 L56 0 L132 0 Z M348 715 L288 774 L230 715 L288 655 L348 715 Z " />
<glyph glyph-name="uni01CA" unicode="&#x1ca;" horiz-adv-x="784" d="M713 156 L713 707 L634 707 L634 145 C634 2 612 -73 523 -136 L561 -192 C695 -113 713 1 713 156 L713 156 Z M488 0 L488 707 L410 707 L410 253 L417 135 L413 135 L162 707 L71 707 L71 0 L149 0 L149 450 L142 563 L146 563 L395 0 L488 0 Z " />
<glyph glyph-name="uni01CB" unicode="&#x1cb;" horiz-adv-x="736" d="M680 -22 L680 546 L604 546 L604 -28 C604 -110 587 -157 536 -157 C525 -157 507 -154 491 -147 L476 -215 C499 -224 518 -230 539 -230 C624 -230 680 -179 680 -22 L680 -22 Z M700 715 L640 774 L582 715 L640 655 L700 715 Z M472 0 L472 707 L394 707 L394 253 L401 135 L397 135 L146 707 L55 707 L55 0 L133 0 L133 450 L126 563 L130 563 L379 0 L472 0 Z " />
<glyph glyph-name="uni01CC" unicode="&#x1cc;" horiz-adv-x="635" d="M579 -22 L579 546 L503 546 L503 -28 C503 -110 486 -157 435 -157 C424 -157 406 -154 390 -147 L375 -215 C398 -224 417 -230 438 -230 C523 -230 579 -179 579 -22 L579 -22 Z M600 715 L540 774 L482 715 L540 655 L600 715 Z M387 0 L387 355 C387 468 365 558 266 558 C206 558 163 525 132 486 L132 546 L56 546 L56 0 L132 0 L132 423 C168 455 201 483 244 483 C303 483 311 430 311 345 L311 0 L387 0 Z " />
<glyph glyph-name="uni01CD" unicode="&#x1cd;" horiz-adv-x="490" d="M484 0 L299 707 L201 707 L-2 0 L77 0 L152 264 L333 264 L400 0 L484 0 Z M317 333 L169 333 L232 565 L245 633 L249 633 L261 565 L317 333 Z M391 824 L362 869 L245 806 L129 869 L102 823 L245 735 L391 824 Z " />
<glyph glyph-name="uni01CE" unicode="&#x1ce;" horiz-adv-x="406" d="M392 59 C362 63 342 72 342 107 L342 409 C342 515 283 559 198 559 C152 559 96 548 59 523 L71 459 C104 474 145 486 186 486 C242 486 267 464 267 394 L267 312 L201 309 C105 305 27 259 27 144 C27 61 68 -8 158 -8 C210 -8 245 16 276 58 C287 6 340 -3 370 -5 C374 -5 380 -6 387 -6 L392 59 Z M267 112 C239 83 210 58 171 58 C118 58 99 102 99 152 C99 232 149 248 205 251 L267 254 L267 112 Z M346 735 L312 778 L204 700 L100 779 L64 733 L201 623 L346 735 Z " />
<glyph glyph-name="uni01CF" unicode="&#x1cf;" horiz-adv-x="220" d="M149 0 L149 707 L71 707 L71 0 L149 0 Z M251 826 L222 871 L105 808 L-11 871 L-38 825 L105 737 L251 826 Z " />
<glyph glyph-name="uni01D0" unicode="&#x1d0;" horiz-adv-x="188" d="M237 735 L203 778 L95 700 L-9 779 L-45 733 L92 623 L237 735 Z M132 0 L132 546 L56 546 L56 0 L132 0 Z " />
<glyph glyph-name="uni01D1" unicode="&#x1d1;" horiz-adv-x="602" d="M446 824 L417 869 L300 806 L184 869 L157 823 L300 735 L446 824 Z M562 353 C562 557 479 717 307 717 C146 717 39 577 39 353 C39 135 129 -12 294 -12 C463 -12 562 136 562 353 L562 353 Z M481 352 C481 184 422 58 298 58 C180 58 120 190 120 357 C120 524 180 649 300 649 C415 649 481 527 481 352 L481 352 Z " />
<glyph glyph-name="uni01D2" unicode="&#x1d2;" horiz-adv-x="435" d="M357 735 L323 778 L215 700 L111 779 L75 733 L212 623 L357 735 Z M401 277 C401 449 342 559 223 559 C106 559 33 451 33 268 C33 93 98 -13 214 -13 C325 -13 401 83 401 277 L401 277 Z M326 271 C326 167 302 55 219 55 C137 55 109 162 109 270 C109 374 134 493 219 493 C303 493 326 372 326 271 L326 271 Z " />
<glyph glyph-name="uni01D3" unicode="&#x1d3;" horiz-adv-x="558" d="M425 824 L396 869 L279 806 L163 869 L136 823 L279 735 L425 824 Z M489 270 L489 707 L414 707 L414 266 C414 105 350 59 281 59 C214 59 148 97 148 243 L148 707 L68 707 L68 244 C68 39 177 -13 281 -13 C377 -13 489 44 489 270 L489 270 Z " />
<glyph glyph-name="uni01D4" unicode="&#x1d4;" horiz-adv-x="440" d="M359 735 L325 778 L217 700 L113 779 L77 733 L214 623 L359 735 Z M385 0 L385 546 L308 546 L308 124 C286 101 241 61 194 61 C137 61 129 118 129 199 L129 546 L54 546 L54 194 C54 113 60 -11 175 -11 C240 -11 280 28 308 63 L308 0 L385 0 Z " />
<glyph glyph-name="uni01D5" unicode="&#x1d5;" horiz-adv-x="558" d="M406 787 L353 839 L301 787 L353 733 L406 787 Z M256 787 L204 839 L152 787 L204 733 L256 787 Z M489 270 L489 707 L414 707 L414 266 C414 105 350 59 281 59 C214 59 148 97 148 243 L148 707 L68 707 L68 244 C68 39 177 -13 281 -13 C377 -13 489 44 489 270 L489 270 Z M392 871 L392 934 L164 934 L164 871 L392 871 Z " />
<glyph glyph-name="uni01D6" unicode="&#x1d6;" horiz-adv-x="440" d="M346 681 L293 733 L240 681 L293 627 L346 681 Z M195 681 L143 733 L90 681 L143 627 L195 681 Z M330 761 L330 824 L102 824 L102 761 L330 761 Z M385 0 L385 546 L308 546 L308 124 C286 101 241 61 194 61 C137 61 129 118 129 199 L129 546 L54 546 L54 194 C54 113 60 -11 175 -11 C240 -11 280 28 308 63 L308 0 L385 0 Z " />
<glyph glyph-name="uni01D7" unicode="&#x1d7;" horiz-adv-x="558" d="M406 787 L353 839 L301 787 L353 733 L406 787 Z M256 787 L204 839 L152 787 L204 733 L256 787 Z M428 904 L403 970 L236 888 L256 840 L428 904 Z M489 270 L489 707 L414 707 L414 266 C414 105 350 59 281 59 C214 59 148 97 148 243 L148 707 L68 707 L68 244 C68 39 177 -13 281 -13 C377 -13 489 44 489 270 L489 270 Z " />
<glyph glyph-name="uni01D8" unicode="&#x1d8;" horiz-adv-x="440" d="M346 681 L293 733 L240 681 L293 627 L346 681 Z M195 681 L143 733 L90 681 L143 627 L195 681 Z M360 861 L316 916 L170 781 L206 737 L360 861 Z M385 0 L385 546 L308 546 L308 124 C286 101 241 61 194 61 C137 61 129 118 129 199 L129 546 L54 546 L54 194 C54 113 60 -11 175 -11 C240 -11 280 28 308 63 L308 0 L385 0 Z " />
<glyph glyph-name="uni01D9" unicode="&#x1d9;" horiz-adv-x="558" d="M406 787 L353 839 L301 787 L353 733 L406 787 Z M256 787 L204 839 L152 787 L204 733 L256 787 Z M489 270 L489 707 L414 707 L414 266 C414 105 350 59 281 59 C214 59 148 97 148 243 L148 707 L68 707 L68 244 C68 39 177 -13 281 -13 C377 -13 489 44 489 270 L489 270 Z M424 930 L395 975 L278 912 L162 975 L135 929 L278 841 L424 930 Z " />
<glyph glyph-name="uni01DA" unicode="&#x1da;" horiz-adv-x="440" d="M346 681 L293 733 L240 681 L293 627 L346 681 Z M195 681 L143 733 L90 681 L143 627 L195 681 Z M385 0 L385 546 L308 546 L308 124 C286 101 241 61 194 61 C137 61 129 118 129 199 L129 546 L54 546 L54 194 C54 113 60 -11 175 -11 C240 -11 280 28 308 63 L308 0 L385 0 Z M357 839 L323 882 L216 804 L112 883 L76 837 L213 727 L357 839 Z " />
<glyph glyph-name="uni01DB" unicode="&#x1db;" horiz-adv-x="558" d="M294 836 L314 884 L147 966 L121 900 L294 836 Z M406 787 L353 839 L301 787 L353 733 L406 787 Z M256 787 L204 839 L152 787 L204 733 L256 787 Z M489 270 L489 707 L414 707 L414 266 C414 105 350 59 281 59 C214 59 148 97 148 243 L148 707 L68 707 L68 244 C68 39 177 -13 281 -13 C377 -13 489 44 489 270 L489 270 Z " />
<glyph glyph-name="uni01DC" unicode="&#x1dc;" horiz-adv-x="440" d="M346 681 L293 733 L240 681 L293 627 L346 681 Z M195 681 L143 733 L90 681 L143 627 L195 681 Z M385 0 L385 546 L308 546 L308 124 C286 101 241 61 194 61 C137 61 129 118 129 199 L129 546 L54 546 L54 194 C54 113 60 -11 175 -11 C240 -11 280 28 308 63 L308 0 L385 0 Z M259 773 L112 906 L68 851 L224 727 L259 773 Z " />
<glyph glyph-name="uni01DD" unicode="&#x1dd;" horiz-adv-x="399" d="M32 292 L32 261 C32 87 76 -11 182 -11 C284 -11 365 70 365 285 C365 490 291 557 171 557 C108 557 59 542 38 530 L52 463 C80 473 128 484 154 484 C236 484 289 446 289 292 L32 292 Z M111 228 L288 228 C280 119 247 54 191 54 C136 54 111 126 111 228 L111 228 Z " />
<glyph glyph-name="uni01E2" unicode="&#x1e2;" horiz-adv-x="666" d="M534 767 L534 827 L306 827 L306 767 L534 767 Z M631 0 L631 71 L393 71 L393 321 L599 321 L599 389 L393 389 L393 638 L615 638 L615 707 L221 707 L-15 0 L63 0 L152 264 L315 264 L315 0 L631 0 Z M315 333 L172 333 L271 640 L315 640 L315 333 Z " />
<glyph glyph-name="uni01E3" unicode="&#x1e3;" horiz-adv-x="629" d="M597 269 L597 298 C597 472 552 559 447 559 C398 559 354 536 322 482 C304 534 260 559 193 559 C154 559 95 546 60 523 L72 458 C105 471 146 486 177 486 C249 486 267 464 267 394 L267 313 L202 311 C110 308 27 258 27 151 C27 72 61 -8 150 -8 C225 -8 283 51 304 78 C338 18 391 -9 457 -9 C520 -9 570 6 590 18 L577 85 C549 75 501 64 474 64 C392 64 340 102 340 256 L597 269 Z M517 328 L341 315 C349 424 382 494 437 494 C493 494 517 430 517 328 L517 328 Z M283 130 C257 106 207 60 163 60 C109 60 100 114 100 157 C100 256 196 250 267 254 C268 227 269 201 273 176 C275 162 279 144 283 130 L283 130 Z M432 669 L432 732 L204 732 L204 669 L432 669 Z " />
<glyph glyph-name="uni01E6" unicode="&#x1e6;" horiz-adv-x="512" d="M453 824 L424 869 L307 806 L191 869 L164 823 L307 735 L453 824 Z M468 304 L391 304 L391 71 C369 64 342 60 320 60 C208 60 117 156 117 359 C117 560 210 645 313 645 C369 645 396 635 444 608 L461 678 C413 704 375 717 312 717 C144 717 37 571 37 349 C37 141 132 -12 307 -12 C393 -12 439 10 468 25 L468 304 Z " />
<glyph glyph-name="uni01E7" unicode="&#x1e7;" horiz-adv-x="426" d="M366 735 L332 778 L224 700 L120 779 L84 733 L221 623 L366 735 Z M371 -31 L371 538 C326 552 272 558 240 558 C119 558 34 474 34 262 C34 31 137 -8 200 -8 C251 -8 278 18 294 38 L294 -24 C294 -137 247 -155 196 -155 C160 -155 119 -147 77 -134 L64 -207 C87 -216 146 -230 197 -230 C304 -230 371 -167 371 -31 L371 -31 Z M295 107 C271 81 252 62 217 62 C152 62 110 118 110 266 C110 405 147 489 238 489 C261 489 283 484 295 480 L295 107 Z " />
<glyph glyph-name="uni01E8" unicode="&#x1e8;" horiz-adv-x="461" d="M158 365 L192 298 L364 0 L462 0 L232 379 L448 707 L355 707 L192 447 L158 386 L158 365 Z M149 707 L71 707 L71 0 L149 0 L149 707 Z M384 824 L355 869 L238 806 L122 869 L95 823 L238 735 L384 824 Z " />
<glyph glyph-name="uni01E9" unicode="&#x1e9;" horiz-adv-x="399" d="M136 290 L156 249 L237 105 C283 20 326 -5 372 -9 L394 52 C365 66 327 96 292 155 L213 290 L381 546 L294 546 L159 337 L136 290 Z M132 754 L56 754 L56 0 L132 0 L132 754 Z M378 824 L349 869 L232 806 L116 869 L89 823 L232 735 L378 824 Z " />
<glyph glyph-name="uni01EA" unicode="&#x1ea;" horiz-adv-x="604" d="M563 353 C563 557 480 717 308 717 C147 717 40 577 40 353 C40 148 119 6 265 -10 C230 -38 199 -75 199 -119 C199 -170 224 -217 308 -217 C345 -217 370 -208 382 -200 L368 -148 C355 -154 339 -157 325 -157 C289 -157 270 -143 270 -109 C270 -59 353 -13 381 2 C497 45 563 176 563 353 L563 353 Z M482 352 C482 184 423 58 299 58 C181 58 121 190 121 357 C121 524 181 649 301 649 C416 649 482 527 482 352 L482 352 Z " />
<glyph glyph-name="uni01EB" unicode="&#x1eb;" horiz-adv-x="438" d="M402 277 C402 449 343 559 224 559 C107 559 34 451 34 268 C34 118 81 19 167 -6 C129 -34 96 -72 96 -119 C96 -170 121 -217 205 -217 C242 -217 267 -208 279 -200 L265 -148 C252 -154 236 -157 222 -157 C186 -157 167 -143 167 -109 C167 -67 227 -27 262 -6 C347 18 402 112 402 277 L402 277 Z M327 271 C327 167 303 55 220 55 C138 55 110 162 110 270 C110 374 135 493 220 493 C304 493 327 372 327 271 L327 271 Z " />
<glyph glyph-name="uni01EC" unicode="&#x1ec;" horiz-adv-x="604" d="M563 353 C563 557 480 717 308 717 C147 717 40 577 40 353 C40 148 119 6 265 -10 C230 -38 199 -75 199 -119 C199 -170 224 -217 308 -217 C345 -217 370 -208 382 -200 L368 -148 C355 -154 339 -157 325 -157 C289 -157 270 -143 270 -109 C270 -59 353 -13 381 2 C497 45 563 176 563 353 L563 353 Z M482 352 C482 184 423 58 299 58 C181 58 121 190 121 357 C121 524 181 649 301 649 C416 649 482 527 482 352 L482 352 Z M413 767 L413 827 L185 827 L185 767 L413 767 Z " />
<glyph glyph-name="uni01ED" unicode="&#x1ed;" horiz-adv-x="438" d="M402 277 C402 449 343 559 224 559 C107 559 34 451 34 268 C34 118 81 19 167 -6 C129 -34 96 -72 96 -119 C96 -170 121 -217 205 -217 C242 -217 267 -208 279 -200 L265 -148 C252 -154 236 -157 222 -157 C186 -157 167 -143 167 -109 C167 -67 227 -27 262 -6 C347 18 402 112 402 277 L402 277 Z M327 271 C327 167 303 55 220 55 C138 55 110 162 110 270 C110 374 135 493 220 493 C304 493 327 372 327 271 L327 271 Z M332 669 L332 732 L104 732 L104 669 L332 669 Z " />
<glyph glyph-name="uni01EE" unicode="&#x1ee;" horiz-adv-x="386" d="M338 824 L309 869 L192 806 L76 869 L49 823 L192 735 L338 824 Z M100 394 L108 339 C116 340 134 340 143 339 C210 334 267 285 267 196 C267 82 215 60 159 60 C120 60 73 81 44 103 L22 33 C56 7 105 -12 168 -12 C275 -12 348 63 348 202 C348 318 267 388 178 402 L335 642 L335 707 L35 707 L35 636 L258 636 L100 394 Z " />
<glyph glyph-name="uni01EF" unicode="&#x1ef;" horiz-adv-x="337" d="M86 182 C158 175 233 132 233 32 C233 -87 145 -144 37 -162 L48 -228 C178 -213 309 -126 309 37 C309 147 239 222 151 236 L305 483 L305 547 L18 547 L18 478 L234 478 L84 239 L86 182 Z M313 735 L279 778 L171 700 L67 779 L31 733 L168 623 L313 735 Z " />
<glyph glyph-name="uni01F1" unicode="&#x1f1;" horiz-adv-x="943" d="M917 0 L917 75 L636 75 L902 636 L902 707 L569 707 L569 632 L814 632 L551 77 L551 0 L917 0 Z M504 356 C504 584 383 707 215 707 L71 707 L71 0 L219 0 C393 0 504 111 504 356 L504 356 Z M426 345 C426 163 350 71 227 71 L148 71 L148 636 L213 636 C341 636 426 543 426 345 L426 345 Z " />
<glyph glyph-name="uni01F2" unicode="&#x1f2;" horiz-adv-x="886" d="M858 0 L858 72 L625 72 L856 472 L856 546 L560 546 L560 474 L771 474 L541 78 L541 0 L858 0 Z M488 356 C488 584 367 707 199 707 L55 707 L55 0 L203 0 C377 0 488 111 488 356 L488 356 Z M410 345 C410 163 334 71 211 71 L132 71 L132 636 L197 636 C325 636 410 543 410 345 L410 345 Z " />
<glyph glyph-name="uni01F3" unicode="&#x1f3;" horiz-adv-x="795" d="M767 0 L767 72 L534 72 L765 472 L765 546 L469 546 L469 474 L680 474 L450 78 L450 0 L767 0 Z M370 0 L370 754 L294 754 L294 545 C279 552 251 558 226 558 C114 558 34 465 34 264 C34 51 123 -8 189 -8 C238 -8 275 23 294 52 L294 0 L370 0 Z M294 116 C275 96 243 64 207 64 C153 64 110 128 110 272 C110 393 140 492 225 492 C251 492 280 483 294 475 L294 116 Z " />
<glyph glyph-name="uni01F4" unicode="&#x1f4;" horiz-adv-x="512" d="M439 809 L414 875 L247 793 L267 745 L439 809 Z M468 304 L391 304 L391 71 C369 64 342 60 320 60 C208 60 117 156 117 359 C117 560 210 645 313 645 C369 645 396 635 444 608 L461 678 C413 704 375 717 312 717 C144 717 37 571 37 349 C37 141 132 -12 307 -12 C393 -12 439 10 468 25 L468 304 Z " />
<glyph glyph-name="uni01F5" unicode="&#x1f5;" horiz-adv-x="426" d="M341 742 L297 797 L151 662 L187 618 L341 742 Z M371 -31 L371 538 C326 552 272 558 240 558 C119 558 34 474 34 262 C34 31 137 -8 200 -8 C251 -8 278 18 294 38 L294 -24 C294 -137 247 -155 196 -155 C160 -155 119 -147 77 -134 L64 -207 C87 -216 146 -230 197 -230 C304 -230 371 -167 371 -31 L371 -31 Z M295 107 C271 81 252 62 217 62 C152 62 110 118 110 266 C110 405 147 489 238 489 C261 489 283 484 295 480 L295 107 Z " />
<glyph glyph-name="uni01F8" unicode="&#x1f8;" horiz-adv-x="559" d="M334 745 L354 793 L187 875 L161 809 L334 745 Z M488 0 L488 707 L410 707 L410 253 L417 135 L413 135 L162 707 L71 707 L71 0 L149 0 L149 450 L142 563 L146 563 L395 0 L488 0 Z " />
<glyph glyph-name="uni01F9" unicode="&#x1f9;" horiz-adv-x="440" d="M286 661 L139 794 L95 739 L251 615 L286 661 Z M387 0 L387 355 C387 468 365 558 266 558 C206 558 163 525 132 486 L132 546 L56 546 L56 0 L132 0 L132 423 C168 455 201 483 244 483 C303 483 311 430 311 345 L311 0 L387 0 Z " />
<glyph glyph-name="uni01FA" unicode="&#x1fa;" horiz-adv-x="490" d="M484 0 L299 707 L201 707 L-2 0 L77 0 L152 264 L333 264 L400 0 L484 0 Z M317 333 L169 333 L232 565 L245 633 L249 633 L261 565 L317 333 Z M350 957 L325 1023 L158 941 L178 893 L350 957 Z M342 808 C342 870 290 894 250 894 C203 894 158 862 158 806 C158 749 203 724 252 724 C302 724 342 756 342 808 L342 808 Z M297 807 C297 782 277 763 251 763 C225 763 204 783 204 809 C204 836 223 853 250 853 C274 853 297 834 297 807 L297 807 Z " />
<glyph glyph-name="uni01FB" unicode="&#x1fb;" horiz-adv-x="406" d="M392 59 C362 63 342 72 342 107 L342 409 C342 515 283 559 198 559 C152 559 96 548 59 523 L71 459 C104 474 145 486 186 486 C242 486 267 464 267 394 L267 312 L201 309 C105 305 27 259 27 144 C27 61 68 -8 158 -8 C210 -8 245 16 276 58 C287 6 340 -3 370 -5 C374 -5 380 -6 387 -6 L392 59 Z M267 112 C239 83 210 58 171 58 C118 58 99 102 99 152 C99 232 149 248 205 251 L267 254 L267 112 Z M307 863 L282 929 L115 847 L135 799 L307 863 Z M291 698 C291 760 239 785 197 785 C149 785 104 753 104 696 C104 638 150 612 199 612 C251 612 291 644 291 698 L291 698 Z M245 697 C245 671 225 652 198 652 C172 652 151 672 151 699 C151 725 170 743 197 743 C222 743 245 723 245 697 L245 697 Z " />
<glyph glyph-name="AEacute" unicode="&#x1fc;" horiz-adv-x="666" d="M490 809 L465 875 L298 793 L318 745 L490 809 Z M631 0 L631 71 L393 71 L393 321 L599 321 L599 389 L393 389 L393 638 L615 638 L615 707 L221 707 L-15 0 L63 0 L152 264 L315 264 L315 0 L631 0 Z M315 333 L172 333 L271 640 L315 640 L315 333 Z " />
<glyph glyph-name="aeacute" unicode="&#x1fd;" horiz-adv-x="629" d="M471 742 L427 797 L281 662 L317 618 L471 742 Z M597 269 L597 298 C597 472 552 559 447 559 C398 559 354 536 322 482 C304 534 260 559 193 559 C154 559 95 546 60 523 L72 458 C105 471 146 486 177 486 C249 486 267 464 267 394 L267 313 L202 311 C110 308 27 258 27 151 C27 72 61 -8 150 -8 C225 -8 283 51 304 78 C338 18 391 -9 457 -9 C520 -9 570 6 590 18 L577 85 C549 75 501 64 474 64 C392 64 340 102 340 256 L597 269 Z M517 328 L341 315 C349 424 382 494 437 494 C493 494 517 430 517 328 L517 328 Z M283 130 C257 106 207 60 163 60 C109 60 100 114 100 157 C100 256 196 250 267 254 C268 227 269 201 273 176 C275 162 279 144 283 130 L283 130 Z " />
<glyph glyph-name="Oslashacute" unicode="&#x1fe;" horiz-adv-x="623" d="M573 353 C573 451 553 539 514 604 L572 687 L530 718 L481 648 C441 691 386 717 318 717 C157 717 50 577 50 353 C50 253 69 168 106 105 L47 20 L88 -12 L138 60 C179 14 235 -12 305 -12 C474 -12 573 136 573 353 L573 353 Z M492 352 C492 184 433 58 309 58 C256 58 215 84 185 129 L462 529 C481 481 492 420 492 352 L492 352 Z M131 357 C131 524 191 649 311 649 C362 649 404 624 435 581 L159 181 C140 230 131 291 131 357 L131 357 Z M434 809 L409 875 L242 793 L262 745 L434 809 Z " />
<glyph glyph-name="oslashacute" unicode="&#x1ff;" horiz-adv-x="458" d="M413 277 C413 351 402 413 380 460 L433 540 L395 565 L354 503 C325 539 285 559 235 559 C118 559 45 451 45 268 C45 195 56 134 78 87 L23 5 L62 -19 L104 44 C134 7 175 -13 226 -13 C337 -13 413 83 413 277 L413 277 Z M338 271 C338 167 314 55 231 55 C193 55 167 77 149 112 L327 381 C335 346 338 307 338 271 L338 271 Z M121 270 C121 374 146 493 231 493 C267 493 293 470 309 436 L131 167 C124 199 121 234 121 270 L121 270 Z M355 742 L311 797 L165 662 L201 618 L355 742 Z " />
<glyph glyph-name="Scommaaccent" unicode="&#x218;" horiz-adv-x="395" d="M218 -62 L152 -62 L141 -232 L197 -232 L218 -62 Z M368 184 C368 380 124 396 124 540 C124 605 158 640 219 640 C252 640 285 632 318 616 L342 678 C311 698 271 711 217 711 C118 711 45 647 45 535 C45 337 287 326 287 179 C287 99 238 63 171 63 C132 63 93 77 53 103 L22 41 C63 10 109 -9 173 -9 C275 -9 368 53 368 184 L368 184 Z " />
<glyph glyph-name="scommaaccent" unicode="&#x219;" horiz-adv-x="330" d="M196 -62 L130 -62 L119 -232 L175 -232 L196 -62 Z M307 146 C307 309 109 307 109 422 C109 461 131 490 182 490 C215 490 253 478 272 468 L285 533 C265 543 227 556 184 556 C97 556 35 507 35 417 C35 256 232 253 232 142 C232 93 193 60 140 60 C105 60 63 73 35 84 L24 16 C53 3 101 -8 139 -8 C223 -8 307 40 307 146 L307 146 Z " />
<glyph glyph-name="uni021A" unicode="&#x21a;" horiz-adv-x="421" d="M245 -62 L179 -62 L168 -232 L224 -232 L245 -62 Z M421 635 L421 707 L-1 707 L-1 635 L171 635 L171 0 L250 0 L250 635 L421 635 Z " />
<glyph glyph-name="uni021B" unicode="&#x21b;" horiz-adv-x="293" d="M217 -62 L151 -62 L140 -232 L196 -232 L217 -62 Z M291 13 L281 78 C258 68 236 63 214 63 C164 63 144 89 144 152 L144 479 L266 479 L266 546 L145 546 L145 658 L70 658 L70 546 L13 546 L13 479 L70 479 L70 158 C70 16 125 -6 199 -6 C238 -6 261 0 291 13 L291 13 Z " />
<glyph glyph-name="uni021C" unicode="&#x21c;" horiz-adv-x="386" d="M100 394 L108 339 C116 340 134 340 143 339 C210 334 267 285 267 196 C267 82 215 60 159 60 C120 60 73 81 44 103 L22 33 C56 7 105 -12 168 -12 C275 -12 348 63 348 202 C348 318 267 388 178 402 L335 642 L335 707 L35 707 L35 636 L258 636 L100 394 Z " />
<glyph glyph-name="uni021D" unicode="&#x21d;" horiz-adv-x="337" d="M86 182 C158 175 233 132 233 32 C233 -87 145 -144 37 -162 L48 -228 C178 -213 309 -126 309 37 C309 147 239 222 151 236 L305 483 L305 547 L18 547 L18 478 L234 478 L84 239 L86 182 Z " />
<glyph glyph-name="uni021E" unicode="&#x21e;" horiz-adv-x="554" d="M483 0 L483 707 L405 707 L405 391 L149 391 L149 707 L71 707 L71 0 L149 0 L149 319 L405 319 L405 0 L483 0 Z M419 824 L390 869 L273 806 L157 869 L130 823 L273 735 L419 824 Z " />
<glyph glyph-name="uni021F" unicode="&#x21f;" horiz-adv-x="440" d="M387 0 L387 355 C387 468 365 558 266 558 C206 558 163 525 132 486 L132 754 L56 754 L56 0 L132 0 L132 423 C168 455 201 483 244 483 C303 483 311 430 311 345 L311 0 L387 0 Z M376 824 L347 869 L230 806 L114 869 L87 823 L230 735 L376 824 Z " />
<glyph glyph-name="uni0226" unicode="&#x226;" horiz-adv-x="490" d="M484 0 L299 707 L201 707 L-2 0 L77 0 L152 264 L333 264 L400 0 L484 0 Z M317 333 L169 333 L232 565 L245 633 L249 633 L261 565 L317 333 Z M301 802 L248 854 L195 802 L248 748 L301 802 Z " />
<glyph glyph-name="uni0227" unicode="&#x227;" horiz-adv-x="406" d="M392 59 C362 63 342 72 342 107 L342 409 C342 515 283 559 198 559 C152 559 96 548 59 523 L71 459 C104 474 145 486 186 486 C242 486 267 464 267 394 L267 312 L201 309 C105 305 27 259 27 144 C27 61 68 -8 158 -8 C210 -8 245 16 276 58 C287 6 340 -3 370 -5 C374 -5 380 -6 387 -6 L392 59 Z M267 112 C239 83 210 58 171 58 C118 58 99 102 99 152 C99 232 149 248 205 251 L267 254 L267 112 Z M262 715 L202 774 L144 715 L202 655 L262 715 Z " />
<glyph glyph-name="uni0228" unicode="&#x228;" horiz-adv-x="423" d="M388 0 L388 71 L149 71 L149 321 L356 321 L356 389 L149 389 L149 638 L372 638 L372 707 L71 707 L71 0 L388 0 Z M292 -127 C292 -105 284 -78 270 -53 L200 -53 C214 -82 223 -103 223 -122 C223 -144 198 -170 157 -193 L187 -248 C247 -219 292 -177 292 -127 L292 -127 Z " />
<glyph glyph-name="uni0229" unicode="&#x229;" horiz-adv-x="399" d="M367 256 L367 287 C367 461 319 559 211 559 C111 559 35 477 35 264 C35 57 107 -9 232 -9 C289 -9 342 6 361 18 L348 83 C318 73 277 61 241 61 C165 61 111 102 111 256 L367 256 Z M288 320 L112 320 C119 429 153 494 207 494 C263 494 288 423 288 320 L288 320 Z M267 -127 C267 -105 259 -78 245 -53 L175 -53 C189 -82 198 -103 198 -122 C198 -144 173 -170 132 -193 L162 -248 C222 -219 267 -177 267 -127 L267 -127 Z " />
<glyph glyph-name="uni022E" unicode="&#x22e;" horiz-adv-x="602" d="M354 802 L301 854 L248 802 L301 748 L354 802 Z M562 353 C562 557 479 717 307 717 C146 717 39 577 39 353 C39 135 129 -12 294 -12 C463 -12 562 136 562 353 L562 353 Z M481 352 C481 184 422 58 298 58 C180 58 120 190 120 357 C120 524 180 649 300 649 C415 649 481 527 481 352 L481 352 Z " />
<glyph glyph-name="uni022F" unicode="&#x22f;" horiz-adv-x="435" d="M401 277 C401 449 342 559 223 559 C106 559 33 451 33 268 C33 93 98 -13 214 -13 C325 -13 401 83 401 277 L401 277 Z M326 271 C326 167 302 55 219 55 C137 55 109 162 109 270 C109 374 134 493 219 493 C303 493 326 372 326 271 L326 271 Z M276 715 L216 774 L158 715 L216 655 L276 715 Z " />
<glyph glyph-name="uni0232" unicode="&#x232;" horiz-adv-x="434" d="M434 707 L349 707 L248 443 L219 352 L215 352 L188 444 L95 707 L7 707 L176 269 L176 0 L255 0 L255 268 L434 707 Z M338 767 L338 827 L110 827 L110 767 L338 767 Z " />
<glyph glyph-name="uni0233" unicode="&#x233;" horiz-adv-x="379" d="M376 546 L298 546 L203 157 L190 71 L185 71 L174 158 L89 546 L8 546 L138 0 L159 0 L106 -220 L181 -220 L376 546 Z M302 669 L302 732 L74 732 L74 669 L302 669 Z " />
<glyph glyph-name="uni0237" unicode="&#x237;" horiz-adv-x="188" d="M132 -22 L132 546 L56 546 L56 -28 C56 -110 39 -157 -12 -157 C-23 -157 -41 -154 -57 -147 L-72 -215 C-49 -224 -30 -230 -9 -230 C76 -230 132 -179 132 -22 L132 -22 Z " />
<glyph glyph-name="uni0259" unicode="&#x259;" horiz-adv-x="399" d="M32 292 L32 261 C32 87 76 -11 182 -11 C284 -11 365 70 365 285 C365 490 291 557 171 557 C108 557 59 542 38 530 L52 463 C80 473 128 484 154 484 C236 484 289 446 289 292 L32 292 Z M111 228 L288 228 C280 119 247 54 191 54 C136 54 111 126 111 228 L111 228 Z " />
<glyph glyph-name="uni02BC" unicode="&#x2bc;" horiz-adv-x="546" d="M-9 554 L51 554 C72 592 89 637 89 715 L89 755 L17 755 L17 677 C17 638 3 585 -9 554 L-9 554 Z " />
<glyph glyph-name="circumflex" unicode="&#x2c6;" horiz-adv-x="390" d="M336 676 L196 787 L55 676 L89 633 L197 712 L304 631 L336 676 Z " />
<glyph glyph-name="caron" unicode="&#x2c7;" horiz-adv-x="390" d="M338 735 L304 778 L196 700 L92 779 L56 733 L193 623 L338 735 Z " />
<glyph glyph-name="breve" unicode="&#x2d8;" horiz-adv-x="369" d="M328 722 L289 759 C267 734 238 714 196 714 C156 714 125 738 103 762 L64 720 C88 687 133 649 195 649 C264 649 313 698 328 722 L328 722 Z " />
<glyph glyph-name="dotaccent" unicode="&#x2d9;" horiz-adv-x="204" d="M161 715 L101 774 L43 715 L101 655 L161 715 Z " />
<glyph glyph-name="ring" unicode="&#x2da;" horiz-adv-x="395" d="M292 701 C292 763 239 788 198 788 C150 788 105 756 105 699 C105 641 151 615 200 615 C251 615 292 647 292 701 L292 701 Z M246 700 C246 674 226 655 199 655 C172 655 152 675 152 702 C152 728 171 746 198 746 C223 746 246 726 246 700 L246 700 Z " />
<glyph glyph-name="ogonek" unicode="&#x2db;" horiz-adv-x="417" d="M374 -148 C361 -154 345 -157 331 -157 C295 -157 276 -143 276 -109 C276 -58 364 -11 390 4 L361 42 C316 22 205 -35 205 -119 C205 -170 230 -217 314 -217 C351 -217 376 -208 388 -200 L374 -148 Z " />
<glyph glyph-name="tilde" unicode="&#x2dc;" horiz-adv-x="390" d="M336 711 L304 749 C293 741 280 727 249 727 C221 727 195 751 154 751 C112 751 85 733 60 708 L89 668 C110 683 121 688 146 688 C180 688 213 663 252 663 C297 663 320 690 336 711 L336 711 Z " />
<glyph glyph-name="hungarumlaut" unicode="&#x2dd;" horiz-adv-x="421" d="M393 732 L355 785 L198 657 L229 612 L393 732 Z M221 761 L173 806 L39 654 L79 616 L221 761 Z " />
<glyph glyph-name="gravecmb" unicode="&#x300;" d="M-136 661 L-283 794 L-327 739 L-170 615 L-136 661 Z " />
<glyph glyph-name="acutecmb" unicode="&#x301;" d="M-91 742 L-135 797 L-281 662 L-244 618 L-91 742 Z " />
<glyph glyph-name="uni0302" unicode="&#x302;" d="M-63 676 L-203 787 L-344 676 L-310 633 L-202 712 L-95 631 L-63 676 Z " />
<glyph glyph-name="tildecmb" unicode="&#x303;" d="M-65 711 L-98 749 C-109 741 -122 727 -152 727 C-180 727 -207 751 -248 751 C-290 751 -317 733 -341 708 L-312 668 C-292 683 -280 688 -256 688 C-222 688 -189 663 -150 663 C-105 663 -82 690 -65 711 L-65 711 Z " />
<glyph glyph-name="uni0304" unicode="&#x304;" d="M-95 669 L-95 732 L-323 732 L-323 669 L-95 669 Z " />
<glyph glyph-name="uni0306" unicode="&#x306;" d="M-81 722 L-120 759 C-142 734 -171 714 -213 714 C-253 714 -284 738 -306 762 L-345 720 C-321 687 -276 649 -214 649 C-144 649 -96 698 -81 722 L-81 722 Z " />
<glyph glyph-name="uni0307" unicode="&#x307;" d="M-158 715 L-218 774 L-276 715 L-218 655 L-158 715 Z " />
<glyph glyph-name="uni0308" unicode="&#x308;" d="M-83 715 L-136 767 L-188 715 L-136 661 L-83 715 Z M-234 715 L-286 767 L-338 715 L-286 661 L-234 715 Z " />
<glyph glyph-name="hookcmb" unicode="&#x309;" d="M-144 747 C-144 797 -176 835 -230 835 C-252 835 -269 831 -283 823 L-281 768 C-268 775 -254 777 -243 777 C-227 777 -207 769 -207 739 C-207 707 -235 682 -254 667 L-225 632 C-194 648 -144 694 -144 747 L-144 747 Z " />
<glyph glyph-name="uni030A" unicode="&#x30a;" d="M-120 701 C-120 763 -172 788 -214 788 C-262 788 -307 756 -307 699 C-307 641 -261 615 -212 615 C-160 615 -120 647 -120 701 L-120 701 Z M-166 700 C-166 674 -186 655 -213 655 C-239 655 -260 675 -260 702 C-260 728 -241 746 -214 746 C-189 746 -166 726 -166 700 L-166 700 Z " />
<glyph glyph-name="uni030B" unicode="&#x30b;" d="M41 732 L2 785 L-154 657 L-123 612 L41 732 Z M-131 761 L-179 806 L-313 654 L-273 616 L-131 761 Z " />
<glyph glyph-name="uni030C" unicode="&#x30c;" d="M-72 735 L-106 778 L-213 700 L-317 779 L-353 733 L-216 623 L-72 735 Z " />
<glyph glyph-name="uni0310" unicode="&#x310;" d="M-77 723 L-116 760 C-138 735 -167 715 -209 715 C-249 715 -280 740 -302 763 L-341 721 C-317 689 -272 650 -210 650 C-141 650 -92 699 -77 723 L-77 723 Z M-149 809 L-206 865 L-261 809 L-206 752 L-149 809 Z " />
<glyph glyph-name="dotbelowcmb" unicode="&#x323;" d="M-219 -222 L-156 -159 L-219 -96 L-281 -159 L-219 -222 Z " />
<glyph glyph-name="uni0324" unicode="&#x324;" d="M-83 -154 L-136 -102 L-189 -154 L-136 -207 L-83 -154 Z M-234 -154 L-286 -102 L-339 -154 L-286 -207 L-234 -154 Z " />
<glyph glyph-name="uni0325" unicode="&#x325;" d="M-123 -127 C-123 -64 -175 -39 -217 -39 C-264 -39 -310 -72 -310 -129 C-310 -187 -264 -213 -215 -213 C-163 -213 -123 -180 -123 -127 L-123 -127 Z M-169 -128 C-169 -154 -189 -173 -216 -173 C-242 -173 -263 -152 -263 -126 C-263 -99 -244 -82 -217 -82 C-192 -82 -169 -101 -169 -128 L-169 -128 Z " />
<glyph glyph-name="uni0327" unicode="&#x327;" d="M-164 -127 C-164 -105 -173 -78 -186 -53 L-256 -53 C-242 -82 -233 -103 -233 -122 C-233 -144 -258 -170 -299 -193 L-269 -248 C-210 -219 -164 -177 -164 -127 L-164 -127 Z " />
<glyph glyph-name="uni0328" unicode="&#x328;" d="M-169 -148 C-182 -153 -199 -156 -212 -156 C-248 -156 -267 -143 -267 -109 C-267 -58 -178 -11 -153 4 L-183 45 C-227 23 -338 -32 -338 -116 C-338 -171 -313 -217 -229 -217 C-191 -217 -167 -208 -154 -200 L-169 -148 Z " />
<glyph glyph-name="uni032E" unicode="&#x32e;" d="M-86 -115 L-125 -78 C-146 -103 -176 -123 -217 -123 C-258 -123 -289 -99 -310 -75 L-349 -116 C-325 -150 -281 -188 -219 -188 C-149 -188 -100 -139 -86 -115 L-86 -115 Z " />
<glyph glyph-name="uni0331" unicode="&#x331;" d="M-102 -183 L-102 -120 L-329 -120 L-329 -183 L-102 -183 Z " />
<glyph glyph-name="uni0374" unicode="&#x374;" horiz-adv-x="172" d="M30 554 L93 554 C114 592 132 637 132 715 L132 755 L57 755 L57 681 C57 642 43 585 30 554 L30 554 Z " />
<glyph glyph-name="uni0375" unicode="&#x375;" horiz-adv-x="213" d="M72 -122 L137 -122 C158 -84 177 -38 177 39 L177 80 L98 80 L98 -7 C98 -45 84 -90 72 -122 L72 -122 Z " />
<glyph glyph-name="uni037E" unicode="&#x37e;" horiz-adv-x="402" d="M244 456 L244 546 L155 546 L155 456 L244 456 Z M242 39 L242 83 L163 83 L163 -15 C163 -53 149 -90 137 -125 L203 -125 C224 -85 242 -38 242 39 L242 39 Z " />
<glyph glyph-name="tonos" unicode="&#x384;" horiz-adv-x="451" d="M264 631 L327 631 L394 789 L319 789 L264 631 Z " />
<glyph glyph-name="dieresistonos" unicode="&#x385;" horiz-adv-x="436" d="M152 624 L213 624 L281 780 L209 780 L152 624 Z M93 629 L145 682 L93 734 L41 682 L93 629 Z M323 629 L376 682 L323 734 L271 682 L323 629 Z " />
<glyph glyph-name="Alphatonos" unicode="&#x386;" horiz-adv-x="490" d="M484 0 L299 707 L201 707 L-2 0 L77 0 L152 264 L333 264 L400 0 L484 0 Z M317 333 L169 333 L232 565 L245 633 L249 633 L261 565 L317 333 Z M-18 550 L45 550 L112 708 L37 708 L-18 550 Z " />
<glyph glyph-name="anoteleia" unicode="&#x387;" horiz-adv-x="162" d="M135 355 L81 408 L28 355 L81 301 L135 355 Z " />
<glyph glyph-name="Epsilontonos" unicode="&#x388;" horiz-adv-x="423" d="M-106 551 L-43 551 L24 709 L-51 709 L-106 551 Z M388 0 L388 71 L149 71 L149 321 L356 321 L356 389 L149 389 L149 638 L372 638 L372 707 L71 707 L71 0 L388 0 Z " />
<glyph glyph-name="Etatonos" unicode="&#x389;" horiz-adv-x="554" d="M-109 550 L-46 550 L21 708 L-54 708 L-109 550 Z M483 0 L483 707 L405 707 L405 391 L149 391 L149 707 L71 707 L71 0 L149 0 L149 319 L405 319 L405 0 L483 0 Z " />
<glyph glyph-name="Iotatonos" unicode="&#x38a;" horiz-adv-x="220" d="M149 0 L149 707 L71 707 L71 0 L149 0 Z M-109 550 L-46 550 L21 708 L-54 708 L-109 550 Z " />
<glyph glyph-name="Omicrontonos" unicode="&#x38c;" horiz-adv-x="602" d="M-84 550 L-21 550 L46 708 L-29 708 L-84 550 Z M562 353 C562 557 479 717 307 717 C146 717 39 577 39 353 C39 135 129 -12 294 -12 C463 -12 562 136 562 353 L562 353 Z M481 352 C481 184 422 58 298 58 C180 58 120 190 120 357 C120 524 180 649 300 649 C415 649 481 527 481 352 L481 352 Z " />
<glyph glyph-name="Upsilontonos" unicode="&#x38e;" horiz-adv-x="468" d="M-148 550 L-85 550 L-18 708 L-93 708 L-148 550 Z M451 707 L366 707 L265 443 L236 352 L232 352 L205 444 L112 707 L24 707 L193 269 L193 0 L272 0 L272 268 L451 707 Z " />
<glyph glyph-name="Omegatonos" unicode="&#x38f;" horiz-adv-x="625" d="M-61 551 L2 551 L69 709 L-6 709 L-61 551 Z M598 0 L598 73 L439 73 C495 127 567 239 567 395 C567 572 487 717 312 717 C153 717 58 593 58 385 C58 205 138 117 185 73 L27 73 L27 0 L266 0 L266 77 C177 167 137 256 137 385 C137 541 194 646 307 646 C424 646 490 537 490 392 C490 259 440 160 358 77 L358 0 L598 0 Z " />
<glyph glyph-name="iotadieresistonos" unicode="&#x390;" horiz-adv-x="202" d="M48 624 L109 624 L177 780 L105 780 L48 624 Z M-11 629 L41 682 L-11 734 L-63 682 L-11 629 Z M219 629 L272 682 L219 734 L167 682 L219 629 Z M141 -6 C160 -6 178 -3 192 0 L189 59 C182 58 173 58 166 58 C142 58 130 73 130 112 L130 546 L53 546 L53 111 C53 25 86 -6 141 -6 L141 -6 Z " />
<glyph glyph-name="Alpha" unicode="&#x391;" horiz-adv-x="490" d="M484 0 L299 707 L201 707 L-2 0 L77 0 L152 264 L333 264 L400 0 L484 0 Z M317 333 L169 333 L232 565 L245 633 L249 633 L261 565 L317 333 Z " />
<glyph glyph-name="Beta" unicode="&#x392;" horiz-adv-x="464" d="M427 206 C427 281 392 353 323 374 L323 377 C371 402 391 476 391 531 C391 632 337 707 218 707 L71 707 L71 0 L239 0 C375 0 427 88 427 206 L427 206 Z M310 516 C310 440 287 398 214 398 L149 398 L149 639 L203 639 C275 639 310 603 310 516 L310 516 Z M346 203 C346 105 296 72 227 72 L149 72 L149 329 L205 329 C298 329 346 305 346 203 L346 203 Z " />
<glyph glyph-name="Gamma" unicode="&#x393;" horiz-adv-x="366" d="M368 635 L368 707 L71 707 L71 0 L150 0 L150 635 L368 635 Z " />
<glyph glyph-name="uni0394" unicode="&#x394;" horiz-adv-x="491" d="M484 0 L301 707 L203 707 L-3 0 L484 0 Z M385 69 L96 69 L235 566 L249 641 L252 641 L264 566 L385 69 Z " />
<glyph glyph-name="Epsilon" unicode="&#x395;" horiz-adv-x="423" d="M388 0 L388 71 L149 71 L149 321 L356 321 L356 389 L149 389 L149 638 L372 638 L372 707 L71 707 L71 0 L388 0 Z " />
<glyph glyph-name="Zeta" unicode="&#x396;" horiz-adv-x="416" d="M391 0 L391 75 L110 75 L376 636 L376 707 L43 707 L43 632 L288 632 L25 77 L25 0 L391 0 Z " />
<glyph glyph-name="Eta" unicode="&#x397;" horiz-adv-x="554" d="M483 0 L483 707 L405 707 L405 391 L149 391 L149 707 L71 707 L71 0 L149 0 L149 319 L405 319 L405 0 L483 0 Z " />
<glyph glyph-name="Theta" unicode="&#x398;" horiz-adv-x="602" d="M428 340 L414 392 C394 381 373 376 351 376 C318 376 287 392 251 392 C222 392 193 382 171 363 L185 311 C205 323 227 330 249 330 C280 330 312 313 348 313 C376 313 406 323 428 340 L428 340 Z M562 353 C562 557 479 717 307 717 C146 717 39 577 39 353 C39 135 129 -12 294 -12 C463 -12 562 136 562 353 L562 353 Z M481 352 C481 184 422 58 298 58 C180 58 120 190 120 357 C120 524 180 649 300 649 C415 649 481 527 481 352 L481 352 Z " />
<glyph glyph-name="Iota" unicode="&#x399;" horiz-adv-x="220" d="M149 0 L149 707 L71 707 L71 0 L149 0 Z " />
<glyph glyph-name="Kappa" unicode="&#x39a;" horiz-adv-x="461" d="M158 365 L192 298 L364 0 L462 0 L232 379 L448 707 L355 707 L192 447 L158 386 L158 365 Z M149 707 L71 707 L71 0 L149 0 L149 707 Z " />
<glyph glyph-name="Lambda" unicode="&#x39b;" horiz-adv-x="473" d="M466 0 L288 707 L191 707 L0 0 L77 0 L216 523 L236 625 L239 625 L255 527 L381 0 L466 0 Z " />
<glyph glyph-name="Mu" unicode="&#x39c;" horiz-adv-x="680" d="M609 0 L609 707 L502 707 L338 77 L336 77 L183 707 L71 707 L71 0 L149 0 L149 447 L142 565 L147 565 L285 0 L386 0 L532 575 L538 575 L531 459 L531 0 L609 0 Z " />
<glyph glyph-name="Nu" unicode="&#x39d;" horiz-adv-x="559" d="M488 0 L488 707 L410 707 L410 253 L417 135 L413 135 L162 707 L71 707 L71 0 L149 0 L149 450 L142 563 L146 563 L395 0 L488 0 Z " />
<glyph glyph-name="Xi" unicode="&#x39e;" horiz-adv-x="409" d="M371 634 L371 707 L38 707 L38 634 L371 634 Z M350 319 L350 391 L59 391 L59 319 L350 319 Z M379 0 L379 73 L31 73 L31 0 L379 0 Z " />
<glyph glyph-name="Omicron" unicode="&#x39f;" horiz-adv-x="602" d="M562 353 C562 557 479 717 307 717 C146 717 39 577 39 353 C39 135 129 -12 294 -12 C463 -12 562 136 562 353 L562 353 Z M481 352 C481 184 422 58 298 58 C180 58 120 190 120 357 C120 524 180 649 300 649 C415 649 481 527 481 352 L481 352 Z " />
<glyph glyph-name="Pi" unicode="&#x3a0;" horiz-adv-x="540" d="M469 0 L469 707 L71 707 L71 0 L150 0 L150 633 L390 633 L390 0 L469 0 Z " />
<glyph glyph-name="Rho" unicode="&#x3a1;" horiz-adv-x="436" d="M183 255 L199 255 C344 255 417 357 417 483 C417 625 343 707 227 707 L71 707 L71 0 L149 0 L149 636 L219 636 C290 636 335 581 335 478 C335 374 276 327 203 327 L183 327 L183 255 Z " />
<glyph glyph-name="Sigma" unicode="&#x3a3;" horiz-adv-x="411" d="M382 0 L382 74 L122 74 L255 352 L121 635 L382 635 L382 707 L36 707 L36 633 L167 353 L36 73 L36 0 L382 0 Z " />
<glyph glyph-name="Tau" unicode="&#x3a4;" horiz-adv-x="423" d="M422 635 L422 707 L0 707 L0 635 L172 635 L172 0 L251 0 L251 635 L422 635 Z " />
<glyph glyph-name="Upsilon" unicode="&#x3a5;" horiz-adv-x="468" d="M451 707 L366 707 L265 443 L236 352 L232 352 L205 444 L112 707 L24 707 L193 269 L193 0 L272 0 L272 268 L451 707 Z " />
<glyph glyph-name="Phi" unicode="&#x3a6;" horiz-adv-x="591" d="M562 360 C562 555 468 651 334 651 L334 713 L257 713 L257 651 C123 651 29 555 29 360 C29 162 123 69 257 69 L257 0 L334 0 L334 69 C468 69 562 162 562 360 L562 360 Z M485 360 C485 218 436 139 333 139 L333 581 C436 581 485 502 485 360 L485 360 Z M258 139 C155 139 105 218 105 360 C105 502 155 581 258 581 L258 139 Z " />
<glyph glyph-name="Chi" unicode="&#x3a7;" horiz-adv-x="447" d="M438 0 L267 375 L426 707 L342 707 L252 507 L226 444 L224 444 L199 507 L118 707 L28 707 L181 374 L-2 0 L86 0 L198 250 L221 306 L224 306 L246 247 L349 0 L438 0 Z " />
<glyph glyph-name="Psi" unicode="&#x3a8;" horiz-adv-x="549" d="M314 0 L314 166 C408 169 509 224 509 420 L509 707 L431 707 L431 419 C431 281 371 242 314 237 L314 707 L236 707 L236 237 C178 241 118 280 118 419 L118 707 L40 707 L40 420 C40 223 141 169 236 166 L236 0 L314 0 Z " />
<glyph glyph-name="uni03A9" unicode="&#x3a9;" horiz-adv-x="625" d="M598 0 L598 73 L439 73 C495 127 567 239 567 395 C567 572 487 717 312 717 C153 717 58 593 58 385 C58 205 138 117 185 73 L27 73 L27 0 L266 0 L266 77 C177 167 137 256 137 385 C137 541 194 646 307 646 C424 646 490 537 490 392 C490 259 440 160 358 77 L358 0 L598 0 Z " />
<glyph glyph-name="Iotadieresis" unicode="&#x3aa;" horiz-adv-x="220" d="M149 0 L149 707 L71 707 L71 0 L149 0 Z M238 807 L185 859 L133 807 L185 753 L238 807 Z M88 807 L36 859 L-16 807 L36 753 L88 807 Z " />
<glyph glyph-name="Upsilondieresis" unicode="&#x3ab;" horiz-adv-x="468" d="M451 707 L366 707 L265 443 L236 352 L232 352 L205 444 L112 707 L24 707 L193 269 L193 0 L272 0 L272 268 L451 707 Z M362 807 L309 859 L257 807 L309 753 L362 807 Z M212 807 L160 859 L108 807 L160 753 L212 807 Z " />
<glyph glyph-name="alphatonos" unicode="&#x3ac;" horiz-adv-x="437" d="M185 631 L248 631 L315 789 L240 789 L185 631 Z M175 -9 C228 -9 273 31 301 103 L304 103 C306 11 345 -6 413 -6 L418 56 C387 60 367 69 367 114 L367 546 L298 546 L298 479 L295 479 C279 531 240 554 197 554 C100 554 35 436 35 250 C35 45 112 -9 175 -9 L175 -9 Z M186 63 C141 63 111 129 111 258 C111 377 135 487 202 487 C245 487 271 440 292 359 L292 257 C292 129 233 63 186 63 L186 63 Z " />
<glyph glyph-name="epsilontonos" unicode="&#x3ad;" horiz-adv-x="364" d="M164 631 L227 631 L294 789 L219 789 L164 631 Z M196 -10 C262 -10 309 11 343 34 L323 93 C292 76 252 59 208 59 C132 59 108 106 108 156 C108 216 142 259 198 259 L270 259 L270 325 L202 325 C150 325 125 353 125 405 C125 454 147 490 211 490 C258 490 295 470 319 454 L341 516 C318 533 277 558 209 558 C97 558 49 488 49 407 C49 341 80 313 115 293 C63 264 32 222 32 147 C32 49 88 -10 196 -10 L196 -10 Z " />
<glyph glyph-name="etatonos" unicode="&#x3ae;" horiz-adv-x="453" d="M195 631 L258 631 L325 789 L250 789 L195 631 Z M324 -220 L400 -220 L400 353 C400 433 393 559 279 559 C218 559 175 524 138 476 C134 490 120 545 50 551 C42 552 33 552 24 552 L19 490 C48 486 69 474 69 439 L69 0 L146 0 L146 422 C169 445 212 485 260 485 C316 485 324 428 324 348 L324 -220 Z " />
<glyph glyph-name="iotatonos" unicode="&#x3af;" horiz-adv-x="201" d="M55 631 L118 631 L185 789 L110 789 L55 631 Z M141 -6 C160 -6 178 -3 192 0 L189 59 C182 58 173 58 166 58 C142 58 130 73 130 112 L130 546 L53 546 L53 111 C53 25 86 -6 141 -6 L141 -6 Z " />
<glyph glyph-name="upsilondieresistonos" unicode="&#x3b0;" horiz-adv-x="434" d="M146 624 L207 624 L275 780 L203 780 L146 624 Z M87 629 L139 682 L87 734 L35 682 L87 629 Z M317 629 L370 682 L317 734 L265 682 L317 629 Z M212 -7 C344 -7 397 122 397 270 C397 377 369 486 331 556 L260 540 C296 467 321 362 321 256 C321 147 293 62 220 62 C178 62 139 90 139 194 L139 442 C139 521 81 553 19 554 L12 493 C36 490 63 478 63 435 L63 193 C63 41 132 -7 212 -7 L212 -7 Z " />
<glyph glyph-name="alpha" unicode="&#x3b1;" horiz-adv-x="437" d="M175 -9 C228 -9 273 31 301 103 L304 103 C306 11 345 -6 413 -6 L418 56 C387 60 367 69 367 114 L367 546 L298 546 L298 479 L295 479 C279 531 240 554 197 554 C100 554 35 436 35 250 C35 45 112 -9 175 -9 L175 -9 Z M186 63 C141 63 111 129 111 258 C111 377 135 487 202 487 C245 487 271 440 292 359 L292 257 C292 129 233 63 186 63 L186 63 Z " />
<glyph glyph-name="beta" unicode="&#x3b2;" horiz-adv-x="426" d="M55 -220 L130 -220 L130 10 C150 2 185 -11 227 -11 C326 -11 399 61 399 199 C399 321 340 383 270 404 L270 406 C328 435 367 501 367 584 C367 689 306 764 214 764 C113 764 55 667 55 534 L55 -220 Z M219 58 C183 58 144 71 130 77 L130 539 C130 626 158 695 214 695 C261 695 293 646 293 579 C293 503 253 441 195 433 L195 364 C264 357 323 315 323 197 C323 103 285 58 219 58 L219 58 Z " />
<glyph glyph-name="gamma" unicode="&#x3b3;" horiz-adv-x="382" d="M142 -220 L214 -220 C214 -206 216 -178 216 -147 C216 -102 214 -55 209 -9 C269 143 362 364 369 546 L291 546 C288 408 241 245 194 109 L190 109 C160 306 104 480 80 546 L-2 546 C39 447 108 236 139 13 C137 -22 136 -52 136 -83 C136 -128 138 -173 142 -220 L142 -220 Z " />
<glyph glyph-name="delta" unicode="&#x3b4;" horiz-adv-x="421" d="M209 -9 C310 -9 395 58 395 240 C395 381 344 447 274 500 C217 542 153 575 153 632 C153 666 177 695 237 695 C276 695 321 683 356 669 L368 735 C330 753 273 764 232 764 C154 764 77 725 77 630 C77 574 106 541 150 504 C78 444 29 363 29 229 C29 65 102 -9 209 -9 L209 -9 Z M213 60 C137 60 104 130 104 237 C104 365 152 421 203 463 C268 413 319 371 319 235 C319 138 293 60 213 60 L213 60 Z " />
<glyph glyph-name="epsilon" unicode="&#x3b5;" horiz-adv-x="364" d="M196 -10 C262 -10 309 11 343 34 L323 93 C292 76 252 59 208 59 C132 59 108 106 108 156 C108 216 142 259 198 259 L270 259 L270 325 L202 325 C150 325 125 353 125 405 C125 454 147 490 211 490 C258 490 295 470 319 454 L341 516 C318 533 277 558 209 558 C97 558 49 488 49 407 C49 341 80 313 115 293 C63 264 32 222 32 147 C32 49 88 -10 196 -10 L196 -10 Z " />
<glyph glyph-name="zeta" unicode="&#x3b6;" horiz-adv-x="353" d="M275 -206 C302 -167 332 -112 332 -58 C332 24 263 37 204 53 C146 70 105 91 105 187 C105 362 247 585 339 690 L339 754 L58 754 L58 687 L255 687 C147 566 28 357 28 178 C28 42 95 11 163 -8 C203 -20 261 -29 261 -77 C261 -105 239 -146 223 -174 L275 -206 Z " />
<glyph glyph-name="eta" unicode="&#x3b7;" horiz-adv-x="453" d="M324 -220 L400 -220 L400 353 C400 433 393 559 279 559 C218 559 175 524 138 476 C134 490 120 545 50 551 C42 552 33 552 24 552 L19 490 C48 486 69 474 69 439 L69 0 L146 0 L146 422 C169 445 212 485 260 485 C316 485 324 428 324 348 L324 -220 Z " />
<glyph glyph-name="theta" unicode="&#x3b8;" horiz-adv-x="424" d="M212 -10 C346 -10 384 155 384 377 C384 601 346 764 214 764 C83 764 41 601 41 371 C41 151 79 -10 212 -10 L212 -10 Z M212 56 C134 56 114 201 113 356 L312 356 C311 199 291 56 212 56 L212 56 Z M113 421 C116 569 138 699 212 699 C287 699 308 567 311 421 L113 421 Z " />
<glyph glyph-name="iota" unicode="&#x3b9;" horiz-adv-x="201" d="M141 -6 C160 -6 178 -3 192 0 L189 59 C182 58 173 58 166 58 C142 58 130 73 130 112 L130 546 L53 546 L53 111 C53 25 86 -6 141 -6 L141 -6 Z " />
<glyph glyph-name="kappa" unicode="&#x3ba;" horiz-adv-x="399" d="M136 289 L156 249 L237 105 C283 20 326 -5 372 -9 L394 52 C365 66 327 96 292 155 L213 290 L381 546 L294 546 L159 337 L136 289 Z M132 546 L56 546 L56 0 L132 0 L132 546 Z " />
<glyph glyph-name="lambda" unicode="&#x3bb;" horiz-adv-x="393" d="M376 -7 L391 57 C370 64 353 82 338 143 L219 622 C195 720 168 773 93 773 C59 773 36 764 9 748 L25 686 C48 698 64 704 86 704 C120 704 131 663 142 621 L161 546 L143 546 L6 0 L86 0 L173 388 L183 475 L189 475 L201 389 L269 111 C286 42 304 1 376 -7 L376 -7 Z " />
<glyph glyph-name="uni03BC" unicode="&#x3bc;" horiz-adv-x="451" d="M56 -220 L132 -220 L132 10 C147 -3 167 -12 193 -12 C242 -12 288 26 314 66 C319 55 337 -6 432 -6 L437 51 C409 55 385 67 385 103 L385 546 L309 546 L309 124 C291 106 240 61 200 61 C138 61 132 110 132 198 L132 546 L56 546 L56 -220 Z " />
<glyph glyph-name="nu" unicode="&#x3bd;" horiz-adv-x="376" d="M127 0 L222 0 C323 233 353 376 353 485 C353 510 349 531 346 546 L271 546 C274 525 278 505 278 480 C278 381 260 258 185 77 L179 77 L90 546 L8 546 L127 0 Z " />
<glyph glyph-name="xi" unicode="&#x3be;" horiz-adv-x="329" d="M273 -206 C299 -168 330 -112 330 -66 C330 9 284 34 214 60 C154 83 102 103 102 198 C102 310 201 364 286 374 L286 441 C198 445 126 479 126 573 C126 645 169 696 239 696 C262 696 289 692 317 684 L324 751 C297 759 266 764 239 764 C130 764 50 692 50 568 C50 480 110 423 180 405 L180 403 C98 371 26 306 26 186 C26 63 111 20 163 3 C221 -16 263 -33 263 -77 C263 -103 240 -148 224 -176 L273 -206 Z " />
<glyph glyph-name="omicron" unicode="&#x3bf;" horiz-adv-x="416" d="M206 -9 C316 -9 381 85 381 274 C381 449 335 558 211 558 C97 558 34 451 34 267 C34 93 89 -9 206 -9 L206 -9 Z M210 60 C128 60 111 161 111 272 C111 374 127 490 208 490 C294 490 305 373 305 272 C305 166 292 60 210 60 L210 60 Z " />
<glyph glyph-name="pi" unicode="&#x3c0;" horiz-adv-x="471" d="M398 -6 C418 -6 436 -3 450 0 L446 59 C439 58 430 58 423 58 C399 58 388 73 388 112 L388 478 L440 478 L440 546 L17 546 L17 478 L71 478 L71 0 L148 0 L148 478 L311 478 L311 111 C311 25 344 -6 398 -6 L398 -6 Z " />
<glyph glyph-name="rho" unicode="&#x3c1;" horiz-adv-x="416" d="M154 67 L146 0 C166 -7 185 -12 207 -12 C315 -12 381 78 381 268 C381 445 338 558 216 558 C104 558 46 460 46 274 L46 -220 L122 -220 L122 274 C122 378 135 490 214 490 C295 490 305 368 305 264 C305 150 280 57 204 57 C189 57 172 60 154 67 L154 67 Z " />
<glyph glyph-name="uni03C2" unicode="&#x3c2;" horiz-adv-x="347" d="M265 -206 C291 -167 321 -112 321 -59 C321 26 262 34 210 57 C155 82 110 108 110 276 C110 409 156 488 225 488 C263 488 289 478 317 462 L341 523 C314 542 279 558 224 558 C104 558 33 447 33 271 C33 81 96 30 155 4 C203 -17 250 -21 250 -78 C250 -103 229 -144 212 -174 L265 -206 Z " />
<glyph glyph-name="sigma" unicode="&#x3c3;" horiz-adv-x="437" d="M209 -9 C352 -9 389 141 389 269 C389 348 375 421 341 481 C350 481 412 478 415 478 L415 544 C364 548 292 554 238 554 C78 554 32 405 32 265 C32 138 67 -9 209 -9 L209 -9 Z M213 60 C119 60 108 189 108 269 C108 357 130 485 232 485 C241 485 249 485 259 484 C299 432 312 348 312 268 C312 191 307 60 213 60 L213 60 Z " />
<glyph glyph-name="tau" unicode="&#x3c4;" horiz-adv-x="318" d="M211 -10 C236 -10 256 -7 276 -1 L270 58 C260 56 251 55 240 55 C202 55 186 76 186 120 L186 478 L314 478 L314 546 L6 546 L6 478 L111 478 L111 102 C111 29 147 -10 211 -10 L211 -10 Z " />
<glyph glyph-name="upsilon" unicode="&#x3c5;" horiz-adv-x="434" d="M212 -7 C344 -7 397 122 397 270 C397 377 369 486 331 556 L260 540 C296 467 321 362 321 256 C321 147 293 62 220 62 C178 62 139 90 139 194 L139 442 C139 521 81 553 19 554 L12 493 C36 490 63 478 63 435 L63 193 C63 41 132 -7 212 -7 L212 -7 Z " />
<glyph glyph-name="phi" unicode="&#x3c6;" horiz-adv-x="543" d="M234 -220 L310 -220 L310 -10 C435 2 513 110 513 269 C513 464 415 551 310 559 L310 660 L234 660 L234 559 C122 547 30 452 30 270 C30 92 118 -1 234 -10 L234 -220 Z M235 53 C164 65 105 137 105 272 C105 409 163 485 235 495 L235 53 Z M309 53 L309 494 C378 482 440 412 440 272 C440 146 391 64 309 53 L309 53 Z " />
<glyph glyph-name="chi" unicode="&#x3c7;" horiz-adv-x="361" d="M362 -225 L375 -157 C350 -149 330 -122 315 -79 L224 182 L354 546 L269 546 L204 325 L193 272 L191 271 L132 447 C105 525 86 551 18 563 L4 495 C29 486 50 459 64 416 L148 177 L8 -220 L90 -220 L159 -2 L180 82 L182 84 L247 -108 C274 -184 294 -213 362 -225 L362 -225 Z " />
<glyph glyph-name="psi" unicode="&#x3c8;" horiz-adv-x="551" d="M243 -220 L318 -220 L318 -4 C457 16 517 148 517 292 C517 389 493 496 462 558 L391 540 C417 484 440 384 440 289 C440 178 408 86 318 67 L318 658 L243 658 L243 66 C193 80 138 111 138 199 L138 442 C138 518 84 553 19 554 L12 493 C36 490 62 478 62 435 L62 200 C62 56 150 7 243 -5 L243 -220 Z " />
<glyph glyph-name="omega" unicode="&#x3c9;" horiz-adv-x="574" d="M181 -9 C229 -9 264 19 286 77 C309 19 343 -9 392 -9 C486 -9 539 102 539 237 C539 347 519 450 442 546 L360 546 C434 455 463 362 463 242 C463 177 450 58 386 58 C352 58 323 117 323 210 L323 364 L250 364 L250 210 C250 117 224 60 190 60 C126 60 110 177 110 242 C110 361 136 454 211 546 L131 546 C59 452 34 348 34 237 C34 102 87 -9 181 -9 L181 -9 Z " />
<glyph glyph-name="iotadieresis" unicode="&#x3ca;" horiz-adv-x="202" d="M221 715 L168 767 L115 715 L168 661 L221 715 Z M70 715 L18 767 L-35 715 L18 661 L70 715 Z M141 -6 C160 -6 178 -3 192 0 L189 59 C182 58 173 58 166 58 C142 58 130 73 130 112 L130 546 L53 546 L53 111 C53 25 86 -6 141 -6 L141 -6 Z " />
<glyph glyph-name="upsilondieresis" unicode="&#x3cb;" horiz-adv-x="434" d="M320 715 L267 767 L214 715 L267 661 L320 715 Z M169 715 L117 767 L64 715 L117 661 L169 715 Z M212 -7 C344 -7 397 122 397 270 C397 377 369 486 331 556 L260 540 C296 467 321 362 321 256 C321 147 293 62 220 62 C178 62 139 90 139 194 L139 442 C139 521 81 553 19 554 L12 493 C36 490 63 478 63 435 L63 193 C63 41 132 -7 212 -7 L212 -7 Z " />
<glyph glyph-name="omicrontonos" unicode="&#x3cc;" horiz-adv-x="416" d="M161 631 L224 631 L291 789 L216 789 L161 631 Z M206 -9 C316 -9 381 85 381 274 C381 449 335 558 211 558 C97 558 34 451 34 267 C34 93 89 -9 206 -9 L206 -9 Z M210 60 C128 60 111 161 111 272 C111 374 127 490 208 490 C294 490 305 373 305 272 C305 166 292 60 210 60 L210 60 Z " />
<glyph glyph-name="upsilontonos" unicode="&#x3cd;" horiz-adv-x="434" d="M161 631 L224 631 L291 789 L216 789 L161 631 Z M212 -7 C344 -7 397 122 397 270 C397 377 369 486 331 556 L260 540 C296 467 321 362 321 256 C321 147 293 62 220 62 C178 62 139 90 139 194 L139 442 C139 521 81 553 19 554 L12 493 C36 490 63 478 63 435 L63 193 C63 41 132 -7 212 -7 L212 -7 Z " />
<glyph glyph-name="omegatonos" unicode="&#x3ce;" horiz-adv-x="573" d="M254 631 L317 631 L384 789 L309 789 L254 631 Z M181 -9 C229 -9 264 19 286 77 C309 19 343 -9 392 -9 C486 -9 539 102 539 237 C539 347 519 450 442 546 L360 546 C434 455 463 362 463 242 C463 177 450 58 386 58 C352 58 323 117 323 210 L323 364 L250 364 L250 210 C250 117 224 60 190 60 C126 60 110 177 110 242 C110 361 136 454 211 546 L131 546 C59 452 34 348 34 237 C34 102 87 -9 181 -9 L181 -9 Z " />
<glyph glyph-name="uni03D0" unicode="&#x3d0;" horiz-adv-x="426" d="M213 -9 C335 -9 398 104 398 250 C398 397 336 444 266 454 L266 457 C341 500 370 551 370 617 C370 698 325 764 235 764 C95 764 44 602 44 408 L44 320 C44 80 104 -9 213 -9 L213 -9 Z M218 60 C151 60 116 130 116 292 L116 355 L165 384 C188 398 210 403 229 403 C286 403 325 353 325 242 C325 128 283 60 218 60 L218 60 Z M116 423 L116 437 C116 609 160 695 229 695 C270 695 298 663 298 611 C298 546 256 508 185 465 L116 423 Z " />
<glyph glyph-name="uni03D8" unicode="&#x3d8;" horiz-adv-x="589" d="M557 353 C557 557 473 717 302 717 C140 717 34 577 34 355 C34 157 110 11 251 -9 L251 -172 L323 -172 L323 -10 C470 8 557 152 557 353 L557 353 Z M478 354 C478 184 417 58 292 58 C174 58 111 191 111 356 C111 524 175 648 294 648 C409 648 478 526 478 354 L478 354 Z " />
<glyph glyph-name="uni03D9" unicode="&#x3d9;" horiz-adv-x="439" d="M258 -190 L258 26 C347 43 409 125 409 288 C409 466 346 558 222 558 C109 558 29 468 29 284 C29 126 86 42 181 25 L181 -190 L258 -190 Z M335 288 C335 182 303 90 221 90 C140 90 104 177 104 288 C104 389 138 490 219 490 C305 490 335 389 335 288 L335 288 Z " />
<glyph glyph-name="uni03DA" unicode="&#x3da;" horiz-adv-x="427" d="M404 671 C352 707 296 716 233 716 C101 716 32 601 32 413 C32 64 296 174 296 51 C296 -21 213 -59 135 -89 L149 -148 C223 -129 368 -73 368 57 C368 269 110 102 110 424 C110 556 138 645 235 645 C294 645 333 632 384 607 L404 671 Z " />
<glyph glyph-name="uni03DB" unicode="&#x3db;" horiz-adv-x="361" d="M339 523 C312 542 277 558 222 558 C101 558 31 462 31 289 C31 97 100 59 159 36 C226 10 246 0 246 -42 C246 -71 206 -101 133 -101 L133 -162 C277 -162 319 -92 319 -26 C319 40 270 64 215 89 C157 114 107 127 107 292 C107 425 155 488 220 488 C261 488 289 474 319 457 L339 523 Z " />
<glyph glyph-name="uni03DC" unicode="&#x3dc;" horiz-adv-x="410" d="M385 638 L385 707 L71 707 L71 0 L149 0 L149 298 L370 298 L370 368 L149 368 L149 638 L385 638 Z " />
<glyph glyph-name="uni03DD" unicode="&#x3dd;" horiz-adv-x="319" d="M331 756 C315 763 271 774 236 774 C159 774 82 741 82 589 L82 374 L26 374 L26 308 L82 308 L82 -220 L158 -220 L158 308 L241 308 L241 374 L158 374 L158 598 C158 678 188 700 239 700 C270 700 299 693 320 687 L331 756 Z " />
<glyph glyph-name="uni03DE" unicode="&#x3de;" horiz-adv-x="347" d="M203 -111 L340 329 L107 329 L232 709 L152 702 L5 258 L242 258 L123 -128 L203 -111 Z " />
<glyph glyph-name="uni03DF" unicode="&#x3df;" horiz-adv-x="343" d="M210 -50 L336 355 L103 355 L210 685 L130 677 L1 284 L238 284 L130 -67 L210 -50 Z " />
<glyph glyph-name="uni03E0" unicode="&#x3e0;" horiz-adv-x="564" d="M50 192 L414 401 C427 375 437 345 442 311 L128 132 L159 78 L447 242 L447 231 C444 142 411 50 354 -9 L396 -57 C451 -2 520 103 520 256 C520 432 422 584 265 584 C205 584 150 559 100 512 L131 463 C175 497 220 515 261 515 C302 515 345 493 379 453 L19 246 L50 192 Z " />
<glyph glyph-name="uni03E1" unicode="&#x3e1;" horiz-adv-x="533" d="M34 182 L398 391 C411 365 421 335 426 301 L112 122 L143 68 L431 232 L431 221 C428 132 395 40 339 -19 L380 -67 C436 -12 505 93 505 246 C505 422 406 574 249 574 C190 574 135 549 84 502 L115 453 C159 487 204 505 245 505 C286 505 329 483 363 443 L3 236 L34 182 Z " />
<glyph glyph-name="uni0400" unicode="&#x400;" horiz-adv-x="423" d="M299 745 L319 793 L152 875 L126 809 L299 745 Z M388 0 L388 71 L149 71 L149 321 L356 321 L356 389 L149 389 L149 638 L372 638 L372 707 L71 707 L71 0 L388 0 Z " />
<glyph glyph-name="uni0401" unicode="&#x401;" horiz-adv-x="423" d="M347 807 L294 859 L242 807 L294 753 L347 807 Z M197 807 L145 859 L93 807 L145 753 L197 807 Z M388 0 L388 71 L149 71 L149 321 L356 321 L356 389 L149 389 L149 638 L372 638 L372 707 L71 707 L71 0 L388 0 Z " />
<glyph glyph-name="uni0402" unicode="&#x402;" horiz-adv-x="544" d="M2 636 L147 636 L147 0 L225 0 L225 321 C264 351 309 366 346 366 C411 366 438 308 438 211 C438 5 339 -130 304 -174 L357 -220 C450 -103 516 41 516 215 C516 333 476 434 362 434 C309 434 269 416 225 393 L225 636 L403 636 L403 707 L2 707 L2 636 Z " />
<glyph glyph-name="uni0403" unicode="&#x403;" horiz-adv-x="387" d="M354 810 L329 876 L162 794 L182 746 L354 810 Z M389 635 L389 707 L71 707 L71 0 L150 0 L150 635 L389 635 Z " />
<glyph glyph-name="uni0404" unicode="&#x404;" horiz-adv-x="492" d="M465 23 L449 91 C413 77 367 64 321 64 C217 64 130 143 119 319 L384 319 L384 391 L119 391 C127 566 212 640 306 640 C362 640 393 630 445 608 L462 678 C419 703 385 715 306 715 C138 715 39 566 39 349 C39 141 134 -10 308 -10 C395 -10 436 8 465 23 L465 23 Z " />
<glyph glyph-name="uni0405" unicode="&#x405;" horiz-adv-x="395" d="M368 184 C368 380 124 396 124 540 C124 605 158 640 219 640 C252 640 285 632 318 616 L342 678 C311 698 271 711 217 711 C118 711 45 647 45 535 C45 337 287 326 287 179 C287 99 238 63 171 63 C132 63 93 77 53 103 L22 41 C63 10 109 -9 173 -9 C275 -9 368 53 368 184 L368 184 Z " />
<glyph glyph-name="uni0406" unicode="&#x406;" horiz-adv-x="220" d="M149 0 L149 707 L71 707 L71 0 L149 0 Z " />
<glyph glyph-name="uni0407" unicode="&#x407;" horiz-adv-x="220" d="M149 0 L149 707 L71 707 L71 0 L149 0 Z M239 807 L186 859 L134 807 L186 753 L239 807 Z M89 807 L37 859 L-15 807 L37 753 L89 807 Z " />
<glyph glyph-name="uni0408" unicode="&#x408;" horiz-adv-x="221" d="M151 156 L151 707 L72 707 L72 145 C72 2 50 -73 -39 -136 L-1 -192 C133 -113 151 1 151 156 L151 156 Z " />
<glyph glyph-name="uni0409" unicode="&#x409;" horiz-adv-x="713" d="M461 363 L486 363 C561 363 614 312 614 215 C614 113 557 72 478 72 L426 72 L426 707 L135 707 C124 413 108 223 86 158 C69 109 27 71 -10 45 L35 -22 C84 10 127 53 151 116 C177 183 193 386 208 637 L348 637 L348 0 L480 0 C626 0 695 95 695 219 C695 355 616 433 496 433 L461 434 L461 363 Z " />
<glyph glyph-name="uni040A" unicode="&#x40a;" horiz-adv-x="769" d="M518 363 L543 363 C618 363 670 312 670 215 C670 113 614 72 535 72 L483 72 L483 707 L405 707 L405 391 L149 391 L149 707 L71 707 L71 0 L149 0 L149 319 L405 319 L405 0 L537 0 C683 0 752 95 752 219 C752 355 673 433 553 433 L518 434 L518 363 Z " />
<glyph glyph-name="uni040B" unicode="&#x40b;" horiz-adv-x="552" d="M517 0 L517 259 C517 368 472 434 368 434 C321 434 269 418 225 393 L225 637 L403 637 L403 707 L2 707 L2 637 L147 637 L147 0 L225 0 L225 318 C265 350 310 366 345 366 C392 366 439 353 439 258 L439 0 L517 0 Z " />
<glyph glyph-name="uni040C" unicode="&#x40c;" horiz-adv-x="461" d="M158 365 L192 298 L364 0 L462 0 L232 379 L448 707 L355 707 L192 447 L158 386 L158 365 Z M149 707 L71 707 L71 0 L149 0 L149 707 Z M371 810 L346 876 L179 794 L199 746 L371 810 Z " />
<glyph glyph-name="uni040D" unicode="&#x40d;" horiz-adv-x="569" d="M357 745 L377 793 L210 875 L184 809 L357 745 Z M71 707 L71 0 L145 0 L395 504 L420 567 L424 567 L420 468 L420 0 L498 0 L498 707 L424 707 L188 238 L149 140 L146 140 L149 239 L149 707 L71 707 Z " />
<glyph glyph-name="uni040E" unicode="&#x40e;" horiz-adv-x="425" d="M172 220 L208 220 L197 188 C173 107 137 79 93 59 L128 -9 C190 20 225 49 265 180 L428 707 L345 707 L254 387 L230 283 L226 283 L194 387 L81 707 L-3 707 L172 220 Z M220 824 C177 824 150 853 133 876 L92 839 C119 787 167 759 220 759 C272 759 320 787 348 839 L308 876 C292 854 264 824 220 824 L220 824 Z " />
<glyph glyph-name="uni040F" unicode="&#x40f;" horiz-adv-x="550" d="M71 707 L71 0 L235 0 L235 -153 L315 -153 L315 0 L479 0 L479 707 L401 707 L401 71 L149 71 L149 707 L71 707 Z " />
<glyph glyph-name="uni0410" unicode="&#x410;" horiz-adv-x="490" d="M484 0 L299 707 L201 707 L-2 0 L77 0 L152 264 L333 264 L400 0 L484 0 Z M317 333 L169 333 L232 565 L245 633 L249 633 L261 565 L317 333 Z " />
<glyph glyph-name="uni0411" unicode="&#x411;" horiz-adv-x="452" d="M183 357 L212 357 C291 357 341 305 341 212 C341 113 287 72 204 72 L149 72 L149 638 L388 638 L388 707 L71 707 L71 0 L201 0 C353 0 422 94 422 216 C422 350 345 427 220 427 L183 428 L183 357 Z " />
<glyph glyph-name="uni0412" unicode="&#x412;" horiz-adv-x="464" d="M427 206 C427 281 392 353 323 374 L323 377 C371 402 391 476 391 531 C391 632 337 707 218 707 L71 707 L71 0 L239 0 C375 0 427 88 427 206 L427 206 Z M310 516 C310 440 287 398 214 398 L149 398 L149 639 L203 639 C275 639 310 603 310 516 L310 516 Z M346 203 C346 105 296 72 227 72 L149 72 L149 329 L205 329 C298 329 346 305 346 203 L346 203 Z " />
<glyph glyph-name="uni0413" unicode="&#x413;" horiz-adv-x="387" d="M389 635 L389 707 L71 707 L71 0 L150 0 L150 635 L389 635 Z " />
<glyph glyph-name="uni0414" unicode="&#x414;" horiz-adv-x="530" d="M426 0 L426 -153 L503 -153 L503 72 L436 72 L436 707 L153 707 C145 477 122 310 109 257 C98 210 76 138 49 72 L1 72 L1 -153 L78 -153 L78 0 L426 0 Z M358 635 L358 71 L135 71 C162 150 175 193 187 251 C195 291 214 419 226 635 L358 635 Z " />
<glyph glyph-name="uni0415" unicode="&#x415;" horiz-adv-x="423" d="M388 0 L388 71 L149 71 L149 321 L356 321 L356 389 L149 389 L149 638 L372 638 L372 707 L71 707 L71 0 L388 0 Z " />
<glyph glyph-name="uni0416" unicode="&#x416;" horiz-adv-x="663" d="M381 361 L408 304 L566 0 L662 0 L455 376 L646 707 L555 707 L411 442 L381 381 L381 361 Z M371 707 L292 707 L292 0 L371 0 L371 707 Z M282 381 L256 436 L108 707 L17 707 L208 376 L1 0 L96 0 L256 306 L282 361 L282 381 Z " />
<glyph glyph-name="uni0417" unicode="&#x417;" horiz-adv-x="403" d="M102 392 L102 324 L151 324 C225 324 284 291 284 197 C284 102 231 67 167 67 C124 67 83 79 42 105 L19 39 C57 11 103 -8 173 -8 C310 -8 363 96 363 197 C363 320 285 353 260 362 L260 364 C284 379 342 423 342 537 C342 641 275 712 175 712 C114 712 67 692 38 673 L62 613 C93 630 122 640 162 640 C223 640 262 598 262 520 C262 437 217 392 151 392 L102 392 Z " />
<glyph glyph-name="uni0418" unicode="&#x418;" horiz-adv-x="569" d="M71 707 L71 0 L145 0 L395 504 L420 567 L424 567 L420 468 L420 0 L498 0 L498 707 L424 707 L188 238 L149 140 L146 140 L149 239 L149 707 L71 707 Z " />
<glyph glyph-name="uni0419" unicode="&#x419;" horiz-adv-x="569" d="M71 707 L71 0 L145 0 L395 504 L420 567 L424 567 L420 468 L420 0 L498 0 L498 707 L424 707 L188 238 L149 140 L146 140 L149 239 L149 707 L71 707 Z M279 824 C236 824 209 853 192 876 L151 839 C178 787 226 759 279 759 C331 759 379 787 407 839 L367 876 C351 854 323 824 279 824 L279 824 Z " />
<glyph glyph-name="uni041A" unicode="&#x41a;" horiz-adv-x="461" d="M158 365 L192 298 L364 0 L462 0 L232 379 L448 707 L355 707 L192 447 L158 386 L158 365 Z M149 707 L71 707 L71 0 L149 0 L149 707 Z " />
<glyph glyph-name="uni041B" unicode="&#x41b;" horiz-adv-x="498" d="M348 0 L426 0 L426 707 L135 707 C124 413 108 223 86 158 C69 109 27 71 -10 45 L35 -22 C84 10 127 53 151 116 C177 183 193 386 208 637 L348 637 L348 0 Z " />
<glyph glyph-name="uni041C" unicode="&#x41c;" horiz-adv-x="680" d="M609 0 L609 707 L502 707 L338 77 L336 77 L183 707 L71 707 L71 0 L149 0 L149 447 L142 565 L147 565 L285 0 L386 0 L532 575 L538 575 L531 459 L531 0 L609 0 Z " />
<glyph glyph-name="uni041D" unicode="&#x41d;" horiz-adv-x="554" d="M483 0 L483 707 L405 707 L405 391 L149 391 L149 707 L71 707 L71 0 L149 0 L149 319 L405 319 L405 0 L483 0 Z " />
<glyph glyph-name="uni041E" unicode="&#x41e;" horiz-adv-x="602" d="M562 353 C562 557 479 717 307 717 C146 717 39 577 39 353 C39 135 129 -12 294 -12 C463 -12 562 136 562 353 L562 353 Z M481 352 C481 184 422 58 298 58 C180 58 120 190 120 357 C120 524 180 649 300 649 C415 649 481 527 481 352 L481 352 Z " />
<glyph glyph-name="uni041F" unicode="&#x41f;" horiz-adv-x="551" d="M480 0 L480 707 L71 707 L71 0 L149 0 L149 636 L402 636 L402 0 L480 0 Z " />
<glyph glyph-name="uni0420" unicode="&#x420;" horiz-adv-x="436" d="M183 255 L199 255 C344 255 417 357 417 483 C417 625 343 707 227 707 L71 707 L71 0 L149 0 L149 636 L219 636 C290 636 335 581 335 478 C335 374 276 327 203 327 L183 327 L183 255 Z " />
<glyph glyph-name="uni0421" unicode="&#x421;" horiz-adv-x="489" d="M464 23 L449 88 C412 71 366 60 320 60 C209 60 118 156 118 359 C118 566 216 646 317 646 C356 646 397 638 445 608 L463 677 C425 704 376 717 315 717 C150 717 38 581 38 349 C38 141 133 -12 307 -12 C385 -12 436 8 464 23 L464 23 Z " />
<glyph glyph-name="uni0422" unicode="&#x422;" horiz-adv-x="423" d="M422 635 L422 707 L0 707 L0 635 L172 635 L172 0 L251 0 L251 635 L422 635 Z " />
<glyph glyph-name="uni0423" unicode="&#x423;" horiz-adv-x="425" d="M172 220 L208 220 L197 188 C173 107 137 79 93 59 L128 -9 C190 20 225 49 265 180 L428 707 L345 707 L254 387 L230 283 L226 283 L194 387 L81 707 L-3 707 L172 220 Z " />
<glyph glyph-name="uni0424" unicode="&#x424;" horiz-adv-x="585" d="M332 0 L332 82 C464 82 558 178 558 373 C558 568 464 663 332 663 L332 737 L254 737 L254 663 C122 663 27 568 27 373 C27 178 122 82 254 82 L254 0 L332 0 Z M481 373 C481 230 434 153 332 153 L332 594 C434 594 481 517 481 373 L481 373 Z M104 373 C104 517 153 594 254 594 L254 153 C152 153 104 230 104 373 L104 373 Z " />
<glyph glyph-name="uni0425" unicode="&#x425;" horiz-adv-x="447" d="M438 0 L267 375 L426 707 L342 707 L252 507 L226 444 L224 444 L199 507 L118 707 L28 707 L181 374 L-2 0 L86 0 L198 250 L221 306 L224 306 L246 247 L349 0 L438 0 Z " />
<glyph glyph-name="uni0426" unicode="&#x426;" horiz-adv-x="567" d="M71 707 L71 0 L464 0 L464 -153 L540 -153 L540 72 L473 72 L473 707 L394 707 L394 71 L149 71 L149 707 L71 707 Z " />
<glyph glyph-name="uni0427" unicode="&#x427;" horiz-adv-x="475" d="M29 707 L29 456 C29 346 75 279 180 279 C227 279 281 296 325 322 L325 0 L404 0 L404 707 L325 707 L325 397 C285 365 240 352 203 352 C155 352 107 362 107 457 L107 707 L29 707 Z " />
<glyph glyph-name="uni0428" unicode="&#x428;" horiz-adv-x="734" d="M71 707 L71 0 L663 0 L663 707 L586 707 L586 71 L407 71 L407 707 L328 707 L328 71 L149 71 L149 707 L71 707 Z " />
<glyph glyph-name="uni0429" unicode="&#x429;" horiz-adv-x="758" d="M71 707 L71 0 L654 0 L654 -153 L731 -153 L731 72 L664 72 L664 707 L586 707 L586 71 L407 71 L407 707 L329 707 L329 71 L149 71 L149 707 L71 707 Z " />
<glyph glyph-name="uni042A" unicode="&#x42a;" horiz-adv-x="502" d="M250 363 L276 363 C351 363 403 312 403 215 C403 113 347 72 268 72 L216 72 L216 707 L4 707 L4 637 L139 637 L139 0 L269 0 C415 0 485 95 485 219 C485 355 406 433 286 433 L250 434 L250 363 Z " />
<glyph glyph-name="uni042B" unicode="&#x42b;" horiz-adv-x="632" d="M560 0 L560 707 L482 707 L482 0 L560 0 Z M183 363 L208 363 C283 363 336 312 336 215 C336 113 279 72 200 72 L149 72 L149 707 L71 707 L71 0 L202 0 C348 0 417 95 417 219 C417 355 338 433 218 433 L183 434 L183 363 Z " />
<glyph glyph-name="uni042C" unicode="&#x42c;" horiz-adv-x="434" d="M183 363 L208 363 C283 363 336 312 336 215 C336 113 279 72 200 72 L149 72 L149 707 L71 707 L71 0 L202 0 C348 0 417 95 417 219 C417 355 338 433 218 433 L183 434 L183 363 Z " />
<glyph glyph-name="uni042D" unicode="&#x42d;" horiz-adv-x="492" d="M27 22 C53 9 99 -10 177 -10 C352 -10 453 151 453 359 C453 581 356 715 182 715 C117 715 70 700 30 678 L47 608 C96 629 131 640 185 640 C281 640 364 568 372 391 L108 391 L108 319 L372 319 C360 142 278 64 170 64 C126 64 76 77 43 91 L27 22 Z " />
<glyph glyph-name="uni042E" unicode="&#x42e;" horiz-adv-x="801" d="M761 353 C761 557 678 717 507 717 C354 717 250 591 239 391 L149 391 L149 707 L71 707 L71 0 L149 0 L149 319 L239 319 C249 125 338 -12 493 -12 C662 -12 761 136 761 353 L761 353 Z M682 354 C682 184 622 58 497 58 C379 58 316 191 316 356 C316 524 380 648 498 648 C614 648 682 526 682 354 L682 354 Z " />
<glyph glyph-name="uni042F" unicode="&#x42f;" horiz-adv-x="481" d="M145 486 C145 586 189 636 259 636 L332 636 L332 344 L276 344 C200 344 145 382 145 486 L145 486 Z M24 -11 C99 -3 140 40 176 132 L236 281 C249 280 264 278 279 278 L332 278 L332 0 L410 0 L410 707 L236 707 C139 707 64 625 64 486 C64 387 108 322 163 300 L119 189 C82 94 58 72 9 53 L24 -11 Z " />
<glyph glyph-name="uni0430" unicode="&#x430;" horiz-adv-x="406" d="M392 59 C362 63 342 72 342 107 L342 409 C342 515 283 559 198 559 C152 559 96 548 59 523 L71 459 C104 474 145 486 186 486 C242 486 267 464 267 394 L267 312 L201 309 C105 305 27 259 27 144 C27 61 68 -8 158 -8 C210 -8 245 16 276 58 C287 6 340 -3 370 -5 C374 -5 380 -6 387 -6 L392 59 Z M267 112 C239 83 210 58 171 58 C118 58 99 102 99 152 C99 232 149 248 205 251 L267 254 L267 112 Z " />
<glyph glyph-name="uni0431" unicode="&#x431;" horiz-adv-x="445" d="M365 770 C243 735 135 702 99 651 C59 594 44 417 44 311 C44 85 106 -9 221 -9 C331 -9 409 80 409 272 C409 443 347 506 251 506 C198 506 156 481 123 453 C127 503 132 576 152 608 C175 644 282 670 384 697 L365 770 Z M333 270 C333 169 317 60 227 60 C149 60 118 143 118 326 C118 343 118 372 119 389 C151 416 190 441 236 441 C314 441 333 363 333 270 L333 270 Z " />
<glyph glyph-name="uni0432" unicode="&#x432;" horiz-adv-x="402" d="M370 157 C370 233 332 276 290 288 C323 305 350 349 350 409 C350 493 300 546 212 546 L56 546 L56 0 L221 0 C319 0 370 64 370 157 L370 157 Z M274 399 C274 346 252 311 198 311 L132 311 L132 481 L184 481 C238 481 274 464 274 399 L274 399 Z M293 155 C293 79 245 65 195 65 L132 65 L132 250 L183 250 C252 250 293 229 293 155 L293 155 Z " />
<glyph glyph-name="uni0433" unicode="&#x433;" horiz-adv-x="321" d="M319 474 L319 546 L56 546 L56 0 L132 0 L132 474 L319 474 Z " />
<glyph glyph-name="uni0434" unicode="&#x434;" horiz-adv-x="451" d="M359 0 L359 -147 L433 -147 L433 71 L377 71 L377 546 L122 546 C118 420 107 278 98 235 C84 168 69 129 44 71 L4 71 L4 -147 L79 -147 L79 0 L359 0 Z M191 475 L301 475 L301 71 L127 71 C146 126 158 160 166 208 C177 268 184 342 191 475 L191 475 Z " />
<glyph glyph-name="uni0435" unicode="&#x435;" horiz-adv-x="399" d="M367 256 L367 287 C367 461 319 559 211 559 C111 559 35 477 35 264 C35 57 107 -9 232 -9 C289 -9 342 6 361 18 L348 83 C318 73 277 61 241 61 C165 61 111 102 111 256 L367 256 Z M288 320 L112 320 C119 429 153 494 207 494 C263 494 288 423 288 320 L288 320 Z " />
<glyph glyph-name="uni0436" unicode="&#x436;" horiz-adv-x="581" d="M335 290 L335 285 L426 105 C468 20 509 -5 555 -9 L577 52 C548 65 514 95 481 155 L410 290 L558 546 L471 546 L393 402 L335 290 Z M329 546 L253 546 L253 0 L329 0 L329 546 Z M246 290 L188 402 L110 546 L23 546 L172 290 L100 155 C68 97 33 67 5 52 L26 -9 C72 -5 113 18 156 105 L246 285 L246 290 Z " />
<glyph glyph-name="uni0437" unicode="&#x437;" horiz-adv-x="329" d="M88 247 L122 247 C174 247 219 229 219 157 C219 89 178 62 137 62 C100 62 69 73 37 93 L15 29 C57 1 100 -7 142 -7 C254 -7 297 77 297 155 C297 238 250 277 215 288 C249 307 279 353 279 419 C279 488 242 557 145 557 C101 557 62 545 29 526 L49 465 C74 478 99 489 132 488 C178 488 203 456 203 406 C203 361 181 314 121 314 L88 314 L88 247 Z " />
<glyph glyph-name="uni0438" unicode="&#x438;" horiz-adv-x="451" d="M156 198 L129 122 L126 122 L130 196 L130 546 L56 546 L56 0 L133 0 L294 348 L323 424 L325 424 L321 350 L321 0 L395 0 L395 546 L318 546 L156 198 Z " />
<glyph glyph-name="uni0439" unicode="&#x439;" horiz-adv-x="451" d="M226 716 C182 716 156 748 138 772 L97 734 C125 679 172 649 226 649 C277 649 326 679 354 734 L314 771 C297 749 269 716 226 716 L226 716 Z M156 198 L129 122 L126 122 L130 196 L130 546 L56 546 L56 0 L133 0 L294 348 L323 424 L325 424 L321 350 L321 0 L395 0 L395 546 L318 546 L156 198 Z " />
<glyph glyph-name="uni043A" unicode="&#x43a;" horiz-adv-x="399" d="M136 289 L156 249 L237 105 C283 20 326 -5 372 -9 L394 52 C365 66 327 96 292 155 L213 290 L381 546 L294 546 L159 337 L136 289 Z M132 546 L56 546 L56 0 L132 0 L132 546 Z " />
<glyph glyph-name="uni043B" unicode="&#x43b;" horiz-adv-x="422" d="M71 133 C54 84 23 63 -3 48 L31 -16 C77 5 111 36 133 91 C161 163 173 276 184 475 L290 475 L290 0 L367 0 L367 546 L112 546 C108 358 94 198 71 133 L71 133 Z " />
<glyph glyph-name="uni043C" unicode="&#x43c;" horiz-adv-x="547" d="M56 0 L129 0 L129 349 L123 423 L129 423 L222 0 L320 0 L415 421 L422 421 L417 349 L417 0 L491 0 L491 546 L384 546 L289 130 L275 59 L269 59 L256 130 L163 546 L56 546 L56 0 Z " />
<glyph glyph-name="uni043D" unicode="&#x43d;" horiz-adv-x="443" d="M388 0 L388 546 L311 546 L311 309 L132 309 L132 546 L56 546 L56 0 L132 0 L132 239 L311 239 L311 0 L388 0 Z " />
<glyph glyph-name="uni043E" unicode="&#x43e;" horiz-adv-x="435" d="M401 277 C401 449 342 559 223 559 C106 559 33 451 33 268 C33 93 98 -13 214 -13 C325 -13 401 83 401 277 L401 277 Z M326 271 C326 167 302 55 219 55 C137 55 109 162 109 270 C109 374 134 493 219 493 C303 493 326 372 326 271 L326 271 Z " />
<glyph glyph-name="uni043F" unicode="&#x43f;" horiz-adv-x="441" d="M56 0 L132 0 L132 476 L309 476 L309 0 L385 0 L385 546 L56 546 L56 0 Z " />
<glyph glyph-name="uni0440" unicode="&#x440;" horiz-adv-x="431" d="M397 281 C397 464 334 555 240 555 C185 555 153 524 132 502 L132 546 L56 546 L56 -220 L132 -220 L132 -2 C145 -5 173 -8 194 -8 C304 -8 397 59 397 281 L397 281 Z M320 276 C320 148 286 62 191 62 C168 62 141 66 132 69 L132 439 C158 462 184 482 219 482 C300 482 320 374 320 276 L320 276 Z " />
<glyph glyph-name="uni0441" unicode="&#x441;" horiz-adv-x="379" d="M340 12 L331 77 C299 67 274 61 244 61 C144 61 109 137 109 265 C109 415 156 490 236 490 C270 490 299 476 322 461 L343 526 C315 547 272 558 232 558 C109 558 33 453 33 260 C33 79 100 -9 235 -9 C283 -9 316 3 340 12 L340 12 Z " />
<glyph glyph-name="uni0442" unicode="&#x442;" horiz-adv-x="356" d="M216 0 L216 474 L352 474 L352 546 L3 546 L3 474 L140 474 L140 0 L216 0 Z " />
<glyph glyph-name="uni0443" unicode="&#x443;" horiz-adv-x="378" d="M375 546 L297 546 L202 157 L189 71 L184 71 L173 158 L88 546 L7 546 L137 0 L158 0 L105 -220 L180 -220 L375 546 Z " />
<glyph glyph-name="uni0444" unicode="&#x444;" horiz-adv-x="563" d="M530 275 C530 477 439 558 319 558 L319 754 L244 754 L244 558 C127 558 34 476 34 274 C34 72 125 -9 244 -9 L244 -220 L319 -220 L319 -9 C434 -8 530 70 530 275 L530 275 Z M453 275 C453 140 418 60 319 60 L319 490 C418 490 453 408 453 275 L453 275 Z M110 274 C110 408 144 490 244 490 L244 60 C144 60 110 139 110 274 L110 274 Z " />
<glyph glyph-name="uni0445" unicode="&#x445;" horiz-adv-x="379" d="M373 0 L232 281 L363 546 L279 546 L193 339 L187 339 L103 546 L15 546 L149 279 L6 0 L95 0 L186 219 L192 219 L284 0 L373 0 Z " />
<glyph glyph-name="uni0446" unicode="&#x446;" horiz-adv-x="457" d="M364 0 L364 -147 L439 -147 L439 70 L383 70 L383 546 L307 546 L307 70 L132 70 L132 546 L56 546 L56 0 L364 0 Z " />
<glyph glyph-name="uni0447" unicode="&#x447;" horiz-adv-x="396" d="M102 546 L26 546 L26 361 C26 265 58 210 152 210 C200 210 230 222 264 238 L264 0 L341 0 L341 546 L264 546 L264 306 C237 290 211 279 176 279 C103 279 102 319 102 375 L102 546 Z " />
<glyph glyph-name="uni0448" unicode="&#x448;" horiz-adv-x="613" d="M558 0 L558 546 L482 546 L482 70 L345 70 L345 546 L269 546 L269 70 L132 70 L132 546 L56 546 L56 0 L558 0 Z " />
<glyph glyph-name="uni0449" unicode="&#x449;" horiz-adv-x="632" d="M539 0 L539 -147 L614 -147 L614 70 L558 70 L558 546 L482 546 L482 70 L345 70 L345 546 L269 546 L269 70 L132 70 L132 546 L56 546 L56 0 L539 0 Z " />
<glyph glyph-name="uni044A" unicode="&#x44a;" horiz-adv-x="439" d="M247 277 C304 277 346 250 346 174 C346 107 314 70 250 70 L194 70 L194 546 L5 546 L5 474 L118 474 L118 0 L253 0 C365 0 423 71 423 173 C423 290 359 347 259 347 L226 347 L226 277 L247 277 Z " />
<glyph glyph-name="uni044B" unicode="&#x44b;" horiz-adv-x="542" d="M486 0 L486 546 L410 546 L410 0 L486 0 Z M361 173 C361 290 297 347 197 347 L164 347 L164 277 L185 277 C242 277 284 250 284 174 C284 107 252 70 188 70 L132 70 L132 546 L56 546 L56 0 L191 0 C304 0 361 71 361 173 L361 173 Z " />
<glyph glyph-name="uni044C" unicode="&#x44c;" horiz-adv-x="377" d="M361 173 C361 290 297 347 197 347 L164 347 L164 277 L185 277 C242 277 284 250 284 174 C284 107 252 70 188 70 L132 70 L132 546 L56 546 L56 0 L191 0 C304 0 361 71 361 173 L361 173 Z " />
<glyph glyph-name="uni044D" unicode="&#x44d;" horiz-adv-x="358" d="M131 60 C94 60 64 77 46 88 L17 27 C39 11 85 -9 135 -8 C250 -7 325 91 325 274 C325 460 264 558 140 558 C90 558 50 540 23 523 L49 464 C67 474 94 489 136 489 C213 489 242 402 247 311 L92 311 L92 241 L247 241 C244 139 210 60 131 60 L131 60 Z " />
<glyph glyph-name="uni044E" unicode="&#x44e;" horiz-adv-x="611" d="M578 273 C578 448 520 557 394 557 C288 557 214 468 204 309 L130 309 L130 546 L56 546 L56 0 L130 0 L130 239 L203 239 C210 82 276 -8 389 -8 C503 -8 578 87 578 273 L578 273 Z M504 273 C504 163 478 58 391 58 C308 58 278 159 278 272 C278 377 306 490 390 490 C479 490 504 376 504 273 L504 273 Z " />
<glyph glyph-name="uni044F" unicode="&#x44f;" horiz-adv-x="401" d="M30 -6 C66 -4 117 12 153 90 L203 197 L272 197 L272 0 L345 0 L345 546 L219 546 C111 546 48 477 48 365 C48 280 88 234 134 215 L103 144 C78 88 52 64 13 52 L30 -6 Z M125 368 C125 438 159 479 221 479 L269 479 L269 262 L222 262 C167 262 125 296 125 368 L125 368 Z " />
<glyph glyph-name="uni0450" unicode="&#x450;" horiz-adv-x="399" d="M367 256 L367 287 C367 461 319 559 211 559 C111 559 35 477 35 264 C35 57 107 -9 232 -9 C289 -9 342 6 361 18 L348 83 C318 73 277 61 241 61 C165 61 111 102 111 256 L367 256 Z M288 320 L112 320 C119 429 153 494 207 494 C263 494 288 423 288 320 L288 320 Z M287 661 L140 794 L96 739 L252 615 L287 661 Z " />
<glyph glyph-name="uni0451" unicode="&#x451;" horiz-adv-x="399" d="M335 715 L282 767 L229 715 L282 661 L335 715 Z M184 715 L132 767 L79 715 L132 661 L184 715 Z M367 256 L367 287 C367 461 319 559 211 559 C111 559 35 477 35 264 C35 57 107 -9 232 -9 C289 -9 342 6 361 18 L348 83 C318 73 277 61 241 61 C165 61 111 102 111 256 L367 256 Z M288 320 L112 320 C119 429 153 494 207 494 C263 494 288 423 288 320 L288 320 Z " />
<glyph glyph-name="uni0452" unicode="&#x452;" horiz-adv-x="446" d="M56 754 L56 639 L-15 639 L-15 574 L56 574 L56 0 L132 0 L132 344 C149 359 196 404 249 404 C308 404 328 337 328 229 C328 47 271 -88 202 -175 L258 -220 C317 -152 405 7 405 237 C405 363 378 479 265 479 C209 479 158 435 132 408 L132 574 L261 574 L261 639 L132 639 L132 754 L56 754 Z " />
<glyph glyph-name="uni0453" unicode="&#x453;" horiz-adv-x="321" d="M312 743 L268 798 L122 663 L158 619 L312 743 Z M319 474 L319 546 L56 546 L56 0 L132 0 L132 474 L319 474 Z " />
<glyph glyph-name="uni0454" unicode="&#x454;" horiz-adv-x="363" d="M339 12 L331 78 C304 73 273 63 245 63 C151 63 115 125 110 247 L272 247 L272 317 L111 317 C120 425 162 488 222 488 C263 488 291 474 321 457 L341 523 C314 542 278 558 223 558 C103 558 33 446 33 273 C33 78 94 -9 239 -9 C281 -9 317 3 339 12 L339 12 Z " />
<glyph glyph-name="uni0455" unicode="&#x455;" horiz-adv-x="330" d="M307 146 C307 309 109 307 109 422 C109 461 131 490 182 490 C215 490 253 478 272 468 L285 533 C265 543 227 556 184 556 C97 556 35 507 35 417 C35 256 232 253 232 142 C232 93 193 60 140 60 C105 60 63 73 35 84 L24 16 C53 3 101 -8 139 -8 C223 -8 307 40 307 146 L307 146 Z " />
<glyph glyph-name="uni0456" unicode="&#x456;" horiz-adv-x="188" d="M132 0 L132 546 L56 546 L56 0 L132 0 Z M153 715 L93 774 L35 715 L93 655 L153 715 Z " />
<glyph glyph-name="uni0457" unicode="&#x457;" horiz-adv-x="188" d="M223 715 L170 767 L117 715 L170 661 L223 715 Z M72 715 L20 767 L-33 715 L20 661 L72 715 Z M132 0 L132 546 L56 546 L56 0 L132 0 Z " />
<glyph glyph-name="uni0458" unicode="&#x458;" horiz-adv-x="188" d="M132 -22 L132 546 L56 546 L56 -28 C56 -110 39 -157 -12 -157 C-23 -157 -41 -154 -57 -147 L-72 -215 C-49 -224 -30 -230 -9 -230 C76 -230 132 -179 132 -22 L132 -22 Z M153 715 L93 774 L35 715 L93 655 L153 715 Z " />
<glyph glyph-name="uni0459" unicode="&#x459;" horiz-adv-x="612" d="M400 277 L420 277 C477 277 519 250 519 174 C519 107 487 70 423 70 L367 70 L367 546 L112 546 C108 358 94 198 71 133 C54 84 23 63 -3 48 L31 -16 C77 5 111 36 133 91 C161 163 173 276 184 475 L290 475 L290 0 L426 0 C538 0 596 71 596 173 C596 290 532 347 432 347 L400 347 L400 277 Z " />
<glyph glyph-name="uni045A" unicode="&#x45a;" horiz-adv-x="629" d="M441 277 C501 277 539 245 539 174 C539 110 511 70 443 70 L386 70 L386 546 L311 546 L311 309 L130 309 L130 546 L56 546 L56 0 L130 0 L130 239 L311 239 L311 0 L441 0 C557 0 614 74 614 173 C614 281 556 346 455 346 L419 346 L419 277 L441 277 Z " />
<glyph glyph-name="uni045B" unicode="&#x45b;" horiz-adv-x="435" d="M387 0 L387 273 C387 360 382 479 259 479 C193 479 136 414 132 408 L132 574 L262 574 L262 639 L132 639 L132 754 L56 754 L56 639 L-15 639 L-15 574 L56 574 L56 0 L132 0 L132 344 C151 360 202 404 241 404 C304 404 311 355 311 266 L311 0 L387 0 Z " />
<glyph glyph-name="uni045C" unicode="&#x45c;" horiz-adv-x="399" d="M323 742 L279 797 L133 662 L169 618 L323 742 Z M136 289 L156 249 L237 105 C283 20 326 -5 372 -9 L394 52 C365 66 327 96 292 155 L213 290 L381 546 L294 546 L159 337 L136 289 Z M132 546 L56 546 L56 0 L132 0 L132 546 Z " />
<glyph glyph-name="uni045D" unicode="&#x45d;" horiz-adv-x="451" d="M156 198 L129 122 L126 122 L130 196 L130 546 L56 546 L56 0 L133 0 L294 348 L323 424 L325 424 L321 350 L321 0 L395 0 L395 546 L318 546 L156 198 Z M307 661 L160 794 L116 739 L272 615 L307 661 Z " />
<glyph glyph-name="uni045E" unicode="&#x45e;" horiz-adv-x="378" d="M375 546 L297 546 L202 157 L189 71 L184 71 L173 158 L88 546 L7 546 L137 0 L158 0 L105 -220 L180 -220 L375 546 Z M195 716 C151 716 125 748 107 772 L66 734 C94 679 141 649 195 649 C246 649 295 679 323 734 L283 771 C266 749 238 716 195 716 L195 716 Z " />
<glyph glyph-name="uni045F" unicode="&#x45f;" horiz-adv-x="438" d="M182 0 L182 -147 L256 -147 L256 0 L383 0 L383 546 L307 546 L307 70 L132 70 L132 546 L56 546 L56 0 L182 0 Z " />
<glyph glyph-name="uni0462" unicode="&#x462;" horiz-adv-x="526" d="M250 338 L289 338 C375 338 424 300 424 203 C424 113 393 67 308 67 L225 67 L225 534 L384 534 L384 601 L225 601 L225 707 L146 707 L146 601 L-2 601 L-2 533 L146 533 L146 0 L321 0 C437 0 505 78 505 199 C505 342 429 406 291 406 L250 406 L250 338 Z " />
<glyph glyph-name="uni0463" unicode="&#x463;" horiz-adv-x="459" d="M205 480 L339 480 L339 546 L205 546 L205 707 L127 707 L127 546 L-7 546 L-7 480 L127 480 L127 0 L302 0 C391 0 443 70 443 168 C443 283 384 339 273 339 L224 339 L224 273 L266 273 C330 273 365 245 365 169 C365 102 341 67 284 67 L205 67 L205 480 Z " />
<glyph glyph-name="uni0472" unicode="&#x472;" horiz-adv-x="601" d="M562 353 C562 557 478 717 307 717 C145 717 39 577 39 355 C39 141 129 -12 293 -12 C463 -12 562 136 562 353 L562 353 Z M298 58 C187 58 124 175 117 326 L482 326 C477 170 416 58 298 58 L298 58 Z M299 648 C407 648 475 540 482 386 L117 386 C124 537 187 648 299 648 L299 648 Z " />
<glyph glyph-name="uni0473" unicode="&#x473;" horiz-adv-x="435" d="M401 273 C401 450 345 558 220 558 C107 558 33 451 33 267 C33 93 98 -9 215 -9 C325 -9 401 86 401 273 L401 273 Z M219 60 C143 60 113 146 109 247 L325 247 C321 149 295 60 219 60 L219 60 Z M217 490 C295 490 321 393 324 302 L109 302 C114 394 143 490 217 490 L217 490 Z " />
<glyph glyph-name="uni0474" unicode="&#x474;" horiz-adv-x="520" d="M189 0 L293 0 L444 517 C472 615 501 658 530 684 L475 731 C440 701 401 646 368 525 L243 59 L87 707 L3 707 L189 0 Z " />
<glyph glyph-name="uni0475" unicode="&#x475;" horiz-adv-x="405" d="M141 0 L233 0 L321 332 C346 426 375 486 410 518 L363 568 C328 538 287 463 262 366 L211 173 L188 55 L169 171 L81 546 L5 546 L141 0 Z " />
<glyph glyph-name="uni048A" unicode="&#x48a;" horiz-adv-x="599" d="M71 707 L71 0 L145 0 L395 504 L420 567 L424 567 L420 468 L420 0 L501 0 L463 -184 L538 -184 L597 68 L498 68 L498 707 L424 707 L188 238 L149 140 L146 140 L149 239 L149 707 L71 707 Z M282 824 C239 824 212 853 195 876 L154 839 C181 787 229 759 282 759 C334 759 382 787 410 839 L370 876 C354 854 326 824 282 824 L282 824 Z " />
<glyph glyph-name="uni048B" unicode="&#x48b;" horiz-adv-x="482" d="M156 198 L129 122 L126 122 L130 196 L130 546 L56 546 L56 0 L133 0 L294 348 L323 424 L325 424 L321 350 L321 0 L388 0 L350 -184 L420 -184 L479 68 L395 68 L395 546 L318 546 L156 198 Z M225 716 C181 716 155 748 137 772 L96 734 C124 679 171 649 225 649 C276 649 325 679 353 734 L313 771 C296 749 268 716 225 716 L225 716 Z " />
<glyph glyph-name="uni048C" unicode="&#x48c;" horiz-adv-x="457" d="M29 539 L92 539 L92 0 L223 0 C369 0 438 95 438 219 C438 355 359 433 239 433 L204 434 L204 363 L229 363 C304 363 357 312 357 215 C357 113 300 72 221 72 L170 72 L170 539 L258 539 L258 608 L170 608 L170 707 L92 707 L92 608 L29 608 L29 539 Z " />
<glyph glyph-name="uni048D" unicode="&#x48d;" horiz-adv-x="394" d="M376 173 C376 290 312 347 212 347 L179 347 L179 277 L200 277 C257 277 299 250 299 174 C299 107 267 70 203 70 L147 70 L147 418 L213 418 L213 477 L147 477 L147 546 L71 546 L71 477 L19 477 L19 418 L71 418 L71 0 L206 0 C319 0 376 71 376 173 L376 173 Z " />
<glyph glyph-name="uni048E" unicode="&#x48e;" horiz-adv-x="445" d="M227 377 L260 338 C242 331 223 327 203 327 L183 327 L183 255 L199 255 C242 255 279 264 310 280 L359 224 L403 264 L358 317 C397 358 417 417 417 483 C417 625 343 707 227 707 L71 707 L71 0 L149 0 L149 636 L219 636 C290 636 335 581 335 478 C335 434 324 401 307 377 L274 417 L227 377 Z " />
<glyph glyph-name="uni048F" unicode="&#x48f;" horiz-adv-x="437" d="M397 281 C397 464 334 555 240 555 C185 555 153 524 132 502 L132 546 L56 546 L56 -220 L132 -220 L132 -2 C145 -5 173 -8 194 -8 C231 -8 266 0 297 19 L354 -38 L396 5 L342 60 C376 105 397 176 397 281 L397 281 Z M204 112 L243 73 C228 66 211 62 191 62 C168 62 141 66 132 69 L132 439 C158 462 184 482 219 482 C300 482 320 374 320 276 C320 209 310 154 288 116 L250 156 L204 112 Z " />
<glyph glyph-name="uni0490" unicode="&#x490;" horiz-adv-x="384" d="M385 635 L385 868 L308 868 L308 707 L71 707 L71 0 L150 0 L150 635 L385 635 Z " />
<glyph glyph-name="uni0491" unicode="&#x491;" horiz-adv-x="321" d="M245 660 L245 546 L56 546 L56 0 L132 0 L132 474 L320 474 L320 660 L245 660 Z " />
<glyph glyph-name="uni0492" unicode="&#x492;" horiz-adv-x="414" d="M410 635 L410 707 L92 707 L92 386 L26 386 L26 317 L92 317 L92 0 L171 0 L171 317 L310 317 L310 386 L171 386 L171 635 L410 635 Z " />
<glyph glyph-name="uni0493" unicode="&#x493;" horiz-adv-x="340" d="M334 474 L334 546 L71 546 L71 302 L23 302 L23 236 L71 236 L71 0 L147 0 L147 236 L252 236 L252 302 L147 302 L147 474 L334 474 Z " />
<glyph glyph-name="uni0494" unicode="&#x494;" horiz-adv-x="472" d="M386 636 L386 707 L71 707 L71 0 L150 0 L150 300 C188 329 234 344 269 344 C334 344 362 280 362 184 C362 0 263 -130 228 -174 L281 -220 C374 -103 440 14 440 187 C440 305 400 412 286 412 C233 412 193 394 150 372 L150 636 L386 636 Z " />
<glyph glyph-name="uni0495" unicode="&#x495;" horiz-adv-x="419" d="M341 474 L341 546 L56 546 L56 0 L132 0 L132 238 C154 257 192 285 234 285 C293 285 313 219 313 119 C313 0 252 -107 201 -179 L259 -223 C317 -148 391 -20 391 128 C391 252 362 360 250 360 C203 360 160 332 132 306 L132 474 L341 474 Z " />
<glyph glyph-name="uni0496" unicode="&#x496;" horiz-adv-x="698" d="M381 361 L408 304 L566 0 L627 0 L627 -153 L705 -153 L705 68 L624 68 L455 376 L646 707 L555 707 L411 442 L381 381 L381 361 Z M282 381 L256 436 L108 707 L17 707 L208 376 L1 0 L96 0 L256 306 L282 361 L282 381 Z M371 707 L292 707 L292 0 L371 0 L371 707 Z " />
<glyph glyph-name="uni0497" unicode="&#x497;" horiz-adv-x="623" d="M329 546 L253 546 L253 0 L329 0 L329 546 Z M246 290 L188 402 L110 546 L23 546 L172 290 L100 155 C68 97 33 67 5 52 L26 -9 C72 -5 113 18 156 105 L246 285 L246 290 Z M335 290 L335 285 L426 105 C466 23 510 0 557 0 L557 -153 L632 -153 L632 68 L602 68 C543 68 527 72 486 149 L410 290 L558 546 L471 546 L393 402 L335 290 Z " />
<glyph glyph-name="uni0498" unicode="&#x498;" horiz-adv-x="403" d="M102 392 L102 324 L151 324 C225 324 284 291 284 197 C284 102 231 67 167 67 C124 67 83 79 42 105 L19 39 C57 11 103 -8 173 -8 C310 -8 363 96 363 197 C363 320 285 353 260 362 L260 364 C284 379 342 423 342 537 C342 641 275 712 175 712 C114 712 67 692 38 673 L62 613 C93 630 122 640 162 640 C223 640 262 598 262 520 C262 437 217 392 151 392 L102 392 Z M243 -127 C243 -105 235 -78 221 -53 L151 -53 C165 -82 174 -103 174 -122 C174 -144 149 -170 108 -193 L138 -248 C198 -219 243 -177 243 -127 L243 -127 Z " />
<glyph glyph-name="uni0499" unicode="&#x499;" horiz-adv-x="329" d="M88 247 L122 247 C174 247 219 229 219 157 C219 89 178 62 137 62 C100 62 69 73 37 93 L15 29 C57 1 100 -7 142 -7 C254 -7 297 77 297 155 C297 238 250 277 215 288 C249 307 279 353 279 419 C279 488 242 557 145 557 C101 557 62 545 29 526 L49 465 C74 478 99 489 132 488 C178 488 203 456 203 406 C203 361 181 314 121 314 L88 314 L88 247 Z M209 -127 C209 -105 201 -78 187 -53 L117 -53 C131 -82 140 -103 140 -122 C140 -144 115 -170 74 -193 L104 -248 C164 -219 209 -177 209 -127 L209 -127 Z " />
<glyph glyph-name="uni049A" unicode="&#x49a;" horiz-adv-x="493" d="M158 365 L192 298 L364 0 L424 0 L424 -153 L502 -153 L502 68 L420 68 L232 379 L448 707 L355 707 L192 447 L158 386 L158 365 Z M149 707 L71 707 L71 0 L149 0 L149 707 Z " />
<glyph glyph-name="uni049B" unicode="&#x49b;" horiz-adv-x="427" d="M136 290 L156 249 L237 105 C278 28 317 2 355 1 L355 -153 L431 -153 L431 68 L402 68 C365 68 336 80 295 150 L213 290 L381 546 L294 546 L159 337 L136 290 Z M132 546 L56 546 L56 0 L132 0 L132 546 Z " />
<glyph glyph-name="uni049C" unicode="&#x49c;" horiz-adv-x="535" d="M176 275 L228 275 L228 462 L176 462 L176 275 Z M237 365 L272 298 L437 0 L535 0 L312 379 L521 707 L429 707 L271 447 L237 386 L237 365 Z M149 707 L71 707 L71 0 L149 0 L149 707 Z " />
<glyph glyph-name="uni049D" unicode="&#x49d;" horiz-adv-x="466" d="M151 193 L204 193 L204 373 L151 373 L151 193 Z M205 289 L224 249 L306 105 C352 20 393 -5 438 -9 L460 52 C431 66 395 96 361 155 L282 290 L448 546 L361 546 L228 337 L205 289 Z M132 546 L56 546 L56 0 L132 0 L132 546 Z " />
<glyph glyph-name="uni049E" unicode="&#x49e;" horiz-adv-x="474" d="M171 365 L205 298 L377 0 L475 0 L245 379 L461 707 L368 707 L205 447 L171 386 L171 365 Z M162 707 L84 707 L84 610 L30 610 L30 552 L84 552 L84 0 L162 0 L162 552 L228 552 L228 610 L162 610 L162 707 Z " />
<glyph glyph-name="uni049F" unicode="&#x49f;" horiz-adv-x="411" d="M147 289 L167 249 L248 105 C294 20 337 -5 383 -9 L405 52 C376 66 338 96 303 155 L224 290 L392 546 L305 546 L170 337 L147 289 Z M143 546 L67 546 L67 472 L21 472 L21 418 L67 418 L67 0 L143 0 L143 418 L193 418 L193 472 L143 472 L143 546 Z " />
<glyph glyph-name="uni04A0" unicode="&#x4a0;" horiz-adv-x="528" d="M216 707 L-6 707 L-6 636 L138 636 L138 0 L216 0 L216 707 Z M225 365 L259 298 L431 0 L529 0 L299 379 L515 707 L422 707 L259 447 L225 386 L225 365 Z " />
<glyph glyph-name="uni04A1" unicode="&#x4a1;" horiz-adv-x="471" d="M-6 474 L128 474 L128 0 L204 0 L204 546 L-6 546 L-6 474 Z M208 289 L228 249 L309 105 C355 20 398 -5 444 -9 L466 52 C437 66 399 96 364 155 L285 290 L453 546 L366 546 L231 337 L208 289 Z " />
<glyph glyph-name="uni04A2" unicode="&#x4a2;" horiz-adv-x="582" d="M485 0 L485 -153 L563 -153 L563 68 L483 68 L483 707 L405 707 L405 391 L149 391 L149 707 L71 707 L71 0 L149 0 L149 319 L405 319 L405 0 L485 0 Z " />
<glyph glyph-name="uni04A3" unicode="&#x4a3;" horiz-adv-x="470" d="M385 0 L385 -153 L460 -153 L460 68 L388 68 L388 546 L311 546 L311 309 L132 309 L132 546 L56 546 L56 0 L132 0 L132 239 L311 239 L311 0 L385 0 Z " />
<glyph glyph-name="uni04A4" unicode="&#x4a4;" horiz-adv-x="621" d="M483 0 L483 636 L627 636 L627 707 L405 707 L405 391 L149 391 L149 707 L71 707 L71 0 L149 0 L149 319 L405 319 L405 0 L483 0 Z " />
<glyph glyph-name="uni04A5" unicode="&#x4a5;" horiz-adv-x="517" d="M388 0 L388 474 L524 474 L524 546 L311 546 L311 309 L132 309 L132 546 L56 546 L56 0 L132 0 L132 239 L311 239 L311 0 L388 0 Z " />
<glyph glyph-name="uni04A6" unicode="&#x4a6;" horiz-adv-x="802" d="M480 0 L480 315 C519 345 572 359 608 359 C673 359 700 296 700 199 C700 16 601 -130 566 -174 L620 -220 C712 -103 778 30 778 203 C778 321 738 428 624 428 C571 428 524 410 480 387 L480 707 L71 707 L71 0 L149 0 L149 636 L402 636 L402 0 L480 0 Z " />
<glyph glyph-name="uni04A7" unicode="&#x4a7;" horiz-adv-x="666" d="M56 0 L132 0 L132 476 L309 476 L309 0 L385 0 L385 242 C411 267 443 292 488 292 C542 292 563 223 563 138 C563 2 490 -138 449 -187 L506 -228 C554 -180 643 -12 643 151 C643 266 610 364 502 364 C453 364 412 337 385 307 L385 546 L56 546 L56 0 Z " />
<glyph glyph-name="uni04A8" unicode="&#x4a8;" horiz-adv-x="579" d="M501 -142 C543 -142 573 -132 596 -122 L586 -58 C567 -64 540 -74 507 -74 C452 -74 408 -47 376 -2 C487 26 554 121 554 262 C554 397 490 472 400 472 C293 472 236 393 236 244 C236 173 246 111 263 60 C159 84 122 211 122 356 C122 522 172 645 309 645 C370 645 407 637 450 611 L469 677 C439 696 393 717 315 717 C139 717 41 576 41 355 C41 128 133 -10 296 -12 C347 -98 423 -142 501 -142 L501 -142 Z M312 243 C312 327 327 408 396 408 C443 408 481 353 481 252 C481 149 437 75 343 59 C323 111 312 175 312 243 L312 243 Z " />
<glyph glyph-name="uni04A9" unicode="&#x4a9;" horiz-adv-x="427" d="M359 -113 C398 -113 422 -102 443 -92 L433 -31 C416 -40 395 -47 366 -47 C333 -47 304 -31 282 1 C349 29 401 102 401 221 C401 318 367 372 294 372 C231 372 180 324 180 181 C180 135 185 95 193 60 C125 80 111 171 111 272 C111 382 134 492 225 492 C268 492 297 477 318 464 L336 528 C315 543 280 560 225 560 C107 560 34 458 34 267 C34 88 104 -12 217 -12 L219 -12 C254 -80 308 -113 359 -113 L359 -113 Z M242 179 C242 284 264 314 291 314 C318 314 332 292 332 216 C332 135 310 76 256 60 C247 92 242 132 242 179 L242 179 Z " />
<glyph glyph-name="uni04AA" unicode="&#x4aa;" horiz-adv-x="489" d="M464 23 L449 88 C412 71 366 60 320 60 C209 60 118 156 118 359 C118 566 216 646 317 646 C356 646 397 638 445 608 L463 677 C425 704 376 717 315 717 C150 717 38 581 38 349 C38 141 133 -12 307 -12 C385 -12 436 8 464 23 L464 23 Z M387 -127 C387 -105 379 -78 365 -53 L295 -53 C309 -82 318 -103 318 -122 C318 -144 293 -170 252 -193 L282 -248 C342 -219 387 -177 387 -127 L387 -127 Z " />
<glyph glyph-name="uni04AB" unicode="&#x4ab;" horiz-adv-x="379" d="M340 12 L331 77 C299 67 274 61 244 61 C144 61 109 137 109 265 C109 415 156 490 236 490 C270 490 299 476 322 461 L343 526 C315 547 272 558 232 558 C109 558 33 453 33 260 C33 79 100 -9 235 -9 C283 -9 316 3 340 12 L340 12 Z M281 -127 C281 -105 273 -78 259 -53 L189 -53 C203 -82 212 -103 212 -122 C212 -144 187 -170 146 -193 L176 -248 C236 -219 281 -177 281 -127 L281 -127 Z " />
<glyph glyph-name="uni04AC" unicode="&#x4ac;" horiz-adv-x="430" d="M422 635 L422 707 L0 707 L0 635 L172 635 L172 0 L277 0 L277 -153 L354 -153 L354 68 L251 68 L251 635 L422 635 Z " />
<glyph glyph-name="uni04AD" unicode="&#x4ad;" horiz-adv-x="365" d="M238 0 L238 -153 L314 -153 L314 68 L216 68 L216 474 L352 474 L352 546 L3 546 L3 474 L140 474 L140 0 L238 0 Z " />
<glyph glyph-name="uni04AE" unicode="&#x4ae;" horiz-adv-x="412" d="M421 707 L336 707 L235 443 L206 352 L202 352 L175 444 L82 707 L-6 707 L163 269 L163 0 L242 0 L242 268 L421 707 Z " />
<glyph glyph-name="uni04AF" unicode="&#x4af;" horiz-adv-x="377" d="M222 -219 L222 11 L375 546 L295 546 L203 199 L187 101 L181 101 L167 196 L85 546 L4 546 L146 1 L146 -219 L222 -219 Z " />
<glyph glyph-name="uni04B0" unicode="&#x4b0;" horiz-adv-x="434" d="M431 707 L346 707 L245 443 L216 352 L212 352 L185 444 L92 707 L4 707 L165 290 L62 290 L62 221 L173 221 L173 0 L252 0 L252 221 L371 221 L371 290 L261 290 L431 707 Z " />
<glyph glyph-name="uni04B1" unicode="&#x4b1;" horiz-adv-x="399" d="M385 546 L305 546 L213 199 L197 101 L191 101 L177 196 L95 546 L14 546 L139 67 L47 67 L47 0 L156 0 L156 -219 L232 -219 L232 0 L354 0 L354 67 L248 67 L385 546 Z " />
<glyph glyph-name="uni04B2" unicode="&#x4b2;" horiz-adv-x="489" d="M415 0 L415 -153 L493 -153 L493 68 L407 68 L267 375 L426 707 L342 707 L252 507 L226 444 L224 444 L199 507 L118 707 L28 707 L181 374 L-2 0 L86 0 L198 250 L221 306 L224 306 L246 247 L349 0 L415 0 Z " />
<glyph glyph-name="uni04B3" unicode="&#x4b3;" horiz-adv-x="415" d="M341 0 L341 -153 L416 -153 L416 68 L339 68 L232 281 L363 546 L279 546 L193 339 L187 339 L103 546 L15 546 L149 279 L6 0 L95 0 L186 219 L192 219 L284 0 L341 0 Z " />
<glyph glyph-name="uni04B4" unicode="&#x4b4;" horiz-adv-x="670" d="M173 635 L173 0 L566 0 L566 -153 L643 -153 L643 72 L575 72 L575 707 L497 707 L497 71 L252 71 L252 635 L417 635 L417 707 L1 707 L1 635 L173 635 Z " />
<glyph glyph-name="uni04B5" unicode="&#x4b5;" horiz-adv-x="535" d="M443 0 L443 -147 L517 -147 L517 70 L461 70 L461 546 L385 546 L385 70 L210 70 L210 474 L327 474 L327 546 L4 546 L4 474 L134 474 L134 0 L443 0 Z " />
<glyph glyph-name="uni04B6" unicode="&#x4b6;" horiz-adv-x="499" d="M29 707 L29 456 C29 346 75 279 180 279 C227 279 281 296 325 322 L325 0 L398 0 L398 -153 L477 -153 L477 68 L404 68 L404 707 L325 707 L325 397 C285 365 240 352 203 352 C155 352 107 362 107 457 L107 707 L29 707 Z " />
<glyph glyph-name="uni04B7" unicode="&#x4b7;" horiz-adv-x="425" d="M102 546 L26 546 L26 361 C26 265 58 210 152 210 C200 210 230 222 264 238 L264 0 L341 0 L341 -153 L417 -153 L417 68 L341 68 L341 546 L264 546 L264 306 C237 290 211 279 176 279 C103 279 102 319 102 375 L102 546 Z " />
<glyph glyph-name="uni04B8" unicode="&#x4b8;" horiz-adv-x="477" d="M31 707 L31 456 C31 346 77 279 182 279 L193 279 L193 217 L245 217 L245 287 C273 295 302 307 327 322 L327 0 L406 0 L406 707 L327 707 L327 397 C300 376 272 363 245 356 L245 418 L193 418 L193 352 C149 354 109 370 109 457 L109 707 L31 707 Z " />
<glyph glyph-name="uni04B9" unicode="&#x4b9;" horiz-adv-x="398" d="M103 546 L27 546 L27 361 C27 265 59 210 153 210 L162 210 L162 140 L212 140 L212 217 C230 222 247 229 265 238 L265 0 L342 0 L342 546 L265 546 L265 306 C247 296 231 287 212 283 L212 341 L162 341 L162 279 C104 285 103 323 103 375 L103 546 Z " />
<glyph glyph-name="uni04BA" unicode="&#x4ba;" horiz-adv-x="474" d="M441 0 L441 259 C441 368 397 434 292 434 C246 434 193 418 150 393 L150 707 L71 707 L71 0 L150 0 L150 318 C190 350 234 366 270 366 C317 366 363 353 363 258 L363 0 L441 0 Z " />
<glyph glyph-name="uni04BB" unicode="&#x4bb;" horiz-adv-x="440" d="M387 0 L387 355 C387 468 365 558 266 558 C206 558 163 525 132 486 L132 754 L56 754 L56 0 L132 0 L132 423 C168 455 201 483 244 483 C303 483 311 430 311 345 L311 0 L387 0 Z " />
<glyph glyph-name="uni04BC" unicode="&#x4bc;" horiz-adv-x="701" d="M418 717 C250 717 167 586 156 394 C97 396 79 420 79 464 C79 500 89 544 104 583 L38 583 C23 539 14 495 14 458 C14 382 50 335 155 329 C161 103 269 -13 441 -13 C504 -13 578 -2 651 37 L626 102 C571 74 509 60 456 60 C322 60 236 144 235 329 L666 329 L666 385 C665 572 588 717 418 717 L418 717 Z M415 649 C542 649 585 532 588 394 L235 394 C240 538 278 649 415 649 L415 649 Z " />
<glyph glyph-name="uni04BD" unicode="&#x4bd;" horiz-adv-x="488" d="M455 256 L455 287 C455 461 407 559 299 559 C209 559 138 492 125 323 C85 330 76 350 76 378 C76 408 90 442 103 465 L42 465 C24 435 11 394 11 362 C11 310 37 268 123 259 C124 56 196 -9 320 -9 C377 -9 430 6 449 18 L436 83 C406 73 365 61 329 61 C253 61 199 102 199 256 L455 256 Z M376 320 L200 320 C207 429 241 494 295 494 C351 494 376 423 376 320 L376 320 Z " />
<glyph glyph-name="uni04BE" unicode="&#x4be;" horiz-adv-x="702" d="M418 717 C250 717 167 586 156 394 C97 396 79 420 79 464 C79 500 89 544 104 583 L38 583 C23 539 14 495 14 458 C14 382 50 335 155 329 C161 103 268 -12 440 -13 C406 -40 377 -76 377 -119 C377 -170 402 -217 486 -217 C523 -217 548 -208 560 -200 L546 -148 C533 -154 517 -157 503 -157 C467 -157 448 -143 448 -109 C448 -61 524 -17 555 0 C587 8 619 20 651 37 L626 102 C571 74 509 60 456 60 C322 60 236 144 235 329 L666 329 L666 385 C665 572 588 717 418 717 L418 717 Z M415 649 C542 649 585 532 588 394 L235 394 C240 538 278 649 415 649 L415 649 Z " />
<glyph glyph-name="uni04BF" unicode="&#x4bf;" horiz-adv-x="489" d="M383 -148 C370 -154 354 -157 340 -157 C304 -157 285 -143 285 -109 C285 -64 352 -22 386 -3 C415 2 439 11 450 18 L437 83 C407 73 366 61 330 61 C254 61 200 102 200 256 L456 256 L456 287 C456 461 408 559 300 559 C210 559 139 492 126 323 C86 330 77 350 77 378 C77 408 91 442 104 465 L43 465 C25 435 12 394 12 362 C12 310 38 268 124 259 C125 76 183 5 285 -7 C247 -35 214 -73 214 -119 C214 -170 239 -217 323 -217 C360 -217 385 -208 397 -200 L383 -148 Z M377 320 L201 320 C208 429 242 494 296 494 C352 494 377 423 377 320 L377 320 Z " />
<glyph glyph-name="uni04C0" unicode="&#x4c0;" horiz-adv-x="220" d="M149 0 L149 707 L71 707 L71 0 L149 0 Z " />
</font>
</defs>
</svg>
