<?xml version="1.0" encoding="utf-8"?>
<!-- Generator: Adobe Illustrator 16.0.0, SVG Export Plug-In . SVG Version: 6.00 Build 0)  -->
<!DOCTYPE svg PUBLIC "-//W3C//DTD SVG 1.1//EN" "http://www.w3.org/Graphics/SVG/1.1/DTD/svg11.dtd">
<svg version="1.1" id="Layer_1" xmlns="http://www.w3.org/2000/svg" xmlns:xlink="http://www.w3.org/1999/xlink" x="0px" y="0px"
	 width="17.662px" height="8.792px" viewBox="-5.02 11.516 17.662 8.792" enable-background="new -5.02 11.516 17.662 8.792"
	 xml:space="preserve">
<g>
	<path fill="#737371" d="M1.844,16.456c-0.302-0.302-0.302-0.79,0-1.091l0,0c0.301-0.302,0.791-0.302,1.092,0l3.092,3.091
		c0.302,0.302,0.302,0.791,0,1.093l0,0c-0.302,0.301-0.79,0.301-1.092-0.001L1.844,16.456z"/>
	<path fill="#737371" d="M2.936,16.457c-0.302,0.302-0.791,0.302-1.092,0l0,0c-0.302-0.301-0.302-0.79,0-1.091l3.091-3.092
		c0.303-0.302,0.791-0.302,1.093,0l0,0c0.302,0.301,0.302,0.79,0,1.092L2.936,16.457z"/>
</g>
</svg>
