<svg xmlns="http://www.w3.org/2000/svg" viewBox="0 0 264 88"><defs><style>.a{fill:#fff;stroke-miterlimit:10;}.a,.b{stroke:#333;}.b{fill:none;stroke-width:1.5px;}</style></defs><title>default-skin--dark</title><path class="a" d="M67,59.5v3.77C60.69,64.11,57.82,69,57,73a12.54,12.54,0,0,1,10-5.1v3.6l6-5.92Z"/><path class="a" d="M13,29V24h2v3h3v2Zm0-14h5v2H15v3H13Zm18,0v5H29V17H26V15Zm0,14H26V27h3V24h2Z"/><path class="a" d="M62,24v5H60V26H57V24Zm0-4H57V18h3V15h2Zm8,0V15h2v3h3v2Zm0,4h5v2H72v3H70Z"/><path class="a" d="M20.59,66l-5.66-5.66,1.41-1.41L22,64.59l5.66-5.66,1.41,1.41L23.41,66l5.66,5.66-1.41,1.41L22,67.41l-5.66,5.66-1.41-1.41Z"/><path class="a" d="M111.79,65,110,63.5l3-3.5H103V58h10l-3-3.5L111.79,53,117,59Z"/><path class="a" d="M152.21,65,154,63.5,151,60h10V58H151l3-3.5L152.21,53,147,59Z"/><path class="a" d="M161,28.54l-3.25-3.25-1.41,1.41L159.54,30Z"/><path class="b" d="M152.5,27a5.5,5.5,0,1,0-5.5-5.5A5.5,5.5,0,0,0,152.5,27Z"/><path class="a" d="M150,21h5v1h-5Z"/><path class="a" d="M117,28.54,115.54,30l-3.25-3.25,1.41-1.41Z"/><path class="b" d="M108.5,27a5.5,5.5,0,1,0-5.5-5.5A5.5,5.5,0,0,0,108.5,27Z"/><path class="a" d="M106,21h5v1h-5Z"/><path class="a" d="M109,19,109,24l-1,0,.08-5Z"/></svg>