<!-- Generator: Adobe Illustrator 20.1.0, SVG Export Plug-In  -->
<svg version="1.1"
   xmlns="http://www.w3.org/2000/svg" xmlns:xlink="http://www.w3.org/1999/xlink" xmlns:a="http://ns.adobe.com/AdobeSVGViewerExtensions/3.0/"
   x="0px" y="0px" width="149.2px" height="60.5px" viewBox="0 0 149.2 60.5" style="enable-background:new 0 0 149.2 60.5;"
   xml:space="preserve">
<style type="text/css">
  .st0{fill:#FFFFFF;stroke:#333333;stroke-miterlimit:10;}
  .st1{fill:none;stroke:#333333;stroke-width:1.5;}
</style>
<defs>
</defs>
<g>
  <g>
    <path id="Shape_3_" class="st0" d="M54.5,45v3.8c-6.3,0.8-9.2,5.8-10,9.7c2.2-2.8,5.6-5.1,10-5.1V57l6-5.9L54.5,45z"/>
    <g>
      <path id="Shape_2_" class="st0" d="M0.5,14.5v-5h2v3h3v2H0.5z M0.5,0.5h5v2h-3v3h-2V0.5z M18.5,0.5v5h-2v-3h-3v-2H18.5z
         M18.5,14.5h-5v-2h3v-3h2V14.5z"/>
    </g>
    <g>
      <path class="st0" d="M49.5,9.5v5h-2v-3h-3v-2H49.5z M49.5,5.5h-5v-2h3v-3h2V5.5z M57.5,5.5v-5h2v3h3v2H57.5z M57.5,9.5h5v2h-3v3
        h-2V9.5z"/>
    </g>
    <path class="st0" d="M8.1,51.5l-5.7-5.7l1.4-1.4l5.7,5.7l5.7-5.7l1.4,1.4l-5.7,5.7l5.7,5.7l-1.4,1.4l-5.7-5.7l-5.7,5.7l-1.4-1.4
      L8.1,51.5z"/>
    <path class="st0" d="M99.3,50.5L97.5,49l3-3.5h-10v-2h10l-3-3.5l1.8-1.5l5.2,6L99.3,50.5z"/>
    <path class="st0" d="M139.7,50.5l1.8-1.5l-3-3.5h10v-2h-10l3-3.5l-1.8-1.5l-5.2,6L139.7,50.5z"/>
    <g>
      <path id="Rectangle-11_1_" class="st0" d="M148.5,14l-3.2-3.2l-1.4,1.4l3.2,3.2L148.5,14z"/>
      <path id="Oval-1_1_" class="st1" d="M140,12.5c3,0,5.5-2.5,5.5-5.5S143,1.5,140,1.5S134.5,4,134.5,7S137,12.5,140,12.5z"/>
      <path class="st0" d="M137.5,6.5h5v1h-5V6.5z"/>
    </g>
    <g>
      <path class="st0" d="M104.5,14l-1.4,1.4l-3.2-3.2l1.4-1.4L104.5,14z"/>
      <path class="st1" d="M96,12.5c3,0,5.5-2.5,5.5-5.5S99,1.5,96,1.5S90.5,4,90.5,7S93,12.5,96,12.5z"/>
      <path class="st0" d="M93.5,6.5h5v1h-5V6.5z"/>
      <path class="st0" d="M96.5,4.5l-0.1,5l-1,0l0.1-5L96.5,4.5z"/>
    </g>
  </g>
</g>
</svg>
