<?xml version="1.0" encoding="utf-8"?>
<!-- Generator: Adobe Illustrator 20.0.0, SVG Export Plug-In . SVG Version: 6.00 Build 0)  -->
<svg version="1.1" id="Layer_1" xmlns="http://www.w3.org/2000/svg" xmlns:xlink="http://www.w3.org/1999/xlink" x="0px" y="0px"
	 viewBox="0 0 100 100" style="enable-background:new 0 0 100 100;" xml:space="preserve">
<style type="text/css">
	.st0{fill:#333333;}
</style>
<path class="st0" d="M54,65.3c-4.3,5.6-11.5,8.2-18.4,7.9c-2.3-0.1-4.6-0.5-6.8-1.2c-8.1-2.7-14.2-10.1-15.5-18.5
	c-0.2-1.2-0.3-2.4-0.2-3.6c-0.5-12.1,10.1-23.2,22.2-23.3c6.2-0.5,12.1,1.9,16.8,5.8c-1.9,2.1-3.9,4.2-5.9,6.1
	c-1.2-0.7-2.5-1.4-3.8-1.9c-3.2-1.3-6.7-2-10.1-0.8c-7.1,2-11.5,9.9-10,17c0.1,0.6,0.2,1.3,0.5,1.9c0.5,1.7,1.4,3.1,2.4,4.5
	c0.2,0.2,0.3,0.5,0.5,0.7c0.3,0.3,0.6,0.5,0.9,0.8c0.4,0.4,0.8,0.8,1.3,1.2c4.1,2.9,9.6,3.8,14.3,1.7c3.9-1.4,6.5-5,7.6-8.9
	c-4.5-0.1-8.9,0-13.4-0.2c0-2.7,0-5.3,0-8l0,0l0,0l0,0c7.4,0,14.9,0,22.3,0c0,0.1,0,0.3,0,0.4C59.1,53.4,58.1,60.2,54,65.3z
	 M86.6,53.2c-2.2,0-4.5,0-6.7,0c0,2.2,0,4.5,0,6.7c-2.2,0-4.4,0-6.7,0c0-2.2,0-4.5,0-6.7c-2.2,0-4.5,0-6.7,0v-6.7c2.2,0,4.4,0,6.7,0
	c0-2.2,0-4.5,0.1-6.7h6.6c0,2.2,0,4.5,0,6.7c2.2,0,4.5,0,6.7,0V53.2z"/>
</svg>
