<?xml version="1.0" encoding="utf-8"?>
<!-- Generator: Adobe Illustrator 20.0.0, SVG Export Plug-In . SVG Version: 6.00 Build 0)  -->
<svg version="1.1" id="Layer_1" xmlns="http://www.w3.org/2000/svg" xmlns:xlink="http://www.w3.org/1999/xlink" x="0px" y="0px"
	 viewBox="0 0 100 100" style="enable-background:new 0 0 100 100;" xml:space="preserve">
<style type="text/css">
	.st0{fill:#006830;}
</style>
<g>
	<g>
		<path class="st0" d="M78,48H22c-1.1,0-2,0.9-2,2s0.9,2,2,2h56c1.1,0,2-0.9,2-2S79.1,48,78,48z M50,0C22.4,0,0,22.4,0,50
			s22.4,50,50,50s50-22.4,50-50S77.6,0,50,0z M50,96C24.6,96,4,75.4,4,50S24.6,4,50,4s46,20.6,46,46S75.4,96,50,96z"/>
	</g>
</g>
</svg>
