<?xml version="1.0" encoding="utf-8"?>
<!-- Generator: Adobe Illustrator 20.0.0, SVG Export Plug-In . SVG Version: 6.00 Build 0)  -->
<svg version="1.1" id="Layer_1" xmlns="http://www.w3.org/2000/svg" xmlns:xlink="http://www.w3.org/1999/xlink" x="0px" y="0px"
	 viewBox="0 0 100 100" style="enable-background:new 0 0 100 100;" xml:space="preserve">
<style type="text/css">
	.st0{fill:#FFFFFF;}
</style>
<path class="st0" d="M90.5,24.2C90.3,22.4,88.8,21,87,21H71.3C69.8,9.1,60.8,0,50,0C39.2,0,30.2,9.1,28.7,21H13
	c-1.8,0-3.3,1.4-3.5,3.2l-7,72c-0.1,1,0.2,2,0.9,2.7C4.1,99.6,5,100,6,100h88c1,0,1.9-0.4,2.6-1.1c0.7-0.7,1-1.7,0.9-2.7L90.5,24.2z
	 M50,7c7,0,12.9,6,14.2,14H35.8C37.1,13,43,7,50,7z M9.9,93l6.3-65h67.6l6.3,65H9.9z"/>
</svg>
