<?xml version="1.0" encoding="utf-8"?>
<!-- Generator: Adobe Illustrator 16.0.0, SVG Export Plug-In . SVG Version: 6.00 Build 0)  -->
<!DOCTYPE svg PUBLIC "-//W3C//DTD SVG 1.1//EN" "http://www.w3.org/Graphics/SVG/1.1/DTD/svg11.dtd">
<svg version="1.1" id="Layer_1" xmlns="http://www.w3.org/2000/svg" xmlns:xlink="http://www.w3.org/1999/xlink" x="0px" y="0px"
	 width="595.28px" height="841.89px" viewBox="0 0 595.28 841.89" enable-background="new 0 0 595.28 841.89" xml:space="preserve">
<g transform="matrix( 1, 0, 0, 1, 0,0) ">
	<g>
		<g id="a">
			<path fill="#ffffff" d="M539.228,608.145c-0.006-5.092-1.881-9.5-5.623-13.223L395.987,457.939
				c26.779-31.656,40.167-68.855,40.16-111.597c-0.001-49.011-17.582-90.882-52.744-125.613
				c-34.795-34.367-77.009-51.556-126.64-51.567c-49.618,0.018-92.01,17.207-127.177,51.567
				c-34.787,34.734-52.19,76.604-52.208,125.613c0.011,49.021,17.414,90.716,52.208,125.083
				c35.164,34.73,77.556,52.096,127.177,52.096c43.219,0.006,80.791-13.129,112.718-39.402l137.617,136.984
				c3.77,3.701,8.231,5.551,13.387,5.553c5.159,0.006,9.531-1.846,13.119-5.553C537.354,617.568,539.229,613.25,539.228,608.145
				 M356.897,246.91c27.845,27.502,41.768,60.646,41.768,99.432c-0.008,38.612-13.752,71.492-41.232,98.638l-0.803,0.795
				c-27.485,27.143-60.773,40.717-99.866,40.725c-39.27,0-72.825-13.752-100.67-41.254c-27.5-27.16-41.243-60.128-41.232-98.904
				c-0.018-38.789,13.726-71.933,41.232-99.432c27.841-27.168,61.397-40.744,100.67-40.725
				C296.021,206.174,329.398,219.749,356.897,246.91z"/>
		</g>
	</g>
</g>
</svg>
