<?xml version="1.0" encoding="utf-8"?>
<!-- Generator: Adobe Illustrator 20.0.0, SVG Export Plug-In . SVG Version: 6.00 Build 0)  -->
<svg version="1.1" id="Layer_1" xmlns="http://www.w3.org/2000/svg" xmlns:xlink="http://www.w3.org/1999/xlink" x="0px" y="0px"
	 viewBox="0 0 100 100" style="enable-background:new 0 0 100 100;" xml:space="preserve">
<style type="text/css">
	.st0{fill:#333333;}
</style>
<path class="st0" d="M69.3,69.3c-0.7,0.7-1.2,1.4-1.8,2.1L35.2,55.3c0.5-1.7,0.8-3.4,0.8-5.3c0-1.8-0.3-3.6-0.8-5.3l32.3-16.1
	c0.5,0.7,1.1,1.5,1.8,2.1C72.7,34.1,77.2,36,82,36s9.3-1.9,12.7-5.3c3.4-3.4,5.3-7.9,5.3-12.7c0-4.8-1.9-9.3-5.3-12.7
	C91.3,1.9,86.8,0,82,0s-9.3,1.9-12.7,5.3C65.9,8.7,64,13.2,64,18c0,1.8,0.3,3.6,0.8,5.3L32.5,39.4c-0.5-0.7-1.1-1.5-1.8-2.1
	c-7-7-18.4-7-25.5,0C1.9,40.7,0,45.2,0,50c0,4.8,1.9,9.3,5.3,12.7C8.7,66.1,13.2,68,18,68s9.3-1.9,12.7-5.3c0.7-0.7,1.2-1.4,1.8-2.1
	l32.3,16.1C64.3,78.4,64,80.2,64,82c0,4.8,1.9,9.3,5.3,12.7c3.4,3.4,7.9,5.3,12.7,5.3c4.8,0,9.3-1.9,12.7-5.3
	c3.4-3.4,5.3-7.9,5.3-12.7c0-4.8-1.9-9.3-5.3-12.7C87.7,62.3,76.3,62.3,69.3,69.3z M73.5,9.5L73.5,9.5C75.8,7.2,78.8,6,82,6
	s6.2,1.2,8.5,3.5c2.3,2.3,3.5,5.3,3.5,8.5c0,3.2-1.2,6.2-3.5,8.5C88.2,28.8,85.2,30,82,30s-6.2-1.2-8.5-3.5C71.2,24.2,70,21.2,70,18
	C70,14.8,71.2,11.8,73.5,9.5z M26.5,58.5C24.2,60.8,21.2,62,18,62s-6.2-1.2-8.5-3.5h0C7.2,56.2,6,53.2,6,50s1.2-6.2,3.5-8.5
	c2.3-2.3,5.4-3.5,8.5-3.5s6.1,1.2,8.5,3.5c2.3,2.3,3.5,5.3,3.5,8.5S28.8,56.2,26.5,58.5z M90.5,90.5C88.2,92.8,85.2,94,82,94
	s-6.2-1.2-8.5-3.5S70,85.2,70,82s1.2-6.2,3.5-8.5c2.3-2.3,5.4-3.5,8.5-3.5s6.1,1.2,8.5,3.5c2.3,2.3,3.5,5.3,3.5,8.5
	S92.8,88.2,90.5,90.5z"/>
</svg>
