<?xml version="1.0" encoding="utf-8"?>
<!-- Generator: Adobe Illustrator 20.0.0, SVG Export Plug-In . SVG Version: 6.00 Build 0)  -->
<svg version="1.1" id="Layer_1" xmlns="http://www.w3.org/2000/svg" xmlns:xlink="http://www.w3.org/1999/xlink" x="0px" y="0px"
	 viewBox="0 0 42 23.2" style="enable-background:new 0 0 42 23.2;" xml:space="preserve">
<style type="text/css">
	.st0{fill:#006830;}
</style>
<g>
	<path class="st0" d="M10.4,17.5c-0.8,0.8-1.4,1.7-1.6,2.9H5.3c-0.4,0-0.6-0.3-0.6-0.7l0.2-1.4c0-0.4,0.4-0.7,0.8-0.7L10.4,17.5
		L10.4,17.5z"/>
	<path class="st0" d="M40.7,17.5L42,9.9c0-0.1,0-0.3,0-0.3l-2.1-6.5c-0.1-0.3-0.3-0.4-0.5-0.4h-6.6c-0.4,0-0.7,0.3-0.8,0.7
		l-2.4,14.1H16.6c0.5,0.8,0.8,1.7,0.5,2.9h13.3c0.2-1,0.8-2.1,1.6-2.9c0.9-0.9,2.1-1.4,3.3-1.4c1.2,0,2.2,0.5,2.8,1.4
		c0.5,0.8,0.8,1.7,0.6,2.9h1.4c0.4,0,0.7-0.3,0.8-0.7l0.2-1.4C41.3,17.9,41,17.5,40.7,17.5z M32.3,9.7l1-5.6h5.5l1.8,5.6H32.3
		L32.3,9.7z"/>
	<path class="st0" d="M13.5,17.5c-1.5,0-3,1.3-3.2,2.9c-0.3,1.6,0.8,2.9,2.3,2.9s3-1.3,3.2-2.9C16.1,18.8,15,17.5,13.5,17.5z
		 M14.4,20.3c-0.1,0.8-0.9,1.4-1.6,1.4c-0.8,0-1.3-0.7-1.1-1.4c0.1-0.8,0.9-1.4,1.6-1.4C14,18.9,14.5,19.6,14.4,20.3z"/>
	<path class="st0" d="M35.2,17.5c-1.5,0-3,1.3-3.2,2.9c-0.3,1.6,0.8,2.9,2.3,2.9c1.5,0,3-1.3,3.2-2.9C37.7,18.8,36.7,17.5,35.2,17.5
		z M36,20.3c-0.1,0.8-0.9,1.4-1.6,1.4s-1.3-0.7-1.1-1.4c0.1-0.8,0.9-1.4,1.6-1.4C35.7,18.9,36.2,19.6,36,20.3z"/>
	<path class="st0" d="M27.3,15.5H5.1l0.2-1.3H3.6c-0.3,0-0.7-0.3-0.7-0.7c0-0.4,0.3-0.7,0.7-0.7h8.2c0.3,0,0.7-0.3,0.7-0.7
		c0-0.4-0.3-0.7-0.7-0.7H5.8l0.3-2H2.5c-0.3,0-0.7-0.3-0.7-0.7c0-0.4,0.3-0.7,0.7-0.7h12c0.3,0,0.7-0.3,0.7-0.7
		c0-0.4-0.3-0.7-0.7-0.7H6.6l0.3-2H0.7C0.3,4.7,0,4.4,0,4c0-0.4,0.3-0.7,0.7-0.7h11.1c0.3,0,0.7-0.3,0.7-0.7S12.1,2,11.8,2H7.4
		l0.3-2h22.3L27.3,15.5z"/>
</g>
</svg>
