<?xml version="1.0" encoding="utf-8"?>
<!-- Generator: Adobe Illustrator 16.0.0, SVG Export Plug-In . SVG Version: 6.00 Build 0)  -->
<!DOCTYPE svg PUBLIC "-//W3C//DTD SVG 1.1//EN" "http://www.w3.org/Graphics/SVG/1.1/DTD/svg11.dtd">
<svg version="1.1" id="Layer_1" xmlns="http://www.w3.org/2000/svg" xmlns:xlink="http://www.w3.org/1999/xlink" x="0px" y="0px"
	 width="17.662px" height="8.792px" viewBox="-5.02 11.516 17.662 8.792" enable-background="new -5.02 11.516 17.662 8.792"
	 xml:space="preserve">
<g>
	<path fill="#3f5902" d="M7.97,11.516h-8.316c-1.011,0-1.941,0.311-2.706,0.826c-0.105,0.069-0.197,0.151-0.295,0.229
		c-0.119,0.094-0.241,0.184-0.35,0.288c-0.099,0.097-0.184,0.206-0.272,0.311c-0.099,0.114-0.201,0.225-0.287,0.348
		c-0.048,0.07-0.084,0.147-0.128,0.22c-0.107,0.176-0.212,0.353-0.294,0.542c-0.005,0.01-0.006,0.021-0.01,0.03
		c-0.209,0.497-0.332,1.035-0.332,1.604c0,0.009,0.002,0.018,0.002,0.026s-0.002,0.02-0.002,0.029c0,2.393,1.946,4.34,4.34,4.34
		c0.055,0,0.106-0.015,0.161-0.018c0.058,0.003,0.114,0.018,0.172,0.018h8.315c2.578,0,4.674-1.972,4.674-4.396
		C12.644,13.489,10.55,11.516,7.97,11.516z M-0.518,19.171c-1.868-0.084-3.362-1.493-3.378-3.232
		c0.005-0.433,0.092-0.845,0.25-1.221c0-0.001,0-0.003,0.001-0.004c0.062-0.147,0.145-0.285,0.229-0.422
		c0.03-0.048,0.054-0.101,0.088-0.148c0.068-0.098,0.148-0.186,0.227-0.274c0.063-0.074,0.124-0.149,0.195-0.219
		c0.086-0.082,0.181-0.155,0.276-0.229c0.064-0.05,0.129-0.103,0.197-0.149c0.506-0.33,1.106-0.526,1.755-0.526
		c1.774,0,3.22,1.445,3.22,3.22C2.542,17.689,1.182,19.088-0.518,19.171z M7.97,19.188H2.203c0.887-0.795,1.458-1.938,1.458-3.22
		c0-1.347-0.628-2.536-1.592-3.332h5.903c1.961,0,3.553,1.47,3.553,3.276C11.524,17.718,9.931,19.188,7.97,19.188z"/>
	<path fill="#3f5902" d="M-0.678,14.095c-0.939,0-1.704,0.764-1.704,1.702c0,0.939,0.765,1.704,1.704,1.704
		c0.938,0,1.703-0.764,1.703-1.704C1.024,14.858,0.26,14.095-0.678,14.095z M-0.678,16.38c-0.321,0-0.584-0.261-0.584-0.584
		c0-0.322,0.263-0.583,0.584-0.583s0.583,0.262,0.583,0.583S-0.357,16.38-0.678,16.38z"/>
</g>
</svg>
