<?xml version="1.0" encoding="utf-8"?>
<!-- Generator: Adobe Illustrator 20.0.0, SVG Export Plug-In . SVG Version: 6.00 Build 0)  -->
<svg version="1.1" id="Layer_1" xmlns="http://www.w3.org/2000/svg" xmlns:xlink="http://www.w3.org/1999/xlink" x="0px" y="0px"
	 viewBox="0 0 100 100" style="enable-background:new 0 0 100 100;" xml:space="preserve">
<style type="text/css">
	.st0{fill:#333333;}
</style>
<path class="st0" d="M71.7,38.7c0,0.5,0,1,0,1.5c0,14.9-11.3,32.1-32.1,32.1c-6.4,0-12.3-1.9-17.3-5.1c0.9,0.1,1.8,0.2,2.7,0.2
	c5.3,0,10.2-1.8,14-4.8c-4.9-0.1-9.1-3.4-10.5-7.8c0.7,0.1,1.4,0.2,2.1,0.2c1,0,2-0.1,3-0.4c-5.2-1-9.1-5.6-9.1-11.1v-0.1
	c1.5,0.8,3.3,1.4,5.1,1.4c-3-2-5-5.5-5-9.4c0-2.1,0.6-4,1.5-5.7C31.7,36.5,40,41,49.4,41.5c-0.2-0.8-0.3-1.7-0.3-2.6
	c0-6.2,5.1-11.3,11.3-11.3c3.2,0,6.2,1.4,8.2,3.6c2.6-0.5,5-1.4,7.2-2.7c-0.8,2.6-2.6,4.8-5,6.2c2.3-0.3,4.5-0.9,6.5-1.8
	C75.8,35.1,73.9,37.1,71.7,38.7z"/>
</svg>
