<?xml version="1.0" encoding="utf-8"?>
<!-- Generator: Adobe Illustrator 20.0.0, SVG Export Plug-In . SVG Version: 6.00 Build 0)  -->
<svg version="1.1" id="Layer_1" xmlns="http://www.w3.org/2000/svg" xmlns:xlink="http://www.w3.org/1999/xlink" x="0px" y="0px"
	 viewBox="0 0 100 100" style="enable-background:new 0 0 100 100;" xml:space="preserve">
<style type="text/css">
	.st0{fill:#333333;}
</style>
<path class="st0" d="M49.1,68.3H53c0,0,1.2-0.1,1.8-0.8c0.6-0.6,0.5-1.7,0.5-1.7s-0.1-5.2,2.3-6c2.4-0.8,5.4,5,8.7,7.3
	c2.5,1.7,4.3,1.3,4.3,1.3l8.7-0.1c0,0,4.5-0.3,2.4-3.9c-0.2-0.3-1.3-2.6-6.5-7.5c-5.4-5.1-4.7-4.2,1.8-13c4-5.3,5.6-8.6,5.1-10
	c-0.5-1.3-3.4-1-3.4-1L69,33.1c0,0-0.7-0.1-1.3,0.2c-0.5,0.3-0.9,1-0.9,1s-1.5,4.1-3.6,7.6c-4.4,7.4-6.1,7.8-6.8,7.3
	c-1.7-1.1-1.2-4.3-1.2-6.6c0-7.2,1.1-10.1-2.1-10.9c-1.1-0.3-1.8-0.4-4.6-0.5c-3.5,0-6.4,0-8.1,0.8c-1.1,0.5-2,1.8-1.4,1.8
	c0.6,0.1,2.1,0.4,2.9,1.4c1,1.4,1,4.4,1,4.4s0.6,8.4-1.3,9.5c-1.3,0.7-3.1-0.7-7-7.5c-2-3.4-3.5-7.2-3.5-7.2s-0.3-0.7-0.8-1.1
	c-0.6-0.5-1.5-0.6-1.5-0.6L19.4,33c0,0-1.4,0-1.9,0.6c-0.5,0.5,0,1.7,0,1.7s7.3,17,15.5,25.6C40.5,68.8,49.1,68.3,49.1,68.3
	L49.1,68.3L49.1,68.3z"/>
</svg>
