<svg width="0" height="0" style="position:absolute"><symbol viewBox="-1 -1 79 29.03" id="AppStore"><defs><style>.acls-1{fill-rule:evenodd}</style></defs><path id="aAppStore" class="acls-1" d="M550.5 64.974h1.44a.168.168 0 1 0 0-.336h-1.44a.168.168 0 1 0 0 .336m.719 12.455a.74.74 0 1 0 .75.74.744.744 0 0 0-.75-.74m-3.673-.634h7.349V66.069h-7.349V76.8zm23.554-3.522a1.476 1.476 0 0 0-.947.341 1.6 1.6 0 0 0-.557.9 1.892 1.892 0 0 0-.064.427v1.045a1.658 1.658 0 0 0 .424 1.157 1.425 1.425 0 0 0 1.105.469 1.456 1.456 0 0 0 1.244-.606 2.652 2.652 0 0 0 .443-1.6 2.55 2.55 0 0 0-.417-1.509 1.463 1.463 0 0 0-1.231-.622m25.771-.087a1.419 1.419 0 0 0-1.293.747 2.783 2.783 0 0 0-.38 1.5 2.744 2.744 0 0 0 .38 1.481 1.425 1.425 0 0 0 1.283.745 1.408 1.408 0 0 0 1.265-.761 2.739 2.739 0 0 0 .395-1.49 2.786 2.786 0 0 0-.378-1.479 1.408 1.408 0 0 0-1.272-.747m-18.784.087a1.475 1.475 0 0 0-.948.341 1.612 1.612 0 0 0-.557.9 1.784 1.784 0 0 0-.064.427v1.045a1.658 1.658 0 0 0 .424 1.157 1.425 1.425 0 0 0 1.1.469 1.453 1.453 0 0 0 1.245-.606 2.646 2.646 0 0 0 .446-1.6 2.572 2.572 0 0 0-.418-1.509 1.469 1.469 0 0 0-1.232-.622m-14.6-2.245h-.025c-.088.371-.226.915-.42 1.64l-.733 2.273h2.367l-.741-2.273q-.122-.35-.448-1.64m44.1 2.09a1.36 1.36 0 0 0-1.125.571 2.051 2.051 0 0 0-.418 1.082h2.943a1.906 1.906 0 0 0-.273-1.07 1.249 1.249 0 0 0-1.127-.582m-37.868-6.192a.583.583 0 0 0 .019-.18V66.3c-.584-.007-1.142.112-1.142.6a.432.432 0 0 0 .47.465.681.681 0 0 0 .653-.445m-7.709-2.032c-.088-.272-.162-.578-.229-.836h-.014c-.067.258-.142.571-.215.836L561.2 66h1.163zm46.881-.318a1.412 1.412 0 0 1 1.413 1.574 2.021 2.021 0 0 1-.027.345h-2.192a.882.882 0 0 0 1.008.836 2.649 2.649 0 0 0 .911-.141l.122.558a2.978 2.978 0 0 1-1.143.206 1.54 1.54 0 0 1-1.688-1.633 1.608 1.608 0 0 1 1.6-1.739m-13.124.073l.041.485h.02a1.2 1.2 0 0 1 1.049-.558 1.184 1.184 0 0 1 1.163 1.387v1.918h-.827v-1.825a.669.669 0 0 0-.626-.816.694.694 0 0 0-.646.478.742.742 0 0 0-.04.258v1.9h-.826v-2.265c0-.371-.014-.684-.027-.963h.719zm-8.685-.073a1.412 1.412 0 0 1 1.418 1.574 1.922 1.922 0 0 1-.027.345h-2.192a.883.883 0 0 0 1.009.836 2.658 2.658 0 0 0 .907-.146l.121.558a2.978 2.978 0 0 1-1.143.206 1.539 1.539 0 0 1-1.688-1.633 1.609 1.609 0 0 1 1.6-1.739m-3.39-1.407h.827v4.712h-.827v-4.713zm-6.56 1.984a1.743 1.743 0 0 0-.88.24l-.162-.531a2.374 2.374 0 0 1 1.184-.286 1.219 1.219 0 0 1 1.352 1.367V67.1a4.338 4.338 0 0 0 .053.776h-.746l-.061-.358h-.02a1.2 1.2 0 0 1-.968.432.968.968 0 0 1-1.03-.963c0-.81.733-1.228 1.944-1.222v-.047a.554.554 0 0 0-.666-.565m-4.89-1.852a.442.442 0 1 1-.464.444.439.439 0 0 1 .464-.444m.409 4.579h-.826v-3.231h.826v3.232zm-11.375-4.473h1.056l1.473 4.473h-.895l-.415-1.266h-1.434l-.389 1.267h-.855zm-5.511 14.834a1.439 1.439 0 0 1-1.449 1.427h-6.21a1.44 1.44 0 0 1-1.45-1.427V64.619a1.441 1.441 0 0 1 1.45-1.429h6.21a1.441 1.441 0 0 1 1.449 1.429v13.622zm9.984.327l-.824-2.554h-2.865l-.786 2.554h-1.464l2.837-8.7h1.754l2.853 8.7h-1.5zm.321-10.687h-.814l-1.217-3.232h.894l.531 1.64c.094.286.162.544.222.81h.021c.06-.266.135-.518.221-.81l.526-1.64h.867zm1.7-.889c0-.81.733-1.228 1.944-1.222v-.052a.554.554 0 0 0-.666-.565 1.74 1.74 0 0 0-.88.24l-.162-.531a2.369 2.369 0 0 1 1.183-.286 1.218 1.218 0 0 1 1.352 1.367V67.1a4.238 4.238 0 0 0 .054.776h-.747l-.06-.358h-.02a1.2 1.2 0 0 1-.968.432.967.967 0 0 1-1.03-.963m5.532 10.893a2.6 2.6 0 0 1-1.959.825 1.963 1.963 0 0 1-1.815-.893v3.3h-1.412v-6.757c0-.671-.018-1.357-.054-2.062h1.243l.078.994h.025a2.539 2.539 0 0 1 4.026-.243 3.441 3.441 0 0 1 .751 2.311 3.52 3.52 0 0 1-.883 2.531m1.47-10h-.827v-4.717h.827v4.712zm5.515 10a2.6 2.6 0 0 1-1.96.825 1.964 1.964 0 0 1-1.813-.893v3.3h-1.414v-6.763c0-.671-.018-1.357-.051-2.062h1.238l.082.994h.026a2.538 2.538 0 0 1 4.025-.243 3.427 3.427 0 0 1 .753 2.311 3.516 3.516 0 0 1-.884 2.531m.97-9.931a1.13 1.13 0 0 1-1.035-.558h-.014l-.04.484h-.706c.013-.219.027-.576.027-.909v-3.8h.827v1.924h.013a1.191 1.191 0 0 1 1.049-.517 1.444 1.444 0 0 1 1.366 1.64 1.556 1.556 0 0 1-1.487 1.739m7.112 9.98a3.508 3.508 0 0 1-2.4.761 4.258 4.258 0 0 1-2.286-.541l.329-1.162a3.983 3.983 0 0 0 2.038.542 1.952 1.952 0 0 0 1.244-.355 1.154 1.154 0 0 0 .444-.952 1.209 1.209 0 0 0-.366-.888 3.451 3.451 0 0 0-1.216-.671q-2.313-.85-2.315-2.491a2.185 2.185 0 0 1 .816-1.757 3.269 3.269 0 0 1 2.166-.684 4.366 4.366 0 0 1 2 .412l-.356 1.137a3.536 3.536 0 0 0-1.693-.4 1.776 1.776 0 0 0-1.169.36 1.045 1.045 0 0 0-.353.79 1.074 1.074 0 0 0 .4.854 4.656 4.656 0 0 0 1.281.669 4.284 4.284 0 0 1 1.676 1.06 2.2 2.2 0 0 1 .536 1.509 2.308 2.308 0 0 1-.781 1.807m4.981-4.6H591.8v3.05c0 .775.277 1.158.827 1.158a2.619 2.619 0 0 0 .627-.06l.04 1.056a3.25 3.25 0 0 1-1.1.155 1.693 1.693 0 0 1-1.307-.5 2.42 2.42 0 0 1-.474-1.69v-3.169h-.928v-1.046h.928v-1.148l1.385-.414v1.562h1.56v1.046zm-.8-5.383a1.573 1.573 0 0 1-1.641-1.666 1.606 1.606 0 0 1 1.7-1.713 1.561 1.561 0 0 1 1.627 1.659 1.612 1.612 0 0 1-1.681 1.719m6.593 9.8a3.02 3.02 0 0 1-2.328.953 2.866 2.866 0 0 1-2.234-.916 3.316 3.316 0 0 1-.829-2.312 3.38 3.38 0 0 1 .857-2.388 2.975 2.975 0 0 1 2.307-.928 2.914 2.914 0 0 1 2.252.916 3.283 3.283 0 0 1 .811 2.3 3.421 3.421 0 0 1-.836 2.378m1.46-13.109h.464v-.6l.814-.226v.83h.786v.608h-.786v1.427c0 .4.108.6.423.6a1.128 1.128 0 0 0 .323-.033l.013.617a1.833 1.833 0 0 1-.6.087.955.955 0 0 1-.713-.266 1.265 1.265 0 0 1-.262-.909V65.26h-.464v-.611zm3.626 8.87a2.472 2.472 0 0 0-.444-.035 1.346 1.346 0 0 0-1.152.554 2.055 2.055 0 0 0-.353 1.239v3.292h-1.413v-4.3c0-.718-.013-1.378-.038-1.974h1.23l.052 1.2h.039a2.121 2.121 0 0 1 .707-.992 1.711 1.711 0 0 1 1.021-.334 2.342 2.342 0 0 1 .351.023v1.329zm.215-7.577v1.938h-.827v-4.71h.827v1.918h.013a1.071 1.071 0 0 1 .41-.365 1.171 1.171 0 0 1 1.716 1.253v1.9h-.828v-1.812a.675.675 0 0 0-.632-.823.689.689 0 0 0-.646.457.748.748 0 0 0-.033.245m5.831 9.826h-4.239a1.8 1.8 0 0 0 .615 1.417 2.109 2.109 0 0 0 1.386.441 4.673 4.673 0 0 0 1.714-.3l.222.97a5.338 5.338 0 0 1-2.134.386 3.105 3.105 0 0 1-2.319-.856 3.15 3.15 0 0 1-.847-2.3 3.585 3.585 0 0 1 .786-2.366 2.732 2.732 0 0 1 2.224-1.005 2.375 2.375 0 0 1 2.081 1.005 3.375 3.375 0 0 1 .562 1.979 3.467 3.467 0 0 1-.051.634m-29.2-10.555a.767.767 0 0 0-.733.6.92.92 0 0 0-.027.212v.524a.923.923 0 0 0 .02.193.755.755 0 0 0 .733.57 1.077 1.077 0 0 0 .007-2.1m5.954-.08a.8.8 0 0 0-.76.789h1.439a.7.7 0 0 0-.679-.789m5.557.032a1.156 1.156 0 1 0 .793 1.089.943.943 0 0 0-.793-1.089m-15.917 1.739a.432.432 0 0 0 .47.465.679.679 0 0 0 .653-.445.556.556 0 0 0 .02-.18V66.3c-.585-.007-1.143.112-1.143.6m32.169-1.772a.8.8 0 0 0-.759.789h1.438a.7.7 0 0 0-.679-.789m4.463 19.806h-69.62A3.669 3.669 0 0 1 540 81.3V61.554a3.671 3.671 0 0 1 3.691-3.643h69.621A3.672 3.672 0 0 1 617 61.554V81.3a3.67 3.67 0 0 1-3.692 3.639m-69.62-26.085a2.721 2.721 0 0 0-2.735 2.7V81.3a2.719 2.719 0 0 0 2.735 2.7h69.621a2.719 2.719 0 0 0 2.736-2.7V61.554a2.722 2.722 0 0 0-2.736-2.7h-69.621z" transform="translate(-540 -57.906)"/></symbol><symbol viewBox="-1 -1 23 24.97" id="Bouqet"><defs><style>.bcls-1{fill-rule:evenodd}</style></defs><path id="bBouqet" class="bcls-1" d="M197.992 225.341a.387.387 0 0 0-.444-.318s-.376.07-.992.176a3.769 3.769 0 0 0-.82-1.977.39.39 0 0 0-.342-.141.328.328 0 0 0-.307.212l-.1.176a6.279 6.279 0 0 0-1.128-2.295.431.431 0 0 0-.41-.141 6.2 6.2 0 0 0-2.563 1.624 3.939 3.939 0 0 0-.889-1.024.307.307 0 0 0-.342-.035.419.419 0 0 0-.239.247l-.069.177a6.221 6.221 0 0 0-1.606-1.942.425.425 0 0 0-.41-.035 6 6 0 0 0-1.88 1.836v-.036a.419.419 0 0 0-.239-.247.4.4 0 0 0-.342.035 3.472 3.472 0 0 0-.889.989 6.187 6.187 0 0 0-2.532-1.622.385.385 0 0 0-.41.141 6.279 6.279 0 0 0-1.128 2.295l-.1-.176a.5.5 0 0 0-.307-.212.43.43 0 0 0-.342.141 3.764 3.764 0 0 0-.82 1.977 30.296 30.296 0 0 1-.855-.176.441.441 0 0 0-.478.317v.177a.389.389 0 0 0 .068.282l6.426 9.71-3.316 6.955a.071.071 0 0 1-.034.071c-.034.035 0 .035 0 .071v.141c0 .035.034.035.034.07s.034.036.034.071l.069.071.034.035h.034a.2.2 0 0 0 .137.035 2.53 2.53 0 0 0 2.051-.847 1.579 1.579 0 0 1 1.3-.565 2.143 2.143 0 0 1 1.606.635 2.836 2.836 0 0 0 1.982.777 2.53 2.53 0 0 0 2.051-.847 1.579 1.579 0 0 1 1.3-.565 2.143 2.143 0 0 1 1.606.635 2.839 2.839 0 0 0 1.983.777.164.164 0 0 0 .137-.035l.034-.035a.135.135 0 0 0 .068-.071.071.071 0 0 0 .034-.071c0-.035.034-.035.034-.07a.13.13 0 0 1 .035-.106V242.467c0-.036 0-.071-.035-.071l-3.11-7.132 6.221-9.674v-.036c.2-.037.234-.143.2-.213zm-2.769-.636l.274-.459a2.76 2.76 0 0 1 .307 1.059c-.307.036-.649.106-.991.142a8.161 8.161 0 0 1 .41-.742zm-3.9-1.271a5.022 5.022 0 0 1 2.119-1.589 5.6 5.6 0 0 1 .957 2.648l-.581 1.059c-.82.106-1.743.212-2.632.318a2.936 2.936 0 0 0 .342-1.235 4.415 4.415 0 0 0-.201-1.201zm-1.3-.741a3.081 3.081 0 0 1 .718 1.977 2.661 2.661 0 0 1-.513 1.306l-1.265.106zm-2.5-1.8a5.366 5.366 0 0 1 1.5 2.3l-.889 2.895h-1.333l-.991-3.178a5.07 5.07 0 0 1 1.723-2.018zm-2.6 1.8l1.06 3.389c-.41 0-.82-.035-1.231-.071a2.762 2.762 0 0 1-.546-1.376 2.882 2.882 0 0 1 .729-1.942zm-3.418-.812a5.159 5.159 0 0 1 2.119 1.553 3.474 3.474 0 0 0-.2 1.236 2.707 2.707 0 0 0 .376 1.271c-.922-.071-1.811-.212-2.6-.318l-.616-1.13a5.276 5.276 0 0 1 .933-2.612zm-2.016 2.365l.273.459c.137.247.308.53.444.777-.375-.071-.717-.106-1.025-.177a2.742 2.742 0 0 1 .319-1.059zm14.321 17.866a2.067 2.067 0 0 1-.82-.53 2.91 2.91 0 0 0-2.085-.812 2.361 2.361 0 0 0-1.846.777 1.756 1.756 0 0 1-1.5.635 2.049 2.049 0 0 1-1.47-.6 2.906 2.906 0 0 0-2.085-.812 2.36 2.36 0 0 0-1.845.777 1.911 1.911 0 0 1-.855.529l3.008-6.32a21.431 21.431 0 0 0 3.418.318 25.386 25.386 0 0 0 3.384-.318zm-2.837-7.1c-.342.035-.923.141-1.572.212l1.3-4.273a.372.372 0 0 0-.24-.494.355.355 0 0 0-.478.247l-1.4 4.59a7.051 7.051 0 0 1-.854.036c-.41 0-.854-.036-1.265-.071l-1.4-4.555a.367.367 0 0 0-.478-.247.385.385 0 0 0-.24.494l1.3 4.237a10.383 10.383 0 0 1-1.367-.212l-5.947-9a51.843 51.843 0 0 0 9.16.989 66.966 66.966 0 0 0 9.4-.989z" transform="translate(-177 -220.031)"/></symbol><symbol viewBox="-1 -1 17 16" id="Cancel"><title>Cancel</title><g fill-rule="evenodd"><path d="M13.66 13.367l.68-.734-13-12-.68.734z"/><path d="M.66 12.633l.68.734 13-12-.68-.734z"/></g></symbol><symbol viewBox="-1 -1 27 21" id="Car"><defs><style>.dcls-1{fill-rule:evenodd}</style></defs><path id="dCar" class="dcls-1" d="M148.628 231.972l-2.9-1.056-.053-2.533a2.758 2.758 0 0 0-.9-2.058 2.832 2.832 0 0 0-2-.791h-.635A3.76 3.76 0 0 0 138.6 223h-9.864a3.761 3.761 0 0 0-3.736 3.748v12.611a.946.946 0 0 0 .95.95h3.9a2.266 2.266 0 0 0 2.215 1.691 2.325 2.325 0 0 0 2.215-1.689h8.12a2.266 2.266 0 0 0 2.219 1.689 2.324 2.324 0 0 0 2.215-1.689h1.214a1.947 1.947 0 0 0 1.952-1.954v-4.38a2.016 2.016 0 0 0-1.372-2.005zM126.21 226.7a2.532 2.532 0 0 1 2.531-2.533h9.859a2.533 2.533 0 0 1 2.532 2.533v5.646a2.533 2.533 0 0 1-2.532 2.533h-12.39V226.7zm5.855 14.036a1.114 1.114 0 0 1-1.108-1.108 1.108 1.108 0 1 1 2.215 0 1.113 1.113 0 0 1-1.107 1.103zm12.554 0a1.114 1.114 0 0 1-1.108-1.108 1.108 1.108 0 0 1 2.216 0 1.114 1.114 0 0 1-1.108 1.103zm4.167-2.427a.722.722 0 0 1-.738.739h-1.214a2.264 2.264 0 0 0-2.215-1.689 2.327 2.327 0 0 0-2.216 1.689h-8.123a2.264 2.264 0 0 0-2.215-1.689 2.327 2.327 0 0 0-2.216 1.689h-3.639v-2.955h12.39a3.761 3.761 0 0 0 3.746-3.747V226.7h.474a1.637 1.637 0 0 1 1.161.475 1.717 1.717 0 0 1 .527 1.213l.053 3.378 3.64 1.319a.812.812 0 0 1 .527.791v4.424h.053z" transform="translate(-125 -223)"/></symbol><symbol viewBox="-1 -1 27 21" id="Cart"><title>Shape</title><path d="M7.868 13.888a.55.55 0 0 1-.519-.368L3.2.982H.581A.545.545 0 0 1 .03.444C.03.147.308.023.613.023L3.757 0a.55.55 0 0 1 .518.369l.415 1.627 19.79.01c.303 0 .55.24.55.537a.525.525 0 0 1-.025.158l-2.94 9.407a2.48 2.48 0 0 1-2.38 1.767H7.647l.22.013zm.429-.905h11.587a1.381 1.381 0 0 0 1.318-.982l2.745-9.005H4.99l3.308 9.987zM9 15a2 2 0 1 1 0 4 2 2 0 0 1 0-4zm.002 1h-.004a.998.998 0 1 0 .998.999.997.997 0 0 0-.994-.996V16zM17 17a2 2 0 1 1 4 0 2 2 0 0 1-4 0zm2.002-1h-.004a.998.998 0 1 0 .998.999.997.997 0 0 0-.994-.996V16zm-8.994-6.525v-3.95-.022c0-.281.223-.51.498-.51a.504.504 0 0 1 .499.533v3.95c0 .283-.224.511-.5.511a.509.509 0 0 1-.497-.512zm3.991 0v-3.95-.022c0-.281.223-.51.498-.51a.504.504 0 0 1 .499.533v3.95c0 .283-.223.511-.499.511a.509.509 0 0 1-.498-.512zm3.991 0v-3.95-.022c0-.281.223-.51.499-.51a.504.504 0 0 1 .498.533v3.95c0 .283-.223.511-.499.511a.509.509 0 0 1-.498-.512z" fill-rule="evenodd"/></symbol><symbol viewBox="-1 -1 9.91 17.69" id="Facebook"><defs><style>.fcls-1{fill-rule:evenodd}</style></defs><path id="fFacebook" class="fcls-1" d="M1147.73 537.878a11.577 11.577 0 0 0-2.49-.311c-2.68 0-3.74 1.245-3.74 3.468v1.623h-1.68v2.623h1.68v7.981h3.26v-7.981h2.38l.23-2.623h-2.61v-1.267c0-.712.07-1.156 1.11-1.156a8.636 8.636 0 0 1 1.45.155z" transform="translate(-1139.81 -537.563)"/></symbol><symbol viewBox="-1 -1 20.03 20" id="Instagram"><defs><style>.gcls-1{fill-rule:evenodd}</style></defs><path id="gInstagram" class="gcls-1" d="M1212.94 540.768a4.731 4.731 0 0 0-4.71-4.715q-4.2-.105-8.39 0a4.82 4.82 0 0 0-4.75 4.749c-.01.254-.09.506-.09.758v6.885c.09.535.11 1.078.22 1.605a4.693 4.693 0 0 0 4.58 3.893c2.82.071 5.65.081 8.47 0a4.721 4.721 0 0 0 4.67-4.713q.12-4.23 0-8.462zm-8.94 7.8a3.594 3.594 0 1 1 3.58-3.594 3.585 3.585 0 0 1-3.58 3.592zm4.86-7.112a1.314 1.314 0 1 1 1.31-1.314 1.314 1.314 0 0 1-1.31 1.312z" transform="translate(-1195 -536)"/></symbol><symbol viewBox="-1 -1 11.91 18.38" id="Odnoclass"><defs><style>.hcls-1{fill-rule:evenodd}</style></defs><path id="hOdnoclass" class="hcls-1" d="M1236.08 545.418a1.059 1.059 0 0 0-1.75-.182 5.552 5.552 0 0 1-6.11 0 1.069 1.069 0 0 0-1.76.182c-.41.819.06 1.214 1.1 1.881a7.1 7.1 0 0 0 2.92.863l-.66.657c-.93.926-1.84 1.819-2.46 2.44a.95.95 0 0 0 0 1.342l.11.112a.968.968 0 0 0 .68.278.986.986 0 0 0 .68-.278l2.45-2.44c.94.926 1.84 1.82 2.46 2.44a.972.972 0 0 0 1.36 0l.11-.112a.95.95 0 0 0 0-1.342l-2.46-2.44-.66-.66a6.977 6.977 0 0 0 2.89-.86c1.05-.667 1.51-1.062 1.1-1.881zm-4.81-6.682a2.037 2.037 0 1 1-2.05 2.037 2.047 2.047 0 0 1 2.05-2.037zm0 6.177a4.14 4.14 0 1 0-4.17-4.14 4.16 4.16 0 0 0 4.17 4.14z" transform="translate(-1226.34 -536.625)"/></symbol><symbol viewBox="-1 -1 18 18" id="Search"><path d="M15.234 15.744a.55.55 0 0 0 .386-.94l-5.533-5.533a.55.55 0 1 0-.772.778l5.533 5.533a.548.548 0 0 0 .386.162zm-9.215-3.743a6 6 0 1 1-.036-12 6 6 0 0 1 .035 12zM6.02 1.333a4.666 4.666 0 1 0 4.647 4.666A4.665 4.665 0 0 0 6.02 1.332z"/></symbol><symbol viewBox="-1 -1 11 8" id="lRu"><title>lRu</title><g fill-rule="evenodd"><path d="M0 4h9v2H0zM0 2h9v2H0zM0 0h9v2H0z"/></g></symbol><symbol viewBox="-1 -1 21 21" id="minus"><title>minus</title><g fill-rule="evenodd"><path d="M0 3c0-1.657 1.336-3 3-3h13c1.657 0 3 1.336 3 3v13c0 1.657-1.336 3-3 3H3c-1.657 0-3-1.336-3-3V3zm1 0c0-1.105.89-2 2-2h13c1.105 0 2 .89 2 2v13c0 1.105-.89 2-2 2H3c-1.105 0-2-.89-2-2V3z"/><path d="M3 9h13v1H3z"/></g></symbol><symbol viewBox="-1 -1 21 21" id="plus"><title>plus</title><g fill-rule="evenodd"><path d="M0 3c0-1.657 1.336-3 3-3h13c1.657 0 3 1.336 3 3v13c0 1.657-1.336 3-3 3H3c-1.657 0-3-1.336-3-3V3zm1 0c0-1.105.89-2 2-2h13c1.105 0 2 .89 2 2v13c0 1.105-.89 2-2 2H3c-1.105 0-2-.89-2-2V3z"/><path d="M3 9h13v1H3z"/><path d="M10 3v13H9V3z"/></g></symbol></svg>