<svg width="0" height="0" style="position:absolute"><symbol viewBox="-1 -1 15 9" id="arrowDown" xmlns="http://www.w3.org/2000/svg"><title>arrowDown</title><desc>Created using Figma</desc><use xlink:href="#aa"/><defs><path id="aa" fill-rule="evenodd" d="M12.012.754l-6.006 6.24L0 .754.726 0l5.28 5.485L11.286 0l.726.754z"/></defs></symbol><symbol viewBox="-1 -1 27 21" id="check" xmlns="http://www.w3.org/2000/svg"><title>check</title><desc>Created using Figma</desc><use xlink:href="#ba"/><defs><path id="ba" fill-rule="evenodd" d="M24.122 2.122l-16 16-.061-.061-.061.061-8-8L2.122 8l5.939 5.94L22 0l2.122 2.122z"/></defs></symbol><symbol viewBox="-1 -1 28 28" id="date" xmlns="http://www.w3.org/2000/svg"><title>date</title><desc>Created using Figma</desc><use xlink:href="#ca"/><defs><path id="ca" fill-rule="evenodd" d="M20.271 26a5.687 5.687 0 0 1-3.039-.881H.441A.44.44 0 0 1 0 24.678V2.203a.44.44 0 0 1 .441-.44h2.203V.441A.44.44 0 0 1 3.085 0h3.084a.44.44 0 0 1 .441.441v1.322h9.695V.441A.44.44 0 0 1 16.746 0h3.084a.44.44 0 0 1 .441.441v1.322h2.204a.44.44 0 0 1 .44.44v12.991A5.73 5.73 0 0 1 26 20.271 5.735 5.735 0 0 1 20.271 26zM5.729 2.203V.881H3.525v2.644h2.204V2.203zm13.661 0V.881h-2.204v2.644h2.204V2.203zm2.644.441h-1.763v1.322a.44.44 0 0 1-.441.441h-3.084a.44.44 0 0 1-.441-.441V2.644H6.61v1.322a.44.44 0 0 1-.441.441H3.085a.44.44 0 0 1-.441-.441V2.644H.881v3.525h21.153V2.644zm0 4.407H.881v17.187h15.257c-.072-.076-.137-.157-.206-.236-.032-.038-.067-.075-.098-.113a5.084 5.084 0 0 1-.243-.325c-.028-.039-.058-.077-.084-.117a5.043 5.043 0 0 1-.205-.337c-.027-.046-.056-.092-.081-.139a5.63 5.63 0 0 1-.16-.332c-.026-.057-.055-.113-.079-.172a4.85 4.85 0 0 1-.118-.319c-.013-.038-.029-.075-.041-.114H3.085V9.254H19.83v5.311c.146-.012.292-.023.441-.023.176 0 .351.011.524.026.061.006.121.014.182.022a6.043 6.043 0 0 1 .549.095c.082.019.164.041.245.063.088.024.176.047.263.075V7.051zm-10.136 7.051v3.084h3.085v-3.084h-3.085zm3.085-.882v-3.084h-3.085v3.084h3.085zm-3.085 4.848v3.085h2.716c-.005-.034-.007-.067-.012-.1-.009-.071-.024-.14-.031-.212-.003-.029-.003-.059-.005-.089a5.198 5.198 0 0 1 .005-1.056c.009-.085.026-.167.038-.25.015-.103.026-.207.047-.309.026-.131.063-.259.098-.387.014-.051.024-.103.039-.154.052-.168.112-.332.179-.493l.011-.032v-.003h-3.085zm-3.966-3.966v3.084h3.085v-3.084H7.932zm3.085-.882v-3.084H7.932v3.084h3.085zm-3.085 4.848v3.085h3.085v-3.085H7.932zm-3.966-3.966v3.084h3.085v-3.084H3.966zm3.085-.882v-3.084H3.966v3.084h3.085zm-3.085 4.848v3.085h3.085v-3.085H3.966zm14.983-3.966h-3.085v2.513c.031-.037.066-.071.098-.107.075-.086.15-.172.23-.253.049-.05.101-.096.152-.144.073-.069.147-.138.224-.203.057-.049.116-.095.175-.141a5.94 5.94 0 0 1 .428-.306 6.365 6.365 0 0 1 .451-.265c.047-.024.095-.046.143-.068a5.648 5.648 0 0 1 1.184-.426v-.6zm0-.882v-3.084h-3.085v3.084h3.085zm3.325 2.642a5.199 5.199 0 0 0-.45-.179l-.03-.011a4.788 4.788 0 0 0-.451-.125l-.051-.013a4.899 4.899 0 0 0-.431-.071c-.027-.003-.052-.009-.079-.012a4.765 4.765 0 0 0-1.309.045l-.01.001a4.813 4.813 0 0 0-1.944.789l-.055.041a5.05 5.05 0 0 0-.339.264c-.034.029-.066.06-.099.09a4.463 4.463 0 0 0-.362.364 4.583 4.583 0 0 0-.251.303c-.022.03-.045.059-.066.089a5.261 5.261 0 0 0-.246.375c-.018.031-.039.061-.056.093l-.044.075a4.664 4.664 0 0 0-.332.779c-.006.016-.013.033-.018.05a4.721 4.721 0 0 0-.115.435l-.011.042a4.746 4.746 0 0 0-.07.448l-.006.04a4.822 4.822 0 0 0 .014 1.084l.006.041a5.209 5.209 0 0 0 .134.66c.033.119.071.236.112.351.021.059.041.117.064.175.053.131.113.259.177.385.019.035.034.072.052.108.082.15.174.296.271.437.041.058.084.112.126.168a4.65 4.65 0 0 0 .608.666c.046.043.091.086.139.127a4.82 4.82 0 0 0 3.119 1.143 4.854 4.854 0 0 0 4.848-4.848 4.851 4.851 0 0 0-2.845-4.409zm.641 4.885h-2.203v2.203a.441.441 0 0 1-.882 0v-2.203h-2.203a.441.441 0 0 1 0-.881h2.203v-2.204a.44.44 0 0 1 .882 0v2.204h2.203a.44.44 0 1 1 0 .881z"/></defs></symbol><symbol viewBox="-1 -1 36 36" id="fb" xmlns="http://www.w3.org/2000/svg"><title>fb</title><desc>Created using Figma</desc><g transform="translate(316 291)"><use xlink:href="#da" transform="translate(-315 -290)"/><use xlink:href="#db" transform="translate(-303 -283)"/></g><defs><path id="da" d="M0 0v-.5h-.5V0H0zm32 0h.5v-.5H32V0zm0 32v.5h.5V32H32zM0 32h-.5v.5H0V32zM0 .5h32v-1H0v1zM31.5 0v32h1V0h-1zm.5 31.5H0v1h32v-1zM.5 32V0h-1v32h1z"/><path id="db" fill-rule="evenodd" d="M5.315 19.015H1.771V9.507H0V6.23h1.771V4.263c0-2.673 1-4.263 3.84-4.263h2.365v3.277H6.498c-1.106 0-1.179.458-1.179 1.313l-.004 1.64h2.678l-.314 3.277H5.315v9.508z"/></defs></symbol><symbol viewBox="-1 -1 36 36" id="in" xmlns="http://www.w3.org/2000/svg"><title>in</title><desc>Created using Figma</desc><g transform="translate(213 291)"><use xlink:href="#ea" transform="translate(-212 -290)"/><use xlink:href="#eb" transform="translate(-204 -282)"/></g><defs><path id="ea" d="M0 0v-.5h-.5V0H0zm32 0h.5v-.5H32V0zm0 32v.5h.5V32H32zM0 32h-.5v.5H0V32zM0 .5h32v-1H0v1zM31.5 0v32h1V0h-1zm.5 31.5H0v1h32v-1zM.5 32V0h-1v32h1z"/><path id="eb" fill-rule="evenodd" d="M2.054 0h11.894c1.129 0 2.053.836 2.053 2.054v11.894c0 1.217-.924 2.054-2.053 2.054H2.054C.924 16.002 0 15.165 0 13.948V2.054C0 .836.924 0 2.054 0zm9.603 1.778a.722.722 0 0 0-.721.72v1.725c0 .396.324.72.721.72h1.808c.396 0 .72-.324.72-.72V2.498a.722.722 0 0 0-.72-.72h-1.808zm2.536 4.989h-1.408c.133.435.205.896.205 1.373 0 2.661-2.227 4.819-4.974 4.819-2.747 0-4.973-2.158-4.973-4.819 0-.477.071-.938.205-1.373h-1.47v6.759c0 .35.287.636.636.636h11.143c.35 0 .636-.286.636-.636V6.767zM8.016 4.852c-1.775 0-3.214 1.394-3.214 3.114s1.439 3.114 3.214 3.114 3.214-1.394 3.214-3.114-1.439-3.114-3.214-3.114z"/></defs></symbol><symbol viewBox="-1 -1 61 51" id="logo" xmlns="http://www.w3.org/2000/svg"><title>logo</title><desc>Created using Figma</desc><g transform="translate(-252 345)"><use xlink:href="#fa" transform="translate(252 -345)"/><g transform="translate(271.707 -328.376)"><use xlink:href="#fb"/><use xlink:href="#fc"/></g></g><defs><path id="fa" fill-rule="evenodd" d="M51.512 32.192C41.777 43.49 30.51 48.574 30.035 48.785a2.51 2.51 0 0 1-2.038 0c-.476-.21-11.753-5.294-21.49-16.593C1.61 26.508-.644 19.983.16 13.82.78 9.073 3.237 4.913 6.903 2.406 9.236.81 11.823 0 14.593 0c6.046 0 11.475 3.866 14.415 6.436C31.855 3.965 37.376.003 43.494.003c2.768 0 5.339.812 7.64 2.414 3.67 2.554 6.12 6.751 6.723 11.514.775 6.128-1.478 12.614-6.345 18.261zm1.359-17.631c-.424-3.353-2.103-6.276-4.607-8.018-1.464-1.019-3.024-1.514-4.77-1.514-6.207 0-12.425 6.334-12.686 6.603a2.51 2.51 0 0 1-1.8.763h-.003a2.516 2.516 0 0 1-1.797-.756c-1.08-1.104-6.761-6.613-12.614-6.613-1.763 0-3.351.5-4.854 1.528-2.487 1.701-4.162 4.586-4.597 7.916-.617 4.726 1.22 9.855 5.172 14.441 7.373 8.557 15.819 13.313 18.698 14.782 2.88-1.477 11.348-6.258 18.692-14.782 3.926-4.555 5.76-9.652 5.166-14.35z"/><path id="fb" d="M15.913 12.068a1.676 1.676 0 0 0 3.351 0V7.199c0-.926-.75-1.676-1.675-1.676H3.35V1.675a1.675 1.675 0 0 0-3.35 0v10.393a1.675 1.675 0 0 0 3.35 0V8.874h12.563v3.194z"/><path id="fc" d="M5.966 3.381h2.601a.712.712 0 0 0 .712-.712v-.585a.712.712 0 0 0-.712-.712H5.966a.712.712 0 0 0-.712.712v.585c0 .393.319.712.712.712z"/></defs></symbol><symbol viewBox="-1 -1 24 51" id="people_1" xmlns="http://www.w3.org/2000/svg"><title>people_1</title><desc>Created using Figma</desc><use xlink:href="#ga"/><defs><path id="ga" fill-rule="evenodd" d="M18.732 32.876v10.285c0 2.679-2.207 4.857-4.922 4.857H8.183c-2.715 0-4.922-2.178-4.922-4.857V32.886C1.282 31.836 0 29.775 0 27.518v-7.822c0-3.366 2.774-6.104 6.184-6.104v-.01h9.625c3.41 0 6.184 2.738 6.184 6.104v7.822c0 2.257-1.282 4.318-3.261 5.368zm.826-13.19c0-2.031-1.681-3.689-3.729-3.699H6.204c-2.068 0-3.748 1.658-3.748 3.699v7.832c0 1.54.984 2.934 2.456 3.464.477.177.795.628.795 1.128v11.041c0 1.354 1.114 2.453 2.486 2.453h5.627c1.373 0 2.486-1.099 2.486-2.453v-11.05c0-.501.318-.952.796-1.129a3.702 3.702 0 0 0 2.456-3.464v-7.822zm-8.561-7.379c-3.441 0-6.235-2.758-6.235-6.154C4.762 2.758 7.556 0 10.997 0c3.44 0 6.234 2.758 6.234 6.153 0 3.396-2.794 6.154-6.234 6.154zm0-9.902c-2.098 0-3.799 1.678-3.799 3.748 0 2.071 1.701 3.749 3.799 3.749s3.798-1.678 3.798-3.749c0-2.07-1.7-3.748-3.798-3.748z"/></defs></symbol><symbol viewBox="-1 -1 38 51" id="people_2" xmlns="http://www.w3.org/2000/svg"><title>people_2</title><desc>Created using Figma</desc><use xlink:href="#ha"/><defs><path id="ha" fill-rule="evenodd" d="M32.704 33.538v10.481a4.96 4.96 0 0 1-4.954 4.956h-5.664a1.23 1.23 0 1 1 0-2.463h5.664a2.503 2.503 0 0 0 2.502-2.502V32.757c0-.511.32-.971.801-1.151a3.775 3.775 0 0 0 2.472-3.534v-7.989a3.776 3.776 0 0 0-3.773-3.774h-5.354a1.23 1.23 0 1 1 0-2.463h5.354c3.442.02 6.234 2.813 6.234 6.237v7.979a6.243 6.243 0 0 1-3.282 5.476zm-7.165-20.984a6.28 6.28 0 0 1-6.275-6.277A6.28 6.28 0 0 1 25.539 0a6.28 6.28 0 0 1 6.274 6.277 6.28 6.28 0 0 1-6.274 6.277zm0-10.101a3.823 3.823 0 0 0-3.823 3.824 3.823 3.823 0 1 0 7.646 0 3.824 3.824 0 0 0-3.823-3.824zM11.068 12.554a6.28 6.28 0 0 1-6.274-6.277A6.28 6.28 0 0 1 11.068 0a6.28 6.28 0 0 1 6.275 6.277 6.28 6.28 0 0 1-6.275 6.277zm0-10.101a3.823 3.823 0 0 0-3.822 3.824 3.823 3.823 0 1 0 7.645 0 3.823 3.823 0 0 0-3.823-3.824zm4.844 11.413c3.432 0 6.214 2.793 6.224 6.217v7.979a6.243 6.243 0 0 1-3.282 5.476V44.03a4.96 4.96 0 0 1-4.954 4.955H8.236a4.959 4.959 0 0 1-4.953-4.955V33.548A6.242 6.242 0 0 1 0 28.072v-7.979a6.232 6.232 0 0 1 6.225-6.227h9.687zm-13.45 6.217v7.989c0 1.571.991 2.993 2.472 3.534.48.18.801.64.801 1.151v11.262a2.502 2.502 0 0 0 2.501 2.503H13.9a2.503 2.503 0 0 0 2.502-2.503V32.747c0-.511.32-.971.801-1.151a3.775 3.775 0 0 0 2.472-3.534h.02v-7.979a3.776 3.776 0 0 0-3.773-3.774H6.235a3.775 3.775 0 0 0-3.773 3.774z"/></defs></symbol><symbol viewBox="-1 -1 34 34" id="tel" xmlns="http://www.w3.org/2000/svg"><title>tel</title><desc>Created using Figma</desc><g transform="translate(232 363)"><use xlink:href="#ia" transform="translate(-231 -362)"/><use xlink:href="#ib" transform="translate(-223 -354)"/></g><defs><path id="ia" d="M15 .5C23.008.5 29.5 6.992 29.5 15h1C30.5 6.44 23.56-.5 15-.5v1zM29.5 15c0 8.008-6.492 14.5-14.5 14.5v1c8.56 0 15.5-6.94 15.5-15.5h-1zM15 29.5C6.992 29.5.5 23.008.5 15h-1c0 8.56 6.94 15.5 15.5 15.5v-1zM.5 15C.5 6.992 6.992.5 15 .5v-1C6.44-.5-.5 6.44-.5 15h1z"/><path id="ib" fill-rule="evenodd" d="M13.537 10.124a284.363 284.363 0 0 0-1.745-1.74c-.31-.306-.672-.468-1.051-.468-.379 0-.741.162-1.047.465l-.079.079c-.309.306-.63.624-.94.942a10.886 10.886 0 0 1-.188-.096 4.186 4.186 0 0 1-.397-.211c-.931-.583-1.788-1.361-2.616-2.381-.402-.494-.683-.934-.879-1.379.274-.266.544-.537.807-.803l.203-.203c.645-.647.642-1.485-.003-2.135-.197-.2-.4-.399-.594-.593l-.26-.26-.275-.275a43.459 43.459 0 0 0-.608-.604C3.556.159 3.191 0 2.815 0s-.741.159-1.048.462c-.147.148-.298.295-.44.44-.208.211-.425.427-.642.636a2.147 2.147 0 0 0-.674 1.445c-.067.904.185 1.722.411 2.335.515 1.384 1.302 2.696 2.407 4.011a14.996 14.996 0 0 0 4.929 3.853c1.041.506 1.936.763 2.807.812.063.003.127.006.188.006.735 0 1.34-.26 1.797-.769.197-.219.408-.425.631-.641.113-.11.228-.223.344-.339.648-.65.651-1.482.012-2.127zm-.562 1.578l-.333.33c-.222.217-.454.442-.668.682-.339.378-.767.537-1.36.506-.767-.044-1.563-.275-2.509-.734a14.22 14.22 0 0 1-4.674-3.651C2.384 7.59 1.64 6.355 1.157 5.055.859 4.257.749 3.639.792 3.052c.029-.379.171-.688.434-.936.223-.223.443-.446.657-.659l.431-.434c.11-.11.287-.24.501-.24.214 0 .39.13.503.24.2.197.405.402.599.598.093.093.183.185.275.275l.261.26.59.59c.347.349.35.688.003 1.034-.067.07-.136.136-.203.206-.28.283-.573.578-.865.858a.607.607 0 0 0-.145.717c.226.54.553 1.066 1.028 1.65.882 1.084 1.803 1.919 2.807 2.549.156.098.315.176.469.252.092.043.176.086.26.132a.635.635 0 0 0 .313.084.629.629 0 0 0 .454-.211c.327-.338.669-.673.995-1l.079-.078c.11-.11.286-.24.497-.24.212 0 .388.13.501.24.567.564 1.155 1.148 1.739 1.737.339.333.336.688 0 1.026z"/></defs></symbol><symbol viewBox="-1 -1 36 36" id="vk" xmlns="http://www.w3.org/2000/svg"><title>vk</title><desc>Created using Figma</desc><g transform="translate(261 291)"><use xlink:href="#ja" transform="translate(-260 -290)"/><use xlink:href="#jb" transform="translate(-249 -280)"/></g><defs><path id="ja" d="M0 0v-.5h-.5V0H0zm32 0h.5v-.5H32V0zm0 32v.5h.5V32H32zM0 32h-.5v.5H0V32zM0 .5h32v-1H0v1zM31.5 0v32h1V0h-1zm.5 31.5H0v1h32v-1zM.5 32V0h-1v32h1z"/><path id="jb" fill-rule="evenodd" d="M10.972 9.01c0-.882-.255-1.584-.764-2.105-.509-.521-1.189-.864-2.035-1.034v-.068A2.925 2.925 0 0 0 9.557 4.71a2.933 2.933 0 0 0 .503-1.691c0-.548-.122-1.031-.365-1.45-.242-.417-.61-.754-1.1-1.004A4.522 4.522 0 0 0 7.135.11C6.617.035 5.852 0 4.846 0H0v12.988h5.49c.954 0 1.736-.081 2.353-.245a4.917 4.917 0 0 0 1.701-.818 3.523 3.523 0 0 0 1.041-1.212c.259-.489.387-1.057.387-1.703zM6.56 3.674c0-.211-.057-.426-.17-.646a.996.996 0 0 0-.531-.479 2.243 2.243 0 0 0-.805-.156 58.821 58.821 0 0 0-1.387-.012h-.24V5.13h.434c.589 0 1.004-.006 1.24-.018.235-.012.481-.072.733-.181.273-.123.465-.292.568-.507a1.72 1.72 0 0 0 .158-.75zm.864 5.276c0-.402-.084-.715-.257-.941-.173-.229-.431-.399-.774-.514-.208-.079-.497-.121-.861-.129a64.203 64.203 0 0 0-1.469-.012h-.636v3.252h.186c.896 0 1.516-.006 1.859-.018a3.033 3.033 0 0 0 1.05-.235c.315-.129.541-.316.686-.563.145-.247.216-.527.216-.84z"/></defs></symbol></svg>