<svg width="26" height="26" viewBox="0 0 26 26" version="1.1" xmlns="http://www.w3.org/2000/svg" xmlns:xlink="http://www.w3.org/1999/xlink">
<title>date</title>
<desc>Created using Figma</desc>
<g id="Canvas" transform="translate(-88 214)">
<g id="date">
<g id="Vector">
<use xlink:href="#path0_fill" transform="translate(88 -214)" fill="#545454"/>
</g>
</g>
</g>
<defs>
<path id="path0_fill" fill-rule="evenodd" d="M 20.271 26C 19.154 26 18.114 25.674 17.232 25.119L 0.441 25.119C 0.197 25.119 0 24.922 0 24.678L 0 6.61L 0 2.203C 0 1.96 0.197 1.763 0.441 1.763L 2.644 1.763L 2.644 0.441C 2.644 0.197 2.841 0 3.085 0L 6.169 0C 6.413 0 6.61 0.197 6.61 0.441L 6.61 1.763L 16.305 1.763L 16.305 0.441C 16.305 0.197 16.502 0 16.746 0L 19.83 0C 20.074 0 20.271 0.197 20.271 0.441L 20.271 1.763L 22.475 1.763C 22.718 1.763 22.915 1.96 22.915 2.203L 22.915 6.61L 22.915 15.194C 24.746 16.151 26 18.066 26 20.271C 26 23.43 23.43 26 20.271 26ZM 5.729 2.203L 5.729 0.881L 3.525 0.881L 3.525 2.203L 3.525 3.525L 5.729 3.525L 5.729 2.203ZM 19.39 2.203L 19.39 0.881L 17.186 0.881L 17.186 2.203L 17.186 3.525L 19.39 3.525L 19.39 2.203ZM 22.034 2.644L 20.271 2.644L 20.271 3.966C 20.271 4.21 20.074 4.407 19.83 4.407L 16.746 4.407C 16.502 4.407 16.305 4.21 16.305 3.966L 16.305 2.644L 6.61 2.644L 6.61 3.966C 6.61 4.21 6.413 4.407 6.169 4.407L 3.085 4.407C 2.841 4.407 2.644 4.21 2.644 3.966L 2.644 2.644L 0.881 2.644L 0.881 6.169L 22.034 6.169L 22.034 2.644ZM 22.034 7.051L 0.881 7.051L 0.881 24.237L 0.881 24.238L 16.138 24.238C 16.066 24.162 16.001 24.081 15.932 24.002C 15.9 23.964 15.865 23.927 15.834 23.889C 15.748 23.784 15.668 23.675 15.591 23.564C 15.563 23.525 15.533 23.487 15.507 23.447C 15.433 23.337 15.367 23.225 15.302 23.11C 15.275 23.064 15.246 23.018 15.221 22.971C 15.163 22.863 15.112 22.751 15.061 22.639C 15.035 22.582 15.006 22.526 14.982 22.467C 14.938 22.363 14.901 22.256 14.864 22.148C 14.851 22.11 14.835 22.073 14.823 22.034L 11.898 22.034L 11.017 22.034L 7.932 22.034L 7.051 22.034L 3.085 22.034L 3.085 18.068L 3.085 17.186L 3.085 14.102L 3.085 13.22L 3.085 9.254L 7.051 9.254L 7.932 9.254L 11.017 9.254L 11.898 9.254L 14.983 9.254L 15.864 9.254L 19.83 9.254L 19.83 13.22L 19.83 14.102L 19.83 14.565C 19.976 14.553 20.122 14.542 20.271 14.542C 20.447 14.542 20.622 14.553 20.795 14.568C 20.856 14.574 20.916 14.582 20.977 14.59C 21.085 14.604 21.193 14.62 21.301 14.64C 21.376 14.653 21.451 14.668 21.526 14.685C 21.608 14.704 21.69 14.726 21.771 14.748C 21.859 14.772 21.947 14.795 22.034 14.823L 22.034 7.051ZM 11.898 14.102L 11.898 17.186L 14.983 17.186L 14.983 14.102L 11.898 14.102ZM 14.983 13.22L 14.983 10.136L 11.898 10.136L 11.898 13.22L 14.983 13.22ZM 11.898 18.068L 11.898 21.153L 14.614 21.153C 14.609 21.119 14.607 21.086 14.602 21.053C 14.593 20.982 14.578 20.913 14.571 20.841C 14.568 20.812 14.568 20.782 14.566 20.752C 14.551 20.591 14.542 20.43 14.542 20.271C 14.542 20.078 14.552 19.886 14.571 19.696C 14.58 19.611 14.597 19.529 14.609 19.446C 14.624 19.343 14.635 19.239 14.656 19.137C 14.682 19.006 14.719 18.878 14.754 18.75C 14.768 18.699 14.778 18.647 14.793 18.596C 14.845 18.428 14.905 18.264 14.972 18.103C 14.976 18.092 14.979 18.081 14.983 18.071L 14.983 18.068L 11.898 18.068ZM 7.932 14.102L 7.932 17.186L 11.017 17.186L 11.017 14.102L 7.932 14.102ZM 11.017 13.22L 11.017 10.136L 7.932 10.136L 7.932 13.22L 11.017 13.22ZM 7.932 18.068L 7.932 21.153L 11.017 21.153L 11.017 18.068L 7.932 18.068ZM 3.966 14.102L 3.966 17.186L 7.051 17.186L 7.051 14.102L 3.966 14.102ZM 7.051 13.22L 7.051 10.136L 3.966 10.136L 3.966 13.22L 7.051 13.22ZM 3.966 18.068L 3.966 21.153L 7.051 21.153L 7.051 18.068L 3.966 18.068ZM 18.949 14.102L 15.864 14.102L 15.864 16.615C 15.895 16.578 15.93 16.544 15.962 16.508C 16.037 16.422 16.112 16.336 16.192 16.255C 16.241 16.205 16.293 16.159 16.344 16.111C 16.417 16.042 16.491 15.973 16.568 15.908C 16.625 15.859 16.684 15.813 16.743 15.767C 16.817 15.709 16.891 15.653 16.967 15.599C 17.034 15.552 17.101 15.506 17.171 15.461C 17.239 15.417 17.309 15.375 17.379 15.334C 17.459 15.287 17.539 15.24 17.622 15.196C 17.669 15.172 17.717 15.15 17.765 15.128C 18.132 14.948 18.521 14.806 18.927 14.708C 18.934 14.706 18.941 14.704 18.949 14.702L 18.949 14.102ZM 18.949 13.22L 18.949 10.136L 15.864 10.136L 15.864 13.22L 18.949 13.22ZM 22.274 15.862C 22.125 15.795 21.976 15.735 21.824 15.683C 21.813 15.68 21.804 15.676 21.794 15.672C 21.645 15.622 21.495 15.582 21.343 15.547C 21.326 15.543 21.309 15.538 21.292 15.534C 21.149 15.503 21.005 15.481 20.861 15.463C 20.834 15.46 20.809 15.454 20.782 15.451C 20.613 15.433 20.443 15.424 20.271 15.424C 19.998 15.424 19.733 15.452 19.473 15.496L 19.463 15.497C 18.755 15.616 18.094 15.888 17.519 16.286C 17.501 16.299 17.483 16.313 17.464 16.327C 17.348 16.41 17.234 16.498 17.125 16.591C 17.091 16.62 17.059 16.651 17.026 16.681C 16.933 16.765 16.842 16.852 16.756 16.944C 16.724 16.977 16.694 17.011 16.664 17.045C 16.576 17.142 16.493 17.243 16.413 17.348C 16.391 17.378 16.368 17.407 16.347 17.437C 16.26 17.558 16.178 17.683 16.101 17.812C 16.083 17.843 16.062 17.873 16.045 17.905L 16.001 17.98C 15.936 18.101 15.877 18.225 15.822 18.351C 15.764 18.485 15.714 18.621 15.669 18.759C 15.663 18.775 15.656 18.792 15.651 18.809C 15.605 18.952 15.568 19.098 15.536 19.244C 15.533 19.258 15.528 19.272 15.525 19.286C 15.494 19.433 15.472 19.583 15.455 19.734C 15.454 19.747 15.451 19.76 15.449 19.774C 15.432 19.938 15.424 20.104 15.424 20.271C 15.424 20.464 15.437 20.66 15.463 20.858C 15.465 20.872 15.467 20.885 15.469 20.899C 15.495 21.091 15.532 21.283 15.581 21.477C 15.588 21.505 15.595 21.532 15.603 21.559C 15.636 21.678 15.674 21.795 15.715 21.91C 15.736 21.969 15.756 22.027 15.779 22.085C 15.832 22.216 15.892 22.344 15.956 22.47C 15.975 22.505 15.99 22.542 16.008 22.578C 16.09 22.728 16.182 22.874 16.279 23.015C 16.32 23.073 16.363 23.127 16.405 23.183C 16.472 23.271 16.539 23.357 16.612 23.44C 16.661 23.496 16.71 23.551 16.762 23.605C 16.842 23.689 16.926 23.771 17.013 23.849C 17.059 23.892 17.104 23.935 17.152 23.976C 17.288 24.09 17.43 24.199 17.58 24.3C 18.35 24.816 19.276 25.119 20.271 25.119C 22.944 25.119 25.119 22.944 25.119 20.271C 25.119 18.313 23.949 16.626 22.274 15.862ZM 22.915 20.747L 20.712 20.747L 20.712 22.95C 20.712 23.194 20.514 23.391 20.271 23.391C 20.028 23.391 19.83 23.194 19.83 22.95L 19.83 20.747L 17.627 20.747C 17.384 20.747 17.186 20.55 17.186 20.306C 17.186 20.063 17.384 19.866 17.627 19.866L 19.83 19.866L 19.83 17.662C 19.83 17.419 20.028 17.222 20.271 17.222C 20.514 17.222 20.712 17.419 20.712 17.662L 20.712 19.866L 22.915 19.866C 23.158 19.866 23.356 20.063 23.356 20.306C 23.356 20.55 23.158 20.747 22.915 20.747Z"/>
</defs>
</svg>
