<svg width="34" height="34" viewBox="0 0 34 34" version="1.1" xmlns="http://www.w3.org/2000/svg" xmlns:xlink="http://www.w3.org/1999/xlink">
<title>fb</title>
<desc>Created using Figma</desc>
<g id="Canvas" transform="translate(316 291)">
<g id="fb">
<g id="Vector">
<use xlink:href="#path0_stroke" transform="translate(-315 -290)" fill="#333333"/>
</g>
<g id="fb">
<use xlink:href="#path1_fill" transform="translate(-303 -283)" fill="#333333"/>
</g>
</g>
</g>
<defs>
<path id="path0_stroke" d="M 0 0L 0 -0.5L -0.5 -0.5L -0.5 0L 0 0ZM 32 0L 32.5 0L 32.5 -0.5L 32 -0.5L 32 0ZM 32 32L 32 32.5L 32.5 32.5L 32.5 32L 32 32ZM 0 32L -0.5 32L -0.5 32.5L 0 32.5L 0 32ZM 0 0.5L 32 0.5L 32 -0.5L 0 -0.5L 0 0.5ZM 31.5 0L 31.5 32L 32.5 32L 32.5 0L 31.5 0ZM 32 31.5L 0 31.5L 0 32.5L 32 32.5L 32 31.5ZM 0.5 32L 0.5 0L -0.5 0L -0.5 32L 0.5 32Z"/>
<path id="path1_fill" fill-rule="evenodd" d="M 5.315 19.015L 1.771 19.015L 1.771 9.507L 0 9.507L 0 6.23L 1.771 6.23L 1.771 4.263C 1.771 1.59 2.771 -1.8999e-10 5.611 -1.8999e-10L 7.976 -1.8999e-10L 7.976 3.277L 6.498 3.277C 5.392 3.277 5.319 3.735 5.319 4.59L 5.315 6.23L 7.993 6.23L 7.679 9.507L 5.315 9.507L 5.315 19.015Z"/>
</defs>
</svg>
