<svg width="34" height="34" viewBox="0 0 34 34" version="1.1" xmlns="http://www.w3.org/2000/svg" xmlns:xlink="http://www.w3.org/1999/xlink">
<title>in</title>
<desc>Created using Figma</desc>
<g id="Canvas" transform="translate(213 291)">
<g id="in">
<g id="Vector">
<use xlink:href="#path0_stroke" transform="translate(-212 -290)" fill="#333333"/>
</g>
<g id="in">
<use xlink:href="#path1_fill" transform="translate(-204 -282)" fill="#333333"/>
</g>
</g>
</g>
<defs>
<path id="path0_stroke" d="M 0 0L 0 -0.5L -0.5 -0.5L -0.5 0L 0 0ZM 32 0L 32.5 0L 32.5 -0.5L 32 -0.5L 32 0ZM 32 32L 32 32.5L 32.5 32.5L 32.5 32L 32 32ZM 0 32L -0.5 32L -0.5 32.5L 0 32.5L 0 32ZM 0 0.5L 32 0.5L 32 -0.5L 0 -0.5L 0 0.5ZM 31.5 0L 31.5 32L 32.5 32L 32.5 0L 31.5 0ZM 32 31.5L 0 31.5L 0 32.5L 32 32.5L 32 31.5ZM 0.5 32L 0.5 0L -0.5 0L -0.5 32L 0.5 32Z"/>
<path id="path1_fill" fill-rule="evenodd" d="M 2.054 -4.74975e-11L 13.948 -4.74975e-11C 15.077 -4.74975e-11 16.001 0.836 16.001 2.054L 16.001 13.948C 16.001 15.165 15.077 16.002 13.948 16.002L 2.054 16.002C 0.924 16.002 -4.74975e-11 15.165 -4.74975e-11 13.948L -4.74975e-11 2.054C -4.74975e-11 0.836 0.924 -4.74975e-11 2.054 -4.74975e-11ZM 11.657 1.778C 11.26 1.778 10.936 2.102 10.936 2.498L 10.936 4.223C 10.936 4.619 11.26 4.943 11.657 4.943L 13.465 4.943C 13.861 4.943 14.185 4.619 14.185 4.223L 14.185 2.498C 14.185 2.102 13.861 1.778 13.465 1.778L 11.657 1.778ZM 14.193 6.767L 12.785 6.767C 12.918 7.202 12.99 7.663 12.99 8.14C 12.99 10.801 10.763 12.959 8.016 12.959C 5.269 12.959 3.043 10.801 3.043 8.14C 3.043 7.663 3.114 7.202 3.248 6.767L 1.778 6.767L 1.778 13.526C 1.778 13.876 2.065 14.162 2.414 14.162L 13.557 14.162C 13.907 14.162 14.193 13.876 14.193 13.526L 14.193 6.767ZM 8.016 4.852C 6.241 4.852 4.802 6.246 4.802 7.966C 4.802 9.686 6.241 11.08 8.016 11.08C 9.791 11.08 11.23 9.686 11.23 7.966C 11.23 6.246 9.791 4.852 8.016 4.852Z"/>
</defs>
</svg>
