<svg width="59" height="49" viewBox="0 0 59 49" version="1.1" xmlns="http://www.w3.org/2000/svg" xmlns:xlink="http://www.w3.org/1999/xlink">
<title>logo</title>
<desc>Created using Figma</desc>
<g id="Canvas" transform="translate(-252 345)">
<g id="logo">
<g id="Vector">
<use xlink:href="#path0_fill" transform="translate(252 -345)" fill="#333333"/>
</g>
<g id="Vector">
<use xlink:href="#path1_fill" transform="translate(271.707 -328.376)" fill="#FD6262"/>
<use xlink:href="#path2_fill" transform="translate(271.707 -328.376)" fill="#FD6262"/>
</g>
</g>
</g>
<defs>
<path id="path0_fill" fill-rule="evenodd" d="M 51.5118 32.192C 41.7768 43.49 30.5098 48.574 30.0348 48.785C 29.7108 48.929 29.3628 49.001 29.0158 49.001C 28.6678 49.001 28.3208 48.929 27.9968 48.785C 27.5208 48.575 16.2438 43.491 6.50779 32.192C 1.60979 26.508 -0.645208 19.983 0.159792 13.82C 0.779792 9.073 3.23679 4.913 6.90279 2.406C 9.23579 0.81 11.8238 -4.74975e-11 14.5938 -4.74975e-11C 20.6388 -4.74975e-11 26.0678 3.866 29.0078 6.436C 31.8548 3.965 37.3758 0.003 43.4938 0.003C 46.2618 0.003 48.8328 0.815 51.1338 2.417C 54.8048 4.971 57.2548 9.168 57.8568 13.931C 58.6318 20.059 56.3788 26.545 51.5118 32.192ZM 52.8708 14.561C 52.4468 11.208 50.7678 8.285 48.2638 6.543C 46.7998 5.524 45.2398 5.029 43.4938 5.029C 37.2868 5.029 31.0688 11.363 30.8078 11.632C 30.3358 12.119 29.6868 12.394 29.0088 12.395L 29.0048 12.395C 28.3288 12.395 27.6808 12.122 27.2078 11.639C 26.1278 10.535 20.4468 5.026 14.5938 5.026C 12.8308 5.026 11.2428 5.526 9.73979 6.554C 7.25279 8.255 5.57779 11.14 5.14279 14.47C 4.52579 19.196 6.36279 24.325 10.3148 28.911C 17.6878 37.468 26.1338 42.224 29.0128 43.693C 31.8938 42.216 40.3608 37.435 47.7048 28.911C 51.6308 24.356 53.4648 19.259 52.8708 14.561Z"/>
<path id="path1_fill" d="M 15.913 12.068C 15.913 12.993 16.664 13.743 17.589 13.743C 18.514 13.743 19.264 12.993 19.264 12.068L 19.264 7.199C 19.264 6.273 18.514 5.523 17.589 5.523L 3.35 5.523L 3.35 1.675C 3.35 0.750001 2.6 0 1.675 0C 0.750001 0 0 0.750001 0 1.675L 0 12.068C 0 12.993 0.750001 13.743 1.675 13.743C 2.6 13.743 3.35 12.993 3.35 12.068L 3.35 8.874L 15.913 8.874L 15.913 12.068Z"/>
<path id="path2_fill" d="M 5.966 3.381L 8.567 3.381C 8.96 3.381 9.279 3.062 9.279 2.669L 9.279 2.084C 9.279 1.691 8.96 1.372 8.567 1.372L 5.966 1.372C 5.573 1.372 5.254 1.691 5.254 2.084L 5.254 2.669C 5.254 3.062 5.573 3.381 5.966 3.381Z"/>
</defs>
</svg>
