<svg width="36" height="49" viewBox="0 0 36 49" version="1.1" xmlns="http://www.w3.org/2000/svg" xmlns:xlink="http://www.w3.org/1999/xlink">
<title>people_2</title>
<desc>Created using Figma</desc>
<g id="Canvas" transform="translate(-320 120)">
<g id="people_2">
<g id="Vector">
<use xlink:href="#path0_fill" transform="translate(320 -120)" fill="#FFFFFF"/>
</g>
</g>
</g>
<defs>
<path id="path0_fill" fill-rule="evenodd" d="M 32.704 33.538L 32.704 44.019C 32.704 46.753 30.482 48.975 27.75 48.975L 22.086 48.975C 21.406 48.975 20.855 48.424 20.855 47.744C 20.855 47.063 21.406 46.512 22.086 46.512L 27.75 46.512C 29.131 46.512 30.252 45.391 30.252 44.01L 30.252 32.757C 30.252 32.246 30.572 31.786 31.053 31.606C 32.534 31.065 33.525 29.643 33.525 28.072L 33.525 20.083C 33.525 18 31.833 16.309 29.752 16.309L 24.398 16.309C 23.717 16.309 23.167 15.758 23.167 15.077C 23.167 14.396 23.717 13.846 24.398 13.846L 29.752 13.846C 33.194 13.866 35.986 16.659 35.986 20.083L 35.986 28.062C 35.986 30.364 34.695 32.467 32.704 33.538ZM 25.539 12.554C 22.076 12.554 19.264 9.741 19.264 6.277C 19.264 2.813 22.076 5.21541e-11 25.539 5.21541e-11C 29.001 5.21541e-11 31.813 2.813 31.813 6.277C 31.813 9.741 29.001 12.554 25.539 12.554ZM 25.539 2.453C 23.427 2.453 21.716 4.165 21.716 6.277C 21.716 8.39 23.427 10.102 25.539 10.102C 27.65 10.102 29.362 8.39 29.362 6.277C 29.362 4.165 27.65 2.453 25.539 2.453ZM 11.068 12.554C 7.606 12.554 4.794 9.741 4.794 6.277C 4.794 2.813 7.606 5.21541e-11 11.068 5.21541e-11C 14.531 5.21541e-11 17.343 2.813 17.343 6.277C 17.343 9.741 14.531 12.554 11.068 12.554ZM 11.068 2.453C 8.957 2.453 7.246 4.165 7.246 6.277C 7.246 8.39 8.957 10.102 11.068 10.102C 13.18 10.102 14.891 8.39 14.891 6.277C 14.891 4.165 13.18 2.453 11.068 2.453ZM 15.912 13.866C 19.344 13.866 22.126 16.659 22.136 20.083L 22.136 28.062C 22.136 30.364 20.845 32.467 18.854 33.538L 18.854 44.03C 18.854 46.763 16.632 48.985 13.9 48.985L 8.236 48.985C 5.504 48.985 3.283 46.763 3.283 44.03L 3.283 33.548C 1.291 32.477 2.16067e-10 30.374 2.16067e-10 28.072L 2.16067e-10 20.093C 2.16067e-10 16.659 2.792 13.866 6.225 13.866L 15.912 13.866ZM 2.462 20.083L 2.462 28.072C 2.462 29.643 3.453 31.065 4.934 31.606C 5.414 31.786 5.735 32.246 5.735 32.757L 5.735 44.019C 5.735 45.401 6.855 46.522 8.236 46.522L 13.9 46.522C 15.281 46.522 16.402 45.401 16.402 44.019L 16.402 32.747C 16.402 32.236 16.722 31.776 17.203 31.596C 18.684 31.055 19.675 29.633 19.675 28.062L 19.695 28.062L 19.695 20.083C 19.695 18 18.003 16.309 15.922 16.309L 6.235 16.309C 4.153 16.309 2.462 18 2.462 20.083Z"/>
</defs>
</svg>
