<svg width="22" height="49" viewBox="0 0 22 49" version="1.1" xmlns="http://www.w3.org/2000/svg" xmlns:xlink="http://www.w3.org/1999/xlink">
<title>people_1</title>
<desc>Created using Figma</desc>
<g id="Canvas" transform="translate(-298 120)">
<g id="people_1">
<g id="Vector">
<use xlink:href="#path0_fill" transform="translate(298 -120)" fill="#FFFFFF"/>
</g>
</g>
</g>
<defs>
<path id="path0_fill" fill-rule="evenodd" d="M 18.732 32.876L 18.732 43.161C 18.732 45.84 16.525 48.018 13.81 48.018L 8.183 48.018C 5.468 48.018 3.261 45.84 3.261 43.161L 3.261 32.886C 1.282 31.836 -2.6077e-11 29.775 -2.6077e-11 27.518L -2.6077e-11 19.696C -2.6077e-11 16.33 2.774 13.592 6.184 13.592L 6.184 13.582L 15.809 13.582C 19.219 13.582 21.993 16.32 21.993 19.686L 21.993 27.508C 21.993 29.765 20.711 31.826 18.732 32.876ZM 19.558 19.686C 19.558 17.655 17.877 15.997 15.829 15.987L 6.204 15.987C 4.136 15.987 2.456 17.645 2.456 19.686L 2.456 27.518C 2.456 29.058 3.44 30.452 4.912 30.982C 5.389 31.159 5.707 31.61 5.707 32.11L 5.707 43.151C 5.707 44.505 6.821 45.604 8.193 45.604L 13.82 45.604C 15.193 45.604 16.306 44.505 16.306 43.151L 16.306 32.101C 16.306 31.6 16.624 31.149 17.102 30.972C 18.573 30.442 19.558 29.049 19.558 27.508L 19.558 19.686ZM 10.997 12.307C 7.556 12.307 4.762 9.549 4.762 6.153C 4.762 2.758 7.556 9.49949e-11 10.997 9.49949e-11C 14.437 9.49949e-11 17.231 2.758 17.231 6.153C 17.231 9.549 14.437 12.307 10.997 12.307ZM 10.997 2.405C 8.899 2.405 7.198 4.083 7.198 6.153C 7.198 8.224 8.899 9.902 10.997 9.902C 13.095 9.902 14.795 8.224 14.795 6.153C 14.795 4.083 13.095 2.405 10.997 2.405Z"/>
</defs>
</svg>
