<svg width="32" height="32" viewBox="0 0 32 32" version="1.1" xmlns="http://www.w3.org/2000/svg" xmlns:xlink="http://www.w3.org/1999/xlink">
<title>tel</title>
<desc>Created using Figma</desc>
<g id="Canvas" transform="translate(232 363)">
<g id="tel">
<g id="Vector">
<use xlink:href="#path0_stroke" transform="translate(-231 -362)" fill="#333333"/>
</g>
<g id="Vector">
<use xlink:href="#path1_fill" transform="translate(-223 -354)" fill="#333333"/>
</g>
</g>
</g>
<defs>
<path id="path0_stroke" d="M 15 0.5C 23.0079 0.5 29.5 6.99214 29.5 15L 30.5 15C 30.5 6.43986 23.5601 -0.5 15 -0.5L 15 0.5ZM 29.5 15C 29.5 23.0079 23.0079 29.5 15 29.5L 15 30.5C 23.5601 30.5 30.5 23.5601 30.5 15L 29.5 15ZM 15 29.5C 6.99214 29.5 0.5 23.0079 0.5 15L -0.5 15C -0.5 23.5601 6.43986 30.5 15 30.5L 15 29.5ZM 0.5 15C 0.5 6.99214 6.99214 0.5 15 0.5L 15 -0.5C 6.43986 -0.5 -0.5 6.43986 -0.5 15L 0.5 15Z"/>
<path id="path1_fill" fill-rule="evenodd" d="M 13.537 10.124C 12.949 9.532 12.362 8.948 11.792 8.384C 11.482 8.078 11.12 7.916 10.741 7.916C 10.362 7.916 9.99999 8.078 9.69399 8.381L 9.61499 8.46C 9.30599 8.766 8.98499 9.084 8.67499 9.402C 8.61099 9.37 8.54799 9.338 8.48699 9.306C 8.34499 9.237 8.20899 9.17 8.08999 9.095C 7.15899 8.512 6.30199 7.734 5.47399 6.714C 5.07199 6.22 4.79099 5.78 4.59499 5.335C 4.86899 5.069 5.13899 4.798 5.40199 4.532C 5.46799 4.465 5.53799 4.396 5.60499 4.329C 6.24999 3.682 6.24699 2.844 5.60199 2.194C 5.40499 1.994 5.20199 1.795 5.00799 1.601C 4.92199 1.514 4.83499 1.428 4.74799 1.341C 4.65499 1.249 4.56599 1.159 4.47299 1.066C 4.27599 0.867 4.07099 0.662 3.86499 0.462C 3.55599 0.159 3.19099 0 2.81499 0C 2.43899 0 2.07399 0.159 1.76699 0.462C 1.61999 0.61 1.46899 0.757 1.32699 0.902C 1.11899 1.113 0.901992 1.329 0.684992 1.538C 0.279992 1.922 0.0539921 2.407 0.0109921 2.983C -0.0560079 3.887 0.195992 4.705 0.421992 5.318C 0.936992 6.702 1.72399 8.014 2.82899 9.329C 4.20699 10.965 5.86499 12.26 7.75799 13.182C 8.79899 13.688 9.69399 13.945 10.565 13.994C 10.628 13.997 10.692 14 10.753 14C 11.488 14 12.093 13.74 12.55 13.231C 12.747 13.012 12.958 12.806 13.181 12.59C 13.294 12.48 13.409 12.367 13.525 12.251C 14.173 11.601 14.176 10.769 13.537 10.124ZM 12.975 11.702C 12.865 11.812 12.752 11.922 12.642 12.032C 12.42 12.249 12.188 12.474 11.974 12.714C 11.635 13.092 11.207 13.251 10.614 13.22C 9.84699 13.176 9.05099 12.945 8.10499 12.486C 6.31099 11.613 4.73599 10.384 3.43099 8.835C 2.38399 7.59 1.63999 6.355 1.15699 5.055C 0.858992 4.257 0.748992 3.639 0.791992 3.052C 0.820992 2.673 0.962992 2.364 1.22599 2.116C 1.44899 1.893 1.66899 1.67 1.88299 1.457C 2.02499 1.315 2.16999 1.168 2.31399 1.023C 2.42399 0.913 2.60099 0.783 2.81499 0.783C 3.02899 0.783 3.20499 0.913 3.31799 1.023C 3.51799 1.22 3.72299 1.425 3.91699 1.621C 4.00999 1.714 4.09999 1.806 4.19199 1.896C 4.27899 1.983 4.36599 2.069 4.45299 2.156C 4.64699 2.35 4.84599 2.549 5.04299 2.746C 5.38999 3.095 5.39299 3.434 5.04599 3.78C 4.97899 3.85 4.90999 3.916 4.84299 3.986C 4.56299 4.269 4.26999 4.564 3.97799 4.844C 3.83299 4.983 3.69199 5.22 3.83299 5.561C 4.05899 6.101 4.38599 6.627 4.86099 7.211C 5.74299 8.295 6.66399 9.13 7.66799 9.76C 7.82399 9.858 7.98299 9.936 8.13699 10.012C 8.22899 10.055 8.31299 10.098 8.39699 10.144C 8.50099 10.202 8.60599 10.228 8.70999 10.228C 8.87499 10.228 9.02799 10.156 9.16399 10.017C 9.49099 9.679 9.83299 9.344 10.159 9.017L 10.238 8.939C 10.348 8.829 10.524 8.699 10.735 8.699C 10.947 8.699 11.123 8.829 11.236 8.939C 11.803 9.503 12.391 10.087 12.975 10.676C 13.314 11.009 13.311 11.364 12.975 11.702Z"/>
</defs>
</svg>
