<svg width="34" height="34" viewBox="0 0 34 34" version="1.1" xmlns="http://www.w3.org/2000/svg" xmlns:xlink="http://www.w3.org/1999/xlink">
<title>vk</title>
<desc>Created using Figma</desc>
<g id="Canvas" transform="translate(261 291)">
<g id="vk">
<g id="Vector">
<use xlink:href="#path0_stroke" transform="translate(-260 -290)" fill="#333333"/>
</g>
<g id="vk">
<use xlink:href="#path1_fill" transform="translate(-249 -280)" fill="#333333"/>
</g>
</g>
</g>
<defs>
<path id="path0_stroke" d="M 0 0L 0 -0.5L -0.5 -0.5L -0.5 0L 0 0ZM 32 0L 32.5 0L 32.5 -0.5L 32 -0.5L 32 0ZM 32 32L 32 32.5L 32.5 32.5L 32.5 32L 32 32ZM 0 32L -0.5 32L -0.5 32.5L 0 32.5L 0 32ZM 0 0.5L 32 0.5L 32 -0.5L 0 -0.5L 0 0.5ZM 31.5 0L 31.5 32L 32.5 32L 32.5 0L 31.5 0ZM 32 31.5L 0 31.5L 0 32.5L 32 32.5L 32 31.5ZM 0.5 32L 0.5 0L -0.5 0L -0.5 32L 0.5 32Z"/>
<path id="path1_fill" fill-rule="evenodd" d="M 10.972 9.01C 10.972 8.128 10.717 7.426 10.208 6.905C 9.699 6.384 9.019 6.041 8.173 5.871L 8.173 5.803C 8.762 5.568 9.224 5.205 9.557 4.71C 9.893 4.216 10.06 3.653 10.06 3.019C 10.06 2.471 9.938 1.988 9.695 1.569C 9.453 1.152 9.085 0.815 8.595 0.565C 8.142 0.333 7.655 0.181 7.135 0.11C 6.617 0.035 5.852 5.21541e-11 4.846 5.21541e-11L 4.32134e-10 5.21541e-11L 4.32134e-10 12.988L 5.49 12.988C 6.444 12.988 7.226 12.907 7.843 12.743C 8.463 12.58 9.029 12.308 9.544 11.925C 9.982 11.603 10.327 11.201 10.585 10.713C 10.844 10.224 10.972 9.656 10.972 9.01ZM 6.56 3.674C 6.56 3.463 6.503 3.248 6.39 3.028C 6.277 2.808 6.101 2.647 5.859 2.549C 5.632 2.453 5.365 2.403 5.054 2.393C 4.743 2.385 4.28 2.381 3.667 2.381L 3.427 2.381L 3.427 5.13L 3.861 5.13C 4.45 5.13 4.865 5.124 5.101 5.112C 5.336 5.1 5.582 5.04 5.834 4.931C 6.107 4.808 6.299 4.639 6.402 4.424C 6.506 4.207 6.56 3.956 6.56 3.674ZM 7.424 8.95C 7.424 8.548 7.34 8.235 7.167 8.009C 6.994 7.78 6.736 7.61 6.393 7.495C 6.185 7.416 5.896 7.374 5.532 7.366C 5.167 7.357 4.676 7.354 4.063 7.354L 3.427 7.354L 3.427 10.606L 3.613 10.606C 4.509 10.606 5.129 10.6 5.472 10.588C 5.815 10.576 6.167 10.499 6.522 10.353C 6.837 10.224 7.063 10.037 7.208 9.79C 7.353 9.543 7.424 9.263 7.424 8.95Z"/>
</defs>
</svg>
