<svg width="0" height="0" style="position:absolute"><symbol viewBox="0 0 59 49" id="newlogo" xmlns="http://www.w3.org/2000/svg"><title>logo</title><desc>Created using Figma</desc><g transform="translate(-252 345)"><use xlink:href="#aa" transform="translate(252 -345)" fill="#333"/><g transform="translate(271.707 -328.376)" fill="#FD6262"><use xlink:href="#ab"/><use xlink:href="#ac"/></g></g><defs><path id="aa" fill-rule="evenodd" d="M51.512 32.192C41.777 43.49 30.51 48.574 30.035 48.785a2.51 2.51 0 0 1-2.038 0c-.476-.21-11.753-5.294-21.49-16.593C1.61 26.508-.644 19.983.16 13.82.78 9.073 3.237 4.913 6.903 2.406 9.236.81 11.823 0 14.593 0c6.046 0 11.475 3.866 14.415 6.436C31.855 3.965 37.376.003 43.494.003c2.768 0 5.339.812 7.64 2.414 3.67 2.554 6.12 6.751 6.723 11.514.775 6.128-1.478 12.614-6.345 18.261zm1.359-17.631c-.424-3.353-2.103-6.276-4.607-8.018-1.464-1.019-3.024-1.514-4.77-1.514-6.207 0-12.425 6.334-12.686 6.603a2.51 2.51 0 0 1-1.8.763h-.003a2.516 2.516 0 0 1-1.797-.756c-1.08-1.104-6.761-6.613-12.614-6.613-1.763 0-3.351.5-4.854 1.528-2.487 1.701-4.162 4.586-4.597 7.916-.617 4.726 1.22 9.855 5.172 14.441 7.373 8.557 15.819 13.313 18.698 14.782 2.88-1.477 11.348-6.258 18.692-14.782 3.926-4.555 5.76-9.652 5.166-14.35z"/><path id="ab" d="M15.913 12.068a1.676 1.676 0 0 0 3.351 0V7.199c0-.926-.75-1.676-1.675-1.676H3.35V1.675a1.675 1.675 0 0 0-3.35 0v10.393a1.675 1.675 0 0 0 3.35 0V8.874h12.563v3.194z"/><path id="ac" d="M5.966 3.381h2.601a.712.712 0 0 0 .712-.712v-.585a.712.712 0 0 0-.712-.712H5.966a.712.712 0 0 0-.712.712v.585c0 .393.319.712.712.712z"/></defs></symbol></svg>