<svg width="0" height="0" style="position:absolute"><symbol viewBox="-1 -1 15 9" id="arrowDown" xmlns="http://www.w3.org/2000/svg"><title>arrowDown</title><desc>Created using Figma</desc><use xlink:href="#aa"/><defs><path id="aa" fill-rule="evenodd" d="M12.012.754l-6.006 6.24L0 .754.726 0l5.28 5.485L11.286 0l.726.754z"/></defs></symbol><symbol viewBox="-1 -1 27 21" id="check" xmlns="http://www.w3.org/2000/svg"><title>check</title><desc>Created using Figma</desc><use xlink:href="#ba"/><defs><path id="ba" fill-rule="evenodd" d="M24.122 2.122l-16 16-.061-.061-.061.061-8-8L2.122 8l5.939 5.94L22 0l2.122 2.122z"/></defs></symbol><symbol viewBox="-1 -1 28 28" id="date" xmlns="http://www.w3.org/2000/svg"><title>date</title><desc>Created using Figma</desc><use xlink:href="#ca"/><defs><path id="ca" fill-rule="evenodd" d="M20.271 26a5.687 5.687 0 0 1-3.039-.881H.441A.44.44 0 0 1 0 24.678V2.203a.44.44 0 0 1 .441-.44h2.203V.441A.44.44 0 0 1 3.085 0h3.084a.44.44 0 0 1 .441.441v1.322h9.695V.441A.44.44 0 0 1 16.746 0h3.084a.44.44 0 0 1 .441.441v1.322h2.204a.44.44 0 0 1 .44.44v12.991A5.73 5.73 0 0 1 26 20.271 5.735 5.735 0 0 1 20.271 26zM5.729 2.203V.881H3.525v2.644h2.204V2.203zm13.661 0V.881h-2.204v2.644h2.204V2.203zm2.644.441h-1.763v1.322a.44.44 0 0 1-.441.441h-3.084a.44.44 0 0 1-.441-.441V2.644H6.61v1.322a.44.44 0 0 1-.441.441H3.085a.44.44 0 0 1-.441-.441V2.644H.881v3.525h21.153V2.644zm0 4.407H.881v17.187h15.257c-.072-.076-.137-.157-.206-.236-.032-.038-.067-.075-.098-.113a5.084 5.084 0 0 1-.243-.325c-.028-.039-.058-.077-.084-.117a5.043 5.043 0 0 1-.205-.337c-.027-.046-.056-.092-.081-.139a5.63 5.63 0 0 1-.16-.332c-.026-.057-.055-.113-.079-.172a4.85 4.85 0 0 1-.118-.319c-.013-.038-.029-.075-.041-.114H3.085V9.254H19.83v5.311c.146-.012.292-.023.441-.023.176 0 .351.011.524.026.061.006.121.014.182.022a6.043 6.043 0 0 1 .549.095c.082.019.164.041.245.063.088.024.176.047.263.075V7.051zm-10.136 7.051v3.084h3.085v-3.084h-3.085zm3.085-.882v-3.084h-3.085v3.084h3.085zm-3.085 4.848v3.085h2.716c-.005-.034-.007-.067-.012-.1-.009-.071-.024-.14-.031-.212-.003-.029-.003-.059-.005-.089a5.198 5.198 0 0 1 .005-1.056c.009-.085.026-.167.038-.25.015-.103.026-.207.047-.309.026-.131.063-.259.098-.387.014-.051.024-.103.039-.154.052-.168.112-.332.179-.493l.011-.032v-.003h-3.085zm-3.966-3.966v3.084h3.085v-3.084H7.932zm3.085-.882v-3.084H7.932v3.084h3.085zm-3.085 4.848v3.085h3.085v-3.085H7.932zm-3.966-3.966v3.084h3.085v-3.084H3.966zm3.085-.882v-3.084H3.966v3.084h3.085zm-3.085 4.848v3.085h3.085v-3.085H3.966zm14.983-3.966h-3.085v2.513c.031-.037.066-.071.098-.107.075-.086.15-.172.23-.253.049-.05.101-.096.152-.144.073-.069.147-.138.224-.203.057-.049.116-.095.175-.141a5.94 5.94 0 0 1 .428-.306 6.365 6.365 0 0 1 .451-.265c.047-.024.095-.046.143-.068a5.648 5.648 0 0 1 1.184-.426v-.6zm0-.882v-3.084h-3.085v3.084h3.085zm3.325 2.642a5.199 5.199 0 0 0-.45-.179l-.03-.011a4.788 4.788 0 0 0-.451-.125l-.051-.013a4.899 4.899 0 0 0-.431-.071c-.027-.003-.052-.009-.079-.012a4.765 4.765 0 0 0-1.309.045l-.01.001a4.813 4.813 0 0 0-1.944.789l-.055.041a5.05 5.05 0 0 0-.339.264c-.034.029-.066.06-.099.09a4.463 4.463 0 0 0-.362.364 4.583 4.583 0 0 0-.251.303c-.022.03-.045.059-.066.089a5.261 5.261 0 0 0-.246.375c-.018.031-.039.061-.056.093l-.044.075a4.664 4.664 0 0 0-.332.779c-.006.016-.013.033-.018.05a4.721 4.721 0 0 0-.115.435l-.011.042a4.746 4.746 0 0 0-.07.448l-.006.04a4.822 4.822 0 0 0 .014 1.084l.006.041a5.209 5.209 0 0 0 .134.66c.033.119.071.236.112.351.021.059.041.117.064.175.053.131.113.259.177.385.019.035.034.072.052.108.082.15.174.296.271.437.041.058.084.112.126.168a4.65 4.65 0 0 0 .608.666c.046.043.091.086.139.127a4.82 4.82 0 0 0 3.119 1.143 4.854 4.854 0 0 0 4.848-4.848 4.851 4.851 0 0 0-2.845-4.409zm.641 4.885h-2.203v2.203a.441.441 0 0 1-.882 0v-2.203h-2.203a.441.441 0 0 1 0-.881h2.203v-2.204a.44.44 0 0 1 .882 0v2.204h2.203a.44.44 0 1 1 0 .881z"/></defs></symbol><symbol viewBox="-1 -1 61 51" id="logo" xmlns="http://www.w3.org/2000/svg"><title>logo</title><desc>Created using Figma</desc><g transform="translate(-252 345)"><use xlink:href="#da" transform="translate(252 -345)"/><g transform="translate(271.707 -328.376)"><use xlink:href="#db"/><use xlink:href="#dc"/></g></g><defs><path id="da" fill-rule="evenodd" d="M51.512 32.192C41.777 43.49 30.51 48.574 30.035 48.785a2.51 2.51 0 0 1-2.038 0c-.476-.21-11.753-5.294-21.49-16.593C1.61 26.508-.644 19.983.16 13.82.78 9.073 3.237 4.913 6.903 2.406 9.236.81 11.823 0 14.593 0c6.046 0 11.475 3.866 14.415 6.436C31.855 3.965 37.376.003 43.494.003c2.768 0 5.339.812 7.64 2.414 3.67 2.554 6.12 6.751 6.723 11.514.775 6.128-1.478 12.614-6.345 18.261zm1.359-17.631c-.424-3.353-2.103-6.276-4.607-8.018-1.464-1.019-3.024-1.514-4.77-1.514-6.207 0-12.425 6.334-12.686 6.603a2.51 2.51 0 0 1-1.8.763h-.003a2.516 2.516 0 0 1-1.797-.756c-1.08-1.104-6.761-6.613-12.614-6.613-1.763 0-3.351.5-4.854 1.528-2.487 1.701-4.162 4.586-4.597 7.916-.617 4.726 1.22 9.855 5.172 14.441 7.373 8.557 15.819 13.313 18.698 14.782 2.88-1.477 11.348-6.258 18.692-14.782 3.926-4.555 5.76-9.652 5.166-14.35z"/><path id="db" d="M15.913 12.068a1.676 1.676 0 0 0 3.351 0V7.199c0-.926-.75-1.676-1.675-1.676H3.35V1.675a1.675 1.675 0 0 0-3.35 0v10.393a1.675 1.675 0 0 0 3.35 0V8.874h12.563v3.194z"/><path id="dc" d="M5.966 3.381h2.601a.712.712 0 0 0 .712-.712v-.585a.712.712 0 0 0-.712-.712H5.966a.712.712 0 0 0-.712.712v.585c0 .393.319.712.712.712z"/></defs></symbol></svg>