<svg width="0" height="0" style="position:absolute"><symbol viewBox="-1 -1 28 33" id="bell" xmlns="http://www.w3.org/2000/svg"><title>bell</title><desc>Created using Figma</desc><use xlink:href="#aa" transform="translate(.447 .157)"/><defs><path id="aa" d="M21.828 27.134a7.88 7.88 0 0 0 .825-4.82 6.743 6.743 0 0 1 .046-2.258 6.725 6.725 0 0 1 .786-2.116l.662-1.147c1.918-3.322 1.268-7.432-1.33-10.02l2.068-3.58a2.131 2.131 0 0 0-.78-2.908 2.131 2.131 0 0 0-2.907.779l-2.066 3.578a8.245 8.245 0 0 0-4.31-.002A8.235 8.235 0 0 0 9.79 8.503L9.126 9.65a6.784 6.784 0 0 1-3.372 2.908 7.83 7.83 0 0 0-3.762 3.123 1.809 1.809 0 0 0-1.75.894 1.809 1.809 0 0 0 .661 2.468L6.9 22.505a3.836 3.836 0 0 0 1.64 4.742c1.669.963 3.769.523 4.926-.95l5.997 3.461c.863.498 1.97.202 2.468-.661a1.81 1.81 0 0 0-.103-1.963zm.313-25.526a1.041 1.041 0 0 1 1.801 1.04l-1.96 3.397a8.342 8.342 0 0 0-1.802-1.04l1.96-3.397zM4.222 14.74a6.74 6.74 0 0 1 1.932-1.169 7.877 7.877 0 0 0 3.915-3.375l.662-1.148a7.154 7.154 0 0 1 4.373-3.355 7.157 7.157 0 0 1 5.465.72c3.439 1.985 4.621 6.398 2.636 9.836l-.663 1.148a7.81 7.81 0 0 0-.913 2.457 7.828 7.828 0 0 0-.053 2.621 6.787 6.787 0 0 1-.62 3.974L3.023 16.094a6.719 6.719 0 0 1 1.2-1.355zm4.862 11.565a2.746 2.746 0 0 1-1.228-3.247l4.654 2.687a2.746 2.746 0 0 1-3.426.56zm10.923 2.512L1.447 18.1a.719.719 0 0 1 .718-1.244l18.56 10.716a.719.719 0 0 1-.718 1.244z"/></defs></symbol><symbol viewBox="-1 -1 17 20" id="clock" xmlns="http://www.w3.org/2000/svg"><title>clock</title><desc>Created using Figma</desc><g><use xlink:href="#ba"/><use xlink:href="#bb"/><use xlink:href="#bc"/></g><defs><path id="ba" fill-rule="evenodd" d="M7.5 15A7.5 7.5 0 1 0 0 7.5V18c2.5-2.5 4-2.984 7-3h.5zM7 13c3.038 0 6-2.462 6-5.5a5.5 5.5 0 1 0-11 0V14c1.5-.5 4-1 5-1z"/><path id="bb" d="M5 5h2v5H5V5z"/><path id="bc" d="M10 8v2H5V8h5z"/></defs></symbol><symbol viewBox="-1 -1 19 32" id="facebook" xmlns="http://www.w3.org/2000/svg"><title>facebook</title><desc>Created using Figma</desc><use xlink:href="#ca"/><defs><path id="ca" d="M15.609.006L11.719 0C7.347 0 4.522 2.898 4.522 7.383v3.404H.612A.612.612 0 0 0 0 11.4v4.932c0 .338.274.612.612.612h3.911v12.445c0 .338.274.612.612.612h5.103a.612.612 0 0 0 .612-.612V16.943h4.574a.611.611 0 0 0 .611-.612l.002-4.932a.612.612 0 0 0-.612-.612H10.85V7.901c0-1.387.33-2.09 2.137-2.09l2.621-.002a.612.612 0 0 0 .611-.611V.618a.612.612 0 0 0-.61-.612z"/></defs></symbol><symbol viewBox="-1 -1 32 32" id="flask" xmlns="http://www.w3.org/2000/svg"><title>flask</title><desc>Created using Figma</desc><g><use xlink:href="#da"/><use xlink:href="#db"/><use xlink:href="#dc"/><use xlink:href="#dd"/><use xlink:href="#de"/><use xlink:href="#df"/></g><defs><path id="da" d="M27.427 26.72L18.47 15.423a3.316 3.316 0 0 1-.657-1.971v-2.343l4.22.75 5.628-6.186-.701-.608-5.255 5.813-3.892-.7V3.564a1.811 1.811 0 0 0 1.407-1.407C19.373 1.617 19.034 0 17.44 0h-5.813c-.893 0-1.643.608-1.829 1.451a1.945 1.945 0 0 0 .373 1.5c.279.328.656.515 1.078.608v5.436l-3.892-.7-6.044 6.283.657.657 5.72-5.907 3.564.657V13.5c0 .701-.235 1.407-.657 1.97L1.642 26.72a2.015 2.015 0 0 0-.235 2.108A1.923 1.923 0 0 0 3.187 30h22.641c.8 0 1.451-.422 1.829-1.128a1.909 1.909 0 0 0-.23-2.151zm-.613 1.73a1.097 1.097 0 0 1-.986.609H3.191c-.421 0-.799-.236-.985-.608a1.202 1.202 0 0 1 .142-1.128L11.3 16.03a4.046 4.046 0 0 0 .892-2.529v-.329h1.686v-.936h-1.686v-1.593h1.686v-.936h-1.686V8.113h1.686v-.937h-1.686V5.583h1.686v-.936h-1.686v-1.5c0-.28-.186-.47-.47-.47h-.143c-.294.024-.98-.314-.843-1.03.094-.377.47-.7.893-.7h5.813c.79 0 .893.798.843 1.029a.952.952 0 0 1-.892.7h-.049c-.28 0-.47.187-.47.471v10.358c0 .936.328 1.828.892 2.53l8.95 11.298c.24.324.29.745.099 1.118z"/><path id="db" d="M21.52 26.765h-.937v-.937h.937v.937zm-1.878 0h-.936v-.937h.936v.937zm-1.872 0h-.937v-.937h.937v.937zm-1.878 0h-.936v-.937h.936v.937zm-1.872 0h-.937v-.937h.937v.937zm-1.878 0h-.936v-.937h.936v.937zm-1.872 0h-.937v-.937h.937v.937zm-1.878 0h-.936v-.937h.936v.937z"/><path id="dc" d="M21.892 13.27a1.877 1.877 0 1 0 0-3.755 1.877 1.877 0 0 0 0 3.755z"/><path id="dd" d="M1.877 16.735a1.878 1.878 0 1 0 0-3.755 1.878 1.878 0 0 0 0 3.755z"/><path id="de" d="M7.456 10.691a1.877 1.877 0 1 0 0-3.755 1.877 1.877 0 0 0 0 3.755z"/><path id="df" d="M27.284 7.172a1.78 1.78 0 1 0 0-3.56 1.78 1.78 0 0 0 0 3.56z"/></defs></symbol><symbol viewBox="-1 -1 50 50" id="insta" xmlns="http://www.w3.org/2000/svg"><path d="M5.583 13a1 1 0 0 1-1-1V3a1 1 0 1 1 2 0v9a1 1 0 0 1-1 1zM8.958 13a1 1 0 0 1-1-1V2.25a1 1 0 1 1 2 0V12a1 1 0 0 1-1 1zM12.333 13a1 1 0 0 1-1-1V2.25a1 1 0 1 1 2 0V12a1 1 0 0 1-1 1z"/><path d="M37.292 48H11.917C4.344 48 0 44.014 0 37.062V12.125C0 4.873 4.27 0 10.625 0h27.584C42.918 0 48 4.524 48 11.834v25.083C48 43.132 43.297 48 37.292 48zM10.625 2C4.259 2 2 7.454 2 12.125v24.938C2 44.449 7.393 46 11.917 46h25.375C42.257 46 46 42.095 46 36.917V11.834C46 5.76 41.956 2 38.209 2H10.625z"/><path d="M23.999 15.25a7.667 7.667 0 1 0 0 15.334 7.667 7.667 0 0 0 0-15.334zm0 11.5a3.834 3.834 0 1 1 0-7.667 3.834 3.834 0 0 1 0 7.667z"/><path d="M23.999 35.084c-6.709 0-12.167-5.458-12.167-12.167S17.29 10.75 23.999 10.75s12.167 5.458 12.167 12.167-5.458 12.167-12.167 12.167zm0-22.334c-5.606 0-10.167 4.561-10.167 10.167s4.561 10.167 10.167 10.167 10.167-4.561 10.167-10.167S29.605 12.75 23.999 12.75z"/><path d="M32.999 14.92h14v2.16h-14zM1.499 14.949h13.25v2.102H1.499zM41.333 10.133a2.201 2.201 0 0 1-2.202 2.201h-3.264a2.201 2.201 0 0 1-2.202-2.201V6.867c0-1.215.985-2.201 2.202-2.201h3.264c1.217 0 2.202.986 2.202 2.201v3.266z"/></symbol><symbol viewBox="-1 -1 32 37" id="lamp" xmlns="http://www.w3.org/2000/svg"><title>lamp</title><desc>Created using Figma</desc><g transform="translate(-483 498)"><use xlink:href="#fa" transform="translate(488.411 -492.227)"/><use xlink:href="#fb" transform="translate(496.565 -498)"/><use xlink:href="#fc" transform="translate(489.166 -495.806)"/><use xlink:href="#fd" transform="translate(484.095 -489.939)"/><use xlink:href="#fe" transform="translate(483 -482.442)"/><use xlink:href="#ff" transform="translate(508.998 -482.465)"/><use xlink:href="#fg" transform="translate(507.992 -489.959)"/><use xlink:href="#fh" transform="translate(503.377 -495.818)"/></g><defs><path id="fa" d="M9.568 0C4.303 0 0 4.284 0 9.549a9.51 9.51 0 0 0 4.827 8.311v1.868c-.574.148-1.09.716-1.09 1.396 0 .792.661 1.434 1.453 1.434h1.235a1.434 1.434 0 0 0 .562 2.752h.822v1.327c0 .913.838 1.655 1.751 1.655h.015c.913 0 1.56-.742 1.56-1.655V25.31h.899a1.434 1.434 0 0 0 .562-2.752h1.235c.792 0 1.415-.642 1.415-1.434 0-.639-.44-1.179-1.014-1.365V17.86c3.097-1.695 4.866-4.829 4.866-8.311C19.098 4.284 14.833 0 9.568 0zm-.025 13.903L8.031 9.138h2.942l-1.43 4.765zm3.388 2.58a.936.936 0 0 0-.534.824v2.383h-1.95v-2.522l2.619-8.684a.914.914 0 0 0-.133-.812.9.9 0 0 0-.727-.37h-5.43a.922.922 0 0 0-.74.38.934.934 0 0 0-.153.825l2.73 8.667v2.516h-1.95v-2.383a.9.9 0 0 0-.496-.825A7.659 7.659 0 0 1 1.845 9.55c0-4.254 3.465-7.714 7.718-7.714s7.707 3.46 7.707 7.714a7.674 7.674 0 0 1-4.34 6.933z"/><path id="fb" d="M1.376 4.014c.76 0 1.377-.616 1.377-1.376V1.376a1.376 1.376 0 0 0-2.753 0v1.262c0 .76.616 1.376 1.376 1.376z"/><path id="fc" d="M.9 3.182a1.375 1.375 0 1 0 2.317-1.488L2.535.632A1.377 1.377 0 0 0 .219 2.121L.9 3.182z"/><path id="fd" d="M3.096.649L1.95.125A1.377 1.377 0 0 0 .805 2.629l1.147.524a1.373 1.373 0 0 0 1.824-.68 1.377 1.377 0 0 0-.68-1.824z"/><path id="fe" d="M2.43.014l-1.249.18a1.376 1.376 0 1 0 .391 2.724l1.249-.18A1.376 1.376 0 1 0 2.43.015z"/><path id="ff" d="M2.822.195L1.574.015a1.375 1.375 0 1 0-.394 2.724l1.248.18A1.377 1.377 0 0 0 2.822.195z"/><path id="fg" d="M1.947 3.153l1.149-.524A1.376 1.376 0 1 0 1.954.124L.806.647a1.376 1.376 0 1 0 1.141 2.506z"/><path id="fh" d="M.631 3.594a1.375 1.375 0 0 0 1.902-.412l.684-1.06A1.376 1.376 0 1 0 .903.632l-.684 1.06c-.411.64-.227 1.49.412 1.902z"/></defs></symbol><symbol viewBox="-1 -1 12 45" id="leftArrow" xmlns="http://www.w3.org/2000/svg"><title>leftArrow</title><desc>Created using Figma</desc><g transform="translate(-775 734)"><mask id="gc"><use xlink:href="#ga" transform="translate(775 -734)"/><use xlink:href="#gb" transform="translate(775 -734)"/></mask><g mask="url(#gc)"><use xlink:href="#gd" transform="translate(775 -734)"/></g></g><defs><path id="ga" d="M10 0H8L0 21v1l8 21h2L2 22v-1l8-21z"/><path id="gb" d="M10 0H8L0 21v1l8 21h2L2 22v-1l8-21z"/><path id="gd" d="M10 0l.934.356L11.451-1H10v1zM8 0v-1h-.69l-.244.644L8 0zM0 21l-.934-.356-.066.172V21h1zm0 1h-1v.184l.066.172L0 22zm8 21l-.934.356.245.644H8v-1zm2 0v1h1.451l-.517-1.356L10 43zM2 22H1v.184l.066.172L2 22zm0-1l-.934-.356-.066.172V21h1zm8-22H8v2h2v-2zm-2.934.644l-8 21 1.868.712 8-21-1.868-.712zM-1 21v1h2v-1h-2zm.066 1.356l8 21 1.868-.712-8-21-1.868.712zM8 44h2v-2H8v2zm2.934-1.356l-8-21-1.868.712 8 21 1.868-.712zM3 22v-1H1v1h2zm-.066-.644l8-21-1.868-.712-8 21 1.868.712z"/></defs></symbol><symbol viewBox="-1 -1 32 32" id="man" xmlns="http://www.w3.org/2000/svg"><title>man</title><desc>Created using Figma</desc><g transform="translate(-427 498)"><use xlink:href="#ha" transform="translate(435.867 -498)"/><use xlink:href="#hb" transform="translate(427 -479.53)"/></g><defs><path id="ha" d="M11.08 1.388A4.345 4.345 0 0 0 7.876 0H4.388a4.345 4.345 0 0 0-3.202 1.388A4.345 4.345 0 0 0 .01 4.673l.155 2.378.362 5.553a5.592 5.592 0 0 0 2.898 4.556c.848.467 1.778.7 2.708.7.93 0 1.86-.233 2.707-.7a5.593 5.593 0 0 0 2.899-4.556l.413-6.345.104-1.586a4.344 4.344 0 0 0-1.177-3.285zM1.201 4.596c-.058-.89.246-1.74.856-2.39a3.161 3.161 0 0 1 2.33-1.01h3.49c.076 0 .153.003.23.008L7.182 3.67c-.077.125-.447.674-1.293 1.245-.825.558-2.271 1.24-4.572 1.457l-.116-1.775zm9.344 7.93a4.402 4.402 0 0 1-2.282 3.587 4.4 4.4 0 0 1-4.263 0 4.402 4.402 0 0 1-2.282-3.587l-.323-4.962c3.366-.309 5.202-1.539 6.106-2.422.242.277.587.533 1.034.763.482.25 1.285.511 2.39.78l-.38 5.84zm.517-7.93l-.057.878c-1.108-.278-1.654-.492-1.921-.63-.652-.337-.799-.616-.803-.701l.001-.004.001-.002.984-2.625c.348.168.665.401.939.693.61.651.914 1.5.856 2.39z"/><path id="hb" d="M29.99 10.479l-.577-3.19a8.825 8.825 0 0 0-2.458-4.692A8.833 8.833 0 0 0 22.331.154 8.914 8.914 0 0 0 20.683 0h-1.74a.598.598 0 0 0-.422.175L15 3.697 11.478.175A.598.598 0 0 0 11.056 0h-1.74C8.765 0 8.21.052 7.67.154a8.833 8.833 0 0 0-4.625 2.442A8.825 8.825 0 0 0 .587 7.29l-.577 3.19a.598.598 0 0 0 .588.704h28.804a.598.598 0 0 0 .588-.704zM15.423 4.964l3.769-3.769h1.492c.078 0 .155.001.233.004l-2.959 2.958L15 7.115l-.864-.864 1.287-1.287zM9.316 1.195h1.492l3.347 3.347-.864.864-1.25-1.249L9.084 1.2c.078-.003.155-.004.233-.004zM1.313 9.988l.45-2.486a7.719 7.719 0 0 1 5.823-6.11l6.991 6.991a.596.596 0 0 0 .846 0l6.99-6.99a7.72 7.72 0 0 1 5.823 6.11l.45 2.485H1.314z"/></defs></symbol><symbol viewBox="-1 -1 32 43" id="mobile" xmlns="http://www.w3.org/2000/svg"><title>mobile</title><desc>Created using Figma</desc><g transform="translate(-521 502)"><use xlink:href="#ia" transform="translate(521 -502)"/><use xlink:href="#ib" transform="translate(532.214 -467.106)"/></g><defs><path id="ia" d="M30 37.809V3.183C30 1.433 28.27 0 26.133 0H3.867C1.74 0 0 1.424 0 3.183v34.634C0 39.567 1.73 41 3.867 41h22.266C28.26 40.992 30 39.568 30 37.809zM2.493 7.379h25.004v23.302H2.493V7.379zm1.374-5.327h22.266c.753 0 1.374.503 1.374 1.13v2.145H2.493V3.183c0-.628.621-1.13 1.374-1.13zM2.493 37.81v-5.084h25.004v5.084c0 .62-.611 1.13-1.374 1.13H3.867c-.753 0-1.374-.502-1.374-1.13z"/><path id="ib" d="M6.31 0H1.251C.56 0 0 .46 0 1.03c0 .57.56 1.03 1.252 1.03h5.057c.692 0 1.252-.46 1.252-1.03C7.561.46 7.001 0 6.31 0z"/></defs></symbol><symbol viewBox="-1 -1 12 45" id="rightArrow" xmlns="http://www.w3.org/2000/svg"><title>rightArrow</title><desc>Created using Figma</desc><g transform="translate(-804 734)"><mask id="jc"><use xlink:href="#ja" transform="matrix(-1 0 0 1 814 -734)"/><use xlink:href="#jb" transform="matrix(-1 0 0 1 814 -734)"/></mask><g mask="url(#jc)"><use xlink:href="#jd" transform="matrix(-1 0 0 1 814 -734)"/></g></g><defs><path id="ja" d="M10 0H8L0 21v1l8 21h2L2 22v-1l8-21z"/><path id="jb" d="M10 0H8L0 21v1l8 21h2L2 22v-1l8-21z"/><path id="jd" d="M10 0l.934.356L11.451-1H10v1zM8 0v-1h-.69l-.244.644L8 0zM0 21l-.934-.356-.066.172V21h1zm0 1h-1v.184l.066.172L0 22zm8 21l-.934.356.245.644H8v-1zm2 0v1h1.451l-.517-1.356L10 43zM2 22H1v.184l.066.172L2 22zm0-1l-.934-.356-.066.172V21h1zm8-22H8v2h2v-2zm-2.934.644l-8 21 1.868.712 8-21-1.868-.712zM-1 21v1h2v-1h-2zm.066 1.356l8 21 1.868-.712-8-21-1.868.712zM8 44h2v-2H8v2zm2.934-1.356l-8-21-1.868.712 8 21 1.868-.712zM3 22v-1H1v1h2zm-.066-.644l8-21-1.868-.712-8 21 1.868.712z"/></defs></symbol><symbol viewBox="-1 -1 36 36" id="round" xmlns="http://www.w3.org/2000/svg"><title>round</title><desc>Created using Figma</desc><use xlink:href="#ka" transform="translate(2.443 2)"/><defs><path id="ka" d="M30 14.362l.047 1.5a1.5 1.5 0 0 0 1.346-2.057L30 14.362zM24.255 0l1.393-.557a1.5 1.5 0 0 0-2.71-.161L24.255 0zm-2.462 4.514l-.832 1.248a1.5 1.5 0 0 0 2.149-.53l-1.317-.718zM.057 16.824l1.497-.104-1.497.104zm26.66 5.104l1.488.194a1.5 1.5 0 0 0-.93-1.587l-.558 1.393zm-6.976-2.872l.591-1.38a1.5 1.5 0 0 0-1.932.709l1.341.67zm-1.23-8.387l1.392.557a1.5 1.5 0 0 0-.493-1.757l-.9 1.2zm-1.642 4.104l-1.393-.558a1.5 1.5 0 0 0 1.44 2.057l-.047-1.5zm14.524-.968L25.648-.557 22.862.557l5.745 14.362 2.786-1.114zM22.938-.718l-2.462 4.514 2.634 1.436L25.572.718 22.938-.718zm-.313 3.984c-1.48-.987-3.766-1.754-6.259-2.116-2.478-.355-5.458-.315-8.128.392-2.665.731-5.39 2.312-7.2 4.767C-.81 8.874-1.757 12.37-1.44 16.93l2.993-.21c-.282-4.035.572-6.788 1.918-8.656 1.383-1.979 3.244-3.016 5.547-3.624 2.299-.632 4.67-.65 6.916-.32 2.232.324 4.044.988 5.026 1.643l1.664-2.496zM-1.439 16.929c.353 5.062 2.257 8.727 5.071 11.125 2.725 2.278 6.39 3.375 9.765 3.44 3.377.037 6.942-.904 9.579-2.433 2.678-1.57 4.839-3.95 5.229-6.939l-2.975-.388c-.226 1.73-1.54 3.431-3.771 4.739-2.272 1.347-5.048 2.08-8.017 2.021-2.971-.031-5.658-.8-7.864-2.724-2.116-1.803-3.72-4.674-4.024-9.05l-2.993.209zm28.713 3.606c-4.096-1.638-4.084-1.633-6.942-2.858l-1.182 2.757c2.888 1.238 2.9 1.243 7.01 2.887l1.114-2.786zm-8.874-2.15c-.726 1.452-2.688 2.596-4.731 2.518-1.845-.07-3.832-1.159-4.653-4.443l-2.91.728c1.127 4.513 4.204 6.59 7.45 6.713 3.047.116 6.201-1.523 7.527-4.174L18.4 18.385zM9.016 16.46c-.426-1.7-.274-2.935.11-3.794.394-.96.96-1.453 1.929-1.852 1.814-.787 4.472-.507 6.555 1.055l1.8-2.4c-2.841-2.131-6.632-2.672-9.549-1.407-1.397.627-2.767 1.878-3.474 3.38-.717 1.603-.831 3.549-.282 5.746l2.91-.728zm8.102-6.348l-1.642 4.103 2.786 1.115 1.641-4.104-2.785-1.114zm-.202 6.16l13.13-.41-.093-3-13.131.411.094 2.999z"/></defs></symbol><symbol viewBox="-1 -1 514 514" id="target" xmlns="http://www.w3.org/2000/svg"><path d="M375.035 225.124c-2.452-6.204-9.469-9.242-15.675-6.792-6.204 2.453-9.244 9.471-6.792 15.675 6.139 15.525 9.25 31.933 9.25 48.77 0 73.14-59.503 132.645-132.645 132.645-73.147 0-132.658-59.505-132.658-132.645s59.511-132.645 132.658-132.645c16.896 0 33.332 3.131 48.852 9.306 6.197 2.469 13.222-.56 15.689-6.757 2.467-6.199-.559-13.223-6.757-15.689-18.374-7.312-37.816-11.019-57.783-11.019-86.468 0-156.817 70.341-156.817 156.803S142.703 439.58 229.173 439.58c86.461 0 156.803-70.341 156.803-156.803 0-19.891-3.682-39.287-10.941-57.653z"/><path d="M449.506 219.607c-1.835-6.414-8.518-10.121-14.936-8.29-6.414 1.836-10.125 8.523-8.29 14.936 5.236 18.302 7.891 37.32 7.891 56.522 0 113.044-91.962 205.014-204.999 205.014-113.044 0-205.013-91.969-205.013-205.014S116.127 77.763 229.172 77.763c19.246 0 38.296 2.667 56.618 7.928 6.413 1.84 13.103-1.864 14.943-8.277 1.841-6.413-1.864-13.103-8.277-14.943-20.489-5.884-41.782-8.868-63.284-8.868C102.806 53.604 0 156.41 0 282.776s102.806 229.173 229.172 229.173c126.358 0 229.158-102.806 229.158-229.173 0-21.452-2.969-42.705-8.824-63.169z"/><path d="M313.278 275.401c-.592-6.645-6.463-11.525-13.105-10.958-6.645.593-11.552 6.461-10.958 13.106.153 1.72.231 3.479.231 5.228 0 33.237-27.04 60.275-60.275 60.275-33.244 0-60.29-27.04-60.29-60.275.002-33.245 27.047-60.29 60.291-60.29 1.857 0 3.675.081 5.406.24 6.649.61 12.525-4.276 13.138-10.92.612-6.643-4.277-12.524-10.92-13.138a83.476 83.476 0 0 0-7.623-.342c-46.565 0-84.449 37.882-84.449 84.448 0 46.558 37.884 84.434 84.449 84.434 46.557 0 84.434-37.876 84.434-84.434a83.286 83.286 0 0 0-.329-7.374z"/><path d="M510.149 81.264a24.094 24.094 0 0 0-22.326-14.918h-42.119V24.228c0-9.81-5.856-18.573-14.918-22.326a24.085 24.085 0 0 0-26.325 5.239l-70.376 70.377c-6.842 6.841-10.609 15.939-10.609 25.618v68.355l-98.17 98.17c-4.717 4.717-4.717 12.366 0 17.084a12.043 12.043 0 0 0 8.541 3.538c3.091 0 6.183-1.18 8.541-3.538l98.171-98.171h68.355c9.679 0 18.778-3.768 25.618-10.608l70.377-70.379a24.08 24.08 0 0 0 5.24-26.323zm-162.514 21.871a11.993 11.993 0 0 1 3.534-8.534l70.376-70.366v49.188l-73.911 73.911v-44.199zm69.815 57.747a12.156 12.156 0 0 1-8.535 3.533h-44.196l73.909-73.909 49.192.006-70.37 70.37z"/></symbol><symbol viewBox="-1 -1 37 32" id="telegram" xmlns="http://www.w3.org/2000/svg"><title>telegram</title><desc>Created using Figma</desc><use xlink:href="#ma"/><defs><path id="ma" d="M.609 14.385l7.939 2.963 3.073 9.883a.935.935 0 0 0 1.484.447l4.426-3.608a1.32 1.32 0 0 1 1.61-.045l7.982 5.795a.936.936 0 0 0 1.466-.565l5.847-28.127A.936.936 0 0 0 33.183.064L.599 12.634c-.804.31-.797 1.449.01 1.75zm10.517 1.386l15.516-9.557c.28-.171.566.206.327.428L14.163 18.546c-.45.419-.74.98-.823 1.588l-.436 3.232c-.058.432-.664.475-.783.057l-1.678-5.895a1.562 1.562 0 0 1 .683-1.757z"/></defs></symbol></svg>