<svg width="561" height="58" viewBox="0 0 561 58" version="1.1" xmlns="http://www.w3.org/2000/svg" xmlns:xlink="http://www.w3.org/1999/xlink">
<title>Group</title>
<desc>Created using Figma</desc>
<g id="Canvas" transform="translate(565 -666)">
<g id="Group">
<g id="Ellipse">
<use xlink:href="#path0_fill" transform="translate(-565 666)" fill="#46CAEA"/>
<use xlink:href="#path1_fill" transform="translate(-565 666)" fill="#46CAEA"/>
</g>
<g id="Ellipse">
<use xlink:href="#path2_fill" transform="translate(-559 672)" fill="#F36C47"/>
<use xlink:href="#path3_fill" transform="translate(-559 672)" fill="#F36C47"/>
<mask id="mask0_outline_ins">
<use xlink:href="#path2_fill" fill="white" transform="translate(-559 672)"/>
<use xlink:href="#path3_fill" fill="white" transform="translate(-559 672)"/>
</mask>
<g mask="url(#mask0_outline_ins)">
<use xlink:href="#path4_stroke_2x" transform="translate(-559 672)" fill="#FFFFFF"/>
</g>
</g>
<g id="COMFORT">
<use xlink:href="#path5_fill" transform="translate(-246 676)" fill="#00A0E4"/>
<use xlink:href="#path6_fill" transform="translate(-246 676)" fill="#F36C47"/>
</g>
<g id="DAIKIN_logo">
<g id="layer1">
<g id="g53036">
<g id="path53038">
<use xlink:href="#path7_fill" transform="matrix(1.81214 0 0 -1.81214 -395.052 713)" fill="#00A0E4"/>
</g>
</g>
<g id="g53040">
<g id="path53042">
<use xlink:href="#path8_fill" transform="matrix(1.81214 0 0 -1.81214 -446.978 712.994)" fill="#00A0E4"/>
</g>
</g>
<g id="g53044">
<g id="path53046">
<use xlink:href="#path9_fill" transform="matrix(1.81214 0 0 -1.81214 -319.657 713)" fill="#00A0E4"/>
</g>
</g>
<g id="g53048">
<g id="path53050">
<use xlink:href="#path10_fill" transform="matrix(1.81214 0 0 -1.81214 -370.828 713)" fill="#00A0E4"/>
</g>
</g>
<g id="g53052">
<g id="path53054">
<use xlink:href="#path11_fill" transform="matrix(1.81214 0 0 -1.81214 -495 713)" fill="#00A0E4"/>
</g>
</g>
<g id="g53056">
<g id="path53058">
<use xlink:href="#path12_fill" transform="matrix(1.81214 0 0 -1.81214 -294.939 713)" fill="#00A0E4"/>
</g>
</g>
</g>
</g>
</g>
</g>
<defs>
<path id="path0_fill" d="M 58 29C 58 45.0163 45.0163 58 29 58C 12.9837 58 4.17233e-06 45.0163 4.17233e-06 29C 4.17233e-06 12.9837 12.9837 0 29 0C 45.0163 0 58 12.9837 58 29Z"/>
<path id="path1_fill" d="M 58 29C 58 45.0163 45.0163 58 29 58C 12.9837 58 4.17233e-06 45.0163 4.17233e-06 29C 4.17233e-06 12.9837 12.9837 0 29 0C 45.0163 0 58 12.9837 58 29Z"/>
<path id="path2_fill" d="M 24 12C 24 18.6274 18.6274 24 12 24C 5.37258 24 1.72648e-06 18.6274 1.72648e-06 12C 1.72648e-06 5.37257 5.37258 0 12 0C 18.6274 0 24 5.37257 24 12Z"/>
<path id="path3_fill" d="M 24 12C 24 18.6274 18.6274 24 12 24C 5.37258 24 1.72648e-06 18.6274 1.72648e-06 12C 1.72648e-06 5.37257 5.37258 0 12 0C 18.6274 0 24 5.37257 24 12Z"/>
<path id="path4_stroke_2x" d="M 23 12C 23 18.0751 18.0751 23 12 23L 12 25C 19.1797 25 25 19.1797 25 12L 23 12ZM 12 23C 5.92487 23 1 18.0751 1 12L -0.999998 12C -0.999998 19.1797 4.8203 25 12 25L 12 23ZM 1 12C 1 5.92486 5.92487 1 12 1L 12 -1C 4.8203 -1 -0.999998 4.82029 -0.999998 12L 1 12ZM 12 1C 18.0751 1 23 5.92486 23 12L 25 12C 25 4.82029 19.1797 -1 12 -1L 12 1Z"/>
<path id="path5_fill" d="M 34.6766 20.2C 34.6766 17.7 35.1432 15.35 36.0766 13.15C 37.0432 10.9167 38.3432 8.96667 39.9766 7.3C 41.6432 5.63333 43.5766 4.31667 45.7766 3.35C 48.0099 2.38333 50.3766 1.9 52.8766 1.9C 55.3766 1.9 57.7432 2.38333 59.9766 3.35C 62.2099 4.31667 64.1432 5.63333 65.7766 7.3C 67.4432 8.96667 68.7599 10.9167 69.7266 13.15C 70.6932 15.35 71.1766 17.7 71.1766 20.2C 71.1766 22.7 70.6932 25.0667 69.7266 27.3C 68.7599 29.5 67.4432 31.4333 65.7766 33.1C 64.1432 34.7333 62.2099 36.0333 59.9766 37C 57.7432 37.9333 55.3766 38.4 52.8766 38.4C 50.3766 38.4 48.0099 37.9333 45.7766 37C 43.5766 36.0333 41.6432 34.7333 39.9766 33.1C 38.3432 31.4333 37.0432 29.5 36.0766 27.3C 35.1432 25.0667 34.6766 22.7 34.6766 20.2ZM 38.0766 20.2C 38.0766 22.2667 38.4599 24.2167 39.2266 26.05C 40.0266 27.85 41.0932 29.4333 42.4266 30.8C 43.7599 32.1333 45.3266 33.2 47.1266 34C 48.9266 34.7667 50.8432 35.15 52.8766 35.15C 54.9099 35.15 56.8266 34.7667 58.6266 34C 60.4599 33.2 62.0432 32.1333 63.3766 30.8C 64.7432 29.4333 65.8099 27.85 66.5766 26.05C 67.3766 24.2167 67.7766 22.2667 67.7766 20.2C 67.7766 18.1333 67.3766 16.2 66.5766 14.4C 65.8099 12.5667 64.7432 10.9667 63.3766 9.6C 62.0432 8.23333 60.4599 7.16667 58.6266 6.4C 56.8266 5.6 54.9099 5.2 52.8766 5.2C 50.8099 5.2 48.8766 5.6 47.0766 6.4C 45.3099 7.16667 43.7432 8.23333 42.3766 9.6C 41.0432 10.9667 39.9932 12.5667 39.2266 14.4C 38.4599 16.2 38.0766 18.1333 38.0766 20.2ZM 78.7328 0.7C 79.3661 1.63333 80.1495 2.78333 81.0828 4.15C 82.0161 5.48333 83.0328 6.93333 84.1328 8.5C 85.2328 10.0667 86.3661 11.6667 87.5328 13.3C 88.6995 14.9333 89.8161 16.5167 90.8828 18.05C 91.9828 19.55 92.9828 20.9333 93.8828 22.2C 94.7828 23.4667 95.5161 24.5 96.0828 25.3C 96.3828 24.8667 96.9161 24.0833 97.6828 22.95C 98.4828 21.8167 99.3995 20.5 100.433 19C 101.499 17.5 102.649 15.8833 103.883 14.15C 105.116 12.3833 106.316 10.6667 107.483 9C 108.683 7.3 109.799 5.73333 110.833 4.3C 111.899 2.83333 112.766 1.63333 113.433 0.7L 113.433 38L 109.833 38L 109.833 12.55C 109.833 12.25 109.849 11.9333 109.883 11.6C 109.916 11.2667 109.933 10.9833 109.933 10.75C 109.366 11.55 108.683 12.5167 107.883 13.65C 107.116 14.75 106.299 15.9333 105.433 17.2C 104.566 18.4667 103.683 19.7667 102.783 21.1C 101.883 22.4 101.016 23.6667 100.183 24.9C 99.3495 26.1333 98.5661 27.2833 97.8328 28.35C 97.1328 29.4167 96.5495 30.3 96.0828 31C 95.6161 30.4 94.9828 29.55 94.1828 28.45C 93.3828 27.3167 92.4995 26.0667 91.5328 24.7C 90.5995 23.3 89.6161 21.8667 88.5828 20.4C 87.5495 18.9 86.5828 17.5 85.6828 16.2C 84.8161 14.9 84.0328 13.7667 83.3328 12.8C 82.6661 11.8 82.2161 11.1167 81.9828 10.75C 81.9828 10.9833 81.9995 11.2667 82.0328 11.6C 82.0995 11.9333 82.1328 12.25 82.1328 12.55L 82.1328 38L 78.7328 38L 78.7328 0.7ZM 123.705 38L 123.705 2.3L 144.155 2.3L 144.155 5.45L 127.105 5.45L 127.105 18.95L 142.155 18.95L 142.155 22.15L 127.105 22.15L 127.105 38L 123.705 38ZM 148.641 20.2C 148.641 17.7 149.108 15.35 150.041 13.15C 151.008 10.9167 152.308 8.96667 153.941 7.3C 155.608 5.63333 157.541 4.31667 159.741 3.35C 161.975 2.38333 164.341 1.9 166.841 1.9C 169.341 1.9 171.708 2.38333 173.941 3.35C 176.175 4.31667 178.108 5.63333 179.741 7.3C 181.408 8.96667 182.725 10.9167 183.691 13.15C 184.658 15.35 185.141 17.7 185.141 20.2C 185.141 22.7 184.658 25.0667 183.691 27.3C 182.725 29.5 181.408 31.4333 179.741 33.1C 178.108 34.7333 176.175 36.0333 173.941 37C 171.708 37.9333 169.341 38.4 166.841 38.4C 164.341 38.4 161.975 37.9333 159.741 37C 157.541 36.0333 155.608 34.7333 153.941 33.1C 152.308 31.4333 151.008 29.5 150.041 27.3C 149.108 25.0667 148.641 22.7 148.641 20.2ZM 152.041 20.2C 152.041 22.2667 152.425 24.2167 153.191 26.05C 153.991 27.85 155.058 29.4333 156.391 30.8C 157.725 32.1333 159.291 33.2 161.091 34C 162.891 34.7667 164.808 35.15 166.841 35.15C 168.875 35.15 170.791 34.7667 172.591 34C 174.425 33.2 176.008 32.1333 177.341 30.8C 178.708 29.4333 179.775 27.85 180.541 26.05C 181.341 24.2167 181.741 22.2667 181.741 20.2C 181.741 18.1333 181.341 16.2 180.541 14.4C 179.775 12.5667 178.708 10.9667 177.341 9.6C 176.008 8.23333 174.425 7.16667 172.591 6.4C 170.791 5.6 168.875 5.2 166.841 5.2C 164.775 5.2 162.841 5.6 161.041 6.4C 159.275 7.16667 157.708 8.23333 156.341 9.6C 155.008 10.9667 153.958 12.5667 153.191 14.4C 152.425 16.2 152.041 18.1333 152.041 20.2ZM 192.698 38L 192.698 2.3L 201.348 2.3C 202.848 2.3 204.298 2.51667 205.698 2.95C 207.098 3.35 208.331 3.98333 209.398 4.85C 210.498 5.71667 211.364 6.8 211.998 8.1C 212.664 9.4 212.998 10.95 212.998 12.75C 212.998 14.75 212.548 16.65 211.648 18.45C 210.748 20.25 209.264 21.6333 207.198 22.6C 207.498 23.1 207.898 23.7667 208.398 24.6C 208.898 25.4333 209.448 26.35 210.048 27.35C 210.648 28.3167 211.264 29.3333 211.898 30.4C 212.564 31.4667 213.198 32.4833 213.798 33.45C 214.398 34.4167 214.948 35.3 215.448 36.1C 215.948 36.9 216.348 37.5333 216.648 38L 212.498 38C 212.231 37.6 211.881 37.05 211.448 36.35C 211.014 35.65 210.531 34.8667 209.998 34C 209.464 33.1333 208.898 32.2167 208.298 31.25C 207.698 30.2833 207.114 29.3333 206.548 28.4C 205.981 27.4667 205.431 26.5833 204.898 25.75C 204.398 24.9167 203.964 24.2 203.598 23.6C 203.264 23.6667 202.914 23.7 202.548 23.7C 202.181 23.7 201.814 23.7 201.448 23.7L 196.098 23.7L 196.098 38L 192.698 38ZM 196.098 20.45L 201.398 20.45C 202.998 20.45 204.331 20.1833 205.398 19.65C 206.464 19.1167 207.298 18.4667 207.898 17.7C 208.531 16.9 208.964 16.0667 209.198 15.2C 209.464 14.3 209.598 13.4833 209.598 12.75C 209.598 11.85 209.414 10.9667 209.048 10.1C 208.714 9.23333 208.214 8.46667 207.548 7.8C 206.881 7.1 206.031 6.55 204.998 6.15C 203.964 5.71667 202.781 5.5 201.448 5.5L 196.098 5.5L 196.098 20.45ZM 241.153 2.3L 241.153 5.55L 231.653 5.55L 231.653 38L 228.203 38L 228.203 5.55L 218.803 5.55L 218.803 2.3L 241.153 2.3Z"/>
<path id="path6_fill" d="M 30.9 35.6C 29.8333 36.2667 28.4167 36.9 26.65 37.5C 24.8833 38.1 22.8333 38.4 20.5 38.4C 17.7333 38.4 15.2333 37.9167 13 36.95C 10.8 35.9833 8.91667 34.6833 7.35 33.05C 5.81667 31.3833 4.61667 29.4667 3.75 27.3C 2.91667 25.1333 2.5 22.8333 2.5 20.4C 2.5 17.7667 2.98333 15.3167 3.95 13.05C 4.91667 10.7833 6.23333 8.83333 7.9 7.2C 9.56667 5.53333 11.5167 4.23333 13.75 3.3C 15.9833 2.36667 18.3667 1.9 20.9 1.9C 21.8 1.9 22.7 1.96667 23.6 2.1C 24.5333 2.2 25.4167 2.36667 26.25 2.6C 27.0833 2.83333 27.85 3.1 28.55 3.4C 29.25 3.7 29.85 4.03333 30.35 4.4C 30.1833 4.66667 30.05 4.88333 29.95 5.05C 29.85 5.21667 29.75 5.4 29.65 5.6C 29.55 5.76667 29.4333 5.96667 29.3 6.2C 29.1667 6.43333 29 6.73333 28.8 7.1C 27.7333 6.43333 26.4833 5.93333 25.05 5.6C 23.65 5.26667 22.3 5.1 21 5.1C 18.9 5.1 16.9333 5.5 15.1 6.3C 13.2667 7.1 11.6667 8.2 10.3 9.6C 8.96667 10.9667 7.9 12.5667 7.1 14.4C 6.33333 16.2 5.95 18.1167 5.95 20.15C 5.95 22.0833 6.3 23.95 7 25.75C 7.7 27.5167 8.7 29.0833 10 30.45C 11.3 31.7833 12.85 32.8667 14.65 33.7C 16.45 34.5 18.45 34.9 20.65 34.9C 21.6167 34.9 22.55 34.8333 23.45 34.7C 24.35 34.5333 25.1833 34.3333 25.95 34.1C 26.7167 33.8333 27.3833 33.5667 27.95 33.3C 28.55 33.0333 29.0167 32.7667 29.35 32.5L 30.9 35.6Z"/>
<path id="path7_fill" d="M 5.15473 20.4147L 6.43526e-08 -9.24294e-07L 9.1075 -9.24294e-07L 14.258 20.4147L 5.15473 20.4147Z"/>
<path id="path8_fill" d="M 13.0086 8.57965L 10.9199 8.57965L 14.2875 14.469L 15.3798 8.57965L 13.0086 8.57965ZM 11.7128 20.4136L -3.13719e-07 -1.59361e-07L 6.02352 -1.59361e-07L 7.96774 3.40262L 16.3298 3.40262L 16.9529 -1.59361e-07L 25.8432 -1.59361e-07L 22.0644 20.4136L 11.7128 20.4136"/>
<path id="path9_fill" d="M 5.14102 20.4147L 7.64187e-08 -9.24294e-07L 9.10539 -9.24294e-07L 14.2475 20.4147L 5.14102 20.4147Z"/>
<path id="path10_fill" d="M 29.3089 20.4147L 19.9768 20.4147L 12.1651 13.7368L 13.87 20.4147L 5.14102 20.4147L -3.53939e-07 -9.24294e-07L 8.70157 -9.24294e-07L 10.4792 7.04753L 15.1321 -9.24294e-07L 25.665 -9.24294e-07L 17.8639 10.6914L 29.3089 20.4147Z"/>
<path id="path11_fill" d="M 19.3537 11.1374C 19.3537 11.1374 18.7622 4.50654 13.0582 4.50654L 9.83078 4.50654L 12.6733 15.5175L 15.6023 15.5175C 16.6503 15.5113 19.6837 15.2418 19.3537 11.1374ZM 18.8919 20.4053L 16.5365 20.4126L 5.14102 20.4126L -9.492e-07 0.00626634L 11.3153 0.00626634L 15.7921 4.62147e-07C 22.095 4.62147e-07 28.2978 4.64753 28.2978 11.7661C 28.2978 20.1421 18.8919 20.4053 18.8919 20.4053"/>
<path id="path12_fill" d="M 22.3575 20.4178L 19.32 8.39688L 15.2733 20.4178L 5.14524 20.4178L 8.04407e-08 7.96805e-07L 6.29765 7.96805e-07L 9.36476 12.1264L 13.424 7.96805e-07L 23.5089 7.96805e-07L 28.6615 20.4178L 22.3575 20.4178Z"/>
</defs>
</svg>
