<svg xmlns="http://www.w3.org/2000/svg" width="50" height="50" viewBox="0 0 50 50">
    <g fill="#417505" fill-rule="nonzero">
        <path d="M45.833 28.333c.461 0 .834-.373.834-.833v-3.333a.833.833 0 0 0-.834-.834h-4.166V22.5a.833.833 0 1 0-1.667 0v.833H16.667V22.5a.834.834 0 0 0-1.667 0v.833h-4.167a.834.834 0 0 0-.833.834V27.5c0 .46.373.833.833.833h35zm-34.166-1.666V25H45v1.667H11.667zM30 18.333c-1.347 0-2.218 1.024-2.313 1.142a.829.829 0 0 0 .117 1.163.838.838 0 0 0 1.172-.106C28.979 20.526 29.43 20 30 20s1.02.526 1.02.526a.833.833 0 0 0 1.293-1.05c-.095-.118-.966-1.143-2.313-1.143z"/>
        <path d="M45.833 35c.461 0 .834-.373.834-.833v-3.334a.833.833 0 0 0-.834-.833h-4.166v-.833a.833.833 0 1 0-1.667 0V30H16.667v-.833a.834.834 0 0 0-1.667 0V30h-4.167a.834.834 0 0 0-.833.833v3.334c0 .46.373.833.833.833h35zm-34.166-1.667v-1.666H45v1.666H11.667zM34.353 16.358a.83.83 0 0 0 1.173.122.832.832 0 0 0 .12-1.172c-.094-.117-.965-1.141-2.313-1.141-1.347 0-2.218 1.024-2.313 1.141a.829.829 0 0 0 .117 1.164.836.836 0 0 0 1.171-.107c.004-.006.456-.532 1.025-.532.57 0 1.02.525 1.02.525zM.838 10.917c.042.426.4.75.829.75h5a.833.833 0 0 0 .829-.75l.833-8.334a.833.833 0 0 0-.829-.916H5V.833a.834.834 0 0 0-1.667 0v.834h-2.5a.833.833 0 0 0-.829.916l.834 8.334zm5.741-7.584L5.912 10H2.421l-.667-6.667H6.58z"/>
        <path d="M23.333 19.167c0 .931.381 1.798 1.073 2.439a.831.831 0 0 0 1.177-.044.834.834 0 0 0-.044-1.179A1.642 1.642 0 0 1 25 19.167c0-.69.44-1.316 1.094-1.557a.832.832 0 0 0 .278-1.393A1.642 1.642 0 0 1 25.833 15c0-.867.683-1.592 1.554-1.652a.833.833 0 0 0 .557-1.394 1.659 1.659 0 0 1-.444-1.12c0-.867.683-1.592 1.553-1.652a.833.833 0 0 0 .558-1.395 1.663 1.663 0 0 1-.444-1.12c0-.745.507-1.403 1.233-1.6a.833.833 0 0 0 .556-1.114 1.68 1.68 0 0 1-.123-.62c0-.919.748-1.666 1.667-1.666.92 0 1.667.747 1.667 1.666 0 .208-.042.416-.123.62a.833.833 0 0 0 .556 1.114 1.665 1.665 0 0 1 1.233 1.6c0 .41-.158.808-.444 1.12a.834.834 0 0 0 .558 1.395c.87.06 1.553.785 1.553 1.651 0 .41-.158.809-.444 1.121a.834.834 0 0 0 .558 1.394c.87.06 1.553.785 1.553 1.652 0 .462-.19.895-.54 1.217a.835.835 0 0 0 .28 1.393c.654.24 1.093.867 1.093 1.557a.833.833 0 1 0 1.667 0c0-1.015-.47-1.96-1.237-2.581.264-.481.404-1.022.404-1.586a3.333 3.333 0 0 0-1.885-2.99c.143-.373.218-.772.218-1.177a3.333 3.333 0 0 0-1.885-2.99c.143-.373.218-.772.218-1.176a3.331 3.331 0 0 0-1.696-2.894A3.337 3.337 0 0 0 32.5 0a3.337 3.337 0 0 0-3.303 3.773A3.331 3.331 0 0 0 27.5 6.667c0 .405.075.803.218 1.176a3.333 3.333 0 0 0-1.885 2.99c0 .405.075.804.219 1.177A3.333 3.333 0 0 0 24.167 15c0 .564.14 1.105.403 1.586a3.333 3.333 0 0 0-1.237 2.58z"/>
        <path d="M31.35 11.6a.836.836 0 0 0 1.088-.45c.015-.04.039-.083.062-.127.023.042.045.085.06.124a.835.835 0 0 0 1.546-.627c-.093-.226-.6-1.353-1.606-1.353-1.005 0-1.513 1.127-1.606 1.353a.831.831 0 0 0 .455 1.08zM49.167 48.333H35.833a.833.833 0 1 0 0 1.667h13.334a.833.833 0 1 0 0-1.667zM49.167 36.667h-7.5v-.834a.833.833 0 1 0-1.667 0v.834H16.667v-.834a.834.834 0 0 0-1.667 0v.834H7.5a.834.834 0 0 0-.833.833v3.333c0 .46.373.834.833.834H10v4.166a.834.834 0 0 0 1.667 0v-4.166H45v4.166a.833.833 0 1 0 1.667 0v-4.166h2.5c.46 0 .833-.374.833-.834V37.5a.833.833 0 0 0-.833-.833zM48.333 40h-40v-1.667h40V40z"/>
        <path d="M12.5 48.333H5V14.167a.834.834 0 0 0-1.667 0v34.166h-2.5a.834.834 0 0 0 0 1.667H12.5a.834.834 0 0 0 0-1.667zM32.5 48.333h-1.667a.833.833 0 1 0 0 1.667H32.5a.833.833 0 1 0 0-1.667zM25.833 48.333H17.5a.834.834 0 0 0 0 1.667h8.333a.833.833 0 1 0 0-1.667z"/>
    </g>
</svg>
