<svg xmlns="http://www.w3.org/2000/svg" width="50" height="50" viewBox="0 0 50 50">
    <g fill="#F6AB30" fill-rule="nonzero">
        <path d="M48.315 48.34h-2.553v-2.553a.781.781 0 1 0-1.563 0v2.553h-3.437v-1.032a3.287 3.287 0 0 0 2.5-3.188c0-.861-.327-2.415-.777-3.694-.692-1.965-1.51-2.921-2.505-2.921-.994 0-1.813.956-2.505 2.921-.45 1.28-.777 2.833-.777 3.694a3.287 3.287 0 0 0 2.5 3.188v1.032h-5.104v-1.032a3.287 3.287 0 0 0 2.5-3.188c0-.861-.327-2.415-.777-3.694-.501-1.425-1.07-2.319-1.723-2.703V19.065h10.105V41.62a.781.781 0 1 0 1.563 0V18.284a.781.781 0 0 0-.781-.782H34.094V12.45a.781.781 0 0 0-.781-.782h-1.72V9.116a.781.781 0 0 0-.78-.782h-3.387V5.782a.781.781 0 0 0-.781-.781h-1.302V.78a.781.781 0 1 0-1.563 0v4.22h-1.302a.781.781 0 0 0-.782.781v2.553h-3.385a.781.781 0 0 0-.782.78v2.553H15.81a.781.781 0 0 0-.781.782v9.22H4.142a.781.781 0 0 0-.781.781v3.334a.781.781 0 1 0 1.562 0v-2.553H15.03v14.492c-.654.384-1.222 1.277-1.724 2.702-.45 1.28-.776 2.833-.776 3.695a3.287 3.287 0 0 0 2.5 3.187v1.032H9.924v-1.032a3.287 3.287 0 0 0 2.5-3.187c0-.862-.326-2.416-.776-3.695-.692-1.965-1.511-2.92-2.506-2.92-.994 0-1.813.955-2.505 2.92-.45 1.28-.776 2.833-.776 3.695a3.287 3.287 0 0 0 2.5 3.187v1.032H4.923V29.952a.781.781 0 1 0-1.562 0V48.34H.808a.781.781 0 1 0 0 1.563h47.507a.781.781 0 0 0 0-1.563zM7.424 44.12c0-.547.231-1.809.619-2.974.484-1.456.937-1.97 1.1-2.067.162.098.615.611 1.1 2.067.387 1.165.619 2.427.619 2.974 0 .948-.772 1.72-1.72 1.72a1.72 1.72 0 0 1-1.718-1.72zM23.259 6.563h2.605v1.771h-2.605v-1.77zm-4.167 3.334H30.03v1.771H19.09v-1.77zm-5 34.223c0-.547.23-1.809.618-2.974.485-1.456.938-1.97 1.1-2.067.163.098.616.611 1.1 2.067.387 1.165.619 2.427.619 2.974 0 .948-.771 1.72-1.719 1.72a1.72 1.72 0 0 1-1.719-1.72zm18.44 4.22H28.26v-9.22a.781.781 0 1 0-1.563 0v9.22h-1.354v-9.22a.781.781 0 1 0-1.563 0v9.22h-1.354v-9.22a.781.781 0 1 0-1.563 0v9.22h-4.271v-1.032a3.287 3.287 0 0 0 2.5-3.188c0-.861-.327-2.415-.777-3.694-.501-1.425-1.07-2.319-1.723-2.703V13.231h15.94v24.492c-.654.384-1.223 1.278-1.724 2.703-.45 1.28-.777 2.833-.777 3.694a3.287 3.287 0 0 0 2.5 3.188v1.032zm-.938-4.22c0-.547.231-1.809.619-2.974.484-1.456.937-1.97 1.1-2.067.162.098.615.611 1.1 2.067.387 1.165.618 2.427.618 2.974 0 .948-.77 1.72-1.719 1.72a1.72 1.72 0 0 1-1.718-1.72zm6.667 0c0-.547.232-1.809.62-2.974.484-1.456.937-1.97 1.1-2.067.162.098.615.611 1.099 2.067.387 1.165.619 2.427.619 2.974 0 .948-.771 1.72-1.719 1.72a1.72 1.72 0 0 1-1.719-1.72z"/>
        <path d="M6.642 24.17a.781.781 0 0 0-.781.781v5a.781.781 0 1 0 1.563 0v-5a.781.781 0 0 0-.782-.781zM9.976 24.17a.781.781 0 0 0-.781.781v5a.781.781 0 1 0 1.563 0v-5a.781.781 0 0 0-.782-.781zM13.31 24.17a.781.781 0 0 0-.781.781v5a.781.781 0 1 0 1.562 0v-5a.781.781 0 0 0-.781-.781zM6.642 32.504a.781.781 0 0 0-.781.782v2.5a.781.781 0 1 0 1.563 0v-2.5a.781.781 0 0 0-.782-.782zM9.976 32.504a.781.781 0 0 0-.781.782v2.5a.781.781 0 1 0 1.563 0v-2.5a.781.781 0 0 0-.782-.782zM13.31 32.504a.781.781 0 0 0-.781.782v2.5a.781.781 0 1 0 1.562 0v-2.5a.781.781 0 0 0-.781-.782zM35.813 32.504a.781.781 0 0 0-.782.782v2.5a.781.781 0 1 0 1.563 0v-2.5a.781.781 0 0 0-.781-.782zM39.147 32.504a.781.781 0 0 0-.782.782v2.5a.781.781 0 1 0 1.563 0v-2.5a.781.781 0 0 0-.781-.782zM42.48 32.504a.781.781 0 0 0-.78.782v2.5a.781.781 0 1 0 1.562 0v-2.5a.781.781 0 0 0-.781-.782zM35.813 20.003a.781.781 0 0 0-.782.781v.834a.781.781 0 1 0 1.563 0v-.834a.781.781 0 0 0-.781-.781zM39.147 20.003a.781.781 0 0 0-.782.781v.834a.781.781 0 1 0 1.563 0v-.834a.781.781 0 0 0-.781-.781zM42.48 20.003a.781.781 0 0 0-.78.781v.834a.781.781 0 1 0 1.562 0v-.834a.781.781 0 0 0-.781-.781zM35.813 24.17a.781.781 0 0 0-.782.781v.834a.781.781 0 1 0 1.563 0v-.834a.781.781 0 0 0-.781-.781zM39.147 24.17a.781.781 0 0 0-.782.781v.834a.781.781 0 1 0 1.563 0v-.834a.781.781 0 0 0-.781-.781zM42.48 24.17a.781.781 0 0 0-.78.781v.834a.781.781 0 1 0 1.562 0v-.834a.781.781 0 0 0-.781-.781zM35.813 28.337a.781.781 0 0 0-.782.782v.833a.781.781 0 1 0 1.563 0v-.833a.781.781 0 0 0-.781-.782zM39.147 28.337a.781.781 0 0 0-.782.782v.833a.781.781 0 1 0 1.563 0v-.833a.781.781 0 0 0-.781-.782zM42.48 28.337a.781.781 0 0 0-.78.782v.833a.781.781 0 1 0 1.562 0v-.833a.781.781 0 0 0-.781-.782zM24.561 34.171a.781.781 0 0 0-.781.782v.833a.781.781 0 1 0 1.563 0v-.833a.781.781 0 0 0-.782-.782zM21.644 34.171a.781.781 0 0 0-.781.782v.833a.781.781 0 1 0 1.563 0v-.833a.781.781 0 0 0-.782-.782zM27.478 34.171a.781.781 0 0 0-.78.782v.833a.781.781 0 1 0 1.562 0v-.833a.781.781 0 0 0-.782-.782zM18.31 34.171a.781.781 0 0 0-.78.782v.833a.781.781 0 1 0 1.562 0v-.833a.781.781 0 0 0-.781-.782zM30.812 34.171a.781.781 0 0 0-.781.782v.833a.781.781 0 1 0 1.563 0v-.833a.781.781 0 0 0-.782-.782zM24.562 14.464a.781.781 0 0 0-.782.781v2.605a.781.781 0 1 0 1.563 0v-2.605a.781.781 0 0 0-.781-.781zM21.644 14.464a.781.781 0 0 0-.78.781v2.605a.781.781 0 1 0 1.562 0v-2.605a.781.781 0 0 0-.782-.781zM27.479 14.464a.781.781 0 0 0-.782.781v2.605a.781.781 0 1 0 1.563 0v-2.605a.781.781 0 0 0-.781-.781zM18.31 14.464a.781.781 0 0 0-.78.781v2.605a.781.781 0 1 0 1.562 0v-2.605a.781.781 0 0 0-.781-.781zM30.812 14.464a.781.781 0 0 0-.781.781v2.605a.781.781 0 1 0 1.563 0v-2.605a.781.781 0 0 0-.782-.781zM24.561 20.003a.781.781 0 0 0-.781.781v.834a.781.781 0 1 0 1.563 0v-.834a.781.781 0 0 0-.782-.781zM21.644 20.003a.781.781 0 0 0-.781.781v.834a.781.781 0 1 0 1.563 0v-.834a.781.781 0 0 0-.782-.781zM27.478 20.003a.781.781 0 0 0-.78.781v.834a.781.781 0 1 0 1.562 0v-.834a.781.781 0 0 0-.782-.781zM18.31 20.003a.781.781 0 0 0-.78.781v.834a.781.781 0 1 0 1.562 0v-.834a.781.781 0 0 0-.781-.781zM30.812 20.003a.781.781 0 0 0-.781.781v.834a.781.781 0 1 0 1.563 0v-.834a.781.781 0 0 0-.782-.781zM24.562 24.17a.781.781 0 0 0-.782.781v6.667a.781.781 0 1 0 1.563 0v-6.667a.781.781 0 0 0-.781-.781zM21.645 24.17a.781.781 0 0 0-.782.781v6.667a.781.781 0 1 0 1.563 0v-6.667a.781.781 0 0 0-.781-.781zM27.479 24.17a.781.781 0 0 0-.782.781v6.667a.781.781 0 1 0 1.563 0v-6.667a.781.781 0 0 0-.781-.781zM18.31 24.17a.781.781 0 0 0-.78.781v6.667a.781.781 0 1 0 1.562 0v-6.667a.781.781 0 0 0-.781-.781zM30.812 24.17a.781.781 0 0 0-.78.781v6.667a.781.781 0 1 0 1.562 0v-6.667a.781.781 0 0 0-.782-.781z"/>
    </g>
</svg>
