<svg xmlns="http://www.w3.org/2000/svg" width="49" height="28" viewBox="0 0 49 28">
    <path fill="#F5A623" fill-rule="nonzero" d="M48.25 9.514c-.509-.621-1.225-.977-1.966-.977h-1.113v-.914c0-1.642-1.402-2.979-3.126-2.979h-1.468V2.957c0-.794-.333-1.569-.912-2.126-1.153-1.108-3.146-1.108-4.299 0a2.969 2.969 0 0 0-.913 2.127v7.915H14.547V2.958c0-.794-.333-1.569-.913-2.126-1.153-1.108-3.146-1.108-4.299 0a2.966 2.966 0 0 0-.913 2.126v1.687H6.776c-.774 0-1.506.284-2.062.8a2.768 2.768 0 0 0-.886 2.011v1.08H2.726c-.745 0-1.464.358-1.975.982-.484.591-.751 1.37-.751 2.189v4.559c0 .82.267 1.598.752 2.19.51.623 1.23.98 1.974.98h1.102v1.08c0 .753.323 1.486.887 2.013.555.516 1.287.8 2.06.8h1.647v1.687c0 .794.333 1.569.912 2.125.577.554 1.34.859 2.15.859.81 0 1.574-.305 2.15-.859.58-.557.913-1.332.913-2.125V17.1h19.906v7.915c0 .794.333 1.569.912 2.125.577.554 1.34.859 2.15.859.81 0 1.573-.305 2.15-.859.58-.557.912-1.332.912-2.125v-1.687h1.468c1.724 0 3.126-1.336 3.126-2.979v-.914h1.113c.74 0 1.457-.356 1.967-.977.483-.59.749-1.363.749-2.18v-4.585c0-.816-.266-1.59-.75-2.18zM2.726 17.879c-.292 0-.575-.15-.797-.42-.253-.308-.398-.743-.398-1.193v-4.56c0-.45.145-.883.398-1.192.222-.27.505-.42.797-.42h1.102v7.785H2.726zm4.05 3.893c-.385 0-.76-.143-1.025-.39a1.18 1.18 0 0 1-.392-.865V7.456c0-.322.139-.63.39-.864a1.52 1.52 0 0 1 1.027-.39h1.646v15.57H6.776zm6.24 3.244c0 .373-.154.725-.433.993-.574.551-1.622.551-2.197 0a1.37 1.37 0 0 1-.433-.993V2.957c0-.373.154-.726.433-.993a1.597 1.597 0 0 1 1.098-.434c.411 0 .812.158 1.099.434.279.267.432.62.432.994v22.058zm1.53-9.472v-3.115h19.907v3.115H14.547zm24.5 9.472c0 .373-.154.725-.432.993-.575.551-1.623.551-2.197 0a1.37 1.37 0 0 1-.433-.993V2.958c0-.373.154-.726.432-.994a1.597 1.597 0 0 1 1.099-.433c.411 0 .812.158 1.099.433.278.267.432.62.432.994v22.058zm4.594-4.666c0 .784-.715 1.422-1.595 1.422h-1.468V6.202h1.468c.88 0 1.595.637 1.595 1.42V20.35zm3.828-4.072c0 .447-.144.878-.394 1.184-.22.27-.501.417-.79.417h-1.113v-7.785h1.113c.289 0 .57.148.79.417.25.305.394.737.394 1.183v4.584z"/>
</svg>
