<svg xmlns="http://www.w3.org/2000/svg" width="62" height="52" viewBox="0 0 62 52">
    <g fill="#417505" fill-rule="nonzero" stroke="#FFF" stroke-width=".9">
        <path d="M57.075 1.078H52.09a3.744 3.744 0 0 0-3.548 2.565c-2.202.332-2.874 1.722-3.203 2.954l-1.193 4.449h-41.9a1.246 1.246 0 0 0-1.204 1.569l1.336 4.984c.146.545.64.924 1.204.924h1.047L7.721 30.06l.01.032a1.175 1.175 0 0 0 .04.115l.018.043c.031.07.07.137.112.199l.007.009c.02.028.04.054.062.08l.018.02c.018.022.037.042.057.062l.026.025a1.198 1.198 0 0 0 .147.118l.033.023c.03.019.06.037.091.053l.041.02c.02.01.04.02.06.028l.045.017a1.658 1.658 0 0 0 .107.035l.084.02.025.005c.042.008.084.013.126.016l29.34 2.372-.702 2.616h-26.54a1.246 1.246 0 0 0 0 2.493h3.45l-.694 2.59a4.992 4.992 0 0 0-4.002 4.886 4.99 4.99 0 0 0 4.984 4.985h6.231a1.246 1.246 0 1 0 0-2.493H18.98c.426-.733.67-1.584.67-2.492a4.992 4.992 0 0 0-3.427-4.734l.735-2.742h15.437l.735 2.742a4.993 4.993 0 0 0-3.428 4.734 4.99 4.99 0 0 0 4.985 4.985h12.461a1.246 1.246 0 1 0 0-2.493H39c.425-.734.67-1.584.67-2.492a4.993 4.993 0 0 0-4.002-4.886l-.694-2.59h3.45c.04 0 .08-.002.12-.006l.027-.004a1.19 1.19 0 0 0 .193-.038l.047-.014.059-.022.047-.018a1.28 1.28 0 0 0 .092-.044l.046-.027a1.353 1.353 0 0 0 .142-.097 1.508 1.508 0 0 0 .088-.077l.029-.028c.02-.02.038-.04.056-.062l.018-.02c.024-.029.047-.059.068-.09l.013-.023c.016-.023.03-.046.044-.071l.024-.047.025-.051a1.27 1.27 0 0 0 .06-.168c.002-.005.004-.01.005-.017l1.33-4.965.004-.011 3.761-14.038h1.047c.564 0 1.058-.379 1.204-.923l1.336-4.985a1.246 1.246 0 0 0-1.204-1.568h-.38l1.02-3.805c.146-.546.245-.916.857-1.082a3.744 3.744 0 0 0 3.487 2.395h4.985a3.743 3.743 0 0 0 3.738-3.738 3.743 3.743 0 0 0-3.738-3.74zm-39.917 44.86a2.495 2.495 0 0 1-2.486 2.491H14.663a2.495 2.495 0 0 1-2.49-2.492 2.495 2.495 0 0 1 2.49-2.492h.007a2.495 2.495 0 0 1 2.488 2.492zm20.02 0a2.495 2.495 0 0 1-2.485 2.491h-.007-.002a2.495 2.495 0 0 1-2.49-2.492 2.495 2.495 0 0 1 2.489-2.492h.005a2.495 2.495 0 0 1 2.49 2.492zm4.297-24.923H27.48a1.246 1.246 0 0 0 0 2.493h13.328L40.14 26h-6.52a1.246 1.246 0 0 0 0 2.492h5.852l-.647 2.413-28.924-2.338L7.21 18.523h34.933l-.668 2.492zm3.34-4.984H4.537l-.668-2.493h41.612l-.668 2.493zm12.26-9.969H52.09a1.247 1.247 0 0 1 0-2.492h4.985c.687 0 1.246.56 1.246 1.246 0 .687-.56 1.246-1.246 1.246z"/>
        <path d="M22.62 23.507h.747a1.246 1.246 0 1 0 0-2.492h-.748a1.246 1.246 0 0 0 0 2.492z"/>
    </g>
</svg>
