<svg xmlns="http://www.w3.org/2000/svg" width="35" height="33" viewBox="0 0 35 33">
    <g fill="#C54C5B" fill-rule="nonzero" stroke="#FFF" stroke-width=".7">
        <path d="M8.22 19.759a.935.935 0 0 0-.936.935v1.624a.935.935 0 1 0 1.87 0v-1.624a.935.935 0 0 0-.935-.935zM11.96 19.759a.935.935 0 0 0-.935.935v1.624a.935.935 0 1 0 1.871 0v-1.624a.935.935 0 0 0-.935-.935zM15.702 19.759a.935.935 0 0 0-.935.935v1.624a.935.935 0 1 0 1.87 0v-1.624a.935.935 0 0 0-.935-.935zM19.073 19.759a.935.935 0 0 0-.935.935v1.624a.935.935 0 1 0 1.87 0v-1.624a.935.935 0 0 0-.935-.935zM22.815 19.759a.935.935 0 0 0-.936.935v1.624a.935.935 0 1 0 1.871 0v-1.624a.935.935 0 0 0-.935-.935zM26.556 19.759a.935.935 0 0 0-.935.935v1.624a.935.935 0 1 0 1.87 0v-1.624a.935.935 0 0 0-.935-.935zM8.22 14.538a.935.935 0 0 0-.936.935v1.624a.935.935 0 1 0 1.87 0v-1.624a.935.935 0 0 0-.935-.935zM11.96 14.538a.935.935 0 0 0-.935.935v1.624a.935.935 0 1 0 1.871 0v-1.624a.935.935 0 0 0-.935-.935zM15.702 14.538a.935.935 0 0 0-.935.935v1.624a.935.935 0 1 0 1.87 0v-1.624a.935.935 0 0 0-.935-.935zM19.073 14.538a.935.935 0 0 0-.935.935v1.624a.935.935 0 1 0 1.87 0v-1.624a.935.935 0 0 0-.935-.935zM22.815 14.538a.935.935 0 0 0-.936.935v1.624a.935.935 0 1 0 1.871 0v-1.624a.935.935 0 0 0-.935-.935zM26.556 14.538a.935.935 0 0 0-.935.935v1.624a.935.935 0 1 0 1.87 0v-1.624a.935.935 0 0 0-.935-.935zM13.646 4.984a.935.935 0 0 0-.935.935v1.624a.935.935 0 1 0 1.87 0V5.919a.935.935 0 0 0-.935-.935zM17.388 4.984a.935.935 0 0 0-.936.935v1.624a.935.935 0 1 0 1.871 0V5.919a.935.935 0 0 0-.935-.935zM21.13 4.984a.935.935 0 0 0-.936.935v1.624a.935.935 0 1 0 1.87 0V5.919a.935.935 0 0 0-.935-.935z"/>
        <path d="M32.84 9.99h-6.926V1.95a.935.935 0 0 0-.936-.935H9.798a.935.935 0 0 0-.936.935v8.04H1.935a.935.935 0 1 0 0 1.87h.88v19.095c0 .516.418.935.935.935h27.275a.935.935 0 0 0 .936-.935V11.86h.88a.935.935 0 1 0 0-1.87zM21.997 30.02h-3.68a.953.953 0 0 0 .006-.106v-1.406h3.674v1.511zm-5.538 0h-3.68v-1.512h3.673v1.406c0 .035.003.07.007.105zm7.409 0v-2.447a.935.935 0 0 0-.936-.935H11.843a.935.935 0 0 0-.935.935v2.446H4.685V11.86H30.09v18.16h-6.222zM10.732 2.884h13.311V9.99h-13.31V2.885z"/>
    </g>
</svg>
