<?xml version="1.0" encoding="UTF-8"?>
<svg width="50px" height="50px" viewBox="0 0 50 50" version="1.1" xmlns="http://www.w3.org/2000/svg" xmlns:xlink="http://www.w3.org/1999/xlink">
    <!-- Generator: Sketch 46.2 (44496) - http://www.bohemiancoding.com/sketch -->
    <title>Group 5</title>
    <desc>Created with Sketch.</desc>
    <defs></defs>
    <g id="Page-1" stroke="none" stroke-width="1" fill="none" fill-rule="evenodd">
        <g id="Объект" transform="translate(-771.000000, -882.000000)" fill-rule="nonzero" fill="#C54C5B">
            <g id="Group-5" transform="translate(771.000000, 882.000000)">
                <path d="M47.5806452,27.4193548 L47.5806452,16.9354839 C47.5806452,15.6016129 46.4951613,14.516129 45.1612903,14.516129 L43.5483871,14.516129 C42.9266129,14.516129 42.3645161,14.758871 41.9354839,15.1451613 C41.5064516,14.7580645 40.9443548,14.516129 40.3225806,14.516129 L38.7096774,14.516129 C38.0879032,14.516129 37.5258065,14.758871 37.0967742,15.1451613 C36.6677419,14.7580645 36.1056452,14.516129 35.483871,14.516129 L33.8709677,14.516129 C32.5370968,14.516129 31.4516129,15.6016129 31.4516129,16.9354839 L31.4516129,27.283871 C29.591129,25.9943548 26.8758065,24.8967742 22.9,24.4322581 L24.1701613,15.5403226 C24.1854839,15.4330645 24.1935484,15.3241935 24.1935484,15.2153226 C24.1935484,13.9403226 23.1564516,12.9032258 21.8814516,12.9032258 L14.516129,12.9032258 L14.516129,5.64516129 C14.516129,5.20080645 14.8782258,4.83870968 15.3225806,4.83870968 L21.7741935,4.83870968 C23.1080645,4.83870968 24.1935484,3.75322581 24.1935484,2.41935484 C24.1935484,1.08548387 23.1080645,0 21.7741935,0 L14.516129,0 C11.8475806,0 9.67741935,2.17016129 9.67741935,4.83870968 L9.67741935,12.9032258 L2.31209677,12.9032258 C1.03709677,12.9032258 0,13.9403226 0,15.2153226 C0,15.3241935 0.00806451613,15.4330645 0.0233870968,15.5427419 L1.96693548,29.1459677 C0.05,31.4290323 0,33.6806452 0,33.8709677 C0,35.2774194 0.909677419,36.4629032 2.16693548,36.9040323 C1.81774194,37.4193548 1.61290323,38.041129 1.61290323,38.7096774 C1.61290323,39.5693548 1.95564516,40.3459677 2.50564516,40.925 C1.01370968,41.75 0,43.3387097 0,45.1612903 C0,47.8298387 2.17016129,50 4.83870968,50 L29.0322581,50 L30.6451613,50 L50,50 L50,33.0645161 L50,32.2580645 L50,29.8387097 C50,28.5048387 48.9145161,27.4193548 47.5806452,27.4193548 Z M42.7419355,16.9354839 C42.7419355,16.491129 43.1040323,16.1290323 43.5483871,16.1290323 L45.1612903,16.1290323 C45.6056452,16.1290323 45.9677419,16.491129 45.9677419,16.9354839 L45.9677419,27.4193548 L42.7419355,27.4193548 L42.7419355,16.9354839 Z M37.9032258,16.9354839 C37.9032258,16.491129 38.2653226,16.1290323 38.7096774,16.1290323 L40.3225806,16.1290323 C40.7669355,16.1290323 41.1290323,16.491129 41.1290323,16.9354839 L41.1290323,27.4193548 L37.9032258,27.4193548 L37.9032258,16.9354839 Z M33.0645161,16.9354839 C33.0645161,16.491129 33.4266129,16.1290323 33.8709677,16.1290323 L35.483871,16.1290323 C35.9282258,16.1290323 36.2903226,16.491129 36.2903226,16.9354839 L36.2903226,27.4193548 L33.0645161,27.4193548 L33.0645161,16.9354839 Z M20.1612903,1.61290323 L21.7741935,1.61290323 C22.2185484,1.61290323 22.5806452,1.975 22.5806452,2.41935484 C22.5806452,2.86370968 22.2185484,3.22580645 21.7741935,3.22580645 L20.1612903,3.22580645 L20.1612903,1.61290323 Z M16.9354839,1.61290323 L18.5483871,1.61290323 L18.5483871,3.22580645 L16.9354839,3.22580645 L16.9354839,1.61290323 Z M11.2903226,4.83870968 C11.2903226,3.05967742 12.7370968,1.61290323 14.516129,1.61290323 L15.3225806,1.61290323 L15.3225806,3.22580645 C13.9887097,3.22580645 12.9032258,4.31129032 12.9032258,5.64516129 L12.9032258,12.9032258 L11.2903226,12.9032258 L11.2903226,4.83870968 Z M1.73629032,16.1290323 L1.62016129,15.3169355 C1.61532258,15.2830645 1.61290323,15.2491935 1.61290323,15.2153226 C1.61290323,14.8298387 1.9266129,14.516129 2.31209677,14.516129 L9.67741935,14.516129 L14.516129,14.516129 L21.8814516,14.516129 C22.2669355,14.516129 22.5806452,14.8298387 22.5806452,15.2153226 C22.5806452,15.2491935 22.5782258,15.2830645 22.5741935,15.3145161 L22.4572581,16.1290323 L20.1612903,16.1290323 L20.1612903,17.7419355 L22.2266129,17.7419355 L21.766129,20.9677419 L2.42741935,20.9677419 L1.96693548,17.7419355 L18.5483871,17.7419355 L18.5483871,16.1290323 L1.73629032,16.1290323 Z M21.5362903,22.5806452 L21.2927419,24.2870968 C20.4290323,24.2274194 19.5193548,24.1935484 18.5483871,24.1935484 L16.9354839,24.1935484 C9.90806452,24.1935484 5.80322581,25.8298387 3.39758065,27.7572581 L2.65806452,22.5806452 L21.5362903,22.5806452 Z M1.61290323,33.8709677 C1.61290323,33.7903226 1.78790323,25.8064516 16.9354839,25.8064516 L18.5483871,25.8064516 C33.591129,25.8064516 33.8669355,33.5467742 33.8709677,33.8709677 C33.8709677,34.7604839 33.1475806,35.483871 32.2580645,35.483871 L31.4516129,35.483871 L30.6451613,35.483871 L4.83870968,35.483871 L3.22580645,35.483871 C2.33629032,35.483871 1.61290323,34.7604839 1.61290323,33.8709677 Z M4.83870968,40.3225806 C3.94919355,40.3225806 3.22580645,39.5991935 3.22580645,38.7096774 C3.22580645,37.8201613 3.94919355,37.0967742 4.83870968,37.0967742 L30.6451613,37.0967742 C31.5346774,37.0967742 32.2580645,37.8201613 32.2580645,38.7096774 C32.2580645,39.5991935 31.5346774,40.3225806 30.6451613,40.3225806 L4.83870968,40.3225806 Z M27.2790323,41.9354839 L23.9701613,45.7959677 L15.1451613,41.9354839 L27.2790323,41.9354839 Z M30.6451613,48.3870968 L29.0322581,48.3870968 L4.83870968,48.3870968 C3.05967742,48.3870968 1.61290323,46.9403226 1.61290323,45.1612903 C1.61290323,43.3822581 3.05967742,41.9354839 4.83870968,41.9354839 L11.1217742,41.9354839 L24.4169355,47.7524194 L29.4032258,41.9354839 L30.6451613,41.9354839 C32.4241935,41.9354839 33.8709677,43.3822581 33.8709677,45.1612903 C33.8709677,46.9403226 32.4241935,48.3870968 30.6451613,48.3870968 Z M32.9790323,40.925 C33.5282258,40.3459677 33.8709677,39.5693548 33.8709677,38.7096774 C33.8709677,38.1193548 33.7,37.5733871 33.4225806,37.0967742 L45.1612903,37.0967742 L45.1612903,45.1612903 L35.483871,45.1612903 C35.483871,44.5951613 35.3806452,44.0540323 35.2016129,43.5483871 L40.3225806,43.5483871 L40.3225806,41.9354839 L34.2419355,41.9354839 C33.8806452,41.5330645 33.4556452,41.1887097 32.9790323,40.925 Z M48.3870968,32.2580645 L46.7741935,32.2580645 L46.7741935,33.8709677 L48.3870968,33.8709677 L48.3870968,48.3870968 L34.2419355,48.3870968 C34.6604839,47.9209677 34.9887097,47.3758065 35.2016129,46.7741935 L46.7741935,46.7741935 L46.7741935,35.483871 L35.0354839,35.483871 C35.3129032,35.0072581 35.483871,34.4612903 35.483871,33.8709677 L45.1612903,33.8709677 L45.1612903,32.2580645 L35.2104839,32.2580645 C34.9483871,31.3612903 34.4306452,30.1975806 33.4209677,29.0322581 L47.5806452,29.0322581 C48.025,29.0322581 48.3870968,29.3935484 48.3870968,29.8387097 L48.3870968,32.2580645 Z" id="Shape"></path>
                <rect id="Rectangle-path" x="10.483871" y="27.4193548" width="1.61290323" height="1.61290323" rx="0.806451613"></rect>
                <rect id="Rectangle-path" x="13.7096774" y="29.0322581" width="1.61290323" height="1.61290323" rx="0.806451613"></rect>
                <rect id="Rectangle-path" x="16.9354839" y="27.4193548" width="1.61290323" height="1.61290323" rx="0.806451613"></rect>
                <rect id="Rectangle-path" x="21.7741935" y="29.8387097" width="1.61290323" height="1.61290323" rx="0.806451613"></rect>
                <rect id="Rectangle-path" x="25.8064516" y="27.4193548" width="1.61290323" height="1.61290323" rx="0.806451613"></rect>
                <rect id="Rectangle-path" x="5.64516129" y="30.6451613" width="1.61290323" height="1.61290323" rx="0.806451613"></rect>
            </g>
        </g>
    </g>
</svg>