<svg xmlns="http://www.w3.org/2000/svg" width="31" height="31" viewBox="0 0 31 31">
    <g fill="#C54C5B" fill-rule="nonzero">
        <path d="M30.44 5.143a.56.56 0 0 0-.559.56V29.88h-4.473v-1.26h2.677a.56.56 0 0 0 .56-.56V18.17a.56.56 0 0 0-.56-.56h-2.39v-1.236h2.39a.56.56 0 0 0 .56-.56V2.892a.56.56 0 0 0-.56-.56H16.678a.56.56 0 0 0-.56.56v8.104h-1.236V2.892a.56.56 0 0 0-.56-.56H2.915a.56.56 0 0 0-.56.56v12.922c0 .31.25.56.56.56h2.023a.56.56 0 0 0 0-1.12H3.474v-1.277h2.374c1.98 0 3.59-1.61 3.59-3.59V3.451h4.325v8.104c0 .31.25.56.56.56h2.355a.56.56 0 0 0 .56-.56V3.451h10.288v1.44h-1.478a.56.56 0 0 0-.56.559v7.683c0 .309.251.56.56.56h1.478v1.562h-2.391a.56.56 0 0 0-.56.56v2.355c0 .309.251.559.56.559h2.39v8.773h-2.677a.56.56 0 0 0-.56.56v2.378c0 .31.251.56.56.56h5.592a.56.56 0 0 0 .56-.56V5.702a.56.56 0 0 0-.56-.559zM8.32 10.387a2.473 2.473 0 0 1-2.47 2.47H3.473V3.452h.409v.362a.56.56 0 0 0 1.118 0V3.45h.336v1.48a.56.56 0 0 0 1.12 0v-1.48h.335v.362a.56.56 0 0 0 1.119 0V3.45h.408v6.936zm19.207 2.187h-.918V6.009h.918v6.565z"/>
        <path d="M30.44 0H.56A.56.56 0 0 0 0 .56v29.88c0 .31.25.56.56.56h19.782a.56.56 0 0 0 .56-.56v-2.378a.56.56 0 0 0-.56-.56h-3.105v-5.446a.56.56 0 0 0-.56-.56h-2.355a.56.56 0 0 0-.56.56v5.446H3.475V26.22h1.702c.525 0 .99-.265 1.268-.668a3.545 3.545 0 0 0 1.633.388c1.745 0 3.165-1.22 3.165-2.72 0-.445-.127-.886-.368-1.276a.56.56 0 0 0-.952.588c.133.216.201.448.201.688 0 .883-.918 1.6-2.046 1.6-.503 0-.986-.147-1.36-.409V22.03c.374-.262.857-.409 1.36-.409.326 0 .637.059.926.175a.56.56 0 0 0 .417-1.039 3.585 3.585 0 0 0-1.343-.255c-.587 0-1.147.135-1.633.387a1.54 1.54 0 0 0-1.269-.667h-1.7v-1.492h15.44a.56.56 0 0 0 .56-.56v-2.355a.56.56 0 0 0-.56-.56H6.729a.56.56 0 0 0 0 1.12h11.628v1.236H2.915a.56.56 0 0 0-.56.56v9.892c0 .309.25.56.56.56h11.407a.56.56 0 0 0 .56-.56v-5.447h1.236v5.447c0 .309.25.56.56.56h3.104v1.259H1.12V1.119H29.88v2.594a.56.56 0 0 0 1.119 0V.56a.56.56 0 0 0-.56-.56zM3.475 21.34h1.702c.233 0 .422.19.422.422v2.917c0 .233-.19.423-.422.423H3.474V21.34z"/>
        <path d="M23.386 4.89h-4.13a.56.56 0 0 0-.56.56v7.683c0 .309.25.56.56.56h4.13a.56.56 0 0 0 .56-.56V5.45a.56.56 0 0 0-.56-.56zm-.56 5.856H21.76v-2.91h1.067v2.91zm0-4.028H21.2a.56.56 0 0 0-.56.56v4.027c0 .31.25.56.56.56h1.626v.709h-3.011V6.009h3.011v.709z"/>
        <circle cx="7.921" cy="23.221" r="1"/>
        <circle cx="5.897" cy="10.824" r="1"/>
    </g>
</svg>
