<?xml version="1.0" encoding="UTF-8"?>
<svg width="276px" height="193px" viewBox="0 0 276 193" version="1.1" xmlns="http://www.w3.org/2000/svg" xmlns:xlink="http://www.w3.org/1999/xlink">
    <!-- Generator: Sketch 46.2 (44496) - http://www.bohemiancoding.com/sketch -->
    <title>logo</title>
    <desc>Created with Sketch.</desc>
    <defs>
        <linearGradient x1="50%" y1="0%" x2="50%" y2="100%" id="linearGradient-1">
            <stop stop-color="#3894F7" offset="0%"></stop>
            <stop stop-color="#47EFA4" offset="100%"></stop>
        </linearGradient>
    </defs>
    <g id="Page-1" stroke="none" stroke-width="1" fill="none" fill-rule="evenodd">
        <g id="logo">
            <polygon id="Shape" fill="url(#linearGradient-1)" fill-rule="nonzero" points="76 49.1162791 140 0 160.837209 17.8604651 160.837209 111.627907 175.72093 111.627907 175.72093 13.3953488 190.604651 13.3953488 190.604651 37.2093023 204 47.627907 204 65.4883721 190.604651 55.0697674 190.604651 128 145.953488 128 145.953488 25.3023256 140 19.3488372 76 65.4883721"></polygon>
            <path d="M87.9069767,77.3953488 L87.9069767,128 L132.55814,128 L132.55814,43.1627907 L87.9069767,77.3953488 Z M117.674419,111.627907 L102.790698,111.627907 L102.790698,86.3255814 L117.674419,74.4186047 L117.674419,111.627907 Z" id="Shape" fill="url(#linearGradient-1)" fill-rule="nonzero"></path>
            <path d="M7.102,156.119 L0.53,156.119 L0.53,149.07 L23.161,149.07 L23.161,156.119 L16.642,156.119 L16.642,192 L7.102,192 L7.102,156.119 Z M27.471,149.07 L39.29,149.07 C43.9893569,149.07 47.5403213,149.900325 49.943,151.561 C52.3456787,153.221675 53.547,156.171979 53.547,160.412 C53.547,163.274014 53.1760037,165.552992 52.434,167.249 C51.6919963,168.945008 50.3140101,170.269995 48.3,171.224 L54.183,192 L44.378,192 L39.661,172.761 L36.958,172.761 L36.958,192 L27.471,192 L27.471,149.07 Z M39.608,167.302 C41.5160096,167.302 42.8498296,166.798505 43.6095,165.7915 C44.3691705,164.784495 44.749,163.27401 44.749,161.26 C44.749,159.316657 44.3956702,157.859172 43.689,156.8875 C42.9823298,155.915828 41.763342,155.43 40.032,155.43 L36.958,155.43 L36.958,167.302 L39.608,167.302 Z M65.913,149.07 L76.725,149.07 L84.728,192 L75.983,192 L74.552,182.937 L68.245,182.937 L66.761,192 L57.804,192 L65.913,149.07 Z M73.651,177.266 L71.372,160.518 L69.093,177.266 L73.651,177.266 Z M89.6740001,149.07 L100.539,149.07 C104.249019,149.07 107.146323,149.529329 109.231,150.448 C111.315677,151.366671 112.790829,152.80649 113.6565,154.7675 C114.522171,156.72851 114.955,159.351984 114.955,162.638 L114.955,178.22 C114.955,181.54135 114.522171,184.191323 113.6565,186.17 C112.790829,188.148677 111.32451,189.614995 109.2575,190.569 C107.19049,191.523005 104.319685,192 100.645,192 L89.6740001,192 L89.6740001,149.07 Z M100.645,185.428 C102.023007,185.428 103.03883,185.224835 103.6925,184.8185 C104.34617,184.412165 104.761333,183.82917 104.938,183.0695 C105.114668,182.30983 105.203,181.188007 105.203,179.704 L105.203,160.995 C105.203,159.616993 105.105834,158.565837 104.9115,157.8415 C104.717166,157.117163 104.29317,156.578335 103.6395,156.225 C102.98583,155.871665 101.970007,155.695 100.592,155.695 L99.1610001,155.695 L99.1610001,185.428 L100.645,185.428 Z M121.332,149.07 L140.624,149.07 L140.624,155.536 L130.819,155.536 L130.819,166.189 L138.292,166.189 L138.292,172.761 L130.819,172.761 L130.819,185.587 L140.73,185.587 L140.73,192 L121.332,192 L121.332,149.07 Z M145.623,149.07 L157.442,149.07 C162.141357,149.07 165.692321,149.900325 168.095,151.561 C170.497679,153.221675 171.699,156.171979 171.699,160.412 C171.699,163.274014 171.328004,165.552992 170.586,167.249 C169.843996,168.945008 168.46601,170.269995 166.452,171.224 L172.335,192 L162.53,192 L157.813,172.761 L155.11,172.761 L155.11,192 L145.623,192 L145.623,149.07 Z M157.76,167.302 C159.66801,167.302 161.00183,166.798505 161.7615,165.7915 C162.521171,164.784495 162.901,163.27401 162.901,161.26 C162.901,159.316657 162.54767,157.859172 161.841,156.8875 C161.13433,155.915828 159.915342,155.43 158.184,155.43 L155.11,155.43 L155.11,167.302 L157.76,167.302 Z M180.2755,189.3765 C178.279157,187.203489 177.210334,183.74969 177.069,179.015 L185.178,177.796 C185.213334,180.51668 185.540164,182.468827 186.1585,183.6525 C186.776837,184.836173 187.704327,185.428 188.941,185.428 C190.531008,185.428 191.326,184.385677 191.326,182.301 C191.326,180.640325 190.946171,179.209339 190.1865,178.008 C189.42683,176.806661 188.234342,175.517007 186.609,174.139 L182.899,170.906 C180.990991,169.245325 179.551172,167.593508 178.5795,165.9505 C177.607829,164.307492 177.122,162.231679 177.122,159.723 C177.122,156.118982 178.190823,153.345343 180.3285,151.402 C182.466177,149.458657 185.407648,148.487 189.153,148.487 C193.216354,148.487 195.981159,149.670655 197.4475,152.038 C198.913841,154.405345 199.7,157.284983 199.806,160.677 L191.644,161.684 C191.573333,159.457989 191.370168,157.850338 191.0345,156.861 C190.698832,155.871662 189.965672,155.394666 188.835,155.43 C188.022329,155.43 187.395169,155.774497 186.9535,156.4635 C186.511831,157.152503 186.291,157.920996 186.291,158.769 C186.291,160.288341 186.635497,161.533828 187.3245,162.5055 C188.013504,163.477172 189.046993,164.581327 190.425,165.818 L193.976,168.945 C196.096011,170.85301 197.738994,172.796323 198.905,174.775 C200.071006,176.753677 200.654,179.10332 200.654,181.824 C200.654,183.83801 200.185838,185.666492 199.2495,187.3095 C198.313162,188.952508 196.997009,190.250995 195.301,191.205 C193.604992,192.159005 191.644011,192.636 189.418,192.636 C185.319313,192.636 182.271843,191.549511 180.2755,189.3765 Z M205.123,183.838 L213.285,183.838 L213.285,192 L205.123,192 L205.123,183.838 Z M224.167,191.0725 C222.294324,190.030161 220.978171,188.493177 220.2185,186.4615 C219.45883,184.429823 219.079,181.841682 219.079,178.697 L219.079,149.07 L228.46,149.07 L228.46,180.128 C228.46,181.859342 228.680831,183.237328 229.1225,184.262 C229.564169,185.286672 230.456327,185.799 231.799,185.799 C233.141674,185.799 234.024998,185.286672 234.449,184.262 C234.873002,183.237328 235.085,181.859342 235.085,180.128 L235.085,149.07 L244.519,149.07 L244.519,178.697 C244.519,181.841682 244.130337,184.429823 243.353,186.4615 C242.575663,188.493177 241.259509,190.030161 239.4045,191.0725 C237.549491,192.114839 235.01435,192.636 231.799,192.636 C228.583651,192.636 226.039676,192.114839 224.167,191.0725 Z M257.203,149.07 L268.015,149.07 L276.018,192 L267.273,192 L265.842,182.937 L259.535,182.937 L258.051,192 L249.094,192 L257.203,149.07 Z M264.941,177.266 L262.662,160.518 L260.383,177.266 L264.941,177.266 Z" id="Traders.ua" fill="#E1E1E1"></path>
        </g>
    </g>
</svg>