<svg xmlns="http://www.w3.org/2000/svg" width="50" height="50" viewBox="0 0 50 50">
    <g fill="#C54C5B" fill-rule="nonzero">
        <path d="M28.946 15.581a.798.798 0 0 0 0-1.595h-.067V10.56a2.118 2.118 0 0 0-2.115-2.116H2.98a2.118 2.118 0 0 0-2.115 2.116v3.425H.798a.798.798 0 0 0 0 1.595H2.76v1.906l-.98.561C.784 18.62 0 20.043 0 21.288v25.28A3.436 3.436 0 0 0 3.433 50H26.31a3.436 3.436 0 0 0 3.433-3.433v-25.28c0-1.244-.783-2.667-1.782-3.239l-.979-.56V15.58h1.963zm-.798 30.986a1.839 1.839 0 0 1-1.837 1.837H3.433a1.839 1.839 0 0 1-1.837-1.837v-1.836h26.552v1.836zm0-3.432H1.596V27.691h26.552v15.444zm-.98-23.702c.513.293.98 1.177.98 1.854v4.808H1.596v-4.808c0-.677.466-1.56.979-1.854l1.38-.79a.798.798 0 0 0 .401-.693v-2.369h21.031v2.369c0 .286.153.55.402.692l1.38.79zM2.46 13.986V10.56c0-.282.238-.52.52-.52h3.168v1.55a.798.798 0 0 0 1.596 0v-1.55h3.688v1.55a.798.798 0 0 0 1.596 0v-1.55h3.688v1.55a.798.798 0 0 0 1.595 0v-1.55H22v1.55a.798.798 0 0 0 1.596 0v-1.55h3.169c.281 0 .52.238.52.52v3.425H2.46z"/>
        <path d="M10.099 40.25h9.546a4.843 4.843 0 0 0 4.837-4.837 4.843 4.843 0 0 0-4.837-4.837h-9.546a4.843 4.843 0 0 0-4.838 4.837A4.843 4.843 0 0 0 10.1 40.25zm5.57-8.079h3.976a3.245 3.245 0 0 1 3.242 3.242 3.245 3.245 0 0 1-3.242 3.241H15.67v-6.483zm-5.57 0h3.975v6.483h-3.975a3.245 3.245 0 0 1-3.242-3.241 3.245 3.245 0 0 1 3.242-3.242zM22.994 17.152h-9.861a.798.798 0 0 0 0 1.596h9.86a.798.798 0 0 0 0-1.596zM9.941 17.152H6.75a.798.798 0 0 0 0 1.596h3.191a.798.798 0 0 0 0-1.596zM32.56 46.01a.798.798 0 0 0 1.596 0v-6.382a.798.798 0 0 0-1.596 0v6.383zM33.358 37.234c.44 0 .798-.357.798-.798V3.99a.798.798 0 0 0-1.596 0v32.447c0 .44.357.798.798.798z"/>
        <path d="M43.99 0H22.725a6.017 6.017 0 0 0-6.01 6.01.798.798 0 0 0 1.595 0 4.42 4.42 0 0 1 4.415-4.414H43.99a4.42 4.42 0 0 1 4.415 4.415v37.978a4.42 4.42 0 0 1-4.415 4.415H31.518a.798.798 0 0 0 0 1.596h12.471A6.017 6.017 0 0 0 50 43.99V6.01A6.017 6.017 0 0 0 43.99 0z"/>
        <path d="M41.28 12.515a3.9 3.9 0 0 0 3.895-3.895 3.9 3.9 0 0 0-3.895-3.894 3.9 3.9 0 0 0-3.895 3.894 3.9 3.9 0 0 0 3.895 3.895zm0-6.194c1.268 0 2.3 1.032 2.3 2.3 0 1.267-1.032 2.299-2.3 2.299a2.302 2.302 0 0 1-2.3-2.3c0-1.267 1.032-2.299 2.3-2.299zM41.28 23.435a3.9 3.9 0 0 0 3.895-3.895 3.9 3.9 0 0 0-3.895-3.895 3.9 3.9 0 0 0-3.895 3.895 3.9 3.9 0 0 0 3.895 3.895zm0-6.194c1.268 0 2.3 1.031 2.3 2.3 0 1.267-1.032 2.298-2.3 2.298a2.302 2.302 0 0 1-2.3-2.299c0-1.268 1.032-2.299 2.3-2.299zM41.28 34.355a3.9 3.9 0 0 0 3.895-3.895 3.9 3.9 0 0 0-3.895-3.895 3.9 3.9 0 0 0-3.895 3.895 3.9 3.9 0 0 0 3.895 3.895zm0-6.194c1.268 0 2.3 1.031 2.3 2.299s-1.032 2.299-2.3 2.299a2.302 2.302 0 0 1-2.3-2.3c0-1.267 1.032-2.298 2.3-2.298zM41.28 45.274a3.9 3.9 0 0 0 3.895-3.894 3.9 3.9 0 0 0-3.895-3.895 3.9 3.9 0 0 0-3.895 3.895 3.9 3.9 0 0 0 3.895 3.894zm0-6.194c1.268 0 2.3 1.032 2.3 2.3 0 1.267-1.032 2.299-2.3 2.299a2.302 2.302 0 0 1-2.3-2.3c0-1.267 1.032-2.299 2.3-2.299zM24.151 6.713c.38-.256.824-.392 1.285-.392.47 0 .922.14 1.306.407a.797.797 0 0 0 .908-1.312 3.873 3.873 0 0 0-2.214-.69c-.78 0-1.533.23-2.177.664a.798.798 0 0 0 .892 1.323z"/>
    </g>
</svg>
