<svg xmlns="http://www.w3.org/2000/svg" width="47" height="50" viewBox="0 0 47 50">
    <g fill="#4A90E2" fill-rule="nonzero">
        <path d="M11.818 34.545a2.73 2.73 0 0 0-2.727 2.728A2.73 2.73 0 0 0 11.818 40a2.73 2.73 0 0 0 2.727-2.727 2.73 2.73 0 0 0-2.727-2.728zm0 3.507a.78.78 0 1 1 .002-1.56.78.78 0 0 1-.002 1.56zM35.455 34.545a2.73 2.73 0 0 0-2.728 2.728A2.73 2.73 0 0 0 35.455 40a2.73 2.73 0 0 0 2.727-2.727 2.73 2.73 0 0 0-2.727-2.728zm0 3.507a.78.78 0 1 1 .001-1.56.78.78 0 0 1-.001 1.56z"/>
        <path d="M35.796 12.475h-5.925L28.094 9.54a.938.938 0 0 0-.803-.448h-8.218c-.33 0-.636.17-.804.448l-1.777 2.936h-5.924c-2.82 0-5.113 2.244-5.113 5.003V36.82c0 2.315 1.369 4.322 3.356 5.289l-3.186 6.586a.906.906 0 0 0 .444 1.217c.13.06.265.088.4.088.349 0 .684-.193.844-.523l3.297-6.816a6.2 6.2 0 0 0 .753.06l-2.32 6.044a.908.908 0 0 0 .545 1.176c.108.04.22.059.329.059a.934.934 0 0 0 .874-.593l1.12-2.916h22.542l1.12 2.916c.14.367.496.593.874.593.11 0 .22-.019.328-.059a.908.908 0 0 0 .546-1.176l-2.32-6.044c.255-.005.506-.025.752-.06l3.298 6.816a.947.947 0 0 0 1.244.435.905.905 0 0 0 .444-1.217l-3.186-6.586c1.987-.967 3.356-2.974 3.356-5.289V17.478c0-2.759-2.294-5.003-5.113-5.003zm-16.19-1.557h7.152l.943 1.557h-9.038l.942-1.557zm-6.994 33.746l.745-1.94h19.65l.744 1.94H12.612zm26.43-7.844c0 2.248-1.87 4.077-4.167 4.077H11.489c-2.298 0-4.167-1.829-4.167-4.077V17.478c0-1.75 1.456-3.175 3.246-3.175h25.228c1.79 0 3.246 1.424 3.246 3.175V36.82z"/>
        <path d="M34.79 15.545H11.301c-1.219 0-2.21 1.03-2.21 2.296v12.7c0 1.757 1.376 3.186 3.068 3.186h21.773c1.692 0 3.068-1.43 3.068-3.187V17.841c0-1.266-.991-2.296-2.21-2.296zm.471 14.995c0 .761-.596 1.38-1.329 1.38H12.16c-.733 0-1.329-.619-1.329-1.38v-8.972h20.756c.48 0 .87-.405.87-.904s-.39-.903-.87-.903H10.83v-1.92c0-.27.211-.489.471-.489h23.49c.259 0 .47.22.47.49V30.54z"/>
        <path d="M23.182 0C10.399 0 0 10.306 0 22.973v26.106c0 .508.416.921.93.921.513 0 .93-.413.93-.921V22.973c0-11.651 9.565-21.13 21.322-21.13s21.322 9.479 21.322 21.13v26.106c0 .508.416.921.93.921.513 0 .93-.413.93-.921V22.973C46.364 10.306 35.964 0 23.182 0z"/>
    </g>
</svg>
