<?xml version="1.0" encoding="UTF-8"?>
<svg width="12px" height="20px" viewBox="0 0 12 20" version="1.1" xmlns="http://www.w3.org/2000/svg" xmlns:xlink="http://www.w3.org/1999/xlink">
    <!-- Generator: Sketch 46.2 (44496) - http://www.bohemiancoding.com/sketch -->
    <title>mobile</title>
    <desc>Created with Sketch.</desc>
    <defs></defs>
    <g id="Page-1" stroke="none" stroke-width="1" fill="none" fill-rule="evenodd">
        <g id="1" transform="translate(-493.000000, -414.000000)" fill-rule="nonzero" fill="#FFFFFF">
            <g id="mobile" transform="translate(493.000000, 414.000000)">
                <path d="M10.004,0 L1.996,0 C0.894,0 0,0.894 0,1.996 L0,18.003 C0,19.106 0.894,20 1.996,20 L10.003,20 C11.106,20 12,19.106 12,18.004 L12,1.996 C12,0.894 11.106,0 10.004,0 Z M6,19 C5.31,19 4.75,18.553 4.75,18 C4.75,17.447 5.31,17 6,17 C6.69,17 7.25,17.447 7.25,18 C7.25,18.553 6.69,19 6,19 Z M10,16 L2,16 L2,2 L10,2 L10,16 Z" id="Shape"></path>
            </g>
        </g>
    </g>
</svg>