<svg xmlns="http://www.w3.org/2000/svg" width="50" height="50" viewBox="0 0 50 50">
    <g fill="#4A90E2" fill-rule="nonzero">
        <path d="M37 40.878v-9.122c0-1.41-1.093-2.488-2.523-2.488h-.42c-.42 0-.757-.249-.841-.58L30.273 18.57v-.083A4.252 4.252 0 0 0 26.405 16h-15.81a4.252 4.252 0 0 0-3.868 2.488v.083L3.784 28.688c-.168.331-.504.58-.84.58h-.421C1.093 29.268 0 30.346 0 31.756v9.122c0 1.41 1.093 2.488 2.523 2.488v4.146c0 1.41 1.093 2.488 2.522 2.488h1.682c1.43 0 2.523-1.078 2.523-2.488v-4.146h18.5v4.146c0 1.41 1.093 2.488 2.523 2.488h1.682c1.43 0 2.522-1.078 2.522-2.488v-4.146c1.43 0 2.523-1.078 2.523-2.488zM7.568 47.512c0 .498-.336.83-.84.83H5.044c-.504 0-.84-.332-.84-.83v-4.146h3.363v4.146zm25.227 0c0 .498-.336.83-.84.83h-1.682c-.505 0-.841-.332-.841-.83v-4.146h3.364v4.146zm2.523-6.634c0 .498-.336.83-.84.83H2.522c-.505 0-.841-.332-.841-.83v-9.122c0-.498.336-.83.84-.83h.421c1.093 0 2.102-.746 2.439-1.824l2.943-10.034a2.535 2.535 0 0 1 2.27-1.41h15.81c.925 0 1.85.498 2.27 1.41l2.943 10.034c.337 1.078 1.346 1.825 2.439 1.825h.42c.505 0 .841.331.841.83v9.121z"/>
        <path d="M29.5 32a3.51 3.51 0 0 0-3.5 3.5 3.51 3.51 0 0 0 3.5 3.5 3.51 3.51 0 0 0 3.5-3.5 3.51 3.51 0 0 0-3.5-3.5zm0 5.25c-.963 0-1.75-.787-1.75-1.75s.787-1.75 1.75-1.75 1.75.787 1.75 1.75-.788 1.75-1.75 1.75zM20.167 37h-3.334c-.5 0-.833.4-.833 1s.333 1 .833 1h3.334c.5 0 .833-.4.833-1s-.333-1-.833-1zM21.2 33h-6.4c-.48 0-.8.4-.8 1s.32 1 .8 1h6.4c.48 0 .8-.4.8-1s-.32-1-.8-1zM10.63 29H26.37c.49 0 .979-.25 1.305-.667.326-.416.408-1 .244-1.5l-1.957-6.666C25.798 19.5 25.146 19 24.411 19H12.589c-.734 0-1.305.417-1.55 1.167l-1.956 6.666c-.164.5-.082 1.084.244 1.5.326.417.816.667 1.305.667zm1.958-8.333h11.824l1.957 6.666H10.631l1.957-6.666zM49.158 0H34.842C34.337 0 34 .333 34 .833V15c0 .5.337.833.842.833h5.895v25.834h-1.684c-.506 0-.842.333-.842.833V45h-1.685c-.505 0-.842.333-.842.833v3.334c0 .5.337.833.842.833h10.106c.505 0 .842-.333.842-.833v-3.334c0-.5-.337-.833-.842-.833h-1.685v-2.5c0-.5-.336-.833-.842-.833h-1.684V15.833h6.737c.505 0 .842-.333.842-.833V.833c0-.5-.337-.833-.842-.833zm-3.369 48.334h-8.42v-1.667h8.42v1.667zM43.263 45h-3.368v-1.667h3.368V45zm5.053-30.833H35.684v-12.5h12.632v12.5z"/>
        <path d="M40.857 12c.514 0 .857-.327.857-.818V9.545h.857C44.457 9.545 46 8.073 46 6.273 46 4.473 44.457 3 42.571 3h-1.714c-.514 0-.857.327-.857.818V11.182c0 .49.343.818.857.818zm3.429-5.727c0 .9-.772 1.636-1.715 1.636h-.857V4.636h.857c.943 0 1.715.737 1.715 1.637zM7.5 32A3.51 3.51 0 0 0 4 35.5 3.51 3.51 0 0 0 7.5 39a3.51 3.51 0 0 0 3.5-3.5A3.51 3.51 0 0 0 7.5 32zm0 5.25c-.963 0-1.75-.787-1.75-1.75s.787-1.75 1.75-1.75 1.75.787 1.75 1.75-.787 1.75-1.75 1.75z"/>
    </g>
</svg>
